<svg width="6" height="10" viewBox="0 0 6 10" fill="none" xmlns="http://www.w3.org/2000/svg">
<path d="M5.14062 4.96875V4.99609C5.19531 4.94141 5.22266 4.85938 5.22266 4.75C5.22266 4.66797 5.19531 4.58594 5.14062 4.50391L1.12109 0.457031C1.03906 0.402344 0.957031 0.375 0.875 0.375C0.792969 0.375 0.710938 0.402344 0.65625 0.457031L0.109375 1.00391C0.0546875 1.08594 0.0273438 1.16797 0.0273438 1.25C0.0273438 1.35938 0.0546875 1.41406 0.109375 1.46875L3.36328 4.75L0.109375 8.03125C0.0546875 8.08594 0.0273438 8.16797 0.0273438 8.25C0.0273438 8.35938 0.0546875 8.44141 0.109375 8.49609L0.65625 9.04297C0.710938 9.09766 0.792969 9.125 0.875 9.125C0.957031 9.125 1.03906 9.09766 1.12109 9.01562L5.14062 4.96875Z" fill="#8E9092"/>
</svg>
