<svg width="63" height="71" viewBox="0 0 63 71" fill="none" xmlns="http://www.w3.org/2000/svg">
<path d="M62.3561 21.212C62.3561 20.053 62.1091 19.008 61.5961 18.134C61.1021 17.26 60.3611 16.538 59.3731 15.968C51.1651 11.237 42.9381 6.50601 34.7301 1.77501C32.5071 0.502013 30.3791 0.540014 28.1751 1.83201C24.9071 3.75101 8.52913 13.137 3.66513 15.968C1.65113 17.127 0.682129 18.913 0.682129 21.231C0.682129 30.75 0.682129 40.288 0.682129 49.807C0.682129 50.947 0.929128 51.954 1.40413 52.828C1.89813 53.721 2.65813 54.481 3.66513 55.07C8.54813 57.901 24.9071 67.268 28.1751 69.206C30.3791 70.498 32.5261 70.555 34.7301 69.263C42.9381 64.513 51.1651 59.801 59.3731 55.07C60.3991 54.481 61.1401 53.74 61.6341 52.828C62.1091 51.954 62.3561 50.947 62.3561 49.807C62.3561 49.788 62.3561 30.731 62.3561 21.212Z" fill="#9A4993"/>
<path d="M31.595 35.405L1.36597 52.809C1.85997 53.702 2.61997 54.462 3.62697 55.051C8.50997 57.882 24.869 67.249 28.137 69.187C30.341 70.479 32.488 70.536 34.692 69.244C42.9 64.494 51.127 59.782 59.335 55.051C60.361 54.462 61.102 53.721 61.596 52.809L31.595 35.405Z" fill="#6A1577"/>
<path d="M22.646 40.554C24.413 43.632 27.719 45.703 31.5 45.703C35.319 45.703 38.644 43.613 40.392 40.497L31.595 35.405L22.646 40.554Z" fill="#6A1577"/>
<path d="M62.356 21.212C62.356 20.053 62.109 19.008 61.596 18.134L31.595 35.405L61.634 52.809C62.109 51.935 62.356 50.928 62.356 49.788C62.356 49.788 62.356 30.731 62.356 21.212Z" fill="#813084"/>
<path d="M40.392 40.4971C38.644 43.5941 35.319 45.7031 31.5 45.7031C27.7 45.7031 24.394 43.6321 22.646 40.5541C21.791 39.0531 21.297 37.3431 21.297 35.5001C21.297 29.8571 25.857 25.2971 31.5 25.2971C35.262 25.2971 38.549 27.3491 40.316 30.3891L49.227 25.2591C45.674 19.1411 39.062 15.0181 31.481 15.0181C20.157 15.0181 10.999 24.1951 10.999 35.5001C10.999 39.2051 11.987 42.7011 13.716 45.7031C17.25 51.8401 23.9 55.9821 31.5 55.9821C39.119 55.9821 45.769 51.8211 49.303 45.6461L40.392 40.4971Z" fill="white"/>
<path d="M51.659 30.655H49.626V40.478H51.659V30.655Z" fill="white"/>
<path d="M56.1619 30.655H54.1289V40.478H56.1619V30.655Z" fill="white"/>
<path d="M57.815 32.3081H47.9919V34.3411H57.815V32.3081Z" fill="white"/>
<path d="M57.815 36.792H47.9919V38.825H57.815V36.792Z" fill="white"/>
</svg>
