<svg width="95" height="50" viewBox="0 0 95 50" fill="none" xmlns="http://www.w3.org/2000/svg">
<path d="M47.5 49.7085C73.7335 49.7085 95 38.5808 95 24.8542C95 11.1276 73.7335 0 47.5 0C21.2665 0 0 11.1276 0 24.8542C0 38.5808 21.2665 49.7085 47.5 49.7085Z" fill="#8993BE"/>
<path fill-rule="evenodd" clip-rule="evenodd" d="M13.3389 39.5704L18.5446 13.0809H30.5817C35.7871 13.408 38.3899 16.024 38.3899 20.6028C38.3899 28.4515 32.2086 33.0299 26.6775 32.7028H20.822L19.5205 39.5704H13.3389ZM22.123 27.7976L23.7499 17.9865H27.9793C30.2567 17.9865 31.8832 18.9675 31.8832 20.9296C31.5581 26.4894 28.9552 27.4705 26.0273 27.7976H22.1234H22.123ZM37.1805 32.7028L42.3859 6.21362H48.5675L47.2661 13.0809H53.122C58.3277 13.408 60.2796 16.024 59.6291 19.2946L57.3517 32.7028H50.8449L53.1223 20.6028C53.4474 18.9675 53.4474 17.9865 51.1704 17.9865H46.2901L43.3622 32.7028H37.1805ZM56.935 39.5704L62.1403 13.0809H74.1778C79.3835 13.408 81.9864 16.024 81.9864 20.6028C81.9864 28.4515 75.8047 33.0299 70.2739 32.7028H64.4177L63.1163 39.5704H56.935ZM65.7187 27.7976L67.3456 17.9865H71.5754C73.8528 17.9865 75.4793 18.9675 75.4793 20.9296C75.1542 26.4894 72.5513 27.4705 69.6234 27.7976H65.7191H65.7187Z" fill="white"/>
</svg>
