<svg width="50" height="70" viewBox="0 0 50 70" fill="none" xmlns="http://www.w3.org/2000/svg">
<path d="M35.5641 29.7436C28.2966 34.427 21.0954 39.0682 13.7042 43.8303C24.7731 45.3417 35.6445 46.8256 46.7314 48.3393C42.9548 42.05 39.2749 35.9227 35.5641 29.7436ZM49.8566 9.01941C48.8807 10.4842 47.9031 11.9484 46.9288 13.4142C43.5819 18.4492 40.2362 23.4835 36.8933 28.5202C36.7071 28.8014 36.4658 29.0242 36.7279 29.4562C39.9589 34.7904 43.1634 40.1414 46.3759 45.4863C46.8827 46.3306 47.3957 47.1715 48.0516 47.9815L49.9995 9.0616L49.8566 9.01941ZM5.75775 25.6514C5.90906 25.7949 6.2865 25.8775 6.46144 25.7915C9.56025 24.2682 12.6788 22.7793 15.7101 21.1306C16.6978 20.594 17.4572 19.6304 18.3094 18.8497C21.1292 16.2639 23.9439 13.6724 26.7587 11.0804C26.9314 10.9212 27.1344 10.7677 27.2379 10.5669C28.2488 8.59079 29.2416 6.60573 30.2704 4.56216C29.0436 4.1026 27.8809 3.65091 26.7041 3.24029C26.5444 3.1846 26.2935 3.29541 26.1191 3.39216C23.3949 4.91429 20.6196 6.35485 17.9814 8.01479C16.6613 8.84504 15.5858 10.0685 14.4169 11.135C12.5342 12.854 10.6526 14.5769 8.79638 16.3263C8.30363 16.7904 7.85475 17.3208 7.47169 17.8788C6.20156 19.7272 4.97081 21.602 3.68213 23.5308C4.40325 24.2767 5.05744 24.9888 5.75775 25.6514ZM17.0826 23.1241C15.5419 29.6362 14.0085 36.1111 12.4256 42.7992C19.8501 38.0157 27.1029 33.3425 34.3074 28.7002C28.5739 26.8439 22.8583 24.9939 17.0826 23.1241ZM29.3659 12.1885L35.6771 27.5403C39.7969 21.3522 43.8345 15.2862 47.9638 9.08185C41.6914 10.1298 35.5686 11.1524 29.3659 12.1885ZM17.3413 21.7921C22.9899 23.6264 28.5266 25.4236 34.2231 27.2725C32.1075 22.1184 30.0645 17.1447 27.9788 12.0654L17.3413 21.7921ZM5.99119 29.4489L0.0826882 43.5727C3.86888 43.4607 7.53975 43.3522 11.3355 43.2402C9.5535 38.6412 7.80638 34.1322 5.99119 29.4489ZM11.4694 39.9648L11.6089 39.9344C12.9594 34.3162 14.3303 28.7367 15.7101 22.8997C12.6332 24.4983 9.69806 26.0238 6.68194 27.5915C8.22038 31.592 9.86175 35.8107 11.4694 39.9648ZM45.693 8.17116C43.8958 7.69529 42.1003 7.21716 40.3014 6.74466C37.7179 6.06573 35.1321 5.3941 32.5496 4.70841C32.2273 4.62291 31.9933 4.56723 31.8038 4.95591C30.8914 6.82566 29.9498 8.68191 29.0228 10.5444C28.9941 10.6023 28.9997 10.6777 28.9778 10.8211C34.5735 9.97341 40.1321 9.13079 45.6896 8.28873L45.693 8.17116ZM35.2688 3.91754C40.0944 5.25291 44.9201 6.58773 49.9146 7.96923L47.4947 1.0741C43.3941 1.98366 39.3424 2.88198 35.2907 3.78029L35.2688 3.91754ZM39.7024 48.5564L27.6868 46.9162C22.6958 46.235 17.7137 45.4852 12.7114 44.9086C10.8973 44.6999 9.03488 44.8923 7.1955 44.9232C5.68406 44.9491 4.17263 45.0065 2.66175 45.0543C2.50594 45.0588 2.35069 45.0903 2.196 45.2574C14.6891 46.4127 27.1834 47.5675 39.6759 48.7235L39.7024 48.5564ZM0.329063 39.2617C1.94006 35.5261 3.54206 31.7877 5.15869 28.0555C5.32069 27.6804 5.30888 27.4267 4.99219 27.1257C4.3155 26.4817 3.68775 25.7881 2.94806 25.0197L0 39.5722L0.108563 39.6239C0.183375 39.5035 0.273938 39.391 0.329063 39.2617ZM32.0608 2.93148C34.776 2.2306 37.5306 1.68385 40.2688 1.07241C40.4454 1.03248 40.6187 0.973977 40.7931 0.923914L40.7666 0.790039L29.0014 2.37235C30.1067 2.85554 30.9578 3.2161 32.0608 2.93148ZM6.57113 60.55V65.3577H3.91388V52.8269H7.56506C9.26719 52.8269 10.5272 53.1369 11.3445 53.7567C12.1618 54.3766 12.5708 55.3182 12.5708 56.5805C12.5708 57.3179 12.3677 57.9738 11.9616 58.5475C11.556 59.1219 10.9823 59.5724 10.2386 59.8981L13.9247 65.3572H10.9761L7.98525 60.5495H6.57113V60.55ZM6.57113 58.39H7.42838C8.26763 58.39 8.88806 58.2494 9.288 57.9699C9.68738 57.6897 9.88763 57.2499 9.88763 56.6502C9.88763 56.0557 9.68344 55.6332 9.2745 55.3818C8.86613 55.1304 8.23331 55.0044 7.37663 55.0044H6.57056V58.39H6.57113ZM22.0838 65.3577L21.7328 64.132H21.5955C21.3154 64.5781 20.9183 64.9218 20.4047 65.1648C19.89 65.4078 19.3039 65.5287 18.6474 65.5287C17.5213 65.5287 16.6731 65.2278 16.1016 64.6248C15.5301 64.0218 15.2449 63.155 15.2449 62.0238V55.7755H17.8588V61.3724C17.8588 62.0637 17.982 62.5824 18.2278 62.9283C18.4731 63.2742 18.864 63.4464 19.4012 63.4464C20.133 63.4464 20.6612 63.2017 20.9869 62.714C21.3126 62.2252 21.4757 61.4157 21.4757 60.2845V55.7761H24.0896V65.3583H22.0838V65.3577ZM32.1632 55.595C33.2944 55.595 34.1803 56.0371 34.821 56.9197C35.4606 57.8022 35.7801 59.0122 35.7801 60.5495C35.7801 62.1318 35.4499 63.3575 34.7906 64.2254C34.1303 65.0945 33.2319 65.5282 32.0946 65.5282C30.969 65.5282 30.0864 65.1192 29.4463 64.3019H29.2663L28.8298 65.3566H26.8324V52.0214H29.4463V55.1242C29.4463 55.5185 29.4114 56.1496 29.3428 57.0187H29.4463C30.0572 56.0703 30.9634 55.595 32.1632 55.595ZM31.3228 57.6869C30.6776 57.6869 30.2063 57.8855 29.9093 58.2826C29.6123 58.6803 29.457 59.3356 29.4463 60.2502V60.5326C29.4463 61.5614 29.5988 62.2983 29.9042 62.7444C30.2102 63.1898 30.6945 63.4126 31.3577 63.4126C31.8943 63.4126 32.3213 63.1651 32.6385 62.6712C32.9558 62.1774 33.1144 61.4585 33.1144 60.5157C33.1144 59.573 32.9541 58.8653 32.634 58.394C32.3145 57.9226 31.8774 57.6869 31.3228 57.6869ZM36.3971 55.7755H39.2597L41.0681 61.1665C41.2223 61.6351 41.3286 62.1892 41.3848 62.8293H41.4366C41.499 62.2409 41.6216 61.6863 41.8044 61.1665L43.5786 55.7755H46.3809L42.327 66.5834C41.9558 67.583 41.4259 68.3317 40.7379 68.8289C40.0489 69.3262 39.2451 69.5742 38.3248 69.5742C37.8731 69.5742 37.4304 69.5259 36.9968 69.4285V67.3546C37.3112 67.4283 37.6538 67.4654 38.025 67.4654C38.4874 67.4654 38.8918 67.3242 39.2378 67.0413C39.5837 66.7589 39.8537 66.332 40.0472 65.7605L40.2013 65.2885L36.3971 55.7755Z" fill="#D91404"/>
</svg>
