<svg width="7" height="12" viewBox="0 0 7 12" fill="none" xmlns="http://www.w3.org/2000/svg">
    <path d="M6.73438 6.53125V6.56641C6.80469 6.49609 6.83984 6.39062 6.83984 6.25C6.83984 6.14453 6.80469 6.03906 6.73438 5.93359L1.56641 0.730469C1.46094 0.660156 1.35547 0.625 1.25 0.625C1.14453 0.625 1.03906 0.660156 0.96875 0.730469L0.265625 1.43359C0.195312 1.53906 0.160156 1.64453 0.160156 1.75C0.160156 1.89062 0.195312 1.96094 0.265625 2.03125L4.44922 6.25L0.265625 10.4688C0.195312 10.5391 0.160156 10.6445 0.160156 10.75C0.160156 10.8906 0.195312 10.9961 0.265625 11.0664L0.96875 11.7695C1.03906 11.8398 1.14453 11.875 1.25 11.875C1.35547 11.875 1.46094 11.8398 1.56641 11.7344L6.73438 6.53125Z" fill="#623E98"/>
</svg>
