<svg width="1374" height="525" xmlns="http://www.w3.org/2000/svg">
    <path class="svg-fill" d="M485 352h32v-46h35c32 0 56-20 56-48 0-29-24-49-56-49h-67v143zm32-74v-41h31c16 0 27 8 27 21 0 12-11 20-27 20h-31zm112 74h53c50 0 86-29 86-71s-36-72-86-72h-53v143zm32-27v-88h25c29 0 49 18 49 44 0 25-20 44-49 44h-25zm246-88v-28H792v143h32v-56h75v-28h-75v-31h83zm76 118c35 0 53-19 53-41 0-26-21-35-49-42-25-6-40-11-40-26 0-13 14-25 32-25 15 0 30 7 43 19l10-13c-14-12-30-20-52-20-29 0-50 18-50 40 0 25 19 34 49 41 26 6 40 12 40 27 0 13-12 25-35 25-21 0-36-9-49-21l-10 13c15 14 34 23 58 23zm134-113c-16 0-30 9-37 20v-55h-16v145h16v-68c0-15 16-28 35-28 16 0 28 13 28 30v66h16v-68c0-24-17-42-42-42zm83-17c6 0 11-5 11-10 0-6-5-10-11-10s-11 4-11 10c0 5 5 10 11 10zm-8 127h16V245h-16v107zm74-122c0-8 6-14 12-14 5 0 10 2 12 5l8-12c-6-4-13-7-21-7-16 0-27 12-27 28v15h-18v14h18v93h16v-93h28v-14h-28v-15zm100 107c-3 2-7 4-12 4-6 0-12-6-12-14v-68h28v-14h-28v-30h-16v30h-18v14h18v68c0 17 11 28 27 28 8 0 15-3 21-7l-8-11zM341 304L219 147 205 0v525l14-157 122-64z"/>
    <path class="svg-fill" d="M380 222l-28 80-53-66zM422 254l-36-28-10 33zM336 316l-1 15-103 38zM168 409h25v-23h-25zM173 321h20v19h-20zM170 348h23v22h-23zM127 449v-20h21v20zM110 444v-11h11v11zM120 424v-15h16v15zM117 458v-9h9v9zM136 388v-12h13v12zM147 365v-15h15v15zM182 304h11v10h-11zM165 269h28v26h-28zM172 242h21v20h-21zM176 220h17v16h-17zM164 206h10v10h-10zM159 246h9v8h-9zM174 181h19v18h-19zM151 179h16v15h-16zM141 134h21v20h-21zM166 160h16v16h-16zM180 144h13v12h-13zM22 118h13v12H22zM43 111h12v12H43zM68 116h24v23H68zM129 174h12v12h-12zM147 223h11v10h-11zM130 198h17v16h-17zM104 174h12v12h-12zM53 140h8v8h-8zM106 125h16v16h-16zM82 156h14v13H82zM19 139h8v8h-8zM29 152h16v16H29zM56 160h13v12H56zM52 179h9v9h-9zM67 192h9v8h-9zM81 189h17v17H81zM102 207h8v9h-8zM109 221h9v8h-9zM122 225h20v19h-20zM147 256h8v9h-8zM140 409v-9h9v9zM104 461v-5h6v5zM0 106h9v9H0zM160 425v-9h9v9zM156 400v-5h6v5zM108 148h17v17h-17z"/>
</svg>