<!-- https://trianglify.io/p/w:1440!h:900!x:523b7c.623e98.9571cb.c8a4fe!v:0.75!c:0.07!s:ukut2q -->
<svg xmlns="http://www.w3.org/2000/svg" viewBox="0 0 1440 900"><path d="M803,486L858,522L848,432Z" fill="#8460ba" stroke="#8460ba" stroke-width="1.51"/><path d="M858,522L940,506L848,432Z" fill="#8762bd" stroke="#8762bd" stroke-width="1.51"/><path d="M848,432L735,433L803,486Z" fill="#7f5bb5" stroke="#7f5bb5" stroke-width="1.51"/><path d="M858,522L936,586L940,506Z" fill="#8d69c3" stroke="#8d69c3" stroke-width="1.51"/><path d="M785,624L867,614L858,522Z" fill="#8d69c3" stroke="#8d69c3" stroke-width="1.51"/><path d="M785,624L858,522L803,486Z" fill="#8864be" stroke="#8864be" stroke-width="1.51"/><path d="M867,614L936,586L858,522Z" fill="#8f6ac4" stroke="#8f6ac4" stroke-width="1.51"/><path d="M940,506L986,413L848,432Z" fill="#8662bc" stroke="#8662bc" stroke-width="1.51"/><path d="M848,432L774,333L735,433Z" fill="#7a56b0" stroke="#7a56b0" stroke-width="1.51"/><path d="M1068,503L986,413L940,506Z" fill="#8c68c2" stroke="#8c68c2" stroke-width="1.51"/><path d="M706,629L785,624L803,486Z" fill="#8864be" stroke="#8864be" stroke-width="1.51"/><path d="M875,303L774,333L848,432Z" fill="#7955af" stroke="#7955af" stroke-width="1.51"/><path d="M986,413L875,303L848,432Z" fill="#7f5bb5" stroke="#7f5bb5" stroke-width="1.51"/><path d="M735,433L652,536L803,486Z" fill="#7e5ab4" stroke="#7e5ab4" stroke-width="1.51"/><path d="M774,333L689,364L735,433Z" fill="#7651ac" stroke="#7651ac" stroke-width="1.51"/><path d="M689,364L652,536L735,433Z" fill="#7955af" stroke="#7955af" stroke-width="1.51"/><path d="M986,413L951,301L875,303Z" fill="#7e59b3" stroke="#7e59b3" stroke-width="1.51"/><path d="M652,536L706,629L803,486Z" fill="#835fb9" stroke="#835fb9" stroke-width="1.51"/><path d="M561,523L586,590L652,536Z" fill="#7d59b3" stroke="#7d59b3" stroke-width="1.51"/><path d="M774,333L693,333L689,364Z" fill="#724ea8" stroke="#724ea8" stroke-width="1.51"/><path d="M780,225L693,333L774,333Z" fill="#704ca6" stroke="#704ca6" stroke-width="1.51"/><path d="M936,586L1068,503L940,506Z" fill="#906cc6" stroke="#906cc6" stroke-width="1.51"/><path d="M986,413L1109,368L951,301Z" fill="#835fb9" stroke="#835fb9" stroke-width="1.51"/><path d="M936,586L1094,600L1068,503Z" fill="#9672cc" stroke="#9672cc" stroke-width="1.51"/><path d="M867,614L959,674L936,586Z" fill="#9571cb" stroke="#9571cb" stroke-width="1.51"/><path d="M834,710L959,674L867,614Z" fill="#9672cc" stroke="#9672cc" stroke-width="1.51"/><path d="M834,710L867,614L785,624Z" fill="#926ec8" stroke="#926ec8" stroke-width="1.51"/><path d="M750,724L834,710L785,624Z" fill="#936fc9" stroke="#936fc9" stroke-width="1.51"/><path d="M875,303L780,225L774,333Z" fill="#734fa9" stroke="#734fa9" stroke-width="1.51"/><path d="M890,205L780,225L875,303Z" fill="#7451a9" stroke="#7451a9" stroke-width="1.51"/><path d="M706,629L750,724L785,624Z" fill="#8e6ac4" stroke="#8e6ac4" stroke-width="1.51"/><path d="M706,720L750,724L706,629Z" fill="#8f6bc5" stroke="#8f6bc5" stroke-width="1.51"/><path d="M959,674L1094,600L936,586Z" fill="#9874ce" stroke="#9874ce" stroke-width="1.51"/><path d="M951,301L890,205L875,303Z" fill="#7754ad" stroke="#7754ad" stroke-width="1.51"/><path d="M581,685L706,720L706,629Z" fill="#8b67c1" stroke="#8b67c1" stroke-width="1.51"/><path d="M1068,503L1109,368L986,413Z" fill="#8b67c1" stroke="#8b67c1" stroke-width="1.51"/><path d="M951,301L980,215L890,205Z" fill="#7956ad" stroke="#7956ad" stroke-width="1.51"/><path d="M1167,431L1109,368L1068,503Z" fill="#8f6ac4" stroke="#8f6ac4" stroke-width="1.51"/><path d="M652,536L586,590L706,629Z" fill="#835eb9" stroke="#835eb9" stroke-width="1.51"/><path d="M561,523L652,536L535,410Z" fill="#7753ad" stroke="#7753ad" stroke-width="1.51"/><path d="M535,410L652,536L689,364Z" fill="#7551ab" stroke="#7551ab" stroke-width="1.51"/><path d="M1095,267L980,215L951,301Z" fill="#7d59b2" stroke="#7d59b2" stroke-width="1.51"/><path d="M583,267L535,410L689,364Z" fill="#6c48a2" stroke="#6c48a2" stroke-width="1.51"/><path d="M583,267L689,364L693,333Z" fill="#6d49a3" stroke="#6d49a3" stroke-width="1.51"/><path d="M1209,499L1167,431L1068,503Z" fill="#9470ca" stroke="#9470ca" stroke-width="1.51"/><path d="M1109,368L1095,267L951,301Z" fill="#815db7" stroke="#815db7" stroke-width="1.51"/><path d="M1094,600L1160,566L1068,503Z" fill="#9874ce" stroke="#9874ce" stroke-width="1.51"/><path d="M1158,665L1160,566L1094,600Z" fill="#9f7bd5" stroke="#9f7bd5" stroke-width="1.51"/><path d="M1177,298L1095,267L1109,368Z" fill="#8560bb" stroke="#8560bb" stroke-width="1.51"/><path d="M959,674L1096,692L1094,600Z" fill="#9e7ad4" stroke="#9e7ad4" stroke-width="1.51"/><path d="M990,776L1096,692L959,674Z" fill="#a17dd7" stroke="#a17dd7" stroke-width="1.51"/><path d="M990,776L959,674L834,710Z" fill="#9d79d3" stroke="#9d79d3" stroke-width="1.51"/><path d="M902,838L990,776L834,710Z" fill="#a07cd6" stroke="#a07cd6" stroke-width="1.51"/><path d="M902,838L834,710L800,839Z" fill="#9f7bd5" stroke="#9f7bd5" stroke-width="1.51"/><path d="M586,590L581,685L706,629Z" fill="#8662bc" stroke="#8662bc" stroke-width="1.51"/><path d="M494,565L581,685L586,590Z" fill="#805cb6" stroke="#805cb6" stroke-width="1.51"/><path d="M494,565L586,590L561,523Z" fill="#7b57b1" stroke="#7b57b1" stroke-width="1.51"/><path d="M653,172L583,267L693,333Z" fill="#69469e" stroke="#69469e" stroke-width="1.51"/><path d="M878,101L780,126L890,205Z" fill="#7151a4" stroke="#7151a4" stroke-width="1.51"/><path d="M1095,267L1074,204L980,215Z" fill="#7e5bb2" stroke="#7e5bb2" stroke-width="1.51"/><path d="M1160,200L1074,204L1095,267Z" fill="#815eb5" stroke="#815eb5" stroke-width="1.51"/><path d="M780,225L653,172L693,333Z" fill="#6c49a1" stroke="#6c49a1" stroke-width="1.51"/><path d="M890,205L780,126L780,225Z" fill="#714fa4" stroke="#714fa4" stroke-width="1.51"/><path d="M878,101L890,205L964,78Z" fill="#7453a6" stroke="#7453a6" stroke-width="1.51"/><path d="M1160,566L1209,499L1068,503Z" fill="#9874ce" stroke="#9874ce" stroke-width="1.51"/><path d="M1167,431L1177,298L1109,368Z" fill="#8b66c1" stroke="#8b66c1" stroke-width="1.51"/><path d="M1258,531L1209,499L1160,566Z" fill="#9c78d2" stroke="#9c78d2" stroke-width="1.51"/><path d="M780,126L653,172L780,225Z" fill="#6c4b9f" stroke="#6c4b9f" stroke-width="1.51"/><path d="M1096,692L1158,665L1094,600Z" fill="#a17dd7" stroke="#a17dd7" stroke-width="1.51"/><path d="M1172,825L1158,665L1096,692Z" fill="#a985df" stroke="#a985df" stroke-width="1.51"/><path d="M434,479L494,565L561,523Z" fill="#7651ac" stroke="#7651ac" stroke-width="1.51"/><path d="M800,839L834,710L750,724Z" fill="#9975cf" stroke="#9975cf" stroke-width="1.51"/><path d="M990,776L1068,802L1096,692Z" fill="#a782dd" stroke="#a782dd" stroke-width="1.51"/><path d="M800,839L750,724L636,796Z" fill="#9874ce" stroke="#9874ce" stroke-width="1.51"/><path d="M636,796L750,724L706,720Z" fill="#936fc9" stroke="#936fc9" stroke-width="1.51"/><path d="M1275,369L1177,298L1167,431Z" fill="#8e69c4" stroke="#8e69c4" stroke-width="1.51"/><path d="M964,78L890,205L980,215Z" fill="#7755a9" stroke="#7755a9" stroke-width="1.51"/><path d="M581,685L636,796L706,720Z" fill="#8f6bc5" stroke="#8f6bc5" stroke-width="1.51"/><path d="M562,775L636,796L581,685Z" fill="#8e69c4" stroke="#8e69c4" stroke-width="1.51"/><path d="M994,918L1068,802L990,776Z" fill="#ab87e1" stroke="#ab87e1" stroke-width="1.51"/><path d="M535,410L434,479L561,523Z" fill="#724ea8" stroke="#724ea8" stroke-width="1.51"/><path d="M462,301L440,428L535,410Z" fill="#68449e" stroke="#68449e" stroke-width="1.51"/><path d="M462,301L535,410L583,267Z" fill="#66429c" stroke="#66429c" stroke-width="1.51"/><path d="M462,727L581,685L494,565Z" fill="#825db8" stroke="#825db8" stroke-width="1.51"/><path d="M462,727L562,775L581,685Z" fill="#8965bf" stroke="#8965bf" stroke-width="1.51"/><path d="M1209,499L1275,369L1167,431Z" fill="#9470ca" stroke="#9470ca" stroke-width="1.51"/><path d="M1297,631L1258,531L1160,566Z" fill="#a17dd7" stroke="#a17dd7" stroke-width="1.51"/><path d="M1297,631L1160,566L1158,665Z" fill="#a37fd9" stroke="#a37fd9" stroke-width="1.51"/><path d="M440,428L434,479L535,410Z" fill="#6d49a3" stroke="#6d49a3" stroke-width="1.51"/><path d="M758,-7L693,71L780,126Z" fill="#694b9b" stroke="#694b9b" stroke-width="1.51"/><path d="M1078,121L964,78L980,215Z" fill="#7958ac" stroke="#7958ac" stroke-width="1.51"/><path d="M1078,121L980,215L1074,204Z" fill="#7c5bb0" stroke="#7c5bb0" stroke-width="1.51"/><path d="M1177,298L1160,200L1095,267Z" fill="#8460b8" stroke="#8460b8" stroke-width="1.51"/><path d="M1266,209L1160,200L1177,298Z" fill="#8663ba" stroke="#8663ba" stroke-width="1.51"/><path d="M653,172L542,188L583,267Z" fill="#654399" stroke="#654399" stroke-width="1.51"/><path d="M565,68L542,188L653,172Z" fill="#634396" stroke="#634396" stroke-width="1.51"/><path d="M693,71L653,172L780,126Z" fill="#69499b" stroke="#69499b" stroke-width="1.51"/><path d="M542,188L462,301L583,267Z" fill="#634098" stroke="#634098" stroke-width="1.51"/><path d="M1160,200L1078,121L1074,204Z" fill="#7f5eb2" stroke="#7f5eb2" stroke-width="1.51"/><path d="M872,10L780,126L878,101Z" fill="#6f50a0" stroke="#6f50a0" stroke-width="1.51"/><path d="M1258,531L1275,369L1209,499Z" fill="#9874ce" stroke="#9874ce" stroke-width="1.51"/><path d="M800,839L839,929L902,838Z" fill="#a682dc" stroke="#a682dc" stroke-width="1.51"/><path d="M902,838L994,918L990,776Z" fill="#a985df" stroke="#a985df" stroke-width="1.51"/><path d="M636,796L732,908L800,839Z" fill="#9d78d3" stroke="#9d78d3" stroke-width="1.51"/><path d="M638,888L732,908L636,796Z" fill="#9c77d1" stroke="#9c77d1" stroke-width="1.51"/><path d="M732,908L839,929L800,839Z" fill="#a580db" stroke="#a580db" stroke-width="1.51"/><path d="M379,686L462,727L494,565Z" fill="#805cb5" stroke="#805cb5" stroke-width="1.51"/><path d="M565,888L638,888L636,796Z" fill="#9874ce" stroke="#9874ce" stroke-width="1.51"/><path d="M565,888L636,796L562,775Z" fill="#936fc9" stroke="#936fc9" stroke-width="1.51"/><path d="M839,929L994,918L902,838Z" fill="#ab87e1" stroke="#ab87e1" stroke-width="1.51"/><path d="M1302,702L1297,631L1158,665Z" fill="#aa86e0" stroke="#aa86e0" stroke-width="1.51"/><path d="M964,78L872,10L878,101Z" fill="#7153a3" stroke="#7153a3" stroke-width="1.51"/><path d="M943,-42L872,10L964,78Z" fill="#7153a1" stroke="#7153a1" stroke-width="1.51"/><path d="M1172,825L1096,692L1068,802Z" fill="#ab87e1" stroke="#ab87e1" stroke-width="1.51"/><path d="M1258,531L1356,422L1275,369Z" fill="#9974cf" stroke="#9974cf" stroke-width="1.51"/><path d="M440,428L377,415L434,479Z" fill="#6d4aa2" stroke="#6d4aa2" stroke-width="1.51"/><path d="M338,622L379,686L494,565Z" fill="#7c59b1" stroke="#7c59b1" stroke-width="1.51"/><path d="M462,301L377,415L440,428Z" fill="#68459d" stroke="#68459d" stroke-width="1.51"/><path d="M350,289L377,415L462,301Z" fill="#634198" stroke="#634198" stroke-width="1.51"/><path d="M1142,892L1172,825L1068,802Z" fill="#b28ee8" stroke="#b28ee8" stroke-width="1.51"/><path d="M1078,121L1052,10L964,78Z" fill="#7859a9" stroke="#7859a9" stroke-width="1.51"/><path d="M1160,200L1152,103L1078,121Z" fill="#805fb2" stroke="#805fb2" stroke-width="1.51"/><path d="M1266,209L1152,103L1160,200Z" fill="#8462b7" stroke="#8462b7" stroke-width="1.51"/><path d="M1275,369L1288,264L1177,298Z" fill="#8b67c1" stroke="#8b67c1" stroke-width="1.51"/><path d="M1392,310L1288,264L1275,369Z" fill="#8f6ac5" stroke="#8f6ac5" stroke-width="1.51"/><path d="M872,10L758,-7L780,126Z" fill="#6c4d9d" stroke="#6c4d9d" stroke-width="1.51"/><path d="M693,71L565,68L653,172Z" fill="#654597" stroke="#654597" stroke-width="1.51"/><path d="M1297,631L1342,520L1258,531Z" fill="#a37fd9" stroke="#a37fd9" stroke-width="1.51"/><path d="M1288,264L1266,209L1177,298Z" fill="#8965be" stroke="#8965be" stroke-width="1.51"/><path d="M687,-4L565,68L693,71Z" fill="#644695" stroke="#644695" stroke-width="1.51"/><path d="M542,188L433,188L462,301Z" fill="#603e94" stroke="#603e94" stroke-width="1.51"/><path d="M805,1034L839,929L732,908Z" fill="#a581db" stroke="#a581db" stroke-width="1.51"/><path d="M805,1034L863,1035L839,929Z" fill="#a883de" stroke="#a883de" stroke-width="1.51"/><path d="M490,869L565,888L562,775Z" fill="#926ec8" stroke="#926ec8" stroke-width="1.51"/><path d="M490,65L433,188L542,188Z" fill="#5e3e91" stroke="#5e3e91" stroke-width="1.51"/><path d="M1297,631L1372,606L1342,520Z" fill="#a883de" stroke="#a883de" stroke-width="1.51"/><path d="M1172,825L1302,702L1158,665Z" fill="#ad89e3" stroke="#ad89e3" stroke-width="1.51"/><path d="M758,-7L687,-4L693,71Z" fill="#674897" stroke="#674897" stroke-width="1.51"/><path d="M1172,825L1282,815L1302,702Z" fill="#b490e9" stroke="#b490e9" stroke-width="1.51"/><path d="M1071,940L1142,892L1068,802Z" fill="#b38fe9" stroke="#b38fe9" stroke-width="1.51"/><path d="M1152,103L1052,10L1078,121Z" fill="#7c5dad" stroke="#7c5dad" stroke-width="1.51"/><path d="M879,-123L740,-77L758,-7Z" fill="#6a4d9a" stroke="#6a4d9a" stroke-width="1.51"/><path d="M998,-96L1052,10L1060,-108Z" fill="#7759a6" stroke="#7759a6" stroke-width="1.51"/><path d="M1342,520L1356,422L1258,531Z" fill="#9e7ad4" stroke="#9e7ad4" stroke-width="1.51"/><path d="M1288,264L1397,186L1266,209Z" fill="#8c69bf" stroke="#8c69bf" stroke-width="1.51"/><path d="M377,415L336,470L434,479Z" fill="#6d4aa2" stroke="#6d4aa2" stroke-width="1.51"/><path d="M276,419L336,470L377,415Z" fill="#6b499f" stroke="#6b499f" stroke-width="1.51"/><path d="M462,727L441,797L562,775Z" fill="#8a65bf" stroke="#8a65bf" stroke-width="1.51"/><path d="M338,622L494,565L434,479Z" fill="#7653ac" stroke="#7653ac" stroke-width="1.51"/><path d="M1057,985L1071,940L994,918Z" fill="#b28ee8" stroke="#b28ee8" stroke-width="1.51"/><path d="M994,918L1071,940L1068,802Z" fill="#b28ee8" stroke="#b28ee8" stroke-width="1.51"/><path d="M379,686L441,797L462,727Z" fill="#8662bb" stroke="#8662bb" stroke-width="1.51"/><path d="M1052,10L943,-42L964,78Z" fill="#7557a5" stroke="#7557a5" stroke-width="1.51"/><path d="M758,-7L740,-77L687,-4Z" fill="#674997" stroke="#674997" stroke-width="1.51"/><path d="M336,470L338,622L434,479Z" fill="#7350a7" stroke="#7350a7" stroke-width="1.51"/><path d="M379,686L357,822L441,797Z" fill="#8764bc" stroke="#8764bc" stroke-width="1.51"/><path d="M441,797L490,869L562,775Z" fill="#8e69c4" stroke="#8e69c4" stroke-width="1.51"/><path d="M433,188L350,289L462,301Z" fill="#603e94" stroke="#603e94" stroke-width="1.51"/><path d="M1342,520L1452,482L1356,422Z" fill="#a17cd6" stroke="#a17cd6" stroke-width="1.51"/><path d="M1407,666L1372,606L1297,631Z" fill="#ad89e3" stroke="#ad89e3" stroke-width="1.51"/><path d="M486,-2L490,65L565,68Z" fill="#5d3e8d" stroke="#5d3e8d" stroke-width="1.51"/><path d="M565,68L490,65L542,188Z" fill="#604091" stroke="#604091" stroke-width="1.51"/><path d="M433,188L352,167L350,289Z" fill="#5e3d91" stroke="#5e3d91" stroke-width="1.51"/><path d="M1071,940L1154,1004L1142,892Z" fill="#b793ed" stroke="#b793ed" stroke-width="1.51"/><path d="M997,1022L1057,985L994,918Z" fill="#b18de7" stroke="#b18de7" stroke-width="1.51"/><path d="M863,1035L994,918L839,929Z" fill="#ab87e1" stroke="#ab87e1" stroke-width="1.51"/><path d="M1302,702L1407,666L1297,631Z" fill="#ae8ae4" stroke="#ae8ae4" stroke-width="1.51"/><path d="M1302,906L1282,815L1172,825Z" fill="#b995ef" stroke="#b995ef" stroke-width="1.51"/><path d="M1302,906L1172,825L1142,892Z" fill="#b995ef" stroke="#b995ef" stroke-width="1.51"/><path d="M276,419L291,502L336,470Z" fill="#6d4ba0" stroke="#6d4ba0" stroke-width="1.51"/><path d="M336,470L291,502L338,622Z" fill="#7351a7" stroke="#7351a7" stroke-width="1.51"/><path d="M805,1034L732,908L662,1020Z" fill="#a27dd8" stroke="#a27dd8" stroke-width="1.51"/><path d="M732,908L638,888L662,1020Z" fill="#9f7bd5" stroke="#9f7bd5" stroke-width="1.51"/><path d="M570,978L638,888L565,888Z" fill="#9a76d0" stroke="#9a76d0" stroke-width="1.51"/><path d="M863,1035L997,1022L994,918Z" fill="#ae8ae4" stroke="#ae8ae4" stroke-width="1.51"/><path d="M879,-123L758,-7L872,10Z" fill="#6c4f9c" stroke="#6c4f9c" stroke-width="1.51"/><path d="M687,-4L560,-20L565,68Z" fill="#614391" stroke="#614391" stroke-width="1.51"/><path d="M1356,422L1392,310L1275,369Z" fill="#9470ca" stroke="#9470ca" stroke-width="1.51"/><path d="M1211,-22L1052,10L1152,103Z" fill="#7d5ead" stroke="#7d5ead" stroke-width="1.51"/><path d="M1456,369L1392,310L1356,422Z" fill="#9873ce" stroke="#9873ce" stroke-width="1.51"/><path d="M490,869L570,978L565,888Z" fill="#9773cd" stroke="#9773cd" stroke-width="1.51"/><path d="M570,978L662,1020L638,888Z" fill="#9c77d2" stroke="#9c77d2" stroke-width="1.51"/><path d="M350,289L276,419L377,415Z" fill="#664399" stroke="#664399" stroke-width="1.51"/><path d="M598,-81L560,-20L687,-4Z" fill="#614391" stroke="#614391" stroke-width="1.51"/><path d="M350,289L230,324L276,419Z" fill="#624196" stroke="#624196" stroke-width="1.51"/><path d="M377,112L352,167L433,188Z" fill="#5d3d8e" stroke="#5d3d8e" stroke-width="1.51"/><path d="M377,112L433,188L490,65Z" fill="#5c3d8e" stroke="#5c3d8e" stroke-width="1.51"/><path d="M1406,786L1407,666L1302,702Z" fill="#b591eb" stroke="#b591eb" stroke-width="1.51"/><path d="M1468,589L1452,482L1342,520Z" fill="#a783dd" stroke="#a783dd" stroke-width="1.51"/><path d="M943,-42L879,-123L872,10Z" fill="#6f529f" stroke="#6f529f" stroke-width="1.51"/><path d="M1052,10L998,-96L943,-42Z" fill="#7557a5" stroke="#7557a5" stroke-width="1.51"/><path d="M1288,78L1152,103L1266,209Z" fill="#8564b7" stroke="#8564b7" stroke-width="1.51"/><path d="M1397,186L1288,78L1266,209Z" fill="#8969bd" stroke="#8969bd" stroke-width="1.51"/><path d="M384,12L377,112L490,65Z" fill="#5a3d8b" stroke="#5a3d8b" stroke-width="1.51"/><path d="M441,797L357,822L490,869Z" fill="#8d6ac3" stroke="#8d6ac3" stroke-width="1.51"/><path d="M490,869L482,1010L570,978Z" fill="#9672cc" stroke="#9672cc" stroke-width="1.51"/><path d="M285,768L357,822L379,686Z" fill="#8663ba" stroke="#8663ba" stroke-width="1.51"/><path d="M261,636L379,686L338,622Z" fill="#7d5ab0" stroke="#7d5ab0" stroke-width="1.51"/><path d="M560,-20L486,-2L565,68Z" fill="#5d408d" stroke="#5d408d" stroke-width="1.51"/><path d="M444,-124L486,-2L560,-20Z" fill="#5b3e8b" stroke="#5b3e8b" stroke-width="1.51"/><path d="M998,-96L879,-123L943,-42Z" fill="#7254a2" stroke="#7254a2" stroke-width="1.51"/><path d="M659,-121L598,-81L687,-4Z" fill="#634593" stroke="#634593" stroke-width="1.51"/><path d="M1468,589L1342,520L1372,606Z" fill="#a985df" stroke="#a985df" stroke-width="1.51"/><path d="M291,502L261,636L338,622Z" fill="#7755ab" stroke="#7755ab" stroke-width="1.51"/><path d="M181,515L261,636L291,502Z" fill="#7352a6" stroke="#7352a6" stroke-width="1.51"/><path d="M1057,985L1154,1004L1071,940Z" fill="#b591eb" stroke="#b591eb" stroke-width="1.51"/><path d="M1282,815L1406,786L1302,702Z" fill="#b692ec" stroke="#b692ec" stroke-width="1.51"/><path d="M1085,1071L1154,1004L1057,985Z" fill="#b691ec" stroke="#b691ec" stroke-width="1.51"/><path d="M659,-121L687,-4L740,-77Z" fill="#654795" stroke="#654795" stroke-width="1.51"/><path d="M1288,78L1211,-22L1152,103Z" fill="#8163b2" stroke="#8163b2" stroke-width="1.51"/><path d="M1392,310L1397,186L1288,264Z" fill="#8f6bc3" stroke="#8f6bc3" stroke-width="1.51"/><path d="M1452,482L1456,369L1356,422Z" fill="#9e7ad4" stroke="#9e7ad4" stroke-width="1.51"/><path d="M1288,78L1292,-33L1211,-22Z" fill="#8264b2" stroke="#8264b2" stroke-width="1.51"/><path d="M1474,279L1397,186L1392,310Z" fill="#926ec7" stroke="#926ec7" stroke-width="1.51"/><path d="M302,73L279,225L352,167Z" fill="#5b3d8c" stroke="#5b3d8c" stroke-width="1.51"/><path d="M352,167L279,225L350,289Z" fill="#5e3d90" stroke="#5e3d90" stroke-width="1.51"/><path d="M180,428L181,515L291,502Z" fill="#6d4ca0" stroke="#6d4ca0" stroke-width="1.51"/><path d="M805,1034L859,1121L863,1035Z" fill="#a883de" stroke="#a883de" stroke-width="1.51"/><path d="M863,1035L961,1105L997,1022Z" fill="#ad89e3" stroke="#ad89e3" stroke-width="1.51"/><path d="M997,1022L1085,1071L1057,985Z" fill="#b38fe9" stroke="#b38fe9" stroke-width="1.51"/><path d="M662,1020L706,1084L805,1034Z" fill="#a27dd7" stroke="#a27dd7" stroke-width="1.51"/><path d="M548,1086L706,1084L662,1020Z" fill="#9d78d3" stroke="#9d78d3" stroke-width="1.51"/><path d="M548,1086L662,1020L570,978Z" fill="#9a76d0" stroke="#9a76d0" stroke-width="1.51"/><path d="M1211,-22L1060,-108L1052,10Z" fill="#7a5caa" stroke="#7a5caa" stroke-width="1.51"/><path d="M998,-96L1060,-108L879,-123Z" fill="#7456a4" stroke="#7456a4" stroke-width="1.51"/><path d="M1280,985L1302,906L1142,892Z" fill="#bd99f3" stroke="#bd99f3" stroke-width="1.51"/><path d="M879,-123L659,-121L740,-77Z" fill="#694b98" stroke="#694b98" stroke-width="1.51"/><path d="M1452,482L1576,396L1456,369Z" fill="#9e7ad4" stroke="#9e7ad4" stroke-width="1.51"/><path d="M1407,666L1468,589L1372,606Z" fill="#ae8ae4" stroke="#ae8ae4" stroke-width="1.51"/><path d="M1464,701L1468,589L1407,666Z" fill="#b38fe9" stroke="#b38fe9" stroke-width="1.51"/><path d="M706,1084L766,1103L805,1034Z" fill="#a37fd9" stroke="#a37fd9" stroke-width="1.51"/><path d="M397,968L482,1010L490,869Z" fill="#946fc9" stroke="#946fc9" stroke-width="1.51"/><path d="M244,712L285,768L379,686Z" fill="#8260b6" stroke="#8260b6" stroke-width="1.51"/><path d="M279,225L230,324L350,289Z" fill="#5e3e91" stroke="#5e3e91" stroke-width="1.51"/><path d="M859,1121L961,1105L863,1035Z" fill="#ab87e1" stroke="#ab87e1" stroke-width="1.51"/><path d="M1302,906L1406,786L1282,815Z" fill="#bc98f2" stroke="#bc98f2" stroke-width="1.51"/><path d="M1154,1004L1280,985L1142,892Z" fill="#ba96f0" stroke="#ba96f0" stroke-width="1.51"/><path d="M961,1105L1085,1071L997,1022Z" fill="#b18de7" stroke="#b18de7" stroke-width="1.51"/><path d="M766,1103L859,1121L805,1034Z" fill="#a682dc" stroke="#a682dc" stroke-width="1.51"/><path d="M355,911L490,869L357,822Z" fill="#906dc4" stroke="#906dc4" stroke-width="1.51"/><path d="M169,681L244,712L261,636Z" fill="#7d5db0" stroke="#7d5db0" stroke-width="1.51"/><path d="M261,636L244,712L379,686Z" fill="#7e5db2" stroke="#7e5db2" stroke-width="1.51"/><path d="M1406,786L1464,701L1407,666Z" fill="#b793ed" stroke="#b793ed" stroke-width="1.51"/><path d="M294,882L357,822L285,768Z" fill="#8b69be" stroke="#8b69be" stroke-width="1.51"/><path d="M294,882L355,911L357,822Z" fill="#8f6cc3" stroke="#8f6cc3" stroke-width="1.51"/><path d="M1456,369L1474,279L1392,310Z" fill="#9671cb" stroke="#9671cb" stroke-width="1.51"/><path d="M1583,288L1474,279L1456,369Z" fill="#9571cb" stroke="#9571cb" stroke-width="1.51"/><path d="M365,-69L384,12L486,-2Z" fill="#593d88" stroke="#593d88" stroke-width="1.51"/><path d="M486,-2L384,12L490,65Z" fill="#5a3d8a" stroke="#5a3d8a" stroke-width="1.51"/><path d="M377,112L302,73L352,167Z" fill="#5b3d8b" stroke="#5b3d8b" stroke-width="1.51"/><path d="M279,225L191,284L230,324Z" fill="#5e3e8f" stroke="#5e3e8f" stroke-width="1.51"/><path d="M444,-124L560,-20L598,-81Z" fill="#5d408d" stroke="#5d408d" stroke-width="1.51"/><path d="M355,911L397,968L490,869Z" fill="#936fc8" stroke="#936fc8" stroke-width="1.51"/><path d="M1211,1084L1280,985L1154,1004Z" fill="#bc98f2" stroke="#bc98f2" stroke-width="1.51"/><path d="M1302,906L1354,939L1406,786Z" fill="#c19df7" stroke="#c19df7" stroke-width="1.51"/><path d="M1551,794L1557,677L1464,701Z" fill="#b995ef" stroke="#b995ef" stroke-width="1.51"/><path d="M180,428L291,502L276,419Z" fill="#6a4a9d" stroke="#6a4a9d" stroke-width="1.51"/><path d="M230,324L180,428L276,419Z" fill="#654598" stroke="#654598" stroke-width="1.51"/><path d="M1211,-22L1204,-125L1060,-108Z" fill="#7d5fad" stroke="#7d5fad" stroke-width="1.51"/><path d="M1366,22L1292,-33L1288,78Z" fill="#8567b6" stroke="#8567b6" stroke-width="1.51"/><path d="M1412,86L1288,78L1397,186Z" fill="#8b6abd" stroke="#8b6abd" stroke-width="1.51"/><path d="M437,1084L548,1086L482,1010Z" fill="#9570ca" stroke="#9570ca" stroke-width="1.51"/><path d="M482,1010L548,1086L570,978Z" fill="#9773cd" stroke="#9773cd" stroke-width="1.51"/><path d="M706,1084L548,1086L766,1103Z" fill="#9e7ad4" stroke="#9e7ad4" stroke-width="1.51"/><path d="M766,1103L333,1130L859,1121Z" fill="#9d79d3" stroke="#9d79d3" stroke-width="1.51"/><path d="M384,12L302,73L377,112Z" fill="#5a3d89" stroke="#5a3d89" stroke-width="1.51"/><path d="M230,324L191,284L180,428Z" fill="#614194" stroke="#614194" stroke-width="1.51"/><path d="M182,170L191,284L279,225Z" fill="#5b3d8d" stroke="#5b3d8d" stroke-width="1.51"/><path d="M1340,974L1354,939L1302,906Z" fill="#c29ef8" stroke="#c29ef8" stroke-width="1.51"/><path d="M355,911L273,1005L397,968Z" fill="#916fc6" stroke="#916fc6" stroke-width="1.51"/><path d="M131,792L294,882L285,768Z" fill="#8868bb" stroke="#8868bb" stroke-width="1.51"/><path d="M131,792L285,768L244,712Z" fill="#8462b6" stroke="#8462b6" stroke-width="1.51"/><path d="M1497,186L1412,86L1397,186Z" fill="#8f6ec2" stroke="#8f6ec2" stroke-width="1.51"/><path d="M1412,86L1366,22L1288,78Z" fill="#896aba" stroke="#896aba" stroke-width="1.51"/><path d="M1280,985L1340,974L1302,906Z" fill="#c19df7" stroke="#c19df7" stroke-width="1.51"/><path d="M1500,837L1464,701L1406,786Z" fill="#bd99f3" stroke="#bd99f3" stroke-width="1.51"/><path d="M1348,1070L1340,974L1280,985Z" fill="#c19df7" stroke="#c19df7" stroke-width="1.51"/><path d="M1246,-116L1204,-125L1211,-22Z" fill="#8062b0" stroke="#8062b0" stroke-width="1.51"/><path d="M1060,-108L1204,-125L879,-123Z" fill="#775aa7" stroke="#775aa7" stroke-width="1.51"/><path d="M1246,-116L1211,-22L1292,-33Z" fill="#8263b1" stroke="#8263b1" stroke-width="1.51"/><path d="M1085,1071L1211,1084L1154,1004Z" fill="#b894ee" stroke="#b894ee" stroke-width="1.51"/><path d="M961,1105L1211,1084L1085,1071Z" fill="#b591eb" stroke="#b591eb" stroke-width="1.51"/><path d="M1477,1129L1211,1084L961,1105Z" fill="#bc98f2" stroke="#bc98f2" stroke-width="1.51"/><path d="M181,515L151,603L261,636Z" fill="#7554a7" stroke="#7554a7" stroke-width="1.51"/><path d="M80,536L151,603L181,515Z" fill="#7252a3" stroke="#7252a3" stroke-width="1.51"/><path d="M80,536L181,515L180,428Z" fill="#6d4d9e" stroke="#6d4d9e" stroke-width="1.51"/><path d="M151,603L169,681L261,636Z" fill="#7959ac" stroke="#7959ac" stroke-width="1.51"/><path d="M1576,396L1452,482L1584,535Z" fill="#a37fd9" stroke="#a37fd9" stroke-width="1.51"/><path d="M1574,205L1497,186L1474,279Z" fill="#926fc6" stroke="#926fc6" stroke-width="1.51"/><path d="M1474,279L1497,186L1397,186Z" fill="#926fc6" stroke="#926fc6" stroke-width="1.51"/><path d="M1412,86L1462,72L1366,22Z" fill="#8b6dbd" stroke="#8b6dbd" stroke-width="1.51"/><path d="M1359,-134L1246,-116L1292,-33Z" fill="#8466b4" stroke="#8466b4" stroke-width="1.51"/><path d="M384,12L241,-13L302,73Z" fill="#583c86" stroke="#583c86" stroke-width="1.51"/><path d="M659,-121L444,-124L598,-81Z" fill="#5e418e" stroke="#5e418e" stroke-width="1.51"/><path d="M879,-123L444,-124L659,-121Z" fill="#634693" stroke="#634693" stroke-width="1.51"/><path d="M1359,-134L444,-124L879,-123Z" fill="#6f529f" stroke="#6f529f" stroke-width="1.51"/><path d="M1211,1084L1271,1070L1280,985Z" fill="#be9af4" stroke="#be9af4" stroke-width="1.51"/><path d="M444,-124L365,-69L486,-2Z" fill="#593d88" stroke="#593d88" stroke-width="1.51"/><path d="M302,73L182,170L279,225Z" fill="#5a3d8a" stroke="#5a3d8a" stroke-width="1.51"/><path d="M397,968L437,1084L482,1010Z" fill="#946fc9" stroke="#946fc9" stroke-width="1.51"/><path d="M548,1086L333,1130L766,1103Z" fill="#9873ce" stroke="#9873ce" stroke-width="1.51"/><path d="M333,1130L437,1084L397,968Z" fill="#936fc7" stroke="#936fc7" stroke-width="1.51"/><path d="M1584,535L1452,482L1468,589Z" fill="#a984df" stroke="#a984df" stroke-width="1.51"/><path d="M193,79L182,170L302,73Z" fill="#593c87" stroke="#593c87" stroke-width="1.51"/><path d="M63,390L80,536L180,428Z" fill="#694999" stroke="#694999" stroke-width="1.51"/><path d="M1366,22L1359,-134L1292,-33Z" fill="#8668b6" stroke="#8668b6" stroke-width="1.51"/><path d="M1497,186L1462,72L1412,86Z" fill="#8f6ec1" stroke="#8f6ec1" stroke-width="1.51"/><path d="M1603,72L1462,72L1497,186Z" fill="#8e6ec0" stroke="#8e6ec0" stroke-width="1.51"/><path d="M1464,701L1557,677L1468,589Z" fill="#b38fe9" stroke="#b38fe9" stroke-width="1.51"/><path d="M1500,837L1406,786L1447,941Z" fill="#c4a0fa" stroke="#c4a0fa" stroke-width="1.51"/><path d="M1406,786L1354,939L1447,941Z" fill="#c5a1fb" stroke="#c5a1fb" stroke-width="1.51"/><path d="M1590,615L1584,535L1468,589Z" fill="#ac88e2" stroke="#ac88e2" stroke-width="1.51"/><path d="M1447,941L1354,939L1439,1005Z" fill="#c6a2fc" stroke="#c6a2fc" stroke-width="1.51"/><path d="M1557,677L1590,615L1468,589Z" fill="#b18ce7" stroke="#b18ce7" stroke-width="1.51"/><path d="M1655,310L1583,288L1576,396Z" fill="#9772cd" stroke="#9772cd" stroke-width="1.51"/><path d="M1648,572L1590,615L1662,678Z" fill="#b08ce6" stroke="#b08ce6" stroke-width="1.51"/><path d="M1439,1005L1354,939L1340,974Z" fill="#c4a0fa" stroke="#c4a0fa" stroke-width="1.51"/><path d="M1576,396L1583,288L1456,369Z" fill="#9974cf" stroke="#9974cf" stroke-width="1.51"/><path d="M1642,500L1576,396L1584,535Z" fill="#a47fd9" stroke="#a47fd9" stroke-width="1.51"/><path d="M241,-13L193,79L302,73Z" fill="#573d85" stroke="#573d85" stroke-width="1.51"/><path d="M151,603L53,691L169,681Z" fill="#7a5bab" stroke="#7a5bab" stroke-width="1.51"/><path d="M63,390L180,428L191,284Z" fill="#624293" stroke="#624293" stroke-width="1.51"/><path d="M63,390L191,284L49,272Z" fill="#5d3f8e" stroke="#5d3f8e" stroke-width="1.51"/><path d="M1583,936L1551,794L1500,837Z" fill="#c4a0fa" stroke="#c4a0fa" stroke-width="1.51"/><path d="M1500,837L1551,794L1464,701Z" fill="#bd99f3" stroke="#bd99f3" stroke-width="1.51"/><path d="M1271,1070L1348,1070L1280,985Z" fill="#c09cf6" stroke="#c09cf6" stroke-width="1.51"/><path d="M1477,1129L1348,1070L1271,1070Z" fill="#c4a0fa" stroke="#c4a0fa" stroke-width="1.51"/><path d="M1477,1129L1271,1070L1211,1084Z" fill="#c19df7" stroke="#c19df7" stroke-width="1.51"/><path d="M1583,288L1574,205L1474,279Z" fill="#936fc8" stroke="#936fc8" stroke-width="1.51"/><path d="M294,882L273,1005L355,911Z" fill="#916fc5" stroke="#916fc5" stroke-width="1.51"/><path d="M147,918L273,1005L294,882Z" fill="#906fc2" stroke="#906fc2" stroke-width="1.51"/><path d="M131,792L244,712L169,681Z" fill="#8160b2" stroke="#8160b2" stroke-width="1.51"/><path d="M286,-77L384,12L365,-69Z" fill="#583c86" stroke="#583c86" stroke-width="1.51"/><path d="M286,-77L241,-13L384,12Z" fill="#573c85" stroke="#573c85" stroke-width="1.51"/><path d="M53,691L131,792L169,681Z" fill="#7f5fb0" stroke="#7f5fb0" stroke-width="1.51"/><path d="M444,-124L286,-77L365,-69Z" fill="#583c86" stroke="#583c86" stroke-width="1.51"/><path d="M49,272L191,284L64,180Z" fill="#5a3d8a" stroke="#5a3d8a" stroke-width="1.51"/><path d="M1447,941L1583,936L1500,837Z" fill="#c8a4fe" stroke="#c8a4fe" stroke-width="1.51"/><path d="M1348,1070L1439,1005L1340,974Z" fill="#c4a0fa" stroke="#c4a0fa" stroke-width="1.51"/><path d="M1648,572L1642,500L1584,535Z" fill="#a984df" stroke="#a984df" stroke-width="1.51"/><path d="M1583,288L1694,230L1574,205Z" fill="#926fc7" stroke="#926fc7" stroke-width="1.51"/><path d="M1648,572L1584,535L1590,615Z" fill="#ac88e2" stroke="#ac88e2" stroke-width="1.51"/><path d="M1204,-125L1359,-134L879,-123Z" fill="#7c5fac" stroke="#7c5fac" stroke-width="1.51"/><path d="M1246,-116L1359,-134L1204,-125Z" fill="#8365b2" stroke="#8365b2" stroke-width="1.51"/><path d="M1483,-20L1359,-134L1366,22Z" fill="#896bb9" stroke="#896bb9" stroke-width="1.51"/><path d="M1483,-20L1366,22L1462,72Z" fill="#8c6dbc" stroke="#8c6dbc" stroke-width="1.51"/><path d="M80,536L52,599L151,603Z" fill="#7254a3" stroke="#7254a3" stroke-width="1.51"/><path d="M-26,530L52,599L80,536Z" fill="#6f51a0" stroke="#6f51a0" stroke-width="1.51"/><path d="M1662,678L1590,615L1557,677Z" fill="#b38fe9" stroke="#b38fe9" stroke-width="1.51"/><path d="M1589,-7L1483,-20L1462,72Z" fill="#8c6dbb" stroke="#8c6dbb" stroke-width="1.51"/><path d="M52,599L53,691L151,603Z" fill="#7758a8" stroke="#7758a8" stroke-width="1.51"/><path d="M131,792L147,918L294,882Z" fill="#8c6bbe" stroke="#8c6bbe" stroke-width="1.51"/><path d="M1698,391L1576,396L1642,500Z" fill="#9f7bd5" stroke="#9f7bd5" stroke-width="1.51"/><path d="M1698,391L1655,310L1576,396Z" fill="#9a75d0" stroke="#9a75d0" stroke-width="1.51"/><path d="M1574,205L1603,72L1497,186Z" fill="#906fc2" stroke="#906fc2" stroke-width="1.51"/><path d="M63,390L-26,530L80,536Z" fill="#6a4c9a" stroke="#6a4c9a" stroke-width="1.51"/><path d="M64,180L191,284L182,170Z" fill="#5a3d8a" stroke="#5a3d8a" stroke-width="1.51"/><path d="M64,180L182,170L77,76Z" fill="#583d85" stroke="#583d85" stroke-width="1.51"/><path d="M98,895L147,918L131,792Z" fill="#8b6bbc" stroke="#8b6bbc" stroke-width="1.51"/><path d="M437,1084L333,1130L548,1086Z" fill="#946fc9" stroke="#946fc9" stroke-width="1.51"/><path d="M273,1005L333,1130L397,968Z" fill="#916fc5" stroke="#916fc5" stroke-width="1.51"/><path d="M258,1072L333,1130L273,1005Z" fill="#916fc4" stroke="#916fc4" stroke-width="1.51"/><path d="M190,1015L258,1072L273,1005Z" fill="#906fc2" stroke="#906fc2" stroke-width="1.51"/><path d="M77,76L182,170L193,79Z" fill="#583c85" stroke="#583c85" stroke-width="1.51"/><path d="M144,-4L193,79L241,-13Z" fill="#563c82" stroke="#563c82" stroke-width="1.51"/><path d="M1648,572L1698,391L1642,500Z" fill="#a580db" stroke="#a580db" stroke-width="1.51"/><path d="M1551,794L1662,678L1557,677Z" fill="#b894ee" stroke="#b894ee" stroke-width="1.51"/><path d="M1687,804L1662,678L1551,794Z" fill="#bc98f2" stroke="#bc98f2" stroke-width="1.51"/><path d="M147,918L190,1015L273,1005Z" fill="#8f6ec1" stroke="#8f6ec1" stroke-width="1.51"/><path d="M127,-130L144,-4L241,-13Z" fill="#553c81" stroke="#553c81" stroke-width="1.51"/><path d="M1710,98L1603,72L1574,205Z" fill="#8f6ec1" stroke="#8f6ec1" stroke-width="1.51"/><path d="M1662,678L1698,391L1648,572Z" fill="#aa85e0" stroke="#aa85e0" stroke-width="1.51"/><path d="M1694,230L1583,288L1655,310Z" fill="#946fc9" stroke="#946fc9" stroke-width="1.51"/><path d="M1483,-20L1511,-111L1359,-134Z" fill="#8b6dbb" stroke="#8b6dbb" stroke-width="1.51"/><path d="M147,918L34,1013L190,1015Z" fill="#8d6ebf" stroke="#8d6ebf" stroke-width="1.51"/><path d="M30,790L98,895L131,792Z" fill="#8768b7" stroke="#8768b7" stroke-width="1.51"/><path d="M1439,1005L1583,936L1447,941Z" fill="#c8a4fe" stroke="#c8a4fe" stroke-width="1.51"/><path d="M1613,1039L1583,936L1439,1005Z" fill="#c8a4fe" stroke="#c8a4fe" stroke-width="1.51"/><path d="M88,22L77,76L193,79Z" fill="#563c82" stroke="#563c82" stroke-width="1.51"/><path d="M-31,291L63,390L49,272Z" fill="#5c3e8c" stroke="#5c3e8c" stroke-width="1.51"/><path d="M53,691L30,790L131,792Z" fill="#8162b2" stroke="#8162b2" stroke-width="1.51"/><path d="M52,599L-12,672L53,691Z" fill="#785aa8" stroke="#785aa8" stroke-width="1.51"/><path d="M-68,414L-26,530L63,390Z" fill="#664896" stroke="#664896" stroke-width="1.51"/><path d="M-31,291L49,272L-24,211Z" fill="#593d88" stroke="#593d88" stroke-width="1.51"/><path d="M-12,672L30,790L53,691Z" fill="#7d5fad" stroke="#7d5fad" stroke-width="1.51"/><path d="M-49,575L-12,672L52,599Z" fill="#7457a4" stroke="#7457a4" stroke-width="1.51"/><path d="M1698,391L1694,230L1655,310Z" fill="#9571cb" stroke="#9571cb" stroke-width="1.51"/><path d="M1603,72L1589,-7L1462,72Z" fill="#8c6ebd" stroke="#8c6ebd" stroke-width="1.51"/><path d="M1689,-35L1589,-7L1603,72Z" fill="#8c6dbb" stroke="#8c6dbb" stroke-width="1.51"/><path d="M-24,211L49,272L64,180Z" fill="#583c87" stroke="#583c87" stroke-width="1.51"/><path d="M144,-4L88,22L193,79Z" fill="#553c81" stroke="#553c81" stroke-width="1.51"/><path d="M54,-88L88,22L144,-4Z" fill="#533c7e" stroke="#533c7e" stroke-width="1.51"/><path d="M1589,-7L1511,-111L1483,-20Z" fill="#8b6dbb" stroke="#8b6dbb" stroke-width="1.51"/><path d="M1583,936L1647,866L1551,794Z" fill="#c5a1fb" stroke="#c5a1fb" stroke-width="1.51"/><path d="M1662,678L1687,804L1698,391Z" fill="#b08ce6" stroke="#b08ce6" stroke-width="1.51"/><path d="M-24,211L64,180L-66,119Z" fill="#573c84" stroke="#573c84" stroke-width="1.51"/><path d="M1647,866L1687,804L1551,794Z" fill="#c19df7" stroke="#c19df7" stroke-width="1.51"/><path d="M-26,530L-49,575L52,599Z" fill="#7052a0" stroke="#7052a0" stroke-width="1.51"/><path d="M-46,788L-5,885L30,790Z" fill="#8467b4" stroke="#8467b4" stroke-width="1.51"/><path d="M-146,509L-49,575L-26,530Z" fill="#6d509d" stroke="#6d509d" stroke-width="1.51"/><path d="M1348,1070L1477,1129L1439,1005Z" fill="#c7a3fd" stroke="#c7a3fd" stroke-width="1.51"/><path d="M1583,936L1640,968L1647,866Z" fill="#c8a4fe" stroke="#c8a4fe" stroke-width="1.51"/><path d="M859,1121L1477,1129L961,1105Z" fill="#b691ec" stroke="#b691ec" stroke-width="1.51"/><path d="M333,1130L1477,1129L859,1121Z" fill="#aa86e0" stroke="#aa86e0" stroke-width="1.51"/><path d="M-66,119L64,180L77,76Z" fill="#563c82" stroke="#563c82" stroke-width="1.51"/><path d="M34,1013L147,918L98,895Z" fill="#8d6ebe" stroke="#8d6ebe" stroke-width="1.51"/><path d="M34,1013L171,1092L190,1015Z" fill="#8d6ebf" stroke="#8d6ebf" stroke-width="1.51"/><path d="M190,1015L171,1092L258,1072Z" fill="#8f6ec1" stroke="#8f6ec1" stroke-width="1.51"/><path d="M258,1072L171,1092L333,1130Z" fill="#906fc3" stroke="#906fc3" stroke-width="1.51"/><path d="M-152,386L-68,414L-31,291Z" fill="#5f428f" stroke="#5f428f" stroke-width="1.51"/><path d="M-31,291L-68,414L63,390Z" fill="#5f428f" stroke="#5f428f" stroke-width="1.51"/><path d="M1647,866L1640,968L1687,804Z" fill="#c6a2fc" stroke="#c6a2fc" stroke-width="1.51"/><path d="M1613,1039L1640,968L1583,936Z" fill="#c8a4fe" stroke="#c8a4fe" stroke-width="1.51"/><path d="M1589,-7L1577,-141L1511,-111Z" fill="#8b6dbb" stroke="#8b6dbb" stroke-width="1.51"/><path d="M1694,230L1710,98L1574,205Z" fill="#906fc4" stroke="#906fc4" stroke-width="1.51"/><path d="M1698,391L1710,98L1694,230Z" fill="#926fc7" stroke="#926fc7" stroke-width="1.51"/><path d="M1713,1079L1710,98L1698,391Z" fill="#a883de" stroke="#a883de" stroke-width="1.51"/><path d="M-55,-30L-66,119L77,76Z" fill="#533c7e" stroke="#533c7e" stroke-width="1.51"/><path d="M286,-77L127,-130L241,-13Z" fill="#563c82" stroke="#563c82" stroke-width="1.51"/><path d="M444,-124L127,-130L286,-77Z" fill="#573c84" stroke="#573c84" stroke-width="1.51"/><path d="M1359,-134L127,-130L444,-124Z" fill="#624592" stroke="#624592" stroke-width="1.51"/><path d="M30,790L-5,885L98,895Z" fill="#886ab9" stroke="#886ab9" stroke-width="1.51"/><path d="M-46,788L30,790L-12,672Z" fill="#7f61af" stroke="#7f61af" stroke-width="1.51"/><path d="M-122,679L-12,672L-49,575Z" fill="#7659a6" stroke="#7659a6" stroke-width="1.51"/><path d="M-122,679L-46,788L-12,672Z" fill="#7c5eac" stroke="#7c5eac" stroke-width="1.51"/><path d="M1542,1131L1613,1039L1439,1005Z" fill="#c8a4fe" stroke="#c8a4fe" stroke-width="1.51"/><path d="M333,1130L1542,1131L1477,1129Z" fill="#b792ed" stroke="#b792ed" stroke-width="1.51"/><path d="M1477,1129L1542,1131L1439,1005Z" fill="#c8a4fe" stroke="#c8a4fe" stroke-width="1.51"/><path d="M1654,-108L1577,-141L1589,-7Z" fill="#8b6dbb" stroke="#8b6dbb" stroke-width="1.51"/><path d="M1511,-111L1577,-141L1359,-134Z" fill="#8b6dbb" stroke="#8b6dbb" stroke-width="1.51"/><path d="M1359,-134L1577,-141L127,-130Z" fill="#7658a6" stroke="#7658a6" stroke-width="1.51"/><path d="M-7,1010L34,1013L-5,885Z" fill="#8b6dbb" stroke="#8b6dbb" stroke-width="1.51"/><path d="M-5,885L34,1013L98,895Z" fill="#8c6dbc" stroke="#8c6dbc" stroke-width="1.51"/><path d="M127,-130L54,-88L144,-4Z" fill="#543c7f" stroke="#543c7f" stroke-width="1.51"/><path d="M-55,-30L77,76L88,22Z" fill="#533b7e" stroke="#533b7e" stroke-width="1.51"/><path d="M-24,211L-100,215L-31,291Z" fill="#593c87" stroke="#593c87" stroke-width="1.51"/><path d="M-172,569L-122,679L-49,575Z" fill="#7356a3" stroke="#7356a3" stroke-width="1.51"/><path d="M-66,119L-100,215L-24,211Z" fill="#573c84" stroke="#573c84" stroke-width="1.51"/><path d="M1710,98L1689,-35L1603,72Z" fill="#8c6ebd" stroke="#8c6ebd" stroke-width="1.51"/><path d="M-146,509L-26,530L-68,414Z" fill="#694c99" stroke="#694c99" stroke-width="1.51"/><path d="M-124,879L-7,1010L-5,885Z" fill="#8b6dbb" stroke="#8b6dbb" stroke-width="1.51"/><path d="M-152,386L-146,509L-68,414Z" fill="#654895" stroke="#654895" stroke-width="1.51"/><path d="M1689,-35L1654,-108L1589,-7Z" fill="#8b6dbb" stroke="#8b6dbb" stroke-width="1.51"/><path d="M-167,274L-152,386L-31,291Z" fill="#5b3e8b" stroke="#5b3e8b" stroke-width="1.51"/><path d="M-124,879L-5,885L-46,788Z" fill="#8769b7" stroke="#8769b7" stroke-width="1.51"/><path d="M34,1013L30,1115L171,1092Z" fill="#8d6ebe" stroke="#8d6ebe" stroke-width="1.51"/><path d="M-167,786L-124,879L-46,788Z" fill="#8467b4" stroke="#8467b4" stroke-width="1.51"/><path d="M-146,509L-172,569L-49,575Z" fill="#6f519f" stroke="#6f519f" stroke-width="1.51"/><path d="M-152,386L-172,569L-146,509Z" fill="#6a4c99" stroke="#6a4c99" stroke-width="1.51"/><path d="M-152,386L-167,274L-172,569Z" fill="#634593" stroke="#634593" stroke-width="1.51"/><path d="M-100,215L-167,274L-31,291Z" fill="#593d88" stroke="#593d88" stroke-width="1.51"/><path d="M-155,125L-167,274L-100,215Z" fill="#583c85" stroke="#583c85" stroke-width="1.51"/><path d="M-155,125L-100,215L-66,119Z" fill="#563c83" stroke="#563c83" stroke-width="1.51"/><path d="M54,-88L-55,-30L88,22Z" fill="#533b7d" stroke="#533b7d" stroke-width="1.51"/><path d="M-32,-123L-55,-30L54,-88Z" fill="#523b7c" stroke="#523b7c" stroke-width="1.51"/><path d="M-7,1010L30,1115L34,1013Z" fill="#8c6dbb" stroke="#8c6dbb" stroke-width="1.51"/><path d="M171,1092L30,1115L333,1130Z" fill="#8e6ec0" stroke="#8e6ec0" stroke-width="1.51"/><path d="M-40,1138L30,1115L-7,1010Z" fill="#8b6dbb" stroke="#8b6dbb" stroke-width="1.51"/><path d="M-167,786L-46,788L-122,679Z" fill="#7f61af" stroke="#7f61af" stroke-width="1.51"/><path d="M1542,1131L1713,1079L1613,1039Z" fill="#c8a4fe" stroke="#c8a4fe" stroke-width="1.51"/><path d="M1613,1039L1713,1079L1640,968Z" fill="#c8a4fe" stroke="#c8a4fe" stroke-width="1.51"/><path d="M1640,968L1713,1079L1687,804Z" fill="#c8a4fe" stroke="#c8a4fe" stroke-width="1.51"/><path d="M1687,804L1713,1079L1698,391Z" fill="#bc98f2" stroke="#bc98f2" stroke-width="1.51"/><path d="M-172,569L-167,786L-122,679Z" fill="#795ba9" stroke="#795ba9" stroke-width="1.51"/><path d="M-145,12L-155,125L-66,119Z" fill="#543c80" stroke="#543c80" stroke-width="1.51"/><path d="M-55,-30L-145,12L-66,119Z" fill="#533b7d" stroke="#533b7d" stroke-width="1.51"/><path d="M127,-130L-32,-123L54,-88Z" fill="#533b7d" stroke="#533b7d" stroke-width="1.51"/><path d="M-135,-96L-145,12L-55,-30Z" fill="#523b7c" stroke="#523b7c" stroke-width="1.51"/><path d="M-118,1137L-40,1138L-7,1010Z" fill="#8b6dbb" stroke="#8b6dbb" stroke-width="1.51"/><path d="M30,1115L-40,1138L333,1130Z" fill="#8d6ebe" stroke="#8d6ebe" stroke-width="1.51"/><path d="M333,1130L-40,1138L1542,1131Z" fill="#9b77d1" stroke="#9b77d1" stroke-width="1.51"/><path d="M-155,1002L-7,1010L-124,879Z" fill="#8b6dbb" stroke="#8b6dbb" stroke-width="1.51"/><path d="M-167,786L-155,1002L-124,879Z" fill="#8a6cba" stroke="#8a6cba" stroke-width="1.51"/><path d="M-32,-123L-135,-96L-55,-30Z" fill="#523b7c" stroke="#523b7c" stroke-width="1.51"/><path d="M-155,1002L-118,1137L-7,1010Z" fill="#8b6dbb" stroke="#8b6dbb" stroke-width="1.51"/></svg>