<svg xmlns="http://www.w3.org/2000/svg" viewBox="0 0 25 25">
    <g>
        <path d="M23.5,1.002H1.5A1.5016,1.5016,0,0,0,0,2.502v16a1.5016,1.5016,0,0,0,1.5,1.5H14.1631a.5079.5079,0,0,1,.3057.104l4.9258,3.6909A1,1,0,0,0,21,23.001V20.002h2.5a1.5016,1.5016,0,0,0,1.5-1.5v-16A1.5016,1.5016,0,0,0,23.5,1.002Zm.5,17.5a.5007.5007,0,0,1-.5.5H20.7a.7011.7011,0,0,0-.7.7l-.0029,3.2969-4.9258-3.6909a1.51,1.51,0,0,0-.9082-.3062H1.5a.5007.5007,0,0,1-.5-.5v-16a.5007.5007,0,0,1,.5-.5h22a.5007.5007,0,0,1,.5.5ZM16.8536,7.1484a.5.5,0,0,1,0,.707l-6,6a.5.5,0,0,1-.6738.0308l-3-2.5a.5.5,0,1,1,.6406-.7686l2.6489,2.208,5.6772-5.6772A.5.5,0,0,1,16.8536,7.1484Z" />
    </g>
</svg>