<svg xmlns="http://www.w3.org/2000/svg" viewBox="0 0 25 25">
    <g>
        <path d="M19.5,0H3.5A1.5016,1.5016,0,0,0,2,1.5v22A1.5016,1.5016,0,0,0,3.5,25h16A1.5016,1.5016,0,0,0,21,23.5V1.5A1.5016,1.5016,0,0,0,19.5,0ZM20,23.5a.5.5,0,0,1-.5.5H3.5a.5.5,0,0,1-.5-.5V17H16.5a.5.5,0,0,0,0-1H3V9H16.5a.5.5,0,0,0,0-1H3V1.5A.5.5,0,0,1,3.5,1h16a.5.5,0,0,1,.5.5ZM7,12.4678v.0645A.4677.4677,0,0,1,6.5325,13H5.4675A.4677.4677,0,0,1,5,12.5322v-.0645A.4677.4677,0,0,1,5.4675,12H6.5325A.4677.4677,0,0,1,7,12.4678ZM7,20.5a.5.5,0,0,1-.5.5h-1a.5.5,0,0,1,0-1h1A.5.5,0,0,1,7,20.5Zm0-16a.5.5,0,0,1-.5.5h-1a.5.5,0,0,1,0-1h1A.5.5,0,0,1,7,4.5Z" />
    </g>
</svg>