<?xml version="1.0" encoding="UTF-8"?>
<svg width="61px" height="9px" viewBox="0 0 61 9" version="1.1" xmlns="http://www.w3.org/2000/svg" xmlns:xlink="http://www.w3.org/1999/xlink">
    <!-- Generator: Sketch 50.2 (55047) - http://www.bohemiancoding.com/sketch -->
    <title>Mobile</title>
    <desc>Created with Sketch.</desc>
    <defs></defs>
    <g id="Mobile" stroke="none" stroke-width="1" fill="none" fill-rule="evenodd">
        <g id="logo" fill="#FFFFFF">
            <path d="M18.7166543,7.02520174 L17.452875,7.02520174 L17.452875,1.08899855 L20.2296297,1.08899855 C21.5201086,1.08899855 22.2231972,1.96118433 22.2231972,3.00246734 C22.2231972,4.03485051 21.5112088,4.91593614 20.2296297,4.91593614 L18.7166543,4.91593614 L18.7166543,7.02520174 Z M20.0605324,3.80345428 C20.5589243,3.80345428 20.9327182,3.49195936 20.9327182,3.00246734 C20.9327182,2.50407547 20.5589243,2.20148041 20.0605324,2.20148041 L18.7166543,2.20148041 L18.7166543,3.80345428 L20.0605324,3.80345428 Z M25.8810375,7.02520174 L23.5403757,7.02520174 L23.5403757,1.08899855 L25.8810375,1.08899855 C27.7411072,1.08899855 29.0315862,2.27267925 29.0315862,4.06155007 C29.0315862,5.8504209 27.7411072,7.02520174 25.8810375,7.02520174 Z M25.8810375,5.91271988 C27.0558184,5.91271988 27.7411072,5.06723367 27.7411072,4.06155007 C27.7411072,3.0113672 27.1003176,2.20148041 25.8810375,2.20148041 L24.8041551,2.20148041 L24.8041551,5.91271988 L25.8810375,5.91271988 Z M31.7282422,7.02520174 L30.4644628,7.02520174 L30.4644628,1.08899855 L34.6651943,1.08899855 L34.6651943,2.20148041 L31.7282422,2.20148041 L31.7282422,3.45635994 L34.6028953,3.45635994 L34.6028953,4.5688418 L31.7282422,4.5688418 L31.7282422,7.02520174 Z M38.1094382,7.132 C37.077055,7.132 36.3205673,6.74040639 35.8310753,6.18861538 L36.2671682,5.62792453 C36.6587618,6.06401742 37.2995514,6.47341074 38.1361377,6.47341074 C39.1952205,6.47341074 39.5334149,5.90382003 39.5334149,5.44992743 C39.5334149,3.91915239 36.0179723,4.76463861 36.0179723,2.64647315 C36.0179723,1.66748911 36.890158,1 38.056039,1 C38.9638242,1 39.6669128,1.30259507 40.1653046,1.8276865 L39.7203119,2.37057765 C39.2753191,1.88108563 38.6523293,1.65858926 38.0026399,1.65858926 C37.2906515,1.65858926 36.7833598,2.04128302 36.7833598,2.60197388 C36.7833598,3.9369521 40.2988025,3.17156459 40.2988025,5.38762845 C40.2988025,6.25091437 39.711412,7.132 38.1094382,7.132 Z M46.8846951,7.02520174 L46.1460071,7.02520174 L46.1460071,4.30184615 L42.6750637,4.30184615 L42.6750637,7.02520174 L41.9363758,7.02520174 L41.9363758,1.08899855 L42.6750637,1.08899855 L42.6750637,3.64325689 L46.1460071,3.64325689 L46.1460071,1.08899855 L46.8846951,1.08899855 L46.8846951,7.02520174 Z M49.5457517,7.02520174 L48.8070637,7.02520174 L48.8070637,1.08899855 L49.5457517,1.08899855 L49.5457517,7.02520174 Z M52.2068083,7.02520174 L51.4681204,7.02520174 L51.4681204,1.08899855 L55.3573569,1.08899855 L55.3573569,1.74758781 L52.2068083,1.74758781 L52.2068083,3.6610566 L55.295058,3.6610566 L55.295058,4.31964586 L52.2068083,4.31964586 L52.2068083,7.02520174 Z M59.1041959,7.02520174 L58.3655079,7.02520174 L58.3655079,1.74758781 L56.4876385,1.74758781 L56.4876385,1.08899855 L60.9909651,1.08899855 L60.9909651,1.74758781 L59.1041959,1.74758781 L59.1041959,7.02520174 Z" id="PDFSHIFT"></path>
            <path d="M9.24210752,3.64035083 C9.32706015,3.73244441 9.44279272,3.77873744 9.55877153,3.77873744 C9.66317708,3.77873744 9.76807511,3.74081655 9.85130406,3.6644823 L11.3644459,2.26682685 C11.4528458,2.18532157 11.5030787,2.07057396 11.5030787,1.95016284 C11.5030787,1.82975172 11.4528458,1.71500411 11.3644459,1.63349883 L9.85130406,0.235843372 C9.67622777,0.074064014 9.4033944,0.0853910315 9.24210752,0.259974844 C9.0805744,0.434804896 9.09165518,0.707392033 9.26648523,0.868925151 L9.96802159,1.51702754 C7.95402864,1.76720688 6.75385727,2.84278106 5.65242794,3.96292459 C4.39537525,2.68395658 3.01126296,1.46063869 0.430919142,1.46063869 C0.193051776,1.46063869 0,1.65369047 0,1.89155783 C0,2.1294252 0.193051776,2.32247698 0.430919142,2.32247698 C2.67342236,2.32247698 3.87383997,3.38204559 5.0501261,4.57975456 C3.87359373,5.77746354 2.67342236,6.83703215 0.430919142,6.83703215 C0.193051776,6.83703215 0,7.02983768 0,7.26795129 C0,7.50606489 0.193051776,7.69887043 0.430919142,7.69887043 C3.01126296,7.69887043 4.39537525,6.47555255 5.65242794,5.19658453 C6.74696256,6.3100796 7.93851555,7.38023651 9.93083942,7.63878799 L9.26648523,8.25266309 C9.09165518,8.41394997 9.0805744,8.68678334 9.24210752,8.8616134 C9.32706015,8.95346073 9.44279272,9 9.55877153,9 C9.66317708,9 9.76807511,8.96232536 9.85130406,8.88549863 L11.3644459,7.48784317 C11.4528458,7.40633789 11.5030787,7.29159028 11.5030787,7.1714254 C11.5030787,7.05150676 11.4528458,6.93651291 11.3644459,6.85500763 L9.85130406,5.45735217 C9.67622777,5.29557282 9.4033944,5.30689983 9.24210752,5.48172989 C9.0805744,5.65655994 9.09165518,5.92890084 9.26648523,6.09043395 L10.0130834,6.78039706 C8.30491994,6.54597705 7.27096024,5.61469922 6.25472979,4.5800008 C7.26061818,3.55589068 8.28546702,2.63446244 9.96260432,2.38846917 L9.26648523,3.03140053 C9.09165518,3.1926874 9.08082064,3.46527454 9.24210752,3.64035083" id="Fill-1"></path>
        </g>
    </g>
</svg>