<svg xmlns="http://www.w3.org/2000/svg" viewBox="0 0 25 25">
    <g>
        <path d="M23.5,1H8.5A1.5,1.5,0,0,0,7,2.5v20A1.5,1.5,0,0,0,8.5,24h15A1.5,1.5,0,0,0,25,22.5V2.5A1.5,1.5,0,0,0,23.5,1ZM24,22.5a.5006.5006,0,0,1-.5.5H8.5a.5006.5006,0,0,1-.5-.5V2.5A.5006.5006,0,0,1,8.5,2h15a.5006.5006,0,0,1,.5.5Zm-2-15a.5.5,0,0,1-.5.5h-6a.5.5,0,0,1,0-1h6A.5.5,0,0,1,22,7.5ZM13.8535,6.1465a.5.5,0,0,1,0,.707l-2,2a.5.5,0,0,1-.707,0l-1-1a.5.5,0,0,1,.707-.707L11.5,7.793l1.6465-1.6465A.5.5,0,0,1,13.8535,6.1465ZM22,12.5a.5.5,0,0,1-.5.5h-6a.5.5,0,0,1,0-1h6A.5.5,0,0,1,22,12.5Zm-8.1465-1.3535a.5.5,0,0,1,0,.707l-2,2a.5.5,0,0,1-.707,0l-1-1a.5.5,0,0,1,.707-.707l.6465.6465,1.6465-1.6465A.5.5,0,0,1,13.8535,11.1465ZM22,17.5a.5.5,0,0,1-.5.5h-6a.5.5,0,0,1,0-1h6A.5.5,0,0,1,22,17.5Zm-8.1465-1.3535a.5.5,0,0,1,0,.707l-2,2a.5.5,0,0,1-.707,0l-1-1a.5.5,0,0,1,.707-.707l.6465.6465,1.6465-1.6465A.5.5,0,0,1,13.8535,16.1465ZM3.5,1h-1A1.5,1.5,0,0,0,1,2.5v20A1.5,1.5,0,0,0,2.5,24h1A1.5,1.5,0,0,0,5,22.5V2.5A1.5,1.5,0,0,0,3.5,1ZM4,22.5a.5006.5006,0,0,1-.5.5h-1a.5006.5006,0,0,1-.5-.5V6H4ZM4,5H2V2.5A.5006.5006,0,0,1,2.5,2h1a.5006.5006,0,0,1,.5.5Z" />
    </g>
</svg>