<svg xmlns="http://www.w3.org/2000/svg" viewBox="0 0 25 25">
    <g>
        <path d="M20,6.5a.5.5,0,0,1-.5.5H9.5a.5.5,0,0,1,0-1h10A.5.5,0,0,1,20,6.5ZM19.5,10H9.5a.5.5,0,0,0,0,1h10a.5.5,0,0,0,0-1ZM25,2.502V14.5A1.5,1.5,0,0,1,23.5,16H21v3a1.0009,1.0009,0,0,1-1.0044,1.002.9747.9747,0,0,1-.2592-.0417c-.3588.0588-8.7064.0378-9.07.0378L5.6,23.7983A.985.985,0,0,1,5.0044,24,1.0009,1.0009,0,0,1,4,22.998v-3H1.5a1.5,1.5,0,0,1-1.5-1.5V6.5A1.5,1.5,0,0,1,1.5,5H4V2.502a1.5,1.5,0,0,1,1.5-1.5h18A1.5,1.5,0,0,1,25,2.502ZM18.3333,19l-4-3H5.5A1.5,1.5,0,0,1,4,14.5V6H1.5a.5007.5007,0,0,0-.5.5V18.498a.5.5,0,0,0,.5.5L4,19H5v3.998l5.0664-3.8L10.3306,19ZM24,2.502a.5.5,0,0,0-.5-.5H5.5a.5.5,0,0,0-.5.5V14.5a.5.5,0,0,0,.5.5h9.167l.2666.2L20,19h0V15h3.5a.5.5,0,0,0,.5-.5Z" />
    </g>
</svg>