<svg xmlns="http://www.w3.org/2000/svg" viewBox="0 0 25 25">
    <g>
        <path d="M9.18,12.3843a.5.5,0,1,1,.6406-.7686l2.6489,2.208,4.6772-4.6772a.5.5,0,0,1,.707.707l-5,5a.5.5,0,0,1-.6738.0308ZM25,20.5V23a2,2,0,0,1-2,2H6.5A2.5,2.5,0,0,1,4,22.5V1.5A1.5,1.5,0,0,1,5.5,0h16A1.5,1.5,0,0,1,23,1.5V20h1.5A.5.5,0,0,1,25,20.5ZM8.5,20H22V1.5a.5.5,0,0,0-.5-.5H5.5a.5.5,0,0,0-.5.5v21a1.5,1.5,0,0,0,3,0v-2A.5.5,0,0,1,8.5,20ZM24,21H9v1.5A2.4775,2.4775,0,0,1,8.4888,24H23a1.0007,1.0007,0,0,0,1-1Z" />
    </g>
</svg>