<svg width="65" height="57" viewBox="0 0 65 57" fill="none" xmlns="http://www.w3.org/2000/svg">
<g clip-path="url(#small_svg_clip)">
<path d="M0 19.134V28.2724V28.9149V29.5575V31.214C3.39011 34.7532 14.1786 38.0379 28.6399 38.498C28.7877 38.5031 28.9393 38.5044 29.0884 38.5082C29.5073 38.5198 29.925 38.5314 30.3504 38.5378C30.9377 38.5481 31.5301 38.5532 32.1277 38.5532C32.7253 38.5532 33.3177 38.5481 33.905 38.5391C34.3291 38.5327 34.748 38.5211 35.167 38.5095C35.316 38.5057 35.4677 38.5031 35.6155 38.4992C50.0768 38.0379 60.8652 34.7532 64.2554 31.2153V29.5575V28.9149V28.2724V19.134C58.0007 23.4301 44.7783 25.7021 32.1277 25.7021C19.4771 25.7021 6.2559 23.4301 0 19.134Z" fill="url(#small_svg)"/>
<path d="M64.0819 10.9774C62.64 5.45014 51.5521 0 32.1277 0C12.7521 0 1.67578 5.42315 0.188911 10.9363C0.079677 11.1252 0 11.3321 0 11.566V12.2085V14.5294C3.64585 18.3346 15.8287 21.8468 32.1277 21.8468C48.4267 21.8468 60.6108 18.3346 64.2554 14.5294V12.2085V11.566C64.2554 11.3501 64.1834 11.156 64.0819 10.9774Z" fill="url(#small_svg1)"/>
<path d="M0 34.8812V45.4203C0 45.6285 0.0552597 45.8251 0.150358 45.9999C1.66807 52.2905 15.2465 56.9863 32.1277 56.9863C48.9703 56.9863 62.5269 52.3098 64.0947 46.0423C64.1975 45.8573 64.2554 45.6452 64.2554 45.4203V34.8837C58.9414 38.6247 47.9923 41.565 32.1277 41.565C16.2617 41.565 5.31263 38.6221 0 34.8812Z" fill="url(#small_svg2)"/>
<ellipse cx="31.6096" cy="32.2792" rx="2.22603" ry="2.22603" fill="#7A51B8"/>
<ellipse cx="31.6096" cy="49.1689" rx="2.22603" ry="2.22602" fill="#7A51B8"/>
</g>
<defs>
<linearGradient id="small_svg" x1="5.01191" y1="23.132" x2="59.4577" y2="38.0889" gradientUnits="userSpaceOnUse">
<stop stop-color="#EEEDEF"/>
<stop offset="1" stop-color="#DCD7DE"/>
</linearGradient>
<linearGradient id="small_svg1" x1="5.01191" y1="4.49788" x2="60.2715" y2="17.9915" gradientUnits="userSpaceOnUse">
<stop stop-color="#EEEDEF"/>
<stop offset="1" stop-color="#DCD7DE"/>
</linearGradient>
<linearGradient id="small_svg2" x1="5.01191" y1="39.4322" x2="60.3439" y2="52.7856" gradientUnits="userSpaceOnUse">
<stop stop-color="#EEEDEF"/>
<stop offset="1" stop-color="#DCD7DE"/>
</linearGradient>
<clipPath id="small_svg_clip">
<rect width="65" height="56.9863" fill="white"/>
</clipPath>
</defs>
</svg>
