<svg width="71" height="71" viewBox="0 0 71 71" fill="none" xmlns="http://www.w3.org/2000/svg">
  <g clip-path="url(#clip0_87_453)">
    <path d="M69.6487 35.9337C69.6487 17.2703 54.519 2.14062 35.8556 2.14062C17.1922 2.14062 2.0625 17.2703 2.0625 35.9337C2.0625 54.5971 17.1922 69.7268 35.8556 69.7268C54.519 69.7268 69.6487 54.5971 69.6487 35.9337Z" fill="#0E0C35" fill-opacity="0.4"/>
    <path d="M69.6487 35.9337C69.6487 17.2703 54.519 2.14062 35.8556 2.14062C17.1922 2.14062 2.0625 17.2703 2.0625 35.9337C2.0625 54.5971 17.1922 69.7268 35.8556 69.7268C54.519 69.7268 69.6487 54.5971 69.6487 35.9337Z" fill="url(#paint0_linear_87_453)" fill-opacity="0.1"/>
    <path d="M69.6487 35.9337C69.6487 17.2703 54.519 2.14062 35.8556 2.14062C17.1922 2.14062 2.0625 17.2703 2.0625 35.9337C2.0625 54.5971 17.1922 69.7268 35.8556 69.7268C54.519 69.7268 69.6487 54.5971 69.6487 35.9337Z" fill="url(#paint1_radial_87_453)" fill-opacity="0.24"/>
    <path opacity="0.06" d="M26.201 50.4161H11.7182M26.201 50.4161V35.9334M26.201 50.4161H10.5113M26.201 50.4161V63.0885M26.201 50.4161H45.5113M26.201 35.9334V21.4506M26.201 35.9334H6.89062M26.201 35.9334L45.5113 35.9332M45.5113 50.4161V35.9332M45.5113 50.4161H60.9466M45.5113 50.4161V63.0885M26.201 21.4506H10.5113M26.201 21.4506V8.77812M26.201 21.4506H45.5113M6.89062 35.9334C6.89062 19.9362 19.859 6.96777 35.8562 6.96777C46.5775 6.96777 55.9383 12.7927 60.9466 21.4506M6.89062 35.9334C6.89062 51.9305 19.859 64.8989 35.8562 64.8989C46.5775 64.8989 55.9383 59.0739 60.9466 50.4161M45.5113 35.9332V21.4506M45.5113 35.9332H64.8217M45.5113 21.4506H59.9941H60.9466M45.5113 21.4506V8.77812M60.9466 21.4506H61.201M60.9466 21.4506C63.4112 25.7109 64.8217 30.6574 64.8217 35.9332M60.9466 50.4161C63.4112 46.1556 64.8217 41.2092 64.8217 35.9332M60.9466 50.4161H61.201" stroke="url(#paint2_radial_87_453)" stroke-width="1.2069"/>
    <path d="M69.6487 35.9337C69.6487 17.2703 54.519 2.14062 35.8556 2.14062C17.1922 2.14062 2.0625 17.2703 2.0625 35.9337C2.0625 54.5971 17.1922 69.7268 35.8556 69.7268C54.519 69.7268 69.6487 54.5971 69.6487 35.9337Z" stroke="white" stroke-opacity="0.1" stroke-width="1.2069"/>
  </g>
  <defs>
    <linearGradient id="paint0_linear_87_453" x1="35.8556" y1="-35.8766" x2="35.8556" y2="107.141" gradientUnits="userSpaceOnUse">
      <stop stop-color="#B6A3FF"/>
      <stop offset="1" stop-color="#B6A3FF" stop-opacity="0"/>
    </linearGradient>
    <radialGradient id="paint1_radial_87_453" cx="0" cy="0" r="1" gradientUnits="userSpaceOnUse" gradientTransform="translate(35.8556 67.313) rotate(90) scale(42.2414)">
      <stop stop-color="#B6A3FF"/>
      <stop offset="1" stop-color="#B6A3FF" stop-opacity="0"/>
    </radialGradient>
    <radialGradient id="paint2_radial_87_453" cx="0" cy="0" r="1" gradientUnits="userSpaceOnUse" gradientTransform="translate(35.8562 35.9333) rotate(-90) scale(50.6897 50.6897)">
      <stop offset="0.156794" stop-color="white" stop-opacity="0"/>
      <stop offset="0.527439" stop-color="white"/>
      <stop offset="1" stop-color="white" stop-opacity="0"/>
    </radialGradient>
    <clipPath id="clip0_87_453">
      <rect width="70" height="70" fill="white" transform="translate(0.855469 0.933594)"/>
    </clipPath>
  </defs>
</svg>