<svg width="1600" height="692" viewBox="0 0 1600 692" fill="none" xmlns="http://www.w3.org/2000/svg">
<g clip-path="url(#clip0_1_756)">
<path d="M80.0001 138.325L8.16223e-05 92.2167L80.0001 46.1084M80.0001 138.325L4.35642e-05 184.434L80 230.541M80.0001 138.325L160 184.434M80.0001 138.325L160 92.2167M80.0001 46.1084L160 92.2167M80.0001 46.1084L160 9.38077e-05L240 46.1084M80 230.541L160 184.434M80 230.541L160 276.65M80 230.541L7.06102e-05 276.65L80 322.759M160 184.434L240 230.541M160 184.434L240 138.325M160 92.2167L240 138.325M160 92.2167L240 46.1084M240 230.541L160 276.65M240 230.541L320 276.65M240 230.541L320 184.434M240 138.325L320 184.434M240 138.325L320 92.2168M160 276.65L240 322.759M160 276.65L80 322.759M80 322.759L0 368.867L80 414.975M80 322.759L160 368.867M320 276.65L240 322.759M320 276.65L400 322.759M320 276.65L400 230.541M320 184.434L400 230.541M320 184.434L400 138.325M240 322.759L320 368.867M240 322.759L160 368.867M400 322.759L320 368.867M400 322.759L480 368.867M400 322.759L480 276.65M400 230.541L480 276.65M400 230.541L480 184.434M320 368.867L400 414.975M320 368.867L240 414.975M160 368.867L80 414.975M160 368.867L240 414.975M480 368.867L400 414.975M480 368.867L560 414.975M480 368.867L560 322.759M480 276.65L560 322.759M480 276.65L560 230.541M400 414.975L480 461.084M400 414.975L320 461.084M240 414.975L160 461.084M240 414.975L320 461.084M560 414.975L480 461.084M560 414.975L640 461.084M560 414.975L640 368.867M560 322.759L640 368.867M560 322.759L640 276.65M480 461.084L560 507.192M480 461.084L400 507.192M320 461.084L240 507.192M320 461.084L400 507.192M640 461.084L560 507.192M640 461.084L720 507.192M640 461.084L720 414.975M640 368.867L720 414.975M640 368.867L720 322.759M560 507.192L640 553.3M560 507.192L480 553.3M400 507.192L320 553.3M400 507.192L480 553.3M720 507.192L640 553.3M720 507.192L800 461.084M720 414.975L800 461.084M720 414.975L800 368.867M640 553.3L560 599.409M480 553.3L400 599.409M480 553.3L560 599.409M800 461.084L880 507.192M800 461.084L880 414.975M560 599.409L480 645.517L400 599.409M240 46.1084L320 92.2168M240 46.1084L320 1.87615e-05L400 46.1084M960 553.3L1040 599.409M960 553.3L880 507.192M960 553.3L1040 507.192M1040 599.409L1120 645.517L1200 599.409M1040 599.409L1120 553.3M880 507.192L960 461.084M1040 507.192L1120 553.3M1040 507.192L960 461.084M1040 507.192L1120 461.084M1200 599.409L1120 553.3M1200 599.409L1280 645.517L1360 599.409M1200 599.409L1280 553.3M1120 553.3L1200 507.192M320 92.2168L400 138.325M320 92.2168L400 46.1084M400 138.325L480 184.434M400 138.325L480 92.2167M480 184.434L560 230.541M480 184.434L560 138.325M560 230.541L640 276.65M560 230.541L640 184.434M640 276.65L720 322.759M640 276.65L720 230.541M720 322.759L800 368.867M720 322.759L800 276.65M800 368.867L880 414.975M800 368.867L880 322.759M880 414.975L960 461.084M880 414.975L960 368.867M960 461.084L1040 414.975M1120 461.084L1200 507.192M1120 461.084L1040 414.975M1120 461.084L1200 414.975M1200 507.192L1280 553.3M1200 507.192L1280 461.084M400 46.1084L480 92.2167M400 46.1084L480 9.38077e-05L560 46.1084M1360 599.409L1280 553.3M1360 599.409L1440 645.517M1360 599.409L1440 553.3M1280 553.3L1360 507.192M480 92.2167L560 138.325M480 92.2167L560 46.1084M560 138.325L640 184.434M560 138.325L640 92.2168M640 184.434L720 230.541M640 184.434L720 138.325M720 230.541L800 276.65M720 230.541L800 184.434M800 276.65L880 322.759M800 276.65L880 230.541M880 322.759L960 368.867M880 322.759L960 276.65M960 368.867L1040 414.975M960 368.867L1040 322.759M1040 414.975L1120 368.867M1200 414.975L1280 461.084M1200 414.975L1120 368.867M1200 414.975L1280 368.867M1280 461.084L1360 507.192M1280 461.084L1360 414.975M1360 507.192L1440 553.3M1360 507.192L1440 461.084M560 46.1084L640 92.2168M560 46.1084L640 1.87615e-05L720 46.1084M1440 645.517L1520 691.626M1440 645.517L1520 599.409M1440 553.3L1520 599.409M1440 553.3L1520 507.192M1520 599.409L1600 645.517M1520 599.409L1600 553.3L1520 507.192M640 92.2168L720 138.325M640 92.2168L720 46.1084M720 138.325L800 184.434M720 138.325L800 92.2167M800 184.434L880 230.541M800 184.434L880 138.325M880 230.541L960 276.65M880 230.541L960 184.434M960 276.65L1040 322.759M960 276.65L1040 230.541M1040 322.759L1120 368.867M1040 322.759L1120 276.65M1120 368.867L1200 322.759M1280 368.867L1360 414.975M1280 368.867L1200 322.759M1280 368.867L1360 322.759M1360 414.975L1440 461.084M1360 414.975L1440 368.867M1440 461.084L1520 507.192M1440 461.084L1520 414.975M1520 507.192L1600 461.084L1520 414.975M720 46.1084L800 92.2167M720 46.1084L800 0L880 46.1084M800 92.2167L880 138.325M800 92.2167L880 46.1084M880 138.325L960 184.434M880 138.325L960 92.2167M960 184.434L1040 230.541M960 184.434L1040 138.325M1040 230.541L1120 276.65M1040 230.541L1120 184.434M1120 276.65L1200 322.759M1120 276.65L1200 230.541M1200 322.759L1280 276.65M1360 322.759L1440 368.867M1360 322.759L1280 276.65M1360 322.759L1440 276.65M1440 368.867L1520 414.975M1440 368.867L1520 322.759M1520 414.975L1600 368.867L1520 322.759M880 46.1084L960 92.2167M880 46.1084L960 9.38077e-05L1040 46.1084M960 92.2167L1040 138.325M960 92.2167L1040 46.1084M1040 138.325L1120 184.434M1040 138.325L1120 92.2168M1120 184.434L1200 230.541M1120 184.434L1200 138.325M1200 230.541L1280 276.65M1200 230.541L1280 184.434M1280 276.65L1360 230.541M4.85861e-05 645.517L80 599.409M80 599.409L5.40921e-05 553.3L80 507.192M80 599.409L160 645.517M80 599.409L160 553.3M80 691.626L160 645.517M160 645.517L240 599.409M1440 276.65L1520 322.759M1440 276.65L1360 230.541M1440 276.65L1520 230.541M1520 322.759L1600 276.65L1520 230.541M1040 46.1084L1120 92.2168M1040 46.1084L1120 1.87615e-05L1200 46.1084M1120 92.2168L1200 138.325M1120 92.2168L1200 46.1084M1200 138.325L1280 184.434M1200 138.325L1280 92.2167M1280 184.434L1360 230.541M1280 184.434L1360 138.325M1360 230.541L1440 184.434M80 507.192L2.7046e-05 461.084L80 414.975M80 507.192L160 553.3M80 507.192L160 461.084M160 553.3L240 599.409M160 553.3L240 507.192M240 599.409L320 645.517L400 599.409M240 599.409L320 553.3M1520 230.541L1440 184.434M1520 230.541L1600 184.434L1520 138.325M1200 46.1084L1280 92.2167M1200 46.1084L1280 1.87615e-05L1360 46.1084M1280 92.2167L1360 138.325M1280 92.2167L1360 46.1084M1360 138.325L1440 184.434M1360 138.325L1440 92.2167M1440 184.434L1520 138.325M80 414.975L160 461.084M160 461.084L240 507.192M240 507.192L320 553.3M400 599.409L320 553.3M1520 138.325L1440 92.2167M1520 138.325L1600 92.2168L1520 46.1084M1360 46.1084L1440 92.2167M1360 46.1084L1440 9.38077e-05L1520 46.1084M1440 92.2167L1520 46.1084" stroke="url(#paint0_radial_1_756)" stroke-opacity="0.2" stroke-width="1.5"/>
<path d="M80.0001 138.325L8.16223e-05 92.2167L80.0001 46.1084M80.0001 138.325L4.35642e-05 184.434L80 230.541M80.0001 138.325L160 184.434M80.0001 138.325L160 92.2167M80.0001 46.1084L160 92.2167M80.0001 46.1084L160 9.38077e-05L240 46.1084M80 230.541L160 184.434M80 230.541L160 276.65M80 230.541L7.06102e-05 276.65L80 322.759M160 184.434L240 230.541M160 184.434L240 138.325M160 92.2167L240 138.325M160 92.2167L240 46.1084M240 230.541L160 276.65M240 230.541L320 276.65M240 230.541L320 184.434M240 138.325L320 184.434M240 138.325L320 92.2168M160 276.65L240 322.759M160 276.65L80 322.759M80 322.759L0 368.867L80 414.975M80 322.759L160 368.867M320 276.65L240 322.759M320 276.65L400 322.759M320 276.65L400 230.541M320 184.434L400 230.541M320 184.434L400 138.325M240 322.759L320 368.867M240 322.759L160 368.867M400 322.759L320 368.867M400 322.759L480 368.867M400 322.759L480 276.65M400 230.541L480 276.65M400 230.541L480 184.434M320 368.867L400 414.975M320 368.867L240 414.975M160 368.867L80 414.975M160 368.867L240 414.975M480 368.867L400 414.975M480 368.867L560 414.975M480 368.867L560 322.759M480 276.65L560 322.759M480 276.65L560 230.541M400 414.975L480 461.084M400 414.975L320 461.084M240 414.975L160 461.084M240 414.975L320 461.084M560 414.975L480 461.084M560 414.975L640 461.084M560 414.975L640 368.867M560 322.759L640 368.867M560 322.759L640 276.65M480 461.084L560 507.192M480 461.084L400 507.192M320 461.084L240 507.192M320 461.084L400 507.192M640 461.084L560 507.192M640 461.084L720 507.192M640 461.084L720 414.975M640 368.867L720 414.975M640 368.867L720 322.759M560 507.192L640 553.3M560 507.192L480 553.3M400 507.192L320 553.3M400 507.192L480 553.3M720 507.192L640 553.3M720 507.192L800 461.084M720 414.975L800 461.084M720 414.975L800 368.867M640 553.3L560 599.409M480 553.3L400 599.409M480 553.3L560 599.409M800 461.084L880 507.192M800 461.084L880 414.975M560 599.409L480 645.517L400 599.409M240 46.1084L320 92.2168M240 46.1084L320 1.87615e-05L400 46.1084M960 553.3L1040 599.409M960 553.3L880 507.192M960 553.3L1040 507.192M1040 599.409L1120 645.517L1200 599.409M1040 599.409L1120 553.3M880 507.192L960 461.084M1040 507.192L1120 553.3M1040 507.192L960 461.084M1040 507.192L1120 461.084M1200 599.409L1120 553.3M1200 599.409L1280 645.517L1360 599.409M1200 599.409L1280 553.3M1120 553.3L1200 507.192M320 92.2168L400 138.325M320 92.2168L400 46.1084M400 138.325L480 184.434M400 138.325L480 92.2167M480 184.434L560 230.541M480 184.434L560 138.325M560 230.541L640 276.65M560 230.541L640 184.434M640 276.65L720 322.759M640 276.65L720 230.541M720 322.759L800 368.867M720 322.759L800 276.65M800 368.867L880 414.975M800 368.867L880 322.759M880 414.975L960 461.084M880 414.975L960 368.867M960 461.084L1040 414.975M1120 461.084L1200 507.192M1120 461.084L1040 414.975M1120 461.084L1200 414.975M1200 507.192L1280 553.3M1200 507.192L1280 461.084M400 46.1084L480 92.2167M400 46.1084L480 9.38077e-05L560 46.1084M1360 599.409L1280 553.3M1360 599.409L1440 645.517M1360 599.409L1440 553.3M1280 553.3L1360 507.192M480 92.2167L560 138.325M480 92.2167L560 46.1084M560 138.325L640 184.434M560 138.325L640 92.2168M640 184.434L720 230.541M640 184.434L720 138.325M720 230.541L800 276.65M720 230.541L800 184.434M800 276.65L880 322.759M800 276.65L880 230.541M880 322.759L960 368.867M880 322.759L960 276.65M960 368.867L1040 414.975M960 368.867L1040 322.759M1040 414.975L1120 368.867M1200 414.975L1280 461.084M1200 414.975L1120 368.867M1200 414.975L1280 368.867M1280 461.084L1360 507.192M1280 461.084L1360 414.975M1360 507.192L1440 553.3M1360 507.192L1440 461.084M560 46.1084L640 92.2168M560 46.1084L640 1.87615e-05L720 46.1084M1440 645.517L1520 691.626M1440 645.517L1520 599.409M1440 553.3L1520 599.409M1440 553.3L1520 507.192M1520 599.409L1600 645.517M1520 599.409L1600 553.3L1520 507.192M640 92.2168L720 138.325M640 92.2168L720 46.1084M720 138.325L800 184.434M720 138.325L800 92.2167M800 184.434L880 230.541M800 184.434L880 138.325M880 230.541L960 276.65M880 230.541L960 184.434M960 276.65L1040 322.759M960 276.65L1040 230.541M1040 322.759L1120 368.867M1040 322.759L1120 276.65M1120 368.867L1200 322.759M1280 368.867L1360 414.975M1280 368.867L1200 322.759M1280 368.867L1360 322.759M1360 414.975L1440 461.084M1360 414.975L1440 368.867M1440 461.084L1520 507.192M1440 461.084L1520 414.975M1520 507.192L1600 461.084L1520 414.975M720 46.1084L800 92.2167M720 46.1084L800 0L880 46.1084M800 92.2167L880 138.325M800 92.2167L880 46.1084M880 138.325L960 184.434M880 138.325L960 92.2167M960 184.434L1040 230.541M960 184.434L1040 138.325M1040 230.541L1120 276.65M1040 230.541L1120 184.434M1120 276.65L1200 322.759M1120 276.65L1200 230.541M1200 322.759L1280 276.65M1360 322.759L1440 368.867M1360 322.759L1280 276.65M1360 322.759L1440 276.65M1440 368.867L1520 414.975M1440 368.867L1520 322.759M1520 414.975L1600 368.867L1520 322.759M880 46.1084L960 92.2167M880 46.1084L960 9.38077e-05L1040 46.1084M960 92.2167L1040 138.325M960 92.2167L1040 46.1084M1040 138.325L1120 184.434M1040 138.325L1120 92.2168M1120 184.434L1200 230.541M1120 184.434L1200 138.325M1200 230.541L1280 276.65M1200 230.541L1280 184.434M1280 276.65L1360 230.541M4.85861e-05 645.517L80 599.409M80 599.409L5.40921e-05 553.3L80 507.192M80 599.409L160 645.517M80 599.409L160 553.3M80 691.626L160 645.517M160 645.517L240 599.409M1440 276.65L1520 322.759M1440 276.65L1360 230.541M1440 276.65L1520 230.541M1520 322.759L1600 276.65L1520 230.541M1040 46.1084L1120 92.2168M1040 46.1084L1120 1.87615e-05L1200 46.1084M1120 92.2168L1200 138.325M1120 92.2168L1200 46.1084M1200 138.325L1280 184.434M1200 138.325L1280 92.2167M1280 184.434L1360 230.541M1280 184.434L1360 138.325M1360 230.541L1440 184.434M80 507.192L2.7046e-05 461.084L80 414.975M80 507.192L160 553.3M80 507.192L160 461.084M160 553.3L240 599.409M160 553.3L240 507.192M240 599.409L320 645.517L400 599.409M240 599.409L320 553.3M1520 230.541L1440 184.434M1520 230.541L1600 184.434L1520 138.325M1200 46.1084L1280 92.2167M1200 46.1084L1280 1.87615e-05L1360 46.1084M1280 92.2167L1360 138.325M1280 92.2167L1360 46.1084M1360 138.325L1440 184.434M1360 138.325L1440 92.2167M1440 184.434L1520 138.325M80 414.975L160 461.084M160 461.084L240 507.192M240 507.192L320 553.3M400 599.409L320 553.3M1520 138.325L1440 92.2167M1520 138.325L1600 92.2168L1520 46.1084M1360 46.1084L1440 92.2167M1360 46.1084L1440 9.38077e-05L1520 46.1084M1440 92.2167L1520 46.1084" stroke="url(#paint1_linear_1_756)" stroke-width="1.5"/>
</g>
<defs>
<radialGradient id="paint0_radial_1_756" cx="0" cy="0" r="1" gradientUnits="userSpaceOnUse" gradientTransform="translate(799.69 483.216) rotate(90) scale(445.099 891.074)">
<stop stop-color="white"/>
<stop offset="1" stop-color="white" stop-opacity="0"/>
</radialGradient>
<linearGradient id="paint1_linear_1_756" x1="800" y1="-33.7625" x2="800" y2="-7.45917" gradientUnits="userSpaceOnUse">
<stop stop-color="#BEF972" stop-opacity="0"/>
<stop offset="0.453125" stop-color="#BEF972"/>
<stop offset="1" stop-color="#BEF972" stop-opacity="0"/>
</linearGradient>
<clipPath id="clip0_1_756">
<rect width="1600" height="691.626" fill="white"/>
</clipPath>
</defs>
</svg>
