<svg width="1600" height="1372" viewBox="0 0 1600 1372" fill="none" xmlns="http://www.w3.org/2000/svg">
  <path opacity="0.2" d="M638.8 726.294H719.4M638.8 726.294V806.882M638.8 726.294V645.706M638.8 726.294H558.2M719.4 726.294V806.882M719.4 726.294V645.706M719.4 726.294H800M638.8 806.882H719.4M638.8 806.882V887.471M638.8 806.882H558.2M638.8 645.706V565.118M638.8 645.706H719.4M638.8 645.706H558.2M558.2 726.294H477.6M558.2 726.294V806.882M558.2 726.294V645.706M719.4 806.882V887.471M719.4 806.882H800M719.4 645.706V565.118M719.4 645.706H800M800 726.294V806.882M800 726.294V645.706M800 726.294H880.6M719.4 887.471H638.8M719.4 887.471V968.059M719.4 887.471H800M800 806.882V887.471M800 806.882H880.6M638.8 887.471V968.059M638.8 887.471H558.2M558.2 806.882H477.6M558.2 806.882V887.471M719.4 968.059H638.8M719.4 968.059V1048.65M719.4 968.059H800M800 887.471V968.059M800 887.471H880.6M638.8 968.059V1048.65M638.8 968.059H558.2M558.2 887.471H477.6M558.2 887.471V968.059M719.4 1H638.8M719.4 1V81.5882M719.4 1H800M638.8 1V81.5882M638.8 1H558.2M719.4 81.5882H638.8M719.4 81.5882V162.176M719.4 81.5882H800M800 1V81.5882M800 1H880.6M638.8 81.5882V162.176M638.8 81.5882H558.2M558.2 1H477.6M558.2 1V81.5882M719.4 1048.65H638.8M719.4 1048.65V1129.24M719.4 1048.65H800M800 968.059V1048.65M800 968.059H880.6M638.8 1048.65V1129.24M638.8 1048.65H558.2M558.2 968.059H477.6M558.2 968.059V1048.65M719.4 162.176H638.8M719.4 162.176V242.765M719.4 162.176H800M800 81.5882V162.176M800 81.5882H880.6M638.8 162.176V242.765M638.8 162.176H558.2M558.2 81.5882H477.6M558.2 81.5882V162.176M719.4 1129.24H638.8M719.4 1129.24V1209.82M719.4 1129.24H800M800 1048.65V1129.24M800 1048.65H880.6M638.8 1129.24V1209.82M638.8 1129.24H558.2M558.2 1048.65H477.6M558.2 1048.65V1129.24M719.4 242.765H638.8M719.4 242.765V323.353M719.4 242.765H800M800 162.176V242.765M800 162.176H880.6M638.8 242.765V323.353M638.8 242.765H558.2M558.2 162.176H477.6M558.2 162.176V242.765M719.4 1209.82H638.8M719.4 1209.82V1290.41M719.4 1209.82H800M800 1129.24V1209.82M800 1129.24H880.6M638.8 1209.82V1290.41M638.8 1209.82H558.2M558.2 1129.24H477.6M558.2 1129.24V1209.82M719.4 323.353H638.8M719.4 323.353V403.941M719.4 323.353H800M800 242.765V323.353M800 242.765H880.6M638.8 323.353V403.941M638.8 323.353H558.2M558.2 242.765H477.6M558.2 242.765V323.353M719.4 1290.41H638.8M719.4 1290.41V1371M719.4 1290.41H800M800 1209.82V1290.41M800 1209.82H880.6M638.8 1290.41V1371M638.8 1290.41H558.2M558.2 1209.82H477.6M558.2 1209.82V1290.41M719.4 403.941H638.8M719.4 403.941V484.529M719.4 403.941H800M800 323.353V403.941M800 323.353H880.6M638.8 403.941V484.529M638.8 403.941H558.2M558.2 323.353H477.6M558.2 323.353V403.941M719.4 1371H638.8M719.4 1371H800M800 1290.41V1371M800 1290.41H880.6M638.8 1371H558.2M558.2 1290.41H477.6M558.2 1290.41V1371M719.4 484.529H638.8M719.4 484.529V565.118M719.4 484.529H800M800 403.941V484.529M800 403.941H880.6M638.8 484.529V565.118M638.8 484.529H558.2M558.2 403.941H477.6M558.2 403.941V484.529M800 1371H880.6M558.2 1371H477.6M719.4 565.118H638.8M719.4 565.118H800M800 484.529V565.118M800 484.529H880.6M638.8 565.118H558.2M558.2 484.529H477.6M558.2 484.529V565.118M800 565.118V645.706M800 565.118H880.6M558.2 565.118H477.6M558.2 565.118V645.706M800 645.706H880.6M558.2 645.706H477.6M880.6 726.294V806.882M880.6 726.294V645.706M880.6 726.294H961.2M880.6 806.882V887.471M880.6 806.882H961.2M880.6 887.471V968.059M880.6 887.471H961.2M880.6 1V81.5882M880.6 1H961.2M880.6 968.059V1048.65M880.6 968.059H961.2M880.6 81.5882V162.176M880.6 81.5882H961.2M880.6 1048.65V1129.24M880.6 1048.65H961.2M880.6 162.176V242.765M880.6 162.176H961.2M880.6 1129.24V1209.82M880.6 1129.24H961.2M880.6 242.765V323.353M880.6 242.765H961.2M880.6 1209.82V1290.41M880.6 1209.82H961.2M880.6 323.353V403.941M880.6 323.353H961.2M880.6 1290.41V1371M880.6 1290.41H961.2M880.6 403.941V484.529M880.6 403.941H961.2M880.6 1371H961.2M880.6 484.529V565.118M880.6 484.529H961.2M880.6 565.118V645.706M880.6 565.118H961.2M880.6 645.706H961.2M961.2 726.294V806.882M961.2 726.294V645.706M961.2 726.294H1041.8M961.2 806.882V887.471M961.2 806.882H1041.8M961.2 887.471V968.059M961.2 887.471H1041.8M961.2 1V81.5882M961.2 1H1041.8M961.2 968.059V1048.65M961.2 968.059H1041.8M961.2 81.5882V162.176M961.2 81.5882H1041.8M961.2 1048.65V1129.24M961.2 1048.65H1041.8M961.2 162.176V242.765M961.2 162.176H1041.8M961.2 1129.24V1209.82M961.2 1129.24H1041.8M961.2 242.765V323.353M961.2 242.765H1041.8M961.2 1209.82V1290.41M961.2 1209.82H1041.8M961.2 323.353V403.941M961.2 323.353H1041.8M961.2 1290.41V1371M961.2 1290.41H1041.8M961.2 403.941V484.529M961.2 403.941H1041.8M961.2 1371H1041.8M961.2 484.529V565.118M961.2 484.529H1041.8M961.2 565.118V645.706M961.2 565.118H1041.8M961.2 645.706H1041.8M-6 726.294V806.882M-6 726.294V645.706M-6 726.294H74.6M-6 806.882V887.471M-6 806.882H74.6M-6 645.706V565.118M-6 645.706H74.6M74.6 726.294V806.882M74.6 726.294V645.706M74.6 726.294H155.2M-6 887.471V968.059M-6 887.471H74.6M74.6 806.882V887.471M74.6 806.882H155.2M-6 968.059V1048.65M-6 968.059H74.6M74.6 887.471V968.059M74.6 887.471H155.2M-6 1048.65V1129.24M-6 1048.65H74.6M74.6 968.059V1048.65M74.6 968.059H155.2M-6 81.5882V1H74.6M-6 81.5882V162.176M-6 81.5882H74.6M74.6 1V81.5882M74.6 1H155.2M-6 162.176V242.765M-6 162.176H74.6M74.6 81.5882V162.176M74.6 81.5882H155.2M-6 1129.24V1209.82M-6 1129.24H74.6M74.6 1048.65V1129.24M74.6 1048.65H155.2M-6 242.765V323.353M-6 242.765H74.6M74.6 162.176V242.765M74.6 162.176H155.2M-6 1209.82V1290.41M-6 1209.82H74.6M74.6 1129.24V1209.82M74.6 1129.24H155.2M-6 323.353V403.941M-6 323.353H74.6M74.6 242.765V323.353M74.6 242.765H155.2M-6 1290.41V1371H74.6M-6 1290.41H74.6M74.6 1209.82V1290.41M74.6 1209.82H155.2M-6 403.941V484.529M-6 403.941H74.6M74.6 323.353V403.941M74.6 323.353H155.2M74.6 1371V1290.41M74.6 1371H155.2M74.6 1290.41H155.2M-6 484.529V565.118M-6 484.529H74.6M74.6 403.941V484.529M74.6 403.941H155.2M-6 565.118H74.6M74.6 484.529V565.118M74.6 484.529H155.2M74.6 565.118V645.706M74.6 565.118H155.2M74.6 645.706H155.2M1041.8 726.294V806.882M1041.8 726.294V645.706M1041.8 726.294H1122.4M1041.8 806.882V887.471M1041.8 806.882H1122.4M1041.8 887.471V968.059M1041.8 887.471H1122.4M1041.8 1V81.5882M1041.8 1H1122.4M1041.8 968.059V1048.65M1041.8 968.059H1122.4M1041.8 81.5882V162.176M1041.8 81.5882H1122.4M1041.8 1048.65V1129.24M1041.8 1048.65H1122.4M1041.8 162.176V242.765M1041.8 162.176H1122.4M1041.8 1129.24V1209.82M1041.8 1129.24H1122.4M1041.8 242.765V323.353M1041.8 242.765H1122.4M1041.8 1209.82V1290.41M1041.8 1209.82H1122.4M1041.8 323.353V403.941M1041.8 323.353H1122.4M1041.8 1290.41V1371M1041.8 1290.41H1122.4M1041.8 403.941V484.529M1041.8 403.941H1122.4M1041.8 1371H1122.4M1041.8 484.529V565.118M1041.8 484.529H1122.4M1041.8 565.118V645.706M1041.8 565.118H1122.4M1041.8 645.706H1122.4M155.2 726.294V806.882M155.2 726.294V645.706M155.2 726.294H235.8M155.2 806.882V887.471M155.2 806.882H235.8M155.2 887.471V968.059M155.2 887.471H235.8M155.2 1V81.5882M155.2 1H235.8M155.2 968.059V1048.65M155.2 968.059H235.8M155.2 81.5882V162.176M155.2 81.5882H235.8M155.2 1048.65V1129.24M155.2 1048.65H235.8M155.2 162.176V242.765M155.2 162.176H235.8M155.2 1129.24V1209.82M155.2 1129.24H235.8M155.2 242.765V323.353M155.2 242.765H235.8M155.2 1209.82V1290.41M155.2 1209.82H235.8M155.2 323.353V403.941M155.2 323.353H235.8M155.2 1290.41V1371M155.2 1290.41H235.8M155.2 403.941V484.529M155.2 403.941H235.8M155.2 1371H235.8M155.2 484.529V565.118M155.2 484.529H235.8M155.2 565.118V645.706M155.2 565.118H235.8M155.2 645.706H235.8M1122.4 726.294V806.882M1122.4 726.294V645.706M1122.4 726.294H1203M1122.4 806.882V887.471M1122.4 806.882H1203M1122.4 887.471V968.059M1122.4 887.471H1203M1122.4 1V81.5882M1122.4 1H1203M1122.4 968.059V1048.65M1122.4 968.059H1203M1122.4 81.5882V162.176M1122.4 81.5882H1203M1122.4 1048.65V1129.24M1122.4 1048.65H1203M1122.4 162.176V242.765M1122.4 162.176H1203M1122.4 1129.24V1209.82M1122.4 1129.24H1203M1122.4 242.765V323.353M1122.4 242.765H1203M1122.4 1209.82V1290.41M1122.4 1209.82H1203M1122.4 323.353V403.941M1122.4 323.353H1203M1122.4 1290.41V1371M1122.4 1290.41H1203M1122.4 403.941V484.529M1122.4 403.941H1203M1122.4 1371H1203M1122.4 484.529V565.118M1122.4 484.529H1203M1122.4 565.118V645.706M1122.4 565.118H1203M1122.4 645.706H1203M235.8 726.294V806.882M235.8 726.294V645.706M235.8 726.294H316.4M235.8 806.882V887.471M235.8 806.882H316.4M235.8 887.471V968.059M235.8 887.471H316.4M235.8 1V81.5882M235.8 1H316.4M235.8 968.059V1048.65M235.8 968.059H316.4M235.8 81.5882V162.176M235.8 81.5882H316.4M235.8 1048.65V1129.24M235.8 1048.65H316.4M235.8 162.176V242.765M235.8 162.176H316.4M235.8 1129.24V1209.82M235.8 1129.24H316.4M235.8 242.765V323.353M235.8 242.765H316.4M235.8 1209.82V1290.41M235.8 1209.82H316.4M235.8 323.353V403.941M235.8 323.353H316.4M235.8 1290.41V1371M235.8 1290.41H316.4M235.8 403.941V484.529M235.8 403.941H316.4M235.8 1371H316.4M235.8 484.529V565.118M235.8 484.529H316.4M235.8 565.118V645.706M235.8 565.118H316.4M235.8 645.706H316.4M1203 726.294V806.882M1203 726.294V645.706M1203 726.294H1283.6M1203 806.882V887.471M1203 806.882H1283.6M1203 887.471V968.059M1203 887.471H1283.6M1203 1V81.5882M1203 1H1283.6M1203 968.059V1048.65M1203 968.059H1283.6M1203 81.5882V162.176M1203 81.5882H1283.6M1203 1048.65V1129.24M1203 1048.65H1283.6M1203 162.176V242.765M1203 162.176H1283.6M1203 1129.24V1209.82M1203 1129.24H1283.6M1203 242.765V323.353M1203 242.765H1283.6M1203 1209.82V1290.41M1203 1209.82H1283.6M1203 323.353V403.941M1203 323.353H1283.6M1203 1290.41V1371M1203 1290.41H1283.6M1203 403.941V484.529M1203 403.941H1283.6M1203 1371H1283.6M1203 484.529V565.118M1203 484.529H1283.6M1203 565.118V645.706M1203 565.118H1283.6M1203 645.706H1283.6M316.4 726.294V806.882M316.4 726.294V645.706M316.4 726.294H397M316.4 806.882V887.471M316.4 806.882H397M316.4 887.471V968.059M316.4 887.471H397M316.4 1V81.5882M316.4 1H397M316.4 968.059V1048.65M316.4 968.059H397M316.4 81.5882V162.176M316.4 81.5882H397M316.4 1048.65V1129.24M316.4 1048.65H397M316.4 162.176V242.765M316.4 162.176H397M316.4 1129.24V1209.82M316.4 1129.24H397M316.4 242.765V323.353M316.4 242.765H397M316.4 1209.82V1290.41M316.4 1209.82H397M316.4 323.353V403.941M316.4 323.353H397M316.4 1290.41V1371M316.4 1290.41H397M316.4 403.941V484.529M316.4 403.941H397M316.4 1371H397M316.4 484.529V565.118M316.4 484.529H397M316.4 565.118V645.706M316.4 565.118H397M316.4 645.706H397M1283.6 726.294V806.882M1283.6 726.294V645.706M1283.6 726.294H1364.2M1283.6 806.882V887.471M1283.6 806.882H1364.2M1283.6 887.471V968.059M1283.6 887.471H1364.2M1283.6 1V81.5882M1283.6 1H1364.2M1283.6 968.059V1048.65M1283.6 968.059H1364.2M1283.6 81.5882V162.176M1283.6 81.5882H1364.2M1283.6 1048.65V1129.24M1283.6 1048.65H1364.2M1283.6 162.176V242.765M1283.6 162.176H1364.2M1283.6 1129.24V1209.82M1283.6 1129.24H1364.2M1283.6 242.765V323.353M1283.6 242.765H1364.2M1283.6 1209.82V1290.41M1283.6 1209.82H1364.2M1283.6 323.353V403.941M1283.6 323.353H1364.2M1283.6 1290.41V1371M1283.6 1290.41H1364.2M1283.6 403.941V484.529M1283.6 403.941H1364.2M1283.6 1371H1364.2M1283.6 484.529V565.118M1283.6 484.529H1364.2M1283.6 565.118V645.706M1283.6 565.118H1364.2M1283.6 645.706H1364.2M397 726.294V806.882M397 726.294V645.706M397 726.294H477.6M397 806.882V887.471M397 806.882H477.6M397 887.471V968.059M397 887.471H477.6M397 1V81.5882M397 1H477.6M397 968.059V1048.65M397 968.059H477.6M397 81.5882V162.176M397 81.5882H477.6M397 1048.65V1129.24M397 1048.65H477.6M397 162.176V242.765M397 162.176H477.6M397 1129.24V1209.82M397 1129.24H477.6M397 242.765V323.353M397 242.765H477.6M397 1209.82V1290.41M397 1209.82H477.6M397 323.353V403.941M397 323.353H477.6M397 1290.41V1371M397 1290.41H477.6M397 403.941V484.529M397 403.941H477.6M397 1371H477.6M397 484.529V565.118M397 484.529H477.6M397 565.118V645.706M397 565.118H477.6M397 645.706H477.6M1364.2 726.294V806.882M1364.2 726.294V645.706M1364.2 726.294H1444.8M1364.2 806.882V887.471M1364.2 806.882H1444.8M1364.2 887.471V968.059M1364.2 887.471H1444.8M1364.2 1V81.5882M1364.2 1H1444.8M1364.2 968.059V1048.65M1364.2 968.059H1444.8M1364.2 81.5882V162.176M1364.2 81.5882H1444.8M1364.2 1048.65V1129.24M1364.2 1048.65H1444.8M1364.2 162.176V242.765M1364.2 162.176H1444.8M1364.2 1129.24V1209.82M1364.2 1129.24H1444.8M1364.2 242.765V323.353M1364.2 242.765H1444.8M1364.2 1209.82V1290.41M1364.2 1209.82H1444.8M1364.2 323.353V403.941M1364.2 323.353H1444.8M1364.2 1290.41V1371M1364.2 1290.41H1444.8M1364.2 403.941V484.529M1364.2 403.941H1444.8M1364.2 1371H1444.8M1364.2 484.529V565.118M1364.2 484.529H1444.8M1364.2 565.118V645.706M1364.2 565.118H1444.8M1364.2 645.706H1444.8M477.6 726.294V806.882M477.6 726.294V645.706M477.6 806.882V887.471M477.6 887.471V968.059M477.6 1V81.5882M477.6 968.059V1048.65M477.6 81.5882V162.176M477.6 1048.65V1129.24M477.6 162.176V242.765M477.6 1129.24V1209.82M477.6 242.765V323.353M477.6 1209.82V1290.41M477.6 323.353V403.941M477.6 1290.41V1371M477.6 403.941V484.529M477.6 484.529V565.118M477.6 565.118V645.706M1444.8 726.294V806.882M1444.8 726.294V645.706M1444.8 726.294H1525.4M1444.8 806.882V887.471M1444.8 806.882H1525.4M1444.8 887.471V968.059M1444.8 887.471H1525.4M1444.8 1V81.5882M1444.8 1H1525.4M1444.8 968.059V1048.65M1444.8 968.059H1525.4M1444.8 81.5882V162.176M1444.8 81.5882H1525.4M1444.8 1048.65V1129.24M1444.8 1048.65H1525.4M1444.8 162.176V242.765M1444.8 162.176H1525.4M1444.8 1129.24V1209.82M1444.8 1129.24H1525.4M1444.8 242.765V323.353M1444.8 242.765H1525.4M1444.8 1209.82V1290.41M1444.8 1209.82H1525.4M1444.8 323.353V403.941M1444.8 323.353H1525.4M1444.8 1290.41V1371M1444.8 1290.41H1525.4M1444.8 403.941V484.529M1444.8 403.941H1525.4M1444.8 1371H1525.4M1444.8 484.529V565.118M1444.8 484.529H1525.4M1444.8 565.118V645.706M1444.8 565.118H1525.4M1444.8 645.706H1525.4M1525.4 726.294V806.882M1525.4 726.294V645.706M1525.4 726.294H1606M1525.4 806.882V887.471M1525.4 806.882H1606M1525.4 887.471V968.059M1525.4 887.471H1606M1525.4 1V81.5882M1525.4 1H1606V81.5882M1525.4 968.059V1048.65M1525.4 968.059H1606M1525.4 81.5882V162.176M1525.4 81.5882H1606M1525.4 1048.65V1129.24M1525.4 1048.65H1606M1525.4 162.176V242.765M1525.4 162.176H1606M1525.4 1129.24V1209.82M1525.4 1129.24H1606M1525.4 242.765V323.353M1525.4 242.765H1606M1525.4 1209.82V1290.41M1525.4 1209.82H1606M1525.4 323.353V403.941M1525.4 323.353H1606M1525.4 1290.41V1371M1525.4 1290.41H1606M1525.4 403.941V484.529M1525.4 403.941H1606M1525.4 1371H1606V1290.41M1525.4 484.529V565.118M1525.4 484.529H1606M1525.4 565.118V645.706M1525.4 565.118H1606M1525.4 645.706H1606M1606 726.294V806.882M1606 726.294V645.706M1606 806.882V887.471M1606 887.471V968.059M1606 81.5882V162.176M1606 968.059V1048.65M1606 1048.65V1129.24M1606 162.176V242.765M1606 1129.24V1209.82M1606 242.765V323.353M1606 1209.82V1290.41M1606 323.353V403.941M1606 403.941V484.529M1606 484.529V565.118M1606 565.118V645.706" stroke="#C6B2FF"/>
</svg>