<svg width="125" height="32" viewBox="0 0 125 32" fill="none" xmlns="http://www.w3.org/2000/svg">
<g clip-path="url(#clip0_67_161)">
<path d="M7.9875 0.295385L13.4275 5.73538C13.8213 6.12923 13.8213 6.76923 13.4275 7.16308L7.9875 12.6277C7.59365 13.0215 6.95365 13.0215 6.5598 12.6277L1.09519 7.18769C0.701343 6.79385 0.701343 6.15385 1.09519 5.76L6.5598 0.295385C6.95365 -0.0984615 7.59365 -0.0984615 7.9875 0.295385Z" fill="#A19EB7"/>
<path d="M17.4399 9.77244L22.8799 15.2124C23.2738 15.6063 23.2738 16.2463 22.8799 16.6401L17.4399 22.1047C17.0461 22.4986 16.4061 22.4986 16.0122 22.1047L10.5722 16.6401C10.1784 16.2463 10.1784 15.6063 10.5722 15.2124L16.0122 9.77244C16.4061 9.37859 17.0461 9.37859 17.4399 9.77244Z" fill="#A19EB7"/>
<path d="M1.09519 24.6892C0.701343 25.083 0.701343 25.723 1.09519 26.1169L6.53519 31.5569C6.92904 31.9507 7.56904 31.9507 7.96288 31.5569L13.4029 26.1169C13.7967 25.723 13.7967 25.083 13.4029 24.6892L7.9875 19.2246C7.59365 18.8307 6.95365 18.8307 6.5598 19.2246M7.71673 29.2677C7.47057 29.5138 7.07673 29.5138 6.83057 29.2677L3.40904 25.8461C3.16288 25.6 3.16288 25.2061 3.40904 24.96L6.80596 21.563C7.05211 21.3169 7.44596 21.3169 7.69211 21.563L11.089 24.96C11.3352 25.2061 11.3352 25.6 11.089 25.8461L7.71673 29.2677Z" fill="#A19EB7"/>
<path d="M32.1846 31.7782L32.2092 18.3136L33.883 18.289V19.9875C34.2769 19.3721 34.72 18.9782 35.36 18.6336C36 18.289 36.6892 18.1167 37.4769 18.1167C38.8553 18.1167 40.0123 18.6336 40.9476 19.6429C41.883 20.6767 42.3261 21.9075 42.3261 23.3598C42.3261 24.8121 41.8584 26.0429 40.9476 27.0767C40.0123 28.1105 38.88 28.6029 37.4769 28.6029C36.7384 28.6029 36.0492 28.4305 35.3846 28.0859C34.7446 27.7413 34.2769 27.3229 33.883 26.7321V31.8029L32.1846 31.7782ZM34.8184 20.7013C34.1538 21.4152 33.8338 22.3013 33.8338 23.3598C33.8338 24.4182 34.1538 25.2798 34.8184 25.9936C35.483 26.7075 36.2953 27.0521 37.28 27.0521C38.2646 27.0521 39.0769 26.7075 39.7415 25.9936C40.4061 25.2798 40.7261 24.3936 40.7261 23.3598C40.7261 22.3013 40.4061 21.4152 39.7415 20.7013C39.0769 19.9875 38.2646 19.6182 37.28 19.6182C36.2707 19.6182 35.4584 19.9875 34.8184 20.7013Z" fill="#A19EB7"/>
<path d="M44.5171 28.357V18.2893H46.0925V20.4309C46.3879 19.7416 46.8802 19.1755 47.5448 18.757C48.2094 18.3386 48.9232 18.0186 49.8832 18.0186V19.6924C48.7509 19.6924 47.914 20.1601 47.2002 20.8247C46.4617 21.4893 46.0925 22.5232 46.0925 23.9262V28.3816L44.5171 28.357Z" fill="#A19EB7"/>
<path d="M50.9663 23.3356C50.9663 21.8833 51.4832 20.6525 52.5171 19.6186C53.5509 18.5848 54.8063 18.0679 56.2586 18.0679C57.7109 18.0679 58.9663 18.5848 60.0002 19.6186C61.034 20.6525 61.5509 21.8833 61.5509 23.3356C61.5509 24.7879 61.034 25.994 60.0002 27.0279C58.9663 28.0617 57.7109 28.5786 56.2586 28.5786C54.8063 28.5786 53.5509 28.0617 52.5171 27.0279C51.4832 25.994 50.9663 24.7633 50.9663 23.3356ZM53.6494 20.7017C52.9355 21.4402 52.5663 22.3017 52.5663 23.3356C52.5663 24.3694 52.9355 25.2309 53.6494 25.9448C54.3632 26.6586 55.2248 27.0279 56.2586 27.0279C57.2678 27.0279 58.154 26.6586 58.8678 25.9448C59.5817 25.2309 59.9509 24.3448 59.9509 23.3356C59.9509 22.3263 59.5817 21.4402 58.8678 20.7017C58.154 19.9633 57.2925 19.594 56.2586 19.594C55.2248 19.6186 54.3632 19.9879 53.6494 20.7017Z" fill="#A19EB7"/>
<path d="M63.8151 31.7786L63.7905 18.2894H65.3659V20.0125C65.7598 19.3971 66.2767 18.9294 66.8921 18.5848C67.5321 18.2402 68.2459 18.0679 69.009 18.0679C70.3875 18.0679 71.5444 18.5848 72.4798 19.594C73.4151 20.6033 73.8582 21.8586 73.8582 23.3109C73.8582 24.7633 73.3905 25.994 72.4798 27.0033C71.5444 28.0125 70.3875 28.5294 69.009 28.5294C68.2705 28.5294 67.5567 28.3571 66.9167 28.0125C66.2767 27.6679 65.7598 27.2002 65.3413 26.6094V31.754L63.8151 31.7786ZM66.3751 20.6771C65.7105 21.3909 65.3905 22.2771 65.3905 23.3109C65.3905 24.3448 65.7105 25.2309 66.3751 25.9448C67.0398 26.6586 67.8521 27.0033 68.8367 27.0033C69.8213 27.0033 70.6336 26.6586 71.2982 25.9448C71.9628 25.2309 72.2828 24.3694 72.2828 23.3109C72.2828 22.2525 71.9628 21.3909 71.2982 20.6771C70.6336 19.9633 69.8213 19.594 68.8367 19.594C67.8521 19.594 67.0151 19.9633 66.3751 20.6771Z" fill="#A19EB7"/>
<path d="M75.5815 23.3356C75.5815 21.8833 76.0985 20.6525 77.1323 19.6186C78.1662 18.5848 79.4215 18.0679 80.8739 18.0679C82.3262 18.0679 83.5815 18.5848 84.6154 19.6186C85.6492 20.6525 86.1662 21.8833 86.1662 23.3356C86.1662 24.7879 85.6492 25.994 84.6154 27.0279C83.5815 28.0617 82.3262 28.5786 80.8739 28.5786C79.4215 28.5786 78.1662 28.0617 77.1323 27.0279C76.0985 25.994 75.5815 24.7633 75.5815 23.3356ZM78.2892 20.7017C77.5754 21.4402 77.2062 22.3017 77.2062 23.3356C77.2062 24.3448 77.5754 25.2309 78.2892 25.9448C79.0031 26.6586 79.8646 27.0279 80.8985 27.0279C81.9323 27.0279 82.7939 26.6586 83.5077 25.9448C84.2215 25.2309 84.5908 24.3448 84.5908 23.3356C84.5908 22.3263 84.2215 21.4402 83.5077 20.7017C82.7939 19.9633 81.9323 19.594 80.8985 19.594C79.8646 19.6186 79.0031 19.9879 78.2892 20.7017Z" fill="#A19EB7"/>
<path d="M87.9136 27.0031L88.6767 25.7478C89.5136 26.6093 90.572 27.0524 91.852 27.0524C92.5659 27.0524 93.1813 26.9047 93.649 26.6339C94.1413 26.3631 94.3628 25.9939 94.3628 25.5262C94.3628 25.2801 94.289 25.0831 94.1659 24.9108C94.0428 24.7385 93.8459 24.5908 93.5751 24.4678C93.3043 24.3447 93.0582 24.2462 92.8367 24.197C92.6151 24.1231 92.2951 24.0493 91.9259 23.9508C91.3597 23.8031 90.9167 23.6801 90.572 23.557C90.2274 23.4339 89.8828 23.2616 89.489 23.0401C89.0951 22.8185 88.8243 22.5478 88.652 22.2031C88.4797 21.8585 88.3813 21.4647 88.3813 20.997C88.3813 20.1354 88.7505 19.4462 89.489 18.9293C90.2274 18.3878 91.0643 18.1416 91.9997 18.1416C93.2305 18.1416 94.3874 18.5108 95.4705 19.2493L94.7074 20.4801C93.9197 19.9385 93.0336 19.6678 92.0243 19.6678C91.4828 19.6678 91.0151 19.7908 90.5966 20.0616C90.1782 20.3324 89.9813 20.6524 89.9813 21.0216C89.9813 21.2431 90.0305 21.4401 90.1536 21.6124C90.252 21.7847 90.449 21.9324 90.7197 22.0554C90.9905 22.1785 91.212 22.2524 91.409 22.3016C91.6059 22.3508 91.9013 22.4493 92.2951 22.5478C92.8367 22.6954 93.2797 22.8185 93.649 22.9416C94.0182 23.0401 94.412 23.2124 94.8059 23.4339C95.1997 23.6554 95.5197 23.9508 95.7167 24.2954C95.9136 24.6401 96.012 25.0585 96.012 25.5262C96.012 26.5354 95.5936 27.2985 94.7813 27.8401C93.9443 28.3816 92.9843 28.6278 91.9013 28.6278C90.2274 28.5785 88.8982 28.037 87.9136 27.0031Z" fill="#A19EB7"/>
<path d="M97.686 23.3354C97.686 21.8831 98.1537 20.6277 99.0891 19.6184C100.024 18.6092 101.181 18.0923 102.56 18.0923C104.184 18.0923 105.415 18.7323 106.252 20.0369V18.2892H107.828V28.3569H106.252V26.6338C105.415 27.9138 104.184 28.5538 102.56 28.5538C101.181 28.5538 100.024 28.0369 99.0891 27.0277C98.1537 26.0184 97.686 24.7877 97.686 23.3354ZM100.32 20.7015C99.6553 21.4154 99.3107 22.3015 99.3107 23.36C99.3107 24.4184 99.6553 25.28 100.32 25.9938C100.984 26.7077 101.821 27.0523 102.831 27.0523C103.84 27.0523 104.603 26.7077 105.268 25.9938C105.932 25.28 106.252 24.4184 106.252 23.3354C106.252 22.2769 105.932 21.4154 105.268 20.6769C104.603 19.9631 103.791 19.5938 102.806 19.5938C101.821 19.6184 100.984 19.9631 100.32 20.7015Z" fill="#A19EB7"/>
<path d="M110.56 28.3569L110.585 16.0246L112.16 16V28.3569H110.56Z" fill="#A19EB7"/>
<path d="M114.375 27.0031L115.139 25.7478C115.975 26.6093 117.034 27.0524 118.314 27.0524C119.028 27.0524 119.643 26.9047 120.111 26.6339C120.603 26.3631 120.825 25.9939 120.825 25.5262C120.825 25.2801 120.751 25.0831 120.628 24.9108C120.505 24.7385 120.308 24.5908 120.037 24.4678C119.766 24.3447 119.52 24.2462 119.299 24.197C119.077 24.1231 118.757 24.0493 118.388 23.9508C117.822 23.8031 117.379 23.6801 117.034 23.557C116.689 23.4339 116.345 23.2616 115.951 23.0401C115.557 22.8185 115.286 22.5478 115.114 22.2031C114.942 21.8585 114.843 21.4647 114.843 20.997C114.843 20.1354 115.212 19.4462 115.951 18.9293C116.689 18.3878 117.526 18.1416 118.462 18.1416C119.692 18.1416 120.849 18.5108 121.932 19.2493L121.169 20.4801C120.382 19.9385 119.495 19.6678 118.486 19.6678C117.945 19.6678 117.477 19.7908 117.059 20.0616C116.64 20.3324 116.443 20.6278 116.443 21.0216C116.443 21.2431 116.492 21.4401 116.615 21.6124C116.714 21.7847 116.911 21.9324 117.182 22.0554C117.452 22.1785 117.674 22.2524 117.871 22.3016C118.068 22.3508 118.363 22.4247 118.757 22.5478C119.299 22.6954 119.742 22.8185 120.111 22.9416C120.48 23.0401 120.874 23.2124 121.268 23.4339C121.662 23.6554 121.982 23.9508 122.179 24.2954C122.375 24.6401 122.474 25.0585 122.474 25.5262C122.474 26.5354 122.055 27.2985 121.243 27.8401C120.406 28.3816 119.446 28.6278 118.363 28.6278C116.689 28.5539 115.36 28.037 114.375 27.0031Z" fill="#A19EB7"/>
<path d="M32.1846 13.7846V0.246094L33.883 0.270709L33.8584 5.34148C34.2523 4.72609 34.7938 4.20917 35.4092 3.83994C36.0492 3.49532 36.7384 3.32302 37.5015 3.32302C38.88 3.32302 40.0123 3.83994 40.9476 4.87379C41.8584 5.90763 42.3261 7.21225 42.3261 8.71379C42.3261 10.2153 41.8584 11.3969 40.9476 12.4307C40.0369 13.4646 38.88 13.9815 37.5015 13.9815C36.7384 13.9815 36.0246 13.8092 35.4092 13.4646C34.7692 13.1199 34.2276 12.7015 33.8584 12.0861V13.7846H32.1846ZM34.8676 5.98148C34.2276 6.71994 33.883 7.60609 33.883 8.66455C33.883 9.72302 34.203 10.6338 34.8676 11.3476C35.5076 12.0615 36.32 12.4307 37.3046 12.4307C38.2892 12.4307 39.1015 12.0615 39.7415 11.3476C40.3815 10.6338 40.7261 9.72302 40.7261 8.66455C40.7261 7.60609 40.4061 6.69532 39.7415 5.98148C39.1015 5.24302 38.2892 4.8984 37.3046 4.8984C36.32 4.87379 35.5076 5.24302 34.8676 5.98148Z" fill="#A19EB7"/>
<path d="M44.1724 8.61526C44.1724 7.13834 44.6893 5.88296 45.6985 4.84911C46.7077 3.81526 47.9139 3.29834 49.3416 3.29834C51.5324 3.29834 52.8616 4.77526 53.3293 5.56296C53.8708 6.52296 54.1908 7.77834 54.1908 9.27988H45.8462C45.9693 10.2645 46.3877 11.003 47.077 11.6183C47.7662 12.2337 48.6031 12.5291 49.5631 12.5291C50.7939 12.5291 51.8524 12.1599 52.7385 11.3722L53.477 12.5291C52.2954 13.5137 50.9908 13.9814 49.5631 13.9814C48.0616 13.9814 46.7816 13.4645 45.7478 12.4553C44.6893 11.4706 44.1724 10.1906 44.1724 8.61526ZM45.8462 7.95065L52.6154 7.99988C52.517 7.06449 52.1478 6.2768 51.5324 5.66142C50.8924 5.04603 50.1539 4.72603 49.2677 4.72603C48.4062 4.72603 47.6677 5.02142 47.0031 5.6368C46.3631 6.2768 45.9693 7.03988 45.8462 7.95065Z" fill="#A19EB7"/>
<path d="M56.8494 10.7075V4.92292H55.3232V3.56908H56.8494V1.35369L58.4248 1.03369V3.56908L60.5663 3.54446V4.92292H58.4248V10.4368C58.4248 11.8645 58.9171 12.5783 59.8771 12.5783C60.1479 12.5783 60.4432 12.5291 60.714 12.4306C60.9848 12.3322 61.2063 12.2337 61.354 12.1598L61.5755 12.0122L62.0925 13.2429C61.354 13.7352 60.5663 14.006 59.7294 14.006C58.8432 14.006 58.1294 13.7352 57.6125 13.1937C57.1202 12.6522 56.8494 11.8152 56.8494 10.7075Z" fill="#A19EB7"/>
<path d="M64.4062 10.7075V4.89831H62.8555V3.54446H64.4062V1.27985L66.0062 1.03369V3.54446H68.1478V4.92292H66.0062V10.4368C66.0062 11.8645 66.4985 12.5783 67.4585 12.5783C67.7293 12.5783 68.0247 12.5291 68.2955 12.4306C68.5662 12.3322 68.7878 12.2337 68.9355 12.1598L69.157 12.0122L69.6739 13.2429C68.9355 13.7352 68.1478 14.006 67.3109 14.006C66.4001 14.006 65.6862 13.7352 65.1693 13.1937C64.677 12.6275 64.4062 11.8152 64.4062 10.7075Z" fill="#A19EB7"/>
<path d="M82.7939 13.7844V3.37207H84.4924V5.61207C84.8124 4.92284 85.4278 4.40592 86.0924 3.96284C86.7816 3.51976 87.4216 3.37207 88.4309 3.37207V5.07053C87.2739 5.07053 86.4863 5.41515 85.7478 6.07976C85.0093 6.74438 84.4924 7.85207 84.4924 9.27976V13.7844H82.7939Z" fill="#A19EB7"/>
<path d="M70.7079 8.64016C70.7079 7.16324 71.2248 5.90786 72.234 4.87401C73.2433 3.84017 74.4494 3.32324 75.8771 3.32324C78.0679 3.32324 79.3971 4.80017 79.8648 5.58786C80.4063 6.54786 80.7263 7.80324 80.7263 9.30478H72.3817C72.5048 10.2894 72.9233 11.0279 73.6125 11.6432C74.3017 12.2586 75.1386 12.554 76.0986 12.554C77.3294 12.554 78.3879 12.1848 79.274 11.3971L80.0125 12.554C78.8309 13.5386 77.5263 14.0063 76.0986 14.0063C74.6463 14.0063 73.3171 13.4894 72.2833 12.4802C71.2002 11.4709 70.6833 10.1909 70.7079 8.64016ZM72.3571 7.97555L79.1263 8.02478C79.0279 7.0894 78.6586 6.3017 78.0433 5.68632C77.4033 5.07093 76.6648 4.75093 75.7786 4.75093C74.9171 4.75093 74.1786 5.04632 73.514 5.6617C72.8986 6.27709 72.5048 7.04017 72.3571 7.97555Z" fill="#A19EB7"/>
</g>
<defs>
<clipPath id="clip0_67_161">
<rect width="124.308" height="32" fill="white" transform="translate(0.307617)"/>
</clipPath>
</defs>
</svg>
