<svg width="46" height="46" viewBox="0 0 46 46" fill="none" xmlns="http://www.w3.org/2000/svg">
<path d="M41.82 36.8V37.3H42.32H45.08C45.1914 37.3 45.2982 37.3442 45.377 37.423C45.4557 37.5018 45.5 37.6086 45.5 37.72V42.32C45.5 43.1634 45.1649 43.9722 44.5686 44.5686C43.9722 45.165 43.1634 45.5 42.32 45.5H11.96C10.8726 45.5 9.82975 45.068 9.06085 44.2991C8.29195 43.5302 7.85999 42.4874 7.85999 41.4V2.76C7.85999 2.16061 8.09809 1.58577 8.52192 1.16194C8.94576 0.738106 9.5206 0.5 10.12 0.5H39.56C40.1594 0.5 40.7342 0.738106 41.158 1.16194C41.5819 1.58577 41.82 2.16061 41.82 2.76V36.8Z" fill="url(#paint0_linear)" stroke="#7A51B8"/>
<path d="M23.6508 27.3304L32.8508 18.1304C33.0184 17.9569 33.1111 17.7245 33.109 17.4833C33.1069 17.2421 33.0102 17.0113 32.8396 16.8408C32.669 16.6702 32.4383 16.5734 32.197 16.5713C31.9558 16.5692 31.7234 16.662 31.5499 16.8296L23.6508 27.3304ZM23.6508 27.3304C23.4885 27.4929 23.2713 27.5888 23.0419 27.5993C22.8125 27.6098 22.5874 27.5341 22.411 27.3871L23.6508 27.3304ZM32.609 17.4877C32.61 17.5966 32.5685 17.7016 32.4936 17.7806L23.2972 26.9769L23.297 26.9771C23.2229 27.0513 23.1238 27.0951 23.0191 27.0998C22.9143 27.1046 22.8116 27.0701 22.731 27.003L17.2113 22.403C17.1256 22.3316 17.0718 22.2291 17.0617 22.118C17.0517 22.007 17.0861 21.8964 17.1575 21.8108C17.2289 21.7251 17.3314 21.6713 17.4425 21.6612C17.5536 21.6511 17.6641 21.6856 17.7498 21.757L22.6237 25.8197L22.9745 26.1121L23.2974 25.7892L31.8998 17.1868C31.9787 17.1118 32.0837 17.0704 32.1927 17.0713C32.3028 17.0723 32.4082 17.1164 32.486 17.1943C32.5639 17.2722 32.6081 17.3775 32.609 17.4877ZM41.82 36.8V37.3H42.32H45.08C45.1914 37.3 45.2982 37.3442 45.377 37.423C45.4557 37.5018 45.5 37.6086 45.5 37.72V42.32C45.5 43.1634 45.1649 43.9722 44.5686 44.5686C43.9722 45.165 43.1634 45.5 42.32 45.5H11.96C10.8726 45.5 9.82975 45.068 9.06085 44.2991C8.29195 43.5302 7.85999 42.4874 7.85999 41.4V2.76C7.85999 2.16061 8.09809 1.58577 8.52192 1.16194C8.94576 0.738106 9.5206 0.5 10.12 0.5H39.56C40.1594 0.5 40.7342 0.738106 41.158 1.16194C41.5819 1.58577 41.82 2.16061 41.82 2.76V36.8ZM40.48 37.3H40.98V36.8V2.76C40.98 2.38339 40.8304 2.02221 40.5641 1.75591C40.2978 1.48961 39.9366 1.34 39.56 1.34H10.12C9.74338 1.34 9.3822 1.48961 9.11589 1.75591C8.84959 2.02221 8.69999 2.38339 8.69999 2.76V41.4C8.69999 42.2646 9.04345 43.0938 9.65482 43.7052C10.2662 44.3165 11.0954 44.66 11.96 44.66C12.8246 44.66 13.6538 44.3165 14.2652 43.7052C14.8765 43.0938 15.22 42.2646 15.22 41.4V37.72C15.22 37.6086 15.2642 37.5018 15.343 37.423C15.4218 37.3442 15.5286 37.3 15.64 37.3H40.48ZM44.66 38.64V38.14H44.16H16.56H16.06V38.64V41.3992C16.0573 42.2876 15.7631 43.1507 15.2225 43.8558L14.6061 44.66H15.6194H42.32H42.3203C42.9407 44.6596 43.5356 44.4129 43.9742 43.9743C44.4129 43.5356 44.6595 42.9407 44.66 42.3204V42.32V38.64Z" fill="#7A51B8" stroke="#7A51B8"/>
<defs>
<linearGradient id="paint0_linear" x1="26.68" y1="0" x2="26.68" y2="46" gradientUnits="userSpaceOnUse">
<stop stop-color="#FEFEFF"/>
<stop offset="1" stop-color="#C9A5FF"/>
</linearGradient>
</defs>
</svg>
