<svg width="218" height="45" viewBox="0 0 218 45" fill="none" xmlns="http://www.w3.org/2000/svg">
<g>
<path d="M39.2363 20.4427C38.8307 20.4186 38.444 20.6172 38.2268 20.9612C37.8246 20.7084 36.7338 20.177 36.3103 19.9584L36.1563 19.8812C36.1317 19.8708 36.1039 19.8708 36.0793 19.8812V19.8555C36.0815 19.8241 36.0815 19.7926 36.0793 19.7612C36.5071 10.9412 27.5963 4.08839 18.9679 6.74124C14.7783 8.07635 11.497 11.3669 10.1684 15.5655C9.8167 16.8494 9.62981 18.1729 9.6123 19.5041L9.28719 19.6327L9.05191 19.7312C8.62412 19.9198 8.19634 20.1212 7.76856 20.3398C7.34077 20.5584 6.91299 20.7684 6.52371 21.0384C6.46725 21.0734 6.44531 21.1448 6.47237 21.2055C6.5049 21.2698 6.58152 21.2979 6.64776 21.2698C7.07555 21.0727 7.50333 20.897 7.93112 20.7341C8.3589 20.5712 8.80807 20.4255 9.25297 20.3055H9.27863C9.49253 20.2412 9.70642 20.1855 9.92459 20.1298L10.2583 20.0527H10.2968L10.5962 19.9884C11.0454 19.8898 11.4988 19.8298 11.9523 19.7741H12.0036C12.1786 19.7485 12.3241 19.6259 12.3792 19.4575C12.4344 19.2892 12.3897 19.1041 12.2639 18.9796C12.1381 18.855 11.9528 18.8125 11.7854 18.8698C11.3577 18.9727 10.9299 19.0841 10.5406 19.217L10.6219 19.1912C10.6465 18.0047 10.8175 16.8258 11.1309 15.6812C12.3619 11.8071 15.3918 8.77158 19.2588 7.53839C19.6068 7.43267 19.9533 7.34267 20.2983 7.26839C20.6363 7.19553 21.9881 7.00267 20.5122 7.82982C18.0594 9.24271 16.2269 11.5284 15.3788 14.2327C14.951 15.617 14.7842 18.347 15.0837 20.4427C15.1778 21.0984 14.9553 21.227 14.5489 21.3984C13.6934 21.7627 12.1961 22.4227 11.4261 23.357C11.1267 23.717 10.9983 23.357 10.9256 23.0998C10.7758 22.3943 10.6843 21.6776 10.6518 20.957C10.6486 20.8941 10.6175 20.836 10.5669 20.7986C10.5164 20.7613 10.4518 20.7486 10.3909 20.7641C10.1813 20.8155 9.96309 20.867 9.76631 20.9355C9.67926 20.9656 9.62199 21.0491 9.62514 21.1412C9.74492 23.897 10.4422 26.4598 12.1106 26.3784C12.1749 26.3737 12.234 26.3412 12.2726 26.2894C12.3112 26.2376 12.3254 26.1715 12.3116 26.1084C12.0508 25.9673 11.8467 25.7402 11.7341 25.4655C11.1823 23.8112 16.2986 21.647 22.8565 20.6655C28.8797 19.7612 34.0516 20.1727 34.9499 21.5484C35.1357 21.7839 35.1561 22.1101 35.0013 22.367C34.6227 23.0479 34.0571 23.6057 33.3714 23.9741C33.3134 24.0094 33.2724 24.0669 33.2578 24.1333C33.2433 24.1997 33.2565 24.2692 33.2944 24.3255C33.3621 24.4315 33.4992 24.4686 33.611 24.4112C34.45 24.0001 35.1494 23.3501 35.6216 22.5427C35.8875 21.9367 36.0328 21.2845 36.0493 20.6227C36.4771 20.7555 37.6065 21.2098 38.0385 21.3855H38.0728C38.0548 21.4572 38.0433 21.5304 38.0385 21.6041C38.0128 22.2626 38.5046 22.8267 39.1593 22.8898C39.4592 22.9037 39.7522 22.797 39.9732 22.5934C40.1941 22.3897 40.3246 22.1061 40.3357 21.8055C40.3784 21.145 39.8934 20.5683 39.2363 20.4984V20.4427ZM30.8004 17.657C30.8067 17.8217 30.7435 17.9815 30.6263 18.0972C30.5091 18.213 30.3488 18.2741 30.1844 18.2655C28.745 18.1542 27.2983 18.18 25.8638 18.3427C25.6974 18.3562 25.5331 18.2979 25.4122 18.1826C25.2913 18.0672 25.2253 17.9056 25.2307 17.7384V17.2327C25.2316 17.105 25.3203 16.9949 25.4446 16.967C27.1425 16.6832 28.8739 16.6629 30.578 16.907C30.7045 16.9283 30.7958 17.0399 30.7919 17.1684L30.8004 17.657ZM33.8206 16.2212C33.7628 16.3107 33.6498 16.3466 33.5511 16.307C29.8208 14.8884 23.9987 15.6898 23.9987 15.6898C22.0018 15.8888 20.0383 16.341 18.1551 17.0355C17.9497 17.1143 17.7185 17.0852 17.5389 16.9578C17.3593 16.8304 17.2551 16.6216 17.2611 16.4012C17.2761 15.8882 17.3276 15.3769 17.4151 14.8712C17.6041 13.4877 18.1611 12.1806 19.0278 11.087C19.0792 11.027 19.1305 10.967 19.1861 10.9112C19.1951 10.8952 19.2066 10.8807 19.2203 10.8684L19.246 10.8384L19.3102 10.7698L19.3401 10.7398C21.8769 8.08267 26.3386 7.77839 29.47 9.50982C31.0359 10.3929 32.3338 11.6843 33.226 13.247C33.3629 13.5041 34.227 15.5055 33.8206 16.2212Z" fill="#80788E"/>
<path d="M31.8356 12.8956C31.1281 11.6866 30.0491 10.7394 28.7598 10.1956C27.3221 9.58947 25.7565 9.35089 24.2039 9.50129C23.6525 9.54468 23.1098 9.66439 22.5912 9.857C22.4876 9.88687 22.4213 9.9881 22.4352 10.0952C22.4491 10.2024 22.539 10.2832 22.6468 10.2856C23.8165 10.1619 24.9975 10.1936 26.1589 10.3799C30.4367 11.237 31.8057 13.2984 31.9554 13.3799C31.9982 13.4013 32.0495 13.3584 32.0281 13.3156C31.9729 13.1695 31.91 13.0265 31.8399 12.887" fill="#80788E"/>
<path d="M12.7051 20.3741C12.7786 20.4776 12.894 20.5431 13.0204 20.5531C13.1467 20.563 13.271 20.5163 13.3596 20.4255C13.502 20.282 13.6064 20.1052 13.6634 19.9112C13.7945 19.413 13.763 18.8859 13.5735 18.4069C13.4516 18.1013 13.2299 17.846 12.9447 17.6826C12.8926 17.6496 12.8294 17.6388 12.7693 17.6526C12.5938 17.7115 12.4432 17.8277 12.3415 17.9826C12.316 18.0146 12.3056 18.0561 12.313 18.0964C12.3204 18.1367 12.3448 18.1718 12.38 18.1926C12.7276 18.3764 12.9719 18.7097 13.0431 19.0969C13.0924 19.4929 12.9693 19.8911 12.7051 20.1898C12.6597 20.2428 12.6597 20.3211 12.7051 20.3741Z" fill="#80788E"/>
<path d="M4.70556 20.9996C4.33632 20.9689 3.97018 21.0876 3.68887 21.3292C3.40755 21.5707 3.23449 21.9151 3.20832 22.2854C3.19573 23.0834 3.81587 23.7482 4.61145 23.7896C5.36519 23.8441 6.02357 23.2837 6.09158 22.5296C6.12323 21.7264 5.50668 21.0458 4.70556 20.9996Z" fill="#80788E"/>
<path d="M44.7847 22.4998C44.7854 12.0247 37.5388 2.94822 27.3382 0.647833C17.1376 -1.65255 6.7079 3.43767 2.22835 12.9027C-2.2512 22.3678 0.41602 33.6793 8.64979 40.1355L9.07758 40.4741C9.22302 40.5855 9.37275 40.6927 9.50536 40.7998C11.8033 42.4288 14.3885 43.6067 17.1242 44.2712H17.1884L17.5691 44.3612L17.6846 44.3827L18.0439 44.4598L18.1851 44.4855L18.5359 44.5498L18.6728 44.5755C18.9038 44.6127 19.1348 44.6469 19.3658 44.6784L19.5027 44.6998L19.7636 44.7298L20.0288 44.7598L20.277 44.7855L20.5636 44.8112H20.7989H21.1069H21.325H21.6801H21.8598H22.3945C22.587 44.8112 22.7752 44.8112 22.9634 44.8112H23.1517H23.5324H23.7591H24.0928L24.3366 44.7898L24.6489 44.7641L24.9056 44.7341L25.205 44.6998L25.466 44.6655L25.7526 44.6227L26.0178 44.5798L26.2959 44.5369L26.5654 44.4855L26.8392 44.4341L27.1087 44.3741L27.3739 44.3184L27.6434 44.2541L27.9043 44.1898L28.2337 44.1427L28.4818 44.0741L28.7599 43.9969L29.0037 43.9241L29.2775 43.8341C29.3588 43.8129 29.4387 43.7871 29.5171 43.7569L29.7951 43.6627L30.0261 43.5812L30.3042 43.4784L30.5267 43.3927L30.8004 43.2855L31.0143 43.1998L31.2967 43.0798L31.5063 42.9898L31.7886 42.8612L31.9897 42.7669L32.272 42.6298L32.4645 42.5312L32.7469 42.3898L32.9351 42.2869C33.0335 42.2398 33.1276 42.1884 33.2174 42.1369L33.4014 42.0341L33.6837 41.8712L33.8548 41.7684L34.1414 41.5969L34.304 41.4941L34.5906 41.3141L34.7446 41.2112L35.0312 41.0184L35.1767 40.9198L35.4676 40.7141L35.6002 40.6155L35.8953 40.3969L36.0151 40.3069L36.3146 40.0755L36.4215 39.9855L36.7252 39.7412L36.8151 39.6598L37.1274 39.3984L37.2001 39.3341L37.5209 39.0427L37.568 39.0041L37.9059 38.6827C42.3153 34.463 44.8061 28.6174 44.7975 22.5084L44.7847 22.4998ZM29.239 29.9998C29.2091 29.7512 29.1791 29.4984 29.1406 29.2498C29.1021 29.0012 29.0679 28.7527 29.0209 28.5084C28.9738 28.2641 28.9353 28.0155 28.8882 27.7712C28.8412 27.5269 28.7813 27.2784 28.7214 27.0555C28.6853 26.8871 28.7828 26.7188 28.9466 26.6667C29.1105 26.6146 29.287 26.6957 29.3545 26.8541C29.4486 27.1198 29.5128 27.3598 29.5813 27.6169C29.6497 27.8741 29.7096 28.1184 29.7652 28.3712C29.8721 28.8812 29.9577 29.3869 30.039 29.8969C30.1416 30.5655 30.2101 31.2384 30.2657 31.9069C30.6935 31.9284 31.1512 31.9584 31.5918 32.0012C32.7867 32.124 33.9653 32.3726 35.1082 32.7427C35.2536 32.7962 35.3355 32.9509 35.2982 33.1015C35.2609 33.2522 35.1163 33.3506 34.9628 33.3298H34.9414C34.3682 33.2312 33.812 33.0941 33.2302 33.0298L32.8025 32.9655L32.5886 32.9355H32.3747L31.5191 32.8541C31.3737 32.8327 31.2282 32.8541 31.0913 32.8241L30.6635 32.7984H30.347C30.347 32.8712 30.347 32.9441 30.347 33.0169L30.3812 33.7841V34.5555C30.3812 35.0698 30.3812 35.5841 30.3812 36.0984C30.3812 36.6127 30.3427 37.1227 30.3256 37.6327C30.3085 38.1427 30.2529 38.6569 30.2058 39.1669C30.1804 39.3362 30.0315 39.459 29.8608 39.4512C29.6901 39.4435 29.5528 39.3078 29.5427 39.1369C29.5427 38.6312 29.5428 38.1255 29.5684 37.6198C29.5941 37.1141 29.5684 36.6041 29.5684 36.0984C29.5684 35.5927 29.5684 35.0869 29.5427 34.5855L29.5171 33.8269V32.9998C29.5171 32.9012 29.5171 32.8069 29.5171 32.7127H28.9439H28.0883C27.7974 32.7127 27.5065 32.7384 27.2327 32.7469C26.9589 32.7555 26.6509 32.7769 26.3772 32.8027C25.7954 32.8412 25.2136 32.8969 24.6361 32.9612C23.4768 33.0941 22.3132 33.2612 21.1796 33.4841C21.0145 33.5157 20.8546 33.4089 20.8202 33.2441C20.7921 33.0882 20.8864 32.9363 21.0384 32.8927C21.6245 32.7341 22.1977 32.6098 22.7838 32.4941C23.3698 32.3784 23.9516 32.2841 24.542 32.1941C24.8329 32.1469 25.1323 32.1169 25.4275 32.0784C25.7226 32.0398 26.0178 32.0098 26.313 31.9841C26.6082 31.9584 26.9033 31.9284 27.2028 31.9155C27.5022 31.9027 27.7974 31.8727 28.0968 31.8684C28.5674 31.8469 29.038 31.8427 29.5128 31.8684C29.4615 31.2384 29.4016 30.6127 29.3246 29.9912L29.239 29.9998ZM17.9028 26.9527C17.6889 27.6641 17.1884 29.3784 16.8761 30.7198C16.0745 34.63 15.4904 38.5818 15.1264 42.5569C13.1977 41.8453 11.3832 40.8548 9.74064 39.6169C10.0837 37.0366 10.6345 34.4883 11.3876 31.9969C11.6616 31.0928 12.0376 30.2229 12.5084 29.4041C12.8855 28.8536 13.4064 28.4177 14.0142 28.1441L14.1254 28.0927L14.3094 27.9898L14.5447 27.8698C14.7072 27.7927 14.8655 27.7155 15.0238 27.6469L15.2676 27.5398L15.5072 27.4412L15.9948 27.2527C16.4226 27.0941 17.1499 26.8712 17.6033 26.7384C17.8386 26.6698 17.9626 26.7384 17.9028 26.9527ZM36.9562 32.9527C36.2889 30.4627 35.3863 26.5627 32.7212 25.6669C29.8807 24.6984 26.8263 24.5912 23.8746 24.7798C21.7733 24.915 19.694 25.2874 17.676 25.8898C16.782 26.1512 13.9158 27.2527 13.3469 27.5441C12.6963 27.838 12.1385 28.3049 11.7341 28.8941C11.2294 29.771 10.8261 30.7028 10.532 31.6712C9.81314 34.0581 9.2628 36.4927 8.88507 38.9569C8.38457 38.5284 7.89689 38.0998 7.43061 37.6241C-0.872958 29.3081 -0.910442 15.8338 7.34673 7.47153C15.6039 -0.890708 29.0531 -0.998742 37.443 7.22978C45.833 15.4583 46.0112 28.9315 37.8418 37.3798C37.6427 35.8878 37.3469 34.4104 36.9562 32.9569" fill="#80788E"/>
<path fill-rule="evenodd" clip-rule="evenodd" d="M55.6462 40.6598C54.2473 40.6598 53.7661 39.4633 53.7661 38.3681C53.7661 37.3489 54.2602 36.0764 55.6462 36.0764C56.4996 36.0764 57.0193 36.5512 57.2118 37.0197L56.5188 37.3299C56.2942 36.9944 56.0696 36.8044 55.6462 36.8044C54.8184 36.8044 54.5617 37.6717 54.5617 38.3681C54.5617 39.1024 54.889 39.9254 55.6462 39.9254C56.0504 39.9254 56.3007 39.6912 56.506 39.3557L57.2182 39.6215C56.9423 40.2356 56.4482 40.6598 55.6462 40.6598ZM58.3742 40.5838V36.1524H60.3633C61.4798 36.1524 61.8391 36.8044 61.8391 37.5008C61.8391 38.0072 61.5504 38.577 60.9151 38.7669L61.8135 40.5838H60.9472L60.081 38.8492H59.1442V40.5838H58.3742ZM59.1442 38.1275H60.3761C60.8766 38.1275 61.0435 37.8237 61.0435 37.5008C61.0435 37.2033 60.9023 36.8741 60.3761 36.8741H59.1442V38.1275ZM64.8559 40.6598C63.4122 40.6598 62.886 39.4633 62.886 38.3681C62.886 37.2729 63.4122 36.0764 64.8559 36.0764C66.3061 36.0764 66.8258 37.2729 66.8258 38.3681C66.8258 39.4633 66.3061 40.6598 64.8559 40.6598ZM64.8559 39.9317C65.7221 39.9317 66.0301 39.0455 66.0301 38.3681C66.0301 37.6401 65.7286 36.8044 64.8559 36.8044C63.9832 36.8044 63.6817 37.6844 63.6817 38.3681C63.6817 39.0898 63.9832 39.9317 64.8559 39.9317ZM68.5785 40.5838L67.616 36.1524H68.4052L68.9378 38.7606C68.9763 38.9632 69.002 39.0834 69.0148 39.1847C69.0276 39.0834 69.0533 38.9632 69.1046 38.7606L69.7656 36.1524H70.4201L71.0938 38.7543C71.1515 38.9568 71.1708 39.0771 71.1836 39.1784C71.1965 39.0771 71.2157 38.9568 71.2606 38.7606L71.7932 36.1524H72.5696L71.6007 40.5838H70.8949L70.1698 37.8427C70.1185 37.6654 70.0928 37.5451 70.08 37.4312C70.0671 37.5451 70.0415 37.6654 69.9966 37.8363L69.2843 40.5838H68.5785ZM73.5972 36.1524H74.9832C76.5553 36.1524 77.1456 37.2666 77.1456 38.3681C77.1456 39.381 76.6066 40.5838 74.9576 40.5838H73.5972V36.1524ZM75.0666 39.8684C76.0227 39.8684 76.35 39.0645 76.35 38.3681C76.35 37.6211 75.9906 36.8677 75.1372 36.8677H74.3672V39.8684H75.0666ZM79.8223 40.6598C78.9945 40.6598 78.3721 40.2166 78.1283 39.5139L78.8405 39.2544C79.0266 39.6595 79.386 39.9381 79.848 39.9381C80.31 39.9381 80.618 39.7292 80.618 39.324C80.618 38.8999 80.1624 38.7416 79.6555 38.5707C79.0138 38.3554 78.2951 38.1085 78.2951 37.2666C78.2951 36.6208 78.8277 36.0764 79.771 36.0764C80.5538 36.0764 81.0479 36.4816 81.2083 37.026L80.5153 37.2539C80.3998 36.9944 80.1431 36.7981 79.7196 36.7981C79.3154 36.7981 79.078 36.969 79.078 37.2729C79.078 37.5958 79.4694 37.7287 79.9378 37.8806C80.5923 38.1085 81.4008 38.3871 81.4008 39.324C81.4008 40.1786 80.7078 40.6598 79.8223 40.6598ZM84.4175 40.6598C82.9738 40.6598 82.4476 39.4633 82.4476 38.3681C82.4476 37.2729 82.9738 36.0764 84.4175 36.0764C85.8677 36.0764 86.3874 37.2729 86.3874 38.3681C86.3874 39.4633 85.8677 40.6598 84.4175 40.6598ZM84.4175 39.9317C85.2838 39.9317 85.5918 39.0455 85.5918 38.3681C85.5918 37.6401 85.2902 36.8044 84.4175 36.8044C83.5449 36.8044 83.2433 37.6844 83.2433 38.3681C83.2433 39.0898 83.5449 39.9317 84.4175 39.9317ZM89.3465 40.6598C88.4225 40.6598 87.5947 40.223 87.5947 38.8935V36.1524H88.3647V38.8935C88.3647 39.7038 88.7625 39.9317 89.3465 39.9317C89.9239 39.9317 90.3282 39.7038 90.3282 38.8935V36.1524H91.0982V38.8935C91.0982 40.204 90.2961 40.6598 89.3465 40.6598ZM92.4659 40.5838V36.1524H94.455C95.5715 36.1524 95.9308 36.8044 95.9308 37.5008C95.9308 38.0072 95.6421 38.577 95.0069 38.7669L95.9052 40.5838H95.0389L94.1727 38.8492H93.2359V40.5838H92.4659ZM93.2359 38.1275H94.4679C94.9684 38.1275 95.1352 37.8237 95.1352 37.5008C95.1352 37.2033 94.994 36.8741 94.4679 36.8741H93.2359V38.1275ZM98.8578 40.6598C97.459 40.6598 96.9777 39.4633 96.9777 38.3681C96.9777 37.3489 97.4718 36.0764 98.8578 36.0764C99.7112 36.0764 100.231 36.5512 100.423 37.0197L99.7304 37.3299C99.5058 36.9944 99.2813 36.8044 98.8578 36.8044C98.03 36.8044 97.7734 37.6717 97.7734 38.3681C97.7734 39.1024 98.1006 39.9254 98.8578 39.9254C99.262 39.9254 99.5123 39.6912 99.7176 39.3557L100.43 39.6215C100.154 40.2356 99.6599 40.6598 98.8578 40.6598ZM101.586 40.5838V36.1524H104.512V36.8677H102.356V37.9376H103.684V38.653H102.356V39.8684H104.653V40.5838H101.586ZM105.828 36.1524H107.214C108.786 36.1524 109.377 37.2666 109.377 38.3681C109.377 39.381 108.838 40.5838 107.188 40.5838H105.828V36.1524ZM107.298 39.8684C108.254 39.8684 108.581 39.0645 108.581 38.3681C108.581 37.6211 108.222 36.8677 107.368 36.8677H106.598V39.8684H107.298ZM113.934 40.6598C113.106 40.6598 112.484 40.2166 112.24 39.5139L112.952 39.2544C113.139 39.6595 113.498 39.9381 113.96 39.9381C114.422 39.9381 114.73 39.7292 114.73 39.324C114.73 38.8999 114.274 38.7416 113.767 38.5707C113.126 38.3554 112.407 38.1085 112.407 37.2666C112.407 36.6208 112.94 36.0764 113.883 36.0764C114.666 36.0764 115.16 36.4816 115.32 37.026L114.627 37.2539C114.512 36.9944 114.255 36.7981 113.832 36.7981C113.427 36.7981 113.19 36.969 113.19 37.2729C113.19 37.5958 113.581 37.7287 114.05 37.8806C114.704 38.1085 115.513 38.3871 115.513 39.324C115.513 40.1786 114.82 40.6598 113.934 40.6598ZM118.529 40.6598C117.086 40.6598 116.56 39.4633 116.56 38.3681C116.56 37.2729 117.086 36.0764 118.529 36.0764C119.98 36.0764 120.499 37.2729 120.499 38.3681C120.499 39.4633 119.98 40.6598 118.529 40.6598ZM118.529 39.9317C119.396 39.9317 119.704 39.0455 119.704 38.3681C119.704 37.6401 119.402 36.8044 118.529 36.8044C117.657 36.8044 117.355 37.6844 117.355 38.3681C117.355 39.0898 117.657 39.9317 118.529 39.9317ZM121.739 40.5838V36.1524H124.639V36.8677H122.509V37.9376H123.869V38.653H122.509V40.5838H121.739ZM127.444 36.8804V40.5838H126.674V36.8804H125.397V36.1524H128.721V36.8804H127.444ZM130.506 40.5838L129.543 36.1524H130.332L130.865 38.7606C130.904 38.9632 130.929 39.0834 130.942 39.1847C130.955 39.0834 130.981 38.9632 131.032 38.7606L131.693 36.1524H132.347L133.021 38.7543C133.079 38.9568 133.098 39.0771 133.111 39.1784C133.124 39.0771 133.143 38.9568 133.188 38.7606L133.72 36.1524H134.497L133.528 40.5838H132.822L132.097 37.8427C132.046 37.6654 132.02 37.5451 132.007 37.4312C131.994 37.5451 131.969 37.6654 131.924 37.8363L131.212 40.5838H130.506ZM138.309 40.5838L137.956 39.6152H136.179L135.826 40.5838H135.011L136.686 36.1524H137.449L139.118 40.5838H138.309ZM137.713 38.9315L137.218 37.6021C137.167 37.4755 137.103 37.2856 137.071 37.1526C137.032 37.2856 136.968 37.4755 136.923 37.6021L136.423 38.9315H137.713ZM140.113 40.5838V36.1524H142.102C143.219 36.1524 143.578 36.8044 143.578 37.5008C143.578 38.0072 143.29 38.577 142.654 38.7669L143.553 40.5838H142.686L141.82 38.8492H140.883V40.5838H140.113ZM140.883 38.1275H142.115C142.616 38.1275 142.783 37.8237 142.783 37.5008C142.783 37.2033 142.641 36.8741 142.115 36.8741H140.883V38.1275ZM144.818 40.5838V36.1524H147.744V36.8677H145.588V37.9376H146.916V38.653H145.588V39.8684H147.885V40.5838H144.818ZM150.941 40.5838V36.1524H152.93C154.047 36.1524 154.406 36.8044 154.406 37.5008C154.406 38.0072 154.117 38.577 153.482 38.7669L154.38 40.5838H153.514L152.648 38.8492H151.711V40.5838H150.941ZM151.711 38.1275H152.943C153.443 38.1275 153.61 37.8237 153.61 37.5008C153.61 37.2033 153.469 36.8741 152.943 36.8741H151.711V38.1275ZM155.645 40.5838V36.1524H158.571V36.8677H156.415V37.9376H157.744V38.653H156.415V39.8684H158.712V40.5838H155.645ZM161.447 40.6598C160.048 40.6598 159.567 39.4633 159.567 38.3681C159.567 37.3489 160.061 36.0764 161.447 36.0764C162.3 36.0764 162.82 36.5512 163.013 37.0197L162.32 37.3299C162.095 36.9944 161.87 36.8044 161.447 36.8044C160.619 36.8044 160.362 37.6717 160.362 38.3681C160.362 39.1024 160.69 39.9254 161.447 39.9254C161.851 39.9254 162.101 39.6912 162.307 39.3557L163.019 39.6215C162.743 40.2356 162.249 40.6598 161.447 40.6598ZM165.92 40.6598C164.476 40.6598 163.95 39.4633 163.95 38.3681C163.95 37.2729 164.476 36.0764 165.92 36.0764C167.37 36.0764 167.89 37.2729 167.89 38.3681C167.89 39.4633 167.37 40.6598 165.92 40.6598ZM165.92 39.9317C166.786 39.9317 167.094 39.0455 167.094 38.3681C167.094 37.6401 166.793 36.8044 165.92 36.8044C165.048 36.8044 164.746 37.6844 164.746 38.3681C164.746 39.0898 165.048 39.9317 165.92 39.9317ZM173.217 40.5838H172.447V38.2288C172.447 38.0706 172.46 37.8173 172.473 37.697C172.415 37.868 172.331 38.0832 172.267 38.2415L171.176 40.6598L170.086 38.2288C170.015 38.0769 169.932 37.868 169.874 37.697C169.887 37.8173 169.899 38.0706 169.899 38.2288V40.5838H169.129V36.1524H169.906L171.061 38.7543C171.106 38.8619 171.151 38.9822 171.183 39.0834C171.215 38.9822 171.26 38.8619 171.305 38.7543L172.466 36.1524H173.217V40.5838ZM178.704 40.5838H177.934V38.2288C177.934 38.0706 177.947 37.8173 177.96 37.697C177.902 37.868 177.819 38.0832 177.754 38.2415L176.664 40.6598L175.573 38.2288C175.502 38.0769 175.419 37.868 175.361 37.697C175.374 37.8173 175.387 38.0706 175.387 38.2288V40.5838H174.617V36.1524H175.393L176.548 38.7543C176.593 38.8619 176.638 38.9822 176.67 39.0834C176.702 38.9822 176.747 38.8619 176.792 38.7543L177.953 36.1524H178.704V40.5838ZM180.104 40.5838V36.1524H183.03V36.8677H180.874V37.9376H182.202V38.653H180.874V39.8684H183.171V40.5838H180.104ZM187.837 40.5838H187.137L185.277 37.7857C185.219 37.697 185.148 37.5704 185.09 37.4565C185.103 37.5578 185.11 37.6844 185.11 37.7857V40.5838H184.346V36.1524H185.09L186.906 38.9062C186.97 39.0011 187.035 39.1278 187.092 39.2417C187.08 39.1278 187.073 39.0011 187.073 38.9062V36.1524H187.837V40.5838ZM189.237 36.1524H190.622C192.195 36.1524 192.785 37.2666 192.785 38.3681C192.785 39.381 192.246 40.5838 190.597 40.5838H189.237V36.1524ZM190.706 39.8684C191.662 39.8684 191.989 39.0645 191.989 38.3681C191.989 37.6211 191.63 36.8677 190.776 36.8677H190.007V39.8684H190.706ZM196.738 40.5838L196.386 39.6152H194.608L194.255 40.5838H193.44L195.115 36.1524H195.879L197.547 40.5838H196.738ZM196.142 38.9315L195.648 37.6021C195.596 37.4755 195.532 37.2856 195.5 37.1526C195.462 37.2856 195.397 37.4755 195.352 37.6021L194.852 38.9315H196.142ZM199.787 36.8804V40.5838H199.017V36.8804H197.74V36.1524H201.064V36.8804H199.787ZM202.207 40.5838V36.1524H202.977V40.5838H202.207ZM206.219 40.6598C204.775 40.6598 204.249 39.4633 204.249 38.3681C204.249 37.2729 204.775 36.0764 206.219 36.0764C207.669 36.0764 208.189 37.2729 208.189 38.3681C208.189 39.4633 207.669 40.6598 206.219 40.6598ZM206.219 39.9317C207.085 39.9317 207.393 39.0455 207.393 38.3681C207.393 37.6401 207.091 36.8044 206.219 36.8044C205.346 36.8044 205.044 37.6844 205.044 38.3681C205.044 39.0898 205.346 39.9317 206.219 39.9317ZM212.919 40.5838H212.219L210.358 37.7857C210.301 37.697 210.23 37.5704 210.172 37.4565C210.185 37.5578 210.192 37.6844 210.192 37.7857V40.5838H209.428V36.1524H210.172L211.988 38.9062C212.052 39.0011 212.116 39.1278 212.174 39.2417C212.161 39.1278 212.155 39.0011 212.155 38.9062V36.1524H212.919V40.5838ZM215.756 40.6598C214.928 40.6598 214.306 40.2166 214.062 39.5139L214.774 39.2544C214.96 39.6595 215.319 39.9381 215.781 39.9381C216.243 39.9381 216.551 39.7292 216.551 39.324C216.551 38.8999 216.096 38.7416 215.589 38.5707C214.947 38.3554 214.229 38.1085 214.229 37.2666C214.229 36.6208 214.761 36.0764 215.704 36.0764C216.487 36.0764 216.981 36.4816 217.142 37.026L216.449 37.2539C216.333 36.9944 216.076 36.7981 215.653 36.7981C215.249 36.7981 215.011 36.969 215.011 37.2729C215.011 37.5958 215.403 37.7287 215.871 37.8806C216.526 38.1085 217.334 38.3871 217.334 39.324C217.334 40.1786 216.641 40.6598 215.756 40.6598Z" fill="#80788E"/>
<path fill-rule="evenodd" clip-rule="evenodd" d="M64.5902 24.4979H60.7121C60.1784 24.4979 59.8938 24.7787 59.787 25.2351L58.8264 29.2016C58.6485 29.9739 58.0792 30.3951 57.2609 30.3951H54.9483C54.1655 30.3951 53.7386 29.9739 53.9521 29.2016L59.6091 8.14031C59.8226 7.40316 60.3563 6.98193 61.139 6.98193H64.3768C65.1595 6.98193 65.6932 7.40316 65.9067 8.14031L71.457 29.0963C71.6705 29.8685 71.2435 30.3951 70.4608 30.3951H68.0414C67.2231 30.3951 66.6538 29.9739 66.4759 29.2016L65.5153 25.2351C65.4085 24.7787 65.1239 24.4979 64.5902 24.4979ZM62.0445 20.4261H64.1437C64.535 20.4261 64.7841 20.2506 64.6773 19.8293L63.1119 13.195L61.5108 19.8293C61.4041 20.2506 61.6531 20.4261 62.0445 20.4261ZM77.7691 8.17541V29.2367C77.7691 30.009 77.3777 30.3951 76.5594 30.3951H74.3179C73.5351 30.3951 73.1438 30.009 73.1438 29.2367V8.17541C73.1438 7.36806 73.5351 6.98193 74.3179 6.98193H76.5594C77.3777 6.98193 77.7691 7.36806 77.7691 8.17541ZM80.6851 26.3232V16.1436H80.2938C79.511 16.1436 79.1196 15.7575 79.1196 14.9852V13.4407C79.1196 12.6685 79.511 12.2824 80.2938 12.2824H80.6851V9.7199C80.6851 8.98276 80.8274 8.14031 81.7881 7.85949L83.6738 7.33296C84.7056 7.05214 85.3104 7.40316 85.3104 8.38602V12.2824H86.8403C87.6231 12.2824 88.0144 12.6685 88.0144 13.4407V14.9852C88.0144 15.7575 87.6231 16.1436 86.8403 16.1436H85.3104V25.6563C85.3104 26.5689 85.8441 26.8849 86.5201 26.8849H87.0182C87.5519 26.8849 87.9077 27.0604 87.9077 27.8677V29.0612C87.9077 30.2547 86.698 30.7461 85.4172 30.7461C83.0689 30.7461 80.6851 29.4473 80.6851 26.3232ZM101.889 18.004V21.4791C101.889 22.2514 101.498 22.6375 100.715 22.6375H93.6345V23.9012C93.6345 25.8669 94.5596 26.92 96.7299 26.92C98.2242 26.92 98.7935 26.3232 99.7541 26.3232C100.608 26.3232 100.928 26.9902 100.928 27.4816V28.0432C100.928 29.5175 99.5051 30.7461 96.4453 30.7461C91.5709 30.7461 89.0092 27.9379 89.0092 23.5151V18.004C89.0092 14.2832 91.7488 11.9313 95.4491 11.9313C99.1493 11.9313 101.889 14.2832 101.889 18.004ZM97.2992 19.1624V18.004C97.2992 16.3191 96.5876 15.4767 95.4491 15.4767C94.3105 15.4767 93.6345 16.3191 93.6345 18.004V19.1624H97.2992ZM108.861 19.0571V29.2367C108.861 30.009 108.47 30.3951 107.651 30.3951H105.41C104.627 30.3951 104.236 30.009 104.236 29.2367V13.4758C104.236 12.6685 104.627 12.2824 105.41 12.2824H107.651C108.505 12.2824 108.861 12.6685 108.861 13.546C109.573 12.8089 110.676 11.9313 112.063 11.9313C112.917 11.9313 113.024 12.4579 113.024 12.9142V14.7746C113.024 15.7926 112.134 15.8979 111.28 16.0032C109.822 16.1787 108.861 17.3371 108.861 19.0571ZM123.234 29.2367V18.2848C123.234 16.8456 122.558 15.7926 121.206 15.7926C119.854 15.7926 119.178 16.8456 119.178 18.2848V29.2367C119.178 30.009 118.786 30.3951 117.968 30.3951H115.726C114.944 30.3951 114.552 30.009 114.552 29.2367V13.4758C114.552 12.6685 114.944 12.2824 115.726 12.2824H117.968C118.751 12.2824 119.178 12.6685 119.178 13.4407C119.178 13.4407 120.387 11.9313 122.771 11.9313C126.222 11.9313 127.859 14.4587 127.859 18.2848V29.2367C127.859 30.009 127.467 30.3951 126.649 30.3951H124.408C123.625 30.3951 123.234 30.009 123.234 29.2367ZM135.934 15.3011C133.87 15.3011 133.088 15.8277 132.412 15.8277C131.985 15.8277 131.451 15.6171 131.451 14.9501V14.0024C131.451 12.493 133.764 11.9313 136.005 11.9313C139.1 11.9313 143.121 12.7036 143.121 17.6881V29.2016C143.121 30.009 142.729 30.3951 141.947 30.3951H140.239C139.492 30.3951 139.1 30.0792 139.029 29.4824C138.923 29.5877 137.784 30.7461 135.685 30.7461C132.234 30.7461 129.814 28.1836 129.814 24.9191C129.814 19.4432 134.119 17.8285 138.496 17.3722C138.424 16.1436 137.926 15.3011 135.934 15.3011ZM134.44 24.4277C134.44 25.7265 135.08 26.8147 136.468 26.8147C137.784 26.8147 138.496 25.7616 138.496 24.4277V20.6718C136.432 21.1281 134.44 21.795 134.44 24.4277ZM145.823 26.3232V16.1436H145.432C144.649 16.1436 144.258 15.7575 144.258 14.9852V13.4407C144.258 12.6685 144.649 12.2824 145.432 12.2824H145.823V9.7199C145.823 8.98276 145.966 8.14031 146.926 7.85949L148.812 7.33296C149.844 7.05214 150.449 7.40316 150.449 8.38602V12.2824H151.979C152.761 12.2824 153.153 12.6685 153.153 13.4407V14.9852C153.153 15.7575 152.761 16.1436 151.979 16.1436H150.449V25.6563C150.449 26.5689 150.982 26.8849 151.658 26.8849H152.157C152.69 26.8849 153.046 27.0604 153.046 27.8677V29.0612C153.046 30.2547 151.836 30.7461 150.555 30.7461C148.207 30.7461 145.823 29.4473 145.823 26.3232ZM159.484 13.4758V29.2367C159.484 30.009 159.093 30.3951 158.275 30.3951H156.033C155.25 30.3951 154.859 30.009 154.859 29.2367V13.4758C154.859 12.6685 155.25 12.2824 156.033 12.2824H158.275C159.093 12.2824 159.484 12.6685 159.484 13.4758ZM159.484 8.17541V9.6497C159.484 10.4219 159.093 10.8081 158.275 10.8081H156.033C155.25 10.8081 154.859 10.4219 154.859 9.6497V8.17541C154.859 7.36806 155.25 6.98193 156.033 6.98193H158.275C159.093 6.98193 159.484 7.36806 159.484 8.17541ZM172.932 12.2824H174.675C175.458 12.2824 176.027 12.8089 175.672 13.8269L170.513 29.2367C170.335 29.8334 169.908 30.3951 168.983 30.3951H167.346C166.421 30.3951 165.994 29.8334 165.816 29.2367L160.942 13.8269C160.622 12.8089 161.155 12.2824 161.938 12.2824H163.895C164.855 12.2824 165.282 12.7387 165.46 13.4758L168.307 23.4448L171.366 13.4758C171.58 12.7387 171.971 12.2824 172.932 12.2824ZM189.866 18.004V21.4791C189.866 22.2514 189.475 22.6375 188.692 22.6375H181.612V23.9012C181.612 25.8669 182.537 26.92 184.707 26.92C186.202 26.92 186.771 26.3232 187.731 26.3232C188.585 26.3232 188.906 26.9902 188.906 27.4816V28.0432C188.906 29.5175 187.482 30.7461 184.423 30.7461C179.548 30.7461 176.987 27.9379 176.987 23.5151V18.004C176.987 14.2832 179.726 11.9313 183.426 11.9313C187.127 11.9313 189.866 14.2832 189.866 18.004ZM185.276 19.1624V18.004C185.276 16.3191 184.565 15.4767 183.426 15.4767C182.288 15.4767 181.612 16.3191 181.612 18.004V19.1624H185.276ZM203.815 6.98193C204.634 6.98193 205.025 7.36806 205.025 8.17541V9.86031C205.025 10.6326 204.634 11.0187 203.815 11.0187H200.756C200.293 11.0187 200.044 11.2644 200.044 11.7207V29.2367C200.044 30.009 199.653 30.3951 198.87 30.3951H196.451C195.632 30.3951 195.241 30.009 195.241 29.2367V11.7207C195.241 11.2644 194.992 11.0187 194.529 11.0187H191.469C190.651 11.0187 190.26 10.6326 190.26 9.86031V8.17541C190.26 7.36806 190.651 6.98193 191.469 6.98193H203.815ZM204.099 24.7787V17.8987C204.099 13.7215 207.372 11.9313 210.716 11.9313C214.061 11.9313 217.334 13.7215 217.334 17.8987V24.7787C217.334 28.9559 214.061 30.7461 210.716 30.7461C207.372 30.7461 204.099 28.9559 204.099 24.7787ZM208.724 17.8987V24.7787C208.724 26.1477 209.507 26.8849 210.716 26.8849C211.926 26.8849 212.709 26.1477 212.709 24.7787V17.8987C212.709 16.5297 211.926 15.7926 210.716 15.7926C209.507 15.7926 208.724 16.5297 208.724 17.8987Z" fill="#80788E"/>
</g>
<defs>
<clipPath id="clip0">
<rect width="217.742" height="45" fill="white"/>
</clipPath>
</defs>
</svg>
