<svg width="6" height="10" viewBox="0 0 6 10" fill="none" xmlns="http://www.w3.org/2000/svg">
<path d="M5.875 5.25V5.28125C5.9375 5.21875 5.96875 5.125 5.96875 5C5.96875 4.90625 5.9375 4.8125 5.875 4.71875L1.28125 0.09375C1.1875 0.03125 1.09375 0 1 0C0.90625 0 0.8125 0.03125 0.75 0.09375L0.125 0.71875C0.0625 0.8125 0.03125 0.90625 0.03125 1C0.03125 1.125 0.0625 1.1875 0.125 1.25L3.84375 5L0.125 8.75C0.0625 8.8125 0.03125 8.90625 0.03125 9C0.03125 9.125 0.0625 9.21875 0.125 9.28125L0.75 9.90625C0.8125 9.96875 0.90625 10 1 10C1.09375 10 1.1875 9.96875 1.28125 9.875L5.875 5.25Z" fill="#A2A2A2"/>
</svg>
