<svg width="36" height="38" viewBox="0 0 36 38" fill="none" xmlns="http://www.w3.org/2000/svg">
<path d="M18 24.0698C19.6535 24.0698 21.2698 23.6037 22.6446 22.7303C24.0194 21.857 25.0909 20.6157 25.7237 19.1634C26.3564 17.711 26.522 16.1129 26.1994 14.5712C25.8768 13.0294 25.0806 11.6132 23.9114 10.5016C22.7423 9.39004 21.2527 8.63306 19.631 8.32638C18.0093 8.0197 16.3284 8.1771 14.8008 8.77867C13.2732 9.38024 11.9675 10.399 11.0489 11.706C10.1303 13.0131 9.64003 14.5498 9.64003 16.1217C9.64003 18.2297 10.5208 20.2513 12.0886 21.7419C13.6564 23.2325 15.7828 24.0698 18 24.0698ZM18 9.61876C19.3529 9.61876 20.6753 10.0002 21.8001 10.7147C22.925 11.4293 23.8017 12.4449 24.3194 13.6332C24.8371 14.8214 24.9725 16.129 24.7086 17.3904C24.4447 18.6519 23.7932 19.8106 22.8366 20.7201C21.8801 21.6295 20.6613 22.2489 19.3344 22.4998C18.0076 22.7507 16.6323 22.6219 15.3825 22.1297C14.1326 21.6375 13.0644 20.804 12.3128 19.7346C11.5612 18.6652 11.16 17.4079 11.16 16.1217C11.162 14.3976 11.8833 12.7447 13.1656 11.5256C14.448 10.3064 16.1866 9.62068 18 9.61876ZM17.544 17.4223C17.4496 17.355 17.373 17.2678 17.3203 17.1674C17.2675 17.0671 17.24 16.9565 17.24 16.8443V13.2315C17.24 13.0399 17.3201 12.8561 17.4626 12.7206C17.6052 12.5851 17.7985 12.509 18 12.509C18.2016 12.509 18.3949 12.5851 18.5374 12.7206C18.68 12.8561 18.76 13.0399 18.76 13.2315V16.483L21.496 18.4339C21.6573 18.5489 21.7639 18.7201 21.7924 18.9098C21.8209 19.0995 21.769 19.2922 21.648 19.4455C21.5271 19.5988 21.3471 19.7002 21.1475 19.7273C20.948 19.7544 20.7453 19.705 20.584 19.59L17.544 17.4223ZM33.2 25.5149H32.44V3.11578C32.44 2.54088 32.1998 1.98953 31.7722 1.58301C31.3447 1.1765 30.7647 0.94812 30.16 0.94812L5.84002 0.94812C5.23533 0.94812 4.6554 1.1765 4.22782 1.58301C3.80024 1.98953 3.56002 2.54088 3.56002 3.11578V25.5149H2.80002C2.19533 25.5149 1.6154 25.7433 1.18782 26.1498C0.760233 26.5564 0.52002 27.1077 0.52002 27.6826V34.9081C0.52002 35.483 0.760233 36.0344 1.18782 36.4409C1.6154 36.8474 2.19533 37.0758 2.80002 37.0758H33.2C33.8047 37.0758 34.3847 36.8474 34.8122 36.4409C35.2398 36.0344 35.48 35.483 35.48 34.9081V27.6826C35.48 27.1077 35.2398 26.5564 34.8122 26.1498C34.3847 25.7433 33.8047 25.5149 33.2 25.5149ZM5.08002 3.11578C5.08026 2.92422 5.16041 2.74057 5.30289 2.60511C5.44536 2.46966 5.63853 2.39346 5.84002 2.39323H30.16C30.3615 2.39346 30.5547 2.46966 30.6972 2.60511C30.8396 2.74057 30.9198 2.92422 30.92 3.11578V25.5149H25.6C24.9953 25.5149 24.4154 25.7433 23.9878 26.1498C23.5602 26.5564 23.32 27.1077 23.32 27.6826V29.1277C23.32 29.3193 23.24 29.5031 23.0974 29.6386C22.9549 29.7741 22.7616 29.8503 22.56 29.8503H13.44C13.2385 29.8503 13.0452 29.7741 12.9026 29.6386C12.7601 29.5031 12.68 29.3193 12.68 29.1277V27.6826C12.68 27.1077 12.4398 26.5564 12.0122 26.1498C11.5846 25.7433 11.0047 25.5149 10.4 25.5149H5.08002V3.11578ZM33.96 34.9081C33.96 35.0998 33.88 35.2836 33.7374 35.4191C33.5949 35.5546 33.4016 35.6307 33.2 35.6307H2.80002C2.59846 35.6307 2.40515 35.5546 2.26262 35.4191C2.12009 35.2836 2.04002 35.0998 2.04002 34.9081V27.6826C2.04002 27.491 2.12009 27.3072 2.26262 27.1717C2.40515 27.0362 2.59846 26.9601 2.80002 26.9601H10.4C10.6016 26.9601 10.7949 27.0362 10.9374 27.1717C11.08 27.3072 11.16 27.491 11.16 27.6826V29.1277C11.1607 29.7024 11.4011 30.2534 11.8286 30.6598C12.256 31.0661 12.8355 31.2947 13.44 31.2954H22.56C23.1645 31.2947 23.744 31.0661 24.1715 30.6598C24.5989 30.2534 24.8393 29.7024 24.84 29.1277V27.6826C24.84 27.491 24.9201 27.3072 25.0626 27.1717C25.2052 27.0362 25.3985 26.9601 25.6 26.9601H33.2C33.4016 26.9601 33.5949 27.0362 33.7374 27.1717C33.88 27.3072 33.96 27.491 33.96 27.6826V34.9081Z" fill="#7A51B8"/>
</svg>
