<svg width="46" height="46" viewBox="0 0 46 46" fill="none" xmlns="http://www.w3.org/2000/svg">
<path d="M23 9.19998C18.9152 9.19374 14.9027 10.2771 11.3762 12.3384C7.84971 14.3996 4.93679 17.3642 2.93782 20.9264C0.938849 24.4886 -0.0738322 28.5195 0.00419079 32.6035C0.0822138 36.6875 1.24812 40.6767 3.38169 44.16H42.6182C44.7518 40.6767 45.9177 36.6875 45.9957 32.6035C46.0737 28.5195 45.0611 24.4886 43.0621 20.9264C41.0631 17.3642 38.1502 14.3996 34.6237 12.3384C31.0972 10.2771 27.0847 9.19374 23 9.19998Z" fill="url(#paint0_linear)"/>
<path d="M23 9.19998C18.9152 9.19374 14.9027 10.2771 11.3762 12.3384C7.84971 14.3996 4.93679 17.3642 2.93782 20.9264C0.938849 24.4886 -0.0738322 28.5195 0.00419079 32.6035C0.0822138 36.6875 1.24812 40.6767 3.38169 44.16H42.6182C44.7518 40.6767 45.9177 36.6875 45.9957 32.6035C46.0737 28.5195 45.0611 24.4886 43.0621 20.9264C41.0631 17.3642 38.1502 14.3996 34.6237 12.3384C31.0972 10.2771 27.0847 9.19374 23 9.19998ZM41.558 42.32H4.4419C2.67681 39.0977 1.78114 35.4713 1.84305 31.7978C1.90495 28.1242 2.92229 24.5301 4.79495 21.3691C6.6676 18.2081 9.33104 15.5892 12.5231 13.7701C15.7152 11.951 19.326 10.9943 23 10.9943C26.6741 10.9943 30.2849 11.951 33.477 13.7701C36.669 15.5892 39.3325 18.2081 41.2051 21.3691C43.0778 24.5301 44.0951 28.1242 44.157 31.7978C44.2189 35.4713 43.3233 39.0977 41.5582 42.32H41.558ZM31.4564 27.9621L24.1833 35.236C23.5905 34.9505 22.9158 34.884 22.2787 35.0483C21.6416 35.2126 21.0832 35.5971 20.7025 36.1336C20.3217 36.6702 20.1432 37.3242 20.1984 37.9798C20.2537 38.6355 20.5393 39.2504 21.0045 39.7156C21.4698 40.1808 22.0846 40.4664 22.7403 40.5217C23.3959 40.577 24.0499 40.3984 24.5865 40.0177C25.1231 39.6369 25.5076 39.0785 25.6719 38.4414C25.8362 37.8043 25.7697 37.1296 25.4841 36.5369L32.7578 29.2632C32.9254 29.0896 33.0182 28.8572 33.0161 28.616C33.014 28.3748 32.9172 28.1441 32.7466 27.9735C32.5761 27.8029 32.3453 27.7062 32.1041 27.7041C31.8629 27.702 31.6305 27.7947 31.457 27.9623L31.4564 27.9621ZM23 38.64C22.818 38.64 22.6401 38.586 22.4888 38.4849C22.3375 38.3838 22.2196 38.2402 22.15 38.072C22.0804 37.9039 22.0621 37.719 22.0976 37.5405C22.1331 37.362 22.2207 37.1981 22.3494 37.0694C22.4781 36.9408 22.642 36.8532 22.8205 36.8177C22.9989 36.7822 23.1839 36.8004 23.352 36.87C23.5201 36.9396 23.6638 37.0576 23.7649 37.2089C23.866 37.3601 23.92 37.538 23.92 37.72C23.92 37.964 23.823 38.198 23.6505 38.3705C23.478 38.5431 23.244 38.64 23 38.64ZM42.32 32.2C42.32 32.444 42.223 32.678 42.0505 32.8505C41.878 33.0231 41.644 33.12 41.4 33.12C41.156 33.12 40.9219 33.0231 40.7494 32.8505C40.5769 32.678 40.48 32.444 40.48 32.2C40.48 27.564 38.6383 23.1179 35.3602 19.8398C32.082 16.5616 27.6359 14.72 23 14.72C18.364 14.72 13.9179 16.5616 10.6397 19.8398C7.36159 23.1179 5.51995 27.564 5.51995 32.2C5.51995 32.444 5.42302 32.678 5.25049 32.8505C5.07796 33.0231 4.84395 33.12 4.59995 33.12C4.35595 33.12 4.12195 33.0231 3.94941 32.8505C3.77688 32.678 3.67995 32.444 3.67995 32.2C3.67995 27.076 5.71545 22.1619 9.33865 18.5387C12.9619 14.9155 17.876 12.88 23 12.88C28.1239 12.88 33.0381 14.9155 36.6613 18.5387C40.2845 22.1619 42.32 27.076 42.32 32.2V32.2Z" fill="#7A51B8"/>
<defs>
<linearGradient id="paint0_linear" x1="23" y1="9.19995" x2="23" y2="44.16" gradientUnits="userSpaceOnUse">
<stop stop-color="#FEFEFF"/>
<stop offset="1" stop-color="#C9A5FF"/>
</linearGradient>
</defs>
</svg>
