<svg width="190" height="44" viewBox="0 0 190 44" fill="none" xmlns="http://www.w3.org/2000/svg">
<path d="M1.12796 16.2463L18.2509 16.2497L28.6628 16.2515V5.86523L1.12796 16.2463Z" fill="#80788E"/>
<path d="M28.6628 5.86533V42.5342L41.667 0.960938L28.6628 5.86533Z" fill="#80788E"/>
<path d="M28.6628 16.2515L18.2509 16.2498L28.6628 42.5341V16.2515Z" fill="#80788E"/>
<path d="M1.12796 16.2463L20.9209 22.994L18.2509 16.2498L1.12796 16.2463Z" fill="#80788E"/>
<path d="M64.2053 32.8816C64.0543 33.0336 63.8028 33.2233 63.451 33.4511C63.0986 33.6791 62.6401 33.9069 62.0744 34.135C61.5087 34.3625 60.8169 34.5584 60.0001 34.7236C59.1826 34.8877 58.2464 34.9703 57.1904 34.9703C55.1536 34.9703 53.3934 34.6409 51.9102 33.9831C50.4263 33.3252 49.2006 32.4068 48.2329 31.2298C47.2648 30.0525 46.5547 28.6603 46.1021 27.0523C45.6495 25.4447 45.4233 23.679 45.4233 21.7547C45.4233 19.8311 45.6684 18.0521 46.1587 16.4192C46.6489 14.7861 47.3844 13.3753 48.3649 12.1848C49.3455 10.9952 50.5713 10.0646 52.0423 9.39352C53.5131 8.72315 55.2415 8.38721 57.228 8.38721C58.2087 8.38721 59.0949 8.4761 59.887 8.65301C60.679 8.83029 61.3703 9.03933 61.9614 9.27962C62.5518 9.52055 63.0423 9.77321 63.4323 10.0391C63.8218 10.3049 64.1172 10.527 64.3187 10.7036C64.5449 10.9067 64.7395 11.147 64.9032 11.4251C65.0665 11.7041 65.1483 12.0079 65.1483 12.3367C65.1483 12.8434 64.9597 13.3495 64.5827 13.8557C64.2056 14.3624 63.7906 14.8308 63.3379 15.2609C63.0362 14.957 62.6968 14.6474 62.3198 14.3306C61.9425 14.0141 61.5213 13.736 61.0563 13.495C60.5908 13.2547 60.0627 13.0523 59.4722 12.8874C58.8811 12.723 58.2212 12.6405 57.4922 12.6405C56.2099 12.6405 55.1351 12.9004 54.2676 13.419C53.4001 13.9382 52.7023 14.6152 52.1744 15.4508C51.6464 16.2863 51.2692 17.2421 51.0429 18.3179C50.8166 19.3943 50.7035 20.4891 50.7035 21.6029C50.7035 22.7931 50.8166 23.9323 51.0429 25.0205C51.2691 26.1092 51.6586 27.0715 52.2121 27.9067C52.7648 28.7421 53.4879 29.4132 54.3807 29.9193C55.2728 30.4262 56.3854 30.679 57.7185 30.679C58.422 30.679 59.0697 30.5906 59.6608 30.4133C60.2512 30.2363 60.7733 30.0208 61.2259 29.7673C61.6784 29.5148 62.0745 29.2491 62.4139 28.9703C62.7533 28.6917 63.0362 28.4516 63.2625 28.2485C63.4134 28.426 63.589 28.6415 63.7905 28.8943C63.9931 29.1497 64.1819 29.416 64.3562 29.6918C64.5319 29.9706 64.6827 30.2489 64.8088 30.5269C64.9343 30.806 64.9972 31.0588 64.9972 31.2863C64.9972 31.6159 64.9343 31.8942 64.8088 32.122C64.6826 32.3499 64.4816 32.6033 64.2053 32.8816V32.8816ZM83.6414 29.9691C83.6414 31.9813 83.9319 33.4459 84.514 34.3628C84.0588 34.5407 83.635 34.6682 83.2429 34.7446C82.8505 34.8212 82.4397 34.8592 82.0098 34.8592C81.0994 34.8592 80.4098 34.6809 79.9421 34.3244C79.4738 33.9682 79.1767 33.4587 79.0505 32.7962C78.4937 33.3826 77.7603 33.879 76.8498 34.2866C75.9392 34.6934 74.8258 34.8977 73.5109 34.8977C72.8279 34.8977 72.145 34.8023 71.4621 34.6125C70.7789 34.4212 70.159 34.1107 69.6027 33.6797C69.046 33.2477 68.5909 32.67 68.2369 31.9463C67.8823 31.2227 67.7056 30.3406 67.7056 29.2998C67.7056 28.005 68.0152 26.951 68.6352 26.139C69.2549 25.3261 70.0326 24.6852 70.9688 24.2154C71.9044 23.746 72.9163 23.4229 74.0043 23.2448C75.0916 23.0668 76.0911 22.9529 77.0016 22.9015C77.3053 22.8764 77.6022 22.8633 77.8933 22.8633H78.709V22.1679C78.709 21.1889 78.4494 20.4934 77.9312 20.0816C77.4123 19.6696 76.5711 19.4631 75.408 19.4631C74.3202 19.4631 73.3526 19.6416 72.5054 19.9979C71.6576 20.3549 70.8294 20.762 70.0202 21.2205C69.6657 20.7877 69.3809 20.3103 69.1665 19.7878C68.9514 19.2662 68.844 18.8776 68.844 18.6226C68.844 18.2663 69.0396 17.9224 69.4321 17.5911C69.824 17.2605 70.3617 16.9607 71.0447 16.6933C71.7278 16.4258 72.5115 16.2098 73.3973 16.0438C74.2823 15.8784 75.2183 15.7955 76.205 15.7955C77.5708 15.7955 78.728 15.9358 79.6765 16.2158C80.6251 16.4964 81.3965 16.9291 81.9911 17.5147C82.5852 18.101 83.009 18.8328 83.2621 19.7115C83.5146 20.5902 83.6416 21.6158 83.6416 22.7869V29.9691H83.6414ZM78.7847 25.5375H78.2537C78.0762 25.5375 77.899 25.5507 77.7224 25.5759C77.0897 25.6271 76.4636 25.7034 75.8443 25.8048C75.2242 25.907 74.6739 26.0853 74.1939 26.3398C73.713 26.5947 73.3211 26.926 73.0176 27.333C72.714 27.7408 72.5623 28.2632 72.5623 28.8996C72.5623 29.6128 72.7644 30.2174 73.1693 30.7142C73.5736 31.2109 74.2566 31.4593 75.2182 31.4593C75.6984 31.4593 76.1539 31.396 76.5842 31.268C77.014 31.1412 77.3933 30.9755 77.7224 30.7717C78.0509 30.5679 78.3105 30.3452 78.5003 30.1028C78.6899 29.8612 78.7848 29.6385 78.7848 29.4345V25.5375H78.7847ZM93.0885 18.0112C93.4917 17.5277 94.1225 17.037 94.9796 16.5402C95.8369 16.0436 96.9212 15.7953 98.2325 15.7953C99.1658 15.7953 100.055 15.9546 100.9 16.2728C101.744 16.5915 102.494 17.1074 103.15 17.8201C103.806 18.5335 104.329 19.476 104.72 20.6472C105.111 21.8191 105.306 23.2584 105.306 24.9643C105.306 26.9509 105.079 28.5878 104.625 29.8737C104.171 31.1603 103.585 32.1791 102.867 32.9302C102.148 33.6816 101.347 34.2101 100.465 34.5156C99.5822 34.8212 98.6994 34.9742 97.8172 34.9742C97.0858 34.9742 96.4488 34.8913 95.9072 34.7259C95.3647 34.56 94.9046 34.3759 94.5264 34.1718C94.1482 33.9683 93.8584 33.7648 93.6568 33.5605C93.4552 33.357 93.3289 33.2165 93.2786 33.14V42.5316H88.1183V16.33C88.2453 16.305 88.3983 16.2794 88.5771 16.2538C88.7303 16.2288 88.9086 16.2095 89.1125 16.1964C89.3164 16.1839 89.5585 16.1774 89.8387 16.1774C90.6794 16.1774 91.3932 16.3177 91.9794 16.5976C92.5655 16.8782 92.9356 17.3491 93.0885 18.0112V18.0112ZM99.9182 25.0788C99.9182 24.3148 99.8553 23.6021 99.7296 22.9396C99.604 22.2776 99.3965 21.7044 99.1072 21.2204C98.8179 20.7368 98.4276 20.3608 97.9374 20.0932C97.4465 19.8259 96.8496 19.6923 96.1457 19.6923C95.0894 19.6923 94.3538 19.8964 93.9385 20.3034C93.5237 20.7111 93.3162 21.1571 93.3162 21.6407V29.7401C93.5171 29.9442 93.8751 30.1858 94.3909 30.466C94.9068 30.7464 95.5036 30.886 96.1831 30.886C97.466 30.886 98.4091 30.3771 99.0128 29.358C99.6165 28.3394 99.9182 26.9128 99.9182 25.0788V25.0788ZM109.289 31.6503C109.111 31.1412 108.998 30.606 108.947 30.0456C108.896 29.4855 108.871 28.9254 108.871 28.3643V10.6376C109.048 10.6126 109.238 10.5869 109.441 10.5612C109.617 10.5362 109.807 10.5172 110.01 10.5039C110.212 10.4914 110.414 10.4849 110.616 10.4849C111.021 10.4849 111.426 10.5232 111.831 10.5994C112.235 10.676 112.602 10.8288 112.931 11.0578C113.26 11.287 113.525 11.5994 113.728 11.9939C113.93 12.389 114.031 12.9049 114.031 13.5411V16.2535H119.344V20.1124H114.031V28.2595C114.031 30.0361 114.752 30.9242 116.194 30.9242C116.548 30.9242 116.883 30.8672 117.2 30.7523C117.516 30.6378 117.8 30.5106 118.053 30.3704C118.306 30.2304 118.528 30.084 118.717 29.9311C118.907 29.7781 119.04 29.6637 119.116 29.5873C119.495 30.148 119.786 30.6333 119.988 31.0428C120.191 31.4529 120.292 31.8377 120.292 32.1972C120.292 32.5318 120.159 32.8598 119.894 33.181C119.628 33.5021 119.254 33.7983 118.774 34.068C118.294 34.3378 117.712 34.5563 117.029 34.7235C116.346 34.8907 115.599 34.9743 114.79 34.9743C113.222 34.9743 112.001 34.6685 111.129 34.0574C110.256 33.4459 109.642 32.6435 109.289 31.6503V31.6503ZM132.413 31.1535C133.047 31.1535 133.605 31.0838 134.088 30.9434C134.57 30.8038 135.001 30.6318 135.382 30.428C135.763 30.2244 136.093 30.0015 136.373 29.7594C136.652 29.5176 136.905 29.2947 137.134 29.0905C137.438 29.4724 137.756 29.9632 138.086 30.5612C138.416 31.1603 138.581 31.6503 138.581 32.0322C138.581 32.5927 138.264 33.1021 137.632 33.5605C137.101 33.9683 136.348 34.3185 135.375 34.611C134.401 34.9037 133.256 35.0503 131.941 35.0503C130.752 35.0503 129.582 34.8977 128.431 34.592C127.28 34.2865 126.256 33.7515 125.358 32.9872C124.46 32.2235 123.732 31.1984 123.176 29.912C122.62 28.6259 122.342 27.0025 122.342 25.0408C122.342 23.4361 122.588 22.0549 123.081 20.8957C123.575 19.737 124.232 18.7754 125.055 18.0113C125.876 17.2472 126.806 16.6873 127.843 16.3302C128.88 15.9739 129.943 15.7954 131.03 15.7954C132.447 15.7954 133.648 16.0187 134.635 16.464C135.622 16.9099 136.424 17.5085 137.044 18.2596C137.664 19.011 138.113 19.8706 138.391 20.8384C138.669 21.8066 138.808 22.825 138.808 23.8947V24.4295C138.808 24.6338 138.802 24.8498 138.789 25.079C138.777 25.3084 138.764 25.5316 138.752 25.7475C138.739 25.9645 138.72 26.1361 138.695 26.2634H127.502C127.603 27.6644 128.035 28.8295 128.796 29.7594C129.557 30.6893 130.763 31.1535 132.413 31.1535V31.1535ZM134.142 23.3979C134.142 22.1754 133.906 21.1821 133.435 20.418C132.965 19.6541 132.118 19.2718 130.898 19.2718C129.854 19.2718 129.021 19.6349 128.398 20.3608C127.775 21.0867 127.464 22.099 127.464 23.3978H134.142V23.3979ZM147.788 18.1077C147.94 17.8805 148.142 17.6279 148.395 17.3496C148.648 17.0716 148.958 16.8189 149.325 16.5916C149.691 16.3642 150.096 16.1743 150.539 16.0228C150.981 15.8711 151.456 15.7954 151.962 15.7954C152.266 15.7954 152.588 15.821 152.93 15.8711C153.271 15.9219 153.587 16.0168 153.878 16.1553C154.169 16.2945 154.403 16.4836 154.58 16.7236C154.757 16.9637 154.846 17.2603 154.846 17.6138C154.846 18.1695 154.706 18.8077 154.428 19.5282C154.15 20.2493 153.872 20.8642 153.594 21.3733C153.163 21.0168 152.733 20.743 152.303 20.552C151.873 20.361 151.367 20.2654 150.786 20.2654C150.001 20.2654 149.344 20.4953 148.813 20.9549C148.281 21.4145 148.016 21.9637 148.016 22.6023V34.97H142.856V16.33C142.982 16.305 143.134 16.2794 143.311 16.2538C143.463 16.2288 143.64 16.2095 143.842 16.1964C144.045 16.1839 144.285 16.1774 144.563 16.1774C145.372 16.1774 146.074 16.3354 146.669 16.6508C147.263 16.9658 147.637 17.4518 147.788 18.1077V18.1077ZM162.459 18.1077C162.611 17.8805 162.813 17.6279 163.066 17.3496C163.319 17.0716 163.629 16.8189 163.996 16.5916C164.362 16.3642 164.767 16.1743 165.21 16.0228C165.652 15.8711 166.127 15.7954 166.633 15.7954C166.936 15.7954 167.259 15.821 167.6 15.8711C167.942 15.9219 168.258 16.0168 168.549 16.1553C168.84 16.2945 169.073 16.4836 169.251 16.7236C169.428 16.9637 169.517 17.2603 169.517 17.6138C169.517 18.1695 169.377 18.8077 169.099 19.5282C168.82 20.2493 168.542 20.8642 168.264 21.3733C167.834 21.0168 167.404 20.743 166.974 20.552C166.544 20.361 166.038 20.2654 165.457 20.2654C164.673 20.2654 164.015 20.4953 163.484 20.9549C162.953 21.4145 162.687 21.9637 162.687 22.6023V34.97H157.527V16.33C157.653 16.305 157.805 16.2794 157.982 16.2538C158.134 16.2288 158.311 16.2095 158.513 16.1964C158.716 16.1839 158.956 16.1774 159.234 16.1774C160.044 16.1774 160.745 16.3354 161.34 16.6508C161.934 16.9658 162.307 17.4518 162.459 18.1077ZM187.084 29.9691C187.084 31.9813 187.375 33.4459 187.957 34.3628C187.501 34.5407 187.078 34.6682 186.686 34.7446C186.293 34.8212 185.882 34.8592 185.453 34.8592C184.542 34.8592 183.853 34.6809 183.385 34.3244C182.916 33.9682 182.619 33.4587 182.493 32.7962C181.937 33.3826 181.203 33.879 180.292 34.2866C179.382 34.6934 178.268 34.8977 176.954 34.8977C176.27 34.8977 175.588 34.8023 174.905 34.6125C174.222 34.4212 173.601 34.1107 173.045 33.6797C172.489 33.2477 172.034 32.67 171.679 31.9463C171.325 31.2227 171.148 30.3406 171.148 29.2998C171.148 28.005 171.458 26.951 172.078 26.139C172.697 25.3261 173.475 24.6852 174.412 24.2154C175.347 23.746 176.359 23.4229 177.447 23.2448C178.534 23.0668 179.534 22.9529 180.444 22.9015C180.748 22.8764 181.045 22.8633 181.336 22.8633H182.152V22.1679C182.152 21.1889 181.892 20.4934 181.374 20.0816C180.855 19.6696 180.014 19.4631 178.851 19.4631C177.763 19.4631 176.795 19.6416 175.948 19.9979C175.1 20.3549 174.272 20.762 173.463 21.2205C173.109 20.7877 172.824 20.3103 172.609 19.7878C172.394 19.2662 172.287 18.8776 172.287 18.6226C172.287 18.2663 172.482 17.9224 172.875 17.5911C173.267 17.2605 173.804 16.9607 174.487 16.6933C175.17 16.4258 175.954 16.2098 176.84 16.0438C177.725 15.8784 178.661 15.7955 179.647 15.7955C181.013 15.7955 182.171 15.9358 183.119 16.2158C184.068 16.4964 184.839 16.9291 185.434 17.5147C186.028 18.101 186.451 18.8328 186.705 19.7115C186.957 20.5902 187.084 21.6158 187.084 22.7869V29.9691V29.9691ZM182.227 25.5375H181.696C181.519 25.5375 181.342 25.5507 181.165 25.5759C180.533 25.6271 179.906 25.7034 179.287 25.8048C178.667 25.907 178.117 26.0853 177.636 26.3398C177.156 26.5947 176.764 26.926 176.46 27.333C176.157 27.7408 176.005 28.2632 176.005 28.8996C176.005 29.6128 176.207 30.2174 176.612 30.7142C177.016 31.2109 177.7 31.4593 178.661 31.4593C179.141 31.4593 179.597 31.396 180.027 31.268C180.457 31.1412 180.836 30.9755 181.165 30.7717C181.493 30.5679 181.753 30.3452 181.943 30.1028C182.133 29.8612 182.227 29.6385 182.227 29.4345V25.5375H182.227Z" fill="#80788E"/>
</svg>
