<svg width="38" height="38" viewBox="0 0 38 38" fill="none" xmlns="http://www.w3.org/2000/svg">
<path d="M3.04001 26.6C3.04001 26.3984 3.12008 26.2051 3.26261 26.0626C3.40514 25.92 3.59844 25.84 3.80001 25.84H31.16C31.3616 25.84 31.5549 25.92 31.6974 26.0626C31.8399 26.2051 31.92 26.3984 31.92 26.6C31.92 26.8015 31.8399 26.9949 31.6974 27.1374C31.5549 27.2799 31.3616 27.36 31.16 27.36H3.80001C3.59844 27.36 3.40514 27.2799 3.26261 27.1374C3.12008 26.9949 3.04001 26.8015 3.04001 26.6ZM31.16 30.4H3.80001C3.59844 30.4 3.40514 30.48 3.26261 30.6226C3.12008 30.7651 3.04001 30.9584 3.04001 31.16C3.04001 31.3615 3.12008 31.5549 3.26261 31.6974C3.40514 31.8399 3.59844 31.92 3.80001 31.92H31.16C31.3616 31.92 31.5549 31.8399 31.6974 31.6974C31.8399 31.5549 31.92 31.3615 31.92 31.16C31.92 30.9584 31.8399 30.7651 31.6974 30.6226C31.5549 30.48 31.3616 30.4 31.16 30.4ZM31.16 34.96H3.80001C3.59844 34.96 3.40514 35.04 3.26261 35.1826C3.12008 35.3251 3.04001 35.5184 3.04001 35.72C3.04001 35.9215 3.12008 36.1148 3.26261 36.2574C3.40514 36.3999 3.59844 36.48 3.80001 36.48H31.16C31.3616 36.48 31.5549 36.3999 31.6974 36.2574C31.8399 36.1148 31.92 35.9215 31.92 35.72C31.92 35.5184 31.8399 35.3251 31.6974 35.1826C31.5549 35.04 31.3616 34.96 31.16 34.96ZM11.9373 8.8973L16.72 4.11462V22.04C16.72 22.2415 16.8001 22.4349 16.9426 22.5774C17.0851 22.7199 17.2784 22.8 17.48 22.8C17.6816 22.8 17.8749 22.7199 18.0174 22.5774C18.1599 22.4349 18.24 22.2415 18.24 22.04V4.11462L23.0227 8.8973C23.0928 8.96989 23.1767 9.02779 23.2694 9.06762C23.3621 9.10745 23.4618 9.12841 23.5627 9.12929C23.6637 9.13017 23.7637 9.11094 23.8571 9.07272C23.9505 9.03451 24.0354 8.97808 24.1068 8.90672C24.1781 8.83536 24.2345 8.7505 24.2728 8.6571C24.311 8.5637 24.3302 8.46363 24.3293 8.36271C24.3284 8.2618 24.3075 8.16207 24.2676 8.06935C24.2278 7.97663 24.1699 7.89277 24.0973 7.82266L18.0173 1.74266C17.8748 1.60018 17.6815 1.52014 17.48 1.52014C17.2785 1.52014 17.0852 1.60018 16.9427 1.74266L10.8627 7.82266C10.7242 7.966 10.6476 8.15797 10.6494 8.35724C10.6511 8.55651 10.731 8.74713 10.8719 8.88804C11.0129 9.02895 11.2035 9.10888 11.4027 9.11061C11.602 9.11234 11.794 9.03574 11.9373 8.8973Z" fill="#7A51B8"/>
</svg>
