<svg viewBox="0 0 21 24" fill="none" xmlns="http://www.w3.org/2000/svg">
    <path d="M20.3438 3.09375C20.7656 3.5625 21 4.07812 21 4.6875V17.25C21 17.9062 20.7656 18.4219 20.3438 18.8438C19.875 19.3125 19.3594 19.5 18.75 19.5H15V21.75C15 22.4062 14.7656 22.9219 14.3438 23.3438C13.875 23.8125 13.3594 24 12.75 24H2.25C1.59375 24 1.07812 23.8125 0.65625 23.3438C0.1875 22.9219 0 22.4062 0 21.75V6.75C0 6.14062 0.1875 5.625 0.65625 5.15625C1.07812 4.73438 1.59375 4.5 2.25 4.5H6V2.25C6 1.64062 6.1875 1.125 6.65625 0.65625C7.07812 0.234375 7.59375 0 8.25 0H16.3125C16.9219 0 17.4375 0.234375 17.9062 0.65625L20.3438 3.09375ZM16.5 1.5V4.5H19.5C19.4062 4.40625 19.3594 4.26562 19.2656 4.17188L16.8281 1.73438C16.7344 1.64062 16.5938 1.59375 16.5 1.5ZM13.5 21.75V19.5H8.25C7.59375 19.5 7.07812 19.3125 6.65625 18.8438C6.1875 18.4219 6 17.9062 6 17.25V6H2.25C2.01562 6 1.82812 6.09375 1.6875 6.23438C1.54688 6.375 1.5 6.5625 1.5 6.75V21.75C1.5 21.9844 1.54688 22.1719 1.6875 22.3125C1.82812 22.4531 2.01562 22.5 2.25 22.5H12.75C12.9375 22.5 13.125 22.4531 13.2656 22.3125C13.4062 22.1719 13.5 21.9844 13.5 21.75ZM19.5 17.25V6H16.125C15.7969 6 15.5156 5.90625 15.3281 5.67188C15.0938 5.48438 15 5.20312 15 4.875V1.5H8.25C8.01562 1.5 7.82812 1.59375 7.6875 1.73438C7.54688 1.875 7.5 2.0625 7.5 2.25V17.25C7.5 17.4844 7.54688 17.6719 7.6875 17.8125C7.82812 17.9531 8.01562 18 8.25 18H18.75C18.9375 18 19.125 17.9531 19.2656 17.8125C19.4062 17.6719 19.5 17.4844 19.5 17.25Z" />
</svg>
