<svg width="161" height="45" viewBox="0 0 161 45" fill="none" xmlns="http://www.w3.org/2000/svg">
<path fill-rule="evenodd" clip-rule="evenodd" d="M34.3802 10.0834C33.9243 10.593 33.3879 11.1025 32.8248 11.6657L30.5989 13.7843H37.062V16.4124H26.6567V15.0447L30.2771 10.6734C30.9475 10.003 31.5107 9.41299 31.913 8.90346C32.3152 8.42074 32.798 7.83076 33.0125 7.45531C33.2807 7.02623 34.6484 5.71216 34.5143 4.07628C33.9243 2.25268 32.2348 2.09178 31.2425 2.22586C30.2235 2.25268 29.0435 3.62038 28.8558 4.80036C28.8558 4.80036 27.0054 4.53218 26.6031 4.34446C26.6299 3.83493 27.5149 1.60906 29.2312 0.616806C30.0626 0.24136 30.5989 0.0536385 31.5643 0.0536385C32.3152 0.0536385 32.9857 0.160907 33.6025 0.34863C34.2193 0.536354 34.7288 0.831347 35.1579 1.20679C35.587 1.58224 36.3111 2.03814 36.5256 2.60131C36.8742 3.32539 37.1424 4.07628 37.1424 4.82717C37.2229 6.48987 35.8015 8.12574 35.5334 8.55482C35.2115 9.09118 34.8361 9.60072 34.3802 10.0834ZM22.3123 45C9.97616 45 0 34.997 0 22.6877C0 10.3516 10.003 0.375449 22.3123 0.375449V8.25984C14.3474 8.25984 7.88438 14.7229 7.88438 22.6877C7.88438 30.6526 14.3474 37.1424 22.3123 37.1424C28.6412 37.1424 34.0047 33.0662 35.9624 27.4076C32.1007 27.4076 26.6299 27.3808 26.6299 27.3808V19.121C26.6299 19.121 43.4982 19.121 44.3564 19.121C44.5441 20.2741 44.6513 21.4809 44.6513 22.6877C44.6245 35.0238 34.6484 45 22.3123 45ZM52.1335 0H53.6353V44.6245H52.1335V0ZM73.9362 32.9589C72.6489 33.7366 71.0399 34.1389 69.1627 34.1389C67.205 34.1389 65.5691 33.817 64.3087 33.1466C63.0214 32.4762 62.1901 31.5644 61.761 30.3844C61.3587 29.2044 61.1442 27.4344 61.1442 25.0745V18.0215C61.1442 16.2783 61.1978 14.9911 61.3319 14.1061C61.466 13.2479 61.8414 12.3898 62.4851 11.5852C63.1287 10.7807 63.9869 10.1371 65.1132 9.68117C66.2395 9.22527 67.5268 8.98391 68.9749 8.98391C70.9594 8.98391 72.5953 9.33254 73.8826 10.0566C75.1698 10.7807 76.0012 11.6657 76.4302 12.7384C76.8325 13.8111 76.9129 13.4893 76.9129 15.742V17.6192L71.4422 17.5387V15.9029C71.4422 14.6693 71.3081 13.8915 71.0131 13.5697C70.7181 13.2747 70.1013 13.1138 69.1627 13.1138C68.0631 13.1138 67.3927 13.3015 67.0977 13.677C66.8027 14.0524 66.6686 14.857 66.6686 16.0906V27.1126C66.6686 28.2926 66.8027 29.0703 67.0977 29.4458C67.3927 29.8212 68.0363 29.9821 69.0822 29.9821C70.0745 29.9821 70.6913 29.7944 71.0131 29.4458C71.3081 29.0703 71.469 28.5876 71.469 27.2467L71.4422 25.5036H76.9398V25.879C76.9398 28.3731 76.8593 29.1776 76.4839 30.1967C76.0548 31.2425 75.2234 32.1812 73.9362 32.9589ZM89.5709 15.3665C89.5709 14.6156 89.1954 13.7306 88.4713 13.4893C87.7473 13.2479 86.8087 13.1406 84.8778 13.1406V19.9791C86.755 19.9791 87.6936 19.8719 88.4177 19.6841C89.1686 19.4964 89.5441 17.7533 89.5441 16.6806V15.3665H89.5709ZM89.5709 26.174C89.5709 24.8868 89.3027 24.1091 88.7663 23.7872C88.23 23.4923 87.1841 23.3313 84.9046 23.3313V33.7634H79.5143L79.5947 9.52026H84.4487C87.6936 9.52026 89.8927 9.62754 91.0458 9.8689C92.199 10.1103 93.1376 10.6734 93.8617 11.612C94.5858 12.5507 94.9612 14.0524 94.9612 16.1174C94.9612 17.9946 94.6394 19.6842 94.1567 20.3278C93.6472 20.9714 92.6549 21.3737 91.1799 21.5077C92.5208 21.8296 93.4326 22.2318 93.8885 22.7414C94.3444 23.2509 94.6394 23.7336 94.7467 24.1627C94.8539 24.5918 94.988 25.3159 94.988 27.2735V33.6293L89.6245 33.7634V26.174H89.5709ZM108.772 15.742C108.772 14.6156 108.585 13.9184 108.236 13.5965C107.887 13.2747 107.136 13.1406 106.037 13.1406C105.098 13.1406 104.374 13.2747 103.865 13.5161C103.355 13.7574 103.114 14.5083 103.114 15.742V26.9517C103.114 28.3462 103.275 29.2044 103.596 29.5262C103.918 29.848 104.696 30.0089 105.876 30.0089C107.11 30.0089 107.887 29.8212 108.236 29.4458C108.585 29.0703 108.745 28.1853 108.745 26.764V15.742H108.772ZM112.983 31.5375C112.312 32.3689 111.374 33.0125 110.22 33.4684C109.067 33.9243 107.7 34.1389 106.144 34.1389C104.669 34.1389 103.355 33.9243 102.175 33.4952C100.995 33.0661 100.057 32.4493 99.3593 31.5912C98.6352 30.7598 98.233 29.8212 98.0989 28.829C97.9648 27.8367 97.8843 26.0936 97.8843 23.5995V19.4696C97.8843 17.056 97.938 15.3397 98.0721 14.3206C98.2061 13.3015 98.6084 12.3898 99.3057 11.5584C100.003 10.7271 100.915 10.0834 102.068 9.62753C103.221 9.17163 104.589 8.95709 106.144 8.95709C107.619 8.95709 108.933 9.17164 110.113 9.60072C111.293 10.0298 112.232 10.6466 112.929 11.5048C113.626 12.3361 114.055 13.2747 114.189 14.267C114.324 15.2592 114.404 17.0024 114.404 19.4696V23.6263C114.404 26.0399 114.35 27.7563 114.216 28.7753C114.082 29.7944 113.68 30.7062 112.983 31.5375ZM132.989 33.6293C132.211 29.9285 130.387 20.8373 129.77 16.0906C129.502 18.1287 127.357 27.2199 126.365 33.6293H120.465L115.879 9.49344H121.055L122.53 17.9142L123.602 27.9172C123.844 23.7068 125.989 16.3051 127.008 9.49344H133.015C133.096 10.1907 134.115 12.8456 134.517 17.4583L136.019 27.7563C136.421 21.91 137.789 15.0715 138.701 9.49344H143.501L138.567 33.6293H132.989V33.6293ZM155.65 16.466C155.65 15.3933 155.569 14.6961 155.408 14.3743C155.247 14.0793 154.845 13.8379 154.228 13.7038C153.611 13.5697 152.485 13.4893 150.796 13.4893V29.6067C153.021 29.6067 154.362 29.4189 154.899 29.0703C155.408 28.7217 155.676 27.7294 155.676 26.1204V16.466H155.65ZM160.557 30.8135C160.343 31.5375 159.94 32.1275 159.377 32.5298C158.814 32.9321 158.144 33.2271 157.312 33.388C156.508 33.5489 155.65 33.6293 153.987 33.6293H145.325V9.49344H150.474C153.799 9.49344 155.676 9.62753 156.829 9.92253C158.009 10.1907 158.894 10.6466 159.511 11.2902C160.128 11.9339 160.503 12.6311 160.664 13.4088C160.825 14.1865 160.879 15.7151 160.879 17.9946V26.4422C160.906 28.6144 160.798 30.0626 160.557 30.8135Z" fill="#80788E"/>
</svg>
