<svg width="38" height="38" viewBox="0 0 38 38" fill="none" xmlns="http://www.w3.org/2000/svg">
<path d="M28.12 4.56H9.88C9.27531 4.56 8.69538 4.80021 8.2678 5.2278C7.84021 5.65538 7.6 6.23531 7.6 6.84V31.16C7.6 31.7647 7.84021 32.3446 8.2678 32.7722C8.69538 33.1998 9.27531 33.44 9.88 33.44H28.12C28.7247 33.44 29.3046 33.1998 29.7322 32.7722C30.1598 32.3446 30.4 31.7647 30.4 31.16V6.84C30.4 6.23531 30.1598 5.65538 29.7322 5.2278C29.3046 4.80021 28.7247 4.56 28.12 4.56ZM28.88 31.16C28.88 31.3616 28.7999 31.5549 28.6574 31.6974C28.5149 31.8399 28.3216 31.92 28.12 31.92H9.88C9.67844 31.92 9.48513 31.8399 9.3426 31.6974C9.20007 31.5549 9.12 31.3616 9.12 31.16V6.84C9.12 6.63844 9.20007 6.44513 9.3426 6.3026C9.48513 6.16007 9.67844 6.08 9.88 6.08H28.12C28.3216 6.08 28.5149 6.16007 28.6574 6.3026C28.7999 6.44513 28.88 6.63844 28.88 6.84V31.16ZM12.16 12.92C12.16 12.7184 12.2401 12.5251 12.3826 12.3826C12.5251 12.2401 12.7184 12.16 12.92 12.16H19C19.2016 12.16 19.3949 12.2401 19.5374 12.3826C19.6799 12.5251 19.76 12.7184 19.76 12.92C19.76 13.1216 19.6799 13.3149 19.5374 13.4574C19.3949 13.5999 19.2016 13.68 19 13.68H12.92C12.7184 13.68 12.5251 13.5999 12.3826 13.4574C12.2401 13.3149 12.16 13.1216 12.16 12.92ZM25.84 19C25.84 19.2016 25.7599 19.3949 25.6174 19.5374C25.4749 19.6799 25.2816 19.76 25.08 19.76H12.92C12.7184 19.76 12.5251 19.6799 12.3826 19.5374C12.2401 19.3949 12.16 19.2016 12.16 19C12.16 18.7984 12.2401 18.6051 12.3826 18.4626C12.5251 18.3201 12.7184 18.24 12.92 18.24H25.08C25.2816 18.24 25.4749 18.3201 25.6174 18.4626C25.7599 18.6051 25.84 18.7984 25.84 19ZM25.84 25.08C25.84 25.2816 25.7599 25.4749 25.6174 25.6174C25.4749 25.7599 25.2816 25.84 25.08 25.84H12.92C12.7184 25.84 12.5251 25.7599 12.3826 25.6174C12.2401 25.4749 12.16 25.2816 12.16 25.08C12.16 24.8784 12.2401 24.6851 12.3826 24.5426C12.5251 24.4001 12.7184 24.32 12.92 24.32H25.08C25.2816 24.32 25.4749 24.4001 25.6174 24.5426C25.7599 24.6851 25.84 24.8784 25.84 25.08ZM4.56 0.76V3.8C4.56 4.00156 4.47993 4.19487 4.3374 4.3374C4.19487 4.47993 4.00156 4.56 3.8 4.56H0.76C0.558435 4.56 0.365126 4.47993 0.222599 4.3374C0.0800712 4.19487 0 4.00156 0 3.8C0 3.59844 0.0800712 3.40513 0.222599 3.2626C0.365126 3.12007 0.558435 3.04 0.76 3.04H3.04V0.76C3.04 0.558435 3.12007 0.365126 3.2626 0.222599C3.40513 0.0800712 3.59844 0 3.8 0C4.00156 0 4.19487 0.0800712 4.3374 0.222599C4.47993 0.365126 4.56 0.558435 4.56 0.76ZM4.56 34.2V37.24C4.56 37.4416 4.47993 37.6349 4.3374 37.7774C4.19487 37.9199 4.00156 38 3.8 38C3.59844 38 3.40513 37.9199 3.2626 37.7774C3.12007 37.6349 3.04 37.4416 3.04 37.24V34.96H0.76C0.558435 34.96 0.365126 34.8799 0.222599 34.7374C0.0800712 34.5949 0 34.4016 0 34.2C0 33.9984 0.0800712 33.8051 0.222599 33.6626C0.365126 33.5201 0.558435 33.44 0.76 33.44H3.8C4.00156 33.44 4.19487 33.5201 4.3374 33.6626C4.47993 33.8051 4.56 33.9984 4.56 34.2ZM33.44 3.8V0.76C33.44 0.558435 33.5201 0.365126 33.6626 0.222599C33.8051 0.0800712 33.9984 0 34.2 0C34.4016 0 34.5949 0.0800712 34.7374 0.222599C34.8799 0.365126 34.96 0.558435 34.96 0.76V3.04H37.24C37.4416 3.04 37.6349 3.12007 37.7774 3.2626C37.9199 3.40513 38 3.59844 38 3.8C38 4.00156 37.9199 4.19487 37.7774 4.3374C37.6349 4.47993 37.4416 4.56 37.24 4.56H34.2C33.9984 4.56 33.8051 4.47993 33.6626 4.3374C33.5201 4.19487 33.44 4.00156 33.44 3.8ZM38 34.2C38 34.4016 37.9199 34.5949 37.7774 34.7374C37.6349 34.8799 37.4416 34.96 37.24 34.96H34.96V37.24C34.96 37.4416 34.8799 37.6349 34.7374 37.7774C34.5949 37.9199 34.4016 38 34.2 38C33.9984 38 33.8051 37.9199 33.6626 37.7774C33.5201 37.6349 33.44 37.4416 33.44 37.24V34.2C33.44 33.9984 33.5201 33.8051 33.6626 33.6626C33.8051 33.5201 33.9984 33.44 34.2 33.44H37.24C37.4416 33.44 37.6349 33.5201 37.7774 33.6626C37.9199 33.8051 38 33.9984 38 34.2Z" fill="#7A51B8"/>
</svg>
