<svg width="94" height="122" viewBox="0 0 94 122" fill="none" xmlns="http://www.w3.org/2000/svg">
<path d="M8.10001 89.8999L47.6 110L85.6 89.8999V11.2999H8.10001V89.8999Z" fill="white"/>
<path d="M86.4 11.6L7.29999 91.3L48.3 111.6L86.4 92.1V11.6Z" fill="#F2F3F2"/>
<path d="M5.5 37.5V91.6L6.9 92.3L46.4 112.4L47.6 113L48.8 112.4L86.9 92.3L88.3 91.6V8.69995H5.5V37.5ZM8.1 90.1V11.3H85.7V90.1L47.6 110.2L8.1 90.1Z" fill="#DCDEDC"/>
<path d="M46.9 12.6C47.3 12.6 47.7 12.6 48.1 12.7L46.9 15C45.1 14.9 43.5 16.3 43.4 18.1C43.3 19.9 44.7 21.5 46.5 21.6H46.9C47.7 21.6 48.5 21.3 49.1 20.8L50.4 23C49.4 23.7 48.2 24.1 46.9 24.1C43.7 24.2 41 21.8 40.9 18.6C40.8 15.4 43.2 12.7 46.4 12.6H46.9ZM51 17.5L52.5 20L51 22.4L49.6 20H46.7L48.2 17.5H51ZM48.6 16.6C48.6 16.2 48.7 15.8 48.9 15.5C49.1 15.2 49.5 14.9 49.8 14.7L50 14.6C50.4 14.4 50.5 14.3 50.5 14.1C50.5 13.9 50.2 13.7 50 13.7C49.6 13.7 49.3 13.9 49.1 14.3L48.6 13.8C48.7 13.6 48.9 13.4 49.1 13.2C49.4 13 49.7 13 50 13C50.3 13 50.7 13.1 50.9 13.3C51.1 13.5 51.3 13.8 51.3 14.1C51.3 14.6 51 15 50.4 15.2L50.1 15.4C49.8 15.6 49.6 15.7 49.5 16H51.3V16.7L48.6 16.6ZM46.9 29.1L56.4 23.7V8.69995H37.3V23.6L46.9 29.1Z" fill="#7A51B8"/>
<path d="M90.2 64.5H3.59999L0.399994 71.5L3.59999 78.5H90.2L93.3 71.5L90.2 64.5Z" fill="#7A51B8"/>
<path d="M16.87 49.49C17.53 49.49 18.11 49.6233 18.61 49.89C19.11 50.1567 19.4967 50.54 19.77 51.04C20.0433 51.5333 20.18 52.1 20.18 52.74C20.18 53.3733 20.04 53.93 19.76 54.41C19.4733 54.8833 19.0733 55.2533 18.56 55.52C18.0467 55.7867 17.4533 55.92 16.78 55.92H14.65C14.6033 55.92 14.58 55.9467 14.58 56V59.82C14.58 59.8733 14.56 59.9167 14.52 59.95C14.4867 59.9833 14.4433 60 14.39 60H12.64C12.5867 60 12.5433 59.9833 12.51 59.95C12.4767 59.9167 12.46 59.8733 12.46 59.82V49.67C12.46 49.6167 12.4767 49.5733 12.51 49.54C12.5433 49.5067 12.5867 49.49 12.64 49.49H16.87ZM16.55 54.23C17.0167 54.23 17.3867 54.0967 17.66 53.83C17.94 53.5633 18.08 53.2167 18.08 52.79C18.08 52.3433 17.94 51.9867 17.66 51.72C17.3867 51.4467 17.0167 51.31 16.55 51.31H14.65C14.6033 51.31 14.58 51.3367 14.58 51.39V54.15C14.58 54.2033 14.6033 54.23 14.65 54.23H16.55ZM28.18 55.35C28.24 55.73 28.26 56.1533 28.24 56.62C28.2333 56.7467 28.17 56.81 28.05 56.81H23.41C23.35 56.81 23.33 56.8333 23.35 56.88C23.3833 57.08 23.4367 57.28 23.51 57.48C23.7767 58.04 24.3067 58.32 25.1 58.32C25.7467 58.3133 26.2533 58.0533 26.62 57.54C26.66 57.48 26.7033 57.45 26.75 57.45C26.7833 57.45 26.82 57.47 26.86 57.51L27.94 58.57C27.9867 58.6233 28.01 58.67 28.01 58.71C28.01 58.73 27.9933 58.77 27.96 58.83C27.6267 59.2433 27.2 59.56 26.68 59.78C26.16 60.0067 25.59 60.12 24.97 60.12C24.11 60.12 23.3833 59.9267 22.79 59.54C22.1967 59.1467 21.7667 58.6 21.5 57.9C21.2933 57.4 21.19 56.7467 21.19 55.94C21.19 55.3867 21.2633 54.9 21.41 54.48C21.6433 53.7733 22.0467 53.21 22.62 52.79C23.2 52.37 23.8833 52.16 24.67 52.16C25.67 52.16 26.4733 52.45 27.08 53.03C27.6867 53.61 28.0533 54.3833 28.18 55.35ZM24.68 53.99C24.0533 53.99 23.64 54.2833 23.44 54.87C23.4 55.0033 23.3633 55.1633 23.33 55.35C23.33 55.3967 23.3567 55.42 23.41 55.42H26C26.06 55.42 26.0833 55.3967 26.07 55.35C26.0167 55.0633 25.99 54.9233 25.99 54.93C25.8967 54.63 25.74 54.3967 25.52 54.23C25.2933 54.07 25.0133 53.99 24.68 53.99ZM33.39 52.19C33.7433 52.19 34.0267 52.26 34.24 52.4C34.32 52.44 34.35 52.5133 34.33 52.62L34.01 54.33C34.0033 54.45 33.9333 54.4867 33.8 54.44C33.6533 54.3867 33.48 54.36 33.28 54.36C33.2 54.36 33.09 54.37 32.95 54.39C32.59 54.4233 32.2833 54.5567 32.03 54.79C31.7833 55.0233 31.66 55.3367 31.66 55.73V59.82C31.66 59.8733 31.6433 59.9167 31.61 59.95C31.57 59.9833 31.5267 60 31.48 60H29.73C29.6767 60 29.6333 59.9833 29.6 59.95C29.5667 59.9167 29.55 59.8733 29.55 59.82V52.47C29.55 52.4233 29.5667 52.38 29.6 52.34C29.6333 52.3067 29.6767 52.29 29.73 52.29H31.48C31.5267 52.29 31.57 52.3067 31.61 52.34C31.6433 52.38 31.66 52.4233 31.66 52.47V53.04C31.66 53.0667 31.67 53.0867 31.69 53.1C31.71 53.1133 31.7233 53.1067 31.73 53.08C32.1433 52.4867 32.6967 52.19 33.39 52.19ZM39.69 52.28C39.7367 52.28 39.7767 52.2967 39.81 52.33C39.85 52.3633 39.87 52.4067 39.87 52.46V53.88C39.87 53.9333 39.85 53.9767 39.81 54.01C39.7767 54.0433 39.7367 54.06 39.69 54.06H38.23C38.1833 54.06 38.16 54.0833 38.16 54.13V59.82C38.16 59.8733 38.14 59.9167 38.1 59.95C38.0667 59.9833 38.0267 60 37.98 60H36.22C36.1733 60 36.13 59.9833 36.09 59.95C36.0567 59.9167 36.04 59.8733 36.04 59.82V54.13C36.04 54.0833 36.0133 54.06 35.96 54.06H35.08C35.0333 54.06 34.99 54.0433 34.95 54.01C34.9167 53.9767 34.9 53.9333 34.9 53.88V52.46C34.9 52.4067 34.9167 52.3633 34.95 52.33C34.99 52.2967 35.0333 52.28 35.08 52.28H35.96C36.0133 52.28 36.04 52.2533 36.04 52.2V51.87C36.04 51.25 36.1367 50.7667 36.33 50.42C36.5167 50.08 36.8233 49.8367 37.25 49.69C37.6767 49.5433 38.2633 49.48 39.01 49.5H39.58C39.6333 49.5 39.6767 49.5167 39.71 49.55C39.7433 49.59 39.76 49.6333 39.76 49.68V50.89C39.76 50.9433 39.7433 50.9867 39.71 51.02C39.6767 51.06 39.6333 51.08 39.58 51.08H39.08C38.7333 51.0867 38.4933 51.1567 38.36 51.29C38.2267 51.43 38.16 51.68 38.16 52.04V52.2C38.16 52.2533 38.1833 52.28 38.23 52.28H39.69ZM44.5 60.12C43.66 60.12 42.94 59.9 42.34 59.46C41.74 59.02 41.33 58.42 41.11 57.66C40.97 57.1933 40.9 56.6833 40.9 56.13C40.9 55.5433 40.97 55.0133 41.11 54.54C41.3433 53.8 41.7567 53.22 42.35 52.8C42.9567 52.38 43.68 52.17 44.52 52.17C45.34 52.17 46.0367 52.3767 46.61 52.79C47.1967 53.21 47.61 53.79 47.85 54.53C48.01 55.03 48.09 55.5533 48.09 56.1C48.09 56.64 48.02 57.1467 47.88 57.62C47.6533 58.4 47.2433 59.01 46.65 59.45C46.0567 59.8967 45.34 60.12 44.5 60.12ZM44.5 58.31C44.8333 58.31 45.1133 58.21 45.34 58.01C45.5667 57.81 45.7333 57.5333 45.84 57.18C45.92 56.86 45.96 56.51 45.96 56.13C45.96 55.71 45.92 55.3567 45.84 55.07C45.7267 54.73 45.5533 54.4633 45.32 54.27C45.0933 54.0833 44.8167 53.99 44.49 53.99C44.1433 53.99 43.86 54.0833 43.64 54.27C43.4133 54.4633 43.25 54.73 43.15 55.07C43.07 55.3033 43.03 55.6567 43.03 56.13C43.03 56.5833 43.0667 56.9333 43.14 57.18C43.2333 57.5333 43.4 57.81 43.64 58.01C43.8733 58.21 44.16 58.31 44.5 58.31ZM53.29 52.19C53.65 52.19 53.9333 52.26 54.14 52.4C54.22 52.44 54.25 52.5133 54.23 52.62L53.92 54.33C53.9067 54.45 53.8367 54.4867 53.71 54.44C53.5567 54.3867 53.38 54.36 53.18 54.36C53.1 54.36 52.99 54.37 52.85 54.39C52.4967 54.4233 52.1933 54.5567 51.94 54.79C51.6933 55.0233 51.57 55.3367 51.57 55.73V59.82C51.57 59.8733 51.55 59.9167 51.51 59.95C51.4767 59.9833 51.4367 60 51.39 60H49.63C49.5767 60 49.5333 59.9833 49.5 59.95C49.4667 59.9167 49.45 59.8733 49.45 59.82V52.47C49.45 52.4233 49.4667 52.38 49.5 52.34C49.5333 52.3067 49.5767 52.29 49.63 52.29H51.39C51.4367 52.29 51.4767 52.3067 51.51 52.34C51.55 52.38 51.57 52.4233 51.57 52.47V53.04C51.57 53.0667 51.5767 53.0867 51.59 53.1C51.61 53.1133 51.6267 53.1067 51.64 53.08C52.0467 52.4867 52.5967 52.19 53.29 52.19ZM63.74 52.17C64.52 52.17 65.13 52.4033 65.57 52.87C66.01 53.3433 66.23 54.0067 66.23 54.86V59.82C66.23 59.8733 66.2133 59.9167 66.18 59.95C66.1467 59.9833 66.1033 60 66.05 60H64.3C64.2467 60 64.2033 59.9833 64.17 59.95C64.1367 59.9167 64.12 59.8733 64.12 59.82V55.32C64.12 54.9133 64.0133 54.59 63.8 54.35C63.5933 54.11 63.3133 53.99 62.96 53.99C62.6133 53.99 62.33 54.11 62.11 54.35C61.89 54.59 61.78 54.91 61.78 55.31V59.82C61.78 59.8733 61.7633 59.9167 61.73 59.95C61.69 59.9833 61.6467 60 61.6 60H59.86C59.8067 60 59.7633 59.9833 59.73 59.95C59.6967 59.9167 59.68 59.8733 59.68 59.82V55.32C59.68 54.92 59.57 54.5967 59.35 54.35C59.13 54.11 58.8433 53.99 58.49 53.99C58.17 53.99 57.9033 54.0833 57.69 54.27C57.4767 54.4633 57.35 54.73 57.31 55.07V59.82C57.31 59.8733 57.2933 59.9167 57.26 59.95C57.22 59.9833 57.1767 60 57.13 60H55.37C55.3233 60 55.2833 59.9833 55.25 59.95C55.21 59.9167 55.19 59.8733 55.19 59.82V52.47C55.19 52.4233 55.21 52.38 55.25 52.34C55.2833 52.3067 55.3233 52.29 55.37 52.29H57.13C57.1767 52.29 57.22 52.3067 57.26 52.34C57.2933 52.38 57.31 52.4233 57.31 52.47V53.06C57.31 53.0867 57.32 53.1067 57.34 53.12C57.36 53.1267 57.38 53.1133 57.4 53.08C57.8067 52.4733 58.44 52.17 59.3 52.17C59.8 52.17 60.24 52.2767 60.62 52.49C60.9933 52.6967 61.28 52.9967 61.48 53.39C61.5067 53.45 61.54 53.45 61.58 53.39C61.8 52.9767 62.1 52.67 62.48 52.47C62.8533 52.27 63.2733 52.17 63.74 52.17ZM74.54 55.35C74.6 55.73 74.62 56.1533 74.6 56.62C74.5933 56.7467 74.53 56.81 74.41 56.81H69.77C69.71 56.81 69.69 56.8333 69.71 56.88C69.7433 57.08 69.8 57.28 69.88 57.48C70.14 58.04 70.67 58.32 71.47 58.32C72.11 58.3133 72.6133 58.0533 72.98 57.54C73.02 57.48 73.0667 57.45 73.12 57.45C73.1467 57.45 73.18 57.47 73.22 57.51L74.3 58.57C74.3533 58.6233 74.38 58.67 74.38 58.71C74.38 58.73 74.36 58.77 74.32 58.83C73.9867 59.2433 73.56 59.56 73.04 59.78C72.52 60.0067 71.95 60.12 71.33 60.12C70.47 60.12 69.7433 59.9267 69.15 59.54C68.5567 59.1467 68.13 58.6 67.87 57.9C67.6567 57.4 67.55 56.7467 67.55 55.94C67.55 55.3867 67.6267 54.9 67.78 54.48C68.0067 53.7733 68.41 53.21 68.99 52.79C69.5633 52.37 70.2433 52.16 71.03 52.16C72.03 52.16 72.8333 52.45 73.44 53.03C74.0467 53.61 74.4133 54.3833 74.54 55.35ZM71.05 53.99C70.4167 53.99 70 54.2833 69.8 54.87C69.76 55.0033 69.7267 55.1633 69.7 55.35C69.7 55.3967 69.7233 55.42 69.77 55.42H72.37C72.43 55.42 72.45 55.3967 72.43 55.35C72.3767 55.0633 72.35 54.9233 72.35 54.93C72.2633 54.63 72.1067 54.3967 71.88 54.23C71.6533 54.07 71.3767 53.99 71.05 53.99ZM79.75 52.19C80.11 52.19 80.3933 52.26 80.6 52.4C80.68 52.44 80.71 52.5133 80.69 52.62L80.38 54.33C80.3667 54.45 80.2967 54.4867 80.17 54.44C80.0167 54.3867 79.84 54.36 79.64 54.36C79.56 54.36 79.45 54.37 79.31 54.39C78.95 54.4233 78.6467 54.5567 78.4 54.79C78.1467 55.0233 78.02 55.3367 78.02 55.73V59.82C78.02 59.8733 78.0033 59.9167 77.97 59.95C77.9367 59.9833 77.8933 60 77.84 60H76.09C76.0367 60 75.9933 59.9833 75.96 59.95C75.9267 59.9167 75.91 59.8733 75.91 59.82V52.47C75.91 52.4233 75.9267 52.38 75.96 52.34C75.9933 52.3067 76.0367 52.29 76.09 52.29H77.84C77.8933 52.29 77.9367 52.3067 77.97 52.34C78.0033 52.38 78.02 52.4233 78.02 52.47V53.04C78.02 53.0667 78.03 53.0867 78.05 53.1C78.07 53.1133 78.0867 53.1067 78.1 53.08C78.5067 52.4867 79.0567 52.19 79.75 52.19Z" fill="#252530"/>
<path d="M38.06 34.6799C38.06 34.6333 38.0767 34.5899 38.11 34.5499C38.1433 34.5166 38.1833 34.4999 38.23 34.4999H39.99C40.0367 34.4999 40.08 34.5166 40.12 34.5499C40.1533 34.5899 40.17 34.6333 40.17 34.6799V44.8199C40.17 44.8733 40.1533 44.9166 40.12 44.9499C40.08 44.9833 40.0367 44.9999 39.99 44.9999H38.23C38.1833 44.9999 38.1433 44.9833 38.11 44.9499C38.0767 44.9166 38.06 44.8733 38.06 44.8199V40.6799C38.06 40.6333 38.0333 40.6099 37.98 40.6099H34.66C34.6133 40.6099 34.59 40.6333 34.59 40.6799V44.8199C34.59 44.8733 34.5733 44.9166 34.54 44.9499C34.5 44.9833 34.4567 44.9999 34.41 44.9999H32.65C32.6033 44.9999 32.5633 44.9833 32.53 44.9499C32.49 44.9166 32.47 44.8733 32.47 44.8199V34.6799C32.47 34.6333 32.49 34.5899 32.53 34.5499C32.5633 34.5166 32.6033 34.4999 32.65 34.4999H34.41C34.4567 34.4999 34.5 34.5166 34.54 34.5499C34.5733 34.5899 34.59 34.6333 34.59 34.6799V38.7099C34.59 38.7633 34.6133 38.7899 34.66 38.7899H37.98C38.0333 38.7899 38.06 38.7633 38.06 38.7099V34.6799ZM42.9 36.4199C42.56 36.4199 42.2767 36.3066 42.05 36.0799C41.8233 35.8599 41.71 35.5799 41.71 35.2399C41.71 34.8866 41.82 34.5999 42.04 34.3799C42.26 34.1599 42.5467 34.0499 42.9 34.0499C43.2533 34.0499 43.54 34.1599 43.76 34.3799C43.98 34.5999 44.09 34.8866 44.09 35.2399C44.09 35.5799 43.9767 35.8599 43.75 36.0799C43.5233 36.3066 43.24 36.4199 42.9 36.4199ZM42 44.9999C41.9533 44.9999 41.91 44.9833 41.87 44.9499C41.8367 44.9166 41.82 44.8733 41.82 44.8199V37.4599C41.82 37.4066 41.8367 37.3633 41.87 37.3299C41.91 37.2966 41.9533 37.2799 42 37.2799H43.76C43.8067 37.2799 43.8467 37.2966 43.88 37.3299C43.92 37.3633 43.94 37.4066 43.94 37.4599V44.8199C43.94 44.8733 43.92 44.9166 43.88 44.9499C43.8467 44.9833 43.8067 44.9999 43.76 44.9999H42ZM50.29 37.4699C50.29 37.4233 50.31 37.3799 50.35 37.3399C50.3833 37.3066 50.4233 37.2899 50.47 37.2899H52.23C52.2767 37.2899 52.32 37.3066 52.36 37.3399C52.3933 37.3799 52.41 37.4233 52.41 37.4699V44.3099C52.41 45.6166 52.0333 46.5499 51.28 47.1099C50.5267 47.6766 49.5533 47.9599 48.36 47.9599C48.0067 47.9599 47.6167 47.9333 47.19 47.8799C47.09 47.8666 47.04 47.8033 47.04 47.6899L47.1 46.1399C47.1 46.0066 47.17 45.9499 47.31 45.9699C47.67 46.0299 48 46.0599 48.3 46.0599C48.94 46.0599 49.4333 45.9233 49.78 45.6499C50.12 45.3633 50.29 44.9133 50.29 44.2999C50.29 44.2666 50.28 44.2466 50.26 44.2399C50.24 44.2333 50.22 44.2433 50.2 44.2699C49.82 44.6766 49.2667 44.8799 48.54 44.8799C47.8867 44.8799 47.29 44.7233 46.75 44.4099C46.2033 44.0966 45.8133 43.5899 45.58 42.8899C45.4333 42.4299 45.36 41.8333 45.36 41.0999C45.36 40.3199 45.45 39.6866 45.63 39.1999C45.8367 38.5866 46.19 38.0966 46.69 37.7299C47.19 37.3566 47.7733 37.1699 48.44 37.1699C49.2067 37.1699 49.7933 37.3999 50.2 37.8599C50.22 37.8799 50.24 37.8866 50.26 37.8799C50.28 37.8733 50.29 37.8566 50.29 37.8299V37.4699ZM50.17 42.3099C50.25 42.0166 50.29 41.6066 50.29 41.0799C50.29 40.7733 50.28 40.5366 50.26 40.3699C50.24 40.1966 50.2067 40.0333 50.16 39.8799C50.0667 39.6133 49.9167 39.3966 49.71 39.2299C49.5033 39.0699 49.2433 38.9899 48.93 38.9899C48.63 38.9899 48.3767 39.0699 48.17 39.2299C47.9567 39.3966 47.8 39.6133 47.7 39.8799C47.56 40.1799 47.49 40.5866 47.49 41.0999C47.49 41.6599 47.55 42.0599 47.67 42.2999C47.7567 42.5733 47.9133 42.7899 48.14 42.9499C48.3667 43.1166 48.6333 43.1999 48.94 43.1999C49.26 43.1999 49.5267 43.1166 49.74 42.9499C49.9467 42.7899 50.09 42.5766 50.17 42.3099ZM57.95 37.1699C58.75 37.1699 59.3933 37.4166 59.88 37.9099C60.3667 38.3966 60.61 39.0599 60.61 39.8999V44.8199C60.61 44.8733 60.5933 44.9166 60.56 44.9499C60.5267 44.9833 60.4867 44.9999 60.44 44.9999H58.68C58.6333 44.9999 58.59 44.9833 58.55 44.9499C58.5167 44.9166 58.5 44.8733 58.5 44.8199V40.3299C58.5 39.9366 58.3867 39.6133 58.16 39.3599C57.94 39.1133 57.6433 38.9899 57.27 38.9899C56.9033 38.9899 56.6067 39.1133 56.38 39.3599C56.1533 39.6133 56.04 39.9366 56.04 40.3299V44.8199C56.04 44.8733 56.0233 44.9166 55.99 44.9499C55.9567 44.9833 55.9133 44.9999 55.86 44.9999H54.11C54.0567 44.9999 54.0133 44.9833 53.98 44.9499C53.9467 44.9166 53.93 44.8733 53.93 44.8199V34.6799C53.93 34.6333 53.9467 34.5899 53.98 34.5499C54.0133 34.5166 54.0567 34.4999 54.11 34.4999H55.86C55.9133 34.4999 55.9567 34.5166 55.99 34.5499C56.0233 34.5899 56.04 34.6333 56.04 34.6799V37.9999C56.04 38.0266 56.05 38.0466 56.07 38.0599C56.09 38.0666 56.1033 38.0599 56.11 38.0399C56.5233 37.4599 57.1367 37.1699 57.95 37.1699Z" fill="#252530"/>
<path d="M30.46 75.4799C29.94 75.4799 29.4867 75.3966 29.1 75.2299C28.7133 75.0633 28.4133 74.8299 28.2 74.5299C27.9933 74.2299 27.89 73.8766 27.89 73.4699V73.2199C27.89 73.1866 27.9033 73.1566 27.93 73.1299C27.95 73.1099 27.9767 73.0999 28.01 73.0999H28.9C28.9333 73.0999 28.9633 73.1099 28.99 73.1299C29.01 73.1566 29.02 73.1866 29.02 73.2199V73.4099C29.02 73.7166 29.1567 73.9699 29.43 74.1699C29.7033 74.3766 30.0767 74.4799 30.55 74.4799C30.9567 74.4799 31.2633 74.3933 31.47 74.2199C31.6767 74.0466 31.78 73.8233 31.78 73.5499C31.78 73.3633 31.7233 73.2033 31.61 73.0699C31.4967 72.9433 31.3367 72.8266 31.13 72.7199C30.9167 72.6133 30.6 72.4799 30.18 72.3199C29.7067 72.1466 29.3233 71.9833 29.03 71.8299C28.7367 71.6766 28.4933 71.4666 28.3 71.1999C28.1 70.9399 28 70.6133 28 70.2199C28 69.6333 28.2133 69.1699 28.64 68.8299C29.0667 68.4899 29.6367 68.3199 30.35 68.3199C30.85 68.3199 31.2933 68.4066 31.68 68.5799C32.06 68.7533 32.3567 68.9966 32.57 69.3099C32.7833 69.6166 32.89 69.9733 32.89 70.3799V70.5499C32.89 70.5833 32.8767 70.6133 32.85 70.6399C32.83 70.6599 32.8033 70.6699 32.77 70.6699H31.87C31.8367 70.6699 31.81 70.6599 31.79 70.6399C31.7633 70.6133 31.75 70.5833 31.75 70.5499V70.4399C31.75 70.1266 31.6233 69.8633 31.37 69.6499C31.11 69.4299 30.7533 69.3199 30.3 69.3199C29.9333 69.3199 29.65 69.3966 29.45 69.5499C29.2433 69.7033 29.14 69.9199 29.14 70.1999C29.14 70.3999 29.1933 70.5633 29.3 70.6899C29.4067 70.8166 29.5667 70.9299 29.78 71.0299C29.9933 71.1366 30.3233 71.2699 30.77 71.4299C31.2433 71.6099 31.6233 71.7733 31.91 71.9199C32.19 72.0666 32.4333 72.2699 32.64 72.5299C32.84 72.7966 32.94 73.1266 32.94 73.5199C32.94 74.1199 32.7167 74.5966 32.27 74.9499C31.83 75.3033 31.2267 75.4799 30.46 75.4799ZM36.56 75.4799C36.0667 75.4799 35.63 75.3833 35.25 75.1899C34.87 74.9966 34.5767 74.7233 34.37 74.3699C34.1567 74.0099 34.05 73.5966 34.05 73.1299V68.5199C34.05 68.4866 34.0633 68.4599 34.09 68.4399C34.11 68.4133 34.1367 68.3999 34.17 68.3999H35.09C35.1233 68.3999 35.1533 68.4133 35.18 68.4399C35.2 68.4599 35.21 68.4866 35.21 68.5199V73.1499C35.21 73.5433 35.3333 73.8633 35.58 74.1099C35.8267 74.3566 36.1533 74.4799 36.56 74.4799C36.9667 74.4799 37.2933 74.3566 37.54 74.1099C37.7867 73.8633 37.91 73.5433 37.91 73.1499V68.5199C37.91 68.4866 37.9233 68.4599 37.95 68.4399C37.97 68.4133 37.9967 68.3999 38.03 68.3999H38.95C38.9833 68.3999 39.0133 68.4133 39.04 68.4399C39.06 68.4599 39.07 68.4866 39.07 68.5199V73.1299C39.07 73.5966 38.9667 74.0099 38.76 74.3699C38.5533 74.7233 38.26 74.9966 37.88 75.1899C37.5 75.3833 37.06 75.4799 36.56 75.4799ZM44.98 68.4799C45.0133 68.4266 45.06 68.3999 45.12 68.3999H46.04C46.0733 68.3999 46.1033 68.4133 46.13 68.4399C46.15 68.4599 46.16 68.4866 46.16 68.5199V75.2799C46.16 75.3133 46.15 75.3399 46.13 75.3599C46.1033 75.3866 46.0733 75.3999 46.04 75.3999H45.12C45.0867 75.3999 45.0567 75.3866 45.03 75.3599C45.01 75.3399 45 75.3133 45 75.2799V70.5099C45 70.4899 44.99 70.4766 44.97 70.4699C44.9566 70.4633 44.9466 70.4699 44.94 70.4899L43.69 72.4099C43.6566 72.4633 43.61 72.4899 43.55 72.4899H43.09C43.03 72.4899 42.9833 72.4633 42.95 72.4099L41.69 70.4999C41.6833 70.4799 41.67 70.4733 41.65 70.4799C41.6367 70.4866 41.63 70.4999 41.63 70.5199V75.2799C41.63 75.3133 41.62 75.3399 41.6 75.3599C41.5733 75.3866 41.5433 75.3999 41.51 75.3999H40.59C40.5567 75.3999 40.53 75.3866 40.51 75.3599C40.4833 75.3399 40.47 75.3133 40.47 75.2799V68.5199C40.47 68.4866 40.4833 68.4599 40.51 68.4399C40.53 68.4133 40.5567 68.3999 40.59 68.3999H41.51C41.57 68.3999 41.6167 68.4266 41.65 68.4799L43.28 70.9499C43.2933 70.9633 43.3067 70.9699 43.32 70.9699C43.3333 70.9699 43.3433 70.9633 43.35 70.9499L44.98 68.4799ZM52.13 68.4799C52.1633 68.4266 52.21 68.3999 52.27 68.3999H53.19C53.2233 68.3999 53.25 68.4133 53.27 68.4399C53.2966 68.4599 53.31 68.4866 53.31 68.5199V75.2799C53.31 75.3133 53.2966 75.3399 53.27 75.3599C53.25 75.3866 53.2233 75.3999 53.19 75.3999H52.27C52.2367 75.3999 52.21 75.3866 52.19 75.3599C52.1633 75.3399 52.15 75.3133 52.15 75.2799V70.5099C52.15 70.4899 52.1433 70.4766 52.13 70.4699C52.11 70.4633 52.0967 70.4699 52.09 70.4899L50.84 72.4099C50.8067 72.4633 50.76 72.4899 50.7 72.4899H50.24C50.18 72.4899 50.1333 72.4633 50.1 72.4099L48.84 70.4999C48.8333 70.4799 48.8233 70.4733 48.81 70.4799C48.79 70.4866 48.78 70.4999 48.78 70.5199V75.2799C48.78 75.3133 48.77 75.3399 48.75 75.3599C48.7233 75.3866 48.6933 75.3999 48.66 75.3999H47.74C47.7067 75.3999 47.68 75.3866 47.66 75.3599C47.6333 75.3399 47.62 75.3133 47.62 75.2799V68.5199C47.62 68.4866 47.6333 68.4599 47.66 68.4399C47.68 68.4133 47.7067 68.3999 47.74 68.3999H48.66C48.72 68.3999 48.7667 68.4266 48.8 68.4799L50.43 70.9499C50.4433 70.9633 50.4566 70.9699 50.47 70.9699C50.4833 70.9699 50.4933 70.9633 50.5 70.9499L52.13 68.4799ZM59.51 69.2799C59.51 69.3133 59.5 69.3399 59.48 69.3599C59.4533 69.3866 59.4233 69.3999 59.39 69.3999H55.98C55.9467 69.3999 55.93 69.4166 55.93 69.4499V71.3199C55.93 71.3533 55.9467 71.3699 55.98 71.3699H58.27C58.3033 71.3699 58.3333 71.3799 58.36 71.3999C58.38 71.4266 58.39 71.4566 58.39 71.4899V72.2499C58.39 72.2833 58.38 72.3133 58.36 72.3399C58.3333 72.3599 58.3033 72.3699 58.27 72.3699H55.98C55.9467 72.3699 55.93 72.3866 55.93 72.4199V74.3499C55.93 74.3833 55.9467 74.3999 55.98 74.3999H59.39C59.4233 74.3999 59.4533 74.4133 59.48 74.4399C59.5 74.4599 59.51 74.4866 59.51 74.5199V75.2799C59.51 75.3133 59.5 75.3399 59.48 75.3599C59.4533 75.3866 59.4233 75.3999 59.39 75.3999H54.89C54.8567 75.3999 54.83 75.3866 54.81 75.3599C54.7833 75.3399 54.77 75.3133 54.77 75.2799V68.5199C54.77 68.4866 54.7833 68.4599 54.81 68.4399C54.83 68.4133 54.8567 68.3999 54.89 68.3999H59.39C59.4233 68.3999 59.4533 68.4133 59.48 68.4399C59.5 68.4599 59.51 68.4866 59.51 68.5199V69.2799ZM64.62 75.3999C64.5533 75.3999 64.5067 75.3699 64.48 75.3099L63.16 72.4299C63.1467 72.4033 63.1267 72.3899 63.1 72.3899H61.9C61.8667 72.3899 61.85 72.4066 61.85 72.4399V75.2799C61.85 75.3133 61.8367 75.3399 61.81 75.3599C61.79 75.3866 61.7633 75.3999 61.73 75.3999H60.81C60.7767 75.3999 60.75 75.3866 60.73 75.3599C60.7033 75.3399 60.69 75.3133 60.69 75.2799V68.5199C60.69 68.4866 60.7033 68.4599 60.73 68.4399C60.75 68.4133 60.7767 68.3999 60.81 68.3999H63.56C63.9667 68.3999 64.3267 68.4833 64.64 68.6499C64.9533 68.8233 65.1967 69.0633 65.37 69.3699C65.5433 69.6833 65.63 70.0399 65.63 70.4399C65.63 70.8999 65.51 71.2899 65.27 71.6099C65.0367 71.9366 64.71 72.1633 64.29 72.2899C64.2767 72.2899 64.2667 72.2966 64.26 72.3099C64.2533 72.3233 64.2533 72.3366 64.26 72.3499L65.67 75.2599C65.6833 75.2866 65.69 75.3066 65.69 75.3199C65.69 75.3733 65.6533 75.3999 65.58 75.3999H64.62ZM61.9 69.3999C61.8667 69.3999 61.85 69.4166 61.85 69.4499V71.4399C61.85 71.4733 61.8667 71.4899 61.9 71.4899H63.4C63.72 71.4899 63.9767 71.3933 64.17 71.1999C64.37 71.0133 64.47 70.7633 64.47 70.4499C64.47 70.1366 64.37 69.8833 64.17 69.6899C63.9767 69.4966 63.72 69.3999 63.4 69.3999H61.9Z" fill="white"/>
<path d="M35.57 93.4599C35.55 93.4799 35.5433 93.4999 35.55 93.5199C35.5633 93.5399 35.5833 93.5499 35.61 93.5499H39.54C39.5867 93.5499 39.6267 93.5666 39.66 93.5999C39.7 93.6332 39.72 93.6732 39.72 93.7199V95.1299C39.72 95.1766 39.7 95.2166 39.66 95.2499C39.6267 95.2832 39.5867 95.2999 39.54 95.2999H33.02C32.9667 95.2999 32.9233 95.2832 32.89 95.2499C32.8567 95.2166 32.84 95.1766 32.84 95.1299V93.7899C32.84 93.7032 32.87 93.6299 32.93 93.5699C33.4033 93.1099 33.8867 92.6066 34.38 92.0599C34.8733 91.5132 35.1833 91.1732 35.31 91.0399C35.5767 90.7199 35.85 90.4132 36.13 90.1199C37.01 89.1466 37.45 88.4232 37.45 87.9499C37.45 87.6099 37.33 87.3299 37.09 87.1099C36.85 86.8966 36.5367 86.7899 36.15 86.7899C35.7633 86.7899 35.45 86.8966 35.21 87.1099C34.9633 87.3299 34.84 87.6199 34.84 87.9799V88.3399C34.84 88.3866 34.8233 88.4266 34.79 88.4599C34.7567 88.4932 34.7167 88.5099 34.67 88.5099H32.96C32.9133 88.5099 32.8733 88.4932 32.84 88.4599C32.8 88.4266 32.78 88.3866 32.78 88.3399V87.6599C32.8133 87.1399 32.98 86.6766 33.28 86.2699C33.58 85.8699 33.9767 85.5632 34.47 85.3499C34.97 85.1366 35.53 85.0299 36.15 85.0299C36.8367 85.0299 37.4333 85.1599 37.94 85.4199C38.4467 85.6732 38.8367 86.0166 39.11 86.4499C39.39 86.8899 39.53 87.3732 39.53 87.8999C39.53 88.3066 39.4267 88.7232 39.22 89.1499C39.02 89.5766 38.7167 90.0366 38.31 90.5299C38.01 90.9032 37.6867 91.2766 37.34 91.6499C36.9933 92.0166 36.4767 92.5466 35.79 93.2399L35.57 93.4599ZM44.43 95.4599C43.3633 95.4599 42.5233 95.1632 41.91 94.5699C41.29 93.9766 40.98 93.1666 40.98 92.1399V88.3099C40.98 87.3032 41.29 86.5066 41.91 85.9199C42.5233 85.3266 43.3633 85.0299 44.43 85.0299C45.49 85.0299 46.3333 85.3266 46.96 85.9199C47.58 86.5066 47.89 87.3032 47.89 88.3099V92.1399C47.89 93.1666 47.58 93.9766 46.96 94.5699C46.3333 95.1632 45.49 95.4599 44.43 95.4599ZM44.43 93.7099C44.8633 93.7099 45.2067 93.5766 45.46 93.3099C45.72 93.0432 45.85 92.6866 45.85 92.2399V88.2499C45.85 87.8099 45.72 87.4566 45.46 87.1899C45.2067 86.9232 44.8633 86.7899 44.43 86.7899C44.0033 86.7899 43.6633 86.9232 43.41 87.1899C43.15 87.4566 43.02 87.8099 43.02 88.2499V92.2399C43.02 92.6866 43.15 93.0432 43.41 93.3099C43.6633 93.5766 44.0033 93.7099 44.43 93.7099ZM50.59 85.1899C50.6367 85.1632 50.71 85.1499 50.81 85.1499H52.56C52.6133 85.1499 52.6567 85.1666 52.69 85.1999C52.7233 85.2332 52.74 85.2732 52.74 85.3199V95.1299C52.74 95.1766 52.7233 95.2166 52.69 95.2499C52.6567 95.2832 52.6133 95.2999 52.56 95.2999H50.87C50.8167 95.2999 50.7733 95.2832 50.74 95.2499C50.7067 95.2166 50.69 95.1766 50.69 95.1299V87.1799C50.69 87.1599 50.68 87.1399 50.66 87.1199C50.64 87.0999 50.62 87.0966 50.6 87.1099L49.17 87.4999L49.11 87.5099C49.0233 87.5099 48.98 87.4566 48.98 87.3499L48.94 86.1099C48.94 86.0099 48.9833 85.9399 49.07 85.8999L50.59 85.1899ZM60.38 86.9899C60.54 87.3899 60.62 87.8632 60.62 88.4099V92.7799C60.62 93.2999 60.4867 93.7599 60.22 94.1599C59.9467 94.5599 59.5633 94.8699 59.07 95.0899C58.5767 95.3099 58.0133 95.4199 57.38 95.4199C56.7467 95.4199 56.19 95.3099 55.71 95.0899C55.2233 94.8699 54.8467 94.5666 54.58 94.1799C54.3067 93.7866 54.17 93.3332 54.17 92.8199V92.4099C54.17 92.3632 54.1867 92.3232 54.22 92.2899C54.2533 92.2566 54.2967 92.2399 54.35 92.2399H56.04C56.0933 92.2399 56.1367 92.2566 56.17 92.2899C56.2033 92.3232 56.22 92.3632 56.22 92.4099V92.5399C56.22 92.8599 56.3267 93.1266 56.54 93.3399C56.76 93.5532 57.04 93.6599 57.38 93.6599C57.7333 93.6599 58.0233 93.5532 58.25 93.3399C58.47 93.1199 58.58 92.8399 58.58 92.4999V91.1499C58.58 91.1232 58.57 91.1032 58.55 91.0899C58.53 91.0832 58.51 91.0899 58.49 91.1099C58.0967 91.4499 57.5767 91.6199 56.93 91.6199C56.35 91.6199 55.83 91.4866 55.37 91.2199C54.91 90.9532 54.55 90.5699 54.29 90.0699C54.05 89.6099 53.93 89.0532 53.93 88.3999C53.93 87.8266 54.0267 87.3232 54.22 86.8899C54.46 86.3166 54.8467 85.8666 55.38 85.5399C55.92 85.2132 56.5533 85.0499 57.28 85.0499C58.0133 85.0499 58.6533 85.2199 59.2 85.5599C59.7467 85.9066 60.14 86.3832 60.38 86.9899ZM57.28 89.9099C57.78 89.9099 58.14 89.7099 58.36 89.3099C58.5067 89.0566 58.58 88.7332 58.58 88.3399C58.58 88.0199 58.5167 87.7266 58.39 87.4599C58.1767 87.0332 57.81 86.8199 57.29 86.8199C56.79 86.8199 56.4233 87.0332 56.19 87.4599C56.0433 87.7266 55.97 88.0299 55.97 88.3699C55.97 88.7366 56.0533 89.0566 56.22 89.3299C56.46 89.7166 56.8133 89.9099 57.28 89.9099Z" fill="#252530"/>
</svg>
