<svg width="32" height="37" viewBox="0 0 32 37" fill="none" xmlns="http://www.w3.org/2000/svg">
<path d="M31.2512 10.5829L21.4624 1.27635C21.0352 0.869719 20.4557 0.641009 19.8512 0.640503L2.28 0.640503C1.0184 0.640503 0 1.60873 0 2.80817V34.6006C0 35.8001 1.0184 36.7683 2.28 36.7683H29.64C30.9016 36.7683 31.92 35.8001 31.92 34.6006V12.1147C31.92 11.5366 31.6768 11.002 31.2512 10.5829ZM29.2752 10.7563H22.04C21.8384 10.7563 21.6451 10.6802 21.5026 10.5447C21.3601 10.4092 21.28 10.2254 21.28 10.0337L21.2496 3.11164L29.2752 10.7563ZM30.4 34.6006C30.4 34.7923 30.3199 34.9761 30.1774 35.1116C30.0349 35.2471 29.8416 35.3232 29.64 35.3232H2.28C2.07844 35.3232 1.88513 35.2471 1.7426 35.1116C1.60007 34.9761 1.52 34.7923 1.52 34.6006V2.80817C1.52 2.40354 1.8544 2.08562 2.28 2.08562H19.7144L19.76 10.0337C19.76 11.2332 20.7784 12.2014 22.04 12.2014H30.4V34.6006Z" fill="#7A51B8"/>
<path d="M13.5736 27.4762C13.6095 27.5104 13.638 27.5509 13.6575 27.5956C13.6769 27.6402 13.6869 27.688 13.6869 27.7363C13.6869 27.7846 13.6769 27.8325 13.6575 27.8771C13.638 27.9217 13.6095 27.9623 13.5736 27.9965C13.5377 28.0306 13.495 28.0577 13.4481 28.0762C13.4011 28.0947 13.3508 28.1042 13.3 28.1042C13.2492 28.1042 13.1989 28.0947 13.1519 28.0762C13.105 28.0577 13.0623 28.0306 13.0264 27.9965L6.18639 21.4934C6.14961 21.4597 6.12036 21.4193 6.10038 21.3747C6.0804 21.33 6.0701 21.2819 6.0701 21.2333C6.0701 21.1848 6.0804 21.1367 6.10038 21.092C6.12036 21.0473 6.14961 21.0069 6.18639 20.9732L13.0264 14.4702C13.0623 14.436 13.105 14.4089 13.1519 14.3905C13.1989 14.372 13.2492 14.3625 13.3 14.3625C13.3508 14.3625 13.4011 14.372 13.4481 14.3905C13.495 14.4089 13.5377 14.436 13.5736 14.4702C13.6095 14.5044 13.638 14.5449 13.6575 14.5895C13.6769 14.6342 13.6869 14.682 13.6869 14.7303C13.6869 14.7786 13.6769 14.8265 13.6575 14.8711C13.638 14.9157 13.6095 14.9563 13.5736 14.9904L6.99199 21.2333L13.5736 27.4762ZM17.5864 14.9904C17.5505 14.9563 17.522 14.9157 17.5025 14.8711C17.4831 14.8265 17.4731 14.7786 17.4731 14.7303C17.4731 14.682 17.4831 14.6342 17.5025 14.5895C17.522 14.5449 17.5505 14.5044 17.5864 14.4702C17.6223 14.436 17.665 14.4089 17.7119 14.3905C17.7589 14.372 17.8092 14.3625 17.86 14.3625C17.9108 14.3625 17.9611 14.372 18.0081 14.3905C18.055 14.4089 18.0977 14.436 18.1336 14.4702L24.9736 20.9732C25.1256 21.1177 25.1256 21.3489 24.9736 21.4934L18.1336 27.9965C18.0977 28.0306 18.055 28.0577 18.0081 28.0762C17.9611 28.0947 17.9108 28.1042 17.86 28.1042C17.8092 28.1042 17.7589 28.0947 17.7119 28.0762C17.665 28.0577 17.6223 28.0306 17.5864 27.9965C17.5505 27.9623 17.522 27.9217 17.5025 27.8771C17.4831 27.8325 17.4731 27.7846 17.4731 27.7363C17.4731 27.688 17.4831 27.6402 17.5025 27.5956C17.522 27.5509 17.5505 27.5104 17.5864 27.4762L24.168 21.2333L17.5864 14.9904Z" fill="#7A51B8"/>
</svg>
