<svg width="38" height="38" viewBox="0 0 38 38" fill="none" xmlns="http://www.w3.org/2000/svg">
<g clip-path="url(#clip0)">
<path d="M6.08001 21.356V0.76C6.08001 0.558435 5.99994 0.365126 5.85741 0.222599C5.71489 0.0800712 5.52158 0 5.32001 0C5.11845 0 4.92514 0.0800712 4.78261 0.222599C4.64009 0.365126 4.56001 0.558435 4.56001 0.76V21.356C3.70099 21.5304 2.92869 21.9965 2.37397 22.6752C1.81924 23.3539 1.5162 24.2034 1.5162 25.08C1.5162 25.9566 1.81924 26.8061 2.37397 27.4848C2.92869 28.1635 3.70099 28.6296 4.56001 28.804V34.2C4.56001 34.4016 4.64009 34.5949 4.78261 34.7374C4.92514 34.8799 5.11845 34.96 5.32001 34.96C5.52158 34.96 5.71489 34.8799 5.85741 34.7374C5.99994 34.5949 6.08001 34.4016 6.08001 34.2V28.804C6.93903 28.6296 7.71133 28.1635 8.26606 27.4848C8.82079 26.8061 9.12382 25.9566 9.12382 25.08C9.12382 24.2034 8.82079 23.3539 8.26606 22.6752C7.71133 21.9965 6.93903 21.5304 6.08001 21.356ZM5.32001 27.36C4.86907 27.36 4.42826 27.2263 4.05331 26.9757C3.67837 26.7252 3.38614 26.3691 3.21357 25.9525C3.041 25.5359 2.99585 25.0775 3.08382 24.6352C3.1718 24.1929 3.38895 23.7867 3.70781 23.4678C4.02667 23.1489 4.43293 22.9318 4.87521 22.8438C5.31748 22.7558 5.77592 22.801 6.19253 22.9736C6.60915 23.1461 6.96523 23.4384 7.21576 23.8133C7.46629 24.1882 7.60001 24.6291 7.60001 25.08C7.59937 25.6845 7.35895 26.264 6.93151 26.6915C6.50406 27.1189 5.92451 27.3594 5.32001 27.36ZM33.44 15.276V0.76C33.44 0.558435 33.3599 0.365126 33.2174 0.222599C33.0749 0.0800712 32.8816 0 32.68 0C32.4784 0 32.2851 0.0800712 32.1426 0.222599C32.0001 0.365126 31.92 0.558435 31.92 0.76V15.276C31.061 15.4504 30.2887 15.9165 29.734 16.5952C29.1792 17.2739 28.8762 18.1234 28.8762 19C28.8762 19.8766 29.1792 20.7261 29.734 21.4048C30.2887 22.0835 31.061 22.5496 31.92 22.724V34.2C31.92 34.4016 32.0001 34.5949 32.1426 34.7374C32.2851 34.8799 32.4784 34.96 32.68 34.96C32.8816 34.96 33.0749 34.8799 33.2174 34.7374C33.3599 34.5949 33.44 34.4016 33.44 34.2V22.724C34.299 22.5496 35.0713 22.0835 35.6261 21.4048C36.1808 20.7261 36.4838 19.8766 36.4838 19C36.4838 18.1234 36.1808 17.2739 35.6261 16.5952C35.0713 15.9165 34.299 15.4504 33.44 15.276ZM32.68 21.28C32.2291 21.28 31.7883 21.1463 31.4133 20.8958C31.0384 20.6452 30.7461 20.2891 30.5736 19.8725C30.401 19.4559 30.3558 18.9975 30.4438 18.5552C30.5318 18.1129 30.7489 17.7067 31.0678 17.3878C31.3867 17.0689 31.7929 16.8518 32.2352 16.7638C32.6775 16.6758 33.1359 16.721 33.5525 16.8936C33.9691 17.0661 34.3252 17.3584 34.5758 17.7333C34.8263 18.1082 34.96 18.5491 34.96 19C34.9594 19.6045 34.7189 20.184 34.2915 20.6115C33.8641 21.0389 33.2845 21.2794 32.68 21.28ZM19.76 6.156V0.76C19.76 0.558435 19.6799 0.365126 19.5374 0.222599C19.3949 0.0800712 19.2016 0 19 0C18.7984 0 18.6051 0.0800712 18.4626 0.222599C18.3201 0.365126 18.24 0.558435 18.24 0.76V6.156C17.381 6.33043 16.6087 6.79647 16.054 7.47516C15.4992 8.15385 15.1962 9.00345 15.1962 9.88C15.1962 10.7565 15.4992 11.6061 16.054 12.2848C16.6087 12.9635 17.381 13.4296 18.24 13.604V34.2C18.24 34.4016 18.3201 34.5949 18.4626 34.7374C18.6051 34.8799 18.7984 34.96 19 34.96C19.2016 34.96 19.3949 34.8799 19.5374 34.7374C19.6799 34.5949 19.76 34.4016 19.76 34.2V13.604C20.619 13.4296 21.3913 12.9635 21.9461 12.2848C22.5008 11.6061 22.8038 10.7565 22.8038 9.88C22.8038 9.00345 22.5008 8.15385 21.9461 7.47516C21.3913 6.79647 20.619 6.33043 19.76 6.156ZM19 12.16C18.5491 12.16 18.1083 12.0263 17.7333 11.7758C17.3584 11.5252 17.0661 11.1691 16.8936 10.7525C16.721 10.3359 16.6758 9.87747 16.7638 9.43519C16.8518 8.99292 17.0689 8.58666 17.3878 8.2678C17.7067 7.94893 18.1129 7.73178 18.5552 7.64381C18.9975 7.55583 19.4559 7.60099 19.8725 7.77355C20.2891 7.94612 20.6452 8.23836 20.8958 8.6133C21.1463 8.98824 21.28 9.42906 21.28 9.88C21.2794 10.4845 21.0389 11.064 20.6115 11.4915C20.1841 11.9189 19.6045 12.1594 19 12.16Z" fill="#7A51B8"/>
</g>
<defs>
<clipPath id="clip0">
<rect width="38" height="38" fill="white"/>
</clipPath>
</defs>
</svg>
