<svg width="60" height="55" viewBox="0 0 60 55" fill="none" xmlns="http://www.w3.org/2000/svg">
<path fill-rule="evenodd" clip-rule="evenodd" d="M53.9362 38.4325H5.42553C4.01544 38.4325 2.87234 39.5756 2.87234 40.9857V51.1985C2.87234 52.6085 4.01544 53.7516 5.42553 53.7516H53.9362C55.3463 53.7516 56.4894 52.6085 56.4894 51.1985V40.9857C56.4894 39.5756 55.3463 38.4325 53.9362 38.4325Z" fill="url(#paint0_linear)"/>
<path fill-rule="evenodd" clip-rule="evenodd" d="M39.8936 10.3474C39.188 10.3474 38.617 9.77581 38.617 9.07081V2.68783H20.7447V9.07081C20.7447 9.77581 20.1737 10.3474 19.4681 10.3474C18.7625 10.3474 18.1915 9.77581 18.1915 9.07081V1.41124C18.1915 0.706239 18.7625 0.134644 19.4681 0.134644H39.8936C40.5992 0.134644 41.1702 0.706239 41.1702 1.41124V9.07081C41.1702 9.77581 40.5992 10.3474 39.8936 10.3474Z" fill="#9072C0"/>
<path fill-rule="evenodd" clip-rule="evenodd" d="M56.4894 7.79419H2.87234C1.46225 7.79419 0.319149 8.93729 0.319149 10.3474V38.4325C0.319149 39.8426 1.46225 40.9857 2.87234 40.9857H56.4894C57.8994 40.9857 59.0426 39.8426 59.0426 38.4325V10.3474C59.0426 8.93729 57.8994 7.79419 56.4894 7.79419Z" fill="url(#paint1_linear)"/>
<path fill-rule="evenodd" clip-rule="evenodd" d="M37.3404 29.4963H22.0213C21.3162 29.4963 20.7447 28.9248 20.7447 28.2197V20.5602C20.7447 19.8551 21.3162 19.2836 22.0213 19.2836H37.3404C38.0455 19.2836 38.617 19.8551 38.617 20.5602V28.2197C38.617 28.9248 38.0455 29.4963 37.3404 29.4963Z" fill="white"/>
<defs>
<linearGradient id="paint0_linear" x1="31.5" y1="32" x2="26" y2="59.5" gradientUnits="userSpaceOnUse">
<stop stop-color="#593D88"/>
<stop offset="1" stop-color="#AB9DC3"/>
</linearGradient>
<linearGradient id="paint1_linear" x1="14" y1="41.1559" x2="13.6699" y2="8.24866" gradientUnits="userSpaceOnUse">
<stop stop-color="#B497DF"/>
<stop offset="1" stop-color="#8B6DBB"/>
</linearGradient>
</defs>
</svg>
