<svg width="60" height="59" viewBox="0 0 60 59" fill="none" xmlns="http://www.w3.org/2000/svg">
<path fill-rule="evenodd" clip-rule="evenodd" d="M58.3507 18.0803C57.9243 17.8609 57.4119 17.8983 57.0242 18.1776L41.1702 29.5011V19.216C41.1702 18.7523 40.9184 18.3247 40.512 18.099C40.1081 17.8759 39.6106 17.8858 39.2167 18.1339L19.8944 30.2105L12.9031 18.559C12.6725 18.1751 12.2573 17.9395 11.8085 17.9395H1.59575C0.890136 17.9395 0.319153 18.5104 0.319153 19.216V57.5139C0.319153 58.2195 0.890136 58.7905 1.59575 58.7905H57.766C58.4716 58.7905 59.0426 58.2195 59.0426 57.5139V19.216C59.0426 18.7373 58.7758 18.2997 58.3507 18.0803ZM50.1064 40.9182H42.4468C41.7412 40.9182 41.1702 41.4892 41.1702 42.1948V49.8544C41.1702 50.56 41.7412 51.131 42.4468 51.131H50.1064C50.812 51.131 51.383 50.56 51.383 49.8544V42.1948C51.383 41.4892 50.812 40.9182 50.1064 40.9182ZM27.1277 40.9182H34.7872C35.4929 40.9182 36.0638 41.4892 36.0638 42.1948V49.8544C36.0638 50.56 35.4929 51.131 34.7872 51.131H27.1277C26.4221 51.131 25.8511 50.56 25.8511 49.8544V42.1948C25.8511 41.4892 26.4221 40.9182 27.1277 40.9182Z" fill="url(#paint0_linear)"/>
<path fill-rule="evenodd" clip-rule="evenodd" d="M27.1277 2.56673C24.9011 2.56673 22.763 3.41696 21.1312 4.90175C18.9944 1.88105 15.5623 0.0671387 11.8085 0.0671387C5.47291 0.0671387 0.319153 5.2209 0.319153 11.5565C0.319153 12.2621 0.890136 12.8331 1.59575 12.8331H34.7822C35.4542 12.8331 36.004 12.3145 36.0551 11.6562C36.0601 11.6051 36.0638 11.5465 36.0638 11.5029C36.0638 6.57603 32.0545 2.56673 27.1277 2.56673Z" fill="#8260B6" fill-opacity="0.15"/>
<defs>
<linearGradient id="paint0_linear" x1="14" y1="59" x2="13.5" y2="18.5" gradientUnits="userSpaceOnUse">
<stop stop-color="#B79DDE"/>
<stop offset="1" stop-color="#8B6DBB"/>
</linearGradient>
</defs>
</svg>
