<svg width="60" height="59" viewBox="0 0 60 59" fill="none" xmlns="http://www.w3.org/2000/svg">
<path d="M30.4574 28.9987L31.4077 29.2161C33.3916 25.1077 37.5833 22.2693 42.4468 22.2693H44.5V26.8757C44.5 33.6499 39.0083 39.1416 32.234 39.1416H30.9574H30.4574V39.6416V47.6241C30.4574 48.0531 30.1102 48.4007 29.6808 48.4007C29.2515 48.4007 28.9042 48.0531 28.9042 47.6241V26.8757V26.3757H28.4042H27.1277C20.3534 26.3757 14.8617 20.884 14.8617 14.1097V9.50331H16.9149C21.7784 9.50331 25.9701 12.3417 27.954 16.4501L28.9042 16.2327V1.34373C28.9042 0.91472 29.2515 0.567139 29.6808 0.567139C30.1102 0.567139 30.4574 0.914721 30.4574 1.34373V28.9987Z" fill="#8B6DBA" stroke="#8B6DBB"/>
<path fill-rule="evenodd" clip-rule="evenodd" d="M57.766 58.7905H1.59575C0.890136 58.7905 0.319153 58.2189 0.319153 57.5139C0.319153 56.8089 0.890136 56.2373 1.59575 56.2373H13.2135C13.8069 53.3276 16.3851 51.1309 19.4681 51.1309C20.443 51.1309 21.4029 51.3628 22.2756 51.7985C24.3039 48.2474 28.0677 46.0245 32.234 46.0245C38.1383 46.0245 43.0153 50.5007 43.6524 56.2373H57.766C58.4716 56.2373 59.0426 56.8089 59.0426 57.5139C59.0426 58.2189 58.4716 58.7905 57.766 58.7905Z" fill="url(#paint0_linear)"/>
<defs>
<linearGradient id="paint0_linear" x1="29.6809" y1="46.0245" x2="29.6809" y2="58.7905" gradientUnits="userSpaceOnUse">
<stop stop-color="#8B6DBA"/>
<stop offset="1" stop-color="#D1C0ED"/>
</linearGradient>
</defs>
</svg>
