<svg width="38" height="37" viewBox="0 0 38 37" fill="none" xmlns="http://www.w3.org/2000/svg">
<g clip-path="url(#clip0)">
<path d="M3.04001 0.492676V16.3889C3.04001 23.0726 11.305 33.7303 19 33.7303C26.695 33.7303 34.96 23.0726 34.96 16.3889V0.492676H3.04001ZM33.44 16.3889C33.44 22.5215 25.5555 32.2851 19 32.2851C12.4446 32.2851 4.56001 22.5215 4.56001 16.3889V1.93779H33.44V16.3889ZM7.60001 17.1115V5.55057C7.60001 5.35894 7.68008 5.17515 7.82261 5.03964C7.96513 4.90414 8.15844 4.82801 8.36001 4.82801H15.96C16.1616 4.82801 16.3549 4.90414 16.4974 5.03964C16.6399 5.17515 16.72 5.35894 16.72 5.55057C16.72 5.7422 16.6399 5.92599 16.4974 6.06149C16.3549 6.197 16.1616 6.27313 15.96 6.27313H9.12001V17.1115C9.12001 21.293 14.5149 27.9498 19 27.9498C19.2016 27.9498 19.3949 28.0259 19.5374 28.1614C19.6799 28.2969 19.76 28.4807 19.76 28.6724C19.76 28.864 19.6799 29.0478 19.5374 29.1833C19.3949 29.3188 19.2016 29.3949 19 29.3949C13.6051 29.3949 7.60001 22.0734 7.60001 17.1115Z" fill="#7A51B8"/>
</g>
<defs>
<clipPath id="clip0">
<rect width="38" height="36.1278" fill="white" transform="translate(0 0.492676)"/>
</clipPath>
</defs>
</svg>
