<svg width="46" height="46" viewBox="0 0 46 46" fill="none" xmlns="http://www.w3.org/2000/svg">
<path d="M2.76 30.36H4.6C5.332 30.36 6.03401 30.6508 6.55161 31.1684C7.06922 31.686 7.36 32.388 7.36 33.12V43.24C7.36 43.972 7.06922 44.674 6.55161 45.1916C6.03401 45.7092 5.332 46 4.6 46H2.76C2.028 46 1.32599 45.7092 0.808385 45.1916C0.290785 44.674 0 43.972 0 43.24V33.12C0 32.388 0.290785 31.686 0.808385 31.1684C1.32599 30.6508 2.028 30.36 2.76 30.36Z" fill="url(#paint0_linear)"/>
<path d="M15.64 20.24H17.48C18.212 20.24 18.914 20.5308 19.4316 21.0484C19.9492 21.566 20.24 22.268 20.24 23V43.24C20.24 43.972 19.9492 44.674 19.4316 45.1916C18.914 45.7092 18.212 46 17.48 46H15.64C14.908 46 14.206 45.7092 13.6884 45.1916C13.1708 44.674 12.88 43.972 12.88 43.24V23C12.88 22.268 13.1708 21.566 13.6884 21.0484C14.206 20.5308 14.908 20.24 15.64 20.24Z" fill="url(#paint1_linear)"/>
<path d="M32.752 0.736L42.1577 13.2811C42.2521 13.4193 42.307 13.5806 42.3165 13.7477C42.326 13.9148 42.2898 14.0813 42.2117 14.2293C42.1336 14.3773 42.0166 14.5012 41.8733 14.5877C41.73 14.6742 41.5659 14.7199 41.3985 14.72H34.96V43.24C34.96 43.972 34.6692 44.674 34.1516 45.1916C33.634 45.7092 32.932 46 32.2 46H30.36C29.628 46 28.926 45.7092 28.4084 45.1916C27.8908 44.674 27.6 43.972 27.6 43.24V14.72H21.1618C20.9945 14.7199 20.8303 14.6742 20.687 14.5877C20.5438 14.5012 20.4268 14.3773 20.3487 14.2293C20.2706 14.0813 20.2343 13.9148 20.2439 13.7477C20.2534 13.5806 20.3083 13.4193 20.4027 13.2811L29.808 0.736C29.9794 0.507479 30.2016 0.322001 30.4571 0.194254C30.7126 0.066507 30.9944 0 31.28 0C31.5657 0 31.8474 0.066507 32.1029 0.194254C32.3584 0.322001 32.5806 0.507479 32.752 0.736Z" fill="url(#paint2_linear)"/>
<path d="M4.6 30.36H2.76C2.028 30.36 1.32599 30.6508 0.808385 31.1684C0.290785 31.686 0 32.388 0 33.12L0 43.24C0 43.972 0.290785 44.674 0.808385 45.1916C1.32599 45.7092 2.028 46 2.76 46H4.6C5.332 46 6.03401 45.7092 6.55161 45.1916C7.06922 44.674 7.36 43.972 7.36 43.24V33.12C7.36 32.388 7.06922 31.686 6.55161 31.1684C6.03401 30.6508 5.332 30.36 4.6 30.36ZM5.52 43.24C5.52 43.484 5.42307 43.718 5.25054 43.8905C5.078 44.0631 4.844 44.16 4.6 44.16H2.76C2.51611 44.1597 2.2823 44.0626 2.10984 43.8902C1.93738 43.7177 1.84034 43.4839 1.84 43.24V33.12C1.84034 32.8761 1.93738 32.6423 2.10984 32.4698C2.2823 32.2974 2.51611 32.2003 2.76 32.2H4.6C4.844 32.2 5.078 32.2969 5.25054 32.4695C5.42307 32.642 5.52 32.876 5.52 33.12V43.24ZM17.48 20.24H15.64C14.908 20.24 14.206 20.5308 13.6884 21.0484C13.1708 21.566 12.88 22.268 12.88 23V43.24C12.88 43.972 13.1708 44.674 13.6884 45.1916C14.206 45.7092 14.908 46 15.64 46H17.48C18.212 46 18.914 45.7092 19.4316 45.1916C19.9492 44.674 20.24 43.972 20.24 43.24V23C20.24 22.268 19.9492 21.566 19.4316 21.0484C18.914 20.5308 18.212 20.24 17.48 20.24ZM18.4 43.24C18.4 43.484 18.3031 43.718 18.1305 43.8905C17.958 44.0631 17.724 44.16 17.48 44.16H15.64C15.3961 44.1597 15.1623 44.0626 14.9898 43.8902C14.8174 43.7177 14.7203 43.4839 14.72 43.24V23C14.7203 22.7561 14.8174 22.5223 14.9898 22.3498C15.1623 22.1774 15.3961 22.0803 15.64 22.08H17.48C17.724 22.08 17.958 22.1769 18.1305 22.3495C18.3031 22.522 18.4 22.756 18.4 23V43.24ZM42.1577 13.2811L32.752 0.736C32.5806 0.507479 32.3584 0.322001 32.1029 0.194254C31.8474 0.066507 31.5657 0 31.28 0C30.9943 0 30.7126 0.066507 30.4571 0.194254C30.2016 0.322001 29.9794 0.507479 29.808 0.736L20.4027 13.2811C20.3083 13.4193 20.2534 13.5806 20.2439 13.7477C20.2343 13.9148 20.2706 14.0813 20.3487 14.2293C20.4268 14.3773 20.5438 14.5012 20.6871 14.5877C20.8303 14.6742 20.9945 14.7199 21.1618 14.72H27.6V43.24C27.6 43.972 27.8908 44.674 28.4084 45.1916C28.926 45.7092 29.628 46 30.36 46H32.2C32.932 46 33.634 45.7092 34.1516 45.1916C34.6692 44.674 34.96 43.972 34.96 43.24V14.72H41.3985C41.5659 14.7199 41.73 14.6742 41.8733 14.5877C42.0166 14.5012 42.1336 14.3773 42.2117 14.2293C42.2898 14.0813 42.326 13.9148 42.3165 13.7477C42.307 13.5806 42.2521 13.4193 42.1577 13.2811ZM33.12 12.88V43.24C33.12 43.484 33.0231 43.718 32.8505 43.8905C32.678 44.0631 32.444 44.16 32.2 44.16H30.36C30.1161 44.1597 29.8823 44.0626 29.7098 43.8902C29.5374 43.7177 29.4403 43.4839 29.44 43.24V12.88H22.9052L31.276 1.84H31.2782L39.6542 12.88H33.12Z" fill="#7A51B8"/>
<defs>
<linearGradient id="paint0_linear" x1="21.159" y1="0" x2="21.159" y2="46" gradientUnits="userSpaceOnUse">
<stop stop-color="#FEFEFF"/>
<stop offset="1" stop-color="#C9A5FF"/>
</linearGradient>
<linearGradient id="paint1_linear" x1="21.159" y1="0" x2="21.159" y2="46" gradientUnits="userSpaceOnUse">
<stop stop-color="#FEFEFF"/>
<stop offset="1" stop-color="#C9A5FF"/>
</linearGradient>
<linearGradient id="paint2_linear" x1="21.159" y1="0" x2="21.159" y2="46" gradientUnits="userSpaceOnUse">
<stop stop-color="#FEFEFF"/>
<stop offset="1" stop-color="#C9A5FF"/>
</linearGradient>
</defs>
</svg>
