<svg width="121" height="29" viewBox="0 0 121 29" fill="none" xmlns="http://www.w3.org/2000/svg">
<path d="M9.48047 5.88281C9.62109 5.60156 9.79688 5.42578 10.0781 5.32031C10.3594 5.25 10.6055 5.25 10.8867 5.32031C11.168 5.42578 11.3789 5.60156 11.5195 5.88281L13.8047 10.5234L18.9375 11.2617C19.2188 11.332 19.4648 11.4727 19.6406 11.6836C19.8164 11.9297 19.8867 12.1758 19.8867 12.457C19.8867 12.7383 19.7812 12.9844 19.5703 13.1953L15.8438 16.8164L16.7227 21.9492C16.7578 22.2305 16.6875 22.5117 16.5469 22.7578C16.4062 23.0039 16.1953 23.1445 15.9141 23.2148C15.6328 23.2852 15.3516 23.25 15.1055 23.1094L10.5 20.7188L5.89453 23.1094C5.61328 23.25 5.36719 23.2852 5.08594 23.2148C4.80469 23.1445 4.55859 23.0039 4.41797 22.7578C4.27734 22.5117 4.20703 22.2305 4.27734 21.9492L5.15625 16.8164L1.42969 13.1953C1.21875 12.9844 1.07812 12.7383 1.07812 12.457C1.07812 12.1758 1.14844 11.9297 1.32422 11.6836C1.5 11.4727 1.74609 11.332 2.0625 11.2617L7.19531 10.5234L9.48047 5.88281Z" fill="#7A51B8"/>
<path d="M34.4805 5.88281C34.6211 5.60156 34.7969 5.42578 35.0781 5.32031C35.3594 5.25 35.6055 5.25 35.8867 5.32031C36.168 5.42578 36.3789 5.60156 36.5195 5.88281L38.8047 10.5234L43.9375 11.2617C44.2188 11.332 44.4648 11.4727 44.6406 11.6836C44.8164 11.9297 44.8867 12.1758 44.8867 12.457C44.8867 12.7383 44.7812 12.9844 44.5703 13.1953L40.8438 16.8164L41.7227 21.9492C41.7578 22.2305 41.6875 22.5117 41.5469 22.7578C41.4062 23.0039 41.1953 23.1445 40.9141 23.2148C40.6328 23.2852 40.3516 23.25 40.1055 23.1094L35.5 20.7188L30.8945 23.1094C30.6133 23.25 30.3672 23.2852 30.0859 23.2148C29.8047 23.1445 29.5586 23.0039 29.418 22.7578C29.2773 22.5117 29.207 22.2305 29.2773 21.9492L30.1562 16.8164L26.4297 13.1953C26.2188 12.9844 26.0781 12.7383 26.0781 12.457C26.0781 12.1758 26.1484 11.9297 26.3242 11.6836C26.5 11.4727 26.7461 11.332 27.0625 11.2617L32.1953 10.5234L34.4805 5.88281Z" fill="#7A51B8"/>
<path d="M59.4805 5.88281C59.6211 5.60156 59.7969 5.42578 60.0781 5.32031C60.3594 5.25 60.6055 5.25 60.8867 5.32031C61.168 5.42578 61.3789 5.60156 61.5195 5.88281L63.8047 10.5234L68.9375 11.2617C69.2188 11.332 69.4648 11.4727 69.6406 11.6836C69.8164 11.9297 69.8867 12.1758 69.8867 12.457C69.8867 12.7383 69.7812 12.9844 69.5703 13.1953L65.8438 16.8164L66.7227 21.9492C66.7578 22.2305 66.6875 22.5117 66.5469 22.7578C66.4062 23.0039 66.1953 23.1445 65.9141 23.2148C65.6328 23.2852 65.3516 23.25 65.1055 23.1094L60.5 20.7188L55.8945 23.1094C55.6133 23.25 55.3672 23.2852 55.0859 23.2148C54.8047 23.1445 54.5586 23.0039 54.418 22.7578C54.2773 22.5117 54.207 22.2305 54.2773 21.9492L55.1562 16.8164L51.4297 13.1953C51.2188 12.9844 51.0781 12.7383 51.0781 12.457C51.0781 12.1758 51.1484 11.9297 51.3242 11.6836C51.5 11.4727 51.7461 11.332 52.0625 11.2617L57.1953 10.5234L59.4805 5.88281Z" fill="#7A51B8"/>
<path d="M84.4805 5.88281C84.6211 5.60156 84.7969 5.42578 85.0781 5.32031C85.3594 5.25 85.6055 5.25 85.8867 5.32031C86.168 5.42578 86.3789 5.60156 86.5195 5.88281L88.8047 10.5234L93.9375 11.2617C94.2188 11.332 94.4648 11.4727 94.6406 11.6836C94.8164 11.9297 94.8867 12.1758 94.8867 12.457C94.8867 12.7383 94.7812 12.9844 94.5703 13.1953L90.8438 16.8164L91.7227 21.9492C91.7578 22.2305 91.6875 22.5117 91.5469 22.7578C91.4062 23.0039 91.1953 23.1445 90.9141 23.2148C90.6328 23.2852 90.3516 23.25 90.1055 23.1094L85.5 20.7188L80.8945 23.1094C80.6133 23.25 80.3672 23.2852 80.0859 23.2148C79.8047 23.1445 79.5586 23.0039 79.418 22.7578C79.2773 22.5117 79.207 22.2305 79.2773 21.9492L80.1562 16.8164L76.4297 13.1953C76.2188 12.9844 76.0781 12.7383 76.0781 12.457C76.0781 12.1758 76.1484 11.9297 76.3242 11.6836C76.5 11.4727 76.7461 11.332 77.0625 11.2617L82.1953 10.5234L84.4805 5.88281Z" fill="#7A51B8"/>
<path d="M109.48 5.88281C109.621 5.60156 109.797 5.42578 110.078 5.32031C110.359 5.25 110.605 5.25 110.887 5.32031C111.168 5.42578 111.379 5.60156 111.52 5.88281L113.805 10.5234L118.938 11.2617C119.219 11.332 119.465 11.4727 119.641 11.6836C119.816 11.9297 119.887 12.1758 119.887 12.457C119.887 12.7383 119.781 12.9844 119.57 13.1953L115.844 16.8164L116.723 21.9492C116.758 22.2305 116.688 22.5117 116.547 22.7578C116.406 23.0039 116.195 23.1445 115.914 23.2148C115.633 23.2852 115.352 23.25 115.105 23.1094L110.5 20.7188L105.895 23.1094C105.613 23.25 105.367 23.2852 105.086 23.2148C104.805 23.1445 104.559 23.0039 104.418 22.7578C104.277 22.5117 104.207 22.2305 104.277 21.9492L105.156 16.8164L101.43 13.1953C101.219 12.9844 101.078 12.7383 101.078 12.457C101.078 12.1758 101.148 11.9297 101.324 11.6836C101.5 11.4727 101.746 11.332 102.062 11.2617L107.195 10.5234L109.48 5.88281Z" fill="#7A51B8"/>
</svg>
