<svg width="82" height="19" viewBox="0 0 82 19" fill="none" xmlns="http://www.w3.org/2000/svg">
<path d="M6.32031 3.92188C6.41406 3.73438 6.53125 3.61719 6.71875 3.54688C6.90625 3.5 7.07031 3.5 7.25781 3.54688C7.44531 3.61719 7.58594 3.73438 7.67969 3.92188L9.20312 7.01562L12.625 7.50781C12.8125 7.55469 12.9766 7.64844 13.0938 7.78906C13.2109 7.95312 13.2578 8.11719 13.2578 8.30469C13.2578 8.49219 13.1875 8.65625 13.0469 8.79688L10.5625 11.2109L11.1484 14.6328C11.1719 14.8203 11.125 15.0078 11.0312 15.1719C10.9375 15.3359 10.7969 15.4297 10.6094 15.4766C10.4219 15.5234 10.2344 15.5 10.0703 15.4062L7 13.8125L3.92969 15.4062C3.74219 15.5 3.57812 15.5234 3.39062 15.4766C3.20312 15.4297 3.03906 15.3359 2.94531 15.1719C2.85156 15.0078 2.80469 14.8203 2.85156 14.6328L3.4375 11.2109L0.953125 8.79688C0.8125 8.65625 0.71875 8.49219 0.71875 8.30469C0.71875 8.11719 0.765625 7.95312 0.882812 7.78906C1 7.64844 1.16406 7.55469 1.375 7.50781L4.79688 7.01562L6.32031 3.92188Z" fill="#F1DB8D"/>
<path d="M23.3203 3.92188C23.4141 3.73438 23.5312 3.61719 23.7188 3.54688C23.9062 3.5 24.0703 3.5 24.2578 3.54688C24.4453 3.61719 24.5859 3.73438 24.6797 3.92188L26.2031 7.01562L29.625 7.50781C29.8125 7.55469 29.9766 7.64844 30.0938 7.78906C30.2109 7.95312 30.2578 8.11719 30.2578 8.30469C30.2578 8.49219 30.1875 8.65625 30.0469 8.79688L27.5625 11.2109L28.1484 14.6328C28.1719 14.8203 28.125 15.0078 28.0312 15.1719C27.9375 15.3359 27.7969 15.4297 27.6094 15.4766C27.4219 15.5234 27.2344 15.5 27.0703 15.4062L24 13.8125L20.9297 15.4062C20.7422 15.5 20.5781 15.5234 20.3906 15.4766C20.2031 15.4297 20.0391 15.3359 19.9453 15.1719C19.8516 15.0078 19.8047 14.8203 19.8516 14.6328L20.4375 11.2109L17.9531 8.79688C17.8125 8.65625 17.7188 8.49219 17.7188 8.30469C17.7188 8.11719 17.7656 7.95312 17.8828 7.78906C18 7.64844 18.1641 7.55469 18.375 7.50781L21.7969 7.01562L23.3203 3.92188Z" fill="#F1DB8D"/>
<path d="M40.3203 3.92188C40.4141 3.73438 40.5312 3.61719 40.7188 3.54688C40.9062 3.5 41.0703 3.5 41.2578 3.54688C41.4453 3.61719 41.5859 3.73438 41.6797 3.92188L43.2031 7.01562L46.625 7.50781C46.8125 7.55469 46.9766 7.64844 47.0938 7.78906C47.2109 7.95312 47.2578 8.11719 47.2578 8.30469C47.2578 8.49219 47.1875 8.65625 47.0469 8.79688L44.5625 11.2109L45.1484 14.6328C45.1719 14.8203 45.125 15.0078 45.0312 15.1719C44.9375 15.3359 44.7969 15.4297 44.6094 15.4766C44.4219 15.5234 44.2344 15.5 44.0703 15.4062L41 13.8125L37.9297 15.4062C37.7422 15.5 37.5781 15.5234 37.3906 15.4766C37.2031 15.4297 37.0391 15.3359 36.9453 15.1719C36.8516 15.0078 36.8047 14.8203 36.8516 14.6328L37.4375 11.2109L34.9531 8.79688C34.8125 8.65625 34.7188 8.49219 34.7188 8.30469C34.7188 8.11719 34.7656 7.95312 34.8828 7.78906C35 7.64844 35.1641 7.55469 35.375 7.50781L38.7969 7.01562L40.3203 3.92188Z" fill="#F1DB8D"/>
<path d="M57.3203 3.92188C57.4141 3.73438 57.5312 3.61719 57.7188 3.54688C57.9062 3.5 58.0703 3.5 58.2578 3.54688C58.4453 3.61719 58.5859 3.73438 58.6797 3.92188L60.2031 7.01562L63.625 7.50781C63.8125 7.55469 63.9766 7.64844 64.0938 7.78906C64.2109 7.95312 64.2578 8.11719 64.2578 8.30469C64.2578 8.49219 64.1875 8.65625 64.0469 8.79688L61.5625 11.2109L62.1484 14.6328C62.1719 14.8203 62.125 15.0078 62.0312 15.1719C61.9375 15.3359 61.7969 15.4297 61.6094 15.4766C61.4219 15.5234 61.2344 15.5 61.0703 15.4062L58 13.8125L54.9297 15.4062C54.7422 15.5 54.5781 15.5234 54.3906 15.4766C54.2031 15.4297 54.0391 15.3359 53.9453 15.1719C53.8516 15.0078 53.8047 14.8203 53.8516 14.6328L54.4375 11.2109L51.9531 8.79688C51.8125 8.65625 51.7188 8.49219 51.7188 8.30469C51.7188 8.11719 51.7656 7.95312 51.8828 7.78906C52 7.64844 52.1641 7.55469 52.375 7.50781L55.7969 7.01562L57.3203 3.92188Z" fill="#F1DB8D"/>
<path d="M74.3203 3.92188C74.4141 3.73438 74.5312 3.61719 74.7188 3.54688C74.9062 3.5 75.0703 3.5 75.2578 3.54688C75.4453 3.61719 75.5859 3.73438 75.6797 3.92188L77.2031 7.01562L80.625 7.50781C80.8125 7.55469 80.9766 7.64844 81.0938 7.78906C81.2109 7.95312 81.2578 8.11719 81.2578 8.30469C81.2578 8.49219 81.1875 8.65625 81.0469 8.79688L78.5625 11.2109L79.1484 14.6328C79.1719 14.8203 79.125 15.0078 79.0312 15.1719C78.9375 15.3359 78.7969 15.4297 78.6094 15.4766C78.4219 15.5234 78.2344 15.5 78.0703 15.4062L75 13.8125L71.9297 15.4062C71.7422 15.5 71.5781 15.5234 71.3906 15.4766C71.2031 15.4297 71.0391 15.3359 70.9453 15.1719C70.8516 15.0078 70.8047 14.8203 70.8516 14.6328L71.4375 11.2109L68.9531 8.79688C68.8125 8.65625 68.7188 8.49219 68.7188 8.30469C68.7188 8.11719 68.7656 7.95312 68.8828 7.78906C69 7.64844 69.1641 7.55469 69.375 7.50781L72.7969 7.01562L74.3203 3.92188Z" fill="#F1DB8D"/>
</svg>
