<svg width="46" height="46" viewBox="0 0 46 46" fill="none" xmlns="http://www.w3.org/2000/svg">
<path d="M43.24 1.84363H2.76C2.02824 1.84441 1.32668 2.13544 0.809246 2.65287C0.291814 3.17031 0.000779296 3.87187 0 4.60363L0 34.0436C0.000779296 34.7754 0.291814 35.4769 0.809246 35.9944C1.32668 36.5118 2.02824 36.8028 2.76 36.8036H26.0601C26.2634 36.8045 26.4609 36.8717 26.6226 36.995L35.6861 43.7862C35.9589 43.9938 36.2842 44.1209 36.6255 44.1535C36.9667 44.186 37.3102 44.1225 37.6173 43.9703C37.9244 43.818 38.1828 43.583 38.3635 43.2918C38.5442 43.0005 38.64 42.6645 38.64 42.3218V36.8036H43.24C43.9718 36.8028 44.6733 36.5118 45.1908 35.9944C45.7082 35.4769 45.9992 34.7754 46 34.0436V4.60363C45.9992 3.87187 45.7082 3.17031 45.1908 2.65287C44.6733 2.13544 43.9718 1.84441 43.24 1.84363Z" fill="#7A51B8"/>
<path d="M43.24 1.84363H2.76C2.02824 1.84441 1.32668 2.13544 0.809246 2.65287C0.291814 3.17031 0.000779296 3.87187 0 4.60363L0 34.0436C0.000779296 34.7754 0.291814 35.4769 0.809246 35.9944C1.32668 36.5118 2.02824 36.8028 2.76 36.8036H26.0601C26.2634 36.8045 26.4609 36.8717 26.6226 36.995L35.6861 43.7862C35.9589 43.9938 36.2842 44.1209 36.6255 44.1535C36.9667 44.186 37.3102 44.1225 37.6173 43.9703C37.9244 43.818 38.1828 43.583 38.3635 43.2918C38.5442 43.0005 38.64 42.6645 38.64 42.3218V36.8036H43.24C43.9718 36.8028 44.6733 36.5118 45.1908 35.9944C45.7082 35.4769 45.9992 34.7754 46 34.0436V4.60363C45.9992 3.87187 45.7082 3.17031 45.1908 2.65287C44.6733 2.13544 43.9718 1.84441 43.24 1.84363Z" fill="url(#paint0_linear)"/>
<path d="M43.24 1.84363H2.76C2.02824 1.84441 1.32668 2.13544 0.809246 2.65287C0.291814 3.17031 0.000779296 3.87187 0 4.60363L0 34.0436C0.000779296 34.7754 0.291814 35.4769 0.809246 35.9944C1.32668 36.5118 2.02824 36.8028 2.76 36.8036H26.0601C26.2634 36.8045 26.4609 36.8717 26.6226 36.995L35.6861 43.7862C35.9589 43.9938 36.2842 44.1209 36.6255 44.1535C36.9667 44.186 37.3102 44.1225 37.6173 43.9703C37.9244 43.818 38.1828 43.583 38.3635 43.2918C38.5442 43.0005 38.64 42.6645 38.64 42.3218V36.8036H43.24C43.9718 36.8028 44.6733 36.5118 45.1908 35.9944C45.7082 35.4769 45.9992 34.7754 46 34.0436V4.60363C45.9992 3.87187 45.7082 3.17031 45.1908 2.65287C44.6733 2.13544 43.9718 1.84441 43.24 1.84363ZM44.16 34.0436C44.1597 34.2875 44.0626 34.5213 43.8902 34.6938C43.7177 34.8662 43.4839 34.9633 43.24 34.9636H38.088C37.7466 34.9642 37.4193 35.1 37.1778 35.3415C36.9364 35.5829 36.8005 35.9102 36.8 36.2516L36.7947 42.3179L27.7312 35.5267C27.2501 35.1624 26.6635 34.9646 26.0601 34.9633H2.76C2.51611 34.9629 2.2823 34.8659 2.10984 34.6934C1.93738 34.521 1.84034 34.2872 1.84 34.0433V4.60326C1.84034 4.35937 1.93738 4.12556 2.10984 3.9531C2.2823 3.78064 2.51611 3.6836 2.76 3.68326H43.24C43.4839 3.6836 43.7177 3.78064 43.8902 3.9531C44.0626 4.12556 44.1597 4.35937 44.16 4.60326V34.0436ZM31.0106 13.153C31.1831 13.3255 31.28 13.5595 31.28 13.8034C31.28 14.0474 31.1831 14.2814 31.0106 14.4539L19.9706 25.4939C19.8083 25.6564 19.5911 25.7523 19.3617 25.7628C19.1323 25.7732 18.9073 25.6976 18.7308 25.5506L13.2108 20.9506C13.0233 20.7942 12.9055 20.5698 12.8834 20.3267C12.8614 20.0836 12.9368 19.8416 13.0931 19.6541C13.2494 19.4666 13.4738 19.3488 13.7169 19.3267C13.96 19.3046 14.202 19.38 14.3895 19.5363L19.2635 23.5991L29.7096 13.153C29.8821 12.9805 30.1161 12.8835 30.3601 12.8835C30.6041 12.8835 30.8381 12.9805 31.0106 13.153Z" fill="#7A51B8"/>
<defs>
<linearGradient id="paint0_linear" x1="23" y1="1.84363" x2="23" y2="44.1618" gradientUnits="userSpaceOnUse">
<stop stop-color="#FEFEFF"/>
<stop offset="1" stop-color="#C9A5FF"/>
</linearGradient>
</defs>
</svg>
