<svg width="122" height="77" viewBox="0 0 122 77" fill="none" xmlns="http://www.w3.org/2000/svg">
<g filter="url(#filter0_dddddd_241_19)">
<g clip-path="url(#clip0_241_19)">
<rect x="8" y="1" width="40" height="40" rx="6" fill="#322289"/>
<rect x="8" y="6" width="1" height="40" transform="rotate(-90 8 6)" fill="#6A58CE"/>
<rect x="8" y="11" width="1" height="40" transform="rotate(-90 8 11)" fill="#6A58CE"/>
<rect x="8" y="16" width="1" height="40" transform="rotate(-90 8 16)" fill="#6A58CE"/>
<rect x="8" y="21" width="1" height="40" transform="rotate(-90 8 21)" fill="#6A58CE"/>
<rect x="8" y="26" width="1" height="40" transform="rotate(-90 8 26)" fill="#6A58CE"/>
<rect x="8" y="31" width="1" height="40" transform="rotate(-90 8 31)" fill="#6A58CE"/>
<rect x="8" y="36" width="1" height="40" transform="rotate(-90 8 36)" fill="#6A58CE"/>
<rect x="8" y="41" width="1" height="40" transform="rotate(-90 8 41)" fill="#6A58CE"/>
<rect x="12" width="1" height="40" fill="#6A58CE"/>
<rect x="17" width="1" height="40" fill="#6A58CE"/>
<rect x="22" width="1" height="40" fill="#6A58CE"/>
<rect x="27" width="1" height="40" fill="#6A58CE"/>
<rect x="32" width="1" height="40" fill="#6A58CE"/>
<rect x="37" width="1" height="40" fill="#6A58CE"/>
<rect x="42" width="1" height="40" fill="#6A58CE"/>
<rect x="47" width="1" height="41" fill="#6A58CE"/>
<rect x="5" y="-2" width="45" height="45" fill="url(#paint0_radial_241_19)"/>
<g clip-path="url(#clip1_241_19)">
<path d="M42.6604 25.7733H44.367V23.32H46.2337C47.9404 23.32 49.2204 22.2533 49.2204 20.76C49.2204 19.2133 47.9404 18.1467 46.2337 18.1467H42.6604V25.7733ZM44.367 21.8267V19.64H46.0204C46.8737 19.64 47.4604 20.0667 47.4604 20.76C47.4604 21.4 46.8737 21.8267 46.0204 21.8267H44.367ZM50.3404 25.7733H53.167C55.8337 25.7733 57.7537 24.2267 57.7537 21.9867C57.7537 19.7467 55.8337 18.1467 53.167 18.1467H50.3404V25.7733ZM52.047 24.3333V19.64H53.3804C54.927 19.64 55.9937 20.6 55.9937 21.9867C55.9937 23.32 54.927 24.3333 53.3804 24.3333H52.047ZM65.167 19.64V18.1467H59.0337V25.7733H60.7404V22.7867H64.7404V21.2933H60.7404V19.64H65.167ZM69.2204 25.9333C71.087 25.9333 72.047 24.92 72.047 23.7467C72.047 22.36 70.927 21.88 69.4337 21.5067C68.1004 21.1867 67.3004 20.92 67.3004 20.12C67.3004 19.4267 68.047 18.7867 69.007 18.7867C69.807 18.7867 70.607 19.16 71.3004 19.8L71.8337 19.1067C71.087 18.4667 70.2337 18.04 69.0604 18.04C67.5137 18.04 66.3937 19 66.3937 20.1733C66.3937 21.5067 67.407 21.9867 69.007 22.36C70.3937 22.68 71.1404 23 71.1404 23.8C71.1404 24.4933 70.5004 25.1333 69.2737 25.1333C68.1537 25.1333 67.3537 24.6533 66.6604 24.0133L66.127 24.7067C66.927 25.4533 67.9404 25.9333 69.2204 25.9333ZM76.367 19.9067C75.5137 19.9067 74.767 20.3867 74.3937 20.9733V18.04H73.5404V25.7733H74.3937V22.1467C74.3937 21.3467 75.247 20.6533 76.2604 20.6533C77.1137 20.6533 77.7537 21.3467 77.7537 22.2533V25.7733H78.607V22.1467C78.607 20.8667 77.7004 19.9067 76.367 19.9067ZM80.7937 19C81.1137 19 81.3804 18.7333 81.3804 18.4667C81.3804 18.1467 81.1137 17.9333 80.7937 17.9333C80.4737 17.9333 80.207 18.1467 80.207 18.4667C80.207 18.7333 80.4737 19 80.7937 19ZM80.367 25.7733H81.2204V20.0667H80.367V25.7733ZM84.3137 19.2667C84.3137 18.84 84.6337 18.52 84.9537 18.52C85.2204 18.52 85.487 18.6267 85.5937 18.7867L86.0204 18.1467C85.7004 17.9333 85.327 17.7733 84.9004 17.7733C84.047 17.7733 83.4604 18.4133 83.4604 19.2667V20.0667H82.5004V20.8133H83.4604V25.7733H84.3137V20.8133H85.807V20.0667H84.3137V19.2667ZM89.647 24.9733C89.487 25.08 89.2737 25.1867 89.007 25.1867C88.687 25.1867 88.367 24.8667 88.367 24.44V20.8133H89.8604V20.0667H88.367V18.4667H87.5137V20.0667H86.5537V20.8133H87.5137V24.44C87.5137 25.3467 88.1004 25.9333 88.9537 25.9333C89.3804 25.9333 89.7537 25.7733 90.0737 25.56L89.647 24.9733ZM34.9804 23.2133L28.4737 14.84L27.7271 7V35L28.4737 26.6267L34.9804 23.2133Z" fill="#D3CBFF"/>
<path d="M37.0601 18.84L35.5668 23.1067L32.7401 19.5867L37.0601 18.84ZM39.3001 20.5467L37.3801 19.0533L36.8468 20.8133L39.3001 20.5467ZM34.7134 23.8533L34.6601 24.6533L29.1668 26.68L34.7134 23.8533ZM25.7535 28.8133H27.0868V27.5867H25.7535V28.8133ZM26.0201 24.12H27.0868V25.1333H26.0201V24.12ZM25.8601 25.56H27.0868V26.7333H25.8601V25.56ZM23.5668 30.9467V29.88H24.6868V30.9467H23.5668ZM22.6601 30.68V30.0933H23.2468V30.68H22.6601ZM23.1935 29.6133V28.8133H24.0468V29.6133H23.1935ZM23.0335 31.4267V30.9467H23.5135V31.4267H23.0335ZM24.0468 27.6933V27.0533H24.7401V27.6933H24.0468ZM24.6335 26.4667V25.6667H25.4335V26.4667H24.6335ZM26.5001 23.2133H27.0868V23.7467H26.5001V23.2133ZM25.5935 21.3467H27.0868V22.7333H25.5935V21.3467ZM25.9668 19.9067H27.0868V20.9733H25.9668V19.9067ZM26.1801 18.7333H27.0868V19.5867H26.1801V18.7333ZM25.5401 17.9867H26.0735V18.52H25.5401V17.9867ZM25.2735 20.12H25.7535V20.5467H25.2735V20.12ZM26.0735 16.6533H27.0868V17.6133H26.0735V16.6533ZM24.8468 16.5467H25.7001V17.3467H24.8468V16.5467ZM24.3135 14.1467H25.4335V15.2133H24.3135V14.1467ZM25.6468 15.5333H26.5001V16.3867H25.6468V15.5333ZM26.3935 14.68H27.0868V15.32H26.3935V14.68ZM17.9668 13.2933H18.6601V13.9333H17.9668V13.2933ZM19.0868 12.92H19.7268V13.56H19.0868V12.92ZM20.4201 13.1867H21.7001V14.4133H20.4201V13.1867ZM23.6735 16.28H24.3135V16.92H23.6735V16.28ZM24.6335 18.8933H25.2201V19.4267H24.6335V18.8933ZM23.7268 17.56H24.6335V18.4133H23.7268V17.56ZM22.3401 16.28H22.9801V16.92H22.3401V16.28ZM19.6201 14.4667H20.0468V14.8933H19.6201V14.4667ZM22.4468 13.6667H23.3001V14.52H22.4468V13.6667ZM21.1668 15.32H21.9135V16.0133H21.1668V15.32ZM17.8068 14.4133H18.2335V14.84H17.8068V14.4133ZM18.3401 15.1067H19.1935V15.96H18.3401V15.1067ZM19.7801 15.5333H20.4735V16.1733H19.7801V15.5333ZM19.5668 16.5467H20.0468V17.0267H19.5668V16.5467ZM20.3668 17.24H20.8468V17.6667H20.3668V17.24ZM21.1135 17.08H22.0201V17.9867H21.1135V17.08ZM22.2335 18.04H22.6601V18.52H22.2335V18.04ZM22.6068 18.7867H23.0868V19.2133H22.6068V18.7867ZM23.3001 19H24.3668V20.0133H23.3001V19ZM24.6335 20.6533H25.0601V21.1333H24.6335V20.6533ZM24.2601 28.8133V28.3333H24.7401V28.8133H24.2601ZM22.3401 31.5867V31.32H22.6601V31.5867H22.3401ZM16.7935 12.6533H17.2735V13.1333H16.7935V12.6533ZM25.3268 29.6667V29.1867H25.8068V29.6667H25.3268ZM25.1135 28.3333V28.0667H25.4335V28.3333H25.1135ZM22.5535 14.8933H23.4601V15.8H22.5535V14.8933Z" fill="#D3CBFF"/>
</g>
</g>
<rect x="8.5" y="1.5" width="39" height="39" rx="5.5" stroke="#5442BB"/>
</g>
<rect x="47" y="17" width="1" height="16" fill="url(#paint1_radial_241_19)"/>
<rect x="8" y="9" width="1" height="16" fill="url(#paint2_radial_241_19)"/>
<path d="M60.9375 27V15.3594H65.0938C65.9948 15.3594 66.7422 15.526 67.3359 15.8594C67.9297 16.1875 68.375 16.638 68.6719 17.2109C68.9688 17.7786 69.1172 18.4193 69.1172 19.1328C69.1172 19.8464 68.9688 20.4896 68.6719 21.0625C68.375 21.6302 67.9271 22.0807 67.3281 22.4141C66.7344 22.7422 65.9844 22.9062 65.0781 22.9062H62.2344V21.4219H64.9141C65.4922 21.4219 65.9583 21.3229 66.3125 21.125C66.6719 20.9271 66.9323 20.6562 67.0938 20.3125C67.2604 19.9635 67.3438 19.5703 67.3438 19.1328C67.3438 18.6901 67.2604 18.2995 67.0938 17.9609C66.9323 17.6172 66.6719 17.349 66.3125 17.1562C65.9531 16.9635 65.4844 16.8672 64.9062 16.8672H62.6953V27H60.9375ZM74.2578 27H71.3828V25.4609H74.1562C75.0417 25.4609 75.7786 25.2969 76.3672 24.9688C76.9557 24.6354 77.3958 24.1484 77.6875 23.5078C77.9792 22.862 78.125 22.0807 78.125 21.1641C78.125 20.2526 77.9792 19.4792 77.6875 18.8438C77.401 18.2083 76.9714 17.7266 76.3984 17.3984C75.8255 17.0651 75.1146 16.8984 74.2656 16.8984H71.3203V15.3594H74.375C75.5156 15.3594 76.4948 15.5911 77.3125 16.0547C78.1302 16.5182 78.7578 17.1849 79.1953 18.0547C79.6328 18.9193 79.8516 19.9557 79.8516 21.1641C79.8516 22.3776 79.6302 23.4193 79.1875 24.2891C78.75 25.1589 78.1146 25.8281 77.2812 26.2969C76.4479 26.7656 75.4401 27 74.2578 27ZM72.2422 15.3594V27H70.4844V15.3594H72.2422ZM81.3594 27V15.3594H88.5859V16.8672H83.1172V20.6406H88.0625V22.1406H83.1172V27H81.3594ZM93.9609 27.1875C93.0911 27.1875 92.3359 27.0521 91.6953 26.7812C91.0599 26.5052 90.5625 26.112 90.2031 25.6016C89.8438 25.0911 89.6432 24.4844 89.6016 23.7812H91.3672C91.4036 24.2031 91.5391 24.5547 91.7734 24.8359C92.013 25.112 92.3229 25.3177 92.7031 25.4531C93.0833 25.5885 93.5 25.6562 93.9531 25.6562C94.4479 25.6562 94.8906 25.5781 95.2812 25.4219C95.6719 25.2656 95.9766 25.0469 96.1953 24.7656C96.4193 24.4792 96.5312 24.1458 96.5312 23.7656C96.5312 23.4219 96.4323 23.1406 96.2344 22.9219C96.0417 22.7031 95.7786 22.5234 95.4453 22.3828C95.112 22.237 94.737 22.1094 94.3203 22L92.9531 21.625C92.0156 21.375 91.276 21.0026 90.7344 20.5078C90.1927 20.0078 89.9219 19.3542 89.9219 18.5469C89.9219 17.875 90.1016 17.2891 90.4609 16.7891C90.8255 16.2891 91.3177 15.901 91.9375 15.625C92.5625 15.3438 93.263 15.2031 94.0391 15.2031C94.8307 15.2031 95.526 15.3438 96.125 15.625C96.7292 15.901 97.2057 16.2812 97.5547 16.7656C97.9089 17.2448 98.0938 17.7943 98.1094 18.4141H96.4062C96.3438 17.8776 96.0938 17.4609 95.6562 17.1641C95.224 16.8672 94.6719 16.7188 94 16.7188C93.5312 16.7188 93.1198 16.7943 92.7656 16.9453C92.4167 17.0911 92.1458 17.2943 91.9531 17.5547C91.7656 17.8151 91.6719 18.1146 91.6719 18.4531C91.6719 18.8177 91.7839 19.1146 92.0078 19.3438C92.237 19.5729 92.513 19.7552 92.8359 19.8906C93.1641 20.0208 93.4792 20.1276 93.7812 20.2109L94.9141 20.5156C95.2839 20.6094 95.6641 20.7344 96.0547 20.8906C96.4453 21.0469 96.8073 21.2526 97.1406 21.5078C97.4792 21.7578 97.75 22.0703 97.9531 22.4453C98.1615 22.8151 98.2656 23.263 98.2656 23.7891C98.2656 24.4401 98.0964 25.0234 97.7578 25.5391C97.4193 26.0495 96.9297 26.4531 96.2891 26.75C95.6484 27.0417 94.8724 27.1875 93.9609 27.1875ZM101.25 21.8203V27H99.5625V15.3594H101.227V19.7031H101.344C101.547 19.2292 101.857 18.8542 102.273 18.5781C102.695 18.2969 103.245 18.1562 103.922 18.1562C104.521 18.1562 105.044 18.2786 105.492 18.5234C105.94 18.7682 106.289 19.1354 106.539 19.625C106.794 20.1146 106.922 20.724 106.922 21.4531V27H105.219V21.6562C105.219 21.0104 105.052 20.5104 104.719 20.1562C104.391 19.8021 103.932 19.625 103.344 19.625C102.938 19.625 102.578 19.7135 102.266 19.8906C101.953 20.0625 101.706 20.3099 101.523 20.6328C101.341 20.9557 101.25 21.3516 101.25 21.8203ZM108.547 27V18.2656H110.234V27H108.547ZM109.398 16.9219C109.102 16.9219 108.849 16.8229 108.641 16.625C108.432 16.4271 108.328 16.1901 108.328 15.9141C108.328 15.6328 108.432 15.3932 108.641 15.1953C108.849 14.9974 109.102 14.8984 109.398 14.8984C109.69 14.8984 109.94 14.9974 110.148 15.1953C110.362 15.3932 110.469 15.6328 110.469 15.9141C110.469 16.1901 110.362 16.4271 110.148 16.625C109.94 16.8229 109.69 16.9219 109.398 16.9219ZM116.016 18.2656V19.6328H111.086V18.2656H116.016ZM112.43 27V17.25C112.43 16.7083 112.549 16.2578 112.789 15.8984C113.034 15.5339 113.352 15.263 113.742 15.0859C114.138 14.9036 114.562 14.8125 115.016 14.8125C115.365 14.8125 115.661 14.8411 115.906 14.8984C116.151 14.9557 116.331 15.0052 116.445 15.0469L116.039 16.4219C115.961 16.3958 115.859 16.3672 115.734 16.3359C115.615 16.3047 115.464 16.2891 115.281 16.2891C114.87 16.2891 114.573 16.3932 114.391 16.6016C114.208 16.8047 114.117 17.1016 114.117 17.4922V27H112.43ZM121.156 18.2656V19.6328H116.391V18.2656H121.156ZM117.664 16.1875H119.359V24.4375C119.359 24.8385 119.443 25.1328 119.609 25.3203C119.776 25.5026 120.044 25.5938 120.414 25.5938C120.503 25.5938 120.596 25.5885 120.695 25.5781C120.799 25.5677 120.904 25.5521 121.008 25.5312L121.328 26.9375C121.156 26.9948 120.969 27.0391 120.766 27.0703C120.562 27.1016 120.359 27.1172 120.156 27.1172C119.401 27.1172 118.797 26.9062 118.344 26.4844C117.891 26.0573 117.664 25.4896 117.664 24.7812V16.1875Z" fill="url(#paint3_linear_241_19)"/>
<defs>
<filter id="filter0_dddddd_241_19" x="0" y="0" width="56" height="77" filterUnits="userSpaceOnUse" color-interpolation-filters="sRGB">
<feFlood flood-opacity="0" result="BackgroundImageFix"/>
<feColorMatrix in="SourceAlpha" type="matrix" values="0 0 0 0 0 0 0 0 0 0 0 0 0 0 0 0 0 0 127 0" result="hardAlpha"/>
<feOffset/>
<feColorMatrix type="matrix" values="0 0 0 0 0.321569 0 0 0 0 0.239216 0 0 0 0 0.721569 0 0 0 0.42 0"/>
<feBlend mode="normal" in2="BackgroundImageFix" result="effect1_dropShadow_241_19"/>
<feColorMatrix in="SourceAlpha" type="matrix" values="0 0 0 0 0 0 0 0 0 0 0 0 0 0 0 0 0 0 127 0" result="hardAlpha"/>
<feOffset dy="1"/>
<feGaussianBlur stdDeviation="1"/>
<feColorMatrix type="matrix" values="0 0 0 0 0.321569 0 0 0 0 0.239216 0 0 0 0 0.721569 0 0 0 0.41 0"/>
<feBlend mode="normal" in2="effect1_dropShadow_241_19" result="effect2_dropShadow_241_19"/>
<feColorMatrix in="SourceAlpha" type="matrix" values="0 0 0 0 0 0 0 0 0 0 0 0 0 0 0 0 0 0 127 0" result="hardAlpha"/>
<feOffset dy="4"/>
<feGaussianBlur stdDeviation="2"/>
<feColorMatrix type="matrix" values="0 0 0 0 0.321569 0 0 0 0 0.239216 0 0 0 0 0.721569 0 0 0 0.36 0"/>
<feBlend mode="normal" in2="effect2_dropShadow_241_19" result="effect3_dropShadow_241_19"/>
<feColorMatrix in="SourceAlpha" type="matrix" values="0 0 0 0 0 0 0 0 0 0 0 0 0 0 0 0 0 0 127 0" result="hardAlpha"/>
<feOffset dy="10"/>
<feGaussianBlur stdDeviation="3"/>
<feColorMatrix type="matrix" values="0 0 0 0 0.321569 0 0 0 0 0.239216 0 0 0 0 0.721569 0 0 0 0.21 0"/>
<feBlend mode="normal" in2="effect3_dropShadow_241_19" result="effect4_dropShadow_241_19"/>
<feColorMatrix in="SourceAlpha" type="matrix" values="0 0 0 0 0 0 0 0 0 0 0 0 0 0 0 0 0 0 127 0" result="hardAlpha"/>
<feOffset dy="18"/>
<feGaussianBlur stdDeviation="3.5"/>
<feColorMatrix type="matrix" values="0 0 0 0 0.321569 0 0 0 0 0.239216 0 0 0 0 0.721569 0 0 0 0.06 0"/>
<feBlend mode="normal" in2="effect4_dropShadow_241_19" result="effect5_dropShadow_241_19"/>
<feColorMatrix in="SourceAlpha" type="matrix" values="0 0 0 0 0 0 0 0 0 0 0 0 0 0 0 0 0 0 127 0" result="hardAlpha"/>
<feOffset dy="28"/>
<feGaussianBlur stdDeviation="4"/>
<feColorMatrix type="matrix" values="0 0 0 0 0.321569 0 0 0 0 0.239216 0 0 0 0 0.721569 0 0 0 0.01 0"/>
<feBlend mode="normal" in2="effect5_dropShadow_241_19" result="effect6_dropShadow_241_19"/>
<feBlend mode="normal" in="SourceGraphic" in2="effect6_dropShadow_241_19" result="shape"/>
</filter>
<radialGradient id="paint0_radial_241_19" cx="0" cy="0" r="1" gradientUnits="userSpaceOnUse" gradientTransform="translate(27.5 20.5) rotate(90) scale(22.5)">
<stop stop-color="#322289" stop-opacity="0"/>
<stop offset="1" stop-color="#322289"/>
</radialGradient>
<radialGradient id="paint1_radial_241_19" cx="0" cy="0" r="1" gradientUnits="userSpaceOnUse" gradientTransform="translate(47.5 25) rotate(90) scale(8 0.5)">
<stop stop-color="#B8ABFF"/>
<stop offset="1" stop-color="#6F5ED2" stop-opacity="0"/>
</radialGradient>
<radialGradient id="paint2_radial_241_19" cx="0" cy="0" r="1" gradientUnits="userSpaceOnUse" gradientTransform="translate(8.5 17) rotate(90) scale(8 0.5)">
<stop stop-color="#B8ABFF"/>
<stop offset="1" stop-color="#6F5ED2" stop-opacity="0"/>
</radialGradient>
<linearGradient id="paint3_linear_241_19" x1="91" y1="13" x2="91" y2="41" gradientUnits="userSpaceOnUse">
<stop stop-color="#E0E0E0"/>
<stop offset="1" stop-color="#E0E0E0" stop-opacity="0"/>
</linearGradient>
<clipPath id="clip0_241_19">
<rect x="8" y="1" width="40" height="40" rx="6" fill="white"/>
</clipPath>
<clipPath id="clip1_241_19">
<rect width="22.8667" height="28" fill="white" transform="translate(16.5669 7)"/>
</clipPath>
</defs>
</svg>
