<svg width="40" height="40" viewBox="0 0 40 40" fill="none" xmlns="http://www.w3.org/2000/svg">
<mask id="mask0_67_574" style="mask-type:alpha" maskUnits="userSpaceOnUse" x="0" y="0" width="40" height="40">
<rect width="40" height="40" fill="#D9D9D9"/>
</mask>
<g mask="url(#mask0_67_574)">
<path d="M1.58333 22.1667C1.08333 21.1667 0.694444 20.1528 0.416667 19.125C0.138889 18.0972 0 17.0556 0 16C0 12.8889 1.05556 10.2778 3.16667 8.16667C5.27778 6.05556 7.88889 5 11 5C12.75 5 14.4167 5.36806 16 6.10417C17.5833 6.84028 18.9167 7.86111 20 9.16667C21.0833 7.86111 22.4167 6.84028 24 6.10417C25.5833 5.36806 27.25 5 29 5C32.1111 5 34.7222 6.05556 36.8333 8.16667C38.9444 10.2778 40 12.8889 40 16C40 17.0556 39.8611 18.0972 39.5833 19.125C39.3056 20.1528 38.9167 21.1667 38.4167 22.1667C38.1111 21.6389 37.75 21.1667 37.3333 20.75C36.9167 20.3333 36.4306 20 35.875 19.75C36.125 19.1111 36.3194 18.4861 36.4583 17.875C36.5972 17.2639 36.6667 16.6389 36.6667 16C36.6667 13.8333 35.9306 12.0139 34.4583 10.5417C32.9861 9.06944 31.1667 8.33333 29 8.33333C26.75 8.33333 25.0208 8.95139 23.8125 10.1875C22.6042 11.4236 21.3333 12.8056 20 14.3333C18.6667 12.7778 17.3958 11.3889 16.1875 10.1667C14.9792 8.94444 13.25 8.33333 11 8.33333C8.83333 8.33333 7.01389 9.06944 5.54167 10.5417C4.06944 12.0139 3.33333 13.8333 3.33333 16C3.33333 16.6389 3.40278 17.2639 3.54167 17.875C3.68056 18.4861 3.875 19.1111 4.125 19.75C3.56944 20 3.08333 20.3333 2.66667 20.75C2.25 21.1667 1.88889 21.6389 1.58333 22.1667ZM0 36.6667V34.0417C0 32.8194 0.618056 31.8403 1.85417 31.1042C3.09028 30.3681 4.69444 30 6.66667 30C7.02778 30 7.375 30.0069 7.70833 30.0208C8.04167 30.0347 8.36111 30.0694 8.66667 30.125C8.27778 30.6806 7.98611 31.2778 7.79167 31.9167C7.59722 32.5556 7.5 33.2361 7.5 33.9583V36.6667H0ZM10 36.6667V33.9583C10 32.1528 10.9236 30.6944 12.7708 29.5833C14.6181 28.4722 17.0278 27.9167 20 27.9167C23 27.9167 25.4167 28.4722 27.25 29.5833C29.0833 30.6944 30 32.1528 30 33.9583V36.6667H10ZM32.5 36.6667V33.9583C32.5 33.2361 32.4097 32.5556 32.2292 31.9167C32.0486 31.2778 31.7778 30.6806 31.4167 30.125C31.7222 30.0694 32.0347 30.0347 32.3542 30.0208C32.6736 30.0069 33 30 33.3333 30C35.3333 30 36.9444 30.3681 38.1667 31.1042C39.3889 31.8403 40 32.8194 40 34.0417V36.6667H32.5ZM6.66667 28.3333C5.75 28.3333 4.96528 28.0069 4.3125 27.3542C3.65972 26.7014 3.33333 25.9167 3.33333 25C3.33333 24.0556 3.65972 23.2639 4.3125 22.625C4.96528 21.9861 5.75 21.6667 6.66667 21.6667C7.61111 21.6667 8.40278 21.9861 9.04167 22.625C9.68056 23.2639 10 24.0556 10 25C10 25.9167 9.68056 26.7014 9.04167 27.3542C8.40278 28.0069 7.61111 28.3333 6.66667 28.3333ZM33.3333 28.3333C32.4167 28.3333 31.6319 28.0069 30.9792 27.3542C30.3264 26.7014 30 25.9167 30 25C30 24.0556 30.3264 23.2639 30.9792 22.625C31.6319 21.9861 32.4167 21.6667 33.3333 21.6667C34.2778 21.6667 35.0694 21.9861 35.7083 22.625C36.3472 23.2639 36.6667 24.0556 36.6667 25C36.6667 25.9167 36.3472 26.7014 35.7083 27.3542C35.0694 28.0069 34.2778 28.3333 33.3333 28.3333ZM20 26.6667C18.6111 26.6667 17.4306 26.1806 16.4583 25.2083C15.4861 24.2361 15 23.0556 15 21.6667C15 20.25 15.4861 19.0625 16.4583 18.1042C17.4306 17.1458 18.6111 16.6667 20 16.6667C21.4167 16.6667 22.6042 17.1458 23.5625 18.1042C24.5208 19.0625 25 20.25 25 21.6667C25 23.0556 24.5208 24.2361 23.5625 25.2083C22.6042 26.1806 21.4167 26.6667 20 26.6667Z" fill="#BAB0F0"/>
</g>
</svg>
