<svg width="12" height="12" viewBox="0 0 12 12" fill="none" xmlns="http://www.w3.org/2000/svg">
<path d="M2.81125 4.02582C2.55085 4.02582 2.29629 3.9486 2.07978 3.80393C1.86326 3.65926 1.6945 3.45363 1.59485 3.21305C1.4952 2.97247 1.46913 2.70774 1.51993 2.45234C1.57073 2.19694 1.69613 1.96234 1.88026 1.77821C2.06439 1.59408 2.29899 1.46868 2.55439 1.41788C2.80979 1.36708 3.07452 1.39315 3.3151 1.4928C3.55568 1.59245 3.76131 1.76121 3.90598 1.97773C4.05066 2.19424 4.12787 2.4488 4.12787 2.7092V9.29231C4.12787 9.55272 4.05066 9.80727 3.90598 10.0238C3.76131 10.2403 3.55568 10.4091 3.3151 10.5087C3.07452 10.6084 2.80979 10.6344 2.55439 10.5836C2.29899 10.5328 2.06439 10.4074 1.88026 10.2233C1.69613 10.0392 1.57073 9.80457 1.51993 9.54917C1.46913 9.29377 1.4952 9.02904 1.59485 8.78846C1.6945 8.54788 1.86326 8.34225 2.07978 8.19758C2.29629 8.05291 2.55085 7.97569 2.81125 7.97569H9.39436C9.65477 7.97569 9.90932 8.05291 10.1258 8.19758C10.3424 8.34225 10.5111 8.54788 10.6108 8.78846C10.7104 9.02904 10.7365 9.29377 10.6857 9.54917C10.6349 9.80457 10.5095 10.0392 10.3254 10.2233C10.1412 10.4074 9.90662 10.5328 9.65122 10.5836C9.39582 10.6344 9.13109 10.6084 8.89051 10.5087C8.64993 10.4091 8.4443 10.2403 8.29963 10.0238C8.15496 9.80727 8.07774 9.55272 8.07774 9.29231V2.7092C8.07774 2.4488 8.15496 2.19424 8.29963 1.97773C8.4443 1.76121 8.64993 1.59245 8.89051 1.4928C9.13109 1.39315 9.39582 1.36708 9.65122 1.41788C9.90662 1.46868 10.1412 1.59408 10.3254 1.77821C10.5095 1.96234 10.6349 2.19694 10.6857 2.45234C10.7365 2.70774 10.7104 2.97247 10.6108 3.21305C10.5111 3.45363 10.3424 3.65926 10.1258 3.80393C9.90932 3.9486 9.65477 4.02582 9.39436 4.02582H2.81125Z" stroke="white" stroke-opacity="0.8" stroke-width="1.18496" stroke-linecap="round" stroke-linejoin="round"/>
</svg>
