<svg width="16" height="17" viewBox="0 0 16 17" fill="none" xmlns="http://www.w3.org/2000/svg">
<path d="M7.99984 1.16639C6.07548 1.14684 4.22209 1.89213 2.84699 3.23847C1.4719 4.58482 0.687611 6.42205 0.666504 8.34639C0.673919 9.86717 1.16313 11.3465 2.06388 12.5718C2.96463 13.7972 4.23055 14.7055 5.67984 15.1664C6.0465 15.2331 6.17984 15.0131 6.17984 14.8197V13.5997C4.13984 14.0331 3.7065 12.6397 3.7065 12.6397C3.5707 12.2023 3.28199 11.8284 2.89317 11.5864C2.2265 11.1464 2.9465 11.1531 2.9465 11.1531C3.17694 11.1839 3.39741 11.2664 3.59138 11.3946C3.78535 11.5228 3.94778 11.6932 4.0665 11.8931C4.27339 12.2518 4.61286 12.515 5.01184 12.626C5.41083 12.7369 5.83743 12.6868 6.19984 12.4864C6.23711 12.1213 6.40243 11.7812 6.6665 11.5264C5.03984 11.3464 3.33317 10.7331 3.33317 7.97972C3.31862 7.26151 3.584 6.5658 4.07317 6.03972C3.85039 5.4231 3.87669 4.74393 4.1465 4.14639C4.1465 4.14639 4.7665 3.95306 6.1465 4.87972C7.34777 4.55962 8.61191 4.55962 9.81317 4.87972C11.2132 3.95306 11.8132 4.14639 11.8132 4.14639C12.083 4.74393 12.1093 5.4231 11.8865 6.03972C12.387 6.55616 12.6668 7.2472 12.6665 7.96639C12.6665 10.7264 10.9465 11.3331 9.33317 11.5131C9.50983 11.6846 9.64629 11.8931 9.73274 12.1236C9.81919 12.3542 9.85349 12.601 9.83317 12.8464V14.8131C9.83317 15.0464 9.9665 15.2331 10.3332 15.1597C11.7783 14.696 13.04 13.7874 13.938 12.5638C14.8359 11.3402 15.3242 9.86411 15.3332 8.34639C15.3121 6.42205 14.5278 4.58482 13.1527 3.23847C11.7776 1.89213 9.9242 1.14684 7.99984 1.16639Z" fill="white" fill-opacity="0.5"/>
</svg>
