<svg width="17" height="16" viewBox="0 0 17 16" fill="none" xmlns="http://www.w3.org/2000/svg">
<mask id="mask0_67_923" style="mask-type:alpha" maskUnits="userSpaceOnUse" x="0" y="0" width="17" height="16">
<rect x="0.5" width="16" height="16" fill="#D9D9D9"/>
</mask>
<g mask="url(#mask0_67_923)">
<path d="M7.56683 11.0667L12.2668 6.36671L11.3335 5.43337L7.56683 9.20004L5.66683 7.30004L4.7335 8.23337L7.56683 11.0667ZM8.50016 14.6667C7.57794 14.6667 6.71127 14.4917 5.90016 14.1417C5.08905 13.7917 4.3835 13.3167 3.7835 12.7167C3.1835 12.1167 2.7085 11.4112 2.3585 10.6C2.0085 9.78893 1.8335 8.92226 1.8335 8.00004C1.8335 7.07782 2.0085 6.21115 2.3585 5.40004C2.7085 4.58893 3.1835 3.88337 3.7835 3.28337C4.3835 2.68337 5.08905 2.20837 5.90016 1.85837C6.71127 1.50837 7.57794 1.33337 8.50016 1.33337C9.42238 1.33337 10.2891 1.50837 11.1002 1.85837C11.9113 2.20837 12.6168 2.68337 13.2168 3.28337C13.8168 3.88337 14.2918 4.58893 14.6418 5.40004C14.9918 6.21115 15.1668 7.07782 15.1668 8.00004C15.1668 8.92226 14.9918 9.78893 14.6418 10.6C14.2918 11.4112 13.8168 12.1167 13.2168 12.7167C12.6168 13.3167 11.9113 13.7917 11.1002 14.1417C10.2891 14.4917 9.42238 14.6667 8.50016 14.6667Z" fill="#299B65"/>
</g>
</svg>
