<svg width="40" height="40" viewBox="0 0 40 40" fill="none" xmlns="http://www.w3.org/2000/svg">
<mask id="mask0_67_582" style="mask-type:alpha" maskUnits="userSpaceOnUse" x="0" y="0" width="40" height="40">
<rect width="40" height="40" fill="#D9D9D9"/>
</mask>
<g mask="url(#mask0_67_582)">
<path d="M17.4168 25.8332C18.0835 26.4998 18.9446 26.8262 20.0002 26.8123C21.0557 26.7984 21.8335 26.4165 22.3335 25.6665L31.6668 11.6665L17.6668 20.9998C16.9168 21.4998 16.521 22.2637 16.4793 23.2915C16.4377 24.3193 16.7502 25.1665 17.4168 25.8332ZM20.0002 6.6665C21.6391 6.6665 23.2154 6.89567 24.7293 7.354C26.2432 7.81234 27.6668 8.49984 29.0002 9.4165L25.8335 11.4165C24.9168 10.9443 23.9654 10.5901 22.9793 10.354C21.9932 10.1179 21.0002 9.99984 20.0002 9.99984C16.3057 9.99984 13.1599 11.2984 10.5627 13.8957C7.96544 16.4929 6.66683 19.6387 6.66683 23.3332C6.66683 24.4998 6.82655 25.6526 7.146 26.7915C7.46544 27.9304 7.91683 28.9998 8.50016 29.9998H31.5002C32.1391 28.9443 32.6043 27.8471 32.896 26.7082C33.1877 25.5693 33.3335 24.3887 33.3335 23.1665C33.3335 22.1665 33.2154 21.1943 32.9793 20.2498C32.7432 19.3054 32.3891 18.3887 31.9168 17.4998L33.9168 14.3332C34.7502 15.6387 35.4099 17.0276 35.896 18.4998C36.3821 19.9721 36.6391 21.4998 36.6668 23.0832C36.6946 24.6665 36.5141 26.1804 36.1252 27.6248C35.7363 29.0693 35.1668 30.4443 34.4168 31.7498C34.1113 32.2498 33.6946 32.6387 33.1668 32.9165C32.6391 33.1943 32.0835 33.3332 31.5002 33.3332H8.50016C7.91683 33.3332 7.36127 33.1943 6.8335 32.9165C6.30572 32.6387 5.88905 32.2498 5.5835 31.7498C4.86127 30.4998 4.30572 29.1734 3.91683 27.7707C3.52794 26.3679 3.3335 24.8887 3.3335 23.3332C3.3335 21.0276 3.771 18.8679 4.646 16.854C5.521 14.8401 6.71544 13.0762 8.22933 11.5623C9.74322 10.0484 11.5141 8.854 13.5418 7.979C15.5696 7.104 17.7224 6.6665 20.0002 6.6665Z" fill="#BAB0F0"/>
</g>
</svg>
