<svg width="30" height="31" viewBox="0 0 30 31" fill="none" xmlns="http://www.w3.org/2000/svg">
<path d="M6.66667 23.5833H18.3333V20.25H6.66667V23.5833ZM6.66667 16.9167H23.3333V13.5833H6.66667V16.9167ZM6.66667 10.25H23.3333V6.91667H6.66667V10.25ZM3.33333 30.25C2.41667 30.25 1.63194 29.9236 0.979167 29.2708C0.326389 28.6181 0 27.8333 0 26.9167V3.58333C0 2.66667 0.326389 1.88194 0.979167 1.22917C1.63194 0.576389 2.41667 0.25 3.33333 0.25H26.6667C27.5833 0.25 28.3681 0.576389 29.0208 1.22917C29.6736 1.88194 30 2.66667 30 3.58333V26.9167C30 27.8333 29.6736 28.6181 29.0208 29.2708C28.3681 29.9236 27.5833 30.25 26.6667 30.25H3.33333ZM3.33333 26.9167H26.6667V3.58333H3.33333V26.9167Z" fill="#D3CBFF"/>
</svg>
