<svg width="40" height="40" viewBox="0 0 40 40" fill="none" xmlns="http://www.w3.org/2000/svg">
<mask id="mask0_67_622" style="mask-type:alpha" maskUnits="userSpaceOnUse" x="0" y="0" width="40" height="40">
<rect width="40" height="40" fill="#D9D9D9"/>
</mask>
<g mask="url(#mask0_67_622)">
<path d="M6.66683 33.3332C5.75016 33.3332 4.96544 33.0068 4.31266 32.354C3.65989 31.7012 3.3335 30.9165 3.3335 29.9998V9.99984C3.3335 9.08317 3.65989 8.29845 4.31266 7.64567C4.96544 6.99289 5.75016 6.6665 6.66683 6.6665H33.3335C34.2502 6.6665 35.0349 6.99289 35.6877 7.64567C36.3404 8.29845 36.6668 9.08317 36.6668 9.99984V29.9998C36.6668 30.9165 36.3404 31.7012 35.6877 32.354C35.0349 33.0068 34.2502 33.3332 33.3335 33.3332H6.66683ZM6.66683 29.9998H33.3335V13.3332H6.66683V29.9998ZM12.5002 28.3332L10.1668 25.9998L14.4585 21.6665L10.1252 17.3332L12.5002 14.9998L19.1668 21.6665L12.5002 28.3332ZM20.0002 28.3332V24.9998H30.0002V28.3332H20.0002Z" fill="#D3CBFF"/>
</g>
</svg>
