<svg width="41" height="40" viewBox="0 0 41 40" fill="none" xmlns="http://www.w3.org/2000/svg">
<mask id="mask0_67_590" style="mask-type:alpha" maskUnits="userSpaceOnUse" x="0" y="0" width="41" height="40">
<rect x="0.5" width="40" height="40" fill="#D9D9D9"/>
</mask>
<g mask="url(#mask0_67_590)">
<path d="M6.16683 30L3.8335 27.6667L12.6668 18.8333C13.6391 17.8611 14.8196 17.375 16.2085 17.375C17.5974 17.375 18.7779 17.8611 19.7502 18.8333L21.6668 20.75C22.0002 21.0833 22.396 21.25 22.8543 21.25C23.3127 21.25 23.7085 21.0833 24.0418 20.75L31.4585 13.3333H27.1668V10H37.1668V20H33.8335V15.7083L26.3752 23.125C25.4029 24.0972 24.2224 24.5833 22.8335 24.5833C21.4446 24.5833 20.2641 24.0972 19.2918 23.125L17.3335 21.1667C17.0279 20.8611 16.6391 20.7083 16.1668 20.7083C15.6946 20.7083 15.3057 20.8611 15.0002 21.1667L6.16683 30Z" fill="#BAB0F0"/>
</g>
</svg>
