<svg width="40" height="41" viewBox="0 0 40 41" fill="none" xmlns="http://www.w3.org/2000/svg">
<path d="M11.6668 32.1666C10.7828 32.1666 9.93493 31.8154 9.30981 31.1903C8.68469 30.5652 8.3335 29.7173 8.3335 28.8333M8.3335 22.1666V18.8333M8.3335 12.1666C8.3335 11.2825 8.68469 10.4347 9.30981 9.80956C9.93493 9.18444 10.7828 8.83325 11.6668 8.83325M18.3335 8.83325H21.6668M28.3335 8.83325C29.2176 8.83325 30.0654 9.18444 30.6905 9.80956C31.3156 10.4347 31.6668 11.2825 31.6668 12.1666M31.6668 18.8333V22.1666M31.6668 28.8333V35.4999M35.0002 32.1666H28.3335M21.6668 32.1666H18.3335" stroke="#B3B3B3" stroke-width="2.5" stroke-linecap="round" stroke-linejoin="round"/>
</svg>
