<svg width="40" height="40" viewBox="0 0 40 40" fill="none" xmlns="http://www.w3.org/2000/svg">
<mask id="mask0_67_566" style="mask-type:alpha" maskUnits="userSpaceOnUse" x="0" y="0" width="40" height="40">
<rect width="40" height="40" fill="#D9D9D9"/>
</mask>
<g mask="url(#mask0_67_566)">
<path d="M10.0002 35V31.6667L11.6668 30H6.66683C5.75016 30 4.96544 29.6736 4.31266 29.0208C3.65989 28.3681 3.3335 27.5833 3.3335 26.6667V8.33333C3.3335 7.41667 3.65989 6.63194 4.31266 5.97917C4.96544 5.32639 5.75016 5 6.66683 5H20.0002V8.33333H6.66683V26.6667H33.3335V21.6667H36.6668V26.6667C36.6668 27.5833 36.3404 28.3681 35.6877 29.0208C35.0349 29.6736 34.2502 30 33.3335 30H28.3335L30.0002 31.6667V35H10.0002ZM25.0002 25L16.6668 16.6667L19.0002 14.3333L23.3335 18.625V5H26.6668V18.625L31.0002 14.3333L33.3335 16.6667L25.0002 25Z" fill="#BAB0F0"/>
</g>
</svg>
