<svg width="500" height="560" xmlns="http://www.w3.org/2000/svg">
    <g fill="#623e98" fill-rule="nonzero">
        <path d="M380 322L258 165 244 18v525l14-157z" />
        <path d="M419 240l-28 80-53-66zM461 272l-36-28-10 33zM375 334l-1 15-103 38zM207 427h25v-23h-25zM212 339h20v19h-20zM209 366h23v22h-23zM166 467v-20h21v20zM149 462v-11h11v11zM159 442v-15h16v15zM156 476v-9h9v9zM175 406v-12h13v12zM186 383v-15h15v15zM221 322h11v10h-11zM204 287h28v26h-28zM211 260h21v20h-21zM215 238h17v16h-17zM203 224h10v10h-10zM198 264h9v8h-9zM213 199h19v18h-19zM190 197h16v15h-16zM180 152h21v20h-21zM205 178h16v16h-16zM219 162h13v12h-13zM61 136h13v12H61zM82 129h12v12H82zM107 134h24v23h-24zM168 192h12v12h-12zM186 241h11v10h-11zM169 216h17v16h-17zM143 192h12v12h-12zM92 158h8v8h-8zM145 143h16v16h-16zM121 174h14v13h-14zM58 157h8v8h-8zM68 170h16v16H68zM95 178h13v12H95zM91 197h9v9h-9zM106 210h9v8h-9zM120 207h17v17h-17zM141 225h8v9h-8zM148 239h9v8h-9zM161 243h20v19h-20zM186 274h8v9h-8zM179 427v-9h9v9zM143 479v-5h6v5zM39 124h9v9h-9zM199 443v-9h9v9zM195 418v-5h6v5zM147 166h17v17h-17z" />
    </g>
</svg>