<svg xmlns="http://www.w3.org/2000/svg" viewBox="0 0 25 25">
    <g>
        <path d="M2.5,16.5h-1A1.5,1.5,0,0,0,0,18v5.5A1.5,1.5,0,0,0,1.5,25h1A1.5,1.5,0,0,0,4,23.5V18A1.5,1.5,0,0,0,2.5,16.5Zm.5,7a.5.5,0,0,1-.5.5h-1a.5007.5007,0,0,1-.5-.5V18a.5007.5007,0,0,1,.5-.5h1A.5.5,0,0,1,3,18ZM9.5,11h-1A1.5,1.5,0,0,0,7,12.5v11A1.5,1.5,0,0,0,8.5,25h1A1.5,1.5,0,0,0,11,23.5v-11A1.5,1.5,0,0,0,9.5,11ZM10,23.5a.5.5,0,0,1-.5.5h-1a.5007.5007,0,0,1-.5-.5v-11a.5007.5007,0,0,1,.5-.5h1a.5.5,0,0,1,.5.5ZM22.9118,7.218,17.8.4a1,1,0,0,0-1.6,0L11.0884,7.218A.5.5,0,0,0,11.501,8H15V23.5A1.5,1.5,0,0,0,16.5,25h1A1.5,1.5,0,0,0,19,23.5V8h3.4992A.5.5,0,0,0,22.9118,7.218ZM18,7V23.5a.5.5,0,0,1-.5.5h-1a.5007.5007,0,0,1-.5-.5V7H12.4485l4.5493-6,.0012,0,4.5522,6Z" />
    </g>
</svg>