<?xml version="1.0" encoding="UTF-8"?>
<svg viewBox="0 0 47 47" version="1.1" xmlns="http://www.w3.org/2000/svg" xmlns:xlink="http://www.w3.org/1999/xlink">
    <g stroke="none" stroke-width="1" fill="none" fill-rule="evenodd">
        <g transform="translate(-1012.000000, -5817.000000)">
            <g transform="translate(0.000000, 5343.234375)">
                <g transform="translate(874.750000, 419.000000)">
                    <g transform="translate(137.500000, 55.601562)">
                        <path d="M45.45801,14.11035 C45.12403,13.93847 44.72266,13.96777 44.41895,14.18652 L32,23.05664 L32,15 C32,14.63672 31.80273,14.30176 31.48438,14.125 C31.16797,13.9502 30.77833,13.95801 30.46973,14.15234 L15.33398,23.6123 L9.85742,14.48535 C9.67676,14.18457 9.35156,14 9,14 L1,14 C0.44727,14 0,14.44727 0,15 L0,45 C0,45.55273 0.44727,46 1,46 L45,46 C45.55273,46 46,45.55273 46,45 L46,15 C46,14.625 45.79102,14.28223 45.45801,14.11035 Z" id="Path" fill="#444444"></path>
                        <path d="M39,32 L33,32 C32.44727,32 32,32.44727 32,33 L32,39 C32,39.55273 32.44727,40 33,40 L39,40 C39.55273,40 40,39.55273 40,39 L40,33 C40,32.44727 39.55273,32 39,32 Z" id="Path" fill="#BADEFC"></path>
                        <path d="M27,32 L21,32 C20.44727,32 20,32.44727 20,33 L20,39 C20,39.55273 20.44727,40 21,40 L27,40 C27.55273,40 28,39.55273 28,39 L28,33 C28,32.44727 27.55273,32 27,32 Z" id="Path" fill="#BADEFC"></path>
                        <path d="M21,1.95801 C19.25586,1.95801 17.58105,2.62403 16.30273,3.78711 C14.62891,1.4209 11.94043,0 9,0 C4.03711,0 0,4.03711 0,9 C0,9.55273 0.44727,10 1,10 L26.99609,10 C27.52246,10 27.95312,9.59375 27.99316,9.07812 C27.99707,9.03809 28,8.99219 28,8.95801 C28,5.09863 24.85938,1.95801 21,1.95801 Z" id="Path" fill="#B3B3B3"></path>
                    </g>
                </g>
            </g>
        </g>
    </g>
</svg>