<svg xmlns="http://www.w3.org/2000/svg" viewBox="0 0 25 25">
    <g>
        <path class="cls-1" d="M18.5,3H6.5A1.5,1.5,0,0,0,5,4.5v16A1.5,1.5,0,0,0,6.5,22h12A1.5,1.5,0,0,0,20,20.5V4.5A1.5,1.5,0,0,0,18.5,3ZM19,20.5a.5.5,0,0,1-.5.5H6.5a.5.5,0,0,1-.5-.5V4.5A.5.5,0,0,1,6.5,4h12a.5.5,0,0,1,.5.5ZM8,8.5A.5.5,0,0,1,8.5,8h4a.5.5,0,0,1,0,1h-4A.5.5,0,0,1,8,8.5Zm9,4a.5.5,0,0,1-.5.5h-8a.5.5,0,0,1,0-1h8A.5.5,0,0,1,17,12.5Zm0,4a.5.5,0,0,1-.5.5h-8a.5.5,0,0,1,0-1h8A.5.5,0,0,1,17,16.5ZM3,.5v2a.5.5,0,0,1-.5.5H.5a.5.5,0,0,1,0-1H2V.5a.5.5,0,0,1,1,0Zm0,22v2a.5.5,0,0,1-1,0V23H.5a.5.5,0,0,1,0-1h2A.5.5,0,0,1,3,22.5Zm19-20V.5a.5.5,0,0,1,1,0V2h1.5a.5.5,0,0,1,0,1h-2A.5.5,0,0,1,22,2.5Zm3,20a.5.5,0,0,1-.5.5H23v1.5a.5.5,0,0,1-1,0v-2a.5.5,0,0,1,.5-.5h2A.5.5,0,0,1,25,22.5Z" />
    </g>
</svg>