<svg xmlns="http://www.w3.org/2000/svg" viewBox="0 0 25 25">
    <g>
        <path d="M18,12.5a.5.5,0,0,1-.5.5H15v2.5a.5.5,0,0,1-1,0V13H11.5a.5.5,0,0,1,0-1H14V9.5a.5.5,0,0,1,1,0V12h2.5A.5.5,0,0,1,18,12.5Zm6-5.5547V20.5A1.5,1.5,0,0,1,22.5,22H21v1.5A1.5016,1.5016,0,0,1,19.5,25H3.5A1.5016,1.5016,0,0,1,2,23.5V4.5A1.5016,1.5016,0,0,1,3.5,3H5V1.5A1.5,1.5,0,0,1,6.5,0H17.0582a1.5007,1.5007,0,0,1,1.0609.4395l5.4415,5.4443A1.5007,1.5007,0,0,1,24,6.9453ZM17.9774,1.7119l.0187,3.79a.5006.5006,0,0,0,.5.498h3.7668ZM20,22H6.5A1.5,1.5,0,0,1,5,20.5V4H3.5a.5.5,0,0,0-.5.5v19a.5.5,0,0,0,.5.5h16a.5.5,0,0,0,.5-.5ZM23,7H18.4961a1.5026,1.5026,0,0,1-1.5-1.4941L16.9746,1H6.5a.5.5,0,0,0-.5.5v19a.5.5,0,0,0,.5.5h16a.5.5,0,0,0,.5-.5Z" />
    </g>
</svg>