<svg viewBox="0 0 25 25" xmlns="http://www.w3.org/2000/svg">
    <g>
        <path d="M20.56 6.88L14.12.44A1.5 1.5 0 0 0 13.06 0H1.5C.67 0 0 .67 0 1.5v22c0 .83.67 1.5 1.5 1.5h18c.83 0 1.5-.67 1.5-1.5V7.94c0-.4-.16-.77-.44-1.06zm-1.3.12H14.5a.5.5 0 0 1-.5-.5l-.02-4.79L19.26 7zM20 23.5a.5.5 0 0 1-.5.5h-18a.5.5 0 0 1-.5-.5v-22c0-.28.22-.5.5-.5h11.47L13 6.5c0 .83.67 1.5 1.5 1.5H20v15.5z" />
        <path d="M8.93 18.57a.25.25 0 1 1-.36.36l-4.5-4.5a.25.25 0 0 1 0-.36l4.5-4.5a.25.25 0 1 1 .36.36L4.6 14.25l4.33 4.32zM11.57 9.93a.25.25 0 1 1 .36-.36l4.5 4.5c.1.1.1.26 0 .36l-4.5 4.5a.25.25 0 1 1-.36-.36l4.33-4.32-4.33-4.32z" />
    </g>
</svg>