<svg xmlns="http://www.w3.org/2000/svg" viewBox="0 0 25 25">
    <g>
        <path d="M4,14.05V.5a.5.5,0,0,0-1,0V14.05A2.5,2.5,0,0,0,3,18.95V22.5a.5.5,0,0,0,1,0V18.95A2.5,2.5,0,0,0,4,14.05ZM3.5,18A1.5,1.5,0,1,1,5,16.5,1.5016,1.5016,0,0,1,3.5,18ZM22,10.05V.5a.5.5,0,0,0-1,0v9.55A2.5,2.5,0,0,0,21,14.95V22.5a.5.5,0,0,0,1,0V14.95A2.5,2.5,0,0,0,22,10.05ZM21.5,14A1.5,1.5,0,1,1,23,12.5,1.5016,1.5016,0,0,1,21.5,14ZM13,4.05V.5a.5.5,0,0,0-1,0V4.05A2.5,2.5,0,0,0,12,8.95V22.5a.5.5,0,0,0,1,0V8.95A2.5,2.5,0,0,0,13,4.05ZM12.5,8A1.5,1.5,0,1,1,14,6.5,1.5016,1.5016,0,0,1,12.5,8Z" />
    </g>
</svg>