<?xml version="1.0" encoding="UTF-8"?>
<svg viewBox="0 0 47 47" version="1.1" xmlns="http://www.w3.org/2000/svg" xmlns:xlink="http://www.w3.org/1999/xlink">
    <g stroke="none" stroke-width="1" fill="none" fill-rule="evenodd">
        <g transform="translate(-330.000000, -5817.000000)">
            <g transform="translate(0.000000, 5343.234375)">
                <g transform="translate(192.750000, 419.000000)">
                    <g transform="translate(137.500000, 55.601562)">
                        <path d="M33,17 C29.03345,17 25.61652,19.31537 24,22.66302 L24,1 C24,0.44775 23.55273,0 23,0 C22.44727,0 22,0.44775 22,1 L22,12.66302 C20.38348,9.31537 16.96655,7 13,7 L11,7 L11,11 C11,16.52283 15.47717,21 21,21 L22,21 L22,37.25293 C22,37.80518 22.44727,38.25293 23,38.25293 C23.55273,38.25293 24,37.80518 24,37.25293 L24,31 L25,31 C30.52283,31 35,26.52283 35,21 L35,17 L33,17 Z" id="Path" fill="#72C472"></path>
                        <path d="M45,46 L1,46 C0.44727,46 0,45.55225 0,45 C0,44.44775 0.44727,44 1,44 L10.10059,44 C10.56543,41.7207 12.58497,40 15,40 C15.76367,40 16.51562,40.18164 17.19922,40.52295 C18.78809,37.74121 21.73633,36 25,36 C29.625,36 33.44531,39.50635 33.94434,44 L45,44 C45.55273,44 46,44.44775 46,45 C46,45.55225 45.55273,46 45,46 Z" id="Path" fill="#A67C52"></path>
                    </g>
                </g>
            </g>
        </g>
    </g>
</svg>