<svg xmlns="http://www.w3.org/2000/svg" viewBox="0 0 25 25">
    <g>
        <path d="M19.0507,0a.9969.9969,0,0,0-.7071.2929L.2929,18.3436a1,1,0,0,0,0,1.4142l4.95,4.95a1,1,0,0,0,1.4142,0L24.7075,6.6569a1,1,0,0,0,0-1.4142l-4.95-4.95A.9969.9969,0,0,0,19.0507,0ZM5.95,24,1,19.0507,19.05,1h.001L24,5.95,22.4,7.55,20.632,5.7827a.5.5,0,0,0-.7072.7072l1.7678,1.7678-2.1213,2.1213L18.5106,9.3182a.5.5,0,0,0-.7071.7071l1.0607,1.0607-2.1213,2.1213L14.9751,11.44a.5.5,0,0,0-.7071.7072l1.7678,1.7678-2.1213,2.1213L12.8538,14.975a.5.5,0,0,0-.7071,0h0a.5.5,0,0,0,0,.7071l1.0607,1.0607L11.086,18.8641,9.3182,17.0964a.5.5,0,1,0-.7071.7071l1.7678,1.7678L8.2576,21.6926,7.1969,20.6319a.5.5,0,0,0-.7071.7072L7.55,22.4,5.95,24Z" />
    </g>
</svg>