<svg xmlns="http://www.w3.org/2000/svg" viewBox="0 0 25 25">
    <g>
        <path d="M12.5,16A5.5,5.5,0,1,0,7,10.5,5.5,5.5,0,0,0,12.5,16Zm0-10A4.5,4.5,0,1,1,8,10.5,4.505,4.505,0,0,1,12.5,6Zm-.3,5.4A.5.5,0,0,1,12,11V8.5a.5.5,0,0,1,1,0v2.25l1.8,1.35a.5.5,0,1,1-.6.8ZM22.5,17H22V1.5A1.5,1.5,0,0,0,20.5,0H4.5A1.5,1.5,0,0,0,3,1.5V17H2.5A1.5,1.5,0,0,0,1,18.5v5A1.5,1.5,0,0,0,2.5,25h20A1.5,1.5,0,0,0,24,23.5v-5A1.5,1.5,0,0,0,22.5,17ZM4,1.5A.5006.5006,0,0,1,4.5,1h16a.5006.5006,0,0,1,.5.5V17H17.5A1.5,1.5,0,0,0,16,18.5v1a.5.5,0,0,1-.5.5h-6a.5.5,0,0,1-.5-.5v-1A1.5,1.5,0,0,0,7.5,17H4Zm19,22a.5.5,0,0,1-.5.5H2.5a.5.5,0,0,1-.5-.5v-5a.5.5,0,0,1,.5-.5h5a.5.5,0,0,1,.5.5v1A1.5017,1.5017,0,0,0,9.5,21h6A1.5017,1.5017,0,0,0,17,19.5v-1a.5.5,0,0,1,.5-.5h5a.5.5,0,0,1,.5.5Z" />
    </g>
</svg>