<svg xmlns="http://www.w3.org/2000/svg" viewBox="0 0 25 25">
    <g>
        <path d="M23.084,11.1089,2.4468,2.0835A.997.997,0,0,0,1.0957,3.2793L3.5213,12.49,1.0338,21.7473A.9972.9972,0,0,0,2.391,22.9209L23.084,13.8718A1.5,1.5,0,0,0,23.084,11.1089Zm-.4006,1.8467L2,22.0068l1.3632-5.0728,17.9537-3.9556a.5.5,0,0,0,0-.9766l-17.92-3.925-1.332-5.07L22.6945,12.03A.4836.4836,0,0,1,23,12.49.4893.4893,0,0,1,22.6834,12.9556Zm-18.1951-.72L3.681,9.1628l15.1974,3.3284L3.6552,15.8457,4.4871,12.75l.069-.2568Z" />
    </g>
</svg>