<svg width="170" height="29" viewBox="0 0 170 29" fill="none" xmlns="http://www.w3.org/2000/svg">
<mask id="mask0_144_813" style="mask-type:luminance" maskUnits="userSpaceOnUse" x="18" y="0" width="6" height="28">
<path d="M23.2137 26.0688C23.2137 26.9515 22.7723 27.4418 21.8406 27.4418H19.3398C18.4571 27.4418 18.0158 27.0005 18.0158 26.0688V1.4033C18.0158 0.471604 18.4571 0.0302734 19.3398 0.0302734H21.8406C22.7723 0.0302734 23.2137 0.471604 23.2137 1.4033V26.0688Z" fill="white"/>
</mask>
<g mask="url(#mask0_144_813)">
<path d="M15.564 -2.42139H25.6655V29.8939H15.564V-2.42139Z" fill="#4A87A8"/>
</g>
<mask id="mask1_144_813" style="mask-type:luminance" maskUnits="userSpaceOnUse" x="24" y="0" width="11" height="29">
<path d="M26.1559 10.9658H25.7146C24.8319 10.9658 24.3906 10.5245 24.3906 9.59278V7.77842C24.3906 6.89576 24.8319 6.40539 25.7146 6.40539H26.1559V3.41415C26.1559 2.53149 26.303 1.55075 27.3818 1.25653L29.4904 0.619051C30.6673 0.275793 31.3047 0.717124 31.3047 1.84497V6.40539H33.021C33.9037 6.40539 34.345 6.84672 34.345 7.77842V9.59278C34.345 10.4754 33.9037 10.9658 33.021 10.9658H31.3047V22.0972C31.3047 23.176 31.8932 23.5192 32.6778 23.5192H33.2172C33.8056 23.5192 34.1979 23.7154 34.1979 24.6471V26.0691C34.1979 27.4422 32.8249 28.0306 31.4028 28.0306C28.7548 28.0306 26.1069 26.5105 26.1069 22.8327V10.9658" fill="white"/>
</mask>
<g mask="url(#mask1_144_813)">
<path d="M21.9387 -1.93066H36.7969V30.4826H21.9387V-1.93066Z" fill="#4A87A8"/>
</g>
<mask id="mask2_144_813" style="mask-type:luminance" maskUnits="userSpaceOnUse" x="35" y="5" width="15" height="23">
<path d="M49.6446 17.0959C49.6446 17.9786 49.2033 18.4689 48.3206 18.4689H40.3766V19.94C40.3766 22.2448 41.4064 23.4707 43.8583 23.4707C45.5255 23.4707 46.163 22.7842 47.2418 22.7842C48.2225 22.7842 48.5658 23.5688 48.5658 24.1572V24.7947C48.5658 26.511 46.9476 27.9821 43.515 27.9821C38.0719 27.9821 35.1787 24.6966 35.1787 19.4987V13.0259C35.1787 8.66159 38.2681 5.91553 42.3871 5.91553C46.5553 5.91553 49.5956 8.66159 49.5956 13.0259V17.0959H49.6446ZM44.4957 13.0259C44.4957 11.0644 43.7111 10.0837 42.4362 10.0837C41.1612 10.0837 40.3766 11.0644 40.3766 13.0259V14.3989H44.4957V13.0259Z" fill="white"/>
</mask>
<g mask="url(#mask2_144_813)">
<path d="M32.7269 3.46387H52.0964V30.3851H32.7269V3.46387Z" fill="#4A87A8"/>
</g>
<mask id="mask3_144_813" style="mask-type:luminance" maskUnits="userSpaceOnUse" x="51" y="5" width="11" height="23">
<path d="M56.5587 26.1677C56.5587 27.0504 56.1174 27.5407 55.1857 27.5407H52.6848C51.8022 27.5407 51.3608 27.0994 51.3608 26.1677V7.72989C51.3608 6.79819 51.8022 6.35686 52.6848 6.35686H55.1857C56.1664 6.35686 56.5587 6.79819 56.5587 7.82796C57.3433 6.9453 58.6183 5.91553 60.1384 5.91553C61.1192 5.91553 61.2172 6.55301 61.2172 7.04337V9.20099C61.2172 10.3779 60.2365 10.525 59.2558 10.6231C57.6375 10.8192 56.5587 12.1922 56.5587 14.2027V26.1677Z" fill="white"/>
</mask>
<g mask="url(#mask3_144_813)">
<path d="M48.909 3.46387H63.6691V29.9928H48.909V3.46387Z" fill="#4A87A8"/>
</g>
<mask id="mask4_144_813" style="mask-type:luminance" maskUnits="userSpaceOnUse" x="62" y="5" width="16" height="23">
<path d="M72.3975 13.3684C72.3975 11.7012 71.662 10.4262 70.1418 10.4262C68.6217 10.4262 67.8861 11.6521 67.8861 13.3684V26.2161C67.8861 27.0987 67.4448 27.5891 66.5131 27.5891H64.0122C63.1296 27.5891 62.6882 27.1478 62.6882 26.2161V7.72919C62.6882 6.79749 63.1296 6.35616 64.0122 6.35616H66.5131C67.3958 6.35616 67.8861 6.79749 67.8861 7.72919C67.8861 7.72919 69.2592 5.96387 71.9071 5.96387C75.7811 5.96387 77.5954 8.90607 77.5954 13.4175V26.2651C77.5954 27.1478 77.1541 27.6381 76.2224 27.6381H73.7215C72.8389 27.6381 72.3975 27.1968 72.3975 26.2651V13.3684Z" fill="white"/>
</mask>
<g mask="url(#mask4_144_813)">
<path d="M60.1873 3.46289H79.9982V29.9918H60.1873V3.46289Z" fill="#4A87A8"/>
</g>
<mask id="mask5_144_813" style="mask-type:luminance" maskUnits="userSpaceOnUse" x="79" y="5" width="16" height="23">
<path d="M82.2049 10.4759C81.7146 10.4759 81.1261 10.2308 81.1261 9.44618V8.31833C81.1261 6.55301 83.7251 5.91553 86.226 5.91553C89.7076 5.91553 94.2189 6.79819 94.2189 12.6336V26.1187C94.2189 27.0504 93.7776 27.4917 92.895 27.4917H90.9825C90.1489 27.4917 89.7076 27.0994 89.6095 26.4129C89.5114 26.56 88.2365 27.884 85.8827 27.884C82.0088 27.884 79.3118 24.8928 79.3118 21.0679C79.3118 14.6441 84.1174 12.7807 89.0211 12.2413C88.923 10.8192 88.3836 9.83847 86.1279 9.83847C83.8722 9.83847 82.9895 10.4759 82.2049 10.4759ZM86.7654 23.3236C88.2365 23.3236 89.0211 22.0977 89.0211 20.5285V16.1152C86.7163 16.6546 84.4606 17.4392 84.4606 20.5285C84.5097 22.0486 85.1962 23.3236 86.7654 23.3236Z" fill="white"/>
</mask>
<g mask="url(#mask5_144_813)">
<path d="M76.8599 3.46387H96.6708V30.3851H76.8599V3.46387Z" fill="#4A87A8"/>
</g>
<mask id="mask6_144_813" style="mask-type:luminance" maskUnits="userSpaceOnUse" x="95" y="0" width="10" height="29">
<path d="M96.7689 10.9658H96.3275C95.4449 10.9658 95.0035 10.5245 95.0035 9.59278V7.77842C95.0035 6.89576 95.4449 6.40539 96.3275 6.40539H96.7689V3.41415C96.7689 2.53149 96.916 1.55075 97.9948 1.25653L100.103 0.619051C101.28 0.275793 101.918 0.717124 101.918 1.84497V6.40539H103.634C104.517 6.40539 104.958 6.84672 104.958 7.77842V9.59278C104.958 10.4754 104.517 10.9658 103.634 10.9658H101.918V22.0972C101.918 23.176 102.506 23.5192 103.291 23.5192H103.83C104.419 23.5192 104.811 23.7154 104.811 24.6471V26.0691C104.811 27.4422 103.438 28.0306 102.016 28.0306C99.3678 28.0306 96.7198 26.5105 96.7198 22.8327V10.9658" fill="white"/>
</mask>
<g mask="url(#mask6_144_813)">
<path d="M92.5517 -1.93066H107.41V30.4826H92.5517V-1.93066Z" fill="#4A87A8"/>
</g>
<mask id="mask7_144_813" style="mask-type:luminance" maskUnits="userSpaceOnUse" x="106" y="0" width="6" height="28">
<path d="M111.97 3.16863C111.97 4.05129 111.529 4.54166 110.597 4.54166H108.096C107.214 4.54166 106.772 4.10033 106.772 3.16863V1.4033C106.772 0.471604 107.214 0.0302734 108.096 0.0302734H110.597C111.529 0.0302734 111.97 0.471604 111.97 1.4033V3.16863ZM111.97 26.0688C111.97 26.9515 111.529 27.4418 110.597 27.4418H108.096C107.214 27.4418 106.772 27.0005 106.772 26.0688V7.63097C106.772 6.69928 107.214 6.25794 108.096 6.25794H110.597C111.529 6.25794 111.97 6.69928 111.97 7.63097V26.0688Z" fill="white"/>
</mask>
<g mask="url(#mask7_144_813)">
<path d="M104.321 -2.42139H114.422V29.8939H104.321V-2.42139Z" fill="#4A87A8"/>
</g>
<mask id="mask8_144_813" style="mask-type:luminance" maskUnits="userSpaceOnUse" x="113" y="6" width="17" height="22">
<path d="M128.643 6.40479C129.525 6.40479 130.163 7.04226 129.771 8.21915L123.984 26.2647C123.788 26.9512 123.298 27.6377 122.268 27.6377H120.454C119.424 27.6377 118.933 27.0002 118.737 26.2647L113.294 8.21915C112.951 7.04226 113.539 6.40479 114.422 6.40479H116.629C117.707 6.40479 118.198 6.94419 118.394 7.77782L121.581 19.4486L125.014 7.77782C125.259 6.89515 125.7 6.40479 126.779 6.40479H128.643Z" fill="white"/>
</mask>
<g mask="url(#mask8_144_813)">
<path d="M110.695 3.95312H132.369V30.0897H110.695V3.95312Z" fill="#4A87A8"/>
</g>
<mask id="mask9_144_813" style="mask-type:luminance" maskUnits="userSpaceOnUse" x="130" y="5" width="15" height="23">
<path d="M144.776 17.0959C144.776 17.9786 144.335 18.4689 143.452 18.4689H135.508V19.94C135.508 22.2448 136.538 23.4707 138.99 23.4707C140.657 23.4707 141.294 22.7842 142.373 22.7842C143.354 22.7842 143.697 23.5688 143.697 24.1572V24.7947C143.697 26.511 142.079 27.9821 138.646 27.9821C133.203 27.9821 130.31 24.6966 130.31 19.4987V13.0259C130.31 8.66159 133.399 5.91553 137.518 5.91553C141.687 5.91553 144.727 8.66159 144.727 13.0259V17.0959H144.776ZM139.627 13.0259C139.627 11.0644 138.842 10.0837 137.567 10.0837C136.293 10.0837 135.557 11.0644 135.557 13.0259V14.3989H139.676V13.0259H139.627Z" fill="white"/>
</mask>
<g mask="url(#mask9_144_813)">
<path d="M127.858 3.46387H147.228V30.3851H127.858V3.46387Z" fill="#4A87A8"/>
</g>
<mask id="mask10_144_813" style="mask-type:luminance" maskUnits="userSpaceOnUse" x="141" y="0" width="17" height="28">
<path d="M157.673 1.4033V3.36477C157.673 4.24744 157.231 4.7378 156.299 4.7378H152.867C152.328 4.7378 152.082 5.03203 152.082 5.57143V26.0688C152.082 26.9515 151.641 27.4418 150.758 27.4418H148.061C147.13 27.4418 146.688 27.0005 146.688 26.0688V5.57143C146.688 5.03203 146.394 4.7378 145.904 4.7378H142.471C141.539 4.7378 141.098 4.29647 141.098 3.36477V1.4033C141.098 0.471604 141.539 0.0302734 142.471 0.0302734H156.299C157.231 0.0302734 157.673 0.471604 157.673 1.4033Z" fill="white"/>
</mask>
<g mask="url(#mask10_144_813)">
<path d="M138.646 -2.42139H160.124V29.8939H138.646V-2.42139Z" fill="#4A87A8"/>
</g>
<mask id="mask11_144_813" style="mask-type:luminance" maskUnits="userSpaceOnUse" x="0" y="5" width="16" height="23">
<path d="M3.74611 10.4759C3.25574 10.4759 2.6673 10.2308 2.6673 9.44618V8.31833C2.6673 6.55301 5.26625 5.91553 7.81616 5.91553C11.2978 5.91553 15.8092 6.79819 15.8092 12.6336V26.1187C15.8092 27.0504 15.3678 27.4917 14.4852 27.4917H12.5727C11.7391 27.4917 11.2978 27.0994 11.1997 26.4129C11.1016 26.56 9.82667 27.884 7.4729 27.884C3.54996 27.933 0.852936 24.9418 0.852936 21.1169C0.852936 14.6931 5.65854 12.8297 10.6113 12.2903C10.5132 10.8682 9.97378 9.83847 7.71809 9.83847C5.41336 9.83847 4.53069 10.4759 3.74611 10.4759ZM8.30653 23.3236C9.77763 23.3236 10.5622 22.0977 10.5622 20.5285V16.1152C8.25749 16.6546 6.0018 17.4392 6.0018 20.5285C6.05083 22.0486 6.73735 23.3236 8.30653 23.3236Z" fill="white"/>
</mask>
<g mask="url(#mask11_144_813)">
<path d="M-1.59891 3.46387H18.212V30.3851H-1.59891V3.46387Z" fill="#4A87A8"/>
</g>
<mask id="mask12_144_813" style="mask-type:luminance" maskUnits="userSpaceOnUse" x="154" y="5" width="16" height="23">
<path d="M154.338 12.9278C154.338 8.02411 158.016 5.91553 161.743 5.91553C165.469 5.91553 169.147 8.02411 169.147 12.9278V20.9698C169.147 25.8735 165.469 27.9821 161.743 27.9821C158.016 27.9821 154.338 25.8735 154.338 20.9698V12.9278ZM159.536 20.9698C159.536 22.588 160.419 23.4217 161.792 23.4217C163.165 23.4217 164.047 22.539 164.047 20.9698V12.9278C164.047 11.3096 163.165 10.4759 161.792 10.4759C160.419 10.4759 159.536 11.3586 159.536 12.9278V20.9698Z" fill="white"/>
</mask>
<g mask="url(#mask12_144_813)">
<path d="M151.886 3.46387H171.648V30.3851H151.886V3.46387Z" fill="#4A87A8"/>
</g>
</svg>
