<svg width="182" height="40" viewBox="0 0 182 40" fill="none" xmlns="http://www.w3.org/2000/svg">
<path d="M0.502106 14.7072H17.0923H27.1768V4.71924L0.502106 14.7072Z" fill="#FF9D28"/>
<path d="M27.1768 4.71937V40L39.7779 0L27.1768 4.71937Z" fill="#68C5ED"/>
<path d="M27.1768 14.7134H17.0923L27.1768 40V14.7134Z" fill="#044D80"/>
<path d="M0.502106 14.7075L19.6753 21.2012L17.0863 14.7136H0.502106V14.7075Z" fill="#E54747"/>
<path d="M61.6126 30.7122C61.4677 30.857 61.2203 31.0381 60.8823 31.2614C60.5383 31.4786 60.0978 31.7019 59.5486 31.9192C58.9994 32.1365 58.3295 32.3296 57.5389 32.4865C56.7483 32.6434 55.8371 32.7219 54.8171 32.7219C52.8437 32.7219 51.1418 32.402 49.6995 31.7744C48.2631 31.1407 47.0742 30.2596 46.1388 29.125C45.2034 27.9904 44.5154 26.6506 44.0748 25.1057C43.6343 23.5607 43.417 21.8588 43.417 20.0061C43.417 18.1534 43.6524 16.4454 44.1292 14.8703C44.6059 13.3012 45.318 11.9433 46.2655 10.7967C47.213 9.65003 48.4019 8.75685 49.8262 8.11111C51.2505 7.46536 52.9282 7.14551 54.8473 7.14551C55.7948 7.14551 56.6578 7.23 57.4243 7.39898C58.1907 7.56796 58.8606 7.77315 59.4339 8.00248C60.0072 8.23181 60.478 8.47924 60.8582 8.73271C61.2324 8.98618 61.522 9.20344 61.7152 9.37242C61.9324 9.56554 62.1195 9.80091 62.2824 10.0664C62.4394 10.332 62.5178 10.6277 62.5178 10.9415C62.5178 11.4304 62.3368 11.9132 61.9686 12.402C61.6005 12.8908 61.2022 13.3374 60.7616 13.7538C60.4719 13.4642 60.14 13.1624 59.7779 12.8607C59.4098 12.5589 59.0054 12.2873 58.5528 12.058C58.1002 11.8287 57.5932 11.6295 57.0199 11.4726C56.4466 11.3157 55.8069 11.2372 55.1008 11.2372C53.8576 11.2372 52.8196 11.4847 51.9747 11.9856C51.1358 12.4865 50.4599 13.1383 49.9469 13.9409C49.4339 14.7436 49.0718 15.6669 48.8485 16.6989C48.6313 17.7369 48.5226 18.787 48.5226 19.8613C48.5226 21.0079 48.6313 22.1002 48.8485 23.1503C49.0658 24.2004 49.446 25.1238 49.9831 25.9264C50.5202 26.7291 51.2203 27.3748 52.0833 27.8637C52.9463 28.3525 54.0266 28.5939 55.318 28.5939C56 28.5939 56.6276 28.5094 57.201 28.3404C57.7743 28.1715 58.2812 27.9663 58.7158 27.7188C59.1563 27.4774 59.5365 27.2179 59.8684 26.9524C60.1943 26.6868 60.4719 26.4515 60.6892 26.2584C60.834 26.4273 61.003 26.6386 61.2022 26.88C61.4013 27.1274 61.5824 27.3809 61.7514 27.6464C61.9203 27.912 62.0652 28.1835 62.1919 28.4491C62.3126 28.7206 62.373 28.962 62.373 29.1793C62.373 29.4992 62.3126 29.7647 62.1919 29.982C62.0712 30.1992 61.8721 30.4467 61.6065 30.7122H61.6126ZM80.4418 27.912C80.4418 29.8492 80.7254 31.2553 81.2867 32.1365C80.8461 32.3054 80.4357 32.4322 80.0555 32.5046C79.6753 32.577 79.277 32.6132 78.8606 32.6132C77.9795 32.6132 77.3096 32.4442 76.857 32.1002C76.4043 31.7562 76.1147 31.2674 75.994 30.6277C75.4569 31.195 74.7447 31.6718 73.8636 32.064C72.9825 32.4563 71.9022 32.6494 70.6288 32.6494C69.965 32.6494 69.3072 32.5589 68.6433 32.3718C67.9795 32.1908 67.382 31.889 66.8389 31.4726C66.3018 31.0562 65.8612 30.501 65.5172 29.8069C65.1732 29.1129 65.0042 28.262 65.0042 27.2602C65.0042 26.017 65.306 24.997 65.9034 24.2185C66.5069 23.434 67.2553 22.8184 68.1666 22.3658C69.0718 21.9132 70.0555 21.6054 71.1056 21.4304C72.1617 21.2614 73.1273 21.1527 74.0085 21.0984C74.3042 21.0743 74.5878 21.0622 74.8715 21.0622H75.662V20.3923C75.662 19.4509 75.4086 18.781 74.9077 18.3827C74.4068 17.9844 73.592 17.7852 72.4635 17.7852C71.4074 17.7852 70.4719 17.9542 69.6512 18.2982C68.8304 18.6422 68.0278 19.0345 67.2432 19.475C66.8992 19.0586 66.6216 18.5999 66.4164 18.099C66.2112 17.5981 66.1026 17.224 66.1026 16.9765C66.1026 16.6325 66.2897 16.3006 66.6699 15.9868C67.0501 15.6669 67.5691 15.3833 68.233 15.1238C68.8968 14.8643 69.6512 14.6591 70.5142 14.4961C71.3712 14.3392 72.2764 14.2547 73.236 14.2547C74.5576 14.2547 75.6801 14.3875 76.5975 14.6591C77.5148 14.9307 78.2631 15.3471 78.8365 15.9083C79.4098 16.4756 79.8202 17.1757 80.0676 18.0206C80.315 18.8655 80.4357 19.8552 80.4357 20.9777V27.8878L80.4418 27.912ZM75.7345 23.6452H75.2215C75.0465 23.6452 74.8775 23.6573 74.7085 23.6814C74.0929 23.7297 73.4894 23.8021 72.8859 23.9047C72.2824 24.0013 71.7514 24.1763 71.2867 24.4177C70.822 24.6651 70.4418 24.9789 70.1461 25.3712C69.8503 25.7635 69.7055 26.2644 69.7055 26.88C69.7055 27.568 69.9046 28.1473 70.2909 28.6241C70.6832 29.1008 71.347 29.3422 72.2764 29.3422C72.7411 29.3422 73.1817 29.2819 73.5981 29.1612C74.0145 29.0405 74.3826 28.8776 74.7025 28.6844C75.0223 28.4853 75.2698 28.2741 75.4569 28.0387C75.6379 27.8094 75.7345 27.5921 75.7345 27.3929V23.6452ZM89.5908 16.4032C89.9831 15.9385 90.5926 15.4678 91.4255 14.991C92.2583 14.5142 93.3084 14.2728 94.5757 14.2728C95.481 14.2728 96.338 14.4237 97.1587 14.7315C97.9735 15.0393 98.7037 15.5342 99.3374 16.2222C99.971 16.9101 100.478 17.8154 100.858 18.9439C101.238 20.0725 101.425 21.4545 101.425 23.096C101.425 25.0091 101.208 26.5843 100.768 27.8214C100.327 29.0586 99.7598 30.0423 99.0658 30.7605C98.3718 31.4847 97.5933 31.9916 96.7363 32.2873C95.8793 32.583 95.0284 32.7279 94.1714 32.7279C93.4653 32.7279 92.8437 32.6494 92.3187 32.4865C91.7936 32.3296 91.347 32.1485 90.9789 31.9554C90.6107 31.7623 90.3331 31.5631 90.134 31.37C89.9409 31.1769 89.8141 31.0381 89.7658 30.9657V40.0001H84.7689V14.7858C84.8896 14.7617 85.0404 14.7375 85.2155 14.7134C85.3663 14.6893 85.5353 14.6712 85.7345 14.6591C85.9336 14.647 86.169 14.641 86.4345 14.641C87.2492 14.641 87.9433 14.7738 88.5106 15.0453C89.0779 15.3169 89.44 15.7695 89.5848 16.4032H89.5908ZM96.2052 23.2047C96.2052 22.4684 96.1448 21.7864 96.0241 21.1467C95.9034 20.507 95.6983 19.9578 95.4206 19.4931C95.143 19.0284 94.7628 18.6663 94.2861 18.4068C93.8093 18.1473 93.2299 18.0206 92.548 18.0206C91.522 18.0206 90.8099 18.2197 90.4116 18.606C90.0133 18.9983 89.8081 19.4267 89.8081 19.8914V27.6826C90.0012 27.8818 90.3512 28.1111 90.8521 28.3827C91.3531 28.6543 91.9324 28.787 92.5902 28.787C93.8334 28.787 94.7447 28.2982 95.3301 27.3145C95.9155 26.3368 96.2052 24.9608 96.2052 23.1986V23.2047ZM105.282 29.5293C105.107 29.0405 104.998 28.5275 104.95 27.9844C104.902 27.4473 104.877 26.9041 104.877 26.367V9.31207C105.046 9.28793 105.234 9.26379 105.427 9.23965C105.596 9.21551 105.783 9.19741 105.976 9.18534C106.169 9.17327 106.368 9.16723 106.561 9.16723C106.954 9.16723 107.346 9.20344 107.738 9.27586C108.13 9.34828 108.486 9.49916 108.806 9.71642C109.126 9.93971 109.38 10.2354 109.579 10.6156C109.778 10.9958 109.874 11.4907 109.874 12.1063V14.7134H115.022V18.4249H109.874V26.2644C109.874 27.9723 110.575 28.8293 111.969 28.8293C112.313 28.8293 112.639 28.775 112.94 28.6663C113.248 28.5577 113.52 28.437 113.767 28.2982C114.014 28.1654 114.226 28.0206 114.413 27.8757C114.594 27.7309 114.727 27.6162 114.799 27.5438C115.167 28.0809 115.451 28.5517 115.644 28.9439C115.837 29.3362 115.94 29.7104 115.94 30.0544C115.94 30.3742 115.813 30.6941 115.553 31.0019C115.294 31.3097 114.932 31.5933 114.467 31.8528C114.002 32.1123 113.435 32.3235 112.777 32.4804C112.113 32.6434 111.395 32.7219 110.611 32.7219C109.09 32.7219 107.907 32.4261 107.062 31.8407C106.217 31.2553 105.62 30.4829 105.282 29.5233V29.5293ZM127.684 29.0526C128.299 29.0526 128.836 28.9862 129.307 28.8534C129.772 28.7206 130.194 28.5517 130.562 28.3585C130.931 28.1654 131.25 27.9482 131.522 27.7128C131.794 27.4774 132.041 27.2662 132.258 27.0671C132.554 27.4352 132.862 27.9059 133.182 28.4792C133.502 29.0586 133.658 29.5293 133.658 29.8975C133.658 30.4346 133.351 30.9295 132.741 31.37C132.228 31.7623 131.498 32.1002 130.556 32.3839C129.615 32.6675 128.505 32.8063 127.231 32.8063C126.078 32.8063 124.944 32.6615 123.833 32.3658C122.717 32.0701 121.727 31.5571 120.858 30.8208C119.989 30.0846 119.283 29.1008 118.746 27.8637C118.209 26.6265 117.937 25.0634 117.937 23.1745C117.937 21.6295 118.179 20.3018 118.655 19.1853C119.132 18.0689 119.772 17.1455 120.568 16.4092C121.365 15.673 122.264 15.1359 123.272 14.7919C124.274 14.4479 125.306 14.2789 126.362 14.2789C127.732 14.2789 128.897 14.4961 129.856 14.9246C130.81 15.3531 131.588 15.9325 132.192 16.6506C132.789 17.3748 133.224 18.2016 133.495 19.131C133.767 20.0604 133.9 21.0441 133.9 22.0701V22.583C133.9 22.7822 133.894 22.9874 133.882 23.2107C133.87 23.434 133.858 23.6452 133.846 23.8564C133.833 24.0677 133.815 24.2306 133.791 24.3513H122.946C123.043 25.6971 123.465 26.8196 124.202 27.7128C124.938 28.606 126.109 29.0526 127.708 29.0526H127.684ZM129.362 21.5933C129.362 20.4165 129.132 19.4629 128.68 18.7267C128.221 17.9904 127.406 17.6223 126.223 17.6223C125.215 17.6223 124.407 17.9723 123.803 18.6724C123.2 19.3724 122.898 20.3441 122.898 21.5933H129.368H129.362ZM142.584 16.5058C142.729 16.2885 142.928 16.0411 143.17 15.7756C143.417 15.51 143.713 15.2626 144.069 15.0453C144.425 14.8281 144.817 14.641 145.246 14.4961C145.674 14.3513 146.133 14.2789 146.622 14.2789C146.917 14.2789 147.225 14.303 147.557 14.3513C147.889 14.3996 148.197 14.4901 148.474 14.6229C148.758 14.7556 148.981 14.9367 149.156 15.1721C149.325 15.4014 149.416 15.6911 149.416 16.029C149.416 16.5661 149.283 17.1757 149.011 17.8697C148.74 18.5637 148.474 19.1552 148.203 19.644C147.786 19.3 147.37 19.0405 146.954 18.8534C146.537 18.6724 146.048 18.5758 145.481 18.5758C144.721 18.5758 144.087 18.7991 143.568 19.2397C143.055 19.6802 142.795 20.2113 142.795 20.8269V32.7279H137.798V14.7919C137.919 14.7677 138.07 14.7436 138.239 14.7194C138.384 14.6953 138.559 14.6772 138.752 14.6651C138.945 14.6531 139.18 14.647 139.452 14.647C140.237 14.647 140.919 14.7979 141.492 15.0996C142.065 15.4014 142.427 15.8721 142.578 16.4998L142.584 16.5058ZM156.797 16.5058C156.941 16.2885 157.141 16.0411 157.382 15.7756C157.629 15.51 157.925 15.2626 158.281 15.0453C158.637 14.8281 159.03 14.641 159.458 14.4961C159.887 14.3513 160.345 14.2789 160.834 14.2789C161.13 14.2789 161.438 14.303 161.769 14.3513C162.101 14.3996 162.409 14.4901 162.687 14.6229C162.97 14.7556 163.194 14.9367 163.369 15.1721C163.538 15.4014 163.628 15.6911 163.628 16.029C163.628 16.5661 163.495 17.1757 163.224 17.8697C162.952 18.5637 162.687 19.1552 162.415 19.644C161.999 19.3 161.582 19.0405 161.166 18.8534C160.75 18.6724 160.261 18.5758 159.693 18.5758C158.933 18.5758 158.299 18.7991 157.78 19.2397C157.267 19.6802 157.008 20.2113 157.008 20.8269V32.7279H152.011V14.7919C152.132 14.7677 152.282 14.7436 152.451 14.7194C152.596 14.6953 152.771 14.6772 152.964 14.6651C153.158 14.6531 153.393 14.647 153.664 14.647C154.449 14.647 155.131 14.7979 155.704 15.0996C156.278 15.4014 156.64 15.8721 156.791 16.4998L156.797 16.5058ZM180.653 27.918C180.653 29.8552 180.937 31.2614 181.498 32.1425C181.057 32.3115 180.647 32.4382 180.267 32.5106C179.887 32.583 179.488 32.6193 179.072 32.6193C178.191 32.6193 177.521 32.4503 177.068 32.1063C176.616 31.7623 176.326 31.2734 176.205 30.6337C175.668 31.201 174.956 31.6778 174.075 32.0701C173.194 32.4623 172.113 32.6555 170.84 32.6555C170.176 32.6555 169.518 32.5649 168.855 32.3779C168.191 32.1968 167.593 31.8951 167.056 31.4786C166.519 31.0622 166.078 30.507 165.734 29.813C165.39 29.119 165.221 28.268 165.221 27.2662C165.221 26.023 165.523 25.0031 166.121 24.2246C166.718 23.44 167.473 22.8244 168.384 22.3718C169.289 21.9192 170.273 21.6114 171.323 21.4364C172.379 21.2674 173.345 21.1588 174.226 21.1045C174.521 21.0803 174.805 21.0683 175.089 21.0683H175.879V20.3984C175.879 19.4569 175.626 18.787 175.125 18.3887C174.624 17.9904 173.809 17.7913 172.681 17.7913C171.625 17.7913 170.689 17.9602 169.868 18.3042C169.048 18.6482 168.245 19.0405 167.46 19.4811C167.116 19.0646 166.839 18.606 166.634 18.1051C166.428 17.6042 166.32 17.23 166.32 16.9826C166.32 16.6386 166.507 16.3066 166.887 15.9928C167.267 15.673 167.786 15.3893 168.45 15.1298C169.114 14.8703 169.868 14.6651 170.731 14.5022C171.588 14.3453 172.494 14.2608 173.453 14.2608C174.775 14.2608 175.897 14.3935 176.815 14.6651C177.732 14.9367 178.48 15.3531 179.054 15.9144C179.627 16.4817 180.037 17.1817 180.285 18.0266C180.532 18.8715 180.653 19.8613 180.653 20.9838V27.8938V27.918ZM175.946 23.6512H175.433C175.258 23.6512 175.089 23.6633 174.92 23.6875C174.304 23.7357 173.701 23.8082 173.097 23.9107C172.494 24.0073 171.963 24.1823 171.498 24.4237C171.033 24.6712 170.653 24.985 170.357 25.3773C170.062 25.7695 169.917 26.2704 169.917 26.886C169.917 27.574 170.116 28.1534 170.502 28.6301C170.888 29.1069 171.558 29.3483 172.488 29.3483C172.952 29.3483 173.393 29.2879 173.809 29.1672C174.226 29.0465 174.594 28.8836 174.914 28.6905C175.234 28.4913 175.481 28.2801 175.668 28.0447C175.849 27.8154 175.946 27.5981 175.946 27.399V23.6512Z" fill="#044D80"/>
</svg>
