<svg width="127" height="28" viewBox="0 0 127 28" fill="none" xmlns="http://www.w3.org/2000/svg">
<path d="M0.0498047 10.2953H11.663H18.7221V3.30371L0.0498047 10.2953Z" fill="#FF9D28"/>
<path d="M18.7221 3.30356V28L27.5429 0L18.7221 3.30356Z" fill="#68C5ED"/>
<path d="M18.7221 10.2993H11.663L18.7221 28V10.2993Z" fill="#044D80"/>
<path d="M0.0498047 10.2949L13.471 14.8405L11.6587 10.2991H0.0498047V10.2949Z" fill="#E54747"/>
<path d="M42.8271 21.4986C42.7258 21.6 42.5526 21.7268 42.316 21.8831C42.0752 22.0351 41.7668 22.1915 41.3824 22.3435C40.9979 22.4956 40.529 22.6308 39.9756 22.7406C39.4222 22.8505 38.7843 22.9054 38.0704 22.9054C36.6889 22.9054 35.4976 22.6815 34.488 22.2421C33.4825 21.7986 32.6503 21.1818 31.9955 20.3876C31.3407 19.5934 30.8591 18.6555 30.5507 17.5741C30.2424 16.4926 30.0903 15.3013 30.0903 14.0044C30.0903 12.7074 30.255 11.5119 30.5888 10.4093C30.9225 9.31095 31.421 8.36043 32.0842 7.55778C32.7475 6.75512 33.5797 6.1299 34.5767 5.67787C35.5737 5.22585 36.7481 5.00195 38.0915 5.00195C38.7547 5.00195 39.3588 5.0611 39.8953 5.17938C40.4319 5.29767 40.9008 5.4413 41.3021 5.60183C41.7034 5.76236 42.0329 5.93557 42.2991 6.113C42.561 6.29043 42.7638 6.44251 42.899 6.56079C43.051 6.69598 43.182 6.86073 43.2961 7.04661C43.4059 7.23249 43.4608 7.43949 43.4608 7.65916C43.4608 8.00135 43.3341 8.33931 43.0764 8.68149C42.8187 9.02368 42.5399 9.33629 42.2315 9.62778C42.0287 9.42501 41.7964 9.21378 41.5429 9.00256C41.2852 8.79133 41.0022 8.60123 40.6853 8.4407C40.3685 8.28017 40.0136 8.14076 39.6123 8.03092C39.211 7.92108 38.7632 7.86617 38.2689 7.86617C37.3987 7.86617 36.672 8.03937 36.0806 8.39C35.4934 8.74064 35.0203 9.19688 34.6612 9.75874C34.3021 10.3206 34.0486 10.967 33.8923 11.6893C33.7402 12.416 33.6642 13.151 33.6642 13.903C33.6642 14.7056 33.7402 15.4703 33.8923 16.2053C34.0444 16.9404 34.3105 17.5867 34.6865 18.1486C35.0625 18.7105 35.5526 19.1625 36.1567 19.5047C36.7608 19.8469 37.5169 20.0158 38.421 20.0158C38.8984 20.0158 39.3377 19.9567 39.739 19.8384C40.1404 19.7201 40.4952 19.5765 40.7994 19.4033C41.1078 19.2343 41.3739 19.0526 41.6063 18.8668C41.8344 18.6809 42.0287 18.5161 42.1808 18.381C42.2822 18.4992 42.4005 18.6471 42.5399 18.8161C42.6793 18.9893 42.806 19.1667 42.9243 19.3526C43.0426 19.5385 43.144 19.7286 43.2327 19.9144C43.3172 20.1045 43.3594 20.2735 43.3594 20.4256C43.3594 20.6495 43.3172 20.8354 43.2327 20.9875C43.1482 21.1396 43.0088 21.3128 42.8229 21.4986H42.8271ZM56.0076 19.5385C56.0076 20.8945 56.2061 21.8788 56.599 22.4956C56.2906 22.6139 56.0034 22.7026 55.7372 22.7533C55.4711 22.804 55.1923 22.8294 54.9008 22.8294C54.284 22.8294 53.8151 22.7111 53.4982 22.4703C53.1814 22.2295 52.9786 21.8873 52.8941 21.4395C52.5182 21.8366 52.0197 22.1703 51.4029 22.4449C50.7861 22.7195 50.0299 22.8547 49.1385 22.8547C48.6739 22.8547 48.2134 22.7913 47.7487 22.6604C47.284 22.5336 46.8658 22.3224 46.4856 22.0309C46.1096 21.7394 45.8012 21.3508 45.5604 20.865C45.3196 20.3791 45.2013 19.7835 45.2013 19.0822C45.2013 18.212 45.4125 17.498 45.8308 16.9531C46.2532 16.4039 46.7771 15.973 47.415 15.6561C48.0486 15.3393 48.7372 15.1239 49.4723 15.0013C50.2116 14.8831 50.8875 14.807 51.5043 14.769C51.7113 14.7521 51.9098 14.7437 52.1084 14.7437H52.6618V14.2747C52.6618 13.6157 52.4844 13.1468 52.1337 12.868C51.7831 12.5892 51.2128 12.4498 50.4228 12.4498C49.6835 12.4498 49.0287 12.568 48.4542 12.8088C47.8797 13.0496 47.3178 13.3242 46.7686 13.6326C46.5278 13.3411 46.3335 13.0201 46.1898 12.6694C46.0462 12.3188 45.9702 12.0569 45.9702 11.8837C45.9702 11.6429 46.1011 11.4105 46.3673 11.1908C46.6334 10.967 46.9967 10.7684 47.4614 10.5867C47.9261 10.4051 48.4542 10.2615 49.0583 10.1474C49.6582 10.0376 50.2918 9.97842 50.9635 9.97842C51.8887 9.97842 52.6745 10.0714 53.3166 10.2615C53.9587 10.4516 54.4825 10.7431 54.8839 11.1359C55.2852 11.533 55.5725 12.0231 55.7457 12.6145C55.9189 13.2059 56.0034 13.8988 56.0034 14.6845V19.5216L56.0076 19.5385ZM52.7125 16.5517H52.3534C52.2309 16.5517 52.1126 16.5602 51.9943 16.5771C51.5634 16.6109 51.141 16.6616 50.7185 16.7334C50.2961 16.801 49.9243 16.9235 49.599 17.0925C49.2737 17.2657 49.0076 17.4854 48.8006 17.76C48.5936 18.0345 48.4922 18.3852 48.4922 18.8161C48.4922 19.2977 48.6316 19.7032 48.902 20.037C49.1766 20.3707 49.6413 20.5397 50.2918 20.5397C50.6171 20.5397 50.9255 20.4974 51.217 20.4129C51.5085 20.3284 51.7662 20.2144 51.9901 20.0792C52.214 19.9398 52.3872 19.7919 52.5182 19.6272C52.6449 19.4666 52.7125 19.3146 52.7125 19.1752V16.5517ZM62.4119 11.4823C62.6865 11.1571 63.1132 10.8275 63.6962 10.4938C64.2792 10.1601 65.0142 9.99109 65.9014 9.99109C66.5351 9.99109 67.1349 10.0967 67.7095 10.3122C68.2798 10.5276 68.7909 10.874 69.2345 11.3556C69.6781 11.8372 70.0329 12.4709 70.2991 13.2609C70.5652 14.0508 70.6962 15.0182 70.6962 16.1673C70.6962 17.5065 70.5441 18.6091 70.2357 19.4751C69.9273 20.3411 69.5302 21.0297 69.0444 21.5324C68.5586 22.0394 68.0136 22.3942 67.4137 22.6012C66.8139 22.8082 66.2182 22.9096 65.6183 22.9096C65.1241 22.9096 64.6889 22.8547 64.3214 22.7406C63.9539 22.6308 63.6413 22.5041 63.3836 22.3689C63.1259 22.2337 62.9316 22.0943 62.7921 21.9591C62.657 21.8239 62.5682 21.7268 62.5345 21.6761V28.0001H59.0366V10.3502C59.1211 10.3333 59.2267 10.3164 59.3492 10.2995C59.4548 10.2826 59.5731 10.2699 59.7125 10.2615C59.8519 10.253 60.0166 10.2488 60.2025 10.2488C60.7728 10.2488 61.2586 10.3417 61.6558 10.5318C62.0529 10.7219 62.3063 11.0388 62.4077 11.4823H62.4119ZM67.042 16.2434C67.042 15.728 66.9997 15.2506 66.9153 14.8028C66.8308 14.355 66.6871 13.9706 66.4928 13.6453C66.2985 13.32 66.0323 13.0665 65.6986 12.8849C65.3649 12.7032 64.9593 12.6145 64.4819 12.6145C63.7638 12.6145 63.2653 12.7539 62.9865 13.0243C62.7076 13.2989 62.564 13.5988 62.564 13.9241V19.3779C62.6992 19.5173 62.9442 19.6779 63.2949 19.868C63.6455 20.0581 64.051 20.151 64.5115 20.151C65.3818 20.151 66.0197 19.8088 66.4294 19.1202C66.8392 18.4359 67.042 17.4727 67.042 16.2391V16.2434ZM73.3956 20.6706C73.2731 20.3284 73.1971 19.9694 73.1633 19.5892C73.1295 19.2132 73.1126 18.833 73.1126 18.457V6.51855C73.2309 6.50165 73.3618 6.48475 73.497 6.46786C73.6153 6.45096 73.7463 6.43828 73.8815 6.42983C74.0166 6.42139 74.1561 6.41716 74.2912 6.41716C74.5658 6.41716 74.8404 6.44251 75.115 6.4932C75.3896 6.5439 75.6389 6.64951 75.8628 6.80159C76.0867 6.9579 76.2641 7.1649 76.4035 7.43104C76.5429 7.69719 76.6105 8.04359 76.6105 8.47449V10.2995H80.214V12.8975H76.6105V18.3852C76.6105 19.5807 77.1005 20.1806 78.0764 20.1806C78.3172 20.1806 78.5453 20.1426 78.7565 20.0665C78.972 19.9905 79.1621 19.906 79.3353 19.8088C79.5085 19.7159 79.6564 19.6145 79.7873 19.5131C79.914 19.4117 80.007 19.3315 80.0577 19.2808C80.3154 19.6568 80.5139 19.9863 80.6491 20.2609C80.7843 20.5354 80.8561 20.7974 80.8561 21.0382C80.8561 21.2621 80.7674 21.486 80.5857 21.7014C80.4041 21.9169 80.1506 22.1154 79.8253 22.2971C79.5 22.4787 79.1029 22.6266 78.6425 22.7364C78.1778 22.8505 77.6751 22.9054 77.1259 22.9054C76.0613 22.9054 75.2333 22.6984 74.6419 22.2886C74.0504 21.8788 73.6322 21.3381 73.3956 20.6664V20.6706ZM89.077 20.3369C89.5079 20.3369 89.8839 20.2904 90.2134 20.1975C90.5387 20.1045 90.8344 19.9863 91.0921 19.8511C91.3498 19.7159 91.5737 19.5638 91.7638 19.3991C91.9539 19.2343 92.1271 19.0864 92.2792 18.947C92.4862 19.2047 92.7016 19.5342 92.9255 19.9356C93.1494 20.3411 93.2593 20.6706 93.2593 20.9283C93.2593 21.3043 93.0438 21.6507 92.6171 21.9591C92.258 22.2337 91.7469 22.4703 91.0879 22.6688C90.4288 22.8674 89.6515 22.9645 88.7602 22.9645C87.9533 22.9645 87.1591 22.8631 86.3818 22.6561C85.6002 22.4491 84.9074 22.0901 84.2991 21.5747C83.6908 21.0593 83.1965 20.3707 82.8205 19.5047C82.4445 18.6386 82.2544 17.5445 82.2544 16.2222C82.2544 15.1408 82.4234 14.2114 82.7571 13.4298C83.0909 12.6483 83.5387 12.002 84.0963 11.4866C84.6539 10.9712 85.2834 10.5952 85.9889 10.3544C86.6901 10.1136 87.4125 9.99532 88.1518 9.99532C89.1108 9.99532 89.9261 10.1474 90.5978 10.4473C91.2653 10.7473 91.8102 11.1528 92.2327 11.6555C92.6509 12.1625 92.9551 12.7412 93.1452 13.3918C93.3353 14.0424 93.4282 14.731 93.4282 15.4491V15.8082C93.4282 15.9476 93.424 16.0913 93.4156 16.2476C93.4071 16.4039 93.3987 16.5517 93.3902 16.6996C93.3818 16.8475 93.3691 16.9615 93.3522 17.046H85.7608C85.8284 17.9881 86.1241 18.7738 86.6395 19.3991C87.1548 20.0243 87.9744 20.3369 89.0939 20.3369H89.077ZM90.2514 15.1154C90.2514 14.2916 90.0909 13.6242 89.774 13.1088C89.453 12.5934 88.8827 12.3357 88.0547 12.3357C87.3492 12.3357 86.7831 12.5807 86.3606 13.0708C85.9382 13.5608 85.727 14.2409 85.727 15.1154H90.2556H90.2514ZM99.5073 11.5542C99.6087 11.4021 99.7481 11.2289 99.9171 11.043C100.09 10.8571 100.297 10.6839 100.547 10.5318C100.796 10.3797 101.07 10.2488 101.37 10.1474C101.67 10.046 101.991 9.99532 102.333 9.99532C102.54 9.99532 102.756 10.0122 102.988 10.046C103.221 10.0798 103.436 10.1432 103.63 10.2361C103.829 10.3291 103.985 10.4558 104.108 10.6205C104.226 10.7811 104.289 10.9838 104.289 11.2204C104.289 11.5964 104.196 12.0231 104.006 12.5089C103.816 12.9947 103.63 13.4087 103.44 13.7509C103.149 13.5101 102.857 13.3284 102.566 13.1975C102.274 13.0708 101.932 13.0032 101.535 13.0032C101.003 13.0032 100.559 13.1595 100.196 13.4679C99.8368 13.7762 99.6551 14.148 99.6551 14.5789V22.9096H96.1573V10.3544C96.2418 10.3375 96.3474 10.3206 96.4656 10.3037C96.567 10.2868 96.6895 10.2741 96.8247 10.2657C96.9599 10.2572 97.1247 10.253 97.3148 10.253C97.864 10.253 98.3413 10.3586 98.7427 10.5698C99.144 10.7811 99.3975 11.1106 99.5031 11.5499L99.5073 11.5542ZM109.456 11.5542C109.557 11.4021 109.697 11.2289 109.866 11.043C110.039 10.8571 110.246 10.6839 110.495 10.5318C110.744 10.3797 111.019 10.2488 111.319 10.1474C111.619 10.046 111.94 9.99532 112.282 9.99532C112.489 9.99532 112.705 10.0122 112.937 10.046C113.169 10.0798 113.385 10.1432 113.579 10.2361C113.778 10.3291 113.934 10.4558 114.056 10.6205C114.175 10.7811 114.238 10.9838 114.238 11.2204C114.238 11.5964 114.145 12.0231 113.955 12.5089C113.765 12.9947 113.579 13.4087 113.389 13.7509C113.098 13.5101 112.806 13.3284 112.515 13.1975C112.223 13.0708 111.881 13.0032 111.484 13.0032C110.951 13.0032 110.508 13.1595 110.145 13.4679C109.785 13.7762 109.604 14.148 109.604 14.5789V22.9096H106.106V10.3544C106.19 10.3375 106.296 10.3206 106.414 10.3037C106.516 10.2868 106.638 10.2741 106.773 10.2657C106.909 10.2572 107.073 10.253 107.263 10.253C107.813 10.253 108.29 10.3586 108.691 10.5698C109.093 10.7811 109.346 11.1106 109.452 11.5499L109.456 11.5542ZM126.155 19.5427C126.155 20.8988 126.354 21.8831 126.747 22.4998C126.438 22.6181 126.151 22.7068 125.885 22.7575C125.619 22.8082 125.34 22.8336 125.049 22.8336C124.432 22.8336 123.963 22.7153 123.646 22.4745C123.329 22.2337 123.126 21.8915 123.042 21.4437C122.666 21.8408 122.168 22.1746 121.551 22.4491C120.934 22.7237 120.178 22.8589 119.286 22.8589C118.822 22.8589 118.361 22.7956 117.897 22.6646C117.432 22.5379 117.014 22.3266 116.638 22.0351C116.262 21.7437 115.953 21.355 115.712 20.8692C115.472 20.3834 115.353 19.7877 115.353 19.0864C115.353 18.2162 115.565 17.5023 115.983 16.9573C116.401 16.4081 116.929 15.9772 117.567 15.6604C118.201 15.3435 118.889 15.1281 119.624 15.0056C120.364 14.8873 121.04 14.8112 121.656 14.7732C121.863 14.7563 122.062 14.7479 122.26 14.7479H122.814V14.279C122.814 13.6199 122.636 13.151 122.286 12.8722C121.935 12.5934 121.365 12.454 120.575 12.454C119.836 12.454 119.181 12.5723 118.606 12.8131C118.032 13.0539 117.47 13.3284 116.921 13.6368C116.68 13.3453 116.486 13.0243 116.342 12.6736C116.198 12.323 116.122 12.0611 116.122 11.8879C116.122 11.6471 116.253 11.4147 116.519 11.1951C116.786 10.9712 117.149 10.7726 117.614 10.591C118.078 10.4093 118.606 10.2657 119.21 10.1516C119.81 10.0418 120.444 9.98264 121.116 9.98264C122.041 9.98264 122.827 10.0756 123.469 10.2657C124.111 10.4558 124.635 10.7473 125.036 11.1402C125.437 11.5373 125.725 12.0273 125.898 12.6187C126.071 13.2102 126.155 13.903 126.155 14.6887V19.5258V19.5427ZM122.86 16.556H122.501C122.379 16.556 122.26 16.5644 122.142 16.5813C121.711 16.6151 121.289 16.6658 120.866 16.7376C120.444 16.8052 120.072 16.9277 119.747 17.0967C119.422 17.2699 119.155 17.4896 118.948 17.7642C118.741 18.0388 118.64 18.3894 118.64 18.8203C118.64 19.3019 118.779 19.7074 119.05 20.0412C119.32 20.3749 119.789 20.5439 120.44 20.5439C120.765 20.5439 121.073 20.5017 121.365 20.4172C121.656 20.3327 121.914 20.2186 122.138 20.0834C122.362 19.944 122.535 19.7962 122.666 19.6314C122.793 19.4709 122.86 19.3188 122.86 19.1794V16.556Z" fill="white"/>
</svg>
