<svg width="56" height="56" viewBox="0 0 56 56" fill="none" xmlns="http://www.w3.org/2000/svg">
<g clip-path="url(#clip0_144_794)">
<path d="M28 56C43.464 56 56 43.464 56 28C56 12.536 43.464 0 28 0C12.536 0 0 12.536 0 28C0 43.464 12.536 56 28 56Z" fill="#252530"/>
<path d="M40.1184 21.4481H35.336C35.4648 20.6977 35.9296 20.2777 36.8704 19.8017L37.7496 19.3537C39.3232 18.5473 40.1632 17.6345 40.1632 16.1449C40.1632 15.2097 39.7992 14.4705 39.0768 13.9385C38.3544 13.4065 37.5032 13.1433 36.5064 13.1433C35.7353 13.1343 34.9782 13.3503 34.328 13.7649C33.6728 14.1681 33.1856 14.6889 32.8832 15.3385L34.2664 16.7273C34.804 15.6409 35.5824 15.1089 36.6072 15.1089C37.4752 15.1089 38.0072 15.5569 38.0072 16.1785C38.0072 16.6993 37.7496 17.1305 36.7528 17.6345L36.1872 17.9089C34.9608 18.5305 34.1096 19.2417 33.6168 20.0481C33.124 20.8545 32.8832 21.8681 32.8832 23.0945V23.4305H40.1184V21.4481Z" fill="white"/>
<path d="M39.48 25.7153H31.5616L27.6024 32.5697H35.5208L39.48 39.4297L43.4392 32.5697L39.48 25.7153Z" fill="white"/>
<path d="M28.2856 37.145C23.2456 37.145 19.1408 33.0402 19.1408 28.0002C19.1408 22.9602 23.2456 18.8554 28.2856 18.8554L31.416 12.309C30.3851 12.104 29.3366 12.0008 28.2856 12.001C19.4488 12.001 12.2864 19.1634 12.2864 28.0002C12.2864 36.837 19.4488 43.9994 28.2856 43.9994C31.672 44.0057 34.972 42.9306 37.7048 40.9306L34.244 34.9274C32.5883 36.3576 30.4735 37.1447 28.2856 37.145Z" fill="white"/>
</g>
<defs>
<clipPath id="clip0_144_794">
<rect width="56" height="56" fill="white"/>
</clipPath>
</defs>
</svg>
