<svg width="16" height="17" viewBox="0 0 16 17" fill="none" xmlns="http://www.w3.org/2000/svg">
<path d="M7.66406 0.585938C7.73438 0.515625 7.83984 0.480469 7.98047 0.480469C8.08594 0.480469 8.19141 0.515625 8.26172 0.585938L15.6094 7.96875C15.6797 8.03906 15.75 8.14453 15.75 8.25C15.75 8.39062 15.6797 8.46094 15.6094 8.53125L8.26172 15.9141C8.19141 15.9844 8.08594 16.0195 7.98047 16.0195C7.83984 16.0195 7.73438 15.9844 7.66406 15.9141L6.96094 15.2109C6.89062 15.1406 6.85547 15.0703 6.85547 14.9297C6.85547 14.8242 6.89062 14.7188 6.96094 14.6133L12.4102 9.16406H0.421875C0.28125 9.16406 0.175781 9.12891 0.105469 9.05859C0.0351562 8.98828 0 8.88281 0 8.74219V7.75781C0 7.65234 0.0351562 7.54688 0.105469 7.47656C0.175781 7.40625 0.28125 7.33594 0.421875 7.33594H12.4102L6.96094 1.88672C6.89062 1.81641 6.85547 1.71094 6.85547 1.57031C6.85547 1.46484 6.89062 1.35938 6.96094 1.28906L7.66406 0.585938Z" fill="#644C94"/>
</svg>
