<svg width="114" height="44" viewBox="0 0 114 44" fill="none" xmlns="http://www.w3.org/2000/svg">
<path d="M9.11384 13.7173C8.8938 13.7173 8.83879 13.6071 8.94881 13.4418L10.104 11.9538C10.214 11.7884 10.4891 11.6782 10.7091 11.6782H30.3476C30.5677 11.6782 30.6227 11.8436 30.5127 12.0089L29.5775 13.4418C29.4675 13.6071 29.1924 13.7724 29.0274 13.7724L9.11384 13.7173Z" fill="#2DBCAF"/>
<path d="M0.807442 18.7874C0.587403 18.7874 0.532392 18.6772 0.642412 18.5118L1.79762 17.0238C1.90764 16.8585 2.18269 16.7483 2.40273 16.7483H27.4872C27.7072 16.7483 27.8173 16.9136 27.7623 17.079L27.3222 18.4016C27.2672 18.6221 27.0471 18.7323 26.8271 18.7323L0.807442 18.7874Z" fill="#2DBCAF"/>
<path d="M14.1199 23.8577C13.8999 23.8577 13.8449 23.6924 13.9549 23.527L14.7251 22.1493C14.8351 21.9839 15.0551 21.8186 15.2751 21.8186H26.2771C26.4972 21.8186 26.6072 21.9839 26.6072 22.2044L26.4972 23.527C26.4972 23.7475 26.2771 23.9128 26.1121 23.9128L14.1199 23.8577Z" fill="#2DBCAF"/>
<path d="M71.22 12.7253C67.7544 13.6071 65.3889 14.2684 61.9783 15.1502C61.1532 15.3706 61.0982 15.4257 60.383 14.5991C59.5579 13.6622 58.9528 13.056 57.7976 12.5049C54.332 10.7964 50.9764 11.2924 47.8408 13.3315C44.1001 15.7564 42.1748 19.3386 42.2298 23.8026C42.2848 28.2115 45.3104 31.8489 49.6561 32.4551C53.3968 32.9511 56.5324 31.6284 59.0078 28.8177C59.5029 28.2115 59.943 27.5502 60.4931 26.7786C58.5127 26.7786 56.0373 26.7786 49.8762 26.7786C48.721 26.7786 48.4459 26.0622 48.831 25.1253C49.5461 23.4169 50.8663 20.5511 51.6365 19.1182C51.8015 18.7875 52.1866 18.2364 53.0117 18.2364C55.8172 18.2364 66.1591 18.2364 73.0353 18.2364C72.9253 19.7244 72.9253 21.2124 72.7052 22.7004C72.1001 26.6684 70.6149 30.3057 68.1944 33.5022C64.2337 38.7377 59.0628 41.9893 52.5166 42.8711C47.1257 43.5875 42.1198 42.5404 37.719 39.2337C33.6483 36.1475 31.3379 32.0693 30.7327 26.9991C30.0176 20.992 31.7779 15.5911 35.4086 10.8515C39.3143 5.72618 44.4852 2.47463 50.8113 1.31729C55.9823 0.380404 60.9331 0.986627 65.3889 4.01774C68.3045 5.94663 70.3948 8.59196 71.7701 11.7884C72.1001 12.2844 71.8801 12.56 71.22 12.7253Z" fill="#2DBCAF"/>
<path d="M89.4281 43.2017C84.4222 43.0915 79.8564 41.6586 76.0057 38.3519C72.7601 35.5412 70.7248 31.959 70.0646 27.7155C69.0745 21.4879 70.7798 15.9768 74.5204 11.0719C78.5362 5.78123 83.377 3.02567 89.9232 1.86834C95.5342 0.876339 100.815 1.42745 105.601 4.679C109.947 7.655 112.642 11.6781 113.357 16.9688C114.293 24.4088 112.147 30.471 107.031 35.6515C103.401 39.3439 98.9448 41.6586 93.8289 42.7057C92.3436 42.9812 90.8583 43.0363 89.4281 43.2017ZM102.52 20.9368C102.465 20.2203 102.465 19.6692 102.355 19.1181C101.365 13.6621 96.3593 10.5759 91.1334 11.7883C86.0175 12.9457 82.7169 16.1972 81.5067 21.3777C80.5165 25.6763 82.6069 30.0301 86.5676 31.7937C89.5931 33.1163 92.6187 32.951 95.5342 31.463C99.88 29.2035 102.245 25.6763 102.52 20.9368Z" fill="#2DBCAF"/>
</svg>
