<svg width="47" height="88" viewBox="0 0 47 88" fill="none" xmlns="http://www.w3.org/2000/svg">
<path d="M45.0199 69.3856H44.6907V69.2002H45.5773V69.3856H45.25V70.3109H45.0199V69.3856ZM46.7882 69.434H46.783L46.4566 70.3112H46.3072L45.9831 69.434H45.9792V70.3112H45.7621V69.2005H46.0815L46.3821 69.987L46.6817 69.2005H46.9999V70.3112H46.788L46.7882 69.434Z" fill="#E76F00"/>
<path d="M15.5392 46.6738C15.5392 46.6738 13.2479 48.015 17.1698 48.4688C21.9211 49.0144 24.3494 48.9362 29.5853 47.9387C29.5853 47.9387 30.9618 48.8075 32.8843 49.56C21.1468 54.6235 6.32002 49.2667 15.5392 46.6738ZM14.105 40.0662C14.105 40.0662 11.5351 41.9809 15.4599 42.3896C20.5353 42.9166 24.5435 42.9597 31.4792 41.6154C31.4792 41.6154 32.4386 42.5944 33.9471 43.1297C19.7555 47.3067 3.94892 43.4591 14.105 40.0662Z" fill="#5382A1"/>
<path d="M26.1961 28.8575C29.0883 32.2091 25.4364 35.2253 25.4364 35.2253C25.4364 35.2253 32.7797 31.4094 29.4073 26.631C26.2574 22.1747 23.8418 19.9608 36.9186 12.3269C36.9188 12.3267 16.3924 17.4869 26.1961 28.8575Z" fill="#E76F00"/>
<path d="M41.7199 51.561C41.7199 51.561 43.4155 52.9674 39.8526 54.0552C33.0775 56.1211 11.6541 56.7449 5.70273 54.1377C3.56338 53.2007 7.57527 51.9006 8.83726 51.6278C10.1534 51.3406 10.9055 51.3941 10.9055 51.3941C8.52633 49.7071 -4.47253 54.7065 4.30273 56.1385C28.2341 60.045 47.9276 54.3794 41.7199 51.561ZM16.6409 33.2198C16.6409 33.2198 5.74362 35.8251 12.7819 36.7712C15.7537 37.1717 21.6779 37.0811 27.196 36.6157C31.7058 36.2327 36.2343 35.4187 36.2343 35.4187C36.2343 35.4187 34.6441 36.1042 33.4936 36.8948C22.4276 39.8245 1.05007 38.4615 7.20438 35.4649C12.4091 32.9325 16.6409 33.2198 16.6409 33.2198ZM36.1894 44.2185C47.4385 38.3346 42.2375 32.6801 38.607 33.442C37.7172 33.6284 37.3205 33.7899 37.3205 33.7899C37.3205 33.7899 37.651 33.2691 38.2816 33.0436C45.4636 30.5021 50.9869 40.5395 35.9632 44.5152C35.9632 44.5152 36.1375 44.3587 36.1894 44.2185Z" fill="#5382A1"/>
<path d="M29.4074 0C29.4074 0 35.6373 6.27283 23.4985 15.9191C13.7645 23.6568 21.2789 28.0687 23.4945 33.1096C17.8127 27.9493 13.6429 23.4069 16.4404 19.1791C20.5461 12.9732 31.921 9.96428 29.4074 0Z" fill="#E76F00"/>
<path d="M17.7465 60.1626C28.5442 60.8584 45.1254 59.7766 45.518 54.634C45.518 54.634 44.7633 56.5835 36.5942 58.1319C27.3782 59.8775 16.0113 59.6738 9.26953 58.555C9.26985 58.5547 10.6498 59.7046 17.7465 60.1626Z" fill="#5382A1"/>
<path d="M15.9768 79.8136C14.9582 80.7029 13.8824 81.2021 12.9169 81.2021C11.5389 81.2021 10.7944 80.3704 10.7944 79.0364C10.7944 77.5933 11.5922 76.5383 14.7924 76.5383H15.9766L15.9768 79.8136ZM18.7875 83.0056V73.1248C18.7875 70.6005 17.3572 68.9351 13.9089 68.9351C11.8957 68.9351 10.1323 69.4355 8.69898 70.0736L9.11269 71.8226C10.2412 71.4057 11.702 71.0176 13.1357 71.0176C15.1222 71.0176 15.9768 71.8227 15.9768 73.4871V74.736H14.9853C10.1589 74.736 7.98177 76.6219 7.98177 79.4523C7.98177 81.8953 9.41652 83.2838 12.1179 83.2838C13.8544 83.2838 15.1507 82.562 16.3624 81.506L16.5823 83.006L18.7875 83.0056ZM28.1676 83.0056H24.6622L20.4433 69.1853H23.5048L26.1225 77.6764L26.7044 80.2302C28.0288 76.5379 28.9656 72.792 29.4341 69.1853H32.4121C31.614 73.7361 30.1783 78.7314 28.1676 83.0056ZM41.6156 79.8136C40.595 80.7029 39.5174 81.2021 38.5518 81.2021C37.1762 81.2021 36.4298 80.3704 36.4298 79.0364C36.4298 77.5933 37.2292 76.5383 40.4292 76.5383H41.6156V79.8136ZM44.4259 83.0056V73.1248C44.4259 70.6005 42.9923 68.9351 39.5477 68.9351C37.5332 68.9351 35.7691 69.4355 34.3365 70.0736L34.7497 71.8226C35.8785 71.4057 37.342 71.0176 38.7747 71.0176C40.7597 71.0176 41.6156 71.8227 41.6156 73.4871V74.736H40.6223C35.7947 74.736 33.6183 76.6219 33.6183 79.4523C33.6183 81.8953 35.0519 83.2838 37.7528 83.2838C39.4904 83.2838 40.7862 82.562 41.9999 81.506L42.2206 83.006L44.4259 83.0056ZM4.89992 85.3525C4.09868 86.53 2.80453 87.4616 1.38772 87.9887L0 86.3449C1.0784 85.7879 2.00328 84.8884 2.43299 84.0506C2.80469 83.3054 2.95854 82.345 2.95854 80.0483V64.2703H5.94471V79.8321C5.94455 82.9025 5.70069 84.1429 4.89992 85.3525Z" fill="#E76F00"/>
</svg>
