<svg width="110" height="67" viewBox="0 0 110 67" fill="none" xmlns="http://www.w3.org/2000/svg">
<path d="M52.4675 35.4695V22.2411L41.0176 15.6313L29.5676 22.2411V35.4695L41.0176 42.0837L52.4675 35.4695Z" fill="#3B8739"/>
<path d="M99.7978 30.1417V27.5729L97.5592 26.2886L95.3162 27.5729V30.1417L97.5592 31.426L99.7978 30.1417Z" fill="#66A060"/>
<path d="M41.0153 15.6313L52.4675 35.4695L41.0153 42.0837L29.5676 22.2456L41.0153 15.6313Z" fill="#6DA75D"/>
<path d="M29.5676 35.4703L33.5027 29.0563L29.5676 22.2441V35.4703Z" fill="#55A344"/>
<path d="M48.6402 28.8575L52.4675 22.2422L40.9902 15.6313L48.6402 28.8575Z" fill="#639D57"/>
<path d="M60.1983 51.7981C60.1983 51.7981 59.9722 49.8673 57.9058 49.8673C55.8394 49.8673 54.4241 50.1386 54.4241 51.2826C54.4241 52.4266 58.4439 52.4266 59.9722 52.8788C61.5005 53.3264 62.848 54.4975 62.1742 56.5639C61.5005 58.6303 59.4341 58.8564 56.2418 58.8564C53.0495 58.8564 52.3306 56.2067 52.3306 55.1713H54.1302C54.1302 55.1713 53.9041 56.79 56.0157 57.0568C58.1274 57.3236 60.1485 57.4773 60.4198 55.845C60.7816 53.6882 53.5876 54.7643 52.9591 52.6527C52.4255 50.8666 52.733 48.5199 56.3277 48.1582C59.9225 47.7964 61.8984 49.388 61.8984 51.7529L60.1983 51.7981Z" fill="#66A060"/>
<path d="M42.8306 60.2222L46.8051 62.5147C48.8037 63.6677 51.2997 62.2253 51.2997 59.9192V48.4975H49.6809V59.4671C49.6809 60.7241 48.3199 61.5154 47.2256 60.8824L44.4538 59.2817V47.5751L54.5914 41.724L64.729 47.5751V59.2817L54.5914 65.1327L51.6704 63.4461L49.7623 64.2148L54.5914 67.0002L66.3478 60.2131V46.6391L54.5914 39.8521L42.8351 46.6391L42.8306 60.2222Z" fill="#66A060"/>
<path fill-rule="evenodd" clip-rule="evenodd" d="M23.4582 22.3662C23.4582 21.9117 23.2185 21.4942 22.8261 21.2682L12.3602 15.2487C12.1851 15.1468 11.9875 15.0899 11.785 15.0832H11.6767C11.4761 15.0907 11.2782 15.145 11.0985 15.2487L0.633058 21.2682C0.440635 21.3801 0.280924 21.5405 0.169846 21.7334C0.0587692 21.9263 0.000207432 22.1449 0 22.3674L0.0229798 38.5807C0.0229798 38.8055 0.139115 39.0155 0.336791 39.1266C0.529525 39.2452 0.771678 39.2452 0.964412 39.1266L7.18627 35.5648C7.57915 35.3311 7.81883 34.9182 7.81883 34.4681V26.8937C7.81838 26.6719 7.87652 26.4539 7.98738 26.2618C8.09823 26.0697 8.25787 25.9102 8.45016 25.7995L11.099 24.2745C11.2911 24.163 11.5094 24.1043 11.7316 24.1046C11.948 24.1046 12.1689 24.1604 12.3602 24.2743L15.0078 25.7988C15.3997 26.0235 15.6404 26.441 15.6404 26.893V34.4669C15.6404 34.9164 15.8833 35.3314 16.2742 35.5636L22.4921 39.1229C22.5877 39.1799 22.697 39.21 22.8084 39.21C22.9197 39.21 23.029 39.1799 23.1246 39.1229C23.2199 39.067 23.2989 38.9873 23.3538 38.8915C23.4087 38.7958 23.4378 38.6874 23.438 38.577L23.4582 22.3662ZM72.8446 30.8078C72.8446 30.9206 72.7846 31.0251 72.6865 31.0809L69.0917 33.1523C69.0437 33.1799 68.9893 33.1944 68.934 33.1944C68.8786 33.1944 68.8242 33.1799 68.7762 33.1523L65.181 31.0809C65.0821 31.0249 65.0228 30.9204 65.0228 30.8078V26.6591C65.0228 26.546 65.0821 26.4417 65.1785 26.3849L68.7712 24.3101C68.8701 24.2533 68.9912 24.2533 69.09 24.3101L72.6852 26.3849C72.7841 26.4417 72.8434 26.546 72.8434 26.6591L72.8446 30.8078ZM73.8157 0.0799868C73.7194 0.0264215 73.6107 -0.0011337 73.5005 3.57299e-05C73.3903 0.00120516 73.2823 0.0310588 73.1871 0.0866559C72.9944 0.200278 72.8753 0.407761 72.8753 0.632535V16.6878C72.8754 16.7654 72.855 16.8417 72.8162 16.909C72.7775 16.9762 72.7216 17.0321 72.6544 17.0709C72.5871 17.1097 72.5108 17.1301 72.4332 17.1301C72.3555 17.1301 72.2793 17.1095 72.212 17.0706L69.5904 15.5612C69.3984 15.4503 69.1805 15.3919 68.9588 15.3919C68.737 15.3919 68.5192 15.4503 68.3272 15.5612L57.8578 21.6012C57.6657 21.7116 57.5061 21.8706 57.3951 22.0623C57.2841 22.254 57.2255 22.4715 57.2252 22.6929V34.7764C57.2252 35.2284 57.4667 35.6434 57.8578 35.8706L68.3272 41.9148C68.7181 42.1396 69.1995 42.1396 69.5916 41.9148L80.061 35.8681C80.4514 35.6409 80.6936 35.2259 80.6936 34.7739V4.65919C80.6932 4.43403 80.6328 4.21303 80.5186 4.01896C80.4044 3.82489 80.2404 3.66477 80.0437 3.55508L73.8157 0.0799868ZM108.679 26.5499C108.87 26.4387 109.029 26.2793 109.139 26.0877C109.249 25.896 109.307 25.6788 109.307 25.4577V22.5292C109.307 22.0786 109.068 21.6629 108.678 21.4362L98.2754 15.3994C98.0828 15.2878 97.8642 15.229 97.6416 15.229C97.419 15.229 97.2003 15.2878 97.0078 15.3994L86.5408 21.4387C86.148 21.6659 85.9083 22.0809 85.9083 22.5329V34.6114C85.9083 35.0659 86.1529 35.4858 86.5458 35.7105L96.946 41.6362C97.329 41.856 97.7985 41.8585 98.1864 41.6436L104.477 38.1485C104.675 38.0373 104.801 37.8274 104.801 37.6001C104.801 37.3729 104.68 37.1605 104.482 37.0493L93.9512 31.0076C93.7535 30.8964 93.6325 30.6865 93.6325 30.4617V26.6727C93.6325 26.4464 93.7511 26.2379 93.9488 26.1253L97.2252 24.2357C97.4204 24.1221 97.6601 24.1221 97.8553 24.2357L101.134 26.1253C101.329 26.2365 101.451 26.4464 101.451 26.6712V29.6501C101.451 29.8748 101.572 30.0848 101.767 30.1984C101.962 30.3096 102.204 30.3096 102.399 30.1959L108.679 26.5499Z" fill="#333333"/>
</svg>
