<svg width="164" height="70" viewBox="0 0 164 70" fill="none" xmlns="http://www.w3.org/2000/svg">
<path d="M118.154 11.2432L135.444 20.7246V40.803L118.154 31.0427V11.2432Z" fill="url(#paint0_linear)"/>
<path d="M153.291 10.6851L135.444 20.3454V40.8026L153.291 30.8581V10.6851Z" fill="url(#paint1_linear)"/>
<path fill-rule="evenodd" clip-rule="evenodd" d="M135.281 0.752155C135.436 0.665848 135.625 0.665266 135.78 0.750614L143.824 5.15958L143.827 5.16093L153.537 10.4144C153.704 10.5047 153.808 10.6792 153.808 10.8689V30.903C153.808 31.0904 153.706 31.2631 153.543 31.3543L135.784 41.2541C135.626 41.3421 135.433 41.3412 135.276 41.2517L117.898 31.352C117.737 31.26 117.637 31.0886 117.637 30.903V10.8689C117.637 10.6813 117.739 10.5085 117.903 10.4173L135.281 0.752155ZM142.544 5.63634L135.534 1.79398L119.213 10.8711L126.833 15.1502L142.544 5.63634ZM127.868 15.7316L135.535 20.0368L152.212 10.8724L143.593 6.20937L127.868 15.7316ZM152.774 11.7424L136.049 20.9335V39.9231L152.774 30.5994V11.7424ZM135.015 39.9137V20.9303L118.671 11.7517V30.6026L135.015 39.9137Z" fill="#C2BCCF"/>
<path d="M111.213 59.5997C111.604 59.5997 111.946 59.5491 112.24 59.4478C112.54 59.3465 112.788 59.2043 112.986 59.021C113.188 58.8329 113.34 58.6111 113.441 58.3555C113.543 58.095 113.593 57.8081 113.593 57.4946C113.593 56.8628 113.396 56.3661 113 56.0044C112.609 55.6427 112.014 55.4618 111.213 55.4618H109.607V59.5997H111.213ZM111.213 54.2537C111.879 54.2537 112.458 54.3309 112.949 54.4852C113.441 54.6395 113.849 54.859 114.172 55.1435C114.495 55.4232 114.734 55.7632 114.888 56.1635C115.047 56.5638 115.127 57.0075 115.127 57.4946C115.127 57.9817 115.043 58.4302 114.874 58.8401C114.705 59.2453 114.457 59.5949 114.129 59.8891C113.801 60.1833 113.391 60.4124 112.899 60.5763C112.412 60.7355 111.85 60.8151 111.213 60.8151H109.607V64.6419H108.066V54.2537H111.213Z" fill="#24272A" fill-opacity="0.6"/>
<path d="M125.891 59.4478C125.891 60.2243 125.765 60.9308 125.515 61.5674C125.269 62.204 124.919 62.7514 124.466 63.2096C124.012 63.6629 123.47 64.015 122.838 64.2657C122.206 64.5165 121.505 64.6419 120.733 64.6419H116.826V54.2537H120.733C121.505 54.2537 122.206 54.3791 122.838 54.6299C123.47 54.8807 124.012 55.2351 124.466 55.6933C124.919 56.1466 125.269 56.694 125.515 57.3355C125.765 57.9721 125.891 58.6762 125.891 59.4478ZM124.314 59.4478C124.314 58.8305 124.229 58.2783 124.061 57.7912C123.892 57.2993 123.651 56.8845 123.337 56.5469C123.029 56.2045 122.652 55.9441 122.209 55.7656C121.77 55.5872 121.278 55.498 120.733 55.498H118.375V63.3976H120.733C121.278 63.3976 121.77 63.3084 122.209 63.13C122.652 62.9515 123.029 62.6935 123.337 62.3559C123.651 62.0135 123.892 61.5988 124.061 61.1117C124.229 60.6246 124.314 60.0699 124.314 59.4478Z" fill="#24272A" fill-opacity="0.6"/>
<path d="M129.381 55.5052V58.9848H133.548V60.2363H129.381V64.6419H127.833V54.2537H134.271V55.5052H129.381Z" fill="#24272A" fill-opacity="0.6"/>
<path d="M141.191 55.9465C141.143 56.0285 141.092 56.0888 141.039 56.1274C140.986 56.1659 140.918 56.1852 140.836 56.1852C140.75 56.1852 140.651 56.1466 140.54 56.0695C140.429 55.9875 140.289 55.8983 140.12 55.8018C139.956 55.7005 139.759 55.6113 139.527 55.5342C139.296 55.4522 139.018 55.4112 138.695 55.4112C138.391 55.4112 138.124 55.4522 137.892 55.5342C137.666 55.6113 137.475 55.7198 137.321 55.8597C137.166 55.9947 137.048 56.1563 136.966 56.3444C136.889 56.5276 136.85 56.7278 136.85 56.9448C136.85 57.2245 136.92 57.456 137.06 57.6393C137.205 57.8225 137.393 57.9793 137.625 58.1095C137.856 58.2397 138.119 58.3531 138.413 58.4495C138.707 58.546 139.009 58.6472 139.317 58.7533C139.626 58.8546 139.927 58.9728 140.222 59.1078C140.516 59.2428 140.779 59.4141 141.01 59.6214C141.242 59.824 141.427 60.0748 141.567 60.3738C141.712 60.668 141.784 61.0297 141.784 61.4589C141.784 61.9171 141.705 62.3463 141.545 62.7466C141.391 63.1469 141.164 63.4965 140.865 63.7955C140.566 64.0945 140.197 64.3308 139.759 64.5045C139.325 64.6733 138.83 64.7577 138.276 64.7577C137.943 64.7577 137.62 64.7239 137.306 64.6564C136.993 64.5937 136.696 64.5045 136.416 64.3887C136.137 64.2681 135.874 64.1259 135.628 63.9619C135.387 63.7931 135.17 63.605 134.977 63.3976L135.418 62.6598C135.462 62.6019 135.512 62.5537 135.57 62.5151C135.633 62.4765 135.703 62.4572 135.78 62.4572C135.881 62.4572 135.997 62.5103 136.127 62.6164C136.262 62.7225 136.426 62.8406 136.619 62.9708C136.817 63.0962 137.051 63.212 137.321 63.3181C137.596 63.4242 137.928 63.4772 138.319 63.4772C138.637 63.4772 138.922 63.4362 139.173 63.3542C139.423 63.2674 139.633 63.1469 139.802 62.9925C139.976 62.8334 140.108 62.6429 140.2 62.421C140.292 62.1992 140.337 61.9532 140.337 61.6832C140.337 61.3793 140.267 61.131 140.128 60.938C139.988 60.7451 139.802 60.5836 139.571 60.4534C139.339 60.3231 139.076 60.2122 138.782 60.1206C138.488 60.029 138.186 59.9349 137.878 59.8385C137.569 59.7372 137.268 59.6214 136.973 59.4912C136.679 59.361 136.416 59.1922 136.185 58.9848C135.953 58.7726 135.768 58.5098 135.628 58.1963C135.488 57.878 135.418 57.4874 135.418 57.0244C135.418 56.653 135.49 56.2937 135.635 55.9465C135.78 55.5993 135.99 55.293 136.265 55.0278C136.544 54.7577 136.887 54.5431 137.292 54.3839C137.697 54.22 138.16 54.138 138.681 54.138C139.264 54.138 139.8 54.232 140.287 54.4201C140.779 54.6034 141.205 54.8686 141.567 55.2159L141.191 55.9465Z" fill="#24272A" fill-opacity="0.6"/>
<path d="M144.68 58.2252C144.989 57.9118 145.329 57.6586 145.7 57.4657C146.076 57.2728 146.508 57.1763 146.995 57.1763C147.4 57.1763 147.755 57.2438 148.058 57.3789C148.367 57.5139 148.625 57.7044 148.832 57.9504C149.04 58.1915 149.197 58.4833 149.303 58.8257C149.409 59.1681 149.462 59.5467 149.462 59.9614V64.6419H148.044V59.9614C148.044 59.4358 147.923 59.0282 147.682 58.7389C147.441 58.4447 147.072 58.2976 146.575 58.2976C146.214 58.2976 145.874 58.3844 145.555 58.558C145.242 58.7268 144.95 58.9583 144.68 59.2525V64.6419H143.269V53.9644H144.68V58.2252Z" fill="#24272A" fill-opacity="0.6"/>
<path d="M152.841 57.292V64.6419H151.431V57.292H152.841ZM153.109 55.0205C153.109 55.1507 153.082 55.2761 153.029 55.3967C152.976 55.5125 152.904 55.6161 152.812 55.7078C152.725 55.7946 152.622 55.8645 152.501 55.9176C152.381 55.9658 152.255 55.9899 152.125 55.9899C151.995 55.9899 151.872 55.9658 151.756 55.9176C151.64 55.8645 151.537 55.7946 151.445 55.7078C151.358 55.6161 151.288 55.5125 151.235 55.3967C151.187 55.2761 151.163 55.1507 151.163 55.0205C151.163 54.8855 151.187 54.7601 151.235 54.6444C151.288 54.5238 151.358 54.4201 151.445 54.3333C151.537 54.2417 151.64 54.1717 151.756 54.1235C151.872 54.0705 151.995 54.0439 152.125 54.0439C152.255 54.0439 152.381 54.0705 152.501 54.1235C152.622 54.1717 152.725 54.2417 152.812 54.3333C152.904 54.4201 152.976 54.5238 153.029 54.6444C153.082 54.7601 153.109 54.8855 153.109 55.0205Z" fill="#24272A" fill-opacity="0.6"/>
<path d="M161.496 58.435V62.7393C161.496 63.0287 161.565 63.2457 161.705 63.3904C161.845 63.5303 162.028 63.6002 162.255 63.6002C162.385 63.6002 162.496 63.5833 162.588 63.5496C162.684 63.5158 162.766 63.4796 162.834 63.441C162.901 63.3976 162.959 63.3591 163.007 63.3253C163.056 63.2915 163.099 63.2747 163.138 63.2747C163.181 63.2747 163.217 63.2867 163.246 63.3108C163.275 63.3301 163.304 63.3639 163.333 63.4121L163.753 64.0921C163.521 64.3043 163.244 64.4683 162.921 64.584C162.602 64.6998 162.272 64.7577 161.93 64.7577C161.336 64.7577 160.878 64.5913 160.555 64.2585C160.237 63.9257 160.078 63.4507 160.078 62.8334V58.435H156.786V64.6419H155.368V58.4495L154.601 58.3555C154.49 58.3313 154.399 58.2928 154.327 58.2397C154.259 58.1818 154.225 58.0999 154.225 57.9938V57.4078H155.368V56.7423C155.368 56.3227 155.429 55.9489 155.549 55.621C155.67 55.293 155.841 55.0157 156.063 54.789C156.289 54.5576 156.559 54.3839 156.873 54.2682C157.191 54.1476 157.548 54.0873 157.944 54.0873C158.276 54.0873 158.583 54.1356 158.862 54.232L158.833 54.941C158.829 55.0037 158.809 55.0519 158.776 55.0856C158.742 55.1146 158.696 55.1363 158.638 55.1508C158.585 55.1652 158.517 55.1749 158.436 55.1797C158.358 55.1797 158.274 55.1797 158.182 55.1797C157.965 55.1797 157.768 55.2062 157.589 55.2593C157.411 55.3123 157.259 55.4015 157.133 55.5269C157.008 55.6523 156.912 55.8187 156.844 56.0261C156.776 56.2286 156.743 56.4818 156.743 56.7857V57.4078H160.128L160.454 55.2014C160.468 55.1194 160.502 55.0567 160.555 55.0133C160.613 54.9651 160.685 54.941 160.772 54.941H161.496V57.4078H163.579V58.435H161.496Z" fill="#24272A" fill-opacity="0.6"/>
<path d="M89.1527 35.7008C89.298 35.7008 89.4433 35.7735 89.5523 35.8825C89.6613 35.9915 89.734 36.1368 89.734 36.2821V37.4448C89.734 37.6264 89.6613 37.7717 89.5523 37.8807C89.4433 37.9897 89.298 38.0261 89.1527 38.0261H83.9208V43.2579C83.9208 43.4395 83.8482 43.5849 83.7392 43.6939C83.6302 43.8029 83.4849 43.8392 83.3395 43.8392H82.1769C81.9952 43.8392 81.8499 43.8029 81.7409 43.6939C81.6319 43.5849 81.5956 43.4395 81.5956 43.2579V38.0261H76.3638C76.1821 38.0261 76.0368 37.9897 75.9278 37.8807C75.8188 37.7717 75.7825 37.6264 75.7825 37.4448V36.2821C75.7825 36.1368 75.8188 35.9915 75.9278 35.8825C76.0368 35.7735 76.1821 35.7008 76.3638 35.7008H81.5956V30.469C81.5956 30.3237 81.6319 30.1784 81.7409 30.0694C81.8499 29.9604 81.9952 29.8877 82.1769 29.8877H83.3395C83.4849 29.8877 83.6302 29.9604 83.7392 30.0694C83.8482 30.1784 83.9208 30.3237 83.9208 30.469V35.7008H89.1527Z" fill="#C2BCCF"/>
<path d="M6.88545 59.6021C6.88545 56.9419 6.12756 55.6147 4.60889 55.5656C3.99221 55.5195 3.42451 55.6608 2.85393 55.8513C2.37844 55.9926 2.09603 56.1831 1.95195 56.3273V62.5941C2.90003 63.2116 3.75302 63.4972 4.5138 63.4482C6.07857 63.3039 6.88545 62.0228 6.88545 59.6021ZM8.73552 59.6973C8.73552 61.0274 8.45023 62.118 7.78743 63.0211C7.07565 64.0194 6.12756 64.5417 4.84808 64.5417C3.89999 64.5878 2.9519 64.256 1.95483 63.6386V69.337L0.341064 68.7657V56.0878C0.626355 55.756 0.957753 55.4704 1.33814 55.2338C2.28623 54.6654 3.4735 54.3798 4.79909 54.3798C6.03246 54.3798 7.02666 54.902 7.69234 55.9003C8.40124 56.9909 8.73552 58.1768 8.73552 59.6973ZM18.5507 63.4482C18.5507 65.2514 18.3605 66.4863 18.0291 67.1528C17.6487 67.8164 16.9859 68.3877 15.9888 68.8147C15.1358 69.1465 14.2828 69.337 13.3319 69.337L13.0466 68.3387C14.0436 68.1973 14.7064 68.053 15.0868 67.9578C15.8447 67.6722 16.4153 67.2942 16.6977 66.7229C16.934 66.2959 17.0291 65.4419 17.0291 64.207V63.78C15.9398 64.3022 14.7526 64.5388 13.5682 64.5388C12.7613 64.5388 12.0495 64.3022 11.4818 63.78C10.819 63.2577 10.4847 62.5451 10.4847 61.691V54.9972L12.0956 54.4288V61.1717C12.0956 61.8843 12.3319 62.4527 12.8074 62.8336C13.2829 63.2144 13.8506 63.402 14.6085 63.402C15.3664 63.402 16.1271 63.1163 16.9801 62.548V54.6625H18.591L18.5507 63.4482ZM24.8098 64.4926H24.2882C23.3862 64.4926 22.6773 64.256 22.1528 63.829C21.6312 63.402 21.3949 62.7845 21.3949 62.0257V55.6637H20.3056V54.6625H21.3949V51.9562L23.0058 51.3878V54.6625H24.8069V55.6608H23.0058V61.9276C23.0058 62.5451 23.147 62.9721 23.4813 63.2087C23.7666 63.3991 24.1931 63.5405 24.8098 63.5895V64.4926ZM34.5788 64.3484H32.9679V58.1277C32.9679 57.5103 32.8267 56.9419 32.5414 56.5149C32.21 55.9926 31.7345 55.756 31.1178 55.756C30.36 55.756 29.458 56.1369 28.3687 56.9419V64.3974H26.7578V49.5354L28.3687 49.0132V55.756C29.4119 54.9972 30.504 54.6164 31.7345 54.6164C32.5875 54.6164 33.2532 54.902 33.8209 55.4704C34.3425 56.0388 34.6278 56.7515 34.6278 57.6084L34.5788 64.3484ZM43.1145 59.3165C43.1145 58.3182 42.9243 57.4641 42.5468 56.8005C42.0713 55.9926 41.4085 55.5656 40.4114 55.5195C38.6564 55.6147 37.7545 56.8957 37.7545 59.3165C37.7545 60.4561 37.9446 61.3592 38.3222 62.118C38.7976 63.0673 39.5065 63.5434 40.4575 63.5434C42.2125 63.4943 43.1145 62.118 43.1145 59.3165ZM44.8694 59.3165C44.8694 60.7418 44.489 61.9767 43.7801 62.9259C42.9732 63.9704 41.835 64.5388 40.4604 64.5388C39.0368 64.5388 37.9475 64.0165 37.1406 62.9259C36.4289 61.9767 36.0514 60.7879 36.0514 59.3165C36.0514 57.9402 36.4317 56.8005 37.2357 55.8974C38.0887 54.8991 39.1319 54.4259 40.4604 54.4259C41.7889 54.4259 42.8782 54.902 43.7311 55.8974C44.489 56.8467 44.8694 57.9864 44.8694 59.3165ZM54.1169 64.3484H52.506V57.7959C52.506 57.0833 52.2697 56.5149 51.8432 56.134C51.4167 55.7532 50.8461 55.5166 50.0882 55.5656C49.3303 55.5656 48.5695 55.8513 47.9068 56.3244V64.4436H46.2959V56.134C47.1978 55.4704 48.0508 54.9943 48.8577 54.8039C49.6156 54.6135 50.2323 54.5183 50.8029 54.5183C51.1833 54.5183 51.5608 54.5644 51.8922 54.6135C52.5089 54.7549 53.0305 55.0405 53.4108 55.4214C53.8373 55.8484 54.0736 56.4197 54.0736 57.0342L54.1169 64.3484Z" fill="#656565"/>
<path d="M26.5185 2.24601C24.9998 2.24601 23.5301 2.38739 22.2506 2.62686C18.4583 3.29047 17.7926 4.66963 17.7926 7.28079V10.6998H26.7087V11.8395H14.4729C11.911 11.8395 9.63734 13.4062 8.92555 16.3492C8.11867 19.7682 8.07256 21.8572 8.92555 25.4176C9.54224 28.0778 11.0609 29.9272 13.6689 29.9272H16.7523V25.8446C16.7523 22.9016 19.3142 20.2905 22.2996 20.2905H31.1667C33.6334 20.2905 35.6247 18.2477 35.6247 15.7317V7.23174C35.6247 4.81101 33.5845 3.00483 31.1667 2.57781C29.599 2.34122 28.0343 2.19984 26.5185 2.24601ZM21.6801 4.95239C22.582 4.95239 23.3399 5.71121 23.3399 6.66046C23.3399 7.60971 22.582 8.36854 21.6801 8.36854C20.7781 8.36854 20.0202 7.60971 20.0202 6.66046C20.0202 5.71121 20.732 4.95239 21.6801 4.95239Z" fill="url(#paint2_linear)"/>
<path d="M36.7141 11.7412V15.6825C36.7141 18.7697 34.1062 21.3318 31.1178 21.3318H22.2507C19.833 21.3318 17.7927 23.4208 17.7927 25.8905V34.3905C17.7927 36.8113 19.8791 38.2366 22.2507 38.9492C25.0489 39.8033 27.752 39.9475 31.1668 38.9492C33.3944 38.2856 35.6248 37.0017 35.6248 34.3905V30.9715H26.7059V29.8318H40.08C42.6418 29.8318 43.636 28.0285 44.538 25.3221C45.4861 22.5206 45.44 19.8632 44.538 16.2538C43.9213 13.6888 42.6879 11.7441 40.08 11.7441L36.7141 11.7412ZM31.6855 33.2508C32.5875 33.2508 33.3454 34.0097 33.3454 34.9589C33.3454 35.9082 32.5875 36.667 31.6855 36.667C30.7835 36.667 30.0256 35.9082 30.0256 34.9589C30.0256 34.0097 30.7864 33.2508 31.6855 33.2508Z" fill="url(#paint3_linear)"/>
<path d="M57.1975 53.2398H57.4828V51.4827H58.1456V51.2461H56.5347V51.4827H57.1975V53.2398ZM58.4308 53.2398H58.6671V51.627L59.1887 53.2398H59.474L59.9956 51.627V53.2398H60.2809V51.2461H59.9495L59.3328 52.9542L58.8112 51.2461H58.4308V53.2398Z" fill="#656565"/>
<path opacity="0.444" d="M38.7516 44.6947C38.7516 45.9757 33.3945 47.0202 26.8011 47.0202C20.2077 47.0202 14.8506 45.9757 14.8506 44.6947C14.8506 43.4136 20.2077 42.3691 26.8011 42.3691C33.3945 42.3691 38.7516 43.4107 38.7516 44.6947Z" fill="url(#paint4_radial)"/>
<defs>
<linearGradient id="paint0_linear" x1="126.799" y1="11.2432" x2="126.799" y2="40.803" gradientUnits="userSpaceOnUse">
<stop stop-color="white" stop-opacity="0"/>
<stop offset="1" stop-color="#E8DDFF"/>
</linearGradient>
<linearGradient id="paint1_linear" x1="144.367" y1="10.6851" x2="144.367" y2="40.8026" gradientUnits="userSpaceOnUse">
<stop stop-color="white" stop-opacity="0"/>
<stop offset="1" stop-color="#E8DDFF"/>
</linearGradient>
<linearGradient id="paint2_linear" x1="7.31994" y1="3.25727" x2="27.8856" y2="20.7585" gradientUnits="userSpaceOnUse">
<stop stop-color="#5CA0D5"/>
<stop offset="1" stop-color="#316A99"/>
</linearGradient>
<linearGradient id="paint3_linear" x1="35.6105" y1="31.6956" x2="28.2275" y2="21.364" gradientUnits="userSpaceOnUse">
<stop stop-color="#FFD43E"/>
<stop offset="1" stop-color="#FFE975"/>
</linearGradient>
<radialGradient id="paint4_radial" cx="0" cy="0" r="1" gradientUnits="userSpaceOnUse" gradientTransform="translate(26.7926 44.3041) rotate(-90) scale(2.31671 10.1728)">
<stop stop-color="#B8B8B8" stop-opacity="0.498"/>
<stop offset="1" stop-color="#7F8080" stop-opacity="0"/>
</radialGradient>
</defs>
</svg>
