<svg width="159" height="67" viewBox="0 0 159 67" fill="none" xmlns="http://www.w3.org/2000/svg">
<path d="M114 10.7148L130.73 19.8894V39.318L114 29.8736V10.7148Z" fill="url(#paint0_linear)"/>
<path d="M148 10.1748L130.73 19.5225V39.3177L148 29.695V10.1748Z" fill="url(#paint1_linear)"/>
<path fill-rule="evenodd" clip-rule="evenodd" d="M130.573 0.563035C130.723 0.479522 130.905 0.478958 131.056 0.561544L138.84 4.82782L138.842 4.82913L148.238 9.9126C148.399 9.99996 148.5 10.1688 148.5 10.3524V29.7381C148.5 29.9194 148.402 30.0865 148.243 30.1748L131.059 39.7542C130.906 39.8394 130.72 39.8385 130.568 39.7519L113.753 30.1725C113.596 30.0836 113.5 29.9178 113.5 29.7381V10.3524C113.5 10.1709 113.598 10.0036 113.757 9.9154L130.573 0.563035ZM137.601 5.28916L130.817 1.57115L115.025 10.3545L122.398 14.4952L137.601 5.28916ZM123.4 15.0577L130.818 19.2236L146.956 10.3558L138.616 5.84364L123.4 15.0577ZM147.5 11.1976L131.316 20.0913V38.4663L147.5 29.4444V11.1976ZM130.316 38.4572V20.0882L114.5 11.2066V29.4475L130.316 38.4572Z" fill="#C2BCCF"/>
<path d="M107.088 56.7922C107.471 56.7922 107.807 56.7456 108.096 56.6522C108.39 56.5589 108.635 56.4282 108.831 56.2602C109.027 56.0876 109.174 55.8846 109.272 55.6512C109.37 55.4132 109.419 55.1519 109.419 54.8672C109.419 54.2886 109.228 53.8522 108.845 53.5582C108.467 53.2642 107.898 53.1172 107.137 53.1172H105.73V56.7922H107.088ZM111.778 62.0002H110.448C110.182 62.0002 109.988 61.8952 109.867 61.6852L107.382 58.1992C107.303 58.0826 107.216 58.0009 107.123 57.9542C107.03 57.9029 106.89 57.8772 106.703 57.8772H105.73V62.0002H104.239V51.9482H107.137C107.786 51.9482 108.343 52.0159 108.81 52.1512C109.281 52.2819 109.669 52.4709 109.972 52.7182C110.28 52.9609 110.506 53.2549 110.651 53.6002C110.8 53.9456 110.875 54.3329 110.875 54.7622C110.875 55.1122 110.821 55.4412 110.714 55.7492C110.607 56.0572 110.448 56.3349 110.238 56.5822C110.033 56.8249 109.781 57.0349 109.482 57.2122C109.183 57.3896 108.845 57.5249 108.467 57.6182C108.654 57.7302 108.815 57.8866 108.95 58.0872L111.778 62.0002Z" fill="#24272A" fill-opacity="0.6"/>
<path d="M117.037 57.6532C117.037 57.3826 116.998 57.1329 116.918 56.9042C116.844 56.6756 116.732 56.4772 116.582 56.3092C116.433 56.1412 116.251 56.0106 116.036 55.9172C115.822 55.8239 115.574 55.7772 115.294 55.7772C114.72 55.7772 114.268 55.9429 113.936 56.2742C113.61 56.6056 113.402 57.0652 113.313 57.6532H117.037ZM118.164 60.9852C117.996 61.1812 117.803 61.3516 117.583 61.4962C117.364 61.6362 117.131 61.7506 116.883 61.8392C116.636 61.9279 116.379 61.9932 116.113 62.0352C115.852 62.0772 115.593 62.0982 115.336 62.0982C114.846 62.0982 114.391 62.0166 113.971 61.8532C113.556 61.6852 113.194 61.4426 112.886 61.1252C112.583 60.8032 112.345 60.4066 112.172 59.9352C112.004 59.4592 111.92 58.9132 111.92 58.2972C111.92 57.8026 111.997 57.3429 112.151 56.9182C112.305 56.4889 112.525 56.1156 112.809 55.7982C113.099 55.4809 113.451 55.2312 113.866 55.0492C114.282 54.8672 114.748 54.7762 115.266 54.7762C115.7 54.7762 116.099 54.8486 116.463 54.9932C116.832 55.1332 117.149 55.3386 117.415 55.6092C117.681 55.8799 117.889 56.2136 118.038 56.6102C118.192 57.0069 118.269 57.4596 118.269 57.9682C118.269 58.1782 118.246 58.3206 118.199 58.3952C118.153 58.4652 118.066 58.5002 117.94 58.5002H113.278C113.292 58.9249 113.353 59.2959 113.46 59.6132C113.568 59.9259 113.715 60.1872 113.901 60.3972C114.093 60.6072 114.319 60.7636 114.58 60.8662C114.842 60.9689 115.133 61.0202 115.455 61.0202C115.759 61.0202 116.02 60.9852 116.239 60.9152C116.463 60.8452 116.655 60.7706 116.813 60.6912C116.977 60.6072 117.112 60.5302 117.219 60.4602C117.331 60.3902 117.429 60.3552 117.513 60.3552C117.625 60.3552 117.712 60.3972 117.772 60.4812L118.164 60.9852Z" fill="#24272A" fill-opacity="0.6"/>
<path d="M124.321 56.6102C124.111 56.3256 123.871 56.1226 123.6 56.0012C123.334 55.8799 123.043 55.8192 122.725 55.8192C122.1 55.8192 121.615 56.0456 121.269 56.4982C120.929 56.9462 120.758 57.6019 120.758 58.4652C120.758 58.9179 120.796 59.3052 120.87 59.6272C120.95 59.9446 121.062 60.2059 121.206 60.4112C121.356 60.6119 121.538 60.7612 121.752 60.8592C121.967 60.9526 122.21 60.9992 122.48 60.9992C122.877 60.9992 123.22 60.9106 123.509 60.7332C123.799 60.5559 124.069 60.3062 124.321 59.9842V56.6102ZM125.693 54.8882V64.3872H124.321V60.9852C124.027 61.3212 123.694 61.5919 123.32 61.7972C122.947 61.9979 122.515 62.0982 122.025 62.0982C121.619 62.0982 121.251 62.0189 120.919 61.8602C120.593 61.7016 120.313 61.4706 120.079 61.1672C119.846 60.8592 119.666 60.4789 119.54 60.0262C119.414 59.5736 119.351 59.0532 119.351 58.4652C119.351 57.9379 119.421 57.4479 119.561 56.9952C119.701 56.5426 119.904 56.1506 120.17 55.8192C120.436 55.4879 120.758 55.2289 121.136 55.0422C121.514 54.8509 121.941 54.7552 122.417 54.7552C122.646 54.7552 122.856 54.7762 123.047 54.8182C123.239 54.8602 123.416 54.9209 123.579 55.0002C123.743 55.0796 123.892 55.1752 124.027 55.2872C124.167 55.3992 124.298 55.5276 124.419 55.6722L124.51 55.1612C124.557 54.9792 124.676 54.8882 124.867 54.8882H125.693Z" fill="#24272A" fill-opacity="0.6"/>
<path d="M133.513 54.8882V62.0002H132.694C132.507 62.0002 132.386 61.9092 132.33 61.7272L132.232 61.0132C132.078 61.1766 131.917 61.3259 131.749 61.4612C131.581 61.5966 131.401 61.7132 131.21 61.8112C131.018 61.9046 130.815 61.9769 130.601 62.0282C130.386 62.0842 130.155 62.1122 129.908 62.1122C129.516 62.1122 129.17 62.0469 128.872 61.9162C128.578 61.7856 128.33 61.6036 128.13 61.3702C127.929 61.1322 127.777 60.8476 127.675 60.5162C127.572 60.1849 127.521 59.8186 127.521 59.4172V54.8882H128.893V59.4172C128.893 59.9259 129.009 60.3226 129.243 60.6072C129.476 60.8872 129.833 61.0272 130.314 61.0272C130.664 61.0272 130.99 60.9456 131.294 60.7822C131.597 60.6142 131.882 60.3856 132.148 60.0962V54.8882H133.513Z" fill="#24272A" fill-opacity="0.6"/>
<path d="M140.129 57.6532C140.129 57.3826 140.089 57.1329 140.01 56.9042C139.935 56.6756 139.823 56.4772 139.674 56.3092C139.525 56.1412 139.343 56.0106 139.128 55.9172C138.913 55.8239 138.666 55.7772 138.386 55.7772C137.812 55.7772 137.359 55.9429 137.028 56.2742C136.701 56.6056 136.494 57.0652 136.405 57.6532H140.129ZM141.256 60.9852C141.088 61.1812 140.894 61.3516 140.675 61.4962C140.456 61.6362 140.222 61.7506 139.975 61.8392C139.728 61.9279 139.471 61.9932 139.205 62.0352C138.944 62.0772 138.685 62.0982 138.428 62.0982C137.938 62.0982 137.483 62.0166 137.063 61.8532C136.648 61.6852 136.286 61.4426 135.978 61.1252C135.675 60.8032 135.437 60.4066 135.264 59.9352C135.096 59.4592 135.012 58.9132 135.012 58.2972C135.012 57.8026 135.089 57.3429 135.243 56.9182C135.397 56.4889 135.616 56.1156 135.901 55.7982C136.19 55.4809 136.543 55.2312 136.958 55.0492C137.373 54.8672 137.84 54.7762 138.358 54.7762C138.792 54.7762 139.191 54.8486 139.555 54.9932C139.924 55.1332 140.241 55.3386 140.507 55.6092C140.773 55.8799 140.981 56.2136 141.13 56.6102C141.284 57.0069 141.361 57.4596 141.361 57.9682C141.361 58.1782 141.338 58.3206 141.291 58.3952C141.244 58.4652 141.158 58.5002 141.032 58.5002H136.37C136.384 58.9249 136.445 59.2959 136.552 59.6132C136.659 59.9259 136.806 60.1872 136.993 60.3972C137.184 60.6072 137.411 60.7636 137.672 60.8662C137.933 60.9689 138.225 61.0202 138.547 61.0202C138.85 61.0202 139.112 60.9852 139.331 60.9152C139.555 60.8452 139.746 60.7706 139.905 60.6912C140.068 60.6072 140.204 60.5302 140.311 60.4602C140.423 60.3902 140.521 60.3552 140.605 60.3552C140.717 60.3552 140.803 60.3972 140.864 60.4812L141.256 60.9852Z" fill="#24272A" fill-opacity="0.6"/>
<path d="M147.021 56.1132C146.984 56.1739 146.944 56.2182 146.902 56.2462C146.86 56.2696 146.806 56.2812 146.741 56.2812C146.666 56.2812 146.582 56.2556 146.489 56.2042C146.4 56.1529 146.291 56.0969 146.16 56.0362C146.034 55.9756 145.885 55.9196 145.712 55.8682C145.539 55.8169 145.334 55.7912 145.096 55.7912C144.9 55.7912 144.72 55.8169 144.557 55.8682C144.398 55.9149 144.263 55.9826 144.151 56.0712C144.039 56.1552 143.953 56.2579 143.892 56.3792C143.831 56.4959 143.801 56.6219 143.801 56.7572C143.801 56.9346 143.852 57.0816 143.955 57.1982C144.062 57.3149 144.2 57.4152 144.368 57.4992C144.541 57.5832 144.734 57.6602 144.949 57.7302C145.168 57.7956 145.39 57.8656 145.614 57.9402C145.843 58.0149 146.064 58.1012 146.279 58.1992C146.498 58.2926 146.692 58.4116 146.86 58.5562C147.033 58.6962 147.17 58.8666 147.273 59.0672C147.38 59.2679 147.434 59.5129 147.434 59.8022C147.434 60.1336 147.373 60.4416 147.252 60.7262C147.135 61.0062 146.96 61.2489 146.727 61.4542C146.498 61.6596 146.214 61.8206 145.873 61.9372C145.532 62.0539 145.143 62.1122 144.704 62.1122C144.214 62.1122 143.761 62.0306 143.346 61.8672C142.931 61.7039 142.583 61.4962 142.303 61.2442L142.625 60.7192C142.662 60.6539 142.709 60.6049 142.765 60.5722C142.821 60.5349 142.896 60.5162 142.989 60.5162C143.078 60.5162 143.169 60.5489 143.262 60.6142C143.355 60.6796 143.467 60.7519 143.598 60.8312C143.729 60.9059 143.887 60.9759 144.074 61.0412C144.261 61.1019 144.494 61.1322 144.774 61.1322C145.007 61.1322 145.21 61.1042 145.383 61.0482C145.556 60.9876 145.698 60.9082 145.81 60.8102C145.927 60.7076 146.013 60.5909 146.069 60.4602C146.125 60.3296 146.153 60.1919 146.153 60.0472C146.153 59.8606 146.099 59.7066 145.992 59.5852C145.889 59.4592 145.752 59.3519 145.579 59.2632C145.411 59.1746 145.217 59.0976 144.998 59.0322C144.779 58.9669 144.555 58.8969 144.326 58.8222C144.097 58.7476 143.873 58.6612 143.654 58.5632C143.435 58.4652 143.239 58.3416 143.066 58.1922C142.898 58.0429 142.76 57.8609 142.653 57.6462C142.55 57.4316 142.499 57.1702 142.499 56.8622C142.499 56.5869 142.555 56.3232 142.667 56.0712C142.784 55.8192 142.949 55.5976 143.164 55.4062C143.383 55.2149 143.652 55.0632 143.969 54.9512C144.291 54.8346 144.657 54.7762 145.068 54.7762C145.539 54.7762 145.964 54.8509 146.342 55.0002C146.725 55.1496 147.051 55.3549 147.322 55.6162L147.021 56.1132Z" fill="#24272A" fill-opacity="0.6"/>
<path d="M151.138 62.1122C150.564 62.1122 150.121 61.9512 149.808 61.6292C149.5 61.3072 149.346 60.8476 149.346 60.2502V55.9942H148.52C148.441 55.9942 148.373 55.9709 148.317 55.9242C148.266 55.8729 148.24 55.7982 148.24 55.7002V55.1472L149.395 54.9862L149.703 52.8652C149.722 52.7859 149.757 52.7252 149.808 52.6832C149.864 52.6366 149.934 52.6132 150.018 52.6132H150.711V55.0002H152.727V55.9942H150.711V60.1592C150.711 60.4392 150.779 60.6492 150.914 60.7892C151.054 60.9246 151.231 60.9922 151.446 60.9922C151.572 60.9922 151.679 60.9759 151.768 60.9432C151.861 60.9106 151.941 60.8756 152.006 60.8382C152.071 60.7962 152.127 60.7589 152.174 60.7262C152.221 60.6936 152.263 60.6772 152.3 60.6772C152.347 60.6772 152.382 60.6889 152.405 60.7122C152.433 60.7309 152.461 60.7636 152.489 60.8102L152.895 61.4682C152.671 61.6736 152.405 61.8322 152.097 61.9442C151.789 62.0562 151.469 62.1122 151.138 62.1122Z" fill="#24272A" fill-opacity="0.6"/>
<path d="M158.177 56.1132C158.14 56.1739 158.1 56.2182 158.058 56.2462C158.016 56.2696 157.963 56.2812 157.897 56.2812C157.823 56.2812 157.739 56.2556 157.645 56.2042C157.557 56.1529 157.447 56.0969 157.316 56.0362C157.19 55.9756 157.041 55.9196 156.868 55.8682C156.696 55.8169 156.49 55.7912 156.252 55.7912C156.056 55.7912 155.877 55.8169 155.713 55.8682C155.555 55.9149 155.419 55.9826 155.307 56.0712C155.195 56.1552 155.109 56.2579 155.048 56.3792C154.988 56.4959 154.957 56.6219 154.957 56.7572C154.957 56.9346 155.009 57.0816 155.111 57.1982C155.219 57.3149 155.356 57.4152 155.524 57.4992C155.697 57.5832 155.891 57.6602 156.105 57.7302C156.325 57.7956 156.546 57.8656 156.77 57.9402C156.999 58.0149 157.221 58.1012 157.435 58.1992C157.655 58.2926 157.848 58.4116 158.016 58.5562C158.189 58.6962 158.327 58.8666 158.429 59.0672C158.537 59.2679 158.59 59.5129 158.59 59.8022C158.59 60.1336 158.53 60.4416 158.408 60.7262C158.292 61.0062 158.117 61.2489 157.883 61.4542C157.655 61.6596 157.37 61.8206 157.029 61.9372C156.689 62.0539 156.299 62.1122 155.86 62.1122C155.37 62.1122 154.918 62.0306 154.502 61.8672C154.087 61.7039 153.739 61.4962 153.459 61.2442L153.781 60.7192C153.819 60.6539 153.865 60.6049 153.921 60.5722C153.977 60.5349 154.052 60.5162 154.145 60.5162C154.234 60.5162 154.325 60.5489 154.418 60.6142C154.512 60.6796 154.624 60.7519 154.754 60.8312C154.885 60.9059 155.044 60.9759 155.23 61.0412C155.417 61.1019 155.65 61.1322 155.93 61.1322C156.164 61.1322 156.367 61.1042 156.539 61.0482C156.712 60.9876 156.854 60.9082 156.966 60.8102C157.083 60.7076 157.169 60.5909 157.225 60.4602C157.281 60.3296 157.309 60.1919 157.309 60.0472C157.309 59.8606 157.256 59.7066 157.148 59.5852C157.046 59.4592 156.908 59.3519 156.735 59.2632C156.567 59.1746 156.374 59.0976 156.154 59.0322C155.935 58.9669 155.711 58.8969 155.482 58.8222C155.254 58.7476 155.03 58.6612 154.81 58.5632C154.591 58.4652 154.395 58.3416 154.222 58.1922C154.054 58.0429 153.917 57.8609 153.809 57.6462C153.707 57.4316 153.655 57.1702 153.655 56.8622C153.655 56.5869 153.711 56.3232 153.823 56.0712C153.94 55.8192 154.106 55.5976 154.32 55.4062C154.54 55.2149 154.808 55.0632 155.125 54.9512C155.447 54.8346 155.814 54.7762 156.224 54.7762C156.696 54.7762 157.12 54.8509 157.498 55.0002C157.881 55.1496 158.208 55.3549 158.478 55.6162L158.177 56.1132Z" fill="#24272A" fill-opacity="0.6"/>
<path d="M85.9375 35.125C86.0781 35.125 86.2188 35.1953 86.3242 35.3008C86.4297 35.4062 86.5 35.5469 86.5 35.6875V36.8125C86.5 36.9883 86.4297 37.1289 86.3242 37.2344C86.2188 37.3398 86.0781 37.375 85.9375 37.375H80.875V42.4375C80.875 42.6133 80.8047 42.7539 80.6992 42.8594C80.5938 42.9648 80.4531 43 80.3125 43H79.1875C79.0117 43 78.8711 42.9648 78.7656 42.8594C78.6602 42.7539 78.625 42.6133 78.625 42.4375V37.375H73.5625C73.3867 37.375 73.2461 37.3398 73.1406 37.2344C73.0352 37.1289 73 36.9883 73 36.8125V35.6875C73 35.5469 73.0352 35.4062 73.1406 35.3008C73.2461 35.1953 73.3867 35.125 73.5625 35.125H78.625V30.0625C78.625 29.9219 78.6602 29.7812 78.7656 29.6758C78.8711 29.5703 79.0117 29.5 79.1875 29.5H80.3125C80.4531 29.5 80.5938 29.5703 80.6992 29.6758C80.8047 29.7812 80.875 29.9219 80.875 30.0625V35.125H85.9375Z" fill="#C2BCCF"/>
<path d="M6.3326 57.5084C6.3326 54.9343 5.59923 53.6501 4.12971 53.6026C3.53298 53.5579 2.98365 53.6947 2.43154 53.879C1.97144 54.0158 1.69817 54.2 1.55875 54.3396V60.4036C2.47615 61.0011 3.30154 61.2775 4.03769 61.23C5.55183 61.0904 6.3326 59.8508 6.3326 57.5084ZM8.12279 57.6006C8.12279 58.8876 7.84673 59.943 7.20538 60.8168C6.51663 61.7828 5.59923 62.2881 4.36115 62.2881C3.44375 62.3328 2.52635 62.0118 1.56154 61.4143V66.9283L0 66.3755V54.1079C0.276058 53.7869 0.596731 53.5105 0.964808 53.2815C1.88221 52.7315 3.03106 52.4551 4.31375 52.4551C5.50721 52.4551 6.46923 52.9605 7.11337 53.9264C7.79933 54.9818 8.12279 56.1292 8.12279 57.6006ZM17.6203 61.23C17.6203 62.975 17.4363 64.1699 17.1156 64.8148C16.7475 65.4569 16.1062 66.0097 15.1413 66.4229C14.316 66.744 13.4906 66.9283 12.5704 66.9283L12.2943 65.9623C13.2591 65.8255 13.9005 65.6859 14.2686 65.5937C15.0019 65.3174 15.554 64.9516 15.8273 64.3988C16.056 63.9856 16.148 63.1592 16.148 61.9643V61.5511C15.0939 62.0564 13.9451 62.2854 12.799 62.2854C12.0183 62.2854 11.3295 62.0564 10.7802 61.5511C10.1388 61.0458 9.81538 60.3562 9.81538 59.5298V53.0526L11.3741 52.5026V59.0272C11.3741 59.7168 11.6028 60.2668 12.0629 60.6354C12.523 61.0039 13.0723 61.1854 13.8057 61.1854C14.539 61.1854 15.2752 60.909 16.1006 60.359V52.7287H17.6593L17.6203 61.23ZM23.6768 62.2407H23.1721C22.2993 62.2407 21.6134 62.0118 21.1059 61.5986C20.6012 61.1854 20.3725 60.5879 20.3725 59.8536V53.6975H19.3185V52.7287H20.3725V50.1099L21.9312 49.5599V52.7287H23.674V53.6947H21.9312V59.7587C21.9312 60.3562 22.0679 60.7694 22.3913 60.9983C22.6674 61.1826 23.0801 61.3194 23.6768 61.3668V62.2407ZM33.1297 62.1011H31.571V56.0818C31.571 55.4843 31.4343 54.9343 31.1583 54.5211C30.8376 54.0158 30.3775 53.7869 29.7808 53.7869C29.0474 53.7869 28.1746 54.1554 27.1206 54.9343V62.1486H25.5618V47.7675L27.1206 47.2622V53.7869C28.13 53.0526 29.1868 52.6841 30.3775 52.6841C31.2029 52.6841 31.847 52.9605 32.3963 53.5105C32.9011 54.0605 33.1771 54.7501 33.1771 55.5792L33.1297 62.1011ZM41.3891 57.232C41.3891 56.266 41.2051 55.4396 40.8398 54.7975C40.3797 54.0158 39.7384 53.6026 38.7736 53.5579C37.0754 53.65 36.2026 54.8896 36.2026 57.232C36.2026 58.3348 36.3866 59.2087 36.7519 59.943C37.212 60.8615 37.898 61.3222 38.8182 61.3222C40.5163 61.2747 41.3891 59.943 41.3891 57.232ZM43.0873 57.232C43.0873 58.6112 42.7192 59.8062 42.0333 60.7247C41.2525 61.7354 40.1511 62.2854 38.821 62.2854C37.4435 62.2854 36.3894 61.78 35.6087 60.7247C34.9199 59.8062 34.5546 58.6559 34.5546 57.232C34.5546 55.9003 34.9227 54.7975 35.7007 53.9237C36.5261 52.9577 37.5355 52.4998 38.821 52.4998C40.1064 52.4998 41.1605 52.9605 41.9859 53.9237C42.7192 54.8422 43.0873 55.945 43.0873 57.232ZM52.0355 62.1011H50.4767V55.7607C50.4767 55.0711 50.2481 54.5211 49.8354 54.1526C49.4227 53.7841 48.8706 53.5551 48.1372 53.6026C47.4038 53.6026 46.6677 53.879 46.0263 54.3369V62.1932H44.4676V54.1526C45.3404 53.5105 46.1658 53.0498 46.9465 52.8655C47.6799 52.6813 48.2766 52.5891 48.8288 52.5891C49.1968 52.5891 49.5621 52.6338 49.8828 52.6813C50.4795 52.8181 50.9842 53.0945 51.3523 53.463C51.765 53.8762 51.9937 54.429 51.9937 55.0237L52.0355 62.1011Z" fill="#656565"/>
<path d="M25.3303 2.00842C23.8608 2.00842 22.4387 2.14522 21.2006 2.37695C17.531 3.01909 16.8869 4.35361 16.8869 6.88027V10.1887H25.5144V11.2915H13.6746C11.1956 11.2915 8.99552 12.8075 8.30677 15.6552C7.526 18.9636 7.48138 20.9849 8.30677 24.4301C8.9035 27.0042 10.373 28.7938 12.8966 28.7938H15.8802V24.8433C15.8802 21.9956 18.3592 19.4689 21.248 19.4689H29.8281C32.2151 19.4689 34.1419 17.4922 34.1419 15.0577V6.83281C34.1419 4.49041 32.1677 2.74269 29.8281 2.32949C28.3112 2.10055 26.7971 1.96375 25.3303 2.00842ZM20.6485 4.62721C21.5213 4.62721 22.2547 5.36148 22.2547 6.28001C22.2547 7.19854 21.5213 7.93281 20.6485 7.93281C19.7757 7.93281 19.0424 7.19854 19.0424 6.28001C19.0424 5.36148 19.7311 4.62721 20.6485 4.62721Z" fill="url(#paint2_linear)"/>
<path d="M35.196 11.1963V15.01C35.196 17.9973 32.6725 20.4765 29.7808 20.4765H21.2007C18.8612 20.4765 16.887 22.4979 16.887 24.8877V33.1126C16.887 35.455 18.9058 36.8342 21.2007 37.5238C23.9083 38.3502 26.5239 38.4898 29.8282 37.5238C31.9837 36.8817 34.142 35.6393 34.142 33.1126V29.8042H25.5117V28.7014H38.4529C40.9319 28.7014 41.8939 26.9565 42.7667 24.3377C43.6841 21.6268 43.6395 19.0555 42.7667 15.5628C42.17 13.0808 40.9765 11.1991 38.4529 11.1991L35.196 11.1963ZM30.3301 32.0098C31.2029 32.0098 31.9363 32.7441 31.9363 33.6626C31.9363 34.5811 31.2029 35.3154 30.3301 35.3154C29.4574 35.3154 28.724 34.5811 28.724 33.6626C28.724 32.7441 29.4601 32.0098 30.3301 32.0098Z" fill="url(#paint3_linear)"/>
<path d="M55.0163 51.352H55.2924V49.6518H55.9338V49.4229H54.375V49.6518H55.0163V51.352ZM56.2098 51.352H56.4385V49.7914L56.9432 51.352H57.2192L57.7239 49.7914V51.352H58V49.4229H57.6793L57.0826 51.0757L56.5779 49.4229H56.2098V51.352Z" fill="#656565"/>
<path opacity="0.444" d="M37.1673 43.0833C37.1673 44.3229 31.9835 45.3335 25.6035 45.3335C19.2235 45.3335 14.0398 44.3229 14.0398 43.0833C14.0398 41.8437 19.2235 40.833 25.6035 40.833C31.9835 40.833 37.1673 41.8409 37.1673 43.0833Z" fill="url(#paint4_radial)"/>
<defs>
<linearGradient id="paint0_linear" x1="122.365" y1="10.7148" x2="122.365" y2="39.318" gradientUnits="userSpaceOnUse">
<stop stop-color="white" stop-opacity="0"/>
<stop offset="1" stop-color="#E8DDFF"/>
</linearGradient>
<linearGradient id="paint1_linear" x1="139.365" y1="10.1748" x2="139.365" y2="39.3177" gradientUnits="userSpaceOnUse">
<stop stop-color="white" stop-opacity="0"/>
<stop offset="1" stop-color="#E8DDFF"/>
</linearGradient>
<linearGradient id="paint2_linear" x1="6.75312" y1="2.98696" x2="26.6532" y2="19.9218" gradientUnits="userSpaceOnUse">
<stop stop-color="#5CA0D5"/>
<stop offset="1" stop-color="#316A99"/>
</linearGradient>
<linearGradient id="paint3_linear" x1="34.1281" y1="30.5049" x2="26.984" y2="20.5076" gradientUnits="userSpaceOnUse">
<stop stop-color="#FFD43E"/>
<stop offset="1" stop-color="#FFE975"/>
</linearGradient>
<radialGradient id="paint4_radial" cx="0" cy="0" r="1" gradientUnits="userSpaceOnUse" gradientTransform="translate(25.5953 42.7053) rotate(-90) scale(2.24174 9.84355)">
<stop stop-color="#B8B8B8" stop-opacity="0.498"/>
<stop offset="1" stop-color="#7F8080" stop-opacity="0"/>
</radialGradient>
</defs>
</svg>
