<?xml version="1.0" encoding="utf-8"?>
<svg display="none" xmlns="http://www.w3.org/2000/svg">
    <!-- used https://svg-to-symbol.herokuapp.com/ -->

    <symbol id="icon-logo" viewBox="0 0 1374 525" xmlns="http://www.w3.org/2000/svg">
        <path class="svg-fill" d="M485 352h32v-46h35c32 0 56-20 56-48 0-29-24-49-56-49h-67v143zm32-74v-41h31c16 0 27 8 27 21 0 12-11 20-27 20h-31zm112 74h53c50 0 86-29 86-71s-36-72-86-72h-53v143zm32-27v-88h25c29 0 49 18 49 44 0 25-20 44-49 44h-25zm246-88v-28H792v143h32v-56h75v-28h-75v-31h83zm76 118c35 0 53-19 53-41 0-26-21-35-49-42-25-6-40-11-40-26 0-13 14-25 32-25 15 0 30 7 43 19l10-13c-14-12-30-20-52-20-29 0-50 18-50 40 0 25 19 34 49 41 26 6 40 12 40 27 0 13-12 25-35 25-21 0-36-9-49-21l-10 13c15 14 34 23 58 23zm134-113c-16 0-30 9-37 20v-55h-16v145h16v-68c0-15 16-28 35-28 16 0 28 13 28 30v66h16v-68c0-24-17-42-42-42zm83-17c6 0 11-5 11-10 0-6-5-10-11-10s-11 4-11 10c0 5 5 10 11 10zm-8 127h16V245h-16v107zm74-122c0-8 6-14 12-14 5 0 10 2 12 5l8-12c-6-4-13-7-21-7-16 0-27 12-27 28v15h-18v14h18v93h16v-93h28v-14h-28v-15zm100 107c-3 2-7 4-12 4-6 0-12-6-12-14v-68h28v-14h-28v-30h-16v30h-18v14h18v68c0 17 11 28 27 28 8 0 15-3 21-7l-8-11zM341 304L219 147 205 0v525l14-157 122-64z"/>
        <path class="svg-fill" d="M380 222l-28 80-53-66zM422 254l-36-28-10 33zM336 316l-1 15-103 38zM168 409h25v-23h-25zM173 321h20v19h-20zM170 348h23v22h-23zM127 449v-20h21v20zM110 444v-11h11v11zM120 424v-15h16v15zM117 458v-9h9v9zM136 388v-12h13v12zM147 365v-15h15v15zM182 304h11v10h-11zM165 269h28v26h-28zM172 242h21v20h-21zM176 220h17v16h-17zM164 206h10v10h-10zM159 246h9v8h-9zM174 181h19v18h-19zM151 179h16v15h-16zM141 134h21v20h-21zM166 160h16v16h-16zM180 144h13v12h-13zM22 118h13v12H22zM43 111h12v12H43zM68 116h24v23H68zM129 174h12v12h-12zM147 223h11v10h-11zM130 198h17v16h-17zM104 174h12v12h-12zM53 140h8v8h-8zM106 125h16v16h-16zM82 156h14v13H82zM19 139h8v8h-8zM29 152h16v16H29zM56 160h13v12H56zM52 179h9v9h-9zM67 192h9v8h-9zM81 189h17v17H81zM102 207h8v9h-8zM109 221h9v8h-9zM122 225h20v19h-20zM147 256h8v9h-8zM140 409v-9h9v9zM104 461v-5h6v5zM0 106h9v9H0zM160 425v-9h9v9zM156 400v-5h6v5zM108 148h17v17h-17z"/>
    </symbol>
    <symbol id="icon-briefcase" viewBox="0 0 47 43" xmlns="http://www.w3.org/2000/svg">
        <g fill="none" fill-rule="evenodd">
            <path d="M42.25 30.105h-38a2 2 0 0 0-2 2v8a2 2 0 0 0 2 2h38a2 2 0 0 0 2-2v-8a2 2 0 0 0-2-2zM31.25 8.105a1 1 0 0 1-1-1v-5h-14v5a1 1 0 1 1-2 0v-6a1 1 0 0 1 1-1h16a1 1 0 0 1 1 1v6a1 1 0 0 1-1 1z" fill="#87613E"/>
            <path d="M44.25 6.105h-42a2 2 0 0 0-2 2v22a2 2 0 0 0 2 2h42a2 2 0 0 0 2-2v-22a2 2 0 0 0-2-2z" fill="#A67C52"/>
            <path d="M29.25 23.105h-12a1 1 0 0 1-1-1v-6a1 1 0 0 1 1-1h12a1 1 0 0 1 1 1v6a1 1 0 0 1-1 1z" fill="#EFD358"/>
        </g>
    </symbol>
    <symbol id="icon-factory" viewBox="0 0 47 47" xmlns="http://www.w3.org/2000/svg">
        <g fill="none" fill-rule="evenodd">
            <path d="M45.708 14.946a.997.997 0 0 0-1.039.076l-12.419 8.87v-8.056a1.001 1.001 0 0 0-1.53-.848l-15.136 9.46-5.477-9.127a1 1 0 0 0-.857-.485h-8a1 1 0 0 0-1 1v30a1 1 0 0 0 1 1h44a1 1 0 0 0 1-1v-30a1 1 0 0 0-.542-.89z" fill="#444"/>
            <path d="M39.25 32.836h-6a1 1 0 0 0-1 1v6a1 1 0 0 0 1 1h6a1 1 0 0 0 1-1v-6a1 1 0 0 0-1-1zM27.25 32.836h-6a1 1 0 0 0-1 1v6a1 1 0 0 0 1 1h6a1 1 0 0 0 1-1v-6a1 1 0 0 0-1-1z" fill="#BADEFC"/>
            <path d="M21.25 2.794a6.996 6.996 0 0 0-4.697 1.829A8.909 8.909 0 0 0 9.25.836c-4.963 0-9 4.037-9 9a1 1 0 0 0 1 1h25.996a1 1 0 0 0 .997-.922 1.35 1.35 0 0 0 .007-.12c0-3.86-3.14-7-7-7z" fill="#B3B3B3"/>
        </g>
    </symbol>
    <symbol id="icon-plant" viewBox="0 0 47 47" xmlns="http://www.w3.org/2000/svg">
        <g fill="none" fill-rule="evenodd">
            <path d="M33.25 17.836c-3.967 0-7.383 2.315-9 5.663V1.836a1 1 0 1 0-2 0v11.663c-1.617-3.348-5.033-5.663-9-5.663h-2v4c0 5.523 4.477 10 10 10h1v16.253a1 1 0 1 0 2 0v-6.253h1c5.523 0 10-4.477 10-10v-4h-2z" fill="#72C472"/>
            <path d="M45.25 46.836h-44a1 1 0 1 1 0-2h9.1c.465-2.28 2.485-4 4.9-4 .764 0 1.516.182 2.2.523a8.957 8.957 0 0 1 7.8-4.523c4.625 0 8.445 3.506 8.944 8H45.25a1 1 0 1 1 0 2z" fill="#A67C52"/>
        </g>
    </symbol>
     <symbol id="icon-clock" viewBox="0 0 48 48" xmlns="http://www.w3.org/2000/svg">
        <g transform="translate(1.5 1.148)" class="svg-stroke" stroke-width="3" fill="none" fill-rule="evenodd">
            <path d="M22.5.5v8M44.5 22.5h-8M22.5 44.5v-8M.5 22.5h8"/>
                <circle cx="22.5" cy="22.5" r="22"/>
            <path d="M14.5 10.5l8 12h8"/>
        </g>
    </symbol>
    <symbol id="icon-conversions" viewBox="0 0 47 46" xmlns="http://www.w3.org/2000/svg">
        <g class="svg-fill">
            <path d="M44.91 19.148h-44v-4h39.171l-12-12L30.911.32l15.413 15.414a2 2 0 0 1-1.414 3.414zM16.91 45.976L1.496 30.562a2 2 0 0 1 1.414-3.414h44v4H7.74l12 12-2.83 2.828z"/>
        </g>
    </symbol>
    <symbol id="icon-folder" viewBox="0 0 41 38" xmlns="http://www.w3.org/2000/svg">
        <g class="svg-stroke" stroke-width="2" fill="none" fill-rule="evenodd" stroke-linecap="square">
            <path d="M39.605 36.97H1.208V1.133h14.08l3.84 5.12h20.477z"/>
            <path d="M14.007 17.772l-3.84 3.84 3.84 3.839M26.806 25.45l3.84-3.839-3.84-3.84M17.847 29.29l5.12-15.358"/>
        </g>
    </symbol>
    <symbol id="icon-globe" viewBox="0 0 42 42" xmlns="http://www.w3.org/2000/svg">
        <g transform="translate(1.45 1.633)" class="svg-stroke" stroke-width="2" fill="none" fill-rule="evenodd">
            <path d="M19.334 0v38.668M0 19.334h38.668"/>
                <ellipse cx="19.334" cy="19.334" rx="11.047" ry="19.334"/>
            <path d="M2.977 9.023h32.714M2.977 29.646h32.714"/>
            <circle cx="19.334" cy="19.334" r="19.334"/>
        </g>
    </symbol>
    <symbol id="icon-lightbulb" viewBox="0 0 42 56" xmlns="http://www.w3.org/2000/svg">
        <g class="svg-stroke" stroke-width="2" fill="none" fill-rule="evenodd" stroke-linecap="square">
            <path d="M40.849 20.839c0-10.889-8.828-19.716-19.716-19.716-10.889 0-19.716 8.827-19.716 19.716 0 7.659 4.375 14.281 10.754 17.547v9.338h17.924v-9.338c6.379-3.266 10.754-9.888 10.754-17.547zM12.171 54.894h17.924"/>
            <path d="M10.379 20.839l5.377 5.377 5.377-5.377 5.377 5.377 5.377-5.377"/>
        </g>
    </symbol>
    <symbol id="icon-preferences" viewBox="0 0 48 48" xmlns="http://www.w3.org/2000/svg">
        <g transform="translate(1.917 1.633)" class="svg-stroke" stroke-width="2" fill="none" fill-rule="evenodd" stroke-linecap="square">
            <path d="M5.963 20.869V0M5.963 44.719v-5.963M22.36 4.472V0M22.36 44.719v-22.36"/>
                <circle cx="5.963" cy="32.794" r="5.963"/>
            <path d="M38.756 20.869V0M38.756 44.719v-5.963"/>
            <circle cx="38.756" cy="32.794" r="5.963"/>
            <circle cx="22.359" cy="16.397" r="5.963"/>
        </g>
    </symbol>
    <symbol id="icon-scan" viewBox="0 0 32 32" xmlns="http://www.w3.org/2000/svg">
        <path d="M22 29h-2v-1h2v1zm1 0h1.003A1.999 1.999 0 0 0 26 27.01V26h-1v1.007A.997.997 0 0 1 24 28h-1v1zm-4 0h-2v-1h2v1zm-3 0h-2v-1h2v1zm-3 0h-2v-1h2v1zm-3 0H8.997A2 2 0 0 1 7 26.993V26h1v1.005c0 .55.455.995 1 .995h1v1zm16-4v-2h-1v2h1zM7 25v-2h1v2H7zm19-3v-2h-1v2h1zM7 22v-2h1v2H7zm20-4v-2h1v5h-1v-2H6v2H5v-5h1v2h21zm-1-1V9l-6-7H9.003A2.005 2.005 0 0 0 7 4.007V17h1V3.995c0-.54.446-.995.996-.995H19v4.994c0 1.12.894 2.006 1.998 2.006H25v7h1zM20 3.5v4.491c0 .557.45 1.009.997 1.009H24.7L20 3.5z" fill="none" fill-rule="evenodd" class="svg-fill" />
    </symbol>
    <symbol id="icon-signal" viewBox="0 0 48 44" xmlns="http://www.w3.org/2000/svg">
        <g transform="translate(1.5 1.148)" class="svg-stroke" stroke-width="3" fill="none" fill-rule="evenodd">
            <circle cx="22.5" cy="22.5" r="2"/>
            <path d="M34.019 41.218C40.3 37.344 44.5 30.421 44.5 22.5c0-12.15-9.85-22-22-22s-22 9.85-22 22c0 7.921 4.2 14.844 10.481 18.718"/>
            <path d="M28.783 32.71c3.426-2.113 5.717-5.889 5.717-10.21 0-6.627-5.373-12-12-12s-12 5.373-12 12c0 4.321 2.291 8.097 5.717 10.21"/>
        </g>
    </symbol>
    <symbol id="icon-speedometer" viewBox="0 0 40 40" xmlns="http://www.w3.org/2000/svg">
        <g transform="translate(1.417 1.133)" class="svg-stroke" stroke-width="2" fill="none" fill-rule="evenodd">
            <path d="M13.775 7.013a13.237 13.237 0 0 1 5.009-1.002c7.012 0 12.773 5.76 12.773 12.773M6.01 18.784c0-1.753.376-3.507 1.003-5.01M16.154 16.154L9.267 9.267"/>
            <circle cx="18.784" cy="18.784" r="18.784"/>
            <circle cx="18.784" cy="18.784" r="3.757"/>
        </g>
    </symbol>
    <symbol id="icon-support" viewBox="0 0 40 40" xmlns="http://www.w3.org/2000/svg">
        <g fill="none" fill-rule="evenodd">
            <path class="svg-stroke" d="M37.526 1.22l-.94 9.678L26.888 9.2"/>
            <path d="M38.866 19.834c0 10.281-8.335 18.616-18.616 18.616-10.281 0-18.616-8.335-18.616-18.616 0-10.281 8.335-18.616 18.616-18.616 7.043 0 13.174 3.912 16.336 9.68" class="svg-stroke"/>
            <path d="M19.439 26.485h-9.29v-1.863l3.337-3.372c1.12-1.146 2.79-2.631 2.79-4.227 0-.533-.146-.93-.44-1.191-.295-.261-.687-.391-1.178-.391-.735 0-1.63.215-3.018 1.363l-1.527-1.809c1.33-1.13 2.555-1.807 4.807-1.807 2.456 0 4.146 1.323 4.146 3.508 0 .612-.107 1.186-.323 1.723-.73 1.825-5.094 5.794-5.094 5.794h5.79v2.272zM30.365 23.823h-1.6v2.662h-2.744v-2.662h-5.782V21.87l5.936-8.68h2.59v8.452h1.6v2.182zm-4.344-2.182v-2.254c0-.372.065-2.543.118-2.881 0 0-.248.497-3.317 5.135h3.199z" class="svg-fill"/>
        </g>
    </symbol>
    <symbol id="icon-voice" viewBox="0 0 48 44" xmlns="http://www.w3.org/2000/svg">
        <g class="svg-stroke" stroke-width="3" fill="none" fill-rule="evenodd" stroke-linecap="square">
            <path d="M30.398 41.648h-28v-4.625A5.99 5.99 0 0 1 6.09 31.48c2.27-.94 5.65-1.83 10.308-1.83 4.66 0 8.038.89 10.308 1.83a5.99 5.99 0 0 1 3.692 5.544v4.625zM8.398 14.648a8 8 0 0 1 16 0c0 4.418-3.582 9-8 9s-8-4.582-8-9zM34.4 10.358a7.974 7.974 0 0 1 1.998 5.29 7.966 7.966 0 0 1-2 5.291M40.401 2.234a17.954 17.954 0 0 1 5.997 13.414c0 5.33-2.317 10.12-5.999 13.415"/>
        </g>
    </symbol>
    <symbol id="icon-key" viewBox="0 0 33 33" xmlns="http://www.w3.org/2000/svg">
        <path d="M23.004 0c-5.523 0-10 4.478-10 10a9.87 9.87 0 0 0 .713 3.629L1.568 25.777C1.217 26.129 1 26.463 1 27v3c0 1.07.929 2 2 2h3c.536 0 .875-.215 1.226-.564L8.661 30h2.343a2 2 0 0 0 2-2v-2h2a2 2 0 0 0 2-2v-2.344l2.369-2.371c1.129.445 2.344.715 3.631.715 5.521 0 10-4.478 10-10s-4.479-10-10-10zm0 18c-1.48 0-2.852-.43-4.041-1.132l-.344.343-1.125 1.125-1.905 1.906a1.999 1.999 0 0 0-.586 1.414V24h-2a2 2 0 0 0-2 2v2H8.661a2 2 0 0 0-1.414.586l-1.418 1.418L3.003 30 3 27.15l11.665-11.644.001.002 1.469-1.469c-.702-1.189-1.132-2.56-1.132-4.04A8.001 8.001 0 1 1 23.004 18z" class="svg-fill"/>
        <path d="M28.82 8.239a17.71 17.71 0 0 0-4.055-4.054.961.961 0 0 0-.882-.127c-1.389.489-2.34 1.439-2.826 2.828a.952.952 0 0 0 .127.882 17.736 17.736 0 0 0 4.053 4.053.966.966 0 0 0 .881.128c1.391-.486 2.342-1.438 2.83-2.828a.952.952 0 0 0-.128-.882zm-3 2.771A17.122 17.122 0 0 1 22 7.217c.387-1.103 1.111-1.827 2.182-2.221a16.75 16.75 0 0 1 3.816 3.811c-.391 1.095-1.113 1.815-2.178 2.203z" class="svg-fill"/>
    </symbol>
</svg>