<svg width="21" height="19" viewBox="0 0 21 19" fill="none" xmlns="http://www.w3.org/2000/svg">
<path d="M19.3125 10.375C19.7695 10.375 20.1562 10.5508 20.5078 10.8672C20.8242 11.2188 21 11.6055 21 12.0625V16.5625C21 17.0547 20.8242 17.4414 20.5078 17.7578C20.1562 18.1094 19.7695 18.25 19.3125 18.25H2.4375C1.94531 18.25 1.55859 18.1094 1.24219 17.7578C0.890625 17.4414 0.75 17.0547 0.75 16.5625V12.0625C0.75 11.6055 0.890625 11.2188 1.24219 10.8672C1.55859 10.5508 1.94531 10.375 2.4375 10.375H5.67188L4.05469 8.75781C3.70312 8.40625 3.5625 8.01953 3.5625 7.5625C3.5625 7.10547 3.73828 6.71875 4.05469 6.36719C4.37109 6.05078 4.75781 5.875 5.25 5.875H7.5V1.9375C7.5 1.48047 7.64062 1.09375 7.99219 0.742188C8.30859 0.425781 8.69531 0.25 9.1875 0.25H12.5625C13.0195 0.25 13.4062 0.425781 13.7578 0.742188C14.0742 1.09375 14.25 1.48047 14.25 1.9375V5.875H16.5C16.9922 5.875 17.3789 6.05078 17.6953 6.36719C18.0117 6.71875 18.1875 7.10547 18.1875 7.5625C18.1875 8.01953 18.0469 8.40625 17.6953 8.75781L16.0781 10.375H19.3125ZM5.25 7.5625L10.875 13.1875L16.5 7.5625H12.5625V1.9375H9.1875V7.5625H5.25ZM19.3125 16.5625V12.0625H14.3906L12.0703 14.3828C11.7188 14.7344 11.332 14.875 10.875 14.875C10.3828 14.875 9.99609 14.7344 9.67969 14.3828L7.35938 12.0625H2.4375V16.5625H19.3125ZM16.2188 14.3125C16.2188 14.5586 16.2891 14.7695 16.4648 14.9102C16.6055 15.0859 16.8164 15.1562 17.0625 15.1562C17.2734 15.1562 17.4844 15.0859 17.6602 14.9102C17.8008 14.7695 17.9062 14.5586 17.9062 14.3125C17.9062 14.1016 17.8008 13.8906 17.6602 13.7148C17.4844 13.5742 17.2734 13.4688 17.0625 13.4688C16.8164 13.4688 16.6055 13.5742 16.4648 13.7148C16.2891 13.8906 16.2188 14.1016 16.2188 14.3125Z" fill="#623E98"/>
</svg>
