<?xml version="1.0" standalone="no"?>
<!DOCTYPE svg PUBLIC "-//W3C//DTD SVG 20010904//EN"
 "http://www.w3.org/TR/2001/REC-SVG-20010904/DTD/svg10.dtd">
<svg version="1.0" xmlns="http://www.w3.org/2000/svg"
 width="512.000000pt" height="512.000000pt" viewBox="0 0 512.000000 512.000000"
 preserveAspectRatio="xMidYMid meet">
<metadata>
Created by potrace 1.11, written by Peter Selinger 2001-2013
</metadata>
<g transform="translate(0.000000,512.000000) scale(0.100000,-0.100000)"
fill="#000000" stroke="none">
<path d="M0 2560 l0 -2560 2560 0 2560 0 0 2560 0 2560 -2560 0 -2560 0 0
-2560z m845 1430 c138 -27 284 -57 325 -65 173 -36 330 -67 405 -81 44 -7 109
-21 145 -29 36 -8 135 -29 220 -45 85 -16 232 -45 325 -64 94 -19 181 -37 195
-40 104 -19 157 -37 175 -59 11 -13 95 -120 186 -238 92 -118 233 -299 315
-404 81 -104 191 -246 243 -314 146 -188 211 -273 264 -339 26 -33 47 -64 47
-69 0 -8 -80 -52 -435 -236 -82 -43 -195 -102 -250 -132 -55 -29 -163 -85
-240 -125 -96 -49 -160 -90 -205 -130 -36 -32 -95 -82 -132 -111 -36 -30 -110
-90 -165 -134 -54 -43 -147 -119 -208 -168 -60 -49 -186 -150 -279 -225 -215
-175 -206 -168 -206 -149 0 14 21 62 111 255 22 45 39 84 39 87 0 2 23 53 51
112 28 59 68 146 89 193 21 47 63 139 93 205 30 66 96 210 146 320 50 110 91
210 91 222 0 13 -23 47 -58 85 -90 98 -408 452 -607 678 -99 112 -351 388
-560 613 -209 225 -384 415 -388 423 -11 20 -11 20 268 -36z m3192 -1042 c-3
-13 -29 -88 -57 -168 -28 -80 -62 -176 -75 -215 -13 -38 -38 -108 -55 -155
-18 -47 -36 -100 -42 -119 l-10 -34 -23 24 c-57 59 -454 563 -449 571 3 4 15
8 26 8 24 0 453 74 548 94 36 8 82 14 104 15 35 1 38 -1 33 -21z m320 -206
c35 -26 63 -50 63 -53 0 -4 -37 -9 -82 -13 -46 -4 -136 -14 -201 -22 -65 -9
-121 -13 -124 -10 -3 3 6 43 20 88 14 46 31 103 37 128 23 89 20 88 128 4 53
-41 125 -96 159 -122z m-707 -669 c0 -32 -4 -63 -8 -69 -4 -7 -45 -25 -92 -42
-47 -16 -96 -35 -110 -40 -14 -6 -77 -30 -140 -53 -63 -23 -144 -52 -180 -66
-36 -13 -101 -37 -145 -53 -44 -15 -111 -40 -149 -54 -39 -14 -71 -24 -73 -22
-3 2 76 44 174 94 98 49 297 151 443 226 146 74 268 135 273 136 4 0 7 -26 7
-57z"/>
</g>
</svg>
