<svg version="1" xmlns="http://www.w3.org/2000/svg" width="746.667" height="746.667" viewBox="0 0 560.000000 560.000000"><path d="M274 24.2c-.2 233.6.1 509.2.5 509.6.3.3.5-1 .6-2.9.1-1.9.2-4.5.4-5.9.1-1.4.6-5.9.9-10 .4-4.1.9-9.1 1.1-11 .7-5.7 1.8-19.2 1.9-23.2.1-2.1.3-3.8.6-3.8s.5-2.1.6-4.8c.1-4.2.9-14.9 1.9-24.2.2-1.9.6-7.1 1-11.5s.9-9.8 1.1-12c.2-2.2.6-6.3.8-9 .3-2.8.8-8.6 1.2-13 .4-4.4.7-9.8.8-12 .1-4.3.1-4.3 11.1-9.9 2.8-1.4 9.5-4.9 15-7.9 5.5-2.9 16.5-8.8 24.5-12.9 19.7-10.3 30.5-16 43.5-22.8 6.1-3.2 13.9-7.3 17.5-9.2 12.1-6.3 11.7-5 4.7-14.2-3.4-4.5-6.5-8.3-6.8-8.6-.3-.3-9.9-12.7-21.4-27.5-11.5-14.9-22-28.4-23.5-30.1-1.4-1.7-3.3-4.2-4.3-5.6-1-1.4-4.8-6.4-8.5-11-3.7-4.7-9.5-12.1-12.8-16.4-28.4-36.5-35.7-45.9-37-47.9-1.4-2.2-1.9-4.7-2.9-17.5-.3-3.6-.8-8.8-1-11.5-1.2-11-1.4-13.3-2-21-.4-4.4-.9-9.1-1.1-10.5-.2-1.4-.6-5.2-.9-8.5-.6-8.1-1.3-16-2-21.5-.3-2.5-.8-7-1-10-.8-9.6-1.3-15.3-1.9-21.5-1-9.7-1.8-17.9-1.9-19.3 0-1-.7-1.9-.7-1zM69 128.5v4.5h9v-9h-9v4.5zM111.9 131.5c-.1 1.4-.1 3.6-.1 5s0 2.9.1 3.5c.1.5 2.8 1 6.1 1h6v-12h-6c-5.7 0-6 .1-6.1 2.5zM140.3 133.8l-3.3.3V157h24v-22.9l-8.7-.3c-4.9-.2-10.3-.2-12 0zM95.8 135.8l-4.8.3v12l6.3-.3 6.2-.3.3-5.2c.4-6.1-.7-7-8-6.5zM175 151v8h16v-16h-16v8zM215 152.1c0 .3-1.1.4-2.4.2-3-.6-3.2.3-2.8 11.3l.3 8.4H231v-20l-2.7-.1c-1.6 0-5.2-.1-8.1-.2-2.8-.1-5.2.1-5.2.4zM88 161c0 4 0 4 3.9 4 3.8 0 3.9-.1 4.3-3.8l.3-3.9-4.2-.2-4.3-.2v4.1zM122 162v4h8v-8h-8v4zM249 168v6h13v-12h-13v6zM177 174.5v8.5h17v-17h-17v8.5zM98 178v8h16v-16H98v8zM151 180.5v6.5h14v-13h-14v6.5zM125 184v6h13v-12h-13v6zM235 185.9c0 4.4.4 8.1 1 8.3.5.1 4.1.2 8 0l7-.4V178h-16v7.9zM175.3 191.8c-2.1.3-2.3.9-2.3 6.3v5.9h12v-6.2c0-3.4-.2-5.9-.6-5.6-.3.3-1.9.3-3.7-.1-1.8-.4-4.2-.5-5.4-.3zM200.3 191.8c-2.1.3-2.3.9-2.3 6.3v5.9h12.1l-.3-5.7c-.3-5.8-.3-5.8-3.8-6.3-1.9-.3-4.5-.4-5.7-.2zM121 201.5v4.5h9v-9h-9v4.5zM220 204.4c0 7.4 0 7.5 2.8 7.8 1.5.2 4.9.1 7.5-.1 5.7-.4 6.4-1.4 5.9-9.5l-.4-5.6H220v7.4zM243 208v9h19v-18h-19v9zM150 214.9c0 4.4.4 8.2.9 8.6.6.3 4.3.6 8.3.7l7.3.2.3-8.7.3-8.7H150v7.9zM136 214v4h9v-8h-9v4zM199 223.8v8.3l6.9-.2c3.8-.1 7.3.1 7.9.5.6.3 1.3.2 1.6-.3.8-1.2 1-15 .3-15.7-.3-.3-4.2-.6-8.6-.7l-8.1-.2v8.3zM235.3 223.8c-2 .3-2.3.9-2.3 5.3v4.9h10v-4.9c0-4.6-.2-4.9-2.7-5.2-1.6-.2-3.8-.3-5-.1zM171 229.5v4.5h8v-9h-8v4.5zM245 246v8h17v-16h-17v8zM178 243v4h9v-8h-9v4z"/><path d="M442.8 241.2c-2 .4-5.1.9-7 1.1-1.8.3-7.6 1.2-12.8 2.2-5.2.9-10.8 1.8-12.5 2.1-1.6.2-4.1.6-5.5.9-6 1.3-8.6 1.7-10.5 1.9-1.1.1-3.3.5-5 .9-2.9.6-5.5 1.1-15.3 2.4-2.3.3-4.5 1-4.8 1.5-.5.7 3.5 6.5 7.1 10.4.5.6 2.1 2.6 3.5 4.4 2.7 3.6 4.3 5.6 8.8 11 1.6 1.9 8 9.8 14.1 17.5 16.6 20.8 17.2 21.5 18 21.5.4 0 2.1-4.2 3.8-9.3 1.7-5 5.2-15.1 7.7-22.2 2.6-7.2 4.8-13.7 5.1-14.5.2-.8 2.5-7.4 5-14.5 6.2-17.3 6.5-18.2 5.1-18.1-.6 0-2.8.3-4.8.8zM215.8 244.2c-.7 6.2-.2 6.8 5.8 6.8h5.4v-10h-5.4c-5.3 0-5.4 0-5.8 3.2zM191 252.5v9.5h20v-19h-20v9.5zM453.6 248.7c-.8 2.6-2.6 8.6-4.1 13.3-1.4 4.7-2.8 9.2-3 10-.2.8-.6 2.3-1 3.3-.8 1.9-.4 1.9 12.5.2 1.9-.2 6.2-.7 9.5-1 3.3-.3 8.3-.8 11-1.1 2.8-.4 6.2-.7 7.7-.8 1.5-.1 2.9-.4 3.2-.7.3-.3-2.4-3-6.2-5.9-3.7-3-6.8-5.8-7-6.2-.2-.4-.9-.8-1.5-.8s-2.2-1-3.6-2.3c-1.5-1.3-5.6-4.7-9.3-7.6l-6.7-5.2-1.5 4.8zM244.6 260l-3.9.5.2 9.5c.1 5.2.4 9.6.5 9.7.3.4 7.5.6 14.9.4l5.8-.1-.3-10.1-.3-10.1-6.5-.2c-3.6 0-8.3.1-10.4.4zM228.4 264.2c-.3.5-.4 2.3-.2 4.1.2 2.5.9 3.3 2.8 3.7 4.6 1.1 6 .1 6-4 0-3.7-.1-3.8-4.1-4.2-2.2-.2-4.3 0-4.5.4zM216 278.2v4.8h3.9c3.5 0 3.9-.3 4.3-3 .3-1.7.1-3-.3-3-.5 0-.6-.6-.3-1.4.4-1-.6-1.5-3.5-1.8l-4.1-.4v4.8zM234 300v13h28v-26h-28v13zM251 327v5h11v-10h-11v5zM403.6 334.7c-.4.5-1.1.8-1.4.8-.4.1-3.2 1.4-6.2 2.9-3 1.6-12.2 6.3-20.5 10.6-8.2 4.3-27.3 13.9-42.3 21.5-15 7.6-27.1 13.9-26.9 14.1.3.3 12.4-3.8 16.2-5.6 1.1-.4 19.6-7.3 41-15.1 21.5-7.8 39.4-14.6 39.9-15 .7-.7 1.9-14.9 1.2-14.9-.1 0-.6.3-1 .7zM242 348.5v9.5h20v-19h-20v9.5zM239.2 377.1l.3 11.2 5.8-.1c3.1 0 8.2-.1 11.2-.1l5.5-.1v-22h-23.1l.3 11.1zM219.5 367.9c-2.8.6-3 .9-3.5 6.2-.8 9-.9 8.9 7.6 8.9h7.4v-7.5c0-7.5 0-7.5-2.7-7.6-1.6 0-3.5-.2-4.3-.3-.8-.1-2.8 0-4.5.3zM205 400v6h13v-12h-13v6zM238.7 403.8c-1.5.3-1.7 1.9-1.7 11.8V427h25.1l-.3-11.6-.3-11.6-10.6-.1c-5.8-.1-11.3-.1-12.2.1zM225 415.5c0 2.1.5 2.5 3 2.5s3-.4 3-2.5-.5-2.5-3-2.5-3 .4-3 2.5zM209 422.5v4.5h9v-9h-9v4.5zM189 434.5v7.5h16v-15h-16v7.5zM229 438.5v4.5h9v-9h-9v4.5zM195.8 452.7c-.1 3.2-.2 7.7 0 10l.3 4.3H217v-20h-20.8l-.4 5.7zM179 456.5v5.5h11v-11h-11v5.5zM186 471.5v4.5h9v-9h-9v4.5zM173 476.5c0 2.1.5 2.5 3 2.5s3-.4 3-2.5-.5-2.5-3-2.5-3 .4-3 2.5z"/></svg>