<svg width="17" height="17" viewBox="0 0 17 17" fill="none" xmlns="http://www.w3.org/2000/svg">
<path d="M10.8125 6.1875C10.4688 5.875 10.0938 5.59375 9.6875 5.375C9.53125 5.3125 9.375 5.3125 9.25 5.4375L9.125 5.5625C8.84375 5.84375 8.6875 6.15625 8.65625 6.53125C8.625 6.71875 8.6875 6.84375 8.875 6.90625C9.125 7.03125 9.375 7.21875 9.59375 7.40625C10.0938 7.9375 10.3438 8.5625 10.3438 9.28125C10.3438 10.0312 10.0938 10.625 9.59375 11.125L7.21875 13.4688C6.71875 14 6.09375 14.25 5.375 14.25C4.625 14.25 4 14 3.5 13.5C3 13 2.75 12.375 2.75 11.625C2.75 10.9062 3 10.2812 3.53125 9.78125L4.9375 8.34375C5.03125 8.25 5.0625 8.125 5.0625 8C4.9375 7.625 4.90625 7.21875 4.90625 6.8125C4.90625 6.65625 4.8125 6.53125 4.65625 6.46875C4.5 6.40625 4.375 6.4375 4.25 6.5625L2.28125 8.53125C1.71875 9.09375 1.3125 9.75 1.125 10.5C0.9375 11.25 0.9375 12 1.125 12.75C1.3125 13.5 1.71875 14.1562 2.28125 14.7188C2.84375 15.2812 3.5 15.6875 4.25 15.875C5 16.0625 5.75 16.0625 6.5 15.875C7.25 15.6875 7.90625 15.2812 8.46875 14.7188L9.78125 13.4062C10.5625 12.625 11 12.1562 11.125 12.0312C11.5625 11.4688 11.875 10.8438 12 10.125C12.125 9.4375 12.0938 8.71875 11.9062 8.03125C11.6875 7.34375 11.3125 6.71875 10.8125 6.1875ZM15.7188 1.28125C16.2812 1.84375 16.6562 2.5 16.8438 3.25C17.0312 4 17.0312 4.75 16.8438 5.5C16.6562 6.25 16.2812 6.90625 15.7188 7.46875L13.75 9.4375C13.625 9.5625 13.4688 9.59375 13.3125 9.53125C13.1562 9.46875 13.0938 9.375 13.0938 9.1875C13.0938 8.8125 13.0312 8.40625 12.9375 8C12.9062 7.875 12.9375 7.78125 13.0625 7.65625L14.4688 6.21875C14.9688 5.71875 15.25 5.125 15.25 4.375C15.25 3.65625 14.9688 3.03125 14.4688 2.53125C13.9688 2.03125 13.3438 1.75 12.625 1.75C11.875 1.75 11.2812 2.03125 10.7812 2.53125L8.40625 4.875C7.90625 5.375 7.65625 6 7.65625 6.71875C7.65625 7.46875 7.90625 8.09375 8.40625 8.59375C8.59375 8.8125 8.84375 8.96875 9.125 9.09375C9.28125 9.1875 9.34375 9.3125 9.34375 9.46875C9.28125 9.84375 9.125 10.1875 8.875 10.4375L8.75 10.5625C8.59375 10.6875 8.4375 10.7188 8.3125 10.625C7.875 10.4375 7.5 10.1562 7.1875 9.8125C6.65625 9.3125 6.28125 8.6875 6.09375 8C5.875 7.3125 5.84375 6.59375 5.96875 5.875C6.09375 5.1875 6.40625 4.53125 6.875 3.96875C6.96875 3.84375 7.40625 3.40625 8.21875 2.59375L9.53125 1.28125C10.0938 0.71875 10.75 0.34375 11.5 0.15625C12.25 -0.03125 13 -0.03125 13.75 0.15625C14.5 0.34375 15.1562 0.71875 15.7188 1.28125Z" fill="#24272A" fill-opacity="0.3"/>
</svg>
