<svg width="32" height="28" viewBox="0 0 32 28" fill="none" xmlns="http://www.w3.org/2000/svg">
<path d="M29 14C29.8125 14 30.5 14.3125 31.125 14.875C31.6875 15.5 32 16.1875 32 17V25C32 25.875 31.6875 26.5625 31.125 27.125C30.5 27.75 29.8125 28 29 28H21C20.125 28 19.4375 27.75 18.875 27.125C18.25 26.5625 18 25.875 18 25V10C18 8.25 18.4375 6.5625 19.3125 5C20.1875 3.5 21.4375 2.25 23 1.375C24.5 0.5 26.1875 0 28 0H28.5C28.875 0 29.25 0.1875 29.5625 0.4375C29.8125 0.75 30 1.125 30 1.5V4.5C30 4.9375 29.8125 5.3125 29.5625 5.5625C29.25 5.875 28.875 6 28.5 6H28C26.875 6 25.9375 6.4375 25.1875 7.1875C24.375 8 24 8.9375 24 10V14H29ZM11 14C11.8125 14 12.5 14.3125 13.125 14.875C13.6875 15.5 14 16.1875 14 17V25C14 25.875 13.6875 26.5625 13.125 27.125C12.5 27.75 11.8125 28 11 28H3C2.125 28 1.4375 27.75 0.875 27.125C0.25 26.5625 0 25.875 0 25V10C0 8.25 0.4375 6.5625 1.3125 5C2.1875 3.5 3.4375 2.25 5 1.375C6.5 0.5 8.1875 0 10 0H10.5C10.875 0 11.25 0.1875 11.5625 0.4375C11.8125 0.75 12 1.125 12 1.5V4.5C12 4.9375 11.8125 5.3125 11.5625 5.5625C11.25 5.875 10.875 6 10.5 6H10C8.875 6 7.9375 6.4375 7.1875 7.1875C6.375 8 6 8.9375 6 10V14H11Z" fill="#F1F1F1"/>
</svg>
