<svg width="24" height="24" viewBox="0 0 24 24" fill="none" xmlns="http://www.w3.org/2000/svg">
<g clip-path="url(#clip0_67_665)">
<path d="M11.8973 0.00683594C5.81991 0.00683594 6.19937 2.65295 6.19937 2.65295L6.20612 5.39441H12.0057V6.21747H3.90262C3.90262 6.21747 0.0136719 5.77465 0.0136719 11.9314C0.0136719 18.0882 3.40804 17.8699 3.40804 17.8699H5.43379V15.0129C5.43379 15.0129 5.32458 11.6049 8.77397 11.6049H14.5261C14.5261 11.6049 17.7578 11.6573 17.7578 8.46895V3.19724C17.7578 3.19724 18.2487 0.00683594 11.8973 0.00683594ZM8.69945 1.85041C8.8365 1.85029 8.97222 1.8773 9.09886 1.9299C9.2255 1.9825 9.34057 2.05965 9.43748 2.15695C9.53438 2.25425 9.61123 2.36978 9.66362 2.49692C9.71601 2.62407 9.74291 2.76034 9.74279 2.89794C9.74291 3.03554 9.71601 3.17181 9.66362 3.29896C9.61123 3.42611 9.53438 3.54164 9.43748 3.63893C9.34057 3.73623 9.2255 3.81339 9.09886 3.86599C8.97222 3.91858 8.8365 3.9456 8.69945 3.94547C8.5624 3.9456 8.42667 3.91858 8.30003 3.86599C8.17339 3.81339 8.05833 3.73623 7.96142 3.63893C7.86451 3.54164 7.78767 3.42611 7.73528 3.29896C7.68289 3.17181 7.65598 3.03554 7.65611 2.89794C7.65598 2.76034 7.68289 2.62407 7.73528 2.49692C7.78767 2.36978 7.86451 2.25425 7.96142 2.15695C8.05833 2.05965 8.17339 1.9825 8.30003 1.9299C8.42667 1.8773 8.5624 1.85029 8.69945 1.85041Z" fill="url(#paint0_linear_67_665)"/>
<path d="M12.0696 23.9177C18.147 23.9177 17.7676 21.2716 17.7676 21.2716L17.7608 18.5302H11.9611V17.7072H20.0642C20.0642 17.7072 23.9532 18.15 23.9532 11.9931C23.9532 5.83632 20.5588 6.05467 20.5588 6.05467H18.533V8.91161C18.533 8.91161 18.6423 12.3196 15.1929 12.3196H9.44071C9.44071 12.3196 6.20899 12.2672 6.20899 15.4556V20.7274C6.20899 20.7274 5.71825 23.9177 12.0695 23.9177H12.0696ZM15.2675 22.0743C15.1304 22.0745 14.9947 22.0475 14.8681 21.9949C14.7414 21.9423 14.6264 21.8651 14.5295 21.7678C14.4325 21.6705 14.3557 21.555 14.3033 21.4278C14.2509 21.3007 14.224 21.1644 14.2241 21.0268C14.224 20.8892 14.2509 20.7529 14.3033 20.6258C14.3557 20.4986 14.4325 20.3831 14.5294 20.2858C14.6263 20.1884 14.7414 20.1113 14.868 20.0587C14.9947 20.0061 15.1304 19.9791 15.2675 19.9792C15.4045 19.9791 15.5403 20.0061 15.6669 20.0587C15.7935 20.1113 15.9086 20.1884 16.0055 20.2857C16.1024 20.383 16.1793 20.4985 16.2316 20.6257C16.284 20.7528 16.3109 20.8891 16.3108 21.0267C16.3109 21.1643 16.284 21.3006 16.2316 21.4277C16.1793 21.5549 16.1024 21.6704 16.0055 21.7677C15.9086 21.865 15.7935 21.9422 15.6669 21.9948C15.5403 22.0474 15.4045 22.0745 15.2675 22.0743Z" fill="url(#paint1_linear_67_665)"/>
</g>
<defs>
<linearGradient id="paint0_linear_67_665" x1="230.074" y1="215.072" x2="1421.17" y2="1389.56" gradientUnits="userSpaceOnUse">
<stop stop-color="#387EB8"/>
<stop offset="1" stop-color="#366994"/>
</linearGradient>
<linearGradient id="paint1_linear_67_665" x1="345.779" y1="373.677" x2="1624.64" y2="1577.79" gradientUnits="userSpaceOnUse">
<stop stop-color="#FFE052"/>
<stop offset="1" stop-color="#FFC331"/>
</linearGradient>
<clipPath id="clip0_67_665">
<rect width="24" height="24" fill="white"/>
</clipPath>
</defs>
</svg>
