<svg width="28" height="28" viewBox="0 0 28 28" fill="none" xmlns="http://www.w3.org/2000/svg">
<mask id="mask0_67_987" style="mask-type:alpha" maskUnits="userSpaceOnUse" x="0" y="0" width="28" height="28">
<rect width="28" height="28" fill="#D9D9D9"/>
</mask>
<g mask="url(#mask0_67_987)">
<path d="M14.0002 25.6667C13.3585 25.6667 12.8092 25.4382 12.3522 24.9813C11.8953 24.5243 11.6668 23.975 11.6668 23.3334V14C11.6668 13.3584 11.8953 12.8091 12.3522 12.3521C12.8092 11.8952 13.3585 11.6667 14.0002 11.6667H23.3335C23.9752 11.6667 24.5245 11.8952 24.9814 12.3521C25.4384 12.8091 25.6668 13.3584 25.6668 14V23.3334C25.6668 23.975 25.4384 24.5243 24.9814 24.9813C24.5245 25.4382 23.9752 25.6667 23.3335 25.6667H14.0002ZM7.00016 21V9.33337C7.00016 8.69171 7.22864 8.1424 7.68558 7.68546C8.14252 7.22851 8.69183 7.00004 9.3335 7.00004H21.0002V9.33337H9.3335V21H7.00016ZM2.3335 16.3334V4.66671C2.3335 4.02504 2.56197 3.47574 3.01891 3.01879C3.47586 2.56185 4.02516 2.33337 4.66683 2.33337H16.3335V4.66671H4.66683V16.3334H2.3335Z" fill="#D3CBFF"/>
</g>
</svg>
