<svg width="24" height="21" viewBox="0 0 24 21" fill="none" xmlns="http://www.w3.org/2000/svg">
<path d="M0.803 13.8171C0.803 13.5608 0.904827 13.315 1.08608 13.1337C1.26734 12.9524 1.51317 12.8506 1.7695 12.8506C2.02583 12.8506 2.27166 12.9524 2.45292 13.1337C2.63417 13.315 2.736 13.5608 2.736 13.8171C2.736 14.0735 2.63417 14.3193 2.45292 14.5005C2.27166 14.6818 2.02583 14.7836 1.7695 14.7836C1.51317 14.7836 1.26734 14.6818 1.08608 14.5005C0.904827 14.3193 0.803 14.0735 0.803 13.8171ZM3.539 13.8171C3.539 13.6211 3.486 13.4411 3.427 13.2641C3.193 12.5621 2.551 12.0481 1.77 12.0481C1.645 12.0481 1.535 12.0941 1.417 12.1181C0.615 12.2861 0 12.9651 0 13.8171C0.0109841 14.2791 0.202235 14.7185 0.532884 15.0414C0.863533 15.3643 1.30735 15.5451 1.7695 15.5451C2.23165 15.5451 2.67547 15.3643 3.00612 15.0414C3.33676 14.7185 3.52802 14.2791 3.539 13.8171ZM1.769 6.66812C1.89599 6.66812 2.02173 6.69313 2.13905 6.74173C2.25638 6.79033 2.36298 6.86155 2.45277 6.95135C2.54257 7.04114 2.6138 7.14774 2.66239 7.26507C2.71099 7.38239 2.736 7.50813 2.736 7.63512C2.736 7.76211 2.71099 7.88785 2.66239 8.00518C2.6138 8.1225 2.54257 8.2291 2.45277 8.31889C2.36298 8.40869 2.25638 8.47992 2.13905 8.52851C2.02173 8.57711 1.89599 8.60212 1.769 8.60212C1.51254 8.60212 1.26658 8.50024 1.08523 8.31889C0.90388 8.13755 0.802 7.89159 0.802 7.63512C0.802 7.37866 0.90388 7.1327 1.08523 6.95135C1.26658 6.77 1.51254 6.66812 1.769 6.66812ZM1.769 9.40412C2.00144 9.40412 2.2316 9.35834 2.44635 9.26939C2.6611 9.18044 2.85622 9.05006 3.02058 8.8857C3.18494 8.72134 3.31532 8.52622 3.40427 8.31147C3.49322 8.09672 3.539 7.86656 3.539 7.63412C3.539 7.43912 3.486 7.25812 3.427 7.08212C3.193 6.38012 2.55 5.86512 1.77 5.86512C1.645 5.86512 1.535 5.91212 1.417 5.93712C0.615 6.10412 0 6.78212 0 7.63412C0 8.61112 0.791 9.40412 1.769 9.40412ZM14.99 3.71012C14.8631 3.71012 14.7374 3.6851 14.6201 3.63649C14.5028 3.58788 14.3963 3.51664 14.3066 3.42683C14.2169 3.33703 14.1457 3.23042 14.0972 3.1131C14.0488 2.99578 14.0239 2.87006 14.024 2.74312C14.024 2.61618 14.049 2.49048 14.0976 2.37322C14.1462 2.25595 14.2175 2.14942 14.3073 2.0597C14.3971 1.96999 14.5037 1.89885 14.621 1.85037C14.7383 1.80188 14.8641 1.77699 14.991 1.77712C15.2473 1.77712 15.4932 1.87895 15.6744 2.0602C15.8557 2.24146 15.9575 2.48729 15.9575 2.74362C15.9575 2.99995 15.8557 3.24579 15.6744 3.42704C15.4932 3.60829 15.2473 3.71012 14.991 3.71012M5.391 20.2231C5.14005 20.215 4.90208 20.1097 4.72741 19.9293C4.55275 19.7489 4.45509 19.5077 4.45509 19.2566C4.45509 19.0055 4.55275 18.7643 4.72741 18.5839C4.90208 18.4036 5.14005 18.2982 5.391 18.2901C5.51794 18.2901 5.64364 18.3151 5.7609 18.3638C5.87817 18.4124 5.9847 18.4836 6.07442 18.5734C6.16413 18.6632 6.23527 18.7698 6.28375 18.8871C6.33224 19.0045 6.35713 19.1302 6.357 19.2571C6.357 19.5133 6.25523 19.759 6.07407 19.9402C5.89291 20.1213 5.6472 20.2231 5.391 20.2231ZM14.991 0.974121C14.5216 0.974121 14.0714 1.1606 13.7394 1.49254C13.4075 1.82448 13.221 2.27469 13.221 2.74412C13.221 2.95212 13.274 3.14612 13.34 3.33212L5.039 17.5581C4.236 17.7261 3.621 18.4041 3.621 19.2571C3.63198 19.7191 3.82324 20.1585 4.15388 20.4814C4.48453 20.8043 4.92835 20.9851 5.3905 20.9851C5.85265 20.9851 6.29647 20.8043 6.62712 20.4814C6.95776 20.1585 7.14902 19.7191 7.16 19.2571C7.15332 19.068 7.11583 18.8812 7.049 18.7041L15.392 4.43112C16.17 4.24512 16.76 3.57812 16.76 2.74312C16.7597 2.27386 16.5731 1.82391 16.2412 1.49219C15.9093 1.16047 15.4593 0.974121 14.99 0.974121M22.23 3.71012C22.1031 3.71012 21.9774 3.6851 21.8601 3.63649C21.7428 3.58788 21.6363 3.51664 21.5466 3.42683C21.4569 3.33703 21.3857 3.23042 21.3372 3.1131C21.2888 2.99578 21.2639 2.87006 21.264 2.74312C21.264 2.61618 21.289 2.49048 21.3376 2.37322C21.3862 2.25595 21.4575 2.14942 21.5473 2.0597C21.6371 1.96999 21.7437 1.89885 21.861 1.85037C21.9783 1.80188 22.1041 1.77699 22.231 1.77712C22.4873 1.77712 22.7332 1.87895 22.9144 2.0602C23.0957 2.24146 23.1975 2.48729 23.1975 2.74362C23.1975 2.99995 23.0957 3.24579 22.9144 3.42704C22.7332 3.60829 22.4873 3.71012 22.231 3.71012M12.631 20.2231C12.5041 20.2231 12.3784 20.1981 12.2611 20.1495C12.1438 20.1009 12.0373 20.0296 11.9476 19.9398C11.8579 19.85 11.7867 19.7434 11.7382 19.6261C11.6898 19.5088 11.6649 19.3831 11.665 19.2561C11.665 18.9999 11.7668 18.7542 11.9479 18.5731C12.1291 18.3919 12.3748 18.2901 12.631 18.2901C12.8873 18.2901 13.1332 18.392 13.3144 18.5732C13.4957 18.7545 13.5975 19.0003 13.5975 19.2566C13.5975 19.513 13.4957 19.7588 13.3144 19.94C13.1332 20.1213 12.8873 20.2231 12.631 20.2231ZM22.231 0.974121C21.7616 0.974121 21.3114 1.1606 20.9794 1.49254C20.6475 1.82448 20.461 2.27469 20.461 2.74412C20.461 2.95212 20.514 3.14612 20.58 3.33212L12.279 17.5581C11.477 17.7261 10.862 18.4041 10.862 19.2571C10.8774 19.716 11.0706 20.1509 11.4006 20.4701C11.7307 20.7892 12.1719 20.9676 12.631 20.9676C13.0901 20.9676 13.5313 20.7892 13.8614 20.4701C14.1914 20.1509 14.3846 19.716 14.4 19.2571C14.4 19.0601 14.347 18.8811 14.289 18.7041L22.632 4.43112C23.409 4.24512 24 3.57812 24 2.74312C23.9997 2.27386 23.8131 1.82391 23.4812 1.49219C23.1493 1.16047 22.6993 0.974121 22.23 0.974121" fill="#A99BF9"/>
</svg>
