<svg width="22" height="21" viewBox="0 0 22 21" fill="none" xmlns="http://www.w3.org/2000/svg">
<path d="M2.83333 21C2.19167 21 1.64236 20.7715 1.18542 20.3146C0.728472 19.8576 0.5 19.3083 0.5 18.6667V2.33333C0.5 1.69167 0.728472 1.14236 1.18542 0.685417C1.64236 0.228472 2.19167 0 2.83333 0H13.3333V5.83333H15.6667V8.16667H21.5V18.6667C21.5 19.3083 21.2715 19.8576 20.8146 20.3146C20.3576 20.7715 19.8083 21 19.1667 21H2.83333ZM4 16.3333H18L13.625 10.5L10.125 15.1667L7.5 11.6667L4 16.3333ZM16.8333 7V4.66667H14.5V2.33333H16.8333V0H19.1667V2.33333H21.5V4.66667H19.1667V7H16.8333Z" fill="#D3CBFF"/>
</svg>
