<svg width="28" height="28" viewBox="0 0 28 28" fill="none" xmlns="http://www.w3.org/2000/svg">
<mask id="mask0_67_1021" style="mask-type:alpha" maskUnits="userSpaceOnUse" x="0" y="0" width="28" height="28">
<rect width="28" height="28" fill="#D9D9D9"/>
</mask>
<g mask="url(#mask0_67_1021)">
<path d="M4.63753 23.1L3.64587 22.6916C3.04309 22.4388 2.63962 22.0013 2.43545 21.3791C2.23128 20.7569 2.26531 20.1444 2.53753 19.5416L4.63753 14.9916V23.1ZM9.3042 25.6666C8.66253 25.6666 8.11323 25.4381 7.65628 24.9812C7.19934 24.5243 6.97087 23.9749 6.97087 23.3333V16.3333L10.0625 24.9083C10.1209 25.0444 10.1792 25.1756 10.2375 25.302C10.2959 25.4284 10.3736 25.5499 10.4709 25.6666H9.3042ZM15.3125 25.5499C14.6903 25.7833 14.0875 25.7541 13.5042 25.4625C12.9209 25.1708 12.5125 24.7138 12.2792 24.0916L7.08753 9.85828C6.8542 9.23606 6.87364 8.62842 7.14587 8.03537C7.41809 7.44231 7.86531 7.03884 8.48753 6.82495L17.2959 3.61662C17.9181 3.38328 18.5209 3.41245 19.1042 3.70412C19.6875 3.99578 20.0959 4.45273 20.3292 5.07495L25.5209 19.3083C25.7542 19.9305 25.7348 20.5381 25.4625 21.1312C25.1903 21.7243 24.7431 22.1277 24.1209 22.3416L15.3125 25.5499ZM12.8042 11.6666C13.1348 11.6666 13.4118 11.5548 13.6354 11.3312C13.8591 11.1076 13.9709 10.8305 13.9709 10.4999C13.9709 10.1694 13.8591 9.89231 13.6354 9.6687C13.4118 9.44509 13.1348 9.33328 12.8042 9.33328C12.4736 9.33328 12.1966 9.44509 11.9729 9.6687C11.7493 9.89231 11.6375 10.1694 11.6375 10.4999C11.6375 10.8305 11.7493 11.1076 11.9729 11.3312C12.1966 11.5548 12.4736 11.6666 12.8042 11.6666Z" fill="#D3CBFF"/>
</g>
</svg>
