<svg width="28" height="28" viewBox="0 0 28 28" fill="none" xmlns="http://www.w3.org/2000/svg">
<mask id="mask0_67_918" style="mask-type:alpha" maskUnits="userSpaceOnUse" x="0" y="0" width="28" height="28">
<rect width="28" height="28" fill="#D9D9D9"/>
</mask>
<g mask="url(#mask0_67_918)">
<path d="M11.2 18.2L12.8333 16.5083L10.325 14L12.8333 11.4916L11.2 9.79996L7 14L11.2 18.2ZM16.8 18.2L21 14L16.8 9.79996L15.1667 11.4916L17.675 14L15.1667 16.5083L16.8 18.2ZM5.83333 24.5C5.19167 24.5 4.64236 24.2715 4.18542 23.8145C3.72847 23.3576 3.5 22.8083 3.5 22.1666V5.83329C3.5 5.19163 3.72847 4.64232 4.18542 4.18538C4.64236 3.72843 5.19167 3.49996 5.83333 3.49996H10.7333C10.9861 2.79996 11.409 2.23607 12.0021 1.80829C12.5951 1.38051 13.2611 1.16663 14 1.16663C14.7389 1.16663 15.4049 1.38051 15.9979 1.80829C16.591 2.23607 17.0139 2.79996 17.2667 3.49996H22.1667C22.8083 3.49996 23.3576 3.72843 23.8146 4.18538C24.2715 4.64232 24.5 5.19163 24.5 5.83329V22.1666C24.5 22.8083 24.2715 23.3576 23.8146 23.8145C23.3576 24.2715 22.8083 24.5 22.1667 24.5H5.83333ZM14 4.95829C14.2528 4.95829 14.4618 4.87565 14.6271 4.71038C14.7924 4.5451 14.875 4.33607 14.875 4.08329C14.875 3.83052 14.7924 3.62149 14.6271 3.45621C14.4618 3.29093 14.2528 3.20829 14 3.20829C13.7472 3.20829 13.5382 3.29093 13.3729 3.45621C13.2076 3.62149 13.125 3.83052 13.125 4.08329C13.125 4.33607 13.2076 4.5451 13.3729 4.71038C13.5382 4.87565 13.7472 4.95829 14 4.95829Z" fill="#D3CBFF"/>
</g>
</svg>
