<svg width="28" height="14" viewBox="0 0 28 14" fill="none" xmlns="http://www.w3.org/2000/svg">
<g clip-path="url(#clip0_67_674)">
<path d="M2.21656 2.94493H6.34872C7.56155 2.95512 8.4404 3.3048 8.98529 3.99339C9.53017 4.68199 9.70996 5.62252 9.52494 6.81498C9.45308 7.35986 9.29366 7.89427 9.04696 8.4185C8.8072 8.94751 8.47278 9.42824 8.06018 9.837C7.54613 10.3714 6.9963 10.7106 6.4104 10.8546C5.82449 10.9986 5.21794 11.0705 4.59101 11.0705H2.74079L2.15489 14H0.0117188L2.21656 2.94493ZM4.02053 4.70264L3.09542 9.32819C3.15709 9.33838 3.21877 9.34361 3.28044 9.34361H3.4963C4.48308 9.35379 5.3055 9.25634 5.96326 9.05066C6.62102 8.8348 7.06321 8.08453 7.28925 6.79956C7.47427 5.72026 7.28925 5.09829 6.73419 4.93392C6.1893 4.76955 5.50594 4.69246 4.68353 4.70264C4.56018 4.71283 4.44207 4.71806 4.3289 4.71806H4.00511L4.02053 4.70264ZM11.9663 0H14.094L13.4927 2.94493H15.4046C16.4531 2.96559 17.2342 3.18145 17.7482 3.59251C18.2725 4.00357 18.4266 4.78497 18.2108 5.93612L17.1777 11.0705H15.0192L16.0059 6.1674C16.1086 5.65335 16.0778 5.28855 15.9134 5.07269C15.7491 4.85683 15.3944 4.7489 14.8496 4.7489L13.1381 4.73348L11.8738 11.0705H9.74603L11.9663 0ZM20.4956 2.94493H24.6278C25.8406 2.95512 26.7195 3.3048 27.2644 3.99339C27.8092 4.68199 27.989 5.62252 27.804 6.81498C27.7322 7.35986 27.5727 7.89427 27.326 8.4185C27.0863 8.94751 26.7519 9.42824 26.3393 9.837C25.8252 10.3714 25.2754 10.7106 24.6895 10.8546C24.1036 10.9986 23.497 11.0705 22.8701 11.0705H21.0199L20.434 14H18.2908L20.4956 2.94493ZM22.2996 4.70264L21.3745 9.32819C21.4362 9.33838 21.4978 9.34361 21.5595 9.34361H21.7754C22.7622 9.35379 23.5846 9.25634 24.2423 9.05066C24.9001 8.8348 25.3423 8.08453 25.5683 6.79956C25.7533 5.72026 25.5683 5.09829 25.0133 4.93392C24.4684 4.76955 23.785 4.69246 22.9626 4.70264C22.8392 4.71283 22.7211 4.71806 22.608 4.71806H22.2842L22.2996 4.70264Z" fill="#A99BF9"/>
</g>
<defs>
<clipPath id="clip0_67_674">
<rect width="27.9776" height="14" fill="white" transform="translate(0.0112305)"/>
</clipPath>
</defs>
</svg>
