<svg width="22" height="24" viewBox="0 0 22 24" fill="none" xmlns="http://www.w3.org/2000/svg">
<g clip-path="url(#clip0_67_697)">
<path d="M21.5709 7.10468C21.5707 6.70511 21.4853 6.35203 21.3124 6.04908C21.1427 5.75101 20.8885 5.50125 20.5475 5.30378C17.7326 3.68075 14.9151 2.06267 12.1012 0.437981C11.3426 1.98111e-05 10.6071 0.016069 9.85406 0.460317C8.73368 1.12098 3.12432 4.33471 1.45281 5.30287C0.764428 5.70146 0.429464 6.31132 0.429298 7.10394C0.428223 10.368 0.429298 13.632 0.428223 16.896C0.428223 17.2868 0.510206 17.6331 0.675413 17.9315C0.845254 18.2385 1.10303 18.4951 1.4519 18.6971C3.12349 19.6652 8.7336 22.8787 9.85373 23.5396C10.6071 23.9841 11.3426 24 12.1014 23.562C14.9154 21.9372 17.7331 20.3191 20.5484 18.6961C20.8972 18.4942 21.155 18.2374 21.3249 17.9307C21.4898 17.6322 21.572 17.286 21.572 16.8951C21.572 16.8951 21.572 10.3688 21.5709 7.10468Z" fill="#A179DC"/>
<path d="M11.0323 11.9683L0.675293 17.9316C0.845133 18.2386 1.10291 18.4952 1.45178 18.6972C3.12337 19.6653 8.73348 22.8788 9.85361 23.5397C10.6069 23.9842 11.3425 24.0001 12.1013 23.5621C14.9153 21.9373 17.733 20.3192 20.5483 18.6962C20.8971 18.4943 21.1549 18.2375 21.3247 17.9308L11.0323 11.9683Z" fill="#67459D"/>
<path d="M21.5707 7.10444C21.5705 6.70486 21.4851 6.35178 21.3122 6.04883L11.0322 11.968L21.3246 17.9304C21.4896 17.632 21.5716 17.2857 21.5717 16.8949C21.5717 16.8949 21.5717 10.3685 21.5707 7.10444Z" fill="#411980"/>
<path d="M17.1299 9.73877V10.8534H18.2446V9.73877H18.8019V10.8534H19.9166V11.4108H18.8019V12.5254H19.9166V13.0827H18.8019V14.1974H18.2446V13.0827H17.1299V14.1974H16.5726V13.0827H15.458V12.5254H16.5726V11.4108H15.458V10.8534H16.5726V9.73877H17.1299ZM18.2446 11.4107H17.1299V12.5254H18.2446V11.4107Z" fill="white"/>
<path d="M11.055 4.14071C13.9624 4.14071 16.5007 5.71965 17.8604 8.06664L17.8471 8.04405L14.4263 10.0136C13.7524 8.87257 12.517 8.10246 11.0996 8.08658L11.0549 8.08633C8.89368 8.08633 7.1415 9.8385 7.1415 11.9998C7.14079 12.681 7.31876 13.3505 7.65764 13.9414C8.3322 15.119 9.60034 15.9133 11.055 15.9133C12.5187 15.9133 13.7941 15.1089 14.4651 13.9187L14.4489 13.9473L17.8644 15.9259C16.5197 18.2531 14.0161 19.8271 11.1426 19.8585L11.055 19.859C8.13846 19.859 5.59292 18.2703 4.23668 15.9109C3.57461 14.7591 3.1958 13.4238 3.1958 11.9998C3.1958 7.65937 6.71438 4.14062 11.0549 4.14062L11.055 4.14071Z" fill="white"/>
</g>
<defs>
<clipPath id="clip0_67_697">
<rect width="21.3312" height="24" fill="white" transform="translate(0.334473)"/>
</clipPath>
</defs>
</svg>
