<svg width="14" height="14" viewBox="0 0 14 14" fill="none" xmlns="http://www.w3.org/2000/svg">
<mask id="mask0_67_80" style="mask-type:alpha" maskUnits="userSpaceOnUse" x="0" y="0" width="14" height="14">
<rect width="14" height="14" fill="#D9D9D9"/>
</mask>
<g mask="url(#mask0_67_80)">
<path d="M4.0835 8.75C4.56961 8.75 4.9828 8.57986 5.32308 8.23958C5.66336 7.89931 5.8335 7.48611 5.8335 7C5.8335 6.51389 5.66336 6.10069 5.32308 5.76042C4.9828 5.42014 4.56961 5.25 4.0835 5.25C3.59738 5.25 3.18419 5.42014 2.84391 5.76042C2.50363 6.10069 2.3335 6.51389 2.3335 7C2.3335 7.48611 2.50363 7.89931 2.84391 8.23958C3.18419 8.57986 3.59738 8.75 4.0835 8.75ZM4.0835 10.5C3.11127 10.5 2.28488 10.1597 1.60433 9.47917C0.923774 8.79861 0.583496 7.97222 0.583496 7C0.583496 6.02778 0.923774 5.20139 1.60433 4.52083C2.28488 3.84028 3.11127 3.5 4.0835 3.5C4.871 3.5 5.55884 3.72361 6.14704 4.17083C6.73523 4.61806 7.146 5.17222 7.37933 5.83333H12.2647L13.4168 6.98542L11.3752 9.31875L9.91683 8.16667L8.75016 9.33333L7.5835 8.16667H7.37933C7.13627 8.86667 6.71336 9.43056 6.11058 9.85833C5.5078 10.2861 4.83211 10.5 4.0835 10.5Z" fill="#A99BF9"/>
</g>
</svg>
