<svg width="24" height="25" viewBox="0 0 24 25" fill="none" xmlns="http://www.w3.org/2000/svg">
<path d="M15.7918 4.33325C15.3835 4.33325 15.0384 4.19228 14.7564 3.91034C14.4745 3.62839 14.3335 3.28325 14.3335 2.87492C14.3335 2.46659 14.4745 2.12145 14.7564 1.8395C15.0384 1.55756 15.3835 1.41659 15.7918 1.41659C16.2002 1.41659 16.5453 1.55756 16.8272 1.8395C17.1092 2.12145 17.2502 2.46659 17.2502 2.87492C17.2502 3.28325 17.1092 3.62839 16.8272 3.91034C16.5453 4.19228 16.2002 4.33325 15.7918 4.33325ZM15.7918 23.5833C15.3835 23.5833 15.0384 23.4423 14.7564 23.1603C14.4745 22.8784 14.3335 22.5333 14.3335 22.1249C14.3335 21.7166 14.4745 21.3714 14.7564 21.0895C15.0384 20.8076 15.3835 20.6666 15.7918 20.6666C16.2002 20.6666 16.5453 20.8076 16.8272 21.0895C17.1092 21.3714 17.2502 21.7166 17.2502 22.1249C17.2502 22.5333 17.1092 22.8784 16.8272 23.1603C16.5453 23.4423 16.2002 23.5833 15.7918 23.5833ZM20.4585 8.41659C20.0502 8.41659 19.705 8.27561 19.4231 7.99367C19.1411 7.71172 19.0002 7.36659 19.0002 6.95825C19.0002 6.54992 19.1411 6.20478 19.4231 5.92284C19.705 5.64089 20.0502 5.49992 20.4585 5.49992C20.8668 5.49992 21.212 5.64089 21.4939 5.92284C21.7759 6.20478 21.9168 6.54992 21.9168 6.95825C21.9168 7.36659 21.7759 7.71172 21.4939 7.99367C21.212 8.27561 20.8668 8.41659 20.4585 8.41659ZM20.4585 19.4999C20.0502 19.4999 19.705 19.3589 19.4231 19.077C19.1411 18.7951 19.0002 18.4499 19.0002 18.0416C19.0002 17.6333 19.1411 17.2881 19.4231 17.0062C19.705 16.7242 20.0502 16.5833 20.4585 16.5833C20.8668 16.5833 21.212 16.7242 21.4939 17.0062C21.7759 17.2881 21.9168 17.6333 21.9168 18.0416C21.9168 18.4499 21.7759 18.7951 21.4939 19.077C21.212 19.3589 20.8668 19.4999 20.4585 19.4999ZM22.2085 13.9583C21.8002 13.9583 21.455 13.8173 21.1731 13.5353C20.8911 13.2534 20.7502 12.9083 20.7502 12.4999C20.7502 12.0916 20.8911 11.7464 21.1731 11.4645C21.455 11.1826 21.8002 11.0416 22.2085 11.0416C22.6168 11.0416 22.962 11.1826 23.2439 11.4645C23.5259 11.7464 23.6668 12.0916 23.6668 12.4999C23.6668 12.9083 23.5259 13.2534 23.2439 13.5353C22.962 13.8173 22.6168 13.9583 22.2085 13.9583ZM12.0002 24.1666C10.3863 24.1666 8.86961 23.8603 7.45016 23.2478C6.03072 22.6353 4.796 21.8041 3.746 20.7541C2.696 19.7041 1.86475 18.4694 1.25225 17.0499C0.639746 15.6305 0.333496 14.1138 0.333496 12.4999C0.333496 10.886 0.639746 9.36936 1.25225 7.94992C1.86475 6.53047 2.696 5.29575 3.746 4.24575C4.796 3.19575 6.03072 2.3645 7.45016 1.752C8.86961 1.1395 10.3863 0.833252 12.0002 0.833252V3.16659C9.39461 3.16659 7.18766 4.07075 5.37933 5.87909C3.571 7.68742 2.66683 9.89436 2.66683 12.4999C2.66683 15.1055 3.571 17.3124 5.37933 19.1208C7.18766 20.9291 9.39461 21.8333 12.0002 21.8333V24.1666ZM12.0002 14.8333C11.3585 14.8333 10.8092 14.6048 10.3522 14.1478C9.8953 13.6909 9.66683 13.1416 9.66683 12.4999C9.66683 12.4027 9.67169 12.3006 9.68141 12.1937C9.69114 12.0867 9.71544 11.9846 9.75433 11.8874L7.3335 9.46659L8.96683 7.83325L11.3877 10.2541C11.4654 10.2346 11.6696 10.2055 12.0002 10.1666C12.6418 10.1666 13.1911 10.3951 13.6481 10.852C14.105 11.3089 14.3335 11.8583 14.3335 12.4999C14.3335 13.1416 14.105 13.6909 13.6481 14.1478C13.1911 14.6048 12.6418 14.8333 12.0002 14.8333Z" fill="#D3CBFF"/>
</svg>
