<svg width="26" height="20" viewBox="0 0 26 20" fill="none" xmlns="http://www.w3.org/2000/svg">
<path d="M16.4998 19.3334C13.8943 19.3334 11.6873 18.4292 9.879 16.6209C8.07067 14.8126 7.1665 12.6056 7.1665 10.0001C7.1665 7.41397 8.07067 5.21189 9.879 3.39383C11.6873 1.57578 13.8943 0.666748 16.4998 0.666748C19.0859 0.666748 21.288 1.57578 23.1061 3.39383C24.9241 5.21189 25.8332 7.41397 25.8332 10.0001C25.8332 12.6056 24.9241 14.8126 23.1061 16.6209C21.288 18.4292 19.0859 19.3334 16.4998 19.3334ZM19.154 14.3459L20.8165 12.6834L17.6665 9.53341V5.33341H15.3332V10.4959L19.154 14.3459ZM1.33317 6.50008V4.16675H5.99984V6.50008H1.33317ZM0.166504 11.1667V8.83341H5.99984V11.1667H0.166504ZM1.33317 15.8334V13.5001H5.99984V15.8334H1.33317Z" fill="#D3CBFF"/>
</svg>
