<svg width="22" height="24" viewBox="0 0 22 24" fill="none" xmlns="http://www.w3.org/2000/svg">
<g clip-path="url(#clip0_67_669)">
<path d="M10.0192 0.304741C10.6117 -0.0344078 11.3834 -0.0359397 11.9754 0.304741C14.9537 1.98763 17.933 3.66789 20.9107 5.35181C21.4708 5.66729 21.8455 6.29061 21.8398 6.93598V17.0609C21.8439 17.733 21.4323 18.3712 20.8414 18.6796C17.8729 20.3532 14.9059 22.0288 11.9379 23.7024C11.3331 24.0482 10.5459 24.0216 9.96003 23.6475C9.07007 23.1315 8.17858 22.6182 7.28854 22.1028C7.10667 21.9944 6.90164 21.9081 6.77322 21.7317C6.88675 21.5787 7.08973 21.5596 7.25467 21.4928C7.62615 21.3747 7.96735 21.1851 8.30862 21.0011C8.39492 20.942 8.50028 20.9647 8.58301 21.0175C9.34403 21.4538 10.0983 21.9029 10.8619 22.335C11.0248 22.4291 11.1897 22.3042 11.329 22.2266C14.242 20.5802 17.1586 18.9401 20.0711 17.2932C20.179 17.2413 20.2387 17.1267 20.2299 17.0085C20.2319 13.6685 20.2304 10.3279 20.2309 6.98789C20.2433 6.85376 20.1656 6.73044 20.0444 6.67555C17.0862 5.00959 14.1295 3.34108 11.1718 1.6747C11.1205 1.63947 11.0598 1.62057 10.9976 1.62048C10.9355 1.62038 10.8747 1.63911 10.8233 1.67419C7.86564 3.34108 4.90947 5.01112 1.95177 6.677C1.83092 6.73198 1.74981 6.85325 1.7642 6.98789C1.76471 10.3279 1.7642 13.6685 1.7642 17.009C1.75907 17.0667 1.77174 17.1245 1.8005 17.1748C1.82925 17.2251 1.87272 17.2653 1.92505 17.2901C2.71433 17.7377 3.50462 18.1821 4.29441 18.6281C4.73935 18.8676 5.28564 19.0099 5.77586 18.8264C6.20845 18.6713 6.51169 18.2298 6.50343 17.7705C6.50752 14.45 6.50139 11.129 6.5065 7.809C6.49569 7.66159 6.63552 7.53981 6.77884 7.55368C7.15807 7.55112 7.53781 7.54857 7.91705 7.5547C8.07535 7.55112 8.18428 7.70985 8.16471 7.85836C8.16318 11.1999 8.16879 14.5415 8.16215 17.883C8.16318 18.7736 7.7973 19.7426 6.97356 20.1784C5.95875 20.7041 4.70445 20.5926 3.7019 20.0885C2.83399 19.6553 2.00573 19.1441 1.15322 18.68C0.560794 18.3733 0.151176 17.7326 0.155347 17.061V6.93598C0.149134 6.27725 0.538666 5.64261 1.1162 5.33172C4.0842 3.65674 7.05169 1.98049 10.0192 0.304741Z" fill="#8CC84B"/>
<path d="M12.6086 7.31816C13.9031 7.23484 15.2889 7.2688 16.4538 7.9065C17.3556 8.39518 17.8556 9.4208 17.8715 10.4228C17.8463 10.5579 17.7051 10.6325 17.576 10.6232C17.2005 10.6227 16.8248 10.6283 16.4492 10.6206C16.2899 10.6268 16.1973 10.4799 16.1773 10.339C16.0694 9.85961 15.808 9.3848 15.3567 9.15356C14.664 8.80675 13.8609 8.8242 13.1056 8.83144C12.5542 8.86071 11.9612 8.90846 11.4941 9.23271C11.1355 9.47833 11.0265 9.97416 11.1545 10.3735C11.2752 10.6602 11.6062 10.7527 11.877 10.838C13.437 11.246 15.0901 11.2054 16.6203 11.7423C17.2538 11.9612 17.8736 12.3868 18.0904 13.0501C18.3741 13.9391 18.2498 15.0017 17.6172 15.7154C17.1043 16.3028 16.3572 16.6224 15.6121 16.796C14.6209 17.0171 13.5922 17.0227 12.5856 16.9245C11.639 16.8166 10.654 16.5679 9.92328 15.923C9.29843 15.3805 8.99324 14.5351 9.02354 13.7192C9.03077 13.5814 9.16796 13.4853 9.29996 13.4966C9.67818 13.4936 10.0564 13.4925 10.4346 13.4971C10.5857 13.4863 10.6977 13.6169 10.7054 13.7593C10.7752 14.216 10.9469 14.6954 11.3452 14.9662C12.1138 15.4622 13.0783 15.4282 13.9585 15.4421C14.6877 15.4097 15.5063 15.3999 16.1013 14.918C16.4153 14.6431 16.5083 14.1832 16.4235 13.7875C16.3315 13.4535 15.9821 13.2978 15.682 13.196C14.142 12.7089 12.4704 12.8856 10.9453 12.3348C10.3262 12.1159 9.72745 11.7022 9.48958 11.0662C9.15767 10.1659 9.30975 9.05237 10.0086 8.36275C10.6899 7.6768 11.6735 7.41271 12.6086 7.31816Z" fill="#8CC84B"/>
</g>
<defs>
<clipPath id="clip0_67_669">
<rect width="21.792" height="24" fill="white" transform="translate(0.104004)"/>
</clipPath>
</defs>
</svg>
