<svg width="28" height="28" viewBox="0 0 28 28" fill="none" xmlns="http://www.w3.org/2000/svg">
<mask id="mask0_67_1055" style="mask-type:alpha" maskUnits="userSpaceOnUse" x="0" y="0" width="28" height="28">
<rect width="28" height="28" fill="#D9D9D9"/>
</mask>
<g mask="url(#mask0_67_1055)">
<path d="M8.16648 23.3334V10.4709C8.16648 9.82922 8.39981 9.28478 8.86648 8.83756C9.33315 8.39033 9.88731 8.16672 10.529 8.16672H23.3331C23.9748 8.16672 24.5241 8.3952 24.9811 8.85214C25.438 9.30908 25.6665 9.85839 25.6665 10.5001V19.8334L19.8331 25.6667H10.4998C9.85815 25.6667 9.30884 25.4382 8.8519 24.9813C8.39495 24.5244 8.16648 23.9751 8.16648 23.3334ZM2.36231 7.29172C2.24565 6.65006 2.37203 6.07158 2.74148 5.55631C3.11092 5.04103 3.61648 4.72506 4.25815 4.60839L16.9165 2.36256C17.5581 2.24589 18.1366 2.37228 18.6519 2.74172C19.1672 3.11117 19.4831 3.61672 19.5998 4.25839L19.8915 5.83339H10.4998C9.21648 5.83339 8.11787 6.29033 7.20398 7.20422C6.29009 8.11811 5.83315 9.21672 5.83315 10.5001V21.6417C5.52203 21.4667 5.25467 21.2334 5.03106 20.9417C4.80745 20.6501 4.66648 20.3195 4.60815 19.9501L2.36231 7.29172ZM23.3331 18.6667H18.6665V23.3334L23.3331 18.6667Z" fill="#D3CBFF"/>
</g>
</svg>
