<svg width="22" height="20" viewBox="0 0 22 20" fill="none" xmlns="http://www.w3.org/2000/svg">
<g clip-path="url(#clip0_67_677)">
<path d="M16.4475 13.1579L5.03418 19.9352L19.8124 18.9323L20.9505 4.03076L16.4474 13.1578L16.4475 13.1579Z" fill="url(#paint0_linear_67_677)"/>
<path d="M19.8365 18.9221L18.5663 10.1553L15.1064 14.7239L19.8365 18.9221Z" fill="url(#paint1_linear_67_677)"/>
<path d="M19.8537 18.9223L10.5481 18.1919L5.0835 19.9163L19.8537 18.9223Z" fill="url(#paint2_linear_67_677)"/>
<path d="M5.09657 19.9179L7.42127 12.3022L2.30566 13.396L5.09649 19.9179L5.09657 19.9179Z" fill="url(#paint3_linear_67_677)"/>
<path d="M15.1056 14.749L12.9665 6.37061L6.84521 12.1086L15.1056 14.7491V14.749Z" fill="url(#paint4_linear_67_677)"/>
<path d="M20.4651 6.48866L14.6787 1.7627L13.0674 6.97195L20.4651 6.48866Z" fill="url(#paint5_linear_67_677)"/>
<path d="M17.7593 0.0774226L14.3561 1.95821L12.209 0.0522461L17.7593 0.0774226Z" fill="url(#paint6_linear_67_677)"/>
<path d="M0.959961 15.9506L2.38561 13.3505L1.23235 10.2529L0.959961 15.9506Z" fill="url(#paint7_linear_67_677)"/>
<path d="M1.15576 10.1553L2.31608 13.4465L7.35788 12.3154L13.114 6.9658L14.7384 1.80604L12.1806 0L7.832 1.62745C6.46188 2.9018 3.80329 5.42322 3.70745 5.47059C3.61255 5.51906 1.95184 8.65796 1.15576 10.1553Z" fill="white"/>
<path d="M5.22982 4.24247C8.19923 1.29831 12.0272 -0.441138 13.4962 1.04106C14.9645 2.52325 13.4075 6.12521 10.4381 9.06843C7.46864 12.0116 3.68809 13.8469 2.22002 12.3647C0.750997 10.8835 2.26041 7.18569 5.22982 4.24247Z" fill="url(#paint8_linear_67_677)"/>
<path d="M5.09668 19.9148L7.40319 12.2749L15.0632 14.7358C12.2936 17.3329 9.21323 19.5284 5.09668 19.9148Z" fill="url(#paint9_linear_67_677)"/>
<path d="M13.124 6.95085L15.0905 14.7401C17.4041 12.3075 19.4805 9.69226 20.4974 6.45752L13.1241 6.95085H13.124Z" fill="url(#paint10_linear_67_677)"/>
<path d="M20.4775 6.49652C21.2645 4.12146 21.4461 0.71417 17.735 0.081543L14.6899 1.7635L20.4775 6.49652Z" fill="url(#paint11_linear_67_677)"/>
<path d="M0.959961 15.9163C1.06898 19.8362 3.89706 19.8946 5.10176 19.929L2.31902 13.4302L0.959961 15.9163Z" fill="#9E1209"/>
<path d="M13.1353 6.96296C14.9131 8.05566 18.496 10.2502 18.5687 10.2905C18.6816 10.354 20.1134 7.87606 20.4383 6.47559L13.1353 6.96296Z" fill="url(#paint12_radial_67_677)"/>
<path d="M7.40039 12.2749L10.4838 18.2238C12.307 17.235 13.7347 16.0303 15.0423 14.7398L7.40039 12.2749Z" fill="url(#paint13_radial_67_677)"/>
<path d="M2.30698 13.4383L1.87012 18.6405C2.69443 19.7665 3.82855 19.8644 5.01804 19.7767C4.15741 17.6346 2.43812 13.3516 2.30698 13.4383Z" fill="url(#paint14_linear_67_677)"/>
<path d="M14.6719 1.7767L20.7974 2.6363C20.4704 1.25105 19.4665 0.357088 17.7552 0.0776367L14.6719 1.7767Z" fill="url(#paint15_linear_67_677)"/>
</g>
<defs>
<linearGradient id="paint0_linear_67_677" x1="1353.94" y1="1775.76" x2="932.701" y2="1030.93" gradientUnits="userSpaceOnUse">
<stop stop-color="#FB7655"/>
<stop offset="0.41" stop-color="#E42B1E"/>
<stop offset="0.99" stop-color="#990000"/>
<stop offset="1" stop-color="#990000"/>
</linearGradient>
<linearGradient id="paint1_linear_67_677" x1="566.87" y1="543.972" x2="-25.2843" y2="428.3" gradientUnits="userSpaceOnUse">
<stop stop-color="#871101"/>
<stop offset="0.99" stop-color="#911209"/>
<stop offset="1" stop-color="#911209"/>
</linearGradient>
<linearGradient id="paint2_linear_67_677" x1="1124.28" y1="396.398" x2="1116.65" y2="20.8081" gradientUnits="userSpaceOnUse">
<stop stop-color="#871101"/>
<stop offset="0.99" stop-color="#911209"/>
<stop offset="1" stop-color="#911209"/>
</linearGradient>
<linearGradient id="paint3_linear_67_677" x1="258.147" y1="67.3941" x2="434.212" y2="583.661" gradientUnits="userSpaceOnUse">
<stop stop-color="white"/>
<stop offset="0.23" stop-color="#E57252"/>
<stop offset="0.46" stop-color="#DE3B20"/>
<stop offset="0.99" stop-color="#A60003"/>
<stop offset="1" stop-color="#A60003"/>
</linearGradient>
<linearGradient id="paint4_linear_67_677" x1="388.26" y1="143.343" x2="420.194" y2="702.13" gradientUnits="userSpaceOnUse">
<stop stop-color="white"/>
<stop offset="0.23" stop-color="#E4714E"/>
<stop offset="0.56" stop-color="#BE1A0D"/>
<stop offset="0.99" stop-color="#A80D00"/>
<stop offset="1" stop-color="#A80D00"/>
</linearGradient>
<linearGradient id="paint5_linear_67_677" x1="286.524" y1="82.9958" x2="333.22" y2="488.825" gradientUnits="userSpaceOnUse">
<stop stop-color="white"/>
<stop offset="0.18" stop-color="#E46342"/>
<stop offset="0.4" stop-color="#C82410"/>
<stop offset="0.99" stop-color="#A80D00"/>
<stop offset="1" stop-color="#A80D00"/>
</linearGradient>
<linearGradient id="paint6_linear_67_677" x1="87.7437" y1="111.257" x2="153.582" y2="-167.911" gradientUnits="userSpaceOnUse">
<stop stop-color="white"/>
<stop offset="0.54" stop-color="#C81F11"/>
<stop offset="0.99" stop-color="#BF0905"/>
<stop offset="1" stop-color="#BF0905"/>
</linearGradient>
<linearGradient id="paint7_linear_67_677" x1="40.342" y1="130.673" x2="212.516" y2="238.596" gradientUnits="userSpaceOnUse">
<stop stop-color="white"/>
<stop offset="0.31" stop-color="#DE4024"/>
<stop offset="0.99" stop-color="#BF190B"/>
<stop offset="1" stop-color="#BF190B"/>
</linearGradient>
<linearGradient id="paint8_linear_67_677" x1="-254.721" y1="1515.24" x2="1292.49" y2="-80.2638" gradientUnits="userSpaceOnUse">
<stop stop-color="#BD0012"/>
<stop offset="0.07" stop-color="white"/>
<stop offset="0.17" stop-color="white"/>
<stop offset="0.27" stop-color="#C82F1C"/>
<stop offset="0.33" stop-color="#820C01"/>
<stop offset="0.46" stop-color="#A31601"/>
<stop offset="0.72" stop-color="#B31301"/>
<stop offset="0.99" stop-color="#E82609"/>
<stop offset="1" stop-color="#E82609"/>
</linearGradient>
<linearGradient id="paint9_linear_67_677" x1="591.048" y1="510.436" x2="153.198" y2="326.533" gradientUnits="userSpaceOnUse">
<stop stop-color="#8C0C01"/>
<stop offset="0.54" stop-color="#990C00"/>
<stop offset="0.99" stop-color="#A80D0E"/>
<stop offset="1" stop-color="#A80D0E"/>
</linearGradient>
<linearGradient id="paint10_linear_67_677" x1="597.976" y1="526.223" x2="146.96" y2="205.865" gradientUnits="userSpaceOnUse">
<stop stop-color="#7E110B"/>
<stop offset="0.99" stop-color="#9E0C00"/>
<stop offset="1" stop-color="#9E0C00"/>
</linearGradient>
<linearGradient id="paint11_linear_67_677" x1="595.297" y1="475.573" x2="383.199" y2="260.265" gradientUnits="userSpaceOnUse">
<stop stop-color="#79130D"/>
<stop offset="0.99" stop-color="#9E120B"/>
<stop offset="1" stop-color="#9E120B"/>
</linearGradient>
<radialGradient id="paint12_radial_67_677" cx="0" cy="0" r="1" gradientUnits="userSpaceOnUse" gradientTransform="translate(246.84 159.921) scale(508.096 265.498)">
<stop stop-color="#A80D00"/>
<stop offset="0.99" stop-color="#7E0E08"/>
<stop offset="1" stop-color="#7E0E08"/>
</radialGradient>
<radialGradient id="paint13_radial_67_677" cx="0" cy="0" r="1" gradientUnits="userSpaceOnUse" gradientTransform="translate(110.94 255.345) scale(675.435 525.796)">
<stop stop-color="#A30C00"/>
<stop offset="0.99" stop-color="#800E08"/>
<stop offset="1" stop-color="#800E08"/>
</radialGradient>
<linearGradient id="paint14_linear_67_677" x1="179.948" y1="660.782" x2="-200.326" y2="345.124" gradientUnits="userSpaceOnUse">
<stop stop-color="#8B2114"/>
<stop offset="0.43" stop-color="#9E100A"/>
<stop offset="0.99" stop-color="#B3100C"/>
<stop offset="1" stop-color="#B3100C"/>
</linearGradient>
<linearGradient id="paint15_linear_67_677" x1="203.766" y1="91.1636" x2="311.698" y2="364.212" gradientUnits="userSpaceOnUse">
<stop stop-color="#B31000"/>
<stop offset="0.44" stop-color="#910F08"/>
<stop offset="0.99" stop-color="#791C12"/>
<stop offset="1" stop-color="#791C12"/>
</linearGradient>
<clipPath id="clip0_67_677">
<rect width="20.0803" height="20" fill="white" transform="translate(0.959961)"/>
</clipPath>
</defs>
</svg>
