<svg width="751" height="193" viewBox="0 0 751 193" fill="none" xmlns="http://www.w3.org/2000/svg">
<line x1="190" y1="96" x2="259" y2="96" stroke="#C6B2FF" stroke-width="2" stroke-dasharray="7.24 4.49"/>
<line x1="492" y1="96" x2="561" y2="96" stroke="#C6B2FF" stroke-width="2" stroke-dasharray="7.24 4.49"/>
<rect x="259.395" y="52.4844" width="232.209" height="81.0314" rx="5.44241" fill="white" stroke="#C6B2FF" stroke-width="1.20942"/>
<path d="M281.53 78.567C280.533 78.567 279.672 78.3493 278.946 77.9139C278.221 77.4688 277.659 76.8544 277.263 76.0707C276.876 75.2773 276.682 74.3582 276.682 73.3132C276.682 72.278 276.876 71.3636 277.263 70.5703C277.659 69.7769 278.221 69.1625 278.946 68.7271C279.672 68.282 280.533 68.0595 281.53 68.0595C282.72 68.0595 283.682 68.3449 284.418 68.9158C285.163 69.4866 285.637 70.2897 285.84 71.3249H284.244C284.098 70.7251 283.798 70.2461 283.344 69.8882C282.899 69.5302 282.294 69.3512 281.53 69.3512C280.843 69.3512 280.243 69.5108 279.73 69.8301C279.227 70.1494 278.84 70.6041 278.569 71.1943C278.298 71.7845 278.163 72.4908 278.163 73.3132C278.163 74.1356 278.298 74.8468 278.569 75.4467C278.84 76.0369 279.227 76.4916 279.73 76.8109C280.243 77.1205 280.843 77.2753 281.53 77.2753C282.294 77.2753 282.899 77.106 283.344 76.7674C283.798 76.419 284.098 75.9498 284.244 75.3596H285.84C285.637 76.3658 285.163 77.1544 284.418 77.7252C283.682 78.2864 282.72 78.567 281.53 78.567ZM290.696 78.567C290.009 78.567 289.39 78.4122 288.839 78.1026C288.297 77.7833 287.866 77.3382 287.547 76.7674C287.237 76.1868 287.082 75.5192 287.082 74.7646C287.082 74.0002 287.242 73.3326 287.561 72.7617C287.881 72.1909 288.316 71.7458 288.868 71.4265C289.419 71.1073 290.033 70.9476 290.711 70.9476C291.407 70.9476 292.027 71.1073 292.568 71.4265C293.12 71.7458 293.55 72.1909 293.86 72.7617C294.179 73.3229 294.339 73.9905 294.339 74.7646C294.339 75.5289 294.179 76.1965 293.86 76.7674C293.541 77.3382 293.105 77.7833 292.554 78.1026C292.002 78.4122 291.383 78.567 290.696 78.567ZM290.696 77.3189C291.083 77.3189 291.441 77.2269 291.77 77.0431C292.099 76.8496 292.36 76.5642 292.554 76.1868C292.757 75.7998 292.859 75.3257 292.859 74.7646C292.859 74.1937 292.757 73.7196 292.554 73.3423C292.36 72.9649 292.099 72.6795 291.77 72.486C291.451 72.2925 291.098 72.1957 290.711 72.1957C290.343 72.1957 289.99 72.2925 289.651 72.486C289.322 72.6795 289.056 72.9649 288.853 73.3423C288.66 73.7196 288.563 74.1937 288.563 74.7646C288.563 75.3257 288.66 75.7998 288.853 76.1868C289.056 76.5642 289.317 76.8496 289.637 77.0431C289.966 77.2269 290.319 77.3189 290.696 77.3189ZM295.887 78.3928V71.1218H297.193L297.28 72.3844C297.512 71.9393 297.841 71.591 298.267 71.3395C298.693 71.0782 299.186 70.9476 299.747 70.9476C300.328 70.9476 300.826 71.0686 301.242 71.3104C301.658 71.5426 301.978 71.8958 302.2 72.3699C302.432 72.8343 302.548 73.4245 302.548 74.1405V78.3928H301.097V74.2856C301.097 73.5987 300.947 73.081 300.647 72.7327C300.357 72.3747 299.926 72.1957 299.356 72.1957C298.968 72.1957 298.62 72.2876 298.311 72.4715C298.011 72.6553 297.774 72.9214 297.599 73.2697C297.425 73.618 297.338 74.0486 297.338 74.5614V78.3928H295.887ZM306.178 78.3928L303.465 71.1218H304.988L307.049 76.9996L309.125 71.1218H310.619L307.891 78.3928H306.178ZM314.737 78.567C314.031 78.567 313.407 78.4122 312.865 78.1026C312.323 77.7833 311.897 77.3382 311.588 76.7674C311.288 76.1965 311.138 75.5337 311.138 74.7791C311.138 74.0147 311.288 73.3471 311.588 72.7763C311.888 72.2054 312.309 71.7603 312.85 71.4411C313.402 71.1121 314.036 70.9476 314.752 70.9476C315.468 70.9476 316.082 71.1073 316.595 71.4265C317.108 71.7458 317.504 72.1667 317.785 72.6892C318.065 73.2116 318.206 73.7873 318.206 74.4162C318.206 74.513 318.206 74.6194 318.206 74.7355C318.206 74.842 318.201 74.9629 318.191 75.0984H312.197V74.0824H316.754C316.735 73.4826 316.532 73.0133 316.145 72.6747C315.768 72.3264 315.298 72.1522 314.737 72.1522C314.35 72.1522 313.987 72.2441 313.649 72.4279C313.32 72.6021 313.054 72.8585 312.85 73.1971C312.657 73.5358 312.56 73.9663 312.56 74.4888V74.8952C312.56 75.4273 312.657 75.8772 312.85 76.2449C313.054 76.6126 313.32 76.8931 313.649 77.0866C313.978 77.2705 314.336 77.3624 314.723 77.3624C315.187 77.3624 315.569 77.2608 315.869 77.0576C316.179 76.8448 316.406 76.5642 316.551 76.2159H318.003C317.877 76.6609 317.664 77.0625 317.364 77.4204C317.064 77.7688 316.692 78.0493 316.246 78.2622C315.811 78.4654 315.308 78.567 314.737 78.567ZM319.673 78.3928V71.1218H320.979L321.11 72.5005C321.274 72.1812 321.482 71.9055 321.734 71.6733C321.995 71.4411 322.3 71.2621 322.648 71.1363C322.997 71.0105 323.393 70.9476 323.838 70.9476V72.486H323.374C323.064 72.486 322.769 72.5247 322.489 72.6021C322.218 72.6795 321.981 72.8053 321.777 72.9794C321.574 73.1439 321.415 73.3761 321.299 73.6761C321.182 73.976 321.124 74.3533 321.124 74.8081V78.3928H319.673ZM328.017 78.3928C327.562 78.3928 327.165 78.3203 326.827 78.1751C326.488 78.03 326.227 77.7881 326.043 77.4495C325.859 77.1108 325.767 76.6513 325.767 76.0707V72.3554H324.505V71.1218H325.767L325.941 69.3076H327.218V71.1218H329.279V72.3554H327.218V76.0852C327.218 76.5013 327.301 76.7867 327.465 76.9415C327.639 77.0866 327.944 77.1592 328.38 77.1592H329.207V78.3928H328.017ZM330.823 78.3928V71.1218H332.274V78.3928H330.823ZM331.548 69.7285C331.277 69.7285 331.05 69.6414 330.866 69.4673C330.692 69.2931 330.605 69.0706 330.605 68.7997C330.605 68.5384 330.692 68.3256 330.866 68.1611C331.05 67.9869 331.277 67.8999 331.548 67.8999C331.819 67.8999 332.047 67.9869 332.23 68.1611C332.424 68.3256 332.521 68.5384 332.521 68.7997C332.521 69.0706 332.424 69.2931 332.23 69.4673C332.047 69.6414 331.819 69.7285 331.548 69.7285ZM334.204 78.3928V71.1218H335.51L335.598 72.3844C335.83 71.9393 336.159 71.591 336.584 71.3395C337.01 71.0782 337.504 70.9476 338.065 70.9476C338.645 70.9476 339.144 71.0686 339.56 71.3104C339.976 71.5426 340.295 71.8958 340.517 72.3699C340.75 72.8343 340.866 73.4245 340.866 74.1405V78.3928H339.414V74.2856C339.414 73.5987 339.264 73.081 338.965 72.7327C338.674 72.3747 338.244 72.1957 337.673 72.1957C337.286 72.1957 336.938 72.2876 336.628 72.4715C336.328 72.6553 336.091 72.9214 335.917 73.2697C335.743 73.618 335.656 74.0486 335.656 74.5614V78.3928H334.204ZM345.524 81.7599C344.856 81.7599 344.266 81.6728 343.753 81.4986C343.25 81.3341 342.858 81.0777 342.577 80.7294C342.297 80.3811 342.157 79.9554 342.157 79.4523C342.157 79.191 342.215 78.9298 342.331 78.6686C342.447 78.4073 342.635 78.1558 342.897 77.9139C343.158 77.6623 343.506 77.4446 343.942 77.2608L344.754 77.8994C344.271 78.0929 343.942 78.3154 343.767 78.567C343.603 78.8282 343.521 79.0749 343.521 79.3071C343.521 79.5974 343.608 79.8393 343.782 80.0328C343.956 80.2263 344.193 80.3714 344.493 80.4682C344.803 80.5649 345.146 80.6133 345.524 80.6133C345.901 80.6133 346.225 80.5601 346.496 80.4537C346.777 80.3473 346.994 80.1973 347.149 80.0038C347.304 79.8103 347.381 79.5829 347.381 79.3217C347.381 79.012 347.265 78.7556 347.033 78.5525C346.81 78.3493 346.375 78.2283 345.727 78.1896C345.175 78.1509 344.706 78.0977 344.319 78.03C343.942 77.9526 343.618 77.8704 343.347 77.7833C343.085 77.6865 342.863 77.5801 342.679 77.464C342.505 77.3382 342.355 77.2124 342.229 77.0866V76.7528L343.68 75.2725L344.841 75.6644L343.274 77.1302L343.579 76.4916C343.685 76.5593 343.787 76.6271 343.884 76.6948C343.98 76.7528 344.111 76.8061 344.275 76.8544C344.44 76.9028 344.658 76.9464 344.929 76.9851C345.209 77.0238 345.577 77.0576 346.032 77.0866C346.68 77.1447 347.207 77.2656 347.613 77.4495C348.02 77.6333 348.315 77.88 348.499 78.1896C348.683 78.4896 348.774 78.8524 348.774 79.2781C348.774 79.6942 348.658 80.0909 348.426 80.4682C348.194 80.8455 347.836 81.1551 347.352 81.397C346.878 81.6389 346.269 81.7599 345.524 81.7599ZM345.524 76.1578C344.914 76.1578 344.392 76.0417 343.956 75.8095C343.53 75.5773 343.201 75.2677 342.969 74.8807C342.747 74.484 342.635 74.0437 342.635 73.56C342.635 73.0762 342.747 72.6408 342.969 72.2538C343.201 71.8571 343.53 71.5426 343.956 71.3104C344.392 71.0686 344.914 70.9476 345.524 70.9476C346.133 70.9476 346.651 71.0686 347.076 71.3104C347.512 71.5426 347.841 71.8571 348.063 72.2538C348.296 72.6408 348.412 73.0762 348.412 73.56C348.412 74.0437 348.296 74.484 348.063 74.8807C347.841 75.2677 347.512 75.5773 347.076 75.8095C346.651 76.0417 346.133 76.1578 345.524 76.1578ZM345.524 74.9968C345.988 74.9968 346.36 74.8758 346.641 74.6339C346.931 74.3824 347.076 74.0244 347.076 73.56C347.076 73.0955 346.931 72.7424 346.641 72.5005C346.36 72.2489 345.988 72.1232 345.524 72.1232C345.049 72.1232 344.667 72.2489 344.377 72.5005C344.096 72.7424 343.956 73.0955 343.956 73.56C343.956 74.0244 344.096 74.3824 344.377 74.6339C344.667 74.8758 345.049 74.9968 345.524 74.9968ZM346.699 72.2683L346.351 71.1218H349.355V72.1232L346.699 72.2683ZM355.076 81.5857L356.861 77.5801H356.426L353.538 71.1218H355.12L357.413 76.4045L359.721 71.1218H361.244L356.6 81.5857H355.076ZM365.053 78.567C364.366 78.567 363.746 78.4122 363.195 78.1026C362.653 77.7833 362.222 77.3382 361.903 76.7674C361.594 76.1868 361.439 75.5192 361.439 74.7646C361.439 74.0002 361.598 73.3326 361.918 72.7617C362.237 72.1909 362.672 71.7458 363.224 71.4265C363.775 71.1073 364.39 70.9476 365.067 70.9476C365.764 70.9476 366.383 71.1073 366.925 71.4265C367.476 71.7458 367.907 72.1909 368.216 72.7617C368.536 73.3229 368.695 73.9905 368.695 74.7646C368.695 75.5289 368.536 76.1965 368.216 76.7674C367.897 77.3382 367.462 77.7833 366.91 78.1026C366.359 78.4122 365.739 78.567 365.053 78.567ZM365.053 77.3189C365.44 77.3189 365.798 77.2269 366.126 77.0431C366.455 76.8496 366.717 76.5642 366.91 76.1868C367.113 75.7998 367.215 75.3257 367.215 74.7646C367.215 74.1937 367.113 73.7196 366.91 73.3423C366.717 72.9649 366.455 72.6795 366.126 72.486C365.807 72.2925 365.454 72.1957 365.067 72.1957C364.699 72.1957 364.346 72.2925 364.008 72.486C363.679 72.6795 363.413 72.9649 363.209 73.3423C363.016 73.7196 362.919 74.1937 362.919 74.7646C362.919 75.3257 363.016 75.7998 363.209 76.1868C363.413 76.5642 363.674 76.8496 363.993 77.0431C364.322 77.2269 364.675 77.3189 365.053 77.3189ZM372.914 78.567C372.343 78.567 371.844 78.4509 371.419 78.2187C371.003 77.9865 370.679 77.6333 370.446 77.1592C370.224 76.6851 370.113 76.0949 370.113 75.3886V71.1218H371.564V75.2435C371.564 75.9304 371.709 76.4529 371.999 76.8109C372.299 77.1592 372.735 77.3334 373.305 77.3334C373.692 77.3334 374.036 77.2415 374.336 77.0576C374.646 76.8738 374.887 76.6077 375.062 76.2594C375.236 75.9014 375.323 75.4709 375.323 74.9677V71.1218H376.774V78.3928H375.482L375.381 77.1447C375.158 77.5801 374.829 77.9284 374.394 78.1896C373.968 78.4412 373.475 78.567 372.914 78.567ZM378.602 78.3928V71.1218H379.908L380.039 72.5005C380.203 72.1812 380.411 71.9055 380.663 71.6733C380.924 71.4411 381.229 71.2621 381.577 71.1363C381.925 71.0105 382.322 70.9476 382.767 70.9476V72.486H382.303C381.993 72.486 381.698 72.5247 381.417 72.6021C381.146 72.6795 380.909 72.8053 380.706 72.9794C380.503 73.1439 380.343 73.3761 380.227 73.6761C380.111 73.976 380.053 74.3533 380.053 74.8081V78.3928H378.602ZM387.582 78.3928V68.2337H391.065C391.868 68.2337 392.531 68.3691 393.053 68.64C393.576 68.9013 393.963 69.2593 394.215 69.714C394.466 70.1687 394.592 70.6864 394.592 71.2669C394.592 71.8281 394.466 72.336 394.215 72.7908C393.973 73.2455 393.59 73.6132 393.068 73.8938C392.555 74.1647 391.888 74.3001 391.065 74.3001H389.033V78.3928H387.582ZM389.033 73.0955H391.007C391.762 73.0955 392.299 72.9311 392.618 72.6021C392.947 72.2731 393.112 71.8281 393.112 71.2669C393.112 70.6864 392.947 70.2365 392.618 69.9172C392.299 69.5979 391.762 69.4382 391.007 69.4382H389.033V73.0955ZM395.997 78.3928V68.2337H399.176C400.366 68.2337 401.343 68.4417 402.107 68.8577C402.881 69.2738 403.452 69.864 403.82 70.6283C404.197 71.383 404.386 72.2828 404.386 73.3278C404.386 74.3727 404.197 75.2725 403.82 76.0272C403.452 76.7819 402.881 77.3672 402.107 77.7833C401.343 78.1896 400.366 78.3928 399.176 78.3928H395.997ZM397.449 77.1737H399.118C400.056 77.1737 400.801 77.0189 401.353 76.7093C401.904 76.3997 402.296 75.9595 402.528 75.3886C402.77 74.8081 402.891 74.1211 402.891 73.3278C402.891 72.5247 402.77 71.8329 402.528 71.2524C402.296 70.6719 401.904 70.2268 401.353 69.9172C400.801 69.6076 400.056 69.4528 399.118 69.4528H397.449V77.1737ZM405.972 78.3928V68.2337H412.299V69.4237H407.423V72.7182H411.501V73.8793H407.423V78.3928H405.972Z" fill="#011552"/>
<path d="M277.263 116.304L280.136 109.805H276.305V108.684H281.475V109.62L278.623 116.304H277.263ZM282.352 116.358C282.106 116.358 281.906 116.282 281.754 116.13C281.601 115.977 281.525 115.796 281.525 115.585C281.525 115.36 281.601 115.172 281.754 115.019C281.906 114.867 282.106 114.791 282.352 114.791C282.592 114.791 282.788 114.867 282.94 115.019C283.092 115.172 283.169 115.36 283.169 115.585C283.169 115.796 283.092 115.977 282.94 116.13C282.788 116.282 282.592 116.358 282.352 116.358ZM286.917 116.434C286.402 116.434 285.937 116.344 285.524 116.162C285.11 115.974 284.78 115.712 284.533 115.379C284.287 115.037 284.163 114.638 284.163 114.181C284.163 113.876 284.218 113.593 284.326 113.332C284.443 113.071 284.599 112.846 284.795 112.657C284.998 112.461 285.237 112.316 285.513 112.222C285.157 112.062 284.874 111.841 284.664 111.558C284.461 111.268 284.359 110.945 284.359 110.589C284.359 110.219 284.457 109.882 284.653 109.577C284.849 109.272 285.136 109.025 285.513 108.837C285.898 108.648 286.366 108.554 286.917 108.554C287.469 108.554 287.933 108.648 288.31 108.837C288.695 109.025 288.982 109.272 289.17 109.577C289.366 109.882 289.464 110.219 289.464 110.589C289.464 110.937 289.359 111.26 289.148 111.558C288.945 111.848 288.666 112.07 288.31 112.222C288.593 112.316 288.833 112.461 289.029 112.657C289.232 112.853 289.388 113.082 289.497 113.343C289.606 113.597 289.66 113.876 289.66 114.181C289.66 114.638 289.537 115.037 289.29 115.379C289.05 115.712 288.724 115.974 288.31 116.162C287.897 116.344 287.432 116.434 286.917 116.434ZM286.917 115.335C287.403 115.335 287.766 115.219 288.006 114.987C288.252 114.747 288.376 114.446 288.376 114.083C288.376 113.677 288.245 113.365 287.984 113.147C287.723 112.922 287.367 112.81 286.917 112.81C286.46 112.81 286.101 112.922 285.839 113.147C285.578 113.365 285.448 113.677 285.448 114.083C285.448 114.446 285.571 114.747 285.818 114.987C286.064 115.219 286.431 115.335 286.917 115.335ZM286.917 111.819C287.309 111.819 287.617 111.718 287.842 111.514C288.067 111.304 288.18 111.043 288.18 110.731C288.18 110.375 288.067 110.103 287.842 109.914C287.625 109.718 287.316 109.62 286.917 109.62C286.518 109.62 286.206 109.718 285.981 109.914C285.763 110.103 285.654 110.375 285.654 110.731C285.654 111.05 285.763 111.311 285.981 111.514C286.206 111.718 286.518 111.819 286.917 111.819ZM290.944 116.304V110.85H292.098L292.196 111.601C292.37 111.326 292.602 111.112 292.893 110.959C293.183 110.8 293.513 110.72 293.883 110.72C294.159 110.72 294.406 110.756 294.623 110.829C294.848 110.901 295.048 111.01 295.222 111.155C295.396 111.3 295.538 111.482 295.646 111.699C295.85 111.395 296.114 111.155 296.441 110.981C296.768 110.807 297.123 110.72 297.508 110.72C297.972 110.72 298.364 110.814 298.683 111.003C299.003 111.184 299.246 111.456 299.413 111.819C299.579 112.182 299.663 112.628 299.663 113.158V116.304H298.368V113.289C298.368 112.817 298.273 112.458 298.085 112.211C297.896 111.957 297.617 111.83 297.246 111.83C296.993 111.83 296.768 111.895 296.572 112.026C296.376 112.149 296.223 112.331 296.114 112.57C296.006 112.81 295.951 113.1 295.951 113.441V116.304H294.656V113.289C294.656 112.817 294.562 112.458 294.373 112.211C294.184 111.957 293.898 111.83 293.513 111.83C293.274 111.83 293.056 111.895 292.86 112.026C292.671 112.149 292.522 112.331 292.414 112.57C292.305 112.81 292.25 113.1 292.25 113.441V116.304H290.944ZM304.058 116.434C303.767 116.434 303.506 116.398 303.274 116.325C303.049 116.253 302.846 116.148 302.664 116.01C302.49 115.872 302.345 115.716 302.229 115.542L302.088 116.304H300.923V108.467H302.229V111.656C302.396 111.395 302.628 111.173 302.926 110.992C303.223 110.811 303.601 110.72 304.058 110.72C304.573 110.72 305.026 110.847 305.418 111.101C305.817 111.347 306.129 111.685 306.354 112.113C306.587 112.541 306.703 113.031 306.703 113.583C306.703 114.134 306.587 114.624 306.354 115.052C306.129 115.48 305.817 115.818 305.418 116.064C305.026 116.311 304.573 116.434 304.058 116.434ZM303.786 115.302C304.098 115.302 304.37 115.23 304.602 115.085C304.841 114.939 305.03 114.74 305.168 114.486C305.306 114.225 305.375 113.924 305.375 113.583C305.375 113.241 305.306 112.944 305.168 112.69C305.03 112.429 304.841 112.226 304.602 112.08C304.37 111.935 304.098 111.863 303.786 111.863C303.474 111.863 303.198 111.935 302.958 112.08C302.719 112.226 302.534 112.429 302.403 112.69C302.273 112.944 302.207 113.241 302.207 113.583C302.207 113.916 302.273 114.214 302.403 114.475C302.534 114.736 302.719 114.939 302.958 115.085C303.198 115.23 303.474 115.302 303.786 115.302Z" fill="#6C47FF"/>
<path d="M307.234 117.479L309.955 107.868H311.229L308.508 117.479H307.234ZM313.025 116.304V110.176L311.719 110.502V109.49L313.558 108.684H314.375V116.304H313.025ZM318.617 116.434C318.051 116.434 317.572 116.329 317.18 116.119C316.788 115.908 316.476 115.629 316.244 115.281C316.012 114.925 315.841 114.529 315.733 114.094C315.631 113.651 315.58 113.205 315.58 112.755C315.58 111.906 315.696 111.17 315.928 110.546C316.168 109.914 316.513 109.425 316.963 109.076C317.412 108.728 317.953 108.554 318.584 108.554C319.1 108.554 319.539 108.655 319.901 108.858C320.264 109.054 320.547 109.319 320.75 109.653C320.954 109.98 321.073 110.335 321.11 110.72H319.901C319.836 110.371 319.687 110.107 319.455 109.925C319.23 109.737 318.936 109.642 318.573 109.642C318.247 109.642 317.957 109.744 317.703 109.947C317.449 110.15 317.249 110.455 317.104 110.861C316.959 111.268 316.875 111.783 316.854 112.407C316.854 112.414 316.854 112.425 316.854 112.44C316.854 112.454 316.854 112.465 316.854 112.472C316.963 112.269 317.115 112.088 317.311 111.928C317.514 111.761 317.743 111.63 317.997 111.536C318.258 111.442 318.537 111.395 318.835 111.395C319.263 111.395 319.662 111.496 320.032 111.699C320.402 111.895 320.7 112.178 320.925 112.548C321.157 112.919 321.273 113.354 321.273 113.855C321.273 114.312 321.16 114.736 320.935 115.128C320.718 115.52 320.409 115.836 320.01 116.075C319.618 116.315 319.154 116.434 318.617 116.434ZM318.541 115.313C318.824 115.313 319.074 115.252 319.292 115.128C319.517 115.005 319.691 114.838 319.814 114.627C319.938 114.417 319.999 114.178 319.999 113.909C319.999 113.626 319.938 113.379 319.814 113.169C319.691 112.958 319.517 112.795 319.292 112.679C319.067 112.563 318.813 112.505 318.53 112.505C318.254 112.505 318.004 112.567 317.779 112.69C317.554 112.813 317.376 112.98 317.246 113.191C317.115 113.401 317.05 113.637 317.05 113.898C317.05 114.174 317.115 114.417 317.246 114.627C317.376 114.838 317.554 115.005 317.779 115.128C318.004 115.252 318.258 115.313 318.541 115.313ZM322.706 116.358C322.459 116.358 322.26 116.282 322.107 116.13C321.955 115.977 321.879 115.796 321.879 115.585C321.879 115.36 321.955 115.172 322.107 115.019C322.26 114.867 322.459 114.791 322.706 114.791C322.945 114.791 323.141 114.867 323.294 115.019C323.446 115.172 323.522 115.36 323.522 115.585C323.522 115.796 323.446 115.977 323.294 116.13C323.141 116.282 322.945 116.358 322.706 116.358ZM327.097 116.434C326.603 116.434 326.153 116.347 325.747 116.173C325.341 115.992 325.014 115.72 324.767 115.357C324.528 114.987 324.401 114.522 324.386 113.963H325.671C325.678 114.217 325.736 114.45 325.845 114.66C325.961 114.863 326.124 115.027 326.335 115.15C326.545 115.266 326.799 115.324 327.097 115.324C327.387 115.324 327.63 115.27 327.826 115.161C328.022 115.052 328.171 114.903 328.272 114.715C328.374 114.526 328.425 114.315 328.425 114.083C328.425 113.8 328.356 113.568 328.218 113.387C328.08 113.198 327.891 113.056 327.652 112.962C327.412 112.868 327.14 112.821 326.835 112.821H326.269V111.732H326.835C327.235 111.732 327.561 111.641 327.815 111.46C328.069 111.279 328.196 111.01 328.196 110.654C328.196 110.357 328.098 110.118 327.902 109.936C327.713 109.755 327.445 109.664 327.097 109.664C326.719 109.664 326.425 109.773 326.215 109.991C326.005 110.208 325.888 110.477 325.867 110.796H324.582C324.604 110.339 324.72 109.943 324.931 109.61C325.148 109.268 325.442 109.007 325.812 108.826C326.182 108.644 326.61 108.554 327.097 108.554C327.612 108.554 328.047 108.644 328.403 108.826C328.758 109.007 329.027 109.25 329.208 109.555C329.39 109.86 329.48 110.194 329.48 110.557C329.48 110.84 329.426 111.097 329.317 111.329C329.216 111.554 329.07 111.747 328.882 111.906C328.7 112.066 328.486 112.178 328.24 112.244C328.53 112.302 328.784 112.414 329.001 112.581C329.219 112.748 329.39 112.962 329.513 113.223C329.644 113.485 329.709 113.786 329.709 114.127C329.709 114.54 329.607 114.925 329.404 115.281C329.208 115.629 328.914 115.908 328.523 116.119C328.138 116.329 327.663 116.434 327.097 116.434ZM334.081 116.434C333.392 116.434 332.797 116.271 332.296 115.945C331.802 115.611 331.421 115.15 331.153 114.562C330.892 113.967 330.761 113.278 330.761 112.494C330.761 111.71 330.892 111.025 331.153 110.437C331.421 109.842 331.802 109.381 332.296 109.054C332.797 108.721 333.392 108.554 334.081 108.554C334.778 108.554 335.369 108.721 335.855 109.054C336.349 109.381 336.73 109.842 336.998 110.437C337.267 111.025 337.401 111.71 337.401 112.494C337.401 113.278 337.267 113.967 336.998 114.562C336.73 115.15 336.349 115.611 335.855 115.945C335.362 116.271 334.77 116.434 334.081 116.434ZM334.081 115.259C334.473 115.259 334.817 115.15 335.115 114.932C335.413 114.707 335.645 114.388 335.812 113.974C335.979 113.561 336.062 113.067 336.062 112.494C336.062 111.921 335.979 111.427 335.812 111.014C335.645 110.6 335.413 110.284 335.115 110.067C334.817 109.842 334.473 109.729 334.081 109.729C333.696 109.729 333.352 109.842 333.047 110.067C332.749 110.284 332.514 110.6 332.339 111.014C332.172 111.427 332.089 111.921 332.089 112.494C332.089 113.067 332.172 113.561 332.339 113.974C332.514 114.388 332.749 114.707 333.047 114.932C333.352 115.15 333.696 115.259 334.081 115.259ZM338.513 116.304V110.85H339.667L339.765 111.601C339.939 111.326 340.171 111.112 340.461 110.959C340.752 110.8 341.082 110.72 341.452 110.72C341.728 110.72 341.974 110.756 342.192 110.829C342.417 110.901 342.617 111.01 342.791 111.155C342.965 111.3 343.106 111.482 343.215 111.699C343.418 111.395 343.683 111.155 344.01 110.981C344.336 110.807 344.692 110.72 345.076 110.72C345.541 110.72 345.933 110.814 346.252 111.003C346.571 111.184 346.814 111.456 346.981 111.819C347.148 112.182 347.232 112.628 347.232 113.158V116.304H345.936V113.289C345.936 112.817 345.842 112.458 345.653 112.211C345.465 111.957 345.185 111.83 344.815 111.83C344.561 111.83 344.336 111.895 344.14 112.026C343.944 112.149 343.792 112.331 343.683 112.57C343.574 112.81 343.52 113.1 343.52 113.441V116.304H342.225V113.289C342.225 112.817 342.13 112.458 341.942 112.211C341.753 111.957 341.466 111.83 341.082 111.83C340.842 111.83 340.625 111.895 340.429 112.026C340.24 112.149 340.091 112.331 339.982 112.57C339.874 112.81 339.819 113.1 339.819 113.441V116.304H338.513ZM351.627 116.434C351.336 116.434 351.075 116.398 350.843 116.325C350.618 116.253 350.415 116.148 350.233 116.01C350.059 115.872 349.914 115.716 349.798 115.542L349.656 116.304H348.492V108.467H349.798V111.656C349.965 111.395 350.197 111.173 350.494 110.992C350.792 110.811 351.169 110.72 351.627 110.72C352.142 110.72 352.595 110.847 352.987 111.101C353.386 111.347 353.698 111.685 353.923 112.113C354.155 112.541 354.272 113.031 354.272 113.583C354.272 114.134 354.155 114.624 353.923 115.052C353.698 115.48 353.386 115.818 352.987 116.064C352.595 116.311 352.142 116.434 351.627 116.434ZM351.354 115.302C351.666 115.302 351.939 115.23 352.171 115.085C352.41 114.939 352.599 114.74 352.737 114.486C352.875 114.225 352.944 113.924 352.944 113.583C352.944 113.241 352.875 112.944 352.737 112.69C352.599 112.429 352.41 112.226 352.171 112.08C351.939 111.935 351.666 111.863 351.354 111.863C351.042 111.863 350.767 111.935 350.527 112.08C350.288 112.226 350.103 112.429 349.972 112.69C349.841 112.944 349.776 113.241 349.776 113.583C349.776 113.916 349.841 114.214 349.972 114.475C350.103 114.736 350.288 114.939 350.527 115.085C350.767 115.23 351.042 115.302 351.354 115.302Z" fill="#011552"/>
<path d="M395.622 116.304V109.914L394.337 110.23V109.425L396.035 108.684H396.732V116.304H395.622ZM398.585 116.358C398.382 116.358 398.211 116.293 398.073 116.162C397.935 116.024 397.866 115.861 397.866 115.672C397.866 115.476 397.935 115.313 398.073 115.183C398.211 115.045 398.382 114.976 398.585 114.976C398.795 114.976 398.966 115.045 399.096 115.183C399.227 115.313 399.292 115.476 399.292 115.672C399.292 115.861 399.227 116.024 399.096 116.162C398.966 116.293 398.795 116.358 398.585 116.358ZM403.057 116.434C402.527 116.434 402.067 116.34 401.675 116.151C401.283 115.955 400.974 115.691 400.75 115.357C400.525 115.023 400.39 114.649 400.347 114.236H401.403C401.482 114.606 401.667 114.91 401.958 115.15C402.248 115.389 402.618 115.509 403.068 115.509C403.395 115.509 403.678 115.429 403.917 115.27C404.156 115.11 404.342 114.896 404.472 114.627C404.61 114.359 404.679 114.058 404.679 113.724C404.679 113.376 404.61 113.075 404.472 112.821C404.342 112.559 404.156 112.356 403.917 112.211C403.678 112.066 403.402 111.993 403.09 111.993C402.712 111.993 402.386 112.08 402.11 112.255C401.834 112.421 401.635 112.643 401.511 112.919H400.467L401.109 108.684H405.201V109.631H401.936L401.533 111.765C401.707 111.569 401.94 111.409 402.23 111.286C402.527 111.155 402.865 111.09 403.242 111.09C403.627 111.09 403.971 111.159 404.276 111.297C404.581 111.427 404.842 111.612 405.06 111.852C405.278 112.091 405.441 112.371 405.55 112.69C405.666 113.009 405.724 113.35 405.724 113.713C405.724 114.09 405.662 114.446 405.539 114.78C405.415 115.106 405.238 115.397 405.005 115.651C404.773 115.897 404.494 116.09 404.167 116.228C403.841 116.365 403.471 116.434 403.057 116.434ZM409.079 116.434C408.622 116.434 408.219 116.358 407.871 116.206C407.523 116.053 407.243 115.839 407.033 115.564C406.83 115.288 406.706 114.965 406.663 114.595H407.762C407.806 114.769 407.882 114.929 407.991 115.074C408.1 115.219 408.245 115.335 408.426 115.422C408.608 115.509 408.825 115.553 409.079 115.553C409.319 115.553 409.515 115.52 409.667 115.455C409.819 115.382 409.932 115.288 410.004 115.172C410.084 115.056 410.124 114.929 410.124 114.791C410.124 114.595 410.073 114.446 409.972 114.344C409.87 114.236 409.721 114.152 409.525 114.094C409.337 114.029 409.108 113.971 408.84 113.92C408.6 113.869 408.364 113.807 408.132 113.735C407.9 113.662 407.69 113.568 407.501 113.452C407.312 113.336 407.16 113.191 407.044 113.016C406.935 112.835 406.88 112.617 406.88 112.363C406.88 112.051 406.964 111.772 407.131 111.525C407.298 111.271 407.534 111.075 407.838 110.937C408.143 110.792 408.51 110.72 408.938 110.72C409.54 110.72 410.026 110.865 410.396 111.155C410.766 111.445 410.984 111.855 411.049 112.385H409.994C409.965 112.138 409.856 111.95 409.667 111.819C409.486 111.681 409.239 111.612 408.927 111.612C408.615 111.612 408.375 111.674 408.208 111.797C408.042 111.921 407.958 112.084 407.958 112.287C407.958 112.411 408.005 112.523 408.1 112.625C408.201 112.726 408.343 112.813 408.524 112.886C408.713 112.951 408.938 113.009 409.199 113.06C409.569 113.14 409.906 113.234 410.211 113.343C410.516 113.445 410.759 113.601 410.941 113.811C411.129 114.022 411.224 114.323 411.224 114.715C411.231 115.048 411.144 115.346 410.962 115.607C410.788 115.868 410.541 116.072 410.222 116.217C409.903 116.362 409.522 116.434 409.079 116.434ZM414.889 116.434C414.359 116.434 413.891 116.318 413.485 116.086C413.079 115.847 412.759 115.513 412.527 115.085C412.302 114.656 412.19 114.159 412.19 113.593C412.19 113.02 412.302 112.519 412.527 112.091C412.752 111.663 413.068 111.329 413.474 111.09C413.888 110.843 414.363 110.72 414.9 110.72C415.437 110.72 415.898 110.84 416.282 111.079C416.667 111.318 416.965 111.634 417.175 112.026C417.385 112.418 417.491 112.85 417.491 113.321C417.491 113.394 417.491 113.474 417.491 113.561C417.491 113.641 417.487 113.731 417.48 113.833H412.984V113.071H416.402C416.388 112.621 416.235 112.269 415.945 112.015C415.662 111.754 415.31 111.623 414.889 111.623C414.599 111.623 414.327 111.692 414.073 111.83C413.826 111.961 413.627 112.153 413.474 112.407C413.329 112.661 413.256 112.984 413.256 113.376V113.68C413.256 114.08 413.329 114.417 413.474 114.693C413.627 114.969 413.826 115.179 414.073 115.324C414.32 115.462 414.588 115.531 414.878 115.531C415.227 115.531 415.513 115.455 415.738 115.302C415.97 115.143 416.141 114.932 416.25 114.671H417.338C417.244 115.005 417.084 115.306 416.859 115.574C416.634 115.836 416.355 116.046 416.021 116.206C415.695 116.358 415.317 116.434 414.889 116.434ZM421.127 116.434C420.598 116.434 420.126 116.315 419.712 116.075C419.299 115.836 418.972 115.502 418.733 115.074C418.5 114.646 418.384 114.149 418.384 113.583C418.384 113.016 418.5 112.519 418.733 112.091C418.972 111.663 419.299 111.329 419.712 111.09C420.126 110.843 420.598 110.72 421.127 110.72C421.795 110.72 422.35 110.894 422.793 111.242C423.243 111.591 423.529 112.059 423.653 112.646H422.521C422.455 112.334 422.292 112.091 422.031 111.917C421.769 111.743 421.465 111.656 421.116 111.656C420.826 111.656 420.558 111.728 420.311 111.874C420.064 112.019 419.865 112.236 419.712 112.527C419.567 112.81 419.495 113.162 419.495 113.583C419.495 113.895 419.538 114.17 419.625 114.41C419.712 114.649 419.828 114.852 419.973 115.019C420.126 115.179 420.3 115.302 420.496 115.389C420.692 115.469 420.899 115.509 421.116 115.509C421.356 115.509 421.57 115.473 421.759 115.4C421.955 115.32 422.118 115.208 422.248 115.063C422.386 114.91 422.477 114.729 422.521 114.519H423.653C423.536 115.092 423.25 115.556 422.793 115.912C422.343 116.26 421.788 116.434 421.127 116.434ZM427.494 116.304V110.85H428.473L428.571 111.884C428.695 111.645 428.851 111.438 429.039 111.264C429.235 111.09 429.464 110.956 429.725 110.861C429.986 110.767 430.284 110.72 430.618 110.72V111.874H430.269C430.037 111.874 429.816 111.903 429.605 111.961C429.402 112.019 429.224 112.113 429.072 112.244C428.92 112.367 428.8 112.541 428.713 112.766C428.626 112.991 428.582 113.274 428.582 113.615V116.304H427.494ZM433.832 116.434C433.302 116.434 432.834 116.318 432.428 116.086C432.021 115.847 431.702 115.513 431.47 115.085C431.245 114.656 431.132 114.159 431.132 113.593C431.132 113.02 431.245 112.519 431.47 112.091C431.695 111.663 432.01 111.329 432.417 111.09C432.83 110.843 433.306 110.72 433.843 110.72C434.38 110.72 434.84 110.84 435.225 111.079C435.61 111.318 435.907 111.634 436.118 112.026C436.328 112.418 436.433 112.85 436.433 113.321C436.433 113.394 436.433 113.474 436.433 113.561C436.433 113.641 436.43 113.731 436.422 113.833H431.927V113.071H435.345C435.33 112.621 435.178 112.269 434.888 112.015C434.605 111.754 434.253 111.623 433.832 111.623C433.541 111.623 433.269 111.692 433.015 111.83C432.769 111.961 432.569 112.153 432.417 112.407C432.272 112.661 432.199 112.984 432.199 113.376V113.68C432.199 114.08 432.272 114.417 432.417 114.693C432.569 114.969 432.769 115.179 433.015 115.324C433.262 115.462 433.531 115.531 433.821 115.531C434.169 115.531 434.456 115.455 434.681 115.302C434.913 115.143 435.083 114.932 435.192 114.671H436.281C436.186 115.005 436.027 115.306 435.802 115.574C435.577 115.836 435.298 116.046 434.964 116.206C434.637 116.358 434.26 116.434 433.832 116.434ZM437.534 116.304V110.85H438.513L438.589 111.623C438.764 111.34 438.996 111.119 439.286 110.959C439.576 110.8 439.903 110.72 440.266 110.72C440.541 110.72 440.792 110.76 441.017 110.84C441.249 110.912 441.452 111.025 441.626 111.177C441.8 111.329 441.942 111.518 442.051 111.743C442.247 111.424 442.508 111.173 442.835 110.992C443.168 110.811 443.524 110.72 443.901 110.72C444.344 110.72 444.725 110.811 445.044 110.992C445.363 111.166 445.607 111.431 445.773 111.787C445.948 112.142 446.035 112.585 446.035 113.114V116.304H444.957V113.223C444.957 112.708 444.852 112.32 444.641 112.059C444.431 111.79 444.126 111.656 443.727 111.656C443.459 111.656 443.219 111.725 443.009 111.863C442.798 112.001 442.631 112.204 442.508 112.472C442.385 112.733 442.323 113.056 442.323 113.441V116.304H441.245V113.223C441.245 112.708 441.14 112.32 440.93 112.059C440.719 111.79 440.414 111.656 440.015 111.656C439.754 111.656 439.515 111.725 439.297 111.863C439.087 112.001 438.92 112.204 438.796 112.472C438.68 112.733 438.622 113.056 438.622 113.441V116.304H437.534ZM449.128 116.434C448.678 116.434 448.305 116.358 448.007 116.206C447.71 116.053 447.488 115.85 447.343 115.596C447.198 115.342 447.125 115.066 447.125 114.769C447.125 114.406 447.216 114.098 447.398 113.844C447.586 113.59 447.855 113.394 448.203 113.256C448.559 113.118 448.979 113.049 449.466 113.049H450.892C450.892 112.73 450.844 112.469 450.75 112.265C450.656 112.055 450.514 111.899 450.326 111.797C450.137 111.689 449.905 111.634 449.629 111.634C449.302 111.634 449.019 111.714 448.78 111.874C448.54 112.026 448.395 112.258 448.344 112.57H447.256C447.3 112.178 447.43 111.848 447.648 111.58C447.873 111.304 448.159 111.094 448.508 110.948C448.856 110.796 449.23 110.72 449.629 110.72C450.137 110.72 450.565 110.811 450.913 110.992C451.262 111.173 451.526 111.431 451.708 111.765C451.889 112.091 451.98 112.483 451.98 112.94V116.304H451.033L450.946 115.379C450.873 115.524 450.779 115.662 450.663 115.792C450.554 115.923 450.423 116.035 450.271 116.13C450.126 116.224 449.955 116.296 449.76 116.347C449.571 116.405 449.36 116.434 449.128 116.434ZM449.335 115.553C449.567 115.553 449.778 115.505 449.966 115.411C450.155 115.317 450.315 115.19 450.445 115.03C450.583 114.863 450.685 114.678 450.75 114.475C450.823 114.272 450.863 114.058 450.87 113.833V113.811H449.574C449.262 113.811 449.008 113.851 448.813 113.931C448.617 114.003 448.475 114.109 448.388 114.246C448.308 114.377 448.268 114.526 448.268 114.693C448.268 114.867 448.308 115.019 448.388 115.15C448.475 115.281 448.598 115.382 448.758 115.455C448.918 115.52 449.11 115.553 449.335 115.553ZM453.326 116.304V110.85H454.415V116.304H453.326ZM453.87 109.805C453.667 109.805 453.497 109.74 453.359 109.61C453.228 109.479 453.163 109.312 453.163 109.109C453.163 108.913 453.228 108.753 453.359 108.63C453.497 108.499 453.667 108.434 453.87 108.434C454.073 108.434 454.244 108.499 454.382 108.63C454.527 108.753 454.6 108.913 454.6 109.109C454.6 109.312 454.527 109.479 454.382 109.61C454.244 109.74 454.073 109.805 453.87 109.805ZM455.862 116.304V110.85H456.842L456.907 111.797C457.081 111.464 457.328 111.202 457.647 111.014C457.967 110.818 458.337 110.72 458.758 110.72C459.193 110.72 459.567 110.811 459.879 110.992C460.191 111.166 460.43 111.431 460.597 111.787C460.771 112.135 460.858 112.577 460.858 113.114V116.304H459.77V113.223C459.77 112.708 459.657 112.32 459.432 112.059C459.215 111.79 458.892 111.656 458.464 111.656C458.173 111.656 457.912 111.725 457.68 111.863C457.455 112.001 457.277 112.2 457.147 112.461C457.016 112.723 456.951 113.046 456.951 113.43V116.304H455.862ZM462.207 116.304V110.85H463.296V116.304H462.207ZM462.752 109.805C462.548 109.805 462.378 109.74 462.24 109.61C462.109 109.479 462.044 109.312 462.044 109.109C462.044 108.913 462.109 108.753 462.24 108.63C462.378 108.499 462.548 108.434 462.752 108.434C462.955 108.434 463.125 108.499 463.263 108.63C463.408 108.753 463.481 108.913 463.481 109.109C463.481 109.312 463.408 109.479 463.263 109.61C463.125 109.74 462.955 109.805 462.752 109.805ZM464.744 116.304V110.85H465.723L465.789 111.797C465.963 111.464 466.209 111.202 466.529 111.014C466.848 110.818 467.218 110.72 467.639 110.72C468.074 110.72 468.448 110.811 468.76 110.992C469.072 111.166 469.312 111.431 469.478 111.787C469.653 112.135 469.74 112.577 469.74 113.114V116.304H468.651V113.223C468.651 112.708 468.539 112.32 468.314 112.059C468.096 111.79 467.773 111.656 467.345 111.656C467.055 111.656 466.794 111.725 466.561 111.863C466.336 112.001 466.159 112.2 466.028 112.461C465.897 112.723 465.832 113.046 465.832 113.43V116.304H464.744ZM473.233 118.829C472.732 118.829 472.29 118.764 471.905 118.633C471.528 118.51 471.234 118.317 471.023 118.056C470.813 117.795 470.708 117.476 470.708 117.098C470.708 116.902 470.751 116.706 470.838 116.511C470.925 116.315 471.067 116.126 471.263 115.945C471.459 115.756 471.72 115.593 472.047 115.455L472.656 115.934C472.293 116.079 472.047 116.246 471.916 116.434C471.793 116.63 471.731 116.815 471.731 116.989C471.731 117.207 471.796 117.389 471.927 117.534C472.057 117.679 472.235 117.788 472.46 117.86C472.692 117.933 472.95 117.969 473.233 117.969C473.516 117.969 473.759 117.929 473.962 117.849C474.173 117.77 474.336 117.657 474.452 117.512C474.568 117.367 474.626 117.196 474.626 117C474.626 116.768 474.539 116.576 474.365 116.423C474.198 116.271 473.872 116.18 473.385 116.151C472.972 116.122 472.62 116.082 472.33 116.032C472.047 115.974 471.804 115.912 471.6 115.847C471.404 115.774 471.237 115.694 471.1 115.607C470.969 115.513 470.857 115.418 470.762 115.324V115.074L471.851 113.963L472.721 114.257L471.546 115.357L471.774 114.878C471.854 114.929 471.93 114.979 472.003 115.03C472.076 115.074 472.174 115.114 472.297 115.15C472.42 115.186 472.584 115.219 472.787 115.248C472.997 115.277 473.273 115.302 473.614 115.324C474.1 115.368 474.496 115.458 474.8 115.596C475.105 115.734 475.327 115.919 475.464 116.151C475.602 116.376 475.671 116.648 475.671 116.968C475.671 117.28 475.584 117.577 475.41 117.86C475.236 118.143 474.967 118.375 474.605 118.557C474.249 118.738 473.792 118.829 473.233 118.829ZM473.233 114.627C472.776 114.627 472.384 114.54 472.057 114.366C471.738 114.192 471.491 113.96 471.317 113.67C471.15 113.372 471.067 113.042 471.067 112.679C471.067 112.316 471.15 111.99 471.317 111.699C471.491 111.402 471.738 111.166 472.057 110.992C472.384 110.811 472.776 110.72 473.233 110.72C473.69 110.72 474.078 110.811 474.398 110.992C474.724 111.166 474.971 111.402 475.138 111.699C475.312 111.99 475.399 112.316 475.399 112.679C475.399 113.042 475.312 113.372 475.138 113.67C474.971 113.96 474.724 114.192 474.398 114.366C474.078 114.54 473.69 114.627 473.233 114.627ZM473.233 113.757C473.581 113.757 473.861 113.666 474.071 113.485C474.289 113.296 474.398 113.027 474.398 112.679C474.398 112.331 474.289 112.066 474.071 111.884C473.861 111.696 473.581 111.601 473.233 111.601C472.877 111.601 472.591 111.696 472.373 111.884C472.163 112.066 472.057 112.331 472.057 112.679C472.057 113.027 472.163 113.296 472.373 113.485C472.591 113.666 472.877 113.757 473.233 113.757ZM474.115 111.71L473.853 110.85H476.107V111.601L474.115 111.71Z" fill="#011552"/>
<rect x="275.721" y="90.5813" width="197.136" height="6.04712" rx="3.02356" fill="#F3EFFF"/>
<rect x="275.721" y="90.5813" width="101.592" height="6.04712" rx="3.02356" fill="url(#paint0_linear_3_248)"/>
<rect x="14.4805" y="15.5" width="161.66" height="163.155" rx="8.5" fill="#F3EFFF"/>
<rect x="14.4805" y="15.5" width="161.66" height="163.155" rx="8.5" stroke="#9277FF"/>
<g clip-path="url(#clip0_3_248)">
<path d="M115.675 41.8472H51.3439C50.7444 41.848 50.1698 42.0867 49.7461 42.5108C49.3224 42.9349 49.0843 43.5098 49.084 44.1093V131.107C49.0843 131.707 49.3224 132.282 49.7461 132.706C50.1698 133.13 50.7444 133.368 51.3439 133.369H115.675C116.275 133.368 116.849 133.13 117.273 132.706C117.697 132.282 117.935 131.707 117.935 131.107V44.1093C117.935 43.5098 117.697 42.9349 117.273 42.5108C116.849 42.0867 116.275 41.848 115.675 41.8472Z" fill="#F3EFFF"/>
<path d="M53.1652 44.3665C52.7465 44.3717 52.347 44.5428 52.0543 44.8422C51.7615 45.1416 51.5995 45.5449 51.6036 45.9636V128.414C51.5995 128.833 51.7615 129.236 52.0543 129.535C52.347 129.835 52.7465 130.006 53.1652 130.011H113.856C114.274 130.006 114.674 129.835 114.967 129.535C115.259 129.236 115.421 128.833 115.417 128.414V45.9636C115.421 45.5449 115.259 45.1416 114.967 44.8422C114.674 44.5428 114.274 44.3717 113.856 44.3665H53.1652Z" fill="white"/>
<path d="M58.2895 54.0038C58.1121 53.996 57.9388 54.0586 57.8074 54.178C57.676 54.2973 57.5971 54.4638 57.5879 54.6411V57.5649C57.5971 57.7422 57.676 57.9087 57.8074 58.0281C57.9388 58.1475 58.1121 58.2101 58.2895 58.2022H99.7048C99.8821 58.2101 100.055 58.1475 100.187 58.0281C100.318 57.9087 100.397 57.7422 100.406 57.5649V54.6411C100.397 54.4638 100.318 54.2973 100.187 54.178C100.055 54.0586 99.8821 53.996 99.7048 54.0038H58.2895Z" fill="url(#paint1_linear_3_248)"/>
<path d="M58.6038 64.8423C58.5803 64.8429 58.5572 64.848 58.5358 64.8576C58.5144 64.8671 58.495 64.8807 58.4789 64.8977C58.4627 64.9147 58.45 64.9347 58.4416 64.9565C58.4332 64.9784 58.4292 65.0017 58.4297 65.0252V66.3385C58.4292 66.362 58.4332 66.3853 58.4416 66.4072C58.45 66.4291 58.4627 66.4491 58.4789 66.466C58.495 66.483 58.5144 66.4966 58.5358 66.5062C58.5572 66.5157 58.5803 66.5208 58.6038 66.5214H100.238C100.262 66.5208 100.285 66.5157 100.306 66.5062C100.328 66.4966 100.347 66.483 100.363 66.466C100.38 66.4491 100.392 66.4291 100.401 66.4072C100.409 66.3853 100.413 66.362 100.413 66.3385V65.0252C100.413 65.0017 100.409 64.9784 100.401 64.9565C100.392 64.9347 100.38 64.9147 100.363 64.8977C100.347 64.8807 100.328 64.8671 100.306 64.8576C100.285 64.848 100.262 64.8429 100.238 64.8423H58.6038Z" fill="url(#paint2_linear_3_248)"/>
<path d="M58.5208 69.0085C58.5085 69.0091 58.4965 69.0143 58.4852 69.0238C58.474 69.0333 58.4639 69.0469 58.4554 69.0639C58.447 69.0809 58.4403 69.1009 58.4359 69.1228C58.4315 69.1447 58.4294 69.168 58.4297 69.1914V70.5048C58.4294 70.5282 58.4315 70.5516 58.4359 70.5734C58.4403 70.5953 58.447 70.6153 58.4554 70.6323C58.4639 70.6493 58.474 70.6629 58.4852 70.6724C58.4965 70.6819 58.5085 70.6871 58.5208 70.6877H80.3186C80.3308 70.6871 80.3429 70.6819 80.3541 70.6724C80.3654 70.6629 80.3755 70.6493 80.3839 70.6323C80.3924 70.6153 80.399 70.5953 80.4034 70.5734C80.4079 70.5516 80.41 70.5282 80.4097 70.5048V69.1914C80.41 69.168 80.4079 69.1447 80.4034 69.1228C80.399 69.1009 80.3924 69.0809 80.3839 69.0639C80.3755 69.0469 80.3654 69.0333 80.3541 69.0238C80.3429 69.0143 80.3308 69.0091 80.3186 69.0085H58.5208Z" fill="#F3EFFF"/>
<path d="M58.6038 73.1748C58.5803 73.1754 58.5572 73.1806 58.5358 73.1901C58.5144 73.1996 58.495 73.2132 58.4789 73.2302C58.4627 73.2472 58.45 73.2672 58.4416 73.289C58.4332 73.3109 58.4292 73.3342 58.4297 73.3577V74.6711C58.4292 74.6945 58.4332 74.7178 58.4416 74.7397C58.45 74.7616 58.4627 74.7816 58.4789 74.7986C58.495 74.8155 58.5144 74.8292 58.5358 74.8387C58.5572 74.8482 58.5803 74.8534 58.6038 74.8539H100.238C100.262 74.8534 100.285 74.8482 100.306 74.8387C100.328 74.8292 100.347 74.8155 100.363 74.7986C100.38 74.7816 100.392 74.7616 100.401 74.7397C100.409 74.7178 100.413 74.6945 100.413 74.6711V73.3577C100.413 73.3342 100.409 73.3109 100.401 73.289C100.392 73.2672 100.38 73.2472 100.363 73.2302C100.347 73.2132 100.328 73.1996 100.306 73.1901C100.285 73.1806 100.262 73.1754 100.238 73.1748H58.6038Z" fill="url(#paint3_linear_3_248)"/>
<path d="M58.6038 80.6738C58.5803 80.6744 58.5572 80.6796 58.5358 80.6891C58.5144 80.6986 58.495 80.7122 58.4789 80.7292C58.4627 80.7462 58.45 80.7662 58.4416 80.7881C58.4332 80.8099 58.4292 80.8333 58.4297 80.8567V82.1701C58.4292 82.1935 58.4332 82.2168 58.4416 82.2387C58.45 82.2606 58.4627 82.2806 58.4789 82.2976C58.495 82.3146 58.5144 82.3282 58.5358 82.3377C58.5572 82.3472 58.5803 82.3524 58.6038 82.353H100.238C100.262 82.3524 100.285 82.3472 100.306 82.3377C100.328 82.3282 100.347 82.3146 100.363 82.2976C100.38 82.2806 100.392 82.2606 100.401 82.2387C100.409 82.2168 100.413 82.1935 100.413 82.1701V80.8567C100.413 80.8333 100.409 80.8099 100.401 80.7881C100.392 80.7662 100.38 80.7462 100.363 80.7292C100.347 80.7122 100.328 80.6986 100.306 80.6891C100.285 80.6796 100.262 80.6744 100.238 80.6738H58.6038Z" fill="url(#paint4_linear_3_248)"/>
<path d="M58.5623 84.8401C58.5444 84.8407 58.5268 84.8459 58.5105 84.8554C58.4942 84.8649 58.4795 84.8785 58.4671 84.8955C58.4548 84.9125 58.4452 84.9325 58.4388 84.9543C58.4324 84.9762 58.4293 84.9995 58.4297 85.023V86.3363C58.4293 86.3598 58.4324 86.3831 58.4388 86.405C58.4452 86.4269 58.4548 86.4469 58.4671 86.4638C58.4795 86.4808 58.4942 86.4945 58.5105 86.504C58.5268 86.5135 58.5444 86.5186 58.5623 86.5192H90.2771C90.2949 86.5186 90.3125 86.5135 90.3289 86.504C90.3452 86.4945 90.3599 86.4808 90.3722 86.4638C90.3845 86.4469 90.3942 86.4269 90.4006 86.405C90.407 86.3831 90.4101 86.3598 90.4096 86.3363V85.023C90.4101 84.9995 90.407 84.9762 90.4006 84.9543C90.3942 84.9325 90.3845 84.9125 90.3722 84.8955C90.3599 84.8785 90.3452 84.8649 90.3289 84.8554C90.3125 84.8459 90.2949 84.8407 90.2771 84.8401H58.5623Z" fill="#F3EFFF"/>
<path d="M58.6038 89.0063C58.5803 89.0069 58.5572 89.0121 58.5358 89.0216C58.5144 89.0311 58.495 89.0447 58.4789 89.0617C58.4627 89.0787 58.45 89.0987 58.4416 89.1206C58.4332 89.1425 58.4292 89.1658 58.4297 89.1892V90.5026C58.4292 90.526 58.4332 90.5494 58.4416 90.5712C58.45 90.5931 58.4627 90.6131 58.4789 90.6301C58.495 90.6471 58.5144 90.6607 58.5358 90.6702C58.5572 90.6797 58.5803 90.6849 58.6038 90.6855H100.238C100.262 90.6849 100.285 90.6797 100.306 90.6702C100.328 90.6607 100.347 90.6471 100.363 90.6301C100.38 90.6131 100.392 90.5931 100.401 90.5712C100.409 90.5494 100.413 90.526 100.413 90.5026V89.1892C100.413 89.1658 100.409 89.1425 100.401 89.1206C100.392 89.0987 100.38 89.0787 100.363 89.0617C100.347 89.0447 100.328 89.0311 100.306 89.0216C100.285 89.0121 100.262 89.0069 100.238 89.0063H58.6038Z" fill="#F3EFFF"/>
<path d="M58.5208 93.1726C58.5085 93.1732 58.4965 93.1784 58.4852 93.1879C58.474 93.1974 58.4639 93.211 58.4554 93.228C58.447 93.245 58.4403 93.265 58.4359 93.2869C58.4315 93.3087 58.4294 93.332 58.4297 93.3555V94.6689C58.4294 94.6923 58.4315 94.7156 58.4359 94.7375C58.4403 94.7594 58.447 94.7794 58.4554 94.7964C58.4639 94.8133 58.474 94.827 58.4852 94.8365C58.4965 94.846 58.5085 94.8512 58.5208 94.8517H80.3186C80.3308 94.8512 80.3429 94.846 80.3541 94.8365C80.3654 94.827 80.3755 94.8133 80.3839 94.7964C80.3924 94.7794 80.399 94.7594 80.4034 94.7375C80.4079 94.7156 80.41 94.6923 80.4097 94.6689V93.3555C80.41 93.332 80.4079 93.3087 80.4034 93.2869C80.399 93.265 80.3924 93.245 80.3839 93.228C80.3755 93.211 80.3654 93.1974 80.3541 93.1879C80.3429 93.1784 80.3308 93.1732 80.3186 93.1726H58.5208Z" fill="url(#paint5_linear_3_248)"/>
<path d="M58.6038 97.3389C58.5803 97.3394 58.5572 97.3446 58.5358 97.3541C58.5144 97.3636 58.495 97.3773 58.4789 97.3943C58.4627 97.4112 58.45 97.4312 58.4416 97.4531C58.4332 97.475 58.4292 97.4983 58.4297 97.5217V98.8351C58.4292 98.8586 58.4332 98.8819 58.4416 98.9038C58.45 98.9256 58.4627 98.9456 58.4789 98.9626C58.495 98.9796 58.5144 98.9932 58.5358 99.0027C58.5572 99.0122 58.5803 99.0174 58.6038 99.018H100.238C100.262 99.0174 100.285 99.0122 100.306 99.0027C100.328 98.9932 100.347 98.9796 100.363 98.9626C100.38 98.9456 100.392 98.9256 100.401 98.9038C100.409 98.8819 100.413 98.8586 100.413 98.8351V97.5217C100.413 97.4983 100.409 97.475 100.401 97.4531C100.392 97.4312 100.38 97.4112 100.363 97.3943C100.347 97.3773 100.328 97.3636 100.306 97.3541C100.285 97.3446 100.262 97.3394 100.238 97.3389H58.6038Z" fill="#F3EFFF"/>
<path d="M58.5623 101.505C58.5444 101.506 58.5268 101.511 58.5105 101.52C58.4942 101.53 58.4795 101.544 58.4671 101.561C58.4548 101.577 58.4452 101.597 58.4388 101.619C58.4324 101.641 58.4293 101.665 58.4297 101.688V103.001C58.4293 103.025 58.4324 103.048 58.4388 103.07C58.4452 103.092 58.4548 103.112 58.4671 103.129C58.4795 103.146 58.4942 103.159 58.5105 103.169C58.5268 103.178 58.5444 103.184 58.5623 103.184H90.2771C90.2949 103.184 90.3125 103.178 90.3289 103.169C90.3452 103.159 90.3599 103.146 90.3722 103.129C90.3845 103.112 90.3942 103.092 90.4006 103.07C90.407 103.048 90.4101 103.025 90.4096 103.001V101.688C90.4101 101.665 90.407 101.641 90.4006 101.619C90.3942 101.597 90.3845 101.577 90.3722 101.561C90.3599 101.544 90.3452 101.53 90.3289 101.52C90.3125 101.511 90.2949 101.506 90.2771 101.505H58.5623Z" fill="url(#paint6_linear_3_248)"/>
<path d="M58.6038 105.671C58.5803 105.672 58.5572 105.677 58.5358 105.687C58.5144 105.696 58.495 105.71 58.4789 105.727C58.4627 105.744 58.45 105.764 58.4416 105.786C58.4332 105.808 58.4292 105.831 58.4297 105.854V107.168C58.4292 107.191 58.4332 107.214 58.4416 107.236C58.45 107.258 58.4627 107.278 58.4789 107.295C58.495 107.312 58.5144 107.326 58.5358 107.335C58.5572 107.345 58.5803 107.35 58.6038 107.351H100.238C100.262 107.35 100.285 107.345 100.306 107.335C100.328 107.326 100.347 107.312 100.363 107.295C100.38 107.278 100.392 107.258 100.401 107.236C100.409 107.214 100.413 107.191 100.413 107.168V105.854C100.413 105.831 100.409 105.808 100.401 105.786C100.392 105.764 100.38 105.744 100.363 105.727C100.347 105.71 100.328 105.696 100.306 105.687C100.285 105.677 100.262 105.672 100.238 105.671H58.6038Z" fill="#F3EFFF"/>
<path d="M58.4753 109.69C58.4692 109.691 58.4631 109.696 58.4575 109.705C58.4519 109.715 58.4468 109.729 58.4426 109.746C58.4383 109.763 58.435 109.783 58.4328 109.804C58.4306 109.826 58.4295 109.85 58.4297 109.873V111.186C58.4295 111.21 58.4306 111.233 58.4328 111.255C58.435 111.277 58.4383 111.297 58.4426 111.314C58.4468 111.331 58.4519 111.345 58.4575 111.354C58.4631 111.364 58.4692 111.369 58.4753 111.369H69.3841C69.3902 111.369 69.3963 111.364 69.4019 111.354C69.4075 111.345 69.4126 111.331 69.4168 111.314C69.421 111.297 69.4244 111.277 69.4266 111.255C69.4288 111.233 69.4298 111.21 69.4297 111.186V109.873C69.4298 109.85 69.4288 109.826 69.4266 109.804C69.4244 109.783 69.421 109.763 69.4168 109.746C69.4126 109.729 69.4075 109.715 69.4019 109.705C69.3963 109.696 69.3902 109.691 69.3841 109.69H58.4753Z" fill="url(#paint7_linear_3_248)"/>
<path d="M58.0114 114C58.0075 114.001 58.0037 114.007 58.0001 114.018C57.9965 114.03 57.9933 114.046 57.9906 114.066C57.9879 114.086 57.9858 114.11 57.9844 114.136C57.983 114.162 57.9823 114.19 57.9824 114.218V115.782C57.9823 115.81 57.983 115.838 57.9844 115.864C57.9858 115.89 57.9879 115.914 57.9906 115.934C57.9933 115.954 57.9965 115.97 58.0001 115.982C58.0037 115.993 58.0075 115.999 58.0114 116H64.9534C64.9573 115.999 64.9612 115.993 64.9647 115.982C64.9683 115.97 64.9715 115.954 64.9742 115.934C64.9769 115.914 64.979 115.89 64.9804 115.864C64.9818 115.838 64.9825 115.81 64.9824 115.782V114.218C64.9825 114.19 64.9818 114.162 64.9804 114.136C64.979 114.11 64.9769 114.086 64.9742 114.066C64.9715 114.046 64.9683 114.03 64.9647 114.018C64.9612 114.007 64.9573 114.001 64.9534 114H58.0114Z" fill="url(#paint8_linear_3_248)"/>
<path d="M87.5734 126.061H107.226C107.353 126.06 107.476 126.021 107.58 125.95C107.684 125.879 107.764 125.778 107.811 125.661C107.859 125.542 107.871 125.413 107.847 125.287C107.822 125.162 107.762 125.046 107.673 124.955L95.0957 112.084C95.0375 112.024 94.968 111.976 94.8912 111.944C94.8144 111.912 94.7318 111.895 94.6484 111.895C94.5651 111.895 94.4825 111.912 94.4057 111.944C94.3289 111.976 94.2594 112.024 94.2012 112.084L91.0724 115.285C90.9507 115.41 90.8049 115.51 90.6437 115.579C90.4825 115.647 90.3092 115.682 90.1342 115.682C89.9591 115.682 89.7859 115.647 89.6247 115.579C89.4635 115.51 89.3177 115.41 89.196 115.285L79.3994 105.26C79.3412 105.2 79.2717 105.152 79.1949 105.12C79.1181 105.088 79.0355 105.071 78.9522 105.071C78.8688 105.071 78.7862 105.088 78.7094 105.12C78.6326 105.152 78.5631 105.2 78.5049 105.26L59.344 124.867C59.2551 124.959 59.1947 125.074 59.1703 125.2C59.1459 125.325 59.1585 125.455 59.2066 125.573C59.2529 125.691 59.3333 125.791 59.4374 125.863C59.5415 125.934 59.6645 125.972 59.7906 125.973H87.5978L87.5734 126.061Z" fill="white"/>
<path d="M74.5268 61.1587C74.1043 61.1584 73.6989 61.3257 73.3995 61.6238C73.1001 61.9219 72.9312 62.3266 72.9297 62.7492V151.09C72.9309 151.513 73.0997 151.918 73.3992 152.216C73.6986 152.514 74.1042 152.681 74.5268 152.681H140.184C140.606 152.681 141.012 152.514 141.311 152.216C141.611 151.918 141.78 151.513 141.781 151.09V62.7492C141.78 62.3265 141.611 61.9217 141.311 61.6235C141.012 61.3253 140.606 61.1581 140.184 61.1587H74.5268Z" fill="#F3EFFF"/>
<path d="M76.5442 63.9998C76.1235 64.007 75.7228 64.1809 75.43 64.4832C75.1373 64.7855 74.9764 65.1916 74.9826 65.6124V148.871C74.9764 149.292 75.1373 149.698 75.43 150C75.7228 150.302 76.1235 150.476 76.5442 150.483H137.235C137.655 150.476 138.056 150.302 138.349 150C138.642 149.698 138.803 149.292 138.796 148.871V65.6124C138.803 65.1916 138.642 64.7855 138.349 64.4832C138.056 64.1809 137.655 64.007 137.235 63.9998H76.5442Z" fill="white"/>
<path d="M97.2587 139V130.6H98.8787V139H97.2587ZM91.9667 139V130.6H93.5867V139H91.9667ZM93.3707 135.364V134.056H97.5347V135.364H93.3707ZM102.346 139V131.908H99.8977V130.6H106.414V131.908H103.966V139H102.346ZM107.43 139V130.6H109.362L111.954 135.832L114.51 130.6H116.442V139H114.822V133.348L112.578 137.812H111.294L109.05 133.348V139H107.43ZM117.95 139V130.6H119.57V137.74H123.254V139H117.95Z" fill="#6C47FF"/>
<path d="M117.982 91L128.982 95.0465V97.9535L117.982 102V99.206L125.678 96.5L117.982 93.773V91Z" fill="url(#paint9_linear_3_248)"/>
<path d="M111.982 106H109.017L101.982 86H104.948L111.982 106Z" fill="url(#paint10_linear_3_248)"/>
<path d="M94.9824 91V93.773L87.9867 96.5L94.9824 99.206V102L84.9824 97.9535V95.0465L94.9824 91Z" fill="url(#paint11_linear_3_248)"/>
</g>
<rect x="8.61905" y="9.63998" width="173.38" height="174.875" rx="11.368" stroke="#C6B2FF" stroke-width="0.730651" stroke-dasharray="2.19 1.46"/>
<rect x="1.28125" y="2.5" width="188.056" height="189.55" rx="15.5" stroke="#F3EFFF" stroke-dasharray="2.24 1.49"/>
<rect x="574.5" y="13.5" width="161.66" height="163.155" rx="8.5" fill="#F3EFFF"/>
<rect x="574.5" y="13.5" width="161.66" height="163.155" rx="8.5" stroke="#9277FF"/>
<g clip-path="url(#clip1_3_248)">
<path d="M675.695 39.8472H611.363C610.764 39.848 610.189 40.0867 609.766 40.5108C609.342 40.9349 609.104 41.5098 609.104 42.1093V129.107C609.104 129.707 609.342 130.282 609.766 130.706C610.189 131.13 610.764 131.368 611.363 131.369H675.695C676.294 131.368 676.869 131.13 677.293 130.706C677.716 130.282 677.954 129.707 677.955 129.107V42.1093C677.954 41.5098 677.716 40.9349 677.293 40.5108C676.869 40.0867 676.294 39.848 675.695 39.8472Z" fill="#F3EFFF"/>
<path d="M613.185 42.3665C612.766 42.3717 612.367 42.5428 612.074 42.8422C611.781 43.1416 611.619 43.5449 611.623 43.9636V126.414C611.619 126.833 611.781 127.236 612.074 127.535C612.367 127.835 612.766 128.006 613.185 128.011H673.875C674.294 128.006 674.693 127.835 674.986 127.535C675.279 127.236 675.441 126.833 675.437 126.414V43.9636C675.441 43.5449 675.279 43.1416 674.986 42.8422C674.693 42.5428 674.294 42.3717 673.875 42.3665H613.185Z" fill="white"/>
<path d="M616.866 46.5649C616.576 46.5813 616.303 46.7112 616.108 46.9266C615.912 47.1421 615.809 47.4258 615.821 47.7165V58.8475C615.809 59.1383 615.912 59.422 616.108 59.6374C616.303 59.8528 616.576 59.9828 616.866 59.9991H671.033C671.324 59.9828 671.596 59.8528 671.792 59.6374C671.987 59.422 672.09 59.1383 672.078 58.8475V47.7165C672.09 47.4258 671.987 47.1421 671.792 46.9266C671.596 46.7112 671.324 46.5813 671.033 46.5649H616.866Z" fill="url(#paint12_linear_3_248)"/>
<path d="M616.866 65.6182C616.583 65.6246 616.314 65.7428 616.118 65.947C615.922 66.1512 615.815 66.4247 615.821 66.7077V91.3981C615.815 91.681 615.922 91.9546 616.118 92.1588C616.314 92.363 616.583 92.4812 616.866 92.4876H671.032C671.315 92.4812 671.584 92.363 671.78 92.1588C671.976 91.9546 672.083 91.681 672.078 91.3981V66.7077C672.083 66.4247 671.976 66.1512 671.78 65.947C671.584 65.7428 671.315 65.6246 671.032 65.6182H616.866Z" fill="url(#paint13_linear_3_248)"/>
<path d="M665.359 49.083H622.537V51.6023H665.359V49.083Z" fill="white"/>
<path d="M665.359 53.9529H622.537V54.793H665.359V53.9529Z" fill="white"/>
<path d="M665.359 56.6409H622.537V57.481H665.359V56.6409Z" fill="white"/>
<path d="M647.593 92.4489H667.246C667.372 92.448 667.495 92.4094 667.599 92.3381C667.703 92.2668 667.784 92.1661 667.83 92.0487C667.878 91.9304 667.891 91.8007 667.866 91.6753C667.842 91.55 667.782 91.4344 667.693 91.3427L655.115 78.4716C655.057 78.4117 654.988 78.3641 654.911 78.3316C654.834 78.299 654.751 78.2823 654.668 78.2823C654.585 78.2823 654.502 78.299 654.425 78.3316C654.348 78.3641 654.279 78.4117 654.221 78.4716L651.092 81.6736C650.97 81.7994 650.824 81.8994 650.663 81.9677C650.502 82.036 650.329 82.0712 650.154 82.0712C649.979 82.0712 649.805 82.036 649.644 81.9677C649.483 81.8994 649.337 81.7994 649.216 81.6736L639.419 71.6476C639.361 71.5877 639.291 71.54 639.215 71.5075C639.138 71.475 639.055 71.4583 638.972 71.4583C638.888 71.4583 638.806 71.475 638.729 71.5075C638.652 71.54 638.583 71.5877 638.524 71.6476L619.364 91.2552C619.275 91.3468 619.214 91.4624 619.19 91.5878C619.165 91.7131 619.178 91.8429 619.226 91.9612C619.272 92.0785 619.353 92.1793 619.457 92.2506C619.561 92.3219 619.684 92.3604 619.81 92.3613H647.617L647.593 92.4489Z" fill="white"/>
<path d="M624.217 74.0417C625.608 74.0417 626.736 72.9138 626.736 71.5224C626.736 70.1311 625.608 69.0032 624.217 69.0032C622.825 69.0032 621.697 70.1311 621.697 71.5224C621.697 72.9138 622.825 74.0417 624.217 74.0417Z" fill="white"/>
<path d="M616.866 97.2092C616.583 97.2156 616.314 97.3339 616.118 97.5381C615.922 97.7423 615.815 98.0158 615.821 98.2987V122.989C615.815 123.272 615.922 123.546 616.118 123.75C616.314 123.954 616.583 124.072 616.866 124.079H671.032C671.315 124.072 671.584 123.954 671.78 123.75C671.976 123.546 672.083 123.272 672.078 122.989V98.2987C672.083 98.0158 671.976 97.7423 671.78 97.5381C671.584 97.3339 671.315 97.2156 671.032 97.2092H616.866Z" fill="url(#paint14_linear_3_248)"/>
<path d="M647.593 124.061H667.246C667.372 124.06 667.495 124.021 667.599 123.95C667.703 123.879 667.784 123.778 667.83 123.661C667.878 123.542 667.891 123.413 667.866 123.287C667.842 123.162 667.782 123.046 667.693 122.955L655.115 110.084C655.057 110.024 654.988 109.976 654.911 109.944C654.834 109.912 654.751 109.895 654.668 109.895C654.585 109.895 654.502 109.912 654.425 109.944C654.348 109.976 654.279 110.024 654.221 110.084L651.092 113.285C650.97 113.41 650.824 113.51 650.663 113.579C650.502 113.647 650.329 113.682 650.154 113.682C649.979 113.682 649.805 113.647 649.644 113.579C649.483 113.51 649.337 113.41 649.216 113.285L639.419 103.26C639.361 103.2 639.291 103.152 639.214 103.12C639.138 103.088 639.055 103.071 638.972 103.071C638.888 103.071 638.806 103.088 638.729 103.12C638.652 103.152 638.583 103.2 638.524 103.26L619.364 122.867C619.275 122.959 619.214 123.074 619.19 123.2C619.165 123.325 619.178 123.455 619.226 123.573C619.272 123.691 619.353 123.791 619.457 123.863C619.561 123.934 619.684 123.972 619.81 123.973H647.617L647.593 124.061Z" fill="white"/>
<path d="M624.217 105.698C625.608 105.698 626.736 104.57 626.736 103.179C626.736 101.787 625.608 100.659 624.217 100.659C622.825 100.659 621.697 101.787 621.697 103.179C621.697 104.57 622.825 105.698 624.217 105.698Z" fill="white"/>
<path d="M634.546 59.1587C634.124 59.1584 633.718 59.3257 633.419 59.6238C633.12 59.9219 632.951 60.3266 632.949 60.7492V149.09C632.95 149.513 633.119 149.918 633.419 150.216C633.718 150.514 634.124 150.681 634.546 150.681H700.203C700.626 150.681 701.031 150.514 701.331 150.216C701.63 149.918 701.799 149.513 701.8 149.09V60.7492C701.799 60.3265 701.63 59.9217 701.331 59.6235C701.031 59.3253 700.626 59.1581 700.203 59.1587H634.546Z" fill="#F3EFFF"/>
<path d="M636.564 61.9998C636.143 62.007 635.742 62.1809 635.45 62.4832C635.157 62.7855 634.996 63.1916 635.002 63.6124V146.871C634.996 147.292 635.157 147.698 635.45 148C635.742 148.302 636.143 148.476 636.564 148.483H697.254C697.675 148.476 698.076 148.302 698.368 148C698.661 147.698 698.822 147.292 698.816 146.871V63.6124C698.822 63.1916 698.661 62.7855 698.368 62.4832C698.076 62.1809 697.675 62.007 697.254 61.9998H636.564Z" fill="white"/>
<path d="M645.704 69.0007C645.526 68.9928 645.353 69.0554 645.221 69.1748C645.09 69.2942 645.011 69.4606 645.002 69.638V72.5617C645.011 72.7391 645.09 72.9055 645.221 73.0249C645.353 73.1443 645.526 73.2069 645.704 73.199H687.119C687.296 73.2069 687.469 73.1443 687.601 73.0249C687.732 72.9055 687.811 72.7391 687.82 72.5617V69.638C687.811 69.4606 687.732 69.2942 687.601 69.1748C687.469 69.0554 687.296 68.9928 687.119 69.0007H645.704Z" fill="url(#paint15_linear_3_248)"/>
<path d="M646.018 79.8394C645.994 79.8399 645.971 79.8451 645.95 79.8546C645.928 79.8641 645.909 79.8778 645.893 79.8947C645.877 79.9117 645.864 79.9317 645.856 79.9536C645.847 79.9755 645.843 79.9988 645.844 80.0222V81.3356C645.843 81.359 645.847 81.3824 645.856 81.4042C645.864 81.4261 645.877 81.4461 645.893 81.4631C645.909 81.4801 645.928 81.4937 645.95 81.5032C645.971 81.5127 645.994 81.5179 646.018 81.5185H687.653C687.676 81.5179 687.699 81.5127 687.721 81.5032C687.742 81.4937 687.761 81.4801 687.777 81.4631C687.794 81.4461 687.806 81.4261 687.815 81.4042C687.823 81.3824 687.827 81.359 687.827 81.3356V80.0222C687.827 79.9988 687.823 79.9755 687.815 79.9536C687.806 79.9317 687.794 79.9117 687.777 79.8947C687.761 79.8778 687.742 79.8641 687.721 79.8546C687.699 79.8451 687.676 79.8399 687.653 79.8394H646.018Z" fill="url(#paint16_linear_3_248)"/>
<path d="M646.018 84.0054C645.994 84.0059 645.971 84.0111 645.95 84.0206C645.928 84.0301 645.909 84.0438 645.893 84.0608C645.877 84.0777 645.864 84.0977 645.856 84.1196C645.847 84.1415 645.843 84.1648 645.844 84.1882V85.5016C645.843 85.5251 645.847 85.5484 645.856 85.5703C645.864 85.5921 645.877 85.6121 645.893 85.6291C645.909 85.6461 645.928 85.6597 645.95 85.6692C645.971 85.6787 645.994 85.6839 646.018 85.6845H687.653C687.676 85.6839 687.699 85.6787 687.721 85.6692C687.742 85.6597 687.761 85.6461 687.777 85.6291C687.794 85.6121 687.806 85.5921 687.815 85.5703C687.823 85.5484 687.827 85.5251 687.827 85.5016V84.1882C687.827 84.1648 687.823 84.1415 687.815 84.1196C687.806 84.0977 687.794 84.0777 687.777 84.0608C687.761 84.0438 687.742 84.0301 687.721 84.0206C687.699 84.0111 687.676 84.0059 687.653 84.0054H646.018Z" fill="#F3EFFF"/>
<path d="M646.018 88.1716C645.994 88.1722 645.971 88.1774 645.95 88.1869C645.928 88.1964 645.909 88.21 645.893 88.227C645.877 88.244 645.864 88.264 645.856 88.2859C645.847 88.3077 645.843 88.3311 645.844 88.3545V89.6679C645.843 89.6913 645.847 89.7146 645.856 89.7365C645.864 89.7584 645.877 89.7784 645.893 89.7954C645.909 89.8124 645.928 89.826 645.95 89.8355C645.971 89.845 645.994 89.8502 646.018 89.8508H687.653C687.676 89.8502 687.699 89.845 687.721 89.8355C687.742 89.826 687.761 89.8124 687.777 89.7954C687.794 89.7784 687.806 89.7584 687.815 89.7365C687.823 89.7146 687.827 89.6913 687.827 89.6679V88.3545C687.827 88.3311 687.823 88.3077 687.815 88.2859C687.806 88.264 687.794 88.244 687.777 88.227C687.761 88.21 687.742 88.1964 687.721 88.1869C687.699 88.1774 687.676 88.1722 687.653 88.1716H646.018Z" fill="url(#paint17_linear_3_248)"/>
<path d="M646.018 95.6707C645.994 95.6712 645.971 95.6764 645.95 95.6859C645.928 95.6954 645.909 95.7091 645.893 95.726C645.877 95.743 645.864 95.763 645.856 95.7849C645.847 95.8068 645.843 95.8301 645.844 95.8535V97.1669C645.843 97.1903 645.847 97.2137 645.856 97.2355C645.864 97.2574 645.877 97.2774 645.893 97.2944C645.909 97.3114 645.928 97.325 645.95 97.3345C645.971 97.344 645.994 97.3492 646.018 97.3498H687.653C687.676 97.3492 687.699 97.344 687.721 97.3345C687.742 97.325 687.761 97.3114 687.777 97.2944C687.794 97.2774 687.806 97.2574 687.815 97.2355C687.823 97.2137 687.827 97.1903 687.827 97.1669V95.8535C687.827 95.8301 687.823 95.8068 687.815 95.7849C687.806 95.763 687.794 95.743 687.777 95.726C687.761 95.7091 687.742 95.6954 687.721 95.6859C687.699 95.6764 687.676 95.6712 687.653 95.6707H646.018Z" fill="#F3EFFF"/>
<path d="M646.018 99.8369C645.994 99.8375 645.971 99.8427 645.95 99.8522C645.928 99.8617 645.909 99.8753 645.893 99.8923C645.877 99.9093 645.864 99.9293 645.856 99.9512C645.847 99.973 645.843 99.9964 645.844 100.02V101.333C645.843 101.357 645.847 101.38 645.856 101.402C645.864 101.424 645.877 101.444 645.893 101.461C645.909 101.478 645.928 101.491 645.95 101.501C645.971 101.51 645.994 101.515 646.018 101.516H687.653C687.676 101.515 687.699 101.51 687.721 101.501C687.742 101.491 687.761 101.478 687.777 101.461C687.794 101.444 687.806 101.424 687.815 101.402C687.823 101.38 687.827 101.357 687.827 101.333V100.02C687.827 99.9964 687.823 99.973 687.815 99.9512C687.806 99.9293 687.794 99.9093 687.777 99.8923C687.761 99.8753 687.742 99.8617 687.721 99.8522C687.699 99.8427 687.676 99.8375 687.653 99.8369H646.018Z" fill="url(#paint18_linear_3_248)"/>
<path d="M646.018 104.003C645.994 104.004 645.971 104.009 645.95 104.018C645.928 104.028 645.909 104.042 645.893 104.059C645.877 104.076 645.864 104.096 645.856 104.117C645.847 104.139 645.843 104.163 645.844 104.186V105.499C645.843 105.523 645.847 105.546 645.856 105.568C645.864 105.59 645.877 105.61 645.893 105.627C645.909 105.644 645.928 105.658 645.95 105.667C645.971 105.677 645.994 105.682 646.018 105.682H687.653C687.676 105.682 687.699 105.677 687.721 105.667C687.742 105.658 687.761 105.644 687.777 105.627C687.794 105.61 687.806 105.59 687.815 105.568C687.823 105.546 687.827 105.523 687.827 105.499V104.186C687.827 104.163 687.823 104.139 687.815 104.117C687.806 104.096 687.794 104.076 687.777 104.059C687.761 104.042 687.742 104.028 687.721 104.018C687.699 104.009 687.676 104.004 687.653 104.003H646.018Z" fill="#F3EFFF"/>
<path d="M646.018 108.169C645.994 108.17 645.971 108.175 645.95 108.185C645.928 108.194 645.909 108.208 645.893 108.225C645.877 108.242 645.864 108.262 645.856 108.284C645.847 108.306 645.843 108.329 645.844 108.352V109.666C645.843 109.689 645.847 109.712 645.856 109.734C645.864 109.756 645.877 109.776 645.893 109.793C645.909 109.81 645.928 109.824 645.95 109.833C645.971 109.843 645.994 109.848 646.018 109.849H687.653C687.676 109.848 687.699 109.843 687.721 109.833C687.742 109.824 687.761 109.81 687.777 109.793C687.794 109.776 687.806 109.756 687.815 109.734C687.823 109.712 687.827 109.689 687.827 109.666V108.352C687.827 108.329 687.823 108.306 687.815 108.284C687.806 108.262 687.794 108.242 687.777 108.225C687.761 108.208 687.742 108.194 687.721 108.185C687.699 108.175 687.676 108.17 687.653 108.169H646.018Z" fill="url(#paint19_linear_3_248)"/>
<path d="M646.018 112.336C645.994 112.336 645.971 112.341 645.95 112.351C645.928 112.36 645.909 112.374 645.893 112.391C645.877 112.408 645.864 112.428 645.856 112.45C645.847 112.472 645.843 112.495 645.844 112.519V113.832C645.843 113.855 645.847 113.879 645.856 113.901C645.864 113.922 645.877 113.942 645.893 113.959C645.909 113.976 645.928 113.99 645.95 114C645.971 114.009 645.994 114.014 646.018 114.015H687.653C687.676 114.014 687.699 114.009 687.721 114C687.742 113.99 687.761 113.976 687.777 113.959C687.794 113.942 687.806 113.922 687.815 113.901C687.823 113.879 687.827 113.855 687.827 113.832V112.519C687.827 112.495 687.823 112.472 687.815 112.45C687.806 112.428 687.794 112.408 687.777 112.391C687.761 112.374 687.742 112.36 687.721 112.351C687.699 112.341 687.676 112.336 687.653 112.336H646.018Z" fill="#F3EFFF"/>
<path d="M646.018 116.502C645.994 116.503 645.971 116.508 645.95 116.517C645.928 116.527 645.909 116.54 645.893 116.557C645.877 116.574 645.864 116.594 645.856 116.616C645.847 116.638 645.843 116.661 645.844 116.685V117.998C645.843 118.022 645.847 118.045 645.856 118.067C645.864 118.089 645.877 118.109 645.893 118.126C645.909 118.143 645.928 118.156 645.95 118.166C645.971 118.175 645.994 118.181 646.018 118.181H687.653C687.676 118.181 687.699 118.175 687.721 118.166C687.742 118.156 687.761 118.143 687.777 118.126C687.794 118.109 687.806 118.089 687.815 118.067C687.823 118.045 687.827 118.022 687.827 117.998V116.685C687.827 116.661 687.823 116.638 687.815 116.616C687.806 116.594 687.794 116.574 687.777 116.557C687.761 116.54 687.742 116.527 687.721 116.517C687.699 116.508 687.676 116.503 687.653 116.502H646.018Z" fill="url(#paint20_linear_3_248)"/>
<path d="M657.565 136.997V128.597H660.721C661.401 128.597 661.961 128.713 662.401 128.945C662.849 129.169 663.181 129.481 663.397 129.881C663.621 130.273 663.733 130.717 663.733 131.213C663.733 131.677 663.625 132.105 663.409 132.497C663.201 132.889 662.873 133.209 662.425 133.457C661.985 133.697 661.417 133.817 660.721 133.817H659.185V136.997H657.565ZM659.185 132.509H660.613C661.133 132.509 661.505 132.393 661.729 132.161C661.961 131.921 662.077 131.605 662.077 131.213C662.077 130.805 661.961 130.489 661.729 130.265C661.505 130.033 661.133 129.917 660.613 129.917H659.185V132.509ZM664.804 136.997V128.597H667.66C668.636 128.597 669.44 128.773 670.072 129.125C670.712 129.469 671.184 129.957 671.488 130.589C671.8 131.213 671.956 131.949 671.956 132.797C671.956 133.645 671.8 134.385 671.488 135.017C671.184 135.641 670.712 136.129 670.072 136.481C669.44 136.825 668.636 136.997 667.66 136.997H664.804ZM666.424 135.605H667.576C668.264 135.605 668.804 135.493 669.196 135.269C669.596 135.045 669.88 134.725 670.048 134.309C670.216 133.885 670.3 133.381 670.3 132.797C670.3 132.205 670.216 131.701 670.048 131.285C669.88 130.861 669.596 130.537 669.196 130.313C668.804 130.089 668.264 129.977 667.576 129.977H666.424V135.605ZM673.204 136.997V128.597H678.676V129.905H674.824V132.149H677.92V133.421H674.824V136.997H673.204Z" fill="#6C47FF"/>
</g>
<rect x="568.365" y="7.36533" width="175.269" height="175.269" rx="11.368" stroke="#C6B2FF" stroke-width="0.730651" stroke-dasharray="2.19 1.46"/>
<rect x="561.5" y="0.5" width="189" height="189" rx="15.5" stroke="#F3EFFF" stroke-dasharray="2.24 1.49"/>
<defs>
<linearGradient id="paint0_linear_3_248" x1="377.621" y1="93.8064" x2="276.578" y2="82.7484" gradientUnits="userSpaceOnUse">
<stop stop-color="#F3EFFF"/>
<stop offset="0.8053" stop-color="#6C47FF"/>
</linearGradient>
<linearGradient id="paint1_linear_3_248" x1="100.537" y1="56.243" x2="57.6284" y2="53.3932" gradientUnits="userSpaceOnUse">
<stop stop-color="#F3EFFF"/>
<stop offset="0.8053" stop-color="#6C47FF"/>
</linearGradient>
<linearGradient id="paint2_linear_3_248" x1="100.54" y1="65.7378" x2="59.3758" y2="59.0333" gradientUnits="userSpaceOnUse">
<stop stop-color="#F3EFFF"/>
<stop offset="0.8053" stop-color="#6C47FF"/>
</linearGradient>
<linearGradient id="paint3_linear_3_248" x1="100.54" y1="74.0703" x2="59.3758" y2="67.3658" gradientUnits="userSpaceOnUse">
<stop stop-color="#F3EFFF"/>
<stop offset="0.8053" stop-color="#6C47FF"/>
</linearGradient>
<linearGradient id="paint4_linear_3_248" x1="100.54" y1="81.5693" x2="59.3758" y2="74.8648" gradientUnits="userSpaceOnUse">
<stop stop-color="#F3EFFF"/>
<stop offset="0.8053" stop-color="#6C47FF"/>
</linearGradient>
<linearGradient id="paint5_linear_3_248" x1="80.4765" y1="94.0681" x2="58.513" y2="92.1953" gradientUnits="userSpaceOnUse">
<stop stop-color="#F3EFFF"/>
<stop offset="0.8053" stop-color="#6C47FF"/>
</linearGradient>
<linearGradient id="paint6_linear_3_248" x1="90.5069" y1="102.401" x2="58.8065" y2="98.4677" gradientUnits="userSpaceOnUse">
<stop stop-color="#F3EFFF"/>
<stop offset="0.8053" stop-color="#6C47FF"/>
</linearGradient>
<linearGradient id="paint7_linear_3_248" x1="69.4631" y1="110.586" x2="58.4116" y2="110.114" gradientUnits="userSpaceOnUse">
<stop stop-color="#F3EFFF"/>
<stop offset="0.8053" stop-color="#6C47FF"/>
</linearGradient>
<linearGradient id="paint8_linear_3_248" x1="65.0037" y1="115.067" x2="57.9618" y2="114.906" gradientUnits="userSpaceOnUse">
<stop stop-color="#F3EFFF"/>
<stop offset="0.8053" stop-color="#6C47FF"/>
</linearGradient>
<linearGradient id="paint9_linear_3_248" x1="129.016" y1="96.8665" x2="117.945" y2="96.7944" gradientUnits="userSpaceOnUse">
<stop stop-color="#F3EFFF"/>
<stop offset="0.8053" stop-color="#6C47FF"/>
</linearGradient>
<linearGradient id="paint10_linear_3_248" x1="112.013" y1="96.6664" x2="101.948" y2="96.6336" gradientUnits="userSpaceOnUse">
<stop stop-color="#F3EFFF"/>
<stop offset="0.8053" stop-color="#6C47FF"/>
</linearGradient>
<linearGradient id="paint11_linear_3_248" x1="95.0128" y1="96.8665" x2="84.948" y2="96.8069" gradientUnits="userSpaceOnUse">
<stop stop-color="#F3EFFF"/>
<stop offset="0.8053" stop-color="#6C47FF"/>
</linearGradient>
<linearGradient id="paint12_linear_3_248" x1="672.25" y1="53.7297" x2="615.667" y2="52.1861" gradientUnits="userSpaceOnUse">
<stop stop-color="#F3EFFF"/>
<stop offset="0.8053" stop-color="#6C47FF"/>
</linearGradient>
<linearGradient id="paint13_linear_3_248" x1="672.249" y1="79.9482" x2="615.635" y2="79.1761" gradientUnits="userSpaceOnUse">
<stop stop-color="#F3EFFF"/>
<stop offset="0.8053" stop-color="#6C47FF"/>
</linearGradient>
<linearGradient id="paint14_linear_3_248" x1="672.249" y1="111.539" x2="615.635" y2="110.767" gradientUnits="userSpaceOnUse">
<stop stop-color="#F3EFFF"/>
<stop offset="0.8053" stop-color="#6C47FF"/>
</linearGradient>
<linearGradient id="paint15_linear_3_248" x1="687.951" y1="71.2398" x2="645.042" y2="68.39" gradientUnits="userSpaceOnUse">
<stop stop-color="#F3EFFF"/>
<stop offset="0.8053" stop-color="#6C47FF"/>
</linearGradient>
<linearGradient id="paint16_linear_3_248" x1="687.954" y1="80.7349" x2="646.79" y2="74.0304" gradientUnits="userSpaceOnUse">
<stop stop-color="#F3EFFF"/>
<stop offset="0.8053" stop-color="#6C47FF"/>
</linearGradient>
<linearGradient id="paint17_linear_3_248" x1="687.954" y1="89.0671" x2="646.79" y2="82.3626" gradientUnits="userSpaceOnUse">
<stop stop-color="#F3EFFF"/>
<stop offset="0.8053" stop-color="#6C47FF"/>
</linearGradient>
<linearGradient id="paint18_linear_3_248" x1="687.954" y1="100.732" x2="646.79" y2="94.0279" gradientUnits="userSpaceOnUse">
<stop stop-color="#F3EFFF"/>
<stop offset="0.8053" stop-color="#6C47FF"/>
</linearGradient>
<linearGradient id="paint19_linear_3_248" x1="687.954" y1="109.065" x2="646.79" y2="102.36" gradientUnits="userSpaceOnUse">
<stop stop-color="#F3EFFF"/>
<stop offset="0.8053" stop-color="#6C47FF"/>
</linearGradient>
<linearGradient id="paint20_linear_3_248" x1="687.954" y1="117.397" x2="646.79" y2="110.693" gradientUnits="userSpaceOnUse">
<stop stop-color="#F3EFFF"/>
<stop offset="0.8053" stop-color="#6C47FF"/>
</linearGradient>
<clipPath id="clip0_3_248">
<rect width="92.697" height="110.834" fill="white" transform="translate(49.084 41.8472)"/>
</clipPath>
<clipPath id="clip1_3_248">
<rect width="92.697" height="110.834" fill="white" transform="translate(609.104 39.8472)"/>
</clipPath>
</defs>
</svg>
