<svg width="148" height="123" viewBox="0 0 148 123" fill="none" xmlns="http://www.w3.org/2000/svg">
<path d="M18.5 62.25H130.625M18.5 62.25V38.625M18.5 62.25V84.375M130.625 62.25V38.625M130.625 62.25V84.75" stroke="#9277FF" stroke-width="2" stroke-dasharray="11.49 11.49"/>
<rect x="0.5" width="36" height="36" rx="18" fill="url(#paint0_radial_1_1403)"/>
<g clip-path="url(#clip0_1_1403)">
<path d="M18.5 9.75011C14.9 9.75011 12.6507 11.5494 11.75 15.1495C13.0996 13.35 14.6751 12.6752 16.4746 13.1251C17.5021 13.3812 18.2364 14.1262 19.0495 14.9518C20.3729 16.2949 21.9048 17.8497 25.25 17.8497C28.8499 17.8497 31.0993 16.0502 32 12.4493C30.6502 14.2498 29.075 14.9246 27.2752 14.4747C26.248 14.2184 25.5145 13.4736 24.7003 12.648C23.3778 11.3049 21.8463 9.75011 18.5 9.75011ZM11.75 17.8497C8.15017 17.8497 5.90073 19.6492 5.00003 23.2501C6.34961 21.4495 7.92489 20.7748 9.72461 21.2247C10.7521 21.481 11.4864 22.2258 12.2995 23.0514C13.6229 24.3944 15.1548 25.9493 18.5 25.9493C22.0999 25.9493 24.3493 24.15 25.25 20.5499C23.9002 22.3494 22.325 23.0242 20.5252 22.5743C19.498 22.3182 18.7645 21.5732 17.9503 20.7475C16.6277 19.4045 15.0963 17.8497 11.75 17.8497Z" fill="#38BDF8"/>
</g>
<rect x="0.5" y="86.25" width="36" height="36" rx="18" fill="url(#paint1_radial_1_1403)"/>
<path d="M11.75 108.396L13.0203 99.5531L18.1015 94.5L24.453 100.816L20.6421 104.606L25.7233 109.659L18.1015 114.713L11.75 108.396Z" fill="#00D1B2"/>
<rect x="111.5" y="86.25" width="36" height="36" rx="18" fill="url(#paint2_radial_1_1403)"/>
<path fill-rule="evenodd" clip-rule="evenodd" d="M129.723 99.8448C131.979 99.8448 133.905 100.626 135.283 101.909C135.467 101.853 135.623 101.794 135.751 101.735C136.142 101.552 136.655 101.179 137.291 100.614C137.188 101.598 137.077 102.321 136.958 102.782C136.895 103.029 136.797 103.328 136.664 103.678C137.025 104.336 137.281 105.045 137.423 105.781C137.967 108.507 137.036 109.712 134.875 110.385C134.891 110.466 134.904 110.553 134.913 110.646C134.99 111.443 134.587 112.731 134.103 112.731C133.785 112.731 133.578 112.287 133.356 111.64C133.286 112.39 132.945 113.25 132.549 113.25C132.215 113.25 132.004 112.764 131.77 112.067L131.737 111.968C131.682 111.802 131.625 111.624 131.565 111.44C131.55 111.511 131.534 111.584 131.518 111.658L131.498 111.747C131.331 112.475 131.089 113.25 130.698 113.25C130.244 113.25 130.493 111.821 129.728 111.215C125.847 111.426 122.582 109.992 122.582 105.852C122.582 105.091 122.762 104.347 123.093 103.656C123.035 103.543 122.98 103.429 122.928 103.314C122.67 102.746 122.361 101.885 122 100.733C122.923 101.421 123.631 101.831 124.124 101.963C124.173 101.976 124.224 101.988 124.278 101.998C125.57 100.703 127.503 99.8448 129.723 99.8448ZM128.817 105.429C127.506 105.429 126.443 106.461 126.443 107.735C126.443 109.008 127.506 110.041 128.817 110.041C130.129 110.041 131.192 109.008 131.192 107.735C131.192 106.477 130.154 105.454 128.865 105.429L128.817 105.429ZM132.187 108.309C131.791 108.309 131.581 109.156 131.581 109.536C131.581 109.833 131.681 109.997 131.843 110.027C132.237 110.063 132.117 109.489 132.313 109.489C132.522 109.489 132.767 110.077 132.972 109.997C133.215 109.852 133.122 109.536 133.038 109.287C132.742 108.66 132.584 108.309 132.187 108.309ZM128.872 105.762C130.005 105.762 130.923 106.641 130.923 107.726C130.923 108.81 130.005 109.69 128.872 109.69C128.803 109.69 128.734 109.686 128.666 109.68C129.701 109.581 130.51 108.744 130.51 107.726C130.51 106.708 129.701 105.871 128.666 105.772C128.734 105.765 128.803 105.762 128.872 105.762ZM134.769 105.294C133.865 105.294 133.133 106.2 133.133 107.319C133.133 108.437 133.865 109.344 134.769 109.344C135.672 109.344 136.405 108.437 136.405 107.319C136.405 106.2 135.672 105.294 134.769 105.294ZM134.822 105.628C135.576 105.628 136.188 106.384 136.188 107.316C136.188 108.249 135.576 109.004 134.822 109.004C134.753 109.004 134.684 108.998 134.616 108.986C135.273 108.863 135.777 108.162 135.777 107.316C135.777 106.47 135.273 105.769 134.616 105.647C134.684 105.634 134.753 105.628 134.822 105.628ZM135.136 99.1346C135.188 99.1686 135.203 99.2387 135.169 99.2912L134.9 99.7052C134.886 99.7279 134.863 99.7446 134.837 99.7522C134.811 99.7598 134.783 99.7578 134.759 99.7466L134.744 99.7385C134.731 99.7304 134.721 99.7199 134.712 99.7077C134.704 99.6954 134.698 99.6817 134.695 99.6671C134.692 99.6526 134.692 99.6376 134.694 99.623C134.697 99.6084 134.702 99.5945 134.711 99.582L134.979 99.168C134.987 99.1555 134.998 99.1448 135.01 99.1363C135.022 99.1279 135.036 99.122 135.051 99.1189C135.065 99.1158 135.08 99.1155 135.095 99.1182C135.109 99.1209 135.123 99.1265 135.136 99.1346ZM124.396 99.0254L124.406 99.0384L124.654 99.3924C124.671 99.417 124.677 99.4471 124.672 99.4763C124.666 99.5055 124.65 99.5314 124.625 99.5484C124.601 99.5654 124.571 99.5722 124.542 99.5673C124.512 99.5624 124.486 99.5462 124.469 99.5222L124.221 99.1682C124.204 99.1448 124.197 99.116 124.201 99.0876C124.205 99.0592 124.22 99.0333 124.242 99.0151C124.264 98.997 124.292 98.988 124.321 98.9899C124.349 98.9918 124.376 99.0044 124.396 99.0254ZM130.093 95.25L130.349 97.4214L131.305 96.3473L131.33 99.0212L131.14 98.9792C130.588 98.8565 130.086 98.7954 129.637 98.7954C129.19 98.7954 128.772 98.8557 128.381 98.976L128.17 99.041L128.343 95.6966L129.217 97.3493L130.093 95.25ZM129.925 96.4545L129.25 98.0712L128.593 96.8297L128.501 98.6223L128.52 98.6175C128.865 98.5325 129.228 98.489 129.608 98.487L129.637 98.4869C130.049 98.4869 130.499 98.5352 130.987 98.6316L131.018 98.6377L131.004 97.1498L130.124 98.1393L129.925 96.4545ZM133.421 98.1855C133.45 98.1938 133.475 98.2132 133.489 98.2394C133.504 98.2656 133.507 98.2966 133.499 98.3255L133.465 98.4441C133.458 98.4704 133.441 98.4931 133.418 98.5079C133.395 98.5228 133.367 98.5288 133.34 98.525L133.325 98.5217C133.311 98.5176 133.298 98.5107 133.286 98.5015C133.274 98.4922 133.265 98.4808 133.257 98.4678C133.25 98.4548 133.246 98.4405 133.244 98.4257C133.242 98.411 133.243 98.396 133.248 98.3817L133.282 98.2631C133.29 98.2342 133.309 98.2099 133.335 98.1953C133.362 98.1808 133.393 98.1773 133.421 98.1855ZM126.589 98.058L126.653 98.2539C126.662 98.2812 126.66 98.3108 126.648 98.3367C126.635 98.3627 126.614 98.3831 126.587 98.3938C126.561 98.4045 126.531 98.4047 126.504 98.3943C126.478 98.384 126.456 98.3639 126.443 98.3381L126.438 98.3238L126.374 98.1281C126.365 98.0997 126.368 98.069 126.382 98.0427C126.395 98.0163 126.419 97.9964 126.447 97.9872C126.475 97.978 126.506 97.9803 126.533 97.9936C126.559 98.0069 126.579 98.0301 126.589 98.0582V98.058Z" fill="#011552"/>
<rect x="111.5" width="36" height="36" rx="18" fill="url(#paint3_radial_1_1403)"/>
<g clip-path="url(#clip1_1_1403)">
<g filter="url(#filter0_d_1_1403)">
<path d="M130.18 27.075C134.12 27.075 136.494 25.146 136.494 21.9645C136.494 19.5594 134.8 17.8184 132.285 17.5427V17.4426C134.132 17.1419 135.583 15.4258 135.583 13.5094C135.583 10.7787 133.427 9 130.142 9H122.75V27.075H130.18ZM125.624 11.2922H129.449C131.528 11.2922 132.708 12.2192 132.708 13.8977C132.708 15.6889 131.335 16.6909 128.846 16.6909H125.624V11.2922ZM125.624 24.7828V18.833H129.423C132.143 18.833 133.555 19.835 133.555 21.7891C133.555 23.7431 132.182 24.7828 129.59 24.7828H125.624Z" fill="url(#paint4_linear_1_1403)"/>
<path d="M130.18 27.075C134.12 27.075 136.494 25.146 136.494 21.9645C136.494 19.5594 134.8 17.8184 132.285 17.5427V17.4426C134.132 17.1419 135.583 15.4258 135.583 13.5094C135.583 10.7787 133.427 9 130.142 9H122.75V27.075H130.18ZM125.624 11.2922H129.449C131.528 11.2922 132.708 12.2192 132.708 13.8977C132.708 15.6889 131.335 16.6909 128.846 16.6909H125.624V11.2922ZM125.624 24.7828V18.833H129.423C132.143 18.833 133.555 19.835 133.555 21.7891C133.555 23.7431 132.182 24.7828 129.59 24.7828H125.624Z" fill="url(#paint5_linear_1_1403)"/>
</g>
</g>
<circle opacity="0.3" cx="74" cy="61.5" r="28.5" fill="#6C47FF"/>
<circle cx="74" cy="61.5" r="24.75" fill="#6C47FF"/>
<rect x="54.5" y="42" width="39" height="39" rx="19.5" fill="#F3EFFF"/>
<path d="M80.381 63.6343L74.1628 55.56L73.4492 48V75L74.1628 66.9257L80.381 63.6343Z" fill="#6C47FF"/>
<path d="M82.3686 59.4168L80.9415 63.5311L78.2401 60.1368L82.3686 59.4168ZM84.5093 61.0625L82.6744 59.6225L82.1647 61.3196L84.5093 61.0625ZM80.126 64.2511L80.075 65.0225L74.8252 66.9768L80.126 64.2511ZM71.5632 69.0339H72.8374V67.8511H71.5632V69.0339ZM71.818 64.5082H72.8374V65.4854H71.818V64.5082ZM71.6651 65.8968H72.8374V67.0282H71.6651V65.8968ZM69.4735 71.0911V70.0625H70.5438V71.0911H69.4735ZM68.607 70.8339V70.2682H69.1677V70.8339H68.607ZM69.1167 69.8054V69.0339H69.9322V69.8054H69.1167ZM68.9638 71.5539V71.0911H69.4225V71.5539H68.9638ZM69.9322 67.9539V67.3368H70.5948V67.9539H69.9322ZM70.4929 66.7711V65.9996H71.2574V66.7711H70.4929ZM72.2768 63.6339H72.8374V64.1482H72.2768V63.6339ZM71.4103 61.8339H72.8374V63.1711H71.4103V61.8339ZM71.7671 60.4454H72.8374V61.4739H71.7671V60.4454ZM71.971 59.3139H72.8374V60.1368H71.971V59.3139ZM71.3593 58.5939H71.869V59.1082H71.3593V58.5939ZM71.1045 60.6511H71.5632V61.0625H71.1045V60.6511ZM71.869 57.3082H72.8374V58.2339H71.869V57.3082ZM70.6967 57.2054H71.5122V57.9768H70.6967V57.2054ZM70.187 54.8911H71.2574V55.9196H70.187V54.8911ZM71.4613 56.2282H72.2768V57.0511H71.4613V56.2282ZM72.1748 55.4054H72.8374V56.0225H72.1748V55.4054ZM64.1217 54.0682H64.7843V54.6854H64.1217V54.0682ZM65.1921 53.7082H65.8037V54.3254H65.1921V53.7082ZM66.4663 53.9654H67.6896V55.1482H66.4663V53.9654ZM69.5754 56.9482H70.187V57.5654H69.5754V56.9482ZM70.4929 59.4682H71.0535V59.9825H70.4929V59.4682ZM69.6264 58.1825H70.4929V59.0054H69.6264V58.1825ZM68.3012 56.9482H68.9128V57.5654H68.3012V56.9482ZM65.7018 55.1996H66.1095V55.6111H65.7018V55.1996ZM68.4031 54.4282H69.2186V55.2511H68.4031V54.4282ZM67.1799 56.0225H67.8934V56.6911H67.1799V56.0225ZM63.9688 55.1482H64.3766V55.5596H63.9688V55.1482ZM64.4785 55.8168H65.294V56.6396H64.4785V55.8168ZM65.8547 56.2282H66.5173V56.8454H65.8547V56.2282ZM65.6508 57.2054H66.1095V57.6682H65.6508V57.2054ZM66.4153 57.8739H66.8741V58.2854H66.4153V57.8739ZM67.1289 57.7196H67.9954V58.5939H67.1289V57.7196ZM68.1993 58.6454H68.607V59.1082H68.1993V58.6454ZM68.556 59.3654H69.0148V59.7768H68.556V59.3654ZM69.2186 59.5711H70.238V60.5482H69.2186V59.5711ZM70.4929 61.1654H70.9006V61.6282H70.4929V61.1654ZM70.1361 69.0339V68.5711H70.5948V69.0339H70.1361ZM68.3012 71.7082V71.4511H68.607V71.7082H68.3012ZM63.0004 53.4511H63.4591V53.9139H63.0004V53.4511ZM71.1555 69.8568V69.3939H71.6142V69.8568H71.1555ZM70.9516 68.5711V68.3139H71.2574V68.5711H70.9516ZM68.5051 55.6111H69.3715V56.4854H68.5051V55.6111Z" fill="#6C47FF"/>
<defs>
<filter id="filter0_d_1_1403" x="110.75" y="0" width="37.7436" height="42.075" filterUnits="userSpaceOnUse" color-interpolation-filters="sRGB">
<feFlood flood-opacity="0" result="BackgroundImageFix"/>
<feColorMatrix in="SourceAlpha" type="matrix" values="0 0 0 0 0 0 0 0 0 0 0 0 0 0 0 0 0 0 127 0" result="hardAlpha"/>
<feOffset dy="3"/>
<feGaussianBlur stdDeviation="6"/>
<feColorMatrix type="matrix" values="0 0 0 0 0 0 0 0 0 0 0 0 0 0 0 0 0 0 0.15 0"/>
<feBlend mode="normal" in2="BackgroundImageFix" result="effect1_dropShadow_1_1403"/>
<feBlend mode="normal" in="SourceGraphic" in2="effect1_dropShadow_1_1403" result="shape"/>
</filter>
<radialGradient id="paint0_radial_1_1403" cx="0" cy="0" r="1" gradientUnits="userSpaceOnUse" gradientTransform="translate(18.5 18) rotate(45) scale(25.4558)">
<stop stop-color="white"/>
<stop offset="1" stop-color="#FAFBFD"/>
</radialGradient>
<radialGradient id="paint1_radial_1_1403" cx="0" cy="0" r="1" gradientUnits="userSpaceOnUse" gradientTransform="translate(18.5 104.25) rotate(45) scale(25.4558)">
<stop stop-color="white"/>
<stop offset="1" stop-color="#FAFBFD"/>
</radialGradient>
<radialGradient id="paint2_radial_1_1403" cx="0" cy="0" r="1" gradientUnits="userSpaceOnUse" gradientTransform="translate(129.5 104.25) rotate(45) scale(25.4558)">
<stop stop-color="white"/>
<stop offset="1" stop-color="#FAFBFD"/>
</radialGradient>
<radialGradient id="paint3_radial_1_1403" cx="0" cy="0" r="1" gradientUnits="userSpaceOnUse" gradientTransform="translate(129.5 18) rotate(45) scale(25.4558)">
<stop stop-color="white"/>
<stop offset="1" stop-color="#FAFBFD"/>
</radialGradient>
<linearGradient id="paint4_linear_1_1403" x1="122.75" y1="9" x2="140.167" y2="22.2435" gradientUnits="userSpaceOnUse">
<stop stop-color="#9013FE"/>
<stop offset="1" stop-color="#6B11F4"/>
</linearGradient>
<linearGradient id="paint5_linear_1_1403" x1="122.75" y1="9" x2="140.167" y2="22.2435" gradientUnits="userSpaceOnUse">
<stop stop-color="#9013FE"/>
<stop offset="1" stop-color="#6B11F4"/>
</linearGradient>
<clipPath id="clip0_1_1403">
<rect width="24" height="24" fill="white" transform="translate(6.5 6)"/>
</clipPath>
<clipPath id="clip1_1_1403">
<rect width="24" height="24" fill="white" transform="translate(117.5 6)"/>
</clipPath>
</defs>
</svg>
