<svg width="145" height="190" viewBox="0 0 145 190" fill="none" xmlns="http://www.w3.org/2000/svg">
<g filter="url(#filter0_d_1_1457)">
<path d="M31.4588 42.6961V160.84H113.629V30.3341H49.2312L31.4588 42.6961Z" fill="#9277FF"/>
</g>
<g filter="url(#filter1_d_1_1457)">
<path d="M27.8318 35.4459V153.589H117.252V23.0839H47.1724L27.8318 35.4459Z" fill="#6C47FF"/>
</g>
<g filter="url(#filter2_d_1_1457)">
<path d="M23.2776 28.4718V146.759H122.033V16.0947H44.6372L23.2776 28.4718Z" fill="#011552"/>
</g>
<path d="M49.1444 51.7238L33.495 51.8375V37.1907L49.1444 37.2527V51.7238ZM35.3245 49.8322L46.798 49.7702V39.2166L35.3245 39.1856V49.8322Z" fill="url(#paint0_linear_1_1457)"/>
<path d="M49.1444 90.7111L33.495 90.8248V76.178L49.1444 76.24V90.7111ZM35.3245 88.8195L46.798 88.7575V78.2039L35.3245 78.1729V88.8195Z" fill="url(#paint1_linear_1_1457)"/>
<path d="M55.6919 46.1977H93.1365C93.8676 46.1977 94.4421 45.6232 94.4943 44.8921C94.5465 44.1609 94.0243 43.5865 93.2932 43.5865H55.8486C55.1175 43.5865 54.543 44.1609 54.4908 44.8921C54.4386 45.6232 55.013 46.1977 55.6919 46.1977Z" fill="url(#paint2_linear_1_1457)"/>
<path d="M55.6921 51.8898H82.3785C83.1096 51.8898 83.6841 51.3154 83.7363 50.5842C83.7885 49.8531 83.2663 49.2786 82.5352 49.2786H55.8487C55.1176 49.2786 54.5431 49.8531 54.4909 50.5842C54.4387 51.3154 55.0132 51.8898 55.6921 51.8898Z" fill="#9277FF"/>
<path d="M56.9271 66.1298H110.976C112.457 66.1298 113.621 65.5554 113.726 64.8242C113.832 64.0931 112.775 63.5186 111.294 63.5186H57.2444C55.7636 63.5186 54.6001 64.0931 54.4943 64.8242C54.3885 65.5554 55.552 66.1298 56.9271 66.1298Z" fill="#9277FF"/>
<path d="M55.6967 40.5581H76.9519C77.683 40.5581 78.2575 39.9836 78.3097 39.2525C78.3619 38.5214 77.8397 37.9469 77.1085 37.9469H55.8534C55.1223 37.9469 54.5478 38.5214 54.4956 39.2525C54.4433 39.9836 54.9656 40.5581 55.6967 40.5581Z" fill="#9277FF"/>
<path d="M55.6967 59.2956H76.9519C77.683 59.2956 78.2575 58.7212 78.3097 57.99C78.3619 57.2589 77.8397 56.6844 77.1085 56.6844H55.8534C55.1223 56.6844 54.5478 57.2589 54.4956 57.99C54.4433 58.7212 54.9656 59.2956 55.6967 59.2956Z" fill="url(#paint3_linear_1_1457)"/>
<path d="M53.8291 117.502H68.9741C69.7052 117.502 70.2274 118.076 70.1752 118.807C70.123 119.539 69.4963 120.113 68.8174 120.113H53.6725C52.9413 120.113 52.4191 119.539 52.4713 118.807C52.5235 118.076 53.1502 117.502 53.8291 117.502Z" fill="#9277FF"/>
<path d="M94.3172 117.502H109.462C110.193 117.502 110.716 118.076 110.663 118.807C110.611 119.539 109.984 120.113 109.305 120.113H94.1606C93.4294 120.113 92.9072 119.539 92.9594 118.807C93.0116 118.076 93.6383 117.502 94.3172 117.502Z" fill="url(#paint4_linear_1_1457)"/>
<path d="M33.3578 117.502H48.5027C49.2339 117.502 49.7561 118.076 49.7039 118.807C49.6517 119.539 49.025 120.113 48.3461 120.113H33.2011C32.47 120.113 31.9477 119.539 32 118.807C32 118.076 32.6266 117.502 33.3578 117.502Z" fill="#9277FF"/>
<path d="M42.7019 111.861H69.3883C70.1195 111.861 70.6417 112.436 70.5895 113.167C70.5373 113.898 69.9106 114.473 69.2317 114.473H42.5453C41.8141 114.473 41.2919 113.898 41.3441 113.167C41.3441 112.436 41.9708 111.861 42.7019 111.861Z" fill="url(#paint5_linear_1_1457)"/>
<path d="M83.1903 111.862H109.877C110.608 111.862 111.13 112.436 111.078 113.167C111.026 113.898 110.399 114.473 109.72 114.473H83.0336C82.3025 114.473 81.7802 113.898 81.8325 113.167C81.8325 112.436 82.4591 111.862 83.1903 111.862Z" fill="#9277FF"/>
<path d="M39.1542 106.169H69.7574C70.4885 106.169 71.0108 106.744 70.9585 107.475C70.9063 108.206 70.2796 108.78 69.6007 108.78H38.9975C38.2664 108.78 37.7441 108.206 37.7964 107.475C37.8486 106.744 38.4753 106.169 39.1542 106.169Z" fill="#9277FF"/>
<path d="M79.6424 106.169H110.246C110.977 106.169 111.499 106.744 111.447 107.475C111.395 108.206 110.768 108.78 110.089 108.78H79.4858C78.7546 108.78 78.2324 108.206 78.2846 107.475C78.3368 106.744 78.9635 106.169 79.6424 106.169Z" fill="#9277FF"/>
<path d="M83.738 87.5363H55.8505C55.1193 87.5363 54.5449 88.1107 54.4926 88.8419C54.4404 89.573 54.9627 90.1475 55.6938 90.1475H83.5814C84.3125 90.1475 84.887 89.573 84.9392 88.8419C84.9914 88.1107 84.4692 87.5363 83.738 87.5363Z" fill="#9277FF"/>
<path d="M69.0109 81.8966H55.8505C55.1193 81.8966 54.5449 82.4711 54.4926 83.2022C54.4404 83.9333 54.9626 84.5078 55.6938 84.5078H68.8542C69.5854 84.5078 70.1598 83.9333 70.212 83.2022C70.2643 82.4711 69.742 81.8966 69.0109 81.8966Z" fill="#9277FF"/>
<path d="M76.3222 76.2042H55.8505C55.1193 76.2042 54.5449 76.7787 54.4926 77.5098C54.4404 78.241 54.9627 78.8154 55.6938 78.8154H76.1656C76.8967 78.8154 77.4712 78.241 77.5234 77.5098C77.5756 76.7787 77.0534 76.2042 76.3222 76.2042Z" fill="#9277FF"/>
<path d="M96.4941 81.8966H75.1601C74.3258 81.8966 73.6703 82.471 73.6107 83.2022C73.5511 83.9333 74.147 84.5078 74.9813 84.5078H96.3153C97.1496 84.5078 97.8051 83.9333 97.8647 83.2022C97.9243 82.471 97.3284 81.8966 96.4941 81.8966Z" fill="url(#paint6_linear_1_1457)"/>
<path d="M23 28.1524L43.0551 30.8888L44.7616 15.5995L23 28.1524Z" fill="#9277FF"/>
<defs>
<filter id="filter0_d_1_1457" x="9.01338" y="14.3017" width="127.061" height="175.396" filterUnits="userSpaceOnUse" color-interpolation-filters="sRGB">
<feFlood flood-opacity="0" result="BackgroundImageFix"/>
<feColorMatrix in="SourceAlpha" type="matrix" values="0 0 0 0 0 0 0 0 0 0 0 0 0 0 0 0 0 0 127 0" result="hardAlpha"/>
<feMorphology radius="3.20648" operator="dilate" in="SourceAlpha" result="effect1_dropShadow_1_1457"/>
<feOffset dy="6.41297"/>
<feGaussianBlur stdDeviation="9.61945"/>
<feComposite in2="hardAlpha" operator="out"/>
<feColorMatrix type="matrix" values="0 0 0 0 0.423529 0 0 0 0 0.278431 0 0 0 0 1 0 0 0 0.1 0"/>
<feBlend mode="normal" in2="BackgroundImageFix" result="effect1_dropShadow_1_1457"/>
<feBlend mode="normal" in="SourceGraphic" in2="effect1_dropShadow_1_1457" result="shape"/>
</filter>
<filter id="filter1_d_1_1457" x="5.38643" y="7.05144" width="134.311" height="175.396" filterUnits="userSpaceOnUse" color-interpolation-filters="sRGB">
<feFlood flood-opacity="0" result="BackgroundImageFix"/>
<feColorMatrix in="SourceAlpha" type="matrix" values="0 0 0 0 0 0 0 0 0 0 0 0 0 0 0 0 0 0 127 0" result="hardAlpha"/>
<feMorphology radius="3.20648" operator="dilate" in="SourceAlpha" result="effect1_dropShadow_1_1457"/>
<feOffset dy="6.41297"/>
<feGaussianBlur stdDeviation="9.61945"/>
<feComposite in2="hardAlpha" operator="out"/>
<feColorMatrix type="matrix" values="0 0 0 0 0.423529 0 0 0 0 0.278431 0 0 0 0 1 0 0 0 0.1 0"/>
<feBlend mode="normal" in2="BackgroundImageFix" result="effect1_dropShadow_1_1457"/>
<feBlend mode="normal" in="SourceGraphic" in2="effect1_dropShadow_1_1457" result="shape"/>
</filter>
<filter id="filter2_d_1_1457" x="0.832227" y="0.0623045" width="143.646" height="175.555" filterUnits="userSpaceOnUse" color-interpolation-filters="sRGB">
<feFlood flood-opacity="0" result="BackgroundImageFix"/>
<feColorMatrix in="SourceAlpha" type="matrix" values="0 0 0 0 0 0 0 0 0 0 0 0 0 0 0 0 0 0 127 0" result="hardAlpha"/>
<feMorphology radius="3.20648" operator="dilate" in="SourceAlpha" result="effect1_dropShadow_1_1457"/>
<feOffset dy="6.41297"/>
<feGaussianBlur stdDeviation="9.61945"/>
<feComposite in2="hardAlpha" operator="out"/>
<feColorMatrix type="matrix" values="0 0 0 0 0.423529 0 0 0 0 0.278431 0 0 0 0 1 0 0 0 0.1 0"/>
<feBlend mode="normal" in2="BackgroundImageFix" result="effect1_dropShadow_1_1457"/>
<feBlend mode="normal" in="SourceGraphic" in2="effect1_dropShadow_1_1457" result="shape"/>
</filter>
<linearGradient id="paint0_linear_1_1457" x1="49.192" y1="45.0021" x2="33.4414" y2="44.8925" gradientUnits="userSpaceOnUse">
<stop stop-color="#F3EFFF"/>
<stop offset="0.8053" stop-color="#6C47FF"/>
</linearGradient>
<linearGradient id="paint1_linear_1_1457" x1="49.192" y1="83.9894" x2="33.4414" y2="83.8798" gradientUnits="userSpaceOnUse">
<stop stop-color="#F3EFFF"/>
<stop offset="0.8053" stop-color="#6C47FF"/>
</linearGradient>
<linearGradient id="paint2_linear_1_1457" x1="94.6195" y1="44.9791" x2="54.7457" y2="40.9991" gradientUnits="userSpaceOnUse">
<stop stop-color="#F3EFFF"/>
<stop offset="0.8053" stop-color="#6C47FF"/>
</linearGradient>
<linearGradient id="paint3_linear_1_1457" x1="78.3857" y1="58.0771" x2="54.4936" y2="56.6572" gradientUnits="userSpaceOnUse">
<stop stop-color="#F3EFFF"/>
<stop offset="0.8053" stop-color="#6C47FF"/>
</linearGradient>
<linearGradient id="paint4_linear_1_1457" x1="110.721" y1="118.894" x2="92.929" y2="118.108" gradientUnits="userSpaceOnUse">
<stop stop-color="#F3EFFF"/>
<stop offset="0.8053" stop-color="#6C47FF"/>
</linearGradient>
<linearGradient id="paint5_linear_1_1457" x1="70.682" y1="113.254" x2="41.3949" y2="111.117" gradientUnits="userSpaceOnUse">
<stop stop-color="#F3EFFF"/>
<stop offset="0.8053" stop-color="#6C47FF"/>
</linearGradient>
<linearGradient id="paint6_linear_1_1457" x1="97.9426" y1="83.2892" x2="73.6114" y2="81.8165" gradientUnits="userSpaceOnUse">
<stop stop-color="#F3EFFF"/>
<stop offset="0.8053" stop-color="#6C47FF"/>
</linearGradient>
</defs>
</svg>
