<svg width="818" height="193" viewBox="0 0 818 193" fill="none" xmlns="http://www.w3.org/2000/svg">
<rect x="14.5" y="13.5" width="161.66" height="163.155" rx="8.5" fill="#F3EFFF"/>
<rect x="14.5" y="13.5" width="161.66" height="163.155" rx="8.5" stroke="#9277FF"/>
<g clip-path="url(#clip0_3_249)">
<path d="M115.695 39.8472H51.3634C50.7639 39.848 50.1893 40.0867 49.7656 40.5108C49.3419 40.9349 49.1038 41.5098 49.1035 42.1093V129.107C49.1038 129.707 49.3419 130.282 49.7656 130.706C50.1893 131.13 50.7639 131.368 51.3634 131.369H115.695C116.294 131.368 116.869 131.13 117.293 130.706C117.716 130.282 117.954 129.707 117.955 129.107V42.1093C117.954 41.5098 117.716 40.9349 117.293 40.5108C116.869 40.0867 116.294 39.848 115.695 39.8472Z" fill="#F3EFFF"/>
<path d="M53.1848 42.3665C52.7661 42.3717 52.3665 42.5428 52.0738 42.8422C51.7811 43.1416 51.619 43.5449 51.6231 43.9636V126.414C51.619 126.833 51.7811 127.236 52.0738 127.535C52.3665 127.835 52.7661 128.006 53.1848 128.011H113.875C114.294 128.006 114.693 127.835 114.986 127.535C115.279 127.236 115.441 126.833 115.437 126.414V43.9636C115.441 43.5449 115.279 43.1416 114.986 42.8422C114.693 42.5428 114.294 42.3717 113.875 42.3665H53.1848Z" fill="white"/>
<path d="M58.309 52.0038C58.1316 51.996 57.9583 52.0586 57.8269 52.178C57.6955 52.2973 57.6166 52.4638 57.6074 52.6411V55.5649C57.6166 55.7422 57.6955 55.9087 57.8269 56.0281C57.9583 56.1475 58.1316 56.2101 58.309 56.2022H99.7243C99.9017 56.2101 100.075 56.1475 100.206 56.0281C100.338 55.9087 100.417 55.7422 100.426 55.5649V52.6411C100.417 52.4638 100.338 52.2973 100.206 52.178C100.075 52.0586 99.9017 51.996 99.7243 52.0038H58.309Z" fill="url(#paint0_linear_3_249)"/>
<path d="M58.6233 62.8423C58.5998 62.8429 58.5768 62.848 58.5553 62.8576C58.5339 62.8671 58.5145 62.8807 58.4984 62.8977C58.4822 62.9147 58.4696 62.9347 58.4611 62.9565C58.4527 62.9784 58.4487 63.0017 58.4493 63.0252V64.3385C58.4487 64.362 58.4527 64.3853 58.4611 64.4072C58.4696 64.4291 58.4822 64.4491 58.4984 64.466C58.5145 64.483 58.5339 64.4966 58.5553 64.5062C58.5768 64.5157 58.5998 64.5208 58.6233 64.5214H100.258C100.281 64.5208 100.305 64.5157 100.326 64.5062C100.347 64.4966 100.367 64.483 100.383 64.466C100.399 64.4491 100.412 64.4291 100.42 64.4072C100.429 64.3853 100.433 64.362 100.432 64.3385V63.0252C100.433 63.0017 100.429 62.9784 100.42 62.9565C100.412 62.9347 100.399 62.9147 100.383 62.8977C100.367 62.8807 100.347 62.8671 100.326 62.8576C100.305 62.848 100.281 62.8429 100.258 62.8423H58.6233Z" fill="url(#paint1_linear_3_249)"/>
<path d="M58.5404 67.0085C58.5281 67.0091 58.516 67.0143 58.5048 67.0238C58.4936 67.0333 58.4834 67.0469 58.475 67.0639C58.4665 67.0809 58.4599 67.1009 58.4555 67.1228C58.4511 67.1447 58.4489 67.168 58.4492 67.1914V68.5048C58.4489 68.5282 58.4511 68.5516 58.4555 68.5734C58.4599 68.5953 58.4665 68.6153 58.475 68.6323C58.4834 68.6493 58.4936 68.6629 58.5048 68.6724C58.516 68.6819 58.5281 68.6871 58.5404 68.6877H80.3381C80.3504 68.6871 80.3624 68.6819 80.3737 68.6724C80.3849 68.6629 80.395 68.6493 80.4035 68.6323C80.4119 68.6153 80.4186 68.5953 80.423 68.5734C80.4274 68.5516 80.4295 68.5282 80.4292 68.5048V67.1914C80.4295 67.168 80.4274 67.1447 80.423 67.1228C80.4186 67.1009 80.4119 67.0809 80.4035 67.0639C80.395 67.0469 80.3849 67.0333 80.3737 67.0238C80.3624 67.0143 80.3504 67.0091 80.3381 67.0085H58.5404Z" fill="url(#paint2_linear_3_249)"/>
<path d="M58.6233 71.1748C58.5998 71.1754 58.5768 71.1806 58.5553 71.1901C58.5339 71.1996 58.5145 71.2132 58.4984 71.2302C58.4822 71.2472 58.4696 71.2672 58.4611 71.289C58.4527 71.3109 58.4487 71.3342 58.4493 71.3577V72.6711C58.4487 72.6945 58.4527 72.7178 58.4611 72.7397C58.4696 72.7616 58.4822 72.7816 58.4984 72.7986C58.5145 72.8155 58.5339 72.8292 58.5553 72.8387C58.5768 72.8482 58.5998 72.8534 58.6233 72.8539H100.258C100.281 72.8534 100.305 72.8482 100.326 72.8387C100.347 72.8292 100.367 72.8155 100.383 72.7986C100.399 72.7816 100.412 72.7616 100.42 72.7397C100.429 72.7178 100.433 72.6945 100.432 72.6711V71.3577C100.433 71.3342 100.429 71.3109 100.42 71.289C100.412 71.2672 100.399 71.2472 100.383 71.2302C100.367 71.2132 100.347 71.1996 100.326 71.1901C100.305 71.1806 100.281 71.1754 100.258 71.1748H58.6233Z" fill="#F3EFFF"/>
<path d="M58.6233 78.6738C58.5998 78.6744 58.5768 78.6796 58.5553 78.6891C58.5339 78.6986 58.5145 78.7122 58.4984 78.7292C58.4822 78.7462 58.4696 78.7662 58.4611 78.7881C58.4527 78.8099 58.4487 78.8333 58.4493 78.8567V80.1701C58.4487 80.1935 58.4527 80.2168 58.4611 80.2387C58.4696 80.2606 58.4822 80.2806 58.4984 80.2976C58.5145 80.3146 58.5339 80.3282 58.5553 80.3377C58.5768 80.3472 58.5998 80.3524 58.6233 80.353H100.258C100.281 80.3524 100.305 80.3472 100.326 80.3377C100.347 80.3282 100.367 80.3146 100.383 80.2976C100.399 80.2806 100.412 80.2606 100.42 80.2387C100.429 80.2168 100.433 80.1935 100.432 80.1701V78.8567C100.433 78.8333 100.429 78.8099 100.42 78.7881C100.412 78.7662 100.399 78.7462 100.383 78.7292C100.367 78.7122 100.347 78.6986 100.326 78.6891C100.305 78.6796 100.281 78.6744 100.258 78.6738H58.6233Z" fill="url(#paint3_linear_3_249)"/>
<path d="M58.5818 82.8401C58.564 82.8407 58.5464 82.8459 58.53 82.8554C58.5137 82.8649 58.499 82.8785 58.4867 82.8955C58.4744 82.9125 58.4647 82.9325 58.4583 82.9543C58.4519 82.9762 58.4488 82.9995 58.4493 83.023V84.3363C58.4488 84.3598 58.4519 84.3831 58.4583 84.405C58.4647 84.4269 58.4744 84.4469 58.4867 84.4638C58.499 84.4808 58.5137 84.4945 58.53 84.504C58.5464 84.5135 58.564 84.5186 58.5818 84.5192H90.2966C90.3145 84.5186 90.3321 84.5135 90.3484 84.504C90.3647 84.4945 90.3794 84.4808 90.3918 84.4638C90.4041 84.4469 90.4137 84.4269 90.4201 84.405C90.4265 84.3831 90.4296 84.3598 90.4292 84.3363V83.023C90.4296 82.9995 90.4265 82.9762 90.4201 82.9543C90.4137 82.9325 90.4041 82.9125 90.3918 82.8955C90.3794 82.8785 90.3647 82.8649 90.3484 82.8554C90.3321 82.8459 90.3145 82.8407 90.2966 82.8401H58.5818Z" fill="#F3EFFF"/>
<path d="M58.6233 87.0063C58.5998 87.0069 58.5768 87.0121 58.5553 87.0216C58.5339 87.0311 58.5145 87.0447 58.4984 87.0617C58.4822 87.0787 58.4696 87.0987 58.4611 87.1206C58.4527 87.1425 58.4487 87.1658 58.4493 87.1892V88.5026C58.4487 88.526 58.4527 88.5494 58.4611 88.5712C58.4696 88.5931 58.4822 88.6131 58.4984 88.6301C58.5145 88.6471 58.5339 88.6607 58.5553 88.6702C58.5768 88.6797 58.5998 88.6849 58.6233 88.6855H100.258C100.281 88.6849 100.305 88.6797 100.326 88.6702C100.347 88.6607 100.367 88.6471 100.383 88.6301C100.399 88.6131 100.412 88.5931 100.42 88.5712C100.429 88.5494 100.433 88.526 100.432 88.5026V87.1892C100.433 87.1658 100.429 87.1425 100.42 87.1206C100.412 87.0987 100.399 87.0787 100.383 87.0617C100.367 87.0447 100.347 87.0311 100.326 87.0216C100.305 87.0121 100.281 87.0069 100.258 87.0063H58.6233Z" fill="url(#paint4_linear_3_249)"/>
<path d="M58.5404 91.1726C58.5281 91.1732 58.516 91.1784 58.5048 91.1879C58.4936 91.1974 58.4834 91.211 58.475 91.228C58.4665 91.245 58.4599 91.265 58.4555 91.2869C58.4511 91.3087 58.4489 91.332 58.4492 91.3555V92.6689C58.4489 92.6923 58.4511 92.7156 58.4555 92.7375C58.4599 92.7594 58.4665 92.7794 58.475 92.7964C58.4834 92.8133 58.4936 92.827 58.5048 92.8365C58.516 92.846 58.5281 92.8512 58.5404 92.8517H80.3381C80.3504 92.8512 80.3624 92.846 80.3737 92.8365C80.3849 92.827 80.395 92.8133 80.4035 92.7964C80.4119 92.7794 80.4186 92.7594 80.423 92.7375C80.4274 92.7156 80.4295 92.6923 80.4292 92.6689V91.3555C80.4295 91.332 80.4274 91.3087 80.423 91.2869C80.4186 91.265 80.4119 91.245 80.4035 91.228C80.395 91.211 80.3849 91.1974 80.3737 91.1879C80.3624 91.1784 80.3504 91.1732 80.3381 91.1726H58.5404Z" fill="#F3EFFF"/>
<path d="M58.6233 95.3389C58.5998 95.3394 58.5768 95.3446 58.5553 95.3541C58.5339 95.3636 58.5145 95.3773 58.4984 95.3943C58.4822 95.4112 58.4696 95.4312 58.4611 95.4531C58.4527 95.475 58.4487 95.4983 58.4493 95.5217V96.8351C58.4487 96.8586 58.4527 96.8819 58.4611 96.9038C58.4696 96.9256 58.4822 96.9456 58.4984 96.9626C58.5145 96.9796 58.5339 96.9932 58.5553 97.0027C58.5768 97.0122 58.5998 97.0174 58.6233 97.018H100.258C100.281 97.0174 100.305 97.0122 100.326 97.0027C100.347 96.9932 100.367 96.9796 100.383 96.9626C100.399 96.9456 100.412 96.9256 100.42 96.9038C100.429 96.8819 100.433 96.8586 100.432 96.8351V95.5217C100.433 95.4983 100.429 95.475 100.42 95.4531C100.412 95.4312 100.399 95.4112 100.383 95.3943C100.367 95.3773 100.347 95.3636 100.326 95.3541C100.305 95.3446 100.281 95.3394 100.258 95.3389H58.6233Z" fill="url(#paint5_linear_3_249)"/>
<path d="M58.5818 99.5051C58.564 99.5057 58.5464 99.5109 58.53 99.5204C58.5137 99.5299 58.499 99.5435 58.4867 99.5605C58.4744 99.5775 58.4647 99.5975 58.4583 99.6194C58.4519 99.6412 58.4488 99.6646 58.4493 99.688V101.001C58.4488 101.025 58.4519 101.048 58.4583 101.07C58.4647 101.092 58.4744 101.112 58.4867 101.129C58.499 101.146 58.5137 101.159 58.53 101.169C58.5464 101.178 58.564 101.184 58.5818 101.184H90.2966C90.3145 101.184 90.3321 101.178 90.3484 101.169C90.3647 101.159 90.3794 101.146 90.3918 101.129C90.4041 101.112 90.4137 101.092 90.4201 101.07C90.4265 101.048 90.4296 101.025 90.4292 101.001V99.688C90.4296 99.6646 90.4265 99.6412 90.4201 99.6194C90.4137 99.5975 90.4041 99.5775 90.3918 99.5605C90.3794 99.5435 90.3647 99.5299 90.3484 99.5204C90.3321 99.5109 90.3145 99.5057 90.2966 99.5051H58.5818Z" fill="#F3EFFF"/>
<path d="M58.6233 103.671C58.5998 103.672 58.5768 103.677 58.5553 103.687C58.5339 103.696 58.5145 103.71 58.4984 103.727C58.4822 103.744 58.4696 103.764 58.4611 103.786C58.4527 103.808 58.4487 103.831 58.4493 103.854V105.168C58.4487 105.191 58.4527 105.214 58.4611 105.236C58.4696 105.258 58.4822 105.278 58.4984 105.295C58.5145 105.312 58.5339 105.326 58.5553 105.335C58.5768 105.345 58.5998 105.35 58.6233 105.351H100.258C100.281 105.35 100.305 105.345 100.326 105.335C100.347 105.326 100.367 105.312 100.383 105.295C100.399 105.278 100.412 105.258 100.42 105.236C100.429 105.214 100.433 105.191 100.432 105.168V103.854C100.433 103.831 100.429 103.808 100.42 103.786C100.412 103.764 100.399 103.744 100.383 103.727C100.367 103.71 100.347 103.696 100.326 103.687C100.305 103.677 100.281 103.672 100.258 103.671H58.6233Z" fill="url(#paint6_linear_3_249)"/>
<path d="M58.4948 107.69C58.4887 107.691 58.4826 107.696 58.477 107.705C58.4714 107.715 58.4663 107.729 58.4621 107.746C58.4579 107.763 58.4546 107.783 58.4523 107.804C58.4501 107.826 58.4491 107.85 58.4492 107.873V109.186C58.4491 109.21 58.4501 109.233 58.4523 109.255C58.4546 109.277 58.4579 109.297 58.4621 109.314C58.4663 109.331 58.4714 109.345 58.477 109.354C58.4826 109.364 58.4887 109.369 58.4948 109.369H69.4036C69.4098 109.369 69.4158 109.364 69.4214 109.354C69.427 109.345 69.4321 109.331 69.4363 109.314C69.4406 109.297 69.4439 109.277 69.4461 109.255C69.4483 109.233 69.4494 109.21 69.4492 109.186V107.873C69.4494 107.85 69.4483 107.826 69.4461 107.804C69.4439 107.783 69.4406 107.763 69.4363 107.746C69.4321 107.729 69.427 107.715 69.4214 107.705C69.4158 107.696 69.4098 107.691 69.4036 107.69H58.4948Z" fill="#F3EFFF"/>
<path d="M58.031 112C58.0271 112.001 58.0232 112.007 58.0196 112.018C58.0161 112.03 58.0128 112.046 58.0102 112.066C58.0075 112.086 58.0053 112.11 58.0039 112.136C58.0025 112.162 58.0019 112.19 58.002 112.218V113.782C58.0019 113.81 58.0025 113.838 58.0039 113.864C58.0053 113.89 58.0075 113.914 58.0102 113.934C58.0128 113.954 58.0161 113.97 58.0196 113.982C58.0232 113.993 58.0271 113.999 58.031 114H64.9729C64.9768 113.999 64.9807 113.993 64.9843 113.982C64.9878 113.97 64.9911 113.954 64.9938 113.934C64.9964 113.914 64.9986 113.89 65 113.864C65.0014 113.838 65.002 113.81 65.0019 113.782V112.218C65.002 112.19 65.0014 112.162 65 112.136C64.9986 112.11 64.9964 112.086 64.9938 112.066C64.9911 112.046 64.9878 112.03 64.9843 112.018C64.9807 112.007 64.9768 112.001 64.9729 112H58.031Z" fill="url(#paint7_linear_3_249)"/>
<path d="M87.5929 124.061H107.246C107.372 124.06 107.495 124.021 107.599 123.95C107.703 123.879 107.784 123.778 107.83 123.661C107.878 123.542 107.891 123.413 107.866 123.287C107.842 123.162 107.782 123.046 107.693 122.955L95.1152 110.084C95.057 110.024 94.9875 109.976 94.9107 109.944C94.8339 109.912 94.7514 109.895 94.668 109.895C94.5846 109.895 94.5021 109.912 94.4253 109.944C94.3484 109.976 94.2789 110.024 94.2208 110.084L91.0919 113.285C90.9702 113.41 90.8244 113.51 90.6632 113.579C90.502 113.647 90.3288 113.682 90.1537 113.682C89.9787 113.682 89.8054 113.647 89.6442 113.579C89.483 113.51 89.3372 113.41 89.2155 113.285L79.4189 103.26C79.3608 103.2 79.2912 103.152 79.2144 103.12C79.1376 103.088 79.0551 103.071 78.9717 103.071C78.8883 103.071 78.8058 103.088 78.729 103.12C78.6522 103.152 78.5826 103.2 78.5245 103.26L59.3635 122.867C59.2746 122.959 59.2143 123.074 59.1899 123.2C59.1655 123.325 59.178 123.455 59.2261 123.573C59.2725 123.691 59.3529 123.791 59.4569 123.863C59.561 123.934 59.684 123.972 59.8102 123.973H87.6173L87.5929 124.061Z" fill="white"/>
<path d="M74.5463 59.1587C74.1238 59.1584 73.7184 59.3257 73.419 59.6238C73.1196 59.9219 72.9507 60.3266 72.9492 60.7492V149.09C72.9504 149.513 73.1192 149.918 73.4187 150.216C73.7182 150.514 74.1237 150.681 74.5463 150.681H140.203C140.626 150.681 141.031 150.514 141.331 150.216C141.63 149.918 141.799 149.513 141.8 149.09V60.7492C141.799 60.3265 141.63 59.9217 141.331 59.6235C141.031 59.3253 140.626 59.1581 140.203 59.1587H74.5463Z" fill="#F3EFFF"/>
<path d="M76.5638 61.9998C76.143 62.007 75.7423 62.1809 75.4495 62.4832C75.1568 62.7855 74.9959 63.1916 75.0021 63.6124V146.871C74.9959 147.292 75.1568 147.698 75.4495 148C75.7423 148.302 76.143 148.476 76.5638 148.483H137.254C137.675 148.476 138.076 148.302 138.368 148C138.661 147.698 138.822 147.292 138.816 146.871V63.6124C138.822 63.1916 138.661 62.7855 138.368 62.4832C138.076 62.1809 137.675 62.007 137.254 61.9998H76.5638Z" fill="white"/>
<path d="M79.0504 67.5C79.0465 67.5006 79.0427 67.5058 79.0391 67.5153C79.0356 67.5248 79.0323 67.5384 79.0297 67.5554C79.027 67.5724 79.0249 67.5924 79.0235 67.6142C79.0221 67.6361 79.0214 67.6594 79.0215 67.6829V68.9963C79.0214 69.0197 79.0221 69.043 79.0235 69.0649C79.0249 69.0868 79.027 69.1068 79.0297 69.1237C79.0323 69.1407 79.0356 69.1544 79.0391 69.1639C79.0427 69.1734 79.0465 69.1786 79.0504 69.1791H85.9725C85.9764 69.1786 85.9803 69.1734 85.9838 69.1639C85.9874 69.1544 85.9906 69.1407 85.9933 69.1237C85.996 69.1068 85.9981 69.0868 85.9995 69.0649C86.0009 69.043 86.0016 69.0197 86.0015 68.9963V67.6829C86.0016 67.6594 86.0009 67.6361 85.9995 67.6142C85.9981 67.5924 85.996 67.5724 85.9933 67.5554C85.9906 67.5384 85.9874 67.5248 85.9838 67.5153C85.9803 67.5058 85.9764 67.5006 85.9725 67.5H79.0504Z" fill="url(#paint8_linear_3_249)"/>
<path d="M85.1998 79.5C85.1758 79.5007 85.1521 79.5069 85.1302 79.5182C85.1082 79.5295 85.0884 79.5457 85.0718 79.566C85.0553 79.5862 85.0423 79.61 85.0337 79.6361C85.0251 79.6621 85.0209 79.6899 85.0215 79.7178V81.2822C85.0209 81.3101 85.0251 81.3379 85.0337 81.3639C85.0423 81.39 85.0553 81.4138 85.0718 81.434C85.0884 81.4543 85.1082 81.4705 85.1302 81.4818C85.1521 81.4931 85.1758 81.4993 85.1998 81.5H127.843C127.867 81.4993 127.891 81.4931 127.913 81.4818C127.935 81.4705 127.955 81.4543 127.971 81.434C127.988 81.4138 128.001 81.39 128.009 81.3639C128.018 81.3379 128.022 81.3101 128.021 81.2822V79.7178C128.022 79.6899 128.018 79.6621 128.009 79.6361C128.001 79.61 127.988 79.5862 127.971 79.566C127.955 79.5457 127.935 79.5295 127.913 79.5182C127.891 79.5069 127.867 79.5007 127.843 79.5H85.1998Z" fill="url(#paint9_linear_3_249)"/>
<path d="M91.15 85.5C91.1327 85.5007 91.1157 85.5069 91.0998 85.5182C91.084 85.5295 91.0697 85.5457 91.0578 85.566C91.0459 85.5862 91.0365 85.61 91.0303 85.6361C91.0241 85.6621 91.0211 85.6899 91.0215 85.7178V87.2822C91.0211 87.3101 91.0241 87.3379 91.0303 87.3639C91.0365 87.39 91.0459 87.4138 91.0578 87.434C91.0697 87.4543 91.084 87.4705 91.0998 87.4818C91.1157 87.4931 91.1327 87.4993 91.15 87.5H121.893C121.91 87.4993 121.927 87.4931 121.943 87.4818C121.959 87.4705 121.973 87.4543 121.985 87.434C121.997 87.4138 122.006 87.39 122.013 87.3639C122.019 87.3379 122.022 87.3101 122.021 87.2822V85.7178C122.022 85.6899 122.019 85.6621 122.013 85.6361C122.006 85.61 121.997 85.5862 121.985 85.566C121.973 85.5457 121.959 85.5295 121.943 85.5182C121.927 85.5069 121.91 85.5007 121.893 85.5H91.15Z" fill="#F3EFFF"/>
<path d="M108.046 67.5C108.043 67.5006 108.04 67.5058 108.037 67.5153C108.034 67.5248 108.031 67.5384 108.028 67.5554C108.026 67.5724 108.024 67.5924 108.023 67.6142C108.022 67.6361 108.021 67.6594 108.021 67.6829V68.9963C108.021 69.0197 108.022 69.043 108.023 69.0649C108.024 69.0868 108.026 69.1068 108.028 69.1237C108.031 69.1407 108.034 69.1544 108.037 69.1639C108.04 69.1734 108.043 69.1786 108.046 69.1791H113.977C113.98 69.1786 113.983 69.1734 113.986 69.1639C113.989 69.1544 113.992 69.1407 113.994 69.1237C113.997 69.1068 113.999 69.0868 114 69.0649C114.001 69.043 114.002 69.0197 114.001 68.9963V67.6829C114.002 67.6594 114.001 67.6361 114 67.6142C113.999 67.5924 113.997 67.5724 113.994 67.5554C113.992 67.5384 113.989 67.5248 113.986 67.5153C113.983 67.5058 113.98 67.5006 113.977 67.5H108.046Z" fill="#F3EFFF"/>
<path d="M118.046 67.5C118.043 67.5006 118.04 67.5058 118.037 67.5153C118.034 67.5248 118.031 67.5384 118.028 67.5554C118.026 67.5724 118.024 67.5924 118.023 67.6142C118.022 67.6361 118.021 67.6594 118.021 67.6829V68.9963C118.021 69.0197 118.022 69.043 118.023 69.0649C118.024 69.0868 118.026 69.1068 118.028 69.1237C118.031 69.1407 118.034 69.1544 118.037 69.1639C118.04 69.1734 118.043 69.1786 118.046 69.1791H123.977C123.98 69.1786 123.983 69.1734 123.986 69.1639C123.989 69.1544 123.992 69.1407 123.994 69.1237C123.997 69.1068 123.999 69.0868 124 69.0649C124.001 69.043 124.002 69.0197 124.001 68.9963V67.6829C124.002 67.6594 124.001 67.6361 124 67.6142C123.999 67.5924 123.997 67.5724 123.994 67.5554C123.992 67.5384 123.989 67.5248 123.986 67.5153C123.983 67.5058 123.98 67.5006 123.977 67.5H118.046Z" fill="#F3EFFF"/>
<path d="M128.046 67.5C128.043 67.5006 128.04 67.5058 128.037 67.5153C128.034 67.5248 128.031 67.5384 128.028 67.5554C128.026 67.5724 128.024 67.5924 128.023 67.6142C128.022 67.6361 128.021 67.6594 128.021 67.6829V68.9963C128.021 69.0197 128.022 69.043 128.023 69.0649C128.024 69.0868 128.026 69.1068 128.028 69.1237C128.031 69.1407 128.034 69.1544 128.037 69.1639C128.04 69.1734 128.043 69.1786 128.046 69.1791H133.977C133.98 69.1786 133.983 69.1734 133.986 69.1639C133.989 69.1544 133.992 69.1407 133.994 69.1237C133.997 69.1068 133.999 69.0868 134 69.0649C134.001 69.043 134.002 69.0197 134.001 68.9963V67.6829C134.002 67.6594 134.001 67.6361 134 67.6142C133.999 67.5924 133.997 67.5724 133.994 67.5554C133.992 67.5384 133.989 67.5248 133.986 67.5153C133.983 67.5058 133.98 67.5006 133.977 67.5H128.046Z" fill="#F3EFFF"/>
<path d="M83.6473 136L81.4393 127.6H83.1793L84.6433 134.164L86.3713 127.6H88.1593L89.8273 134.164L91.3033 127.6H93.0433L90.7873 136H88.8553L87.2353 129.88L85.5673 136H83.6473ZM94.0345 136V127.6H99.5665V128.908H95.6545V131.104H99.2065V132.364H95.6545V134.692H99.5665V136H94.0345ZM100.899 136V127.6H104.343C104.927 127.6 105.419 127.692 105.819 127.876C106.219 128.06 106.519 128.316 106.719 128.644C106.927 128.964 107.031 129.336 107.031 129.76C107.031 130.184 106.939 130.54 106.755 130.828C106.579 131.116 106.339 131.34 106.035 131.5C105.731 131.652 105.403 131.74 105.051 131.764L105.231 131.632C105.615 131.648 105.955 131.752 106.251 131.944C106.555 132.128 106.791 132.376 106.959 132.688C107.135 133 107.223 133.34 107.223 133.708C107.223 134.156 107.115 134.552 106.899 134.896C106.691 135.24 106.379 135.512 105.963 135.712C105.555 135.904 105.055 136 104.463 136H100.899ZM102.519 134.68H104.211C104.643 134.68 104.979 134.58 105.219 134.38C105.459 134.18 105.579 133.892 105.579 133.516C105.579 133.14 105.455 132.848 105.207 132.64C104.959 132.424 104.619 132.316 104.187 132.316H102.519V134.68ZM102.519 131.104H104.079C104.503 131.104 104.827 131.008 105.051 130.816C105.275 130.624 105.387 130.352 105.387 130C105.387 129.656 105.275 129.388 105.051 129.196C104.827 128.996 104.499 128.896 104.067 128.896H102.519V131.104ZM111.312 136.144C110.704 136.144 110.16 136.04 109.68 135.832C109.208 135.624 108.836 135.32 108.564 134.92C108.292 134.52 108.148 134.036 108.132 133.468H109.848C109.856 133.716 109.92 133.94 110.04 134.14C110.16 134.34 110.328 134.5 110.544 134.62C110.76 134.732 111.016 134.788 111.312 134.788C111.56 134.788 111.776 134.748 111.96 134.668C112.152 134.58 112.3 134.46 112.404 134.308C112.516 134.156 112.572 133.976 112.572 133.768C112.572 133.528 112.512 133.328 112.392 133.168C112.272 133 112.108 132.86 111.9 132.748C111.692 132.636 111.456 132.536 111.192 132.448C110.928 132.352 110.648 132.256 110.352 132.16C109.688 131.944 109.184 131.656 108.84 131.296C108.496 130.936 108.324 130.46 108.324 129.868C108.324 129.364 108.444 128.932 108.684 128.572C108.924 128.212 109.26 127.936 109.692 127.744C110.124 127.552 110.616 127.456 111.168 127.456C111.736 127.456 112.236 127.556 112.668 127.756C113.1 127.948 113.44 128.228 113.688 128.596C113.936 128.964 114.068 129.396 114.084 129.892H112.344C112.336 129.708 112.284 129.536 112.188 129.376C112.092 129.208 111.956 129.076 111.78 128.98C111.604 128.876 111.392 128.824 111.144 128.824C110.936 128.816 110.748 128.848 110.58 128.92C110.412 128.992 110.276 129.1 110.172 129.244C110.076 129.38 110.028 129.552 110.028 129.76C110.028 129.96 110.076 130.128 110.172 130.264C110.268 130.4 110.404 130.52 110.58 130.624C110.764 130.72 110.972 130.812 111.204 130.9C111.444 130.98 111.704 131.064 111.984 131.152C112.408 131.296 112.792 131.468 113.136 131.668C113.488 131.86 113.768 132.112 113.976 132.424C114.184 132.736 114.288 133.148 114.288 133.66C114.288 134.1 114.172 134.508 113.94 134.884C113.716 135.26 113.384 135.564 112.944 135.796C112.504 136.028 111.96 136.144 111.312 136.144ZM115.518 136V127.6H117.138V136H115.518ZM120.612 136V128.908H118.164V127.6H124.68V128.908H122.232V136H120.612ZM125.696 136V127.6H131.228V128.908H127.316V131.104H130.868V132.364H127.316V134.692H131.228V136H125.696Z" fill="#6C47FF"/>
<rect x="98.0215" y="92.5" width="17" height="5" rx="2.5" fill="url(#paint10_linear_3_249)"/>
<rect x="83.0215" y="103.5" width="50" height="16" fill="#F3EFFF"/>
</g>
<rect x="8.63855" y="7.63998" width="173.38" height="174.875" rx="11.368" stroke="#C6B2FF" stroke-width="0.730651" stroke-dasharray="2.19 1.46"/>
<rect x="1.30078" y="0.5" width="188.056" height="189.55" rx="15.5" stroke="#F3EFFF" stroke-dasharray="2.24 1.49"/>
<line x1="189" y1="94" x2="412" y2="94" stroke="#C6B2FF" stroke-width="2" stroke-dasharray="7.24 4.49"/>
<rect x="243.121" y="84" width="14" height="3" rx="1.5" transform="rotate(45 243.121 84)" fill="#C6B2FF"/>
<rect x="253.021" y="93.8994" width="14" height="3" rx="1.5" transform="rotate(135 253.021 93.8994)" fill="#C6B2FF"/>
<rect x="580.121" y="84" width="14" height="3" rx="1.5" transform="rotate(45 580.121 84)" fill="#C6B2FF"/>
<rect x="590.021" y="93.8994" width="14" height="3" rx="1.5" transform="rotate(135 590.021 93.8994)" fill="#C6B2FF"/>
<line x1="526" y1="94" x2="749" y2="94" stroke="#C6B2FF" stroke-width="2" stroke-dasharray="7.24 4.49"/>
<rect x="303.583" y="50.8953" width="229.831" height="80.2094" rx="5.44241" fill="white" stroke="#C6B2FF" stroke-width="1.20942"/>
<path d="M325.442 76.8409C324.494 76.8409 323.662 76.6232 322.946 76.1878C322.23 75.7524 321.674 75.1429 321.277 74.3592C320.88 73.5755 320.682 72.6611 320.682 71.6162C320.682 70.5809 320.88 69.6666 321.277 68.8732C321.684 68.0798 322.259 67.4606 323.004 67.0155C323.759 66.5608 324.644 66.3334 325.66 66.3334C326.821 66.3334 327.789 66.614 328.563 67.1752C329.337 67.7267 329.83 68.4959 330.043 69.4828H328.389C328.253 68.9216 327.948 68.4814 327.474 68.1621C327.01 67.8331 326.405 67.6686 325.66 67.6686C324.944 67.6686 324.32 67.8283 323.788 68.1476C323.265 68.4669 322.864 68.9216 322.583 69.5118C322.303 70.102 322.162 70.8035 322.162 71.6162C322.162 72.4386 322.303 73.1449 322.583 73.7351C322.864 74.3253 323.256 74.7752 323.759 75.0848C324.272 75.3944 324.867 75.5492 325.544 75.5492C326.56 75.5492 327.329 75.2541 327.852 74.6639C328.374 74.0737 328.679 73.2852 328.766 72.2983H325.965V71.1808H330.232V76.6667H328.897L328.78 75.1138C328.548 75.4912 328.277 75.8105 327.968 76.0717C327.668 76.3233 327.31 76.5168 326.894 76.6522C326.487 76.778 326.004 76.8409 325.442 76.8409ZM335.248 76.8409C334.542 76.8409 333.918 76.6861 333.376 76.3765C332.834 76.0572 332.409 75.6121 332.099 75.0413C331.799 74.4704 331.649 73.8077 331.649 73.053C331.649 72.2886 331.799 71.621 332.099 71.0502C332.399 70.4793 332.82 70.0343 333.362 69.715C333.913 69.386 334.547 69.2215 335.263 69.2215C335.979 69.2215 336.593 69.3812 337.106 69.7005C337.619 70.0198 338.016 70.4406 338.296 70.9631C338.577 71.4856 338.717 72.0613 338.717 72.6902C338.717 72.7869 338.717 72.8933 338.717 73.0094C338.717 73.1159 338.712 73.2368 338.703 73.3723H332.709V72.3564H337.266C337.246 71.7565 337.043 71.2872 336.656 70.9486C336.279 70.6003 335.81 70.4261 335.248 70.4261C334.861 70.4261 334.499 70.518 334.16 70.7019C333.831 70.876 333.565 71.1324 333.362 71.4711C333.168 71.8097 333.072 72.2403 333.072 72.7627V73.1691C333.072 73.7012 333.168 74.1511 333.362 74.5188C333.565 74.8865 333.831 75.1671 334.16 75.3606C334.489 75.5444 334.847 75.6363 335.234 75.6363C335.698 75.6363 336.081 75.5347 336.381 75.3315C336.69 75.1187 336.917 74.8381 337.063 74.4898H338.514C338.388 74.9349 338.175 75.3364 337.875 75.6944C337.575 76.0427 337.203 76.3233 336.758 76.5361C336.322 76.7393 335.819 76.8409 335.248 76.8409ZM340.184 76.6667V69.3957H341.491L341.578 70.6583C341.81 70.2133 342.139 69.8649 342.565 69.6134C342.99 69.3522 343.484 69.2215 344.045 69.2215C344.625 69.2215 345.124 69.3425 345.54 69.5844C345.956 69.8166 346.275 70.1697 346.498 70.6438C346.73 71.1082 346.846 71.6984 346.846 72.4144V76.6667H345.395V72.5595C345.395 71.8726 345.245 71.355 344.945 71.0066C344.654 70.6487 344.224 70.4697 343.653 70.4697C343.266 70.4697 342.918 70.5616 342.608 70.7454C342.308 70.9292 342.071 71.1953 341.897 71.5436C341.723 71.8919 341.636 72.3225 341.636 72.8353V76.6667H340.184ZM351.867 76.8409C351.16 76.8409 350.536 76.6861 349.994 76.3765C349.453 76.0572 349.027 75.6121 348.717 75.0413C348.417 74.4704 348.267 73.8077 348.267 73.053C348.267 72.2886 348.417 71.621 348.717 71.0502C349.017 70.4793 349.438 70.0343 349.98 69.715C350.531 69.386 351.165 69.2215 351.881 69.2215C352.597 69.2215 353.211 69.3812 353.724 69.7005C354.237 70.0198 354.634 70.4406 354.914 70.9631C355.195 71.4856 355.335 72.0613 355.335 72.6902C355.335 72.7869 355.335 72.8933 355.335 73.0094C355.335 73.1159 355.33 73.2368 355.321 73.3723H349.327V72.3564H353.884C353.865 71.7565 353.661 71.2872 353.274 70.9486C352.897 70.6003 352.428 70.4261 351.867 70.4261C351.48 70.4261 351.117 70.518 350.778 70.7019C350.449 70.876 350.183 71.1324 349.98 71.4711C349.786 71.8097 349.69 72.2403 349.69 72.7627V73.1691C349.69 73.7012 349.786 74.1511 349.98 74.5188C350.183 74.8865 350.449 75.1671 350.778 75.3606C351.107 75.5444 351.465 75.6363 351.852 75.6363C352.316 75.6363 352.699 75.5347 352.999 75.3315C353.308 75.1187 353.536 74.8381 353.681 74.4898H355.132C355.006 74.9349 354.793 75.3364 354.493 75.6944C354.193 76.0427 353.821 76.3233 353.376 76.5361C352.941 76.7393 352.437 76.8409 351.867 76.8409ZM356.802 76.6667V69.3957H358.109L358.239 70.7744C358.404 70.4551 358.612 70.1794 358.863 69.9472C359.125 69.715 359.429 69.536 359.778 69.4102C360.126 69.2844 360.523 69.2215 360.968 69.2215V70.7599H360.503C360.194 70.7599 359.899 70.7986 359.618 70.876C359.347 70.9534 359.11 71.0792 358.907 71.2534C358.704 71.4178 358.544 71.6501 358.428 71.95C358.312 72.2499 358.254 72.6273 358.254 73.082V76.6667H356.802ZM364.58 76.8409C363.98 76.8409 363.482 76.7393 363.085 76.5361C362.689 76.3329 362.393 76.062 362.2 75.7234C362.006 75.3848 361.91 75.0171 361.91 74.6204C361.91 74.1366 362.031 73.7254 362.273 73.3868C362.524 73.0482 362.882 72.7869 363.347 72.6031C363.821 72.4193 364.382 72.3273 365.03 72.3273H366.931C366.931 71.9016 366.868 71.5533 366.743 71.2824C366.617 71.0018 366.428 70.7938 366.177 70.6583C365.925 70.5132 365.615 70.4406 365.248 70.4406C364.812 70.4406 364.435 70.5471 364.116 70.7599C363.796 70.9631 363.603 71.2727 363.535 71.6888H362.084C362.142 71.1663 362.316 70.7261 362.606 70.3681C362.906 70.0004 363.288 69.7198 363.753 69.5263C364.217 69.3231 364.716 69.2215 365.248 69.2215C365.925 69.2215 366.496 69.3425 366.96 69.5844C367.425 69.8262 367.778 70.1697 368.02 70.6148C368.262 71.0502 368.383 71.5727 368.383 72.1822V76.6667H367.12L367.004 75.4331C366.907 75.6266 366.781 75.8105 366.626 75.9846C366.481 76.1588 366.307 76.3088 366.104 76.4345C365.91 76.5603 365.683 76.6571 365.422 76.7248C365.17 76.8022 364.89 76.8409 364.58 76.8409ZM364.856 75.6653C365.165 75.6653 365.446 75.6025 365.698 75.4767C365.949 75.3509 366.162 75.1816 366.336 74.9687C366.52 74.7462 366.655 74.4995 366.743 74.2285C366.839 73.9576 366.893 73.6722 366.902 73.3723V73.3433H365.175C364.759 73.3433 364.42 73.3965 364.159 73.5029C363.898 73.5996 363.709 73.7399 363.593 73.9238C363.487 74.0979 363.434 74.2963 363.434 74.5188C363.434 74.751 363.487 74.9542 363.593 75.1284C363.709 75.3025 363.874 75.438 364.087 75.5347C364.3 75.6218 364.556 75.6653 364.856 75.6653ZM372.91 76.6667C372.455 76.6667 372.058 76.5942 371.719 76.4491C371.381 76.3039 371.12 76.062 370.936 75.7234C370.752 75.3848 370.66 74.9252 370.66 74.3447V70.6293H369.397V69.3957H370.66L370.834 67.5816H372.111V69.3957H374.172V70.6293H372.111V74.3592C372.111 74.7752 372.194 75.0606 372.358 75.2154C372.532 75.3606 372.837 75.4331 373.272 75.4331H374.1V76.6667H372.91ZM375.716 76.6667V69.3957H377.167V76.6667H375.716ZM376.441 68.0024C376.17 68.0024 375.943 67.9154 375.759 67.7412C375.585 67.567 375.498 67.3445 375.498 67.0736C375.498 66.8124 375.585 66.5995 375.759 66.435C375.943 66.2609 376.17 66.1738 376.441 66.1738C376.712 66.1738 376.939 66.2609 377.123 66.435C377.317 66.5995 377.414 66.8124 377.414 67.0736C377.414 67.3445 377.317 67.567 377.123 67.7412C376.939 67.9154 376.712 68.0024 376.441 68.0024ZM379.097 76.6667V69.3957H380.403L380.49 70.6583C380.723 70.2133 381.051 69.8649 381.477 69.6134C381.903 69.3522 382.396 69.2215 382.958 69.2215C383.538 69.2215 384.036 69.3425 384.452 69.5844C384.868 69.8166 385.188 70.1697 385.41 70.6438C385.642 71.1082 385.759 71.6984 385.759 72.4144V76.6667H384.307V72.5595C384.307 71.8726 384.157 71.355 383.857 71.0066C383.567 70.6487 383.137 70.4697 382.566 70.4697C382.179 70.4697 381.83 70.5616 381.521 70.7454C381.221 70.9292 380.984 71.1953 380.81 71.5436C380.635 71.8919 380.548 72.3225 380.548 72.8353V76.6667H379.097ZM390.416 80.0338C389.749 80.0338 389.159 79.9467 388.646 79.7725C388.143 79.6081 387.751 79.3517 387.47 79.0034C387.19 78.655 387.049 78.2293 387.049 77.7262C387.049 77.465 387.107 77.2037 387.223 76.9425C387.34 76.6813 387.528 76.4297 387.79 76.1878C388.051 75.9363 388.399 75.7186 388.834 75.5347L389.647 76.1733C389.163 76.3668 388.834 76.5893 388.66 76.8409C388.496 77.1021 388.414 77.3489 388.414 77.5811C388.414 77.8713 388.501 78.1132 388.675 78.3067C388.849 78.5002 389.086 78.6454 389.386 78.7421C389.696 78.8389 390.039 78.8873 390.416 78.8873C390.794 78.8873 391.118 78.834 391.389 78.7276C391.669 78.6212 391.887 78.4712 392.042 78.2777C392.197 78.0842 392.274 77.8568 392.274 77.5956C392.274 77.286 392.158 77.0296 391.926 76.8264C391.703 76.6232 391.268 76.5023 390.62 76.4636C390.068 76.4249 389.599 76.3716 389.212 76.3039C388.834 76.2265 388.51 76.1443 388.239 76.0572C387.978 75.9604 387.756 75.854 387.572 75.7379C387.398 75.6121 387.248 75.4864 387.122 75.3606V75.0268L388.573 73.5464L389.734 73.9383L388.167 75.4041L388.472 74.7655C388.578 74.8333 388.68 74.901 388.776 74.9687C388.873 75.0268 389.004 75.08 389.168 75.1284C389.333 75.1767 389.55 75.2203 389.821 75.259C390.102 75.2977 390.47 75.3315 390.924 75.3606C391.573 75.4186 392.1 75.5396 392.506 75.7234C392.913 75.9072 393.208 76.154 393.392 76.4636C393.575 76.7635 393.667 77.1263 393.667 77.552C393.667 77.9681 393.551 78.3648 393.319 78.7421C393.087 79.1195 392.729 79.4291 392.245 79.671C391.771 79.9128 391.161 80.0338 390.416 80.0338ZM390.416 74.4317C389.807 74.4317 389.284 74.3156 388.849 74.0834C388.423 73.8512 388.094 73.5416 387.862 73.1546C387.64 72.7579 387.528 72.3177 387.528 71.8339C387.528 71.3501 387.64 70.9147 387.862 70.5277C388.094 70.131 388.423 69.8166 388.849 69.5844C389.284 69.3425 389.807 69.2215 390.416 69.2215C391.026 69.2215 391.544 69.3425 391.969 69.5844C392.405 69.8166 392.734 70.131 392.956 70.5277C393.188 70.9147 393.304 71.3501 393.304 71.8339C393.304 72.3177 393.188 72.7579 392.956 73.1546C392.734 73.5416 392.405 73.8512 391.969 74.0834C391.544 74.3156 391.026 74.4317 390.416 74.4317ZM390.416 73.2707C390.881 73.2707 391.253 73.1497 391.534 72.9079C391.824 72.6563 391.969 72.2983 391.969 71.8339C391.969 71.3695 391.824 71.0163 391.534 70.7744C391.253 70.5229 390.881 70.3971 390.416 70.3971C389.942 70.3971 389.56 70.5229 389.27 70.7744C388.989 71.0163 388.849 71.3695 388.849 71.8339C388.849 72.2983 388.989 72.6563 389.27 72.9079C389.56 73.1497 389.942 73.2707 390.416 73.2707ZM391.592 70.5422L391.244 69.3957H394.248V70.3971L391.592 70.5422ZM399.185 76.6667V66.5076H402.669C403.472 66.5076 404.134 66.643 404.657 66.914C405.179 67.1752 405.566 67.5332 405.818 67.9879C406.069 68.4427 406.195 68.9603 406.195 69.5408C406.195 70.102 406.069 70.61 405.818 71.0647C405.576 71.5194 405.194 71.8871 404.671 72.1677C404.159 72.4386 403.491 72.5741 402.669 72.5741H400.637V76.6667H399.185ZM400.637 71.3695H402.611C403.365 71.3695 403.902 71.205 404.221 70.876C404.55 70.5471 404.715 70.102 404.715 69.5408C404.715 68.9603 404.55 68.5104 404.221 68.1911C403.902 67.8718 403.365 67.7122 402.611 67.7122H400.637V71.3695ZM407.543 76.6667V69.3957H408.849L408.98 70.7744C409.144 70.4551 409.352 70.1794 409.604 69.9472C409.865 69.715 410.17 69.536 410.518 69.4102C410.866 69.2844 411.263 69.2215 411.708 69.2215V70.7599H411.244C410.934 70.7599 410.639 70.7986 410.358 70.876C410.087 70.9534 409.85 71.0792 409.647 71.2534C409.444 71.4178 409.284 71.6501 409.168 71.95C409.052 72.2499 408.994 72.6273 408.994 73.082V76.6667H407.543ZM415.993 76.8409C415.287 76.8409 414.663 76.6861 414.121 76.3765C413.579 76.0572 413.154 75.6121 412.844 75.0413C412.544 74.4704 412.394 73.8077 412.394 73.053C412.394 72.2886 412.544 71.621 412.844 71.0502C413.144 70.4793 413.565 70.0343 414.107 69.715C414.658 69.386 415.292 69.2215 416.008 69.2215C416.724 69.2215 417.338 69.3812 417.851 69.7005C418.364 70.0198 418.761 70.4406 419.041 70.9631C419.322 71.4856 419.462 72.0613 419.462 72.6902C419.462 72.7869 419.462 72.8933 419.462 73.0094C419.462 73.1159 419.457 73.2368 419.448 73.3723H413.454V72.3564H418.011C417.991 71.7565 417.788 71.2872 417.401 70.9486C417.024 70.6003 416.555 70.4261 415.993 70.4261C415.606 70.4261 415.244 70.518 414.905 70.7019C414.576 70.876 414.31 71.1324 414.107 71.4711C413.913 71.8097 413.816 72.2403 413.816 72.7627V73.1691C413.816 73.7012 413.913 74.1511 414.107 74.5188C414.31 74.8865 414.576 75.1671 414.905 75.3606C415.234 75.5444 415.592 75.6363 415.979 75.6363C416.443 75.6363 416.826 75.5347 417.125 75.3315C417.435 75.1187 417.662 74.8381 417.808 74.4898H419.259C419.133 74.9349 418.92 75.3364 418.62 75.6944C418.32 76.0427 417.948 76.3233 417.503 76.5361C417.067 76.7393 416.564 76.8409 415.993 76.8409ZM422.692 76.6667L419.978 69.3957H421.502L423.563 75.2735L425.638 69.3957H427.133L424.405 76.6667H422.692ZM428.383 76.6667V69.3957H429.835V76.6667H428.383ZM429.109 68.0024C428.838 68.0024 428.611 67.9154 428.427 67.7412C428.253 67.567 428.166 67.3445 428.166 67.0736C428.166 66.8124 428.253 66.5995 428.427 66.435C428.611 66.2609 428.838 66.1738 429.109 66.1738C429.38 66.1738 429.607 66.2609 429.791 66.435C429.985 66.5995 430.081 66.8124 430.081 67.0736C430.081 67.3445 429.985 67.567 429.791 67.7412C429.607 67.9154 429.38 68.0024 429.109 68.0024ZM435.088 76.8409C434.382 76.8409 433.758 76.6861 433.216 76.3765C432.674 76.0572 432.249 75.6121 431.939 75.0413C431.639 74.4704 431.489 73.8077 431.489 73.053C431.489 72.2886 431.639 71.621 431.939 71.0502C432.239 70.4793 432.66 70.0343 433.202 69.715C433.753 69.386 434.387 69.2215 435.103 69.2215C435.819 69.2215 436.433 69.3812 436.946 69.7005C437.459 70.0198 437.855 70.4406 438.136 70.9631C438.417 71.4856 438.557 72.0613 438.557 72.6902C438.557 72.7869 438.557 72.8933 438.557 73.0094C438.557 73.1159 438.552 73.2368 438.542 73.3723H432.549V72.3564H437.106C437.086 71.7565 436.883 71.2872 436.496 70.9486C436.119 70.6003 435.65 70.4261 435.088 70.4261C434.701 70.4261 434.338 70.518 434 70.7019C433.671 70.876 433.405 71.1324 433.202 71.4711C433.008 71.8097 432.911 72.2403 432.911 72.7627V73.1691C432.911 73.7012 433.008 74.1511 433.202 74.5188C433.405 74.8865 433.671 75.1671 434 75.3606C434.329 75.5444 434.687 75.6363 435.074 75.6363C435.538 75.6363 435.92 75.5347 436.22 75.3315C436.53 75.1187 436.757 74.8381 436.902 74.4898H438.354C438.228 74.9349 438.015 75.3364 437.715 75.6944C437.415 76.0427 437.043 76.3233 436.598 76.5361C436.162 76.7393 435.659 76.8409 435.088 76.8409ZM441.192 76.6667L439.073 69.3957H440.51L442.106 75.5202L441.802 75.5057L443.572 69.3957H445.198L446.983 75.5057L446.664 75.5202L448.26 69.3957H449.711L447.592 76.6667H446.098L444.225 70.31H444.559L442.687 76.6667H441.192Z" fill="#011552"/>
<path d="M321.263 114.167L324.136 107.669H320.305V106.547H325.475V107.483L322.623 114.167H321.263ZM329.452 114.297C328.762 114.297 328.167 114.134 327.667 113.808C327.173 113.474 326.792 113.013 326.524 112.425C326.263 111.83 326.132 111.141 326.132 110.357C326.132 109.573 326.263 108.888 326.524 108.3C326.792 107.705 327.173 107.244 327.667 106.917C328.167 106.584 328.762 106.417 329.452 106.417C330.148 106.417 330.74 106.584 331.226 106.917C331.719 107.244 332.1 107.705 332.369 108.3C332.637 108.888 332.772 109.573 332.772 110.357C332.772 111.141 332.637 111.83 332.369 112.425C332.1 113.013 331.719 113.474 331.226 113.808C330.733 114.134 330.141 114.297 329.452 114.297ZM329.452 113.122C329.844 113.122 330.188 113.013 330.486 112.795C330.783 112.57 331.016 112.251 331.182 111.837C331.349 111.424 331.433 110.93 331.433 110.357C331.433 109.784 331.349 109.29 331.182 108.877C331.016 108.463 330.783 108.147 330.486 107.93C330.188 107.705 329.844 107.592 329.452 107.592C329.067 107.592 328.722 107.705 328.418 107.93C328.12 108.147 327.884 108.463 327.71 108.877C327.543 109.29 327.46 109.784 327.46 110.357C327.46 110.93 327.543 111.424 327.71 111.837C327.884 112.251 328.12 112.57 328.418 112.795C328.722 113.013 329.067 113.122 329.452 113.122ZM335.027 114.167L339.348 106.547H340.621L336.3 114.167H335.027ZM340.251 114.297C339.91 114.297 339.598 114.221 339.315 114.069C339.04 113.909 338.818 113.688 338.651 113.405C338.484 113.115 338.401 112.773 338.401 112.382C338.401 111.983 338.484 111.641 338.651 111.358C338.818 111.075 339.04 110.858 339.315 110.705C339.598 110.546 339.91 110.466 340.251 110.466C340.607 110.466 340.919 110.546 341.187 110.705C341.463 110.858 341.681 111.075 341.841 111.358C342.007 111.641 342.091 111.983 342.091 112.382C342.091 112.773 342.007 113.115 341.841 113.405C341.681 113.688 341.463 113.909 341.187 114.069C340.912 114.221 340.6 114.297 340.251 114.297ZM340.24 113.383C340.393 113.383 340.531 113.347 340.654 113.274C340.777 113.194 340.875 113.082 340.948 112.937C341.021 112.784 341.057 112.599 341.057 112.382C341.057 112.157 341.021 111.972 340.948 111.827C340.875 111.681 340.777 111.573 340.654 111.5C340.538 111.42 340.404 111.38 340.251 111.38C340.106 111.38 339.972 111.42 339.849 111.5C339.725 111.573 339.627 111.681 339.555 111.827C339.482 111.972 339.446 112.157 339.446 112.382C339.446 112.599 339.482 112.784 339.555 112.937C339.627 113.082 339.722 113.194 339.838 113.274C339.961 113.347 340.095 113.383 340.24 113.383ZM335.451 110.248C335.11 110.248 334.798 110.172 334.515 110.02C334.239 109.867 334.018 109.646 333.851 109.356C333.684 109.065 333.601 108.724 333.601 108.332C333.601 107.941 333.684 107.603 333.851 107.32C334.018 107.03 334.239 106.809 334.515 106.656C334.798 106.504 335.114 106.428 335.462 106.428C335.803 106.428 336.112 106.504 336.387 106.656C336.67 106.809 336.892 107.03 337.051 107.32C337.218 107.603 337.302 107.941 337.302 108.332C337.302 108.724 337.218 109.065 337.051 109.356C336.892 109.646 336.67 109.867 336.387 110.02C336.112 110.172 335.799 110.248 335.451 110.248ZM335.451 109.334C335.604 109.334 335.738 109.298 335.854 109.225C335.977 109.145 336.075 109.033 336.148 108.888C336.22 108.735 336.257 108.55 336.257 108.332C336.257 108.115 336.22 107.93 336.148 107.777C336.075 107.625 335.977 107.512 335.854 107.44C335.738 107.36 335.604 107.32 335.451 107.32C335.306 107.32 335.172 107.36 335.048 107.44C334.925 107.512 334.823 107.625 334.744 107.777C334.671 107.93 334.635 108.115 334.635 108.332C334.635 108.55 334.671 108.735 334.744 108.888C334.823 109.033 334.921 109.145 335.038 109.225C335.161 109.298 335.299 109.334 335.451 109.334Z" fill="#011552"/>
<path d="M433.622 114.167V107.777L432.337 108.093V107.288L434.035 106.547H434.732V114.167H433.622ZM436.585 114.221C436.382 114.221 436.211 114.156 436.073 114.025C435.935 113.887 435.866 113.724 435.866 113.535C435.866 113.34 435.935 113.176 436.073 113.046C436.211 112.908 436.382 112.839 436.585 112.839C436.795 112.839 436.966 112.908 437.096 113.046C437.227 113.176 437.292 113.34 437.292 113.535C437.292 113.724 437.227 113.887 437.096 114.025C436.966 114.156 436.795 114.221 436.585 114.221ZM441.057 114.297C440.527 114.297 440.067 114.203 439.675 114.014C439.283 113.818 438.974 113.554 438.75 113.22C438.525 112.886 438.39 112.512 438.347 112.099H439.403C439.482 112.469 439.667 112.773 439.958 113.013C440.248 113.252 440.618 113.372 441.068 113.372C441.395 113.372 441.678 113.292 441.917 113.133C442.156 112.973 442.342 112.759 442.472 112.49C442.61 112.222 442.679 111.921 442.679 111.587C442.679 111.239 442.61 110.938 442.472 110.684C442.342 110.422 442.156 110.219 441.917 110.074C441.678 109.929 441.402 109.856 441.09 109.856C440.712 109.856 440.386 109.943 440.11 110.118C439.834 110.284 439.635 110.506 439.511 110.782H438.467L439.109 106.547H443.201V107.494H439.936L439.533 109.628C439.707 109.432 439.94 109.272 440.23 109.149C440.527 109.018 440.865 108.953 441.242 108.953C441.627 108.953 441.971 109.022 442.276 109.16C442.581 109.29 442.842 109.475 443.06 109.715C443.278 109.954 443.441 110.234 443.55 110.553C443.666 110.872 443.724 111.213 443.724 111.576C443.724 111.954 443.662 112.309 443.539 112.643C443.415 112.969 443.238 113.26 443.005 113.514C442.773 113.76 442.494 113.953 442.167 114.091C441.841 114.228 441.471 114.297 441.057 114.297ZM447.079 114.297C446.622 114.297 446.219 114.221 445.871 114.069C445.523 113.916 445.243 113.702 445.033 113.427C444.83 113.151 444.706 112.828 444.663 112.458H445.762C445.806 112.632 445.882 112.792 445.991 112.937C446.1 113.082 446.245 113.198 446.426 113.285C446.608 113.372 446.825 113.416 447.079 113.416C447.319 113.416 447.515 113.383 447.667 113.318C447.819 113.245 447.932 113.151 448.004 113.035C448.084 112.919 448.124 112.792 448.124 112.654C448.124 112.458 448.073 112.309 447.972 112.207C447.87 112.099 447.721 112.015 447.525 111.957C447.337 111.892 447.108 111.834 446.84 111.783C446.6 111.732 446.364 111.67 446.132 111.598C445.9 111.525 445.69 111.431 445.501 111.315C445.312 111.199 445.16 111.054 445.044 110.88C444.935 110.698 444.88 110.48 444.88 110.226C444.88 109.914 444.964 109.635 445.131 109.388C445.298 109.134 445.534 108.938 445.838 108.801C446.143 108.655 446.51 108.583 446.938 108.583C447.54 108.583 448.026 108.728 448.396 109.018C448.766 109.308 448.984 109.718 449.049 110.248H447.994C447.965 110.001 447.856 109.813 447.667 109.682C447.486 109.544 447.239 109.475 446.927 109.475C446.615 109.475 446.375 109.537 446.208 109.66C446.042 109.784 445.958 109.947 445.958 110.15C445.958 110.274 446.005 110.386 446.1 110.488C446.201 110.589 446.343 110.676 446.524 110.749C446.713 110.814 446.938 110.872 447.199 110.923C447.569 111.003 447.906 111.097 448.211 111.206C448.516 111.308 448.759 111.464 448.941 111.674C449.129 111.885 449.224 112.186 449.224 112.578C449.231 112.911 449.144 113.209 448.962 113.47C448.788 113.731 448.541 113.935 448.222 114.08C447.903 114.225 447.522 114.297 447.079 114.297ZM452.889 114.297C452.359 114.297 451.891 114.181 451.485 113.949C451.079 113.71 450.759 113.376 450.527 112.948C450.302 112.52 450.19 112.022 450.19 111.456C450.19 110.883 450.302 110.382 450.527 109.954C450.752 109.526 451.068 109.192 451.474 108.953C451.888 108.706 452.363 108.583 452.9 108.583C453.437 108.583 453.898 108.703 454.282 108.942C454.667 109.182 454.965 109.497 455.175 109.889C455.385 110.281 455.491 110.713 455.491 111.184C455.491 111.257 455.491 111.337 455.491 111.424C455.491 111.504 455.487 111.594 455.48 111.696H450.984V110.934H454.402C454.388 110.484 454.235 110.132 453.945 109.878C453.662 109.617 453.31 109.486 452.889 109.486C452.599 109.486 452.327 109.555 452.073 109.693C451.826 109.824 451.627 110.016 451.474 110.27C451.329 110.524 451.256 110.847 451.256 111.239V111.544C451.256 111.943 451.329 112.28 451.474 112.556C451.627 112.832 451.826 113.042 452.073 113.187C452.32 113.325 452.588 113.394 452.878 113.394C453.227 113.394 453.513 113.318 453.738 113.165C453.97 113.006 454.141 112.795 454.25 112.534H455.338C455.244 112.868 455.084 113.169 454.859 113.437C454.634 113.699 454.355 113.909 454.021 114.069C453.695 114.221 453.317 114.297 452.889 114.297ZM459.127 114.297C458.598 114.297 458.126 114.178 457.712 113.938C457.299 113.699 456.972 113.365 456.733 112.937C456.5 112.509 456.384 112.012 456.384 111.446C456.384 110.88 456.5 110.382 456.733 109.954C456.972 109.526 457.299 109.192 457.712 108.953C458.126 108.706 458.598 108.583 459.127 108.583C459.795 108.583 460.35 108.757 460.793 109.105C461.243 109.454 461.529 109.922 461.653 110.509H460.521C460.455 110.197 460.292 109.954 460.031 109.78C459.769 109.606 459.465 109.519 459.116 109.519C458.826 109.519 458.558 109.591 458.311 109.737C458.064 109.882 457.865 110.099 457.712 110.39C457.567 110.673 457.495 111.025 457.495 111.446C457.495 111.758 457.538 112.033 457.625 112.273C457.712 112.512 457.828 112.715 457.973 112.882C458.126 113.042 458.3 113.165 458.496 113.252C458.692 113.332 458.899 113.372 459.116 113.372C459.356 113.372 459.57 113.336 459.759 113.263C459.955 113.183 460.118 113.071 460.248 112.926C460.386 112.773 460.477 112.592 460.521 112.382H461.653C461.536 112.955 461.25 113.419 460.793 113.775C460.343 114.123 459.788 114.297 459.127 114.297ZM465.494 114.167V108.713H466.473L466.571 109.748C466.695 109.508 466.851 109.301 467.039 109.127C467.235 108.953 467.464 108.819 467.725 108.724C467.986 108.63 468.284 108.583 468.618 108.583V109.737H468.269C468.037 109.737 467.816 109.766 467.605 109.824C467.402 109.882 467.224 109.976 467.072 110.107C466.92 110.23 466.8 110.404 466.713 110.629C466.626 110.854 466.582 111.137 466.582 111.478V114.167H465.494ZM471.832 114.297C471.302 114.297 470.834 114.181 470.428 113.949C470.021 113.71 469.702 113.376 469.47 112.948C469.245 112.52 469.132 112.022 469.132 111.456C469.132 110.883 469.245 110.382 469.47 109.954C469.695 109.526 470.01 109.192 470.417 108.953C470.83 108.706 471.306 108.583 471.843 108.583C472.38 108.583 472.84 108.703 473.225 108.942C473.61 109.182 473.907 109.497 474.118 109.889C474.328 110.281 474.433 110.713 474.433 111.184C474.433 111.257 474.433 111.337 474.433 111.424C474.433 111.504 474.43 111.594 474.422 111.696H469.927V110.934H473.345C473.33 110.484 473.178 110.132 472.888 109.878C472.605 109.617 472.253 109.486 471.832 109.486C471.541 109.486 471.269 109.555 471.015 109.693C470.769 109.824 470.569 110.016 470.417 110.27C470.272 110.524 470.199 110.847 470.199 111.239V111.544C470.199 111.943 470.272 112.28 470.417 112.556C470.569 112.832 470.769 113.042 471.015 113.187C471.262 113.325 471.531 113.394 471.821 113.394C472.169 113.394 472.456 113.318 472.681 113.165C472.913 113.006 473.083 112.795 473.192 112.534H474.281C474.186 112.868 474.027 113.169 473.802 113.437C473.577 113.699 473.298 113.909 472.964 114.069C472.637 114.221 472.26 114.297 471.832 114.297ZM475.534 114.167V108.713H476.513L476.589 109.486C476.764 109.203 476.996 108.982 477.286 108.822C477.576 108.663 477.903 108.583 478.266 108.583C478.541 108.583 478.792 108.623 479.017 108.703C479.249 108.775 479.452 108.888 479.626 109.04C479.8 109.192 479.942 109.381 480.051 109.606C480.247 109.287 480.508 109.036 480.835 108.855C481.168 108.674 481.524 108.583 481.901 108.583C482.344 108.583 482.725 108.674 483.044 108.855C483.363 109.029 483.607 109.294 483.773 109.65C483.948 110.005 484.035 110.448 484.035 110.977V114.167H482.957V111.086C482.957 110.571 482.852 110.183 482.641 109.922C482.431 109.653 482.126 109.519 481.727 109.519C481.459 109.519 481.219 109.588 481.009 109.726C480.798 109.864 480.631 110.067 480.508 110.335C480.385 110.597 480.323 110.919 480.323 111.304V114.167H479.245V111.086C479.245 110.571 479.14 110.183 478.93 109.922C478.719 109.653 478.414 109.519 478.015 109.519C477.754 109.519 477.515 109.588 477.297 109.726C477.087 109.864 476.92 110.067 476.796 110.335C476.68 110.597 476.622 110.919 476.622 111.304V114.167H475.534ZM487.128 114.297C486.678 114.297 486.305 114.221 486.007 114.069C485.71 113.916 485.488 113.713 485.343 113.459C485.198 113.205 485.125 112.93 485.125 112.632C485.125 112.269 485.216 111.961 485.398 111.707C485.586 111.453 485.855 111.257 486.203 111.119C486.559 110.981 486.979 110.912 487.466 110.912H488.892C488.892 110.593 488.844 110.332 488.75 110.128C488.656 109.918 488.514 109.762 488.326 109.66C488.137 109.552 487.905 109.497 487.629 109.497C487.302 109.497 487.019 109.577 486.78 109.737C486.54 109.889 486.395 110.121 486.344 110.433H485.256C485.3 110.041 485.43 109.711 485.648 109.443C485.873 109.167 486.159 108.957 486.508 108.811C486.856 108.659 487.23 108.583 487.629 108.583C488.137 108.583 488.565 108.674 488.913 108.855C489.262 109.036 489.526 109.294 489.708 109.628C489.889 109.954 489.98 110.346 489.98 110.803V114.167H489.033L488.946 113.242C488.873 113.387 488.779 113.525 488.663 113.655C488.554 113.786 488.423 113.898 488.271 113.993C488.126 114.087 487.955 114.159 487.76 114.21C487.571 114.268 487.36 114.297 487.128 114.297ZM487.335 113.416C487.567 113.416 487.778 113.369 487.966 113.274C488.155 113.18 488.315 113.053 488.445 112.893C488.583 112.726 488.685 112.541 488.75 112.338C488.823 112.135 488.863 111.921 488.87 111.696V111.674H487.574C487.262 111.674 487.008 111.714 486.813 111.794C486.617 111.866 486.475 111.972 486.388 112.11C486.308 112.24 486.268 112.389 486.268 112.556C486.268 112.73 486.308 112.882 486.388 113.013C486.475 113.144 486.598 113.245 486.758 113.318C486.918 113.383 487.11 113.416 487.335 113.416ZM491.326 114.167V108.713H492.415V114.167H491.326ZM491.87 107.669C491.667 107.669 491.497 107.603 491.359 107.473C491.228 107.342 491.163 107.175 491.163 106.972C491.163 106.776 491.228 106.616 491.359 106.493C491.497 106.362 491.667 106.297 491.87 106.297C492.073 106.297 492.244 106.362 492.382 106.493C492.527 106.616 492.6 106.776 492.6 106.972C492.6 107.175 492.527 107.342 492.382 107.473C492.244 107.603 492.073 107.669 491.87 107.669ZM493.862 114.167V108.713H494.842L494.907 109.66C495.081 109.327 495.328 109.065 495.647 108.877C495.967 108.681 496.337 108.583 496.758 108.583C497.193 108.583 497.567 108.674 497.879 108.855C498.191 109.029 498.43 109.294 498.597 109.65C498.771 109.998 498.858 110.441 498.858 110.977V114.167H497.77V111.086C497.77 110.571 497.657 110.183 497.432 109.922C497.215 109.653 496.892 109.519 496.464 109.519C496.173 109.519 495.912 109.588 495.68 109.726C495.455 109.864 495.277 110.063 495.147 110.324C495.016 110.586 494.951 110.909 494.951 111.293V114.167H493.862ZM500.207 114.167V108.713H501.296V114.167H500.207ZM500.752 107.669C500.548 107.669 500.378 107.603 500.24 107.473C500.109 107.342 500.044 107.175 500.044 106.972C500.044 106.776 500.109 106.616 500.24 106.493C500.378 106.362 500.548 106.297 500.752 106.297C500.955 106.297 501.125 106.362 501.263 106.493C501.408 106.616 501.481 106.776 501.481 106.972C501.481 107.175 501.408 107.342 501.263 107.473C501.125 107.603 500.955 107.669 500.752 107.669ZM502.744 114.167V108.713H503.723L503.789 109.66C503.963 109.327 504.209 109.065 504.529 108.877C504.848 108.681 505.218 108.583 505.639 108.583C506.074 108.583 506.448 108.674 506.76 108.855C507.072 109.029 507.312 109.294 507.478 109.65C507.653 109.998 507.74 110.441 507.74 110.977V114.167H506.651V111.086C506.651 110.571 506.539 110.183 506.314 109.922C506.096 109.653 505.773 109.519 505.345 109.519C505.055 109.519 504.794 109.588 504.561 109.726C504.336 109.864 504.159 110.063 504.028 110.324C503.897 110.586 503.832 110.909 503.832 111.293V114.167H502.744ZM511.233 116.692C510.732 116.692 510.29 116.627 509.905 116.496C509.528 116.373 509.234 116.18 509.023 115.919C508.813 115.658 508.708 115.339 508.708 114.961C508.708 114.765 508.751 114.569 508.838 114.374C508.925 114.178 509.067 113.989 509.263 113.808C509.459 113.619 509.72 113.456 510.047 113.318L510.656 113.797C510.293 113.942 510.047 114.109 509.916 114.297C509.793 114.493 509.731 114.678 509.731 114.852C509.731 115.07 509.796 115.252 509.927 115.397C510.057 115.542 510.235 115.651 510.46 115.723C510.692 115.796 510.95 115.832 511.233 115.832C511.516 115.832 511.759 115.792 511.962 115.712C512.173 115.633 512.336 115.52 512.452 115.375C512.568 115.23 512.626 115.059 512.626 114.863C512.626 114.631 512.539 114.439 512.365 114.286C512.198 114.134 511.872 114.043 511.385 114.014C510.972 113.985 510.62 113.945 510.33 113.895C510.047 113.837 509.804 113.775 509.6 113.71C509.404 113.637 509.237 113.557 509.1 113.47C508.969 113.376 508.857 113.281 508.762 113.187V112.937L509.851 111.827L510.721 112.12L509.546 113.22L509.774 112.741C509.854 112.792 509.93 112.842 510.003 112.893C510.076 112.937 510.174 112.977 510.297 113.013C510.42 113.049 510.584 113.082 510.787 113.111C510.997 113.14 511.273 113.165 511.614 113.187C512.1 113.231 512.496 113.321 512.8 113.459C513.105 113.597 513.327 113.782 513.464 114.014C513.602 114.239 513.671 114.511 513.671 114.831C513.671 115.143 513.584 115.44 513.41 115.723C513.236 116.006 512.967 116.238 512.605 116.42C512.249 116.601 511.792 116.692 511.233 116.692ZM511.233 112.49C510.776 112.49 510.384 112.403 510.057 112.229C509.738 112.055 509.491 111.823 509.317 111.533C509.15 111.235 509.067 110.905 509.067 110.542C509.067 110.179 509.15 109.853 509.317 109.562C509.491 109.265 509.738 109.029 510.057 108.855C510.384 108.674 510.776 108.583 511.233 108.583C511.69 108.583 512.078 108.674 512.398 108.855C512.724 109.029 512.971 109.265 513.138 109.562C513.312 109.853 513.399 110.179 513.399 110.542C513.399 110.905 513.312 111.235 513.138 111.533C512.971 111.823 512.724 112.055 512.398 112.229C512.078 112.403 511.69 112.49 511.233 112.49ZM511.233 111.62C511.581 111.62 511.861 111.529 512.071 111.348C512.289 111.159 512.398 110.89 512.398 110.542C512.398 110.194 512.289 109.929 512.071 109.748C511.861 109.559 511.581 109.465 511.233 109.465C510.877 109.465 510.591 109.559 510.373 109.748C510.163 109.929 510.057 110.194 510.057 110.542C510.057 110.89 510.163 111.159 510.373 111.348C510.591 111.529 510.877 111.62 511.233 111.62ZM512.115 109.573L511.853 108.713H514.107V109.465L512.115 109.573Z" fill="#011552"/>
<rect x="319.748" y="88.6062" width="195.106" height="5.98485" rx="2.99242" fill="#F3EFFF"/>
<rect x="319.748" y="88.6062" width="150.55" height="5.98485" rx="2.99242" fill="url(#paint11_linear_3_249)"/>
<rect x="641.5" y="15.5" width="161.66" height="163.155" rx="8.5" fill="#F3EFFF"/>
<rect x="641.5" y="15.5" width="161.66" height="163.155" rx="8.5" stroke="#9277FF"/>
<g clip-path="url(#clip1_3_249)">
<path d="M742.695 41.8474H678.363C677.764 41.8483 677.189 42.087 676.766 42.5111C676.342 42.9352 676.104 43.5101 676.104 44.1095V131.107C676.104 131.707 676.342 132.282 676.766 132.706C677.189 133.13 677.764 133.369 678.363 133.37H742.695C743.294 133.369 743.869 133.13 744.293 132.706C744.716 132.282 744.954 131.707 744.955 131.107V44.1095C744.954 43.5101 744.716 42.9352 744.293 42.5111C743.869 42.087 743.294 41.8483 742.695 41.8474Z" fill="#F3EFFF"/>
<path d="M680.185 44.3667C679.766 44.372 679.367 44.543 679.074 44.8424C678.781 45.1418 678.619 45.5451 678.623 45.9638V128.414C678.619 128.833 678.781 129.236 679.074 129.536C679.367 129.835 679.766 130.006 680.185 130.011H740.875C741.294 130.006 741.693 129.835 741.986 129.536C742.279 129.236 742.441 128.833 742.437 128.414V45.9638C742.441 45.5451 742.279 45.1418 741.986 44.8424C741.693 44.543 741.294 44.372 740.875 44.3667H680.185Z" fill="white"/>
<path d="M683.866 48.5649C683.576 48.5813 683.303 48.7112 683.108 48.9266C682.912 49.1421 682.809 49.4258 682.821 49.7165V60.8475C682.809 61.1383 682.912 61.422 683.108 61.6374C683.303 61.8528 683.576 61.9828 683.866 61.9991H738.033C738.324 61.9828 738.596 61.8528 738.792 61.6374C738.987 61.422 739.09 61.1383 739.078 60.8475V49.7165C739.09 49.4258 738.987 49.1421 738.792 48.9266C738.596 48.7112 738.324 48.5813 738.033 48.5649H683.866Z" fill="url(#paint12_linear_3_249)"/>
<path d="M683.866 67.6184C683.583 67.6248 683.314 67.7431 683.118 67.9473C682.922 68.1515 682.815 68.425 682.821 68.7079V93.3984C682.815 93.6813 682.922 93.9548 683.118 94.159C683.314 94.3632 683.583 94.4815 683.866 94.4879H738.032C738.315 94.4815 738.584 94.3632 738.78 94.159C738.976 93.9548 739.083 93.6813 739.078 93.3984V68.7079C739.083 68.425 738.976 68.1515 738.78 67.9473C738.584 67.7431 738.315 67.6248 738.032 67.6184H683.866Z" fill="url(#paint13_linear_3_249)"/>
<path d="M732.359 51.0833H689.537V53.6025H732.359V51.0833Z" fill="white"/>
<path d="M732.359 55.9531H689.537V56.7932H732.359V55.9531Z" fill="white"/>
<path d="M732.359 58.6411H689.537V59.4812H732.359V58.6411Z" fill="white"/>
<path d="M714.593 94.4491H734.246C734.372 94.4482 734.495 94.4097 734.599 94.3384C734.703 94.2671 734.784 94.1663 734.83 94.049C734.878 93.9307 734.891 93.8009 734.866 93.6756C734.842 93.5502 734.782 93.4347 734.693 93.343L722.115 80.4718C722.057 80.412 721.988 80.3643 721.911 80.3318C721.834 80.2993 721.751 80.2825 721.668 80.2825C721.585 80.2825 721.502 80.2993 721.425 80.3318C721.348 80.3643 721.279 80.412 721.221 80.4718L718.092 83.6738C717.97 83.7996 717.824 83.8997 717.663 83.968C717.502 84.0363 717.329 84.0715 717.154 84.0715C716.979 84.0715 716.805 84.0363 716.644 83.968C716.483 83.8997 716.337 83.7996 716.216 83.6738L706.419 73.6478C706.361 73.5879 706.291 73.5403 706.215 73.5078C706.138 73.4753 706.055 73.4585 705.972 73.4585C705.888 73.4585 705.806 73.4753 705.729 73.5078C705.652 73.5403 705.583 73.5879 705.524 73.6478L686.364 93.2554C686.275 93.3471 686.214 93.4626 686.19 93.588C686.165 93.7134 686.178 93.8431 686.226 93.9614C686.272 94.0787 686.353 94.1795 686.457 94.2508C686.561 94.3221 686.684 94.3607 686.81 94.3615H714.617L714.593 94.4491Z" fill="white"/>
<path d="M691.217 76.0419C692.608 76.0419 693.736 74.914 693.736 73.5227C693.736 72.1313 692.608 71.0034 691.217 71.0034C689.825 71.0034 688.697 72.1313 688.697 73.5227C688.697 74.914 689.825 76.0419 691.217 76.0419Z" fill="white"/>
<path d="M683.866 99.2095C683.583 99.2159 683.314 99.3341 683.118 99.5383C682.922 99.7425 682.815 100.016 682.821 100.299V124.989C682.815 125.272 682.922 125.546 683.118 125.75C683.314 125.954 683.583 126.073 683.866 126.079H738.032C738.315 126.073 738.584 125.954 738.78 125.75C738.976 125.546 739.083 125.272 739.078 124.989V100.299C739.083 100.016 738.976 99.7425 738.78 99.5383C738.584 99.3341 738.315 99.2159 738.032 99.2095H683.866Z" fill="url(#paint14_linear_3_249)"/>
<path d="M714.593 126.061H734.246C734.372 126.06 734.495 126.022 734.599 125.95C734.703 125.879 734.784 125.778 734.83 125.661C734.878 125.543 734.891 125.413 734.866 125.288C734.842 125.162 734.782 125.047 734.693 124.955L722.115 112.084C722.057 112.024 721.988 111.977 721.911 111.944C721.834 111.912 721.751 111.895 721.668 111.895C721.585 111.895 721.502 111.912 721.425 111.944C721.348 111.977 721.279 112.024 721.221 112.084L718.092 115.285C717.97 115.411 717.824 115.511 717.663 115.579C717.502 115.647 717.329 115.682 717.154 115.682C716.979 115.682 716.805 115.647 716.644 115.579C716.483 115.511 716.337 115.411 716.216 115.285L706.419 105.26C706.361 105.2 706.291 105.153 706.214 105.12C706.138 105.088 706.055 105.071 705.972 105.071C705.888 105.071 705.806 105.088 705.729 105.12C705.652 105.153 705.583 105.2 705.524 105.26L686.364 124.867C686.275 124.959 686.214 125.075 686.19 125.2C686.165 125.325 686.178 125.455 686.226 125.574C686.272 125.691 686.353 125.792 686.457 125.863C686.561 125.934 686.684 125.973 686.81 125.974H714.617L714.593 126.061Z" fill="white"/>
<path d="M691.217 107.698C692.608 107.698 693.736 106.57 693.736 105.179C693.736 103.788 692.608 102.66 691.217 102.66C689.825 102.66 688.697 103.788 688.697 105.179C688.697 106.57 689.825 107.698 691.217 107.698Z" fill="white"/>
<path d="M701.546 61.1589C701.124 61.1586 700.718 61.3259 700.419 61.624C700.12 61.9222 699.951 62.3269 699.949 62.7494V151.091C699.95 151.513 700.119 151.918 700.419 152.216C700.718 152.515 701.124 152.682 701.546 152.681H767.203C767.626 152.682 768.031 152.515 768.331 152.216C768.63 151.918 768.799 151.513 768.8 151.091V62.7494C768.799 62.3268 768.63 61.9219 768.331 61.6237C768.031 61.3255 767.626 61.1583 767.203 61.1589H701.546Z" fill="#F3EFFF"/>
<path d="M703.583 64C703.163 64.0073 702.762 64.1812 702.469 64.4835C702.176 64.7858 702.015 65.1919 702.022 65.6126V148.871C702.015 149.292 702.176 149.698 702.469 150C702.762 150.302 703.163 150.476 703.583 150.484H764.274C764.694 150.476 765.095 150.302 765.388 150C765.681 149.698 765.842 149.292 765.835 148.871V65.6126C765.842 65.1919 765.681 64.7858 765.388 64.4835C765.095 64.1812 764.694 64.0073 764.274 64H703.583Z" fill="white"/>
<g clip-path="url(#clip2_3_249)">
<g clip-path="url(#clip3_3_249)">
<path d="M740.676 112.229V106.359H734.807V102.446H740.676V96.5765H744.59V102.446H750.459V106.359H744.59V112.229H740.676ZM717.197 106.359V96.5765H721.11V102.446H726.98V106.359H717.197ZM717.197 88.75V78.967H726.98V82.8802H721.11V88.75H717.197ZM740.676 88.75V82.8802H734.807V78.967H744.59V88.75H740.676Z" fill="url(#paint15_linear_3_249)"/>
</g>
</g>
<path d="M709.301 137.997V129.597H712.457C713.137 129.597 713.697 129.713 714.137 129.945C714.585 130.169 714.917 130.481 715.133 130.881C715.357 131.273 715.469 131.717 715.469 132.213C715.469 132.677 715.361 133.105 715.145 133.497C714.937 133.889 714.609 134.209 714.161 134.457C713.721 134.697 713.153 134.817 712.457 134.817H710.921V137.997H709.301ZM710.921 133.509H712.349C712.869 133.509 713.241 133.393 713.465 133.161C713.697 132.921 713.813 132.605 713.813 132.213C713.813 131.805 713.697 131.489 713.465 131.265C713.241 131.033 712.869 130.917 712.349 130.917H710.921V133.509ZM716.54 137.997V129.597H719.684C720.356 129.597 720.912 129.713 721.352 129.945C721.8 130.177 722.132 130.489 722.348 130.881C722.564 131.265 722.672 131.693 722.672 132.165C722.672 132.613 722.564 133.033 722.348 133.425C722.14 133.809 721.812 134.121 721.364 134.361C720.924 134.593 720.356 134.709 719.66 134.709H718.16V137.997H716.54ZM720.896 137.997L719.168 134.301H720.92L722.744 137.997H720.896ZM718.16 133.533H719.576C720.072 133.533 720.436 133.413 720.668 133.173C720.9 132.933 721.016 132.617 721.016 132.225C721.016 131.833 720.9 131.525 720.668 131.301C720.444 131.069 720.08 130.953 719.576 130.953H718.16V133.533ZM723.967 137.997V129.597H729.499V130.905H725.587V133.101H729.139V134.361H725.587V136.689H729.499V137.997H723.967ZM733.256 137.997L730.196 129.597H731.924L734.252 136.341L736.58 129.597H738.296L735.248 137.997H733.256ZM739.173 137.997V129.597H740.793V137.997H739.173ZM742.31 137.997V129.597H747.842V130.905H743.93V133.101H747.482V134.361H743.93V136.689H747.842V137.997H742.31ZM750.867 137.997L748.659 129.597H750.399L751.863 136.161L753.591 129.597H755.379L757.047 136.161L758.523 129.597H760.263L758.007 137.997H756.075L754.455 131.877L752.787 137.997H750.867Z" fill="#6C47FF"/>
</g>
<rect x="635.639" y="9.64023" width="173.38" height="174.875" rx="11.368" stroke="#C6B2FF" stroke-width="0.730651" stroke-dasharray="2.19 1.46"/>
<rect x="628.5" y="2.30225" width="188.056" height="189.55" rx="15.5" stroke="#F3EFFF" stroke-dasharray="2.24 1.49"/>
<defs>
<linearGradient id="paint0_linear_3_249" x1="100.556" y1="54.243" x2="57.6479" y2="51.3932" gradientUnits="userSpaceOnUse">
<stop stop-color="#F3EFFF"/>
<stop offset="0.8053" stop-color="#6C47FF"/>
</linearGradient>
<linearGradient id="paint1_linear_3_249" x1="100.56" y1="63.7378" x2="59.3953" y2="57.0333" gradientUnits="userSpaceOnUse">
<stop stop-color="#F3EFFF"/>
<stop offset="0.8053" stop-color="#6C47FF"/>
</linearGradient>
<linearGradient id="paint2_linear_3_249" x1="80.496" y1="67.9041" x2="58.5326" y2="66.0312" gradientUnits="userSpaceOnUse">
<stop stop-color="#F3EFFF"/>
<stop offset="0.8053" stop-color="#6C47FF"/>
</linearGradient>
<linearGradient id="paint3_linear_3_249" x1="100.56" y1="79.5693" x2="59.3953" y2="72.8648" gradientUnits="userSpaceOnUse">
<stop stop-color="#F3EFFF"/>
<stop offset="0.8053" stop-color="#6C47FF"/>
</linearGradient>
<linearGradient id="paint4_linear_3_249" x1="100.56" y1="87.9019" x2="59.3953" y2="81.1974" gradientUnits="userSpaceOnUse">
<stop stop-color="#F3EFFF"/>
<stop offset="0.8053" stop-color="#6C47FF"/>
</linearGradient>
<linearGradient id="paint5_linear_3_249" x1="100.56" y1="96.2344" x2="59.3953" y2="89.5299" gradientUnits="userSpaceOnUse">
<stop stop-color="#F3EFFF"/>
<stop offset="0.8053" stop-color="#6C47FF"/>
</linearGradient>
<linearGradient id="paint6_linear_3_249" x1="100.56" y1="104.567" x2="59.3953" y2="97.8624" gradientUnits="userSpaceOnUse">
<stop stop-color="#F3EFFF"/>
<stop offset="0.8053" stop-color="#6C47FF"/>
</linearGradient>
<linearGradient id="paint7_linear_3_249" x1="65.0232" y1="113.067" x2="57.9813" y2="112.906" gradientUnits="userSpaceOnUse">
<stop stop-color="#F3EFFF"/>
<stop offset="0.8053" stop-color="#6C47FF"/>
</linearGradient>
<linearGradient id="paint8_linear_3_249" x1="86.0227" y1="68.3955" x2="79.0024" y2="68.2054" gradientUnits="userSpaceOnUse">
<stop stop-color="#F3EFFF"/>
<stop offset="0.8053" stop-color="#6C47FF"/>
</linearGradient>
<linearGradient id="paint9_linear_3_249" x1="128.152" y1="80.5666" x2="85.7047" y2="74.6217" gradientUnits="userSpaceOnUse">
<stop stop-color="#F3EFFF"/>
<stop offset="0.8053" stop-color="#6C47FF"/>
</linearGradient>
<linearGradient id="paint10_linear_3_249" x1="115.073" y1="95.1666" x2="97.9708" y2="94.7878" gradientUnits="userSpaceOnUse">
<stop stop-color="#F3EFFF"/>
<stop offset="0.8053" stop-color="#6C47FF"/>
</linearGradient>
<linearGradient id="paint11_linear_3_249" x1="470.756" y1="91.798" x2="323.188" y2="67.6168" gradientUnits="userSpaceOnUse">
<stop stop-color="#F3EFFF"/>
<stop offset="0.8053" stop-color="#6C47FF"/>
</linearGradient>
<linearGradient id="paint12_linear_3_249" x1="739.25" y1="55.7297" x2="682.667" y2="54.1861" gradientUnits="userSpaceOnUse">
<stop stop-color="#F3EFFF"/>
<stop offset="0.8053" stop-color="#6C47FF"/>
</linearGradient>
<linearGradient id="paint13_linear_3_249" x1="739.249" y1="81.9485" x2="682.635" y2="81.1763" gradientUnits="userSpaceOnUse">
<stop stop-color="#F3EFFF"/>
<stop offset="0.8053" stop-color="#6C47FF"/>
</linearGradient>
<linearGradient id="paint14_linear_3_249" x1="739.249" y1="113.54" x2="682.635" y2="112.767" gradientUnits="userSpaceOnUse">
<stop stop-color="#F3EFFF"/>
<stop offset="0.8053" stop-color="#6C47FF"/>
</linearGradient>
<linearGradient id="paint15_linear_3_249" x1="750.56" y1="96.7065" x2="717.083" y2="96.4884" gradientUnits="userSpaceOnUse">
<stop stop-color="#F3EFFF"/>
<stop offset="0.8053" stop-color="#6C47FF"/>
</linearGradient>
<clipPath id="clip0_3_249">
<rect width="92.697" height="110.834" fill="white" transform="translate(49.1035 39.8472)"/>
</clipPath>
<clipPath id="clip1_3_249">
<rect width="92.697" height="110.834" fill="white" transform="translate(676.104 41.8474)"/>
</clipPath>
<clipPath id="clip2_3_249">
<rect width="35.2188" height="35.2188" fill="white" transform="translate(715.803 78.4102)"/>
</clipPath>
<clipPath id="clip3_3_249">
<rect width="35.2188" height="35.2188" fill="white" transform="translate(715.803 78.4102)"/>
</clipPath>
</defs>
</svg>
