<svg width="266" height="57" viewBox="0 0 266 57" fill="none" xmlns="http://www.w3.org/2000/svg">
<path d="M25.75 30.6742H241.75M241.75 30.6742C241.75 32.0112 241.75 15.0098 241.75 30.6742Z" stroke="#9277FF" stroke-width="2" stroke-dasharray="11.49 11.49"/>
<rect x="0.25" y="10.5" width="36" height="36" rx="18" fill="url(#paint0_radial_1_1491)"/>
<path d="M9.25 25.9904V20.9423C9.25 20.1457 9.89568 19.5 10.6923 19.5H15.7404C16.537 19.5 17.1827 20.1457 17.1827 20.9423V25.9904C17.1827 26.787 16.537 27.4327 15.7404 27.4327H10.6923C9.89568 27.4327 9.25 26.787 9.25 25.9904Z" fill="url(#paint1_linear_1_1491)"/>
<path d="M20.0664 25.9904V20.9423C20.0664 20.1457 20.7121 19.5 21.5087 19.5H26.5568C27.3535 19.5 27.9991 20.1457 27.9991 20.9423V25.9904C27.9991 26.787 27.3535 27.4327 26.5568 27.4327H21.5087C20.7121 27.4327 20.0664 26.787 20.0664 25.9904Z" fill="url(#paint2_linear_1_1491)"/>
<path d="M9.25 36.8075V31.7595C9.25 30.9628 9.89568 30.3171 10.6923 30.3171H15.7404C16.537 30.3171 17.1827 30.9628 17.1827 31.7595V36.8075C17.1827 37.6042 16.537 38.2499 15.7404 38.2499H10.6923C9.89568 38.2499 9.25 37.6042 9.25 36.8075Z" fill="url(#paint3_linear_1_1491)"/>
<path d="M20.0664 35.0047V33.5623C20.0664 33.3631 20.2279 33.2018 20.427 33.2018H22.951V30.6777C22.951 30.4784 23.1126 30.3171 23.3116 30.3171H24.7539C24.953 30.3171 25.1145 30.4784 25.1145 30.6777V33.2018H27.6386C27.8376 33.2018 27.9991 33.3631 27.9991 33.5623V35.0047C27.9991 35.2037 27.8376 35.3652 27.6386 35.3652H25.1145V37.8893C25.1145 38.0883 24.953 38.2499 24.7539 38.2499H23.3116C23.1126 38.2499 22.951 38.0883 22.951 37.8893V35.3652H20.427C20.2279 35.3652 20.0664 35.2037 20.0664 35.0047Z" fill="url(#paint4_linear_1_1491)"/>
<rect x="229.75" y="10.5" width="36" height="36" rx="18" fill="url(#paint5_radial_1_1491)"/>
<path d="M256.03 18.75H238.75L240.37 36.0827L247.389 38.047L254.408 36.0827L256.03 18.75Z" fill="#FFB020"/>
<path d="M247.39 20.1621V36.5781L253.077 34.9885L254.46 20.1621H247.39Z" fill="#FFB020"/>
<path d="M251.913 22.2883H243.169L242.56 28.7772L242.573 28.7369H250.001L249.759 31.4824L247.389 32.1551L244.984 31.4715L244.84 29.8098H242.657L242.968 33.1302L247.389 34.3685L251.812 33.1302L252.421 26.6127H244.537L244.638 24.4412H250.108L250.19 25.6853H252.392L251.913 22.2883Z" fill="white"/>
<path d="M247.391 22.2883H243.169L242.56 28.7772L242.573 28.7369H247.391V26.62H244.845L244.946 24.4485H247.391V22.2883ZM244.845 29.8109H242.656L242.968 33.1296L247.389 34.3666V32.1582L244.984 31.4728L244.845 29.8109Z" fill="#EBEBEB"/>
<circle opacity="0.3" cx="133" cy="28.5" r="28.5" fill="#6C47FF"/>
<circle cx="133" cy="28.5" r="24.75" fill="#6C47FF"/>
<rect x="113.5" y="9" width="39" height="39" rx="19.5" fill="#F3EFFF"/>
<path d="M139.381 30.6343L133.163 22.56L132.449 15V42L133.163 33.9257L139.381 30.6343Z" fill="#6C47FF"/>
<path d="M141.369 26.4168L139.941 30.5311L137.24 27.1368L141.369 26.4168ZM143.509 28.0625L141.674 26.6225L141.165 28.3197L143.509 28.0625ZM139.126 31.2511L139.075 32.0225L133.825 33.9768L139.126 31.2511ZM130.563 36.0339H131.837V34.8511H130.563V36.0339ZM130.818 31.5082H131.837V32.4854H130.818V31.5082ZM130.665 32.8968H131.837V34.0282H130.665V32.8968ZM128.473 38.0911V37.0625H129.544V38.0911H128.473ZM127.607 37.8339V37.2682H128.168V37.8339H127.607ZM128.117 36.8054V36.0339H128.932V36.8054H128.117ZM127.964 38.5539V38.0911H128.423V38.5539H127.964ZM128.932 34.9539V34.3368H129.595V34.9539H128.932ZM129.493 33.7711V32.9997H130.257V33.7711H129.493ZM131.277 30.6339H131.837V31.1482H131.277V30.6339ZM130.41 28.8339H131.837V30.1711H130.41V28.8339ZM130.767 27.4454H131.837V28.4739H130.767V27.4454ZM130.971 26.3139H131.837V27.1368H130.971V26.3139ZM130.359 25.5939H130.869V26.1082H130.359V25.5939ZM130.104 27.6511H130.563V28.0625H130.104V27.6511ZM130.869 24.3082H131.837V25.2339H130.869V24.3082ZM129.697 24.2054H130.512V24.9768H129.697V24.2054ZM129.187 21.8911H130.257V22.9197H129.187V21.8911ZM130.461 23.2282H131.277V24.0511H130.461V23.2282ZM131.175 22.4054H131.837V23.0225H131.175V22.4054ZM123.122 21.0682H123.784V21.6854H123.122V21.0682ZM124.192 20.7082H124.804V21.3254H124.192V20.7082ZM125.466 20.9654H126.69V22.1482H125.466V20.9654ZM128.575 23.9482H129.187V24.5654H128.575V23.9482ZM129.493 26.4682H130.054V26.9825H129.493V26.4682ZM128.626 25.1825H129.493V26.0054H128.626V25.1825ZM127.301 23.9482H127.913V24.5654H127.301V23.9482ZM124.702 22.1997H125.11V22.6111H124.702V22.1997ZM127.403 21.4282H128.219V22.2511H127.403V21.4282ZM126.18 23.0225H126.893V23.6911H126.18V23.0225ZM122.969 22.1482H123.377V22.5597H122.969V22.1482ZM123.479 22.8168H124.294V23.6397H123.479V22.8168ZM124.855 23.2282H125.517V23.8454H124.855V23.2282ZM124.651 24.2054H125.11V24.6682H124.651V24.2054ZM125.415 24.8739H125.874V25.2854H125.415V24.8739ZM126.129 24.7197H126.995V25.5939H126.129V24.7197ZM127.199 25.6454H127.607V26.1082H127.199V25.6454ZM127.556 26.3654H128.015V26.7768H127.556V26.3654ZM128.219 26.5711H129.238V27.5482H128.219V26.5711ZM129.493 28.1654H129.901V28.6282H129.493V28.1654ZM129.136 36.0339V35.5711H129.595V36.0339H129.136ZM127.301 38.7082V38.4511H127.607V38.7082H127.301ZM122 20.4511H122.459V20.9139H122V20.4511ZM130.155 36.8568V36.3939H130.614V36.8568H130.155ZM129.952 35.5711V35.3139H130.257V35.5711H129.952ZM127.505 22.6111H128.372V23.4854H127.505V22.6111Z" fill="#6C47FF"/>
<defs>
<radialGradient id="paint0_radial_1_1491" cx="0" cy="0" r="1" gradientUnits="userSpaceOnUse" gradientTransform="translate(18.25 28.5) rotate(45) scale(25.4558)">
<stop stop-color="white"/>
<stop offset="1" stop-color="#FAFBFD"/>
</radialGradient>
<linearGradient id="paint1_linear_1_1491" x1="17.2068" y1="23.7307" x2="9.22278" y2="23.6787" gradientUnits="userSpaceOnUse">
<stop stop-color="#F3EFFF"/>
<stop offset="0.8053" stop-color="#6C47FF"/>
</linearGradient>
<linearGradient id="paint2_linear_1_1491" x1="28.0232" y1="23.7307" x2="20.0392" y2="23.6787" gradientUnits="userSpaceOnUse">
<stop stop-color="#F3EFFF"/>
<stop offset="0.8053" stop-color="#6C47FF"/>
</linearGradient>
<linearGradient id="paint3_linear_1_1491" x1="17.2068" y1="34.5478" x2="9.22278" y2="34.4958" gradientUnits="userSpaceOnUse">
<stop stop-color="#F3EFFF"/>
<stop offset="0.8053" stop-color="#6C47FF"/>
</linearGradient>
<linearGradient id="paint4_linear_1_1491" x1="28.0232" y1="34.5478" x2="20.0392" y2="34.4958" gradientUnits="userSpaceOnUse">
<stop stop-color="#F3EFFF"/>
<stop offset="0.8053" stop-color="#6C47FF"/>
</linearGradient>
<radialGradient id="paint5_radial_1_1491" cx="0" cy="0" r="1" gradientUnits="userSpaceOnUse" gradientTransform="translate(247.75 28.5) rotate(45) scale(25.4558)">
<stop stop-color="white"/>
<stop offset="1" stop-color="#FAFBFD"/>
</radialGradient>
</defs>
</svg>
