<svg width="266" height="57" viewBox="0 0 266 57" fill="none" xmlns="http://www.w3.org/2000/svg">
<path d="M25.75 30.6742H241.75M241.75 30.6742C241.75 32.0112 241.75 15.0098 241.75 30.6742Z" stroke="#9277FF" stroke-width="2" stroke-dasharray="11.49 11.49"/>
<rect x="0.25" y="10.5" width="36" height="36" rx="18" fill="url(#paint0_radial_1_1522)"/>
<path d="M24.25 26.1476L30.25 28.3547V29.9404L24.25 32.1476V30.6236L28.4474 29.1476L24.25 27.6601V26.1476Z" fill="url(#paint1_linear_1_1522)"/>
<path d="M20.977 34.3294H19.3596L15.5225 23.4203H17.1398L20.977 34.3294Z" fill="url(#paint2_linear_1_1522)"/>
<path d="M11.7045 26.1476V27.6601L7.88872 29.1476L11.7045 30.6236V32.1476L6.25 29.9404V28.3547L11.7045 26.1476Z" fill="url(#paint3_linear_1_1522)"/>
<rect x="229.75" y="10.5" width="36" height="36" rx="18" fill="url(#paint4_radial_1_1522)"/>
<path d="M250.099 18.4999H245.399C244.359 18.4999 243.509 19.3399 243.509 20.3799V21.3199C243.509 22.3599 244.349 23.1999 245.389 23.1999H250.099C251.139 23.1999 251.979 22.3599 251.979 21.3199V20.3799C251.989 19.3399 251.139 18.4999 250.099 18.4999Z" fill="url(#paint5_linear_1_1522)"/>
<path d="M252.99 21.32C252.99 22.91 251.69 24.21 250.1 24.21H245.4C243.81 24.21 242.51 22.91 242.51 21.32C242.51 20.76 241.91 20.41 241.41 20.67C240 21.42 239.04 22.91 239.04 24.62V34.03C239.04 36.49 241.05 38.5 243.51 38.5H251.99C254.45 38.5 256.46 36.49 256.46 34.03V24.62C256.46 22.91 255.5 21.42 254.09 20.67C253.59 20.41 252.99 20.76 252.99 21.32ZM251.09 29.23L247.09 33.23C246.94 33.38 246.75 33.45 246.56 33.45C246.37 33.45 246.18 33.38 246.03 33.23L244.53 31.73C244.24 31.44 244.24 30.96 244.53 30.67C244.82 30.38 245.3 30.38 245.59 30.67L246.56 31.64L250.03 28.17C250.32 27.88 250.8 27.88 251.09 28.17C251.38 28.46 251.38 28.94 251.09 29.23Z" fill="url(#paint6_linear_1_1522)"/>
<rect x="239.125" y="25.5" width="17.25" height="9" fill="url(#paint7_linear_1_1522)"/>
<path d="M245.477 30.9258V33.4513C245.477 33.7484 245.699 33.9713 245.997 33.9713H250.231C250.528 33.9713 250.751 33.7484 250.751 33.4513V30.9258C250.751 30.6286 250.528 30.4058 250.231 30.4058H245.997C245.699 30.4801 245.477 30.7029 245.477 30.9258ZM248.225 32.1885L248.299 32.9313H247.854L247.928 32.1885C247.779 32.1143 247.705 31.9657 247.779 31.8171C247.779 31.6686 247.928 31.52 248.076 31.52C248.299 31.52 248.448 31.6686 248.448 31.8914C248.448 31.9657 248.374 32.1143 248.225 32.1885Z" fill="white"/>
<path d="M248.076 26.7664C247.036 26.7664 246.145 27.6577 246.145 28.6977V29.6633H246.813V28.6977C246.813 28.0291 247.407 27.4349 248.076 27.4349C248.744 27.4349 249.339 28.0291 249.339 28.6977V30.4061H250.007V28.6977C250.007 27.6577 249.19 26.7664 248.076 26.7664Z" fill="white"/>
<circle opacity="0.3" cx="133" cy="28.5" r="28.5" fill="#6C47FF"/>
<circle cx="133" cy="28.5" r="24.75" fill="#6C47FF"/>
<rect x="113.5" y="9" width="39" height="39" rx="19.5" fill="#F3EFFF"/>
<path d="M139.381 30.6343L133.163 22.56L132.449 15V42L133.163 33.9257L139.381 30.6343Z" fill="#6C47FF"/>
<path d="M141.369 26.4168L139.941 30.5311L137.24 27.1368L141.369 26.4168ZM143.509 28.0625L141.674 26.6225L141.165 28.3197L143.509 28.0625ZM139.126 31.2511L139.075 32.0225L133.825 33.9768L139.126 31.2511ZM130.563 36.0339H131.837V34.8511H130.563V36.0339ZM130.818 31.5082H131.837V32.4854H130.818V31.5082ZM130.665 32.8968H131.837V34.0282H130.665V32.8968ZM128.473 38.0911V37.0625H129.544V38.0911H128.473ZM127.607 37.8339V37.2682H128.168V37.8339H127.607ZM128.117 36.8054V36.0339H128.932V36.8054H128.117ZM127.964 38.5539V38.0911H128.423V38.5539H127.964ZM128.932 34.9539V34.3368H129.595V34.9539H128.932ZM129.493 33.7711V32.9997H130.257V33.7711H129.493ZM131.277 30.6339H131.837V31.1482H131.277V30.6339ZM130.41 28.8339H131.837V30.1711H130.41V28.8339ZM130.767 27.4454H131.837V28.4739H130.767V27.4454ZM130.971 26.3139H131.837V27.1368H130.971V26.3139ZM130.359 25.5939H130.869V26.1082H130.359V25.5939ZM130.104 27.6511H130.563V28.0625H130.104V27.6511ZM130.869 24.3082H131.837V25.2339H130.869V24.3082ZM129.697 24.2054H130.512V24.9768H129.697V24.2054ZM129.187 21.8911H130.257V22.9197H129.187V21.8911ZM130.461 23.2282H131.277V24.0511H130.461V23.2282ZM131.175 22.4054H131.837V23.0225H131.175V22.4054ZM123.122 21.0682H123.784V21.6854H123.122V21.0682ZM124.192 20.7082H124.804V21.3254H124.192V20.7082ZM125.466 20.9654H126.69V22.1482H125.466V20.9654ZM128.575 23.9482H129.187V24.5654H128.575V23.9482ZM129.493 26.4682H130.054V26.9825H129.493V26.4682ZM128.626 25.1825H129.493V26.0054H128.626V25.1825ZM127.301 23.9482H127.913V24.5654H127.301V23.9482ZM124.702 22.1997H125.11V22.6111H124.702V22.1997ZM127.403 21.4282H128.219V22.2511H127.403V21.4282ZM126.18 23.0225H126.893V23.6911H126.18V23.0225ZM122.969 22.1482H123.377V22.5597H122.969V22.1482ZM123.479 22.8168H124.294V23.6397H123.479V22.8168ZM124.855 23.2282H125.517V23.8454H124.855V23.2282ZM124.651 24.2054H125.11V24.6682H124.651V24.2054ZM125.415 24.8739H125.874V25.2854H125.415V24.8739ZM126.129 24.7197H126.995V25.5939H126.129V24.7197ZM127.199 25.6454H127.607V26.1082H127.199V25.6454ZM127.556 26.3654H128.015V26.7768H127.556V26.3654ZM128.219 26.5711H129.238V27.5482H128.219V26.5711ZM129.493 28.1654H129.901V28.6282H129.493V28.1654ZM129.136 36.0339V35.5711H129.595V36.0339H129.136ZM127.301 38.7082V38.4511H127.607V38.7082H127.301ZM122 20.4511H122.459V20.9139H122V20.4511ZM130.155 36.8568V36.3939H130.614V36.8568H130.155ZM129.952 35.5711V35.3139H130.257V35.5711H129.952ZM127.505 22.6111H128.372V23.4854H127.505V22.6111Z" fill="#6C47FF"/>
<defs>
<radialGradient id="paint0_radial_1_1522" cx="0" cy="0" r="1" gradientUnits="userSpaceOnUse" gradientTransform="translate(18.25 28.5) rotate(45) scale(25.4558)">
<stop stop-color="white"/>
<stop offset="1" stop-color="#FAFBFD"/>
</radialGradient>
<linearGradient id="paint1_linear_1_1522" x1="30.2682" y1="29.3475" x2="24.2294" y2="29.3081" gradientUnits="userSpaceOnUse">
<stop stop-color="#F3EFFF"/>
<stop offset="0.8053" stop-color="#6C47FF"/>
</linearGradient>
<linearGradient id="paint2_linear_1_1522" x1="20.9936" y1="29.2383" x2="15.5036" y2="29.2205" gradientUnits="userSpaceOnUse">
<stop stop-color="#F3EFFF"/>
<stop offset="0.8053" stop-color="#6C47FF"/>
</linearGradient>
<linearGradient id="paint3_linear_1_1522" x1="11.7211" y1="29.3475" x2="6.23124" y2="29.315" gradientUnits="userSpaceOnUse">
<stop stop-color="#F3EFFF"/>
<stop offset="0.8053" stop-color="#6C47FF"/>
</linearGradient>
<radialGradient id="paint4_radial_1_1522" cx="0" cy="0" r="1" gradientUnits="userSpaceOnUse" gradientTransform="translate(247.75 28.5) rotate(45) scale(25.4558)">
<stop stop-color="white"/>
<stop offset="1" stop-color="#FAFBFD"/>
</radialGradient>
<linearGradient id="paint5_linear_1_1522" x1="252.005" y1="21.0065" x2="243.481" y2="20.9064" gradientUnits="userSpaceOnUse">
<stop stop-color="#F3EFFF"/>
<stop offset="0.8053" stop-color="#6C47FF"/>
</linearGradient>
<linearGradient id="paint6_linear_1_1522" x1="256.513" y1="30.1383" x2="238.98" y2="30.0273" gradientUnits="userSpaceOnUse">
<stop stop-color="#F3EFFF"/>
<stop offset="0.8053" stop-color="#6C47FF"/>
</linearGradient>
<linearGradient id="paint7_linear_1_1522" x1="256.427" y1="30.2999" x2="239.068" y2="30.0831" gradientUnits="userSpaceOnUse">
<stop stop-color="#F3EFFF"/>
<stop offset="0.8053" stop-color="#6C47FF"/>
</linearGradient>
</defs>
</svg>
