<svg width="266" height="58" viewBox="0 0 266 58" fill="none" xmlns="http://www.w3.org/2000/svg">
<path d="M25.75 31.1742H241.75M241.75 31.1742C241.75 32.5112 241.75 15.5098 241.75 31.1742Z" stroke="#9277FF" stroke-width="2" stroke-dasharray="11.49 11.49"/>
<rect x="0.25" y="11" width="36" height="36" rx="18" fill="url(#paint0_radial_1_1432)"/>
<path fill-rule="evenodd" clip-rule="evenodd" d="M7.00013 38.8875C7.00065 39.2487 7.14434 39.5948 7.39969 39.8502C7.65505 40.1055 8.00122 40.2492 8.36234 40.2498H13.0462C13.1148 40.2476 13.1799 40.2189 13.2276 40.1697C13.2754 40.1204 13.3021 40.0545 13.3021 39.9859C13.3021 39.9173 13.2754 39.8514 13.2276 39.8021C13.1799 39.7528 13.1148 39.7241 13.0462 39.722H8.36234C8.14102 39.7217 7.92883 39.6337 7.7723 39.4772C7.61578 39.3208 7.52769 39.1086 7.52736 38.8873V34.2036C7.52845 34.1683 7.52244 34.1332 7.50968 34.1002C7.49692 34.0673 7.47767 34.0373 7.45309 34.0119C7.4285 33.9866 7.39907 33.9664 7.36655 33.9526C7.33402 33.9389 7.29906 33.9318 7.26374 33.9318C7.22843 33.9318 7.19347 33.9389 7.16094 33.9526C7.12842 33.9664 7.09899 33.9866 7.0744 34.0119C7.04981 34.0373 7.03057 34.0673 7.01781 34.1002C7.00505 34.1332 6.99904 34.1683 7.00013 34.2036V38.8875ZM7.00013 23.7961V19.1125C7.00059 18.7513 7.14426 18.4051 7.39962 18.1497C7.65499 17.8944 8.0012 17.7507 8.36234 17.7502H13.0462C13.1162 17.7502 13.1833 17.778 13.2327 17.8275C13.2822 17.877 13.31 17.944 13.31 18.014C13.31 18.0839 13.2822 18.151 13.2327 18.2005C13.1833 18.25 13.1162 18.2777 13.0462 18.2777H8.36234C8.141 18.2781 7.92881 18.3661 7.77229 18.5227C7.61577 18.6792 7.52769 18.8914 7.52736 19.1127V23.7961C7.52845 23.8314 7.52244 23.8666 7.50968 23.8995C7.49692 23.9324 7.47767 23.9625 7.45309 23.9878C7.4285 24.0132 7.39907 24.0334 7.36655 24.0471C7.33402 24.0609 7.29906 24.068 7.26374 24.068C7.22843 24.068 7.19347 24.0609 7.16094 24.0471C7.12842 24.0334 7.09899 24.0132 7.0744 23.9878C7.04981 23.9625 7.03057 23.9324 7.01781 23.8995C7.00505 23.8666 6.99904 23.8314 7.00013 23.7961ZM29.4996 19.1125V23.7961C29.4996 23.8661 29.4718 23.9331 29.4224 23.9826C29.3729 24.0321 29.3058 24.0599 29.2359 24.0599C29.1659 24.0599 29.0988 24.0321 29.0494 23.9826C28.9999 23.9331 28.9721 23.8661 28.9721 23.7961V19.1125C28.9719 18.8911 28.8838 18.6789 28.7273 18.5223C28.5708 18.3658 28.3585 18.2778 28.1372 18.2775H23.4535C23.3836 18.2775 23.3165 18.2497 23.267 18.2002C23.2176 18.1508 23.1898 18.0837 23.1898 18.0137C23.1898 17.9438 23.2176 17.8767 23.267 17.8272C23.3165 17.7778 23.3836 17.75 23.4535 17.75H28.1372C28.4984 17.7504 28.8447 17.8941 29.1001 18.1495C29.3556 18.4049 29.4992 18.7512 29.4996 19.1125ZM29.4996 34.2036C29.4996 34.1337 29.4718 34.0666 29.4224 34.0171C29.3729 33.9677 29.3058 33.9399 29.2359 33.9399C29.1659 33.9399 29.0988 33.9677 29.0494 34.0171C28.9999 34.0666 28.9721 34.1337 28.9721 34.2036V38.8875C28.9719 39.1089 28.8838 39.3211 28.7273 39.4776C28.5707 39.6341 28.3585 39.7221 28.1372 39.7223H23.4535C23.3849 39.7244 23.3199 39.7531 23.2721 39.8024C23.2243 39.8516 23.1976 39.9175 23.1976 39.9861C23.1976 40.0547 23.2243 40.1207 23.2721 40.1699C23.3199 40.2192 23.3849 40.2479 23.4535 40.25H28.1372C28.4984 40.2495 28.8446 40.1058 29.1001 39.8504C29.3555 39.595 29.4992 39.2487 29.4996 38.8875V34.2036ZM18.2499 20.3822L11.05 24.5388L18.2499 28.6953L25.4497 24.5388L18.2499 20.3822ZM18.5136 37.4653V29.152L25.7135 24.9956V33.3087L18.5136 37.4653ZM10.7868 24.9956L17.9866 29.152V37.4653L10.7868 33.3087V24.9956Z" fill="url(#paint1_linear_1_1432)"/>
<rect x="229.75" y="11" width="36" height="36" rx="18" fill="url(#paint2_radial_1_1432)"/>
<path d="M239.5 19.25L241.054 36.8L248.031 38.75L255.006 36.8012L256.562 19.25H239.5Z" fill="#2196F3"/>
<path d="M253.239 24.9892L253.043 27.1939L252.451 33.8032L248.03 35.0256L248.027 35.0269L243.609 33.8032L243.3 30.3469H245.465L245.626 32.1396L248.028 32.788L248.029 32.7868L250.435 32.1384L250.763 29.1513L243.197 29.172L242.982 27.1294L250.944 27.0355L251.105 24.8491L242.769 24.8722L242.629 22.8381H253.432L253.239 24.9892Z" fill="#FAFAFA"/>
<circle opacity="0.3" cx="133" cy="29" r="28.5" fill="#6C47FF"/>
<circle cx="133" cy="29" r="24.75" fill="#6C47FF"/>
<rect x="113.5" y="9.5" width="39" height="39" rx="19.5" fill="#F3EFFF"/>
<path d="M139.381 31.1343L133.163 23.06L132.449 15.5V42.5L133.163 34.4257L139.381 31.1343Z" fill="#6C47FF"/>
<path d="M141.369 26.9168L139.941 31.0311L137.24 27.6368L141.369 26.9168ZM143.509 28.5625L141.674 27.1225L141.165 28.8197L143.509 28.5625ZM139.126 31.7511L139.075 32.5225L133.825 34.4768L139.126 31.7511ZM130.563 36.5339H131.837V35.3511H130.563V36.5339ZM130.818 32.0082H131.837V32.9854H130.818V32.0082ZM130.665 33.3968H131.837V34.5282H130.665V33.3968ZM128.473 38.5911V37.5625H129.544V38.5911H128.473ZM127.607 38.3339V37.7682H128.168V38.3339H127.607ZM128.117 37.3054V36.5339H128.932V37.3054H128.117ZM127.964 39.0539V38.5911H128.423V39.0539H127.964ZM128.932 35.4539V34.8368H129.595V35.4539H128.932ZM129.493 34.2711V33.4997H130.257V34.2711H129.493ZM131.277 31.1339H131.837V31.6482H131.277V31.1339ZM130.41 29.3339H131.837V30.6711H130.41V29.3339ZM130.767 27.9454H131.837V28.9739H130.767V27.9454ZM130.971 26.8139H131.837V27.6368H130.971V26.8139ZM130.359 26.0939H130.869V26.6082H130.359V26.0939ZM130.104 28.1511H130.563V28.5625H130.104V28.1511ZM130.869 24.8082H131.837V25.7339H130.869V24.8082ZM129.697 24.7054H130.512V25.4768H129.697V24.7054ZM129.187 22.3911H130.257V23.4197H129.187V22.3911ZM130.461 23.7282H131.277V24.5511H130.461V23.7282ZM131.175 22.9054H131.837V23.5225H131.175V22.9054ZM123.122 21.5682H123.784V22.1854H123.122V21.5682ZM124.192 21.2082H124.804V21.8254H124.192V21.2082ZM125.466 21.4654H126.69V22.6482H125.466V21.4654ZM128.575 24.4482H129.187V25.0654H128.575V24.4482ZM129.493 26.9682H130.054V27.4825H129.493V26.9682ZM128.626 25.6825H129.493V26.5054H128.626V25.6825ZM127.301 24.4482H127.913V25.0654H127.301V24.4482ZM124.702 22.6997H125.11V23.1111H124.702V22.6997ZM127.403 21.9282H128.219V22.7511H127.403V21.9282ZM126.18 23.5225H126.893V24.1911H126.18V23.5225ZM122.969 22.6482H123.377V23.0597H122.969V22.6482ZM123.479 23.3168H124.294V24.1397H123.479V23.3168ZM124.855 23.7282H125.517V24.3454H124.855V23.7282ZM124.651 24.7054H125.11V25.1682H124.651V24.7054ZM125.415 25.3739H125.874V25.7854H125.415V25.3739ZM126.129 25.2197H126.995V26.0939H126.129V25.2197ZM127.199 26.1454H127.607V26.6082H127.199V26.1454ZM127.556 26.8654H128.015V27.2768H127.556V26.8654ZM128.219 27.0711H129.238V28.0482H128.219V27.0711ZM129.493 28.6654H129.901V29.1282H129.493V28.6654ZM129.136 36.5339V36.0711H129.595V36.5339H129.136ZM127.301 39.2082V38.9511H127.607V39.2082H127.301ZM122 20.9511H122.459V21.4139H122V20.9511ZM130.155 37.3568V36.8939H130.614V37.3568H130.155ZM129.952 36.0711V35.8139H130.257V36.0711H129.952ZM127.505 23.1111H128.372V23.9854H127.505V23.1111Z" fill="#6C47FF"/>
<defs>
<radialGradient id="paint0_radial_1_1432" cx="0" cy="0" r="1" gradientUnits="userSpaceOnUse" gradientTransform="translate(18.25 29) rotate(45) scale(25.4558)">
<stop stop-color="white"/>
<stop offset="1" stop-color="#FAFBFD"/>
</radialGradient>
<linearGradient id="paint1_linear_1_1432" x1="29.568" y1="29.7497" x2="6.92279" y2="29.6022" gradientUnits="userSpaceOnUse">
<stop stop-color="#F3EFFF"/>
<stop offset="0.8053" stop-color="#6C47FF"/>
</linearGradient>
<radialGradient id="paint2_radial_1_1432" cx="0" cy="0" r="1" gradientUnits="userSpaceOnUse" gradientTransform="translate(247.75 29) rotate(45) scale(25.4558)">
<stop stop-color="white"/>
<stop offset="1" stop-color="#FAFBFD"/>
</radialGradient>
</defs>
</svg>
