<svg width="487" height="379" viewBox="0 0 487 379" fill="none" xmlns="http://www.w3.org/2000/svg">
<line x1="237" y1="81.4487" x2="332" y2="81.4487" stroke="#C6B2FF" stroke-width="2" stroke-dasharray="7.24 4.49"/>
<rect x="281.121" y="72" width="14" height="3" rx="1.5" transform="rotate(45 281.121 72)" fill="#C6B2FF"/>
<rect x="291.021" y="81.8994" width="14" height="3" rx="1.5" transform="rotate(135 291.021 81.8994)" fill="#C6B2FF"/>
<line x1="368.383" y1="120.168" x2="368.383" y2="215.168" stroke="#C6B2FF" stroke-width="2" stroke-dasharray="7.24 4.49"/>
<rect x="377.91" y="163.121" width="14" height="3" rx="1.5" transform="rotate(135 377.91 163.121)" fill="#C6B2FF"/>
<rect x="368.01" y="173.021" width="14" height="3" rx="1.5" transform="rotate(-135 368.01 173.021)" fill="#C6B2FF"/>
<path d="M7.3211 0.5L7.32058 0.5C5.511 0.501866 3.77618 1.22202 2.49727 2.50224C1.21837 3.78247 0.499999 5.51804 0.5 7.32761V157.031C0.5 158.747 1.18154 160.392 2.39468 161.605C3.60782 162.818 5.25319 163.5 6.96883 163.5H229.225C231.498 163.5 233.677 162.597 235.284 160.99C236.891 159.383 237.794 157.203 237.794 154.931V7.32761C237.794 6.431 237.618 5.54317 237.274 4.7148C236.931 3.88643 236.428 3.13376 235.794 2.49976L235.441 2.85332L235.794 2.49976C235.16 1.86576 234.408 1.36284 233.579 1.01972C232.751 0.676599 231.863 0.5 230.966 0.5L7.3211 0.5Z" fill="#F3EFFF" stroke="#C6B2FF"/>
<path d="M46.0142 24.236H32.9807C31.9773 24.236 31.1639 25.0493 31.1639 26.0527C31.1639 27.0561 31.9773 27.8695 32.9807 27.8695H46.0142C47.0176 27.8695 47.831 27.0561 47.831 26.0527C47.831 25.0493 47.0176 24.236 46.0142 24.236Z" fill="white"/>
<path d="M37.6774 40.5117H32.9807C31.9773 40.5117 31.1639 41.3251 31.1639 42.3285C31.1639 43.3318 31.9773 44.1452 32.9807 44.1452H37.6774C38.6808 44.1452 39.4942 43.3318 39.4942 42.3285C39.4942 41.3251 38.6808 40.5117 37.6774 40.5117Z" fill="url(#paint0_linear_1_968)"/>
<path d="M47.3523 48.6987H39.2503C38.247 48.6987 37.4336 49.5121 37.4336 50.5155C37.4336 51.5188 38.247 52.3322 39.2503 52.3322H47.3523C48.3557 52.3322 49.169 51.5188 49.169 50.5155C49.169 49.5121 48.3557 48.6987 47.3523 48.6987Z" fill="white"/>
<path d="M56.0548 48.6982H52.8519C51.8485 48.6982 51.0352 49.5116 51.0352 50.515C51.0352 51.5183 51.8485 52.3317 52.8519 52.3317H56.0548C57.0582 52.3317 57.8716 51.5183 57.8716 50.515C57.8716 49.5116 57.0582 48.6982 56.0548 48.6982Z" fill="white"/>
<path d="M117.347 48.6985H106.922C105.919 48.6985 105.106 49.5119 105.106 50.5152C105.106 51.5186 105.919 52.332 106.922 52.332H117.347C118.35 52.332 119.163 51.5186 119.163 50.5152C119.163 49.5119 118.35 48.6985 117.347 48.6985Z" fill="white"/>
<path d="M158.444 56.6763H138.327C137.323 56.6763 136.51 57.4897 136.51 58.493C136.51 59.4964 137.323 60.3098 138.327 60.3098H158.444C159.448 60.3098 160.261 59.4964 160.261 58.493C160.261 57.4897 159.448 56.6763 158.444 56.6763Z" fill="white"/>
<path d="M195.093 48.6987H187.317C186.313 48.6987 185.5 49.5121 185.5 50.5155C185.5 51.5188 186.313 52.3322 187.317 52.3322H195.093C196.096 52.3322 196.909 51.5188 196.909 50.5155C196.909 49.5121 196.096 48.6987 195.093 48.6987Z" fill="white"/>
<path d="M221.524 48.6985H202.221C201.218 48.6985 200.404 49.5119 200.404 50.5152C200.404 51.5186 201.218 52.332 202.221 52.332H221.524C222.527 52.332 223.34 51.5186 223.34 50.5152C223.34 49.5119 222.527 48.6985 221.524 48.6985Z" fill="white"/>
<path d="M47.3523 56.6763H39.2503C38.247 56.6763 37.4336 57.4897 37.4336 58.493C37.4336 59.4964 38.247 60.3098 39.2503 60.3098H47.3523C48.3557 60.3098 49.169 59.4964 49.169 58.493C49.169 57.4897 48.3557 56.6763 47.3523 56.6763Z" fill="white"/>
<path d="M40.1432 64.635H32.0413C31.0379 64.635 30.2245 65.4484 30.2245 66.4518C30.2245 67.4551 31.0379 68.2685 32.0413 68.2685H40.1432C41.1466 68.2685 41.96 67.4551 41.96 66.4518C41.96 65.4484 41.1466 64.635 40.1432 64.635Z" fill="url(#paint1_linear_1_968)"/>
<path d="M40.1355 72.6001H38.2894C37.286 72.6001 36.4727 73.4135 36.4727 74.4168C36.4727 75.4202 37.286 76.2336 38.2894 76.2336H40.1355C41.1389 76.2336 41.9522 75.4202 41.9522 74.4168C41.9522 73.4135 41.1389 72.6001 40.1355 72.6001Z" fill="white"/>
<path d="M60.2605 89.3647H58.4144C57.411 89.3647 56.5977 90.1781 56.5977 91.1815C56.5977 92.1848 57.411 92.9982 58.4144 92.9982H60.2605C61.2639 92.9982 62.0772 92.1848 62.0772 91.1815C62.0772 90.1781 61.2639 89.3647 60.2605 89.3647Z" fill="white"/>
<path d="M140.902 119.666H133.824C132.821 119.666 132.008 120.479 132.008 121.482C132.008 122.486 132.821 123.299 133.824 123.299H140.902C141.906 123.299 142.719 122.486 142.719 121.482C142.719 120.479 141.906 119.666 140.902 119.666Z" fill="white"/>
<path d="M200.747 119.666H178.137C177.134 119.666 176.32 120.479 176.32 121.482C176.32 122.486 177.134 123.299 178.137 123.299H200.747C201.75 123.299 202.564 122.486 202.564 121.482C202.564 120.479 201.75 119.666 200.747 119.666Z" fill="white"/>
<path d="M100.574 111.714H93.4964C92.4931 111.714 91.6797 112.527 91.6797 113.531C91.6797 114.534 92.4931 115.347 93.4964 115.347H100.574C101.578 115.347 102.391 114.534 102.391 113.531C102.391 112.527 101.578 111.714 100.574 111.714Z" fill="url(#paint2_linear_1_968)"/>
<path d="M61.7677 104.884H54.6899C53.6866 104.884 52.8732 105.697 52.8732 106.7C52.8732 107.704 53.6866 108.517 54.6899 108.517H61.7677C62.7711 108.517 63.5845 107.704 63.5845 106.7C63.5845 105.697 62.7711 104.884 61.7677 104.884Z" fill="white"/>
<path d="M127.974 119.666H114.719C113.716 119.666 112.902 120.479 112.902 121.482C112.902 122.486 113.716 123.299 114.719 123.299H127.974C128.978 123.299 129.791 122.486 129.791 121.482C129.791 120.479 128.978 119.666 127.974 119.666Z" fill="white"/>
<path d="M43.5537 80.708H38.2894C37.286 80.708 36.4727 81.5214 36.4727 82.5247C36.4727 83.5281 37.286 84.3415 38.2894 84.3415H43.5537C44.5571 84.3415 45.3705 83.5281 45.3705 82.5247C45.3705 81.5214 44.5571 80.708 43.5537 80.708Z" fill="white"/>
<path d="M51.1599 89.502H38.2894C37.286 89.502 36.4727 90.3153 36.4727 91.3187C36.4727 92.3221 37.286 93.1354 38.2894 93.1354H51.1599C52.1633 93.1354 52.9766 92.3221 52.9766 91.3187C52.9766 90.3153 52.1633 89.502 51.1599 89.502Z" fill="white"/>
<path d="M58.7987 96.2402H38.2894C37.286 96.2402 36.4727 97.0536 36.4727 98.057C36.4727 99.0603 37.286 99.8737 38.2894 99.8737H58.7987C59.8021 99.8737 60.6154 99.0603 60.6154 98.057C60.6154 97.0536 59.8021 96.2402 58.7987 96.2402Z" fill="white"/>
<path d="M102.545 96.2402H82.0355C81.0321 96.2402 80.2188 97.0536 80.2188 98.057C80.2188 99.0603 81.0321 99.8737 82.0355 99.8737H102.545C103.548 99.8737 104.362 99.0603 104.362 98.057C104.362 97.0536 103.548 96.2402 102.545 96.2402Z" fill="white"/>
<path d="M84.743 111.714H54.4748C53.4715 111.714 52.6581 112.527 52.6581 113.53C52.6581 114.534 53.4715 115.347 54.4748 115.347H84.743C85.7464 115.347 86.5598 114.534 86.5598 113.53C86.5598 112.527 85.7464 111.714 84.743 111.714Z" fill="url(#paint3_linear_1_968)"/>
<path d="M108.181 119.666H54.4748C53.4715 119.666 52.6581 120.479 52.6581 121.482C52.6581 122.486 53.4715 123.299 54.4748 123.299H108.181C109.185 123.299 109.998 122.486 109.998 121.482C109.998 120.479 109.185 119.666 108.181 119.666Z" fill="white"/>
<path d="M90.8359 127.618H37.1294C36.1261 127.618 35.3127 128.431 35.3127 129.434C35.3127 130.438 36.1261 131.251 37.1294 131.251H90.8359C91.8393 131.251 92.6526 130.438 92.6526 129.434C92.6526 128.431 91.8393 127.618 90.8359 127.618Z" fill="url(#paint4_linear_1_968)"/>
<path d="M75.833 96.2402H64.9847C63.9814 96.2402 63.168 97.0536 63.168 98.057C63.168 99.0603 63.9814 99.8737 64.9847 99.8737H75.833C76.8363 99.8737 77.6497 99.0603 77.6497 98.057C77.6497 97.0536 76.8363 96.2402 75.833 96.2402Z" fill="url(#paint5_linear_1_968)"/>
<path d="M57.2472 72.6H45.9357C44.9324 72.6 44.119 73.4134 44.119 74.4167C44.119 75.4201 44.9324 76.2335 45.9357 76.2335H57.2472C58.2505 76.2335 59.0639 75.4201 59.0639 74.4167C59.0639 73.4134 58.2505 72.6 57.2472 72.6Z" fill="white"/>
<path d="M60.5422 80.708H49.2308C48.2274 80.708 47.4141 81.5214 47.4141 82.5247C47.4141 83.5281 48.2274 84.3415 49.2308 84.3415H60.5423C61.5456 84.3415 62.359 83.5281 62.359 82.5247C62.359 81.5214 61.5456 80.708 60.5422 80.708Z" fill="url(#paint6_linear_1_968)"/>
<path d="M118.45 80.7085H82.5062C81.5028 80.7085 80.6895 81.5219 80.6895 82.5252C80.6895 83.5286 81.5028 84.342 82.5062 84.342H118.45C119.453 84.342 120.266 83.5286 120.266 82.5252C120.266 81.5219 119.453 80.7085 118.45 80.7085Z" fill="url(#paint7_linear_1_968)"/>
<path d="M165.234 80.7083H123.159C122.155 80.7083 121.342 81.5216 121.342 82.525C121.342 83.5284 122.155 84.3417 123.159 84.3417H165.234C166.237 84.3417 167.051 83.5284 167.051 82.525C167.051 81.5216 166.237 80.7083 165.234 80.7083Z" fill="white"/>
<path d="M75.3698 80.7085H66.6351C65.6317 80.7085 64.8184 81.5219 64.8184 82.5252C64.8184 83.5286 65.6317 84.342 66.6351 84.342H75.3698C76.3732 84.342 77.1866 83.5286 77.1866 82.5252C77.1866 81.5219 76.3732 80.7085 75.3698 80.7085Z" fill="white"/>
<path d="M78.8861 72.6001H62.93C61.9267 72.6001 61.1133 73.4135 61.1133 74.4168C61.1133 75.4202 61.9267 76.2336 62.93 76.2336H78.8861C79.8894 76.2336 80.7028 75.4202 80.7028 74.4168C80.7028 73.4135 79.8894 72.6001 78.8861 72.6001Z" fill="white"/>
<path d="M91.9576 72.6H84.6841C83.6808 72.6 82.8674 73.4134 82.8674 74.4167C82.8674 75.4201 83.6808 76.2335 84.6841 76.2335H91.9576C92.961 76.2335 93.7744 75.4201 93.7744 74.4167C93.7744 73.4134 92.961 72.6 91.9576 72.6Z" fill="url(#paint8_linear_1_968)"/>
<path d="M61.4496 56.6763H52.8519C51.8485 56.6763 51.0352 57.4897 51.0352 58.493C51.0352 59.4964 51.8485 60.3098 52.8519 60.3098H61.4496C62.453 60.3098 63.2664 59.4964 63.2664 58.493C63.2664 57.4897 62.453 56.6763 61.4496 56.6763Z" fill="url(#paint9_linear_1_968)"/>
<path d="M130.157 56.6763H73.391C72.3876 56.6763 71.5742 57.4897 71.5742 58.493C71.5742 59.4964 72.3876 60.3098 73.391 60.3098H130.157C131.16 60.3098 131.974 59.4964 131.974 58.493C131.974 57.4897 131.16 56.6763 130.157 56.6763Z" fill="white"/>
<path d="M197.963 80.7085H173.037C172.034 80.7085 171.221 81.5219 171.221 82.5252C171.221 83.5286 172.034 84.342 173.037 84.342H197.963C198.966 84.342 199.78 83.5286 199.78 82.5252C199.78 81.5219 198.966 80.7085 197.963 80.7085Z" fill="white"/>
<path d="M172.246 119.666H147.321C146.317 119.666 145.504 120.479 145.504 121.482C145.504 122.486 146.317 123.299 147.321 123.299H172.246C173.25 123.299 174.063 122.486 174.063 121.482C174.063 120.479 173.25 119.666 172.246 119.666Z" fill="url(#paint10_linear_1_968)"/>
<path d="M179.241 48.6982H123.375C122.372 48.6982 121.559 49.5116 121.559 50.515C121.559 51.5183 122.372 52.3317 123.375 52.3317H179.241C180.244 52.3317 181.058 51.5183 181.058 50.515C181.058 49.5116 180.244 48.6982 179.241 48.6982Z" fill="url(#paint11_linear_1_968)"/>
<path d="M99.5907 48.6982H61.8207C60.8173 48.6982 60.0039 49.5116 60.0039 50.515C60.0039 51.5183 60.8173 52.3317 61.8207 52.3317H99.5907C100.594 52.3317 101.407 51.5183 101.407 50.515C101.407 49.5116 100.594 48.6982 99.5907 48.6982Z" fill="url(#paint12_linear_1_968)"/>
<path d="M57.2213 31.9401H32.9807C31.9773 31.9401 31.1639 32.7534 31.1639 33.7568C31.1639 34.7602 31.9773 35.5736 32.9807 35.5736H57.2213C58.2247 35.5736 59.038 34.7602 59.038 33.7568C59.038 32.7534 58.2247 31.9401 57.2213 31.9401Z" fill="white"/>
<path d="M98.1676 31.9404H63.6332C62.6298 31.9404 61.8164 32.7538 61.8164 33.7572C61.8164 34.7605 62.6298 35.5739 63.6332 35.5739H98.1676C99.171 35.5739 99.9843 34.7605 99.9843 33.7572C99.9843 32.7538 99.171 31.9404 98.1676 31.9404Z" fill="white"/>
<path d="M60.8794 24.2363H52.2425C51.2392 24.2363 50.4258 25.0497 50.4258 26.0531C50.4258 27.0564 51.2392 27.8698 52.2425 27.8698H60.8794C61.8828 27.8698 62.6961 27.0564 62.6961 26.0531C62.6961 25.0497 61.8828 24.2363 60.8794 24.2363Z" fill="url(#paint13_linear_1_968)"/>
<path d="M18.4445 26.1085V25.9976C18.4445 25.0249 17.6559 24.2363 16.6832 24.2363C15.7104 24.2363 14.9219 25.0249 14.9219 25.9976V26.1085C14.9219 27.0813 15.7104 27.8698 16.6832 27.8698C17.6559 27.8698 18.4445 27.0813 18.4445 26.1085Z" fill="#C6B2FF"/>
<path d="M18.4445 34.0602V33.9493C18.4445 32.9765 17.6559 32.188 16.6832 32.188C15.7104 32.188 14.9219 32.9765 14.9219 33.9493V34.0602C14.9219 35.0329 15.7104 35.8215 16.6832 35.8215C17.6559 35.8215 18.4445 35.0329 18.4445 34.0602Z" fill="#C6B2FF"/>
<path d="M18.4445 42.0118V41.9009C18.4445 40.9282 17.6559 40.1396 16.6832 40.1396C15.7104 40.1396 14.9219 40.9282 14.9219 41.9009V42.0118C14.9219 42.9846 15.7104 43.7731 16.6832 43.7731C17.6559 43.7731 18.4445 42.9846 18.4445 42.0118Z" fill="#C6B2FF"/>
<path d="M18.4445 49.964V49.8531C18.4445 48.8804 17.6559 48.0918 16.6832 48.0918C15.7104 48.0918 14.9219 48.8804 14.9219 49.8531V49.964C14.9219 50.9367 15.7104 51.7253 16.6832 51.7253C17.6559 51.7253 18.4445 50.9367 18.4445 49.964Z" fill="#C6B2FF"/>
<path d="M18.4445 57.9161V57.8052C18.4445 56.8325 17.6559 56.0439 16.6832 56.0439C15.7104 56.0439 14.9219 56.8325 14.9219 57.8052V57.9161C14.9219 58.8889 15.7104 59.6774 16.6832 59.6774C17.6559 59.6774 18.4445 58.8889 18.4445 57.9161Z" fill="#C6B2FF"/>
<path d="M18.4445 65.8678V65.7569C18.4445 64.7842 17.6559 63.9956 16.6832 63.9956C15.7104 63.9956 14.9219 64.7842 14.9219 65.7569V65.8678C14.9219 66.8405 15.7104 67.6291 16.6832 67.6291C17.6559 67.6291 18.4445 66.8405 18.4445 65.8678Z" fill="#C6B2FF"/>
<path d="M18.4445 73.8195V73.7086C18.4445 72.7358 17.6559 71.9473 16.6832 71.9473C15.7104 71.9473 14.9219 72.7358 14.9219 73.7086V73.8195C14.9219 74.7922 15.7104 75.5808 16.6832 75.5808C17.6559 75.5808 18.4445 74.7922 18.4445 73.8195Z" fill="#C6B2FF"/>
<path d="M18.4445 81.7716V81.6607C18.4445 80.688 17.6559 79.8994 16.6832 79.8994C15.7104 79.8994 14.9219 80.688 14.9219 81.6607V81.7716C14.9219 82.7443 15.7104 83.5329 16.6832 83.5329C17.6559 83.5329 18.4445 82.7443 18.4445 81.7716Z" fill="#C6B2FF"/>
<path d="M18.4445 89.7238V89.6129C18.4445 88.6401 17.6559 87.8516 16.6832 87.8516C15.7104 87.8516 14.9219 88.6401 14.9219 89.6129V89.7238C14.9219 90.6965 15.7104 91.4851 16.6832 91.4851C17.6559 91.4851 18.4445 90.6965 18.4445 89.7238Z" fill="#C6B2FF"/>
<path d="M58.9168 144.793H57.0706C56.0673 144.793 55.2539 145.607 55.2539 146.61C55.2539 147.614 56.0673 148.427 57.0706 148.427H58.9168C59.9201 148.427 60.7335 147.614 60.7335 146.61C60.7335 145.607 59.9201 144.793 58.9168 144.793Z" fill="url(#paint14_linear_1_968)"/>
<path d="M50.1052 144.793H37.2347C36.2313 144.793 35.418 145.607 35.418 146.61C35.418 147.614 36.2313 148.427 37.2347 148.427H50.1052C51.1086 148.427 51.922 147.614 51.922 146.61C51.922 145.607 51.1086 144.793 50.1052 144.793Z" fill="url(#paint15_linear_1_968)"/>
<path d="M18.4445 146.261V146.15C18.4445 145.178 17.6559 144.389 16.6832 144.389C15.7104 144.389 14.9219 145.178 14.9219 146.15V146.261C14.9219 147.234 15.7104 148.023 16.6832 148.023C17.6559 148.023 18.4445 147.234 18.4445 146.261Z" fill="#C6B2FF"/>
<path d="M18.4445 97.6759V97.565C18.4445 96.5923 17.6559 95.8037 16.6832 95.8037C15.7104 95.8037 14.9219 96.5923 14.9219 97.565V97.6759C14.9219 98.6486 15.7104 99.4372 16.6832 99.4372C17.6559 99.4372 18.4445 98.6486 18.4445 97.6759Z" fill="#C6B2FF"/>
<path d="M18.4445 105.627V105.516C18.4445 104.543 17.6559 103.755 16.6832 103.755C15.7104 103.755 14.9219 104.543 14.9219 105.516V105.627C14.9219 106.6 15.7104 107.388 16.6832 107.388C17.6559 107.388 18.4445 106.6 18.4445 105.627Z" fill="#C6B2FF"/>
<path d="M18.4445 113.586V113.475C18.4445 112.502 17.6559 111.714 16.6832 111.714C15.7104 111.714 14.9219 112.502 14.9219 113.475V113.586C14.9219 114.559 15.7104 115.347 16.6832 115.347C17.6559 115.347 18.4445 114.559 18.4445 113.586Z" fill="#C6B2FF"/>
<path d="M18.4445 121.538V121.427C18.4445 120.454 17.6559 119.666 16.6832 119.666C15.7104 119.666 14.9219 120.454 14.9219 121.427V121.538C14.9219 122.51 15.7104 123.299 16.6832 123.299C17.6559 123.299 18.4445 122.51 18.4445 121.538Z" fill="#C6B2FF"/>
<path d="M18.4445 129.49V129.379C18.4445 128.406 17.6559 127.618 16.6832 127.618C15.7104 127.618 14.9219 128.406 14.9219 129.379V129.49C14.9219 130.463 15.7104 131.251 16.6832 131.251C17.6559 131.251 18.4445 130.463 18.4445 129.49Z" fill="#C6B2FF"/>
<path d="M50.2152 135.987H37.1294C36.1261 135.987 35.3127 136.8 35.3127 137.804C35.3127 138.807 36.1261 139.62 37.1294 139.62H50.2152C51.2186 139.62 52.0319 138.807 52.0319 137.804C52.0319 136.8 51.2186 135.987 50.2152 135.987Z" fill="white"/>
<path d="M91.2528 135.987H57.0706C56.0673 135.987 55.2539 136.8 55.2539 137.804C55.2539 138.807 56.0673 139.62 57.0706 139.62H91.2528C92.2562 139.62 93.0696 138.807 93.0696 137.804C93.0696 136.8 92.2562 135.987 91.2528 135.987Z" fill="white"/>
<path d="M18.4445 137.859V137.748C18.4445 136.775 17.6559 135.987 16.6832 135.987C15.7104 135.987 14.9219 136.775 14.9219 137.748V137.859C14.9219 138.832 15.7104 139.62 16.6832 139.62C17.6559 139.62 18.4445 138.832 18.4445 137.859Z" fill="#C6B2FF"/>
<path d="M115.102 31.9141H106.465C105.462 31.9141 104.648 32.7274 104.648 33.7308C104.648 34.7342 105.462 35.5475 106.465 35.5475H115.102C116.105 35.5475 116.919 34.7342 116.919 33.7308C116.919 32.7274 116.105 31.9141 115.102 31.9141Z" fill="url(#paint16_linear_1_968)"/>
<path d="M14.184 13.9749C15.5638 13.9749 16.6824 12.8563 16.6824 11.4765C16.6824 10.0966 15.5638 8.97803 14.184 8.97803C12.8041 8.97803 11.6855 10.0966 11.6855 11.4765C11.6855 12.8563 12.8041 13.9749 14.184 13.9749Z" fill="#C6B2FF"/>
<path d="M21.1117 13.9749C22.4916 13.9749 23.6101 12.8563 23.6101 11.4765C23.6101 10.0966 22.4916 8.97803 21.1117 8.97803C19.7319 8.97803 18.6133 10.0966 18.6133 11.4765C18.6133 12.8563 19.7319 13.9749 21.1117 13.9749Z" fill="#C6B2FF"/>
<path d="M28.0393 13.9749C29.4192 13.9749 30.5378 12.8563 30.5378 11.4765C30.5378 10.0966 29.4192 8.97803 28.0393 8.97803C26.6595 8.97803 25.5409 10.0966 25.5409 11.4765C25.5409 12.8563 26.6595 13.9749 28.0393 13.9749Z" fill="#C6B2FF"/>
<path d="M223.604 128.408H180.941C179.69 128.408 178.676 129.422 178.676 130.673V153.19C178.676 154.441 179.69 155.455 180.941 155.455H223.604C224.854 155.455 225.868 154.441 225.868 153.19V130.673C225.868 129.422 224.854 128.408 223.604 128.408Z" fill="#6C47FF"/>
<path d="M227.804 125.518H183.389C182.622 125.518 182 126.139 182 126.907V151.175C182 151.942 182.622 152.564 183.389 152.564H227.804C228.571 152.564 229.193 151.942 229.193 151.175V126.907C229.193 126.139 228.571 125.518 227.804 125.518Z" fill="#9277FF"/>
<path d="M194.564 144.621L198.377 134.194H200.373L204.187 144.621H202.295L199.361 136.279L196.426 144.621H194.564ZM196.262 142.163L196.739 140.748H201.878L202.355 142.163H196.262ZM205.592 144.621V134.194H209.361C210.195 134.194 210.885 134.333 211.431 134.611C211.978 134.889 212.38 135.271 212.638 135.758C212.906 136.234 213.04 136.776 213.04 137.381C213.04 137.957 212.911 138.489 212.653 138.975C212.395 139.452 211.992 139.834 211.446 140.122C210.91 140.41 210.215 140.554 209.361 140.554H207.38V144.621H205.592ZM207.38 139.109H209.256C209.962 139.109 210.463 138.955 210.761 138.648C211.069 138.33 211.223 137.908 211.223 137.381C211.223 136.835 211.069 136.413 210.761 136.115C210.463 135.807 209.962 135.653 209.256 135.653H207.38V139.109ZM214.568 144.621V134.194H216.355V144.621H214.568Z" fill="white"/>
<path d="M24.6598 23.1992C24.7512 23.1992 24.8294 54.4785 24.8294 93.0639C24.8294 131.649 24.7512 162.935 24.6598 162.935C24.5685 162.935 24.4902 131.656 24.4902 93.0639C24.4902 54.472 24.562 23.1992 24.6598 23.1992Z" fill="#F3EFFF"/>
<path d="M255.321 215.5L255.321 215.5C253.511 215.502 251.776 216.222 250.497 217.502C249.218 218.782 248.5 220.518 248.5 222.328V372.031C248.5 373.747 249.182 375.392 250.395 376.605C251.608 377.818 253.253 378.5 254.969 378.5H477.225C479.498 378.5 481.677 377.597 483.284 375.99C484.891 374.383 485.794 372.203 485.794 369.931V222.328C485.794 221.431 485.618 220.543 485.274 219.715C484.931 218.886 484.428 218.134 483.794 217.5L483.441 217.853L483.794 217.5C483.16 216.866 482.408 216.363 481.579 216.02C480.751 215.677 479.863 215.5 478.966 215.5L255.321 215.5Z" fill="#F3EFFF" stroke="#C6B2FF"/>
<path d="M367.499 302.968L399.793 310.782V250.148L367.499 257.967V302.968Z" fill="#9277FF"/>
<path d="M399.794 250.148L406 253.25V307.698L399.794 310.799V250.148Z" fill="#6C47FF"/>
<path d="M381.585 260.959L367.499 257.474V234L381.585 241.042V260.959Z" fill="#6C47FF"/>
<path d="M367.499 327.07L381.583 320.03V300.113L367.499 303.597V327.07Z" fill="#6C47FF"/>
<path d="M381.585 290.507L367.499 292.299V268.824L381.585 270.591V290.507Z" fill="#6C47FF"/>
<path d="M367.498 302.968L335.203 310.782V250.148L367.498 257.967V302.968Z" fill="#6C47FF"/>
<path d="M335.203 250.148L329 253.25V307.698L335.203 310.799V250.148Z" fill="#9277FF"/>
<path d="M353.417 260.959L367.499 257.474V234L353.417 241.042V260.959Z" fill="#9277FF"/>
<path d="M367.498 327.07L353.415 320.03V300.113L367.498 303.596V327.07Z" fill="#9277FF"/>
<path d="M353.417 290.507L367.499 292.299V268.824L353.417 270.591V290.507Z" fill="#9277FF"/>
<path d="M381.585 260.959L367.499 263.526L353.417 260.959L367.499 257.474L381.585 260.959Z" fill="#011552"/>
<path d="M381.585 300.112L367.499 297.528L353.417 300.112L367.499 303.619L381.585 300.112Z" fill="#C6B2FF"/>
<path d="M469.721 342H370.279C367.364 342 365 343.05 365 344.345V367.655C365 368.95 367.364 370 370.279 370H469.721C472.636 370 475 368.95 475 367.655V344.345C475 343.05 472.636 342 469.721 342Z" fill="#6C47FF"/>
<path d="M474.821 339H373.179C371.423 339 370 339.621 370 340.387V364.613C370 365.379 371.423 366 373.179 366H474.821C476.577 366 478 365.379 478 364.613V340.387C478 339.621 476.577 339 474.821 339Z" fill="#9277FF"/>
<path d="M383.767 357.621L387.581 347.193H389.577L393.39 357.621H391.498L388.564 349.279L385.629 357.621H383.767ZM385.465 355.163L385.942 353.748H391.081L391.558 355.163H385.465ZM394.75 357.621V350.157H396.33L396.464 351.185C396.702 350.808 397.02 350.515 397.417 350.306C397.814 350.088 398.266 349.979 398.773 349.979C399.15 349.979 399.488 350.028 399.786 350.128C400.093 350.227 400.366 350.376 400.605 350.575C400.843 350.773 401.037 351.021 401.186 351.319C401.464 350.902 401.826 350.575 402.273 350.336C402.72 350.098 403.207 349.979 403.733 349.979C404.369 349.979 404.905 350.108 405.342 350.366C405.779 350.614 406.112 350.987 406.34 351.483C406.568 351.98 406.683 352.591 406.683 353.316V357.621H404.91V353.494C404.91 352.849 404.781 352.357 404.523 352.019C404.264 351.672 403.882 351.498 403.376 351.498C403.028 351.498 402.72 351.587 402.452 351.766C402.184 351.935 401.975 352.183 401.826 352.511C401.677 352.839 401.603 353.236 401.603 353.703V357.621H399.83V353.494C399.83 352.849 399.701 352.357 399.443 352.019C399.185 351.672 398.792 351.498 398.266 351.498C397.938 351.498 397.64 351.587 397.372 351.766C397.114 351.935 396.91 352.183 396.762 352.511C396.613 352.839 396.538 353.236 396.538 353.703V357.621H394.75ZM411.059 357.799C410.443 357.799 409.931 357.7 409.524 357.501C409.117 357.293 408.814 357.015 408.616 356.667C408.417 356.32 408.318 355.942 408.318 355.535C408.318 355.058 408.437 354.651 408.675 354.314C408.923 353.966 409.286 353.698 409.763 353.509C410.239 353.311 410.825 353.211 411.52 353.211H413.412C413.412 352.814 413.358 352.486 413.248 352.228C413.139 351.97 412.965 351.776 412.727 351.647C412.499 351.518 412.211 351.453 411.863 351.453C411.446 351.453 411.088 351.548 410.79 351.736C410.502 351.925 410.329 352.203 410.269 352.571H408.511C408.561 352.034 408.74 351.578 409.048 351.2C409.355 350.813 409.753 350.515 410.239 350.306C410.736 350.088 411.277 349.979 411.863 349.979C412.568 349.979 413.169 350.103 413.666 350.351C414.162 350.589 414.539 350.937 414.798 351.394C415.066 351.841 415.2 352.382 415.2 353.018V357.621H413.68L413.502 356.429C413.402 356.618 413.273 356.796 413.114 356.965C412.965 357.134 412.792 357.283 412.593 357.412C412.394 357.531 412.166 357.626 411.908 357.695C411.659 357.765 411.376 357.799 411.059 357.799ZM411.461 356.384C411.749 356.384 412.007 356.335 412.235 356.235C412.464 356.126 412.658 355.977 412.816 355.788C412.975 355.6 413.099 355.386 413.189 355.148C413.278 354.9 413.338 354.646 413.368 354.388V354.358H411.714C411.357 354.358 411.064 354.403 410.835 354.492C410.617 354.582 410.453 354.706 410.344 354.865C410.244 355.014 410.195 355.192 410.195 355.401C410.195 355.61 410.244 355.788 410.344 355.937C410.453 356.086 410.602 356.2 410.79 356.28C410.979 356.349 411.203 356.384 411.461 356.384ZM416.574 357.621V356.176L420.447 351.647H416.634V350.157H422.488V351.602L418.6 356.146H422.563V357.621H416.574ZM427.68 357.799C426.975 357.799 426.335 357.636 425.759 357.308C425.193 356.98 424.746 356.523 424.418 355.937C424.09 355.341 423.926 354.661 423.926 353.896C423.926 353.122 424.09 352.442 424.418 351.856C424.756 351.26 425.207 350.798 425.773 350.47C426.349 350.143 426.99 349.979 427.695 349.979C428.42 349.979 429.066 350.143 429.632 350.47C430.198 350.798 430.645 351.255 430.972 351.841C431.3 352.427 431.464 353.112 431.464 353.896C431.464 354.671 431.295 355.351 430.957 355.937C430.63 356.523 430.183 356.98 429.617 357.308C429.051 357.636 428.405 357.799 427.68 357.799ZM427.695 356.265C428.053 356.265 428.375 356.176 428.663 355.997C428.961 355.818 429.2 355.555 429.378 355.207C429.557 354.85 429.647 354.413 429.647 353.896C429.647 353.37 429.557 352.933 429.378 352.586C429.2 352.228 428.961 351.965 428.663 351.796C428.375 351.617 428.058 351.528 427.71 351.528C427.362 351.528 427.04 351.617 426.742 351.796C426.444 351.965 426.205 352.228 426.027 352.586C425.848 352.933 425.759 353.37 425.759 353.896C425.759 354.413 425.848 354.85 426.027 355.207C426.205 355.555 426.439 355.818 426.727 355.997C427.025 356.176 427.348 356.265 427.695 356.265ZM433.214 357.621V350.157H434.793L434.912 351.424C435.15 350.987 435.483 350.639 435.91 350.381C436.347 350.113 436.854 349.979 437.43 349.979C438.035 349.979 438.552 350.108 438.979 350.366C439.406 350.614 439.734 350.987 439.962 351.483C440.2 351.97 440.32 352.581 440.32 353.316V357.621H438.532V353.479C438.532 352.844 438.393 352.357 438.115 352.019C437.847 351.672 437.435 351.498 436.878 351.498C436.521 351.498 436.198 351.587 435.91 351.766C435.622 351.935 435.399 352.183 435.24 352.511C435.081 352.829 435.001 353.221 435.001 353.688V357.621H433.214ZM449.387 357.799C448.632 357.799 447.962 357.665 447.376 357.397C446.79 357.129 446.328 356.747 445.99 356.25C445.663 355.754 445.494 355.163 445.484 354.477H447.376C447.386 354.825 447.47 355.138 447.629 355.416C447.788 355.684 448.011 355.898 448.299 356.056C448.597 356.215 448.955 356.295 449.372 356.295C449.739 356.295 450.052 356.24 450.31 356.131C450.578 356.012 450.782 355.848 450.921 355.639C451.06 355.421 451.13 355.168 451.13 354.88C451.13 354.552 451.05 354.279 450.891 354.06C450.742 353.842 450.534 353.663 450.266 353.524C449.998 353.375 449.685 353.246 449.327 353.137C448.98 353.018 448.617 352.893 448.24 352.764C447.415 352.486 446.795 352.134 446.378 351.707C445.961 351.27 445.752 350.689 445.752 349.964C445.752 349.358 445.896 348.837 446.184 348.4C446.482 347.963 446.889 347.625 447.406 347.387C447.932 347.138 448.538 347.014 449.223 347.014C449.918 347.014 450.524 347.138 451.04 347.387C451.557 347.635 451.964 347.983 452.262 348.429C452.57 348.866 452.729 349.393 452.738 350.008H450.832C450.832 349.75 450.762 349.512 450.623 349.293C450.494 349.065 450.305 348.881 450.057 348.742C449.819 348.593 449.531 348.519 449.193 348.519C448.895 348.509 448.627 348.559 448.389 348.668C448.15 348.767 447.962 348.916 447.823 349.115C447.694 349.303 447.629 349.542 447.629 349.83C447.629 350.108 447.694 350.341 447.823 350.53C447.952 350.709 448.13 350.863 448.359 350.992C448.597 351.111 448.875 351.225 449.193 351.334C449.511 351.443 449.858 351.563 450.236 351.692C450.752 351.861 451.219 352.069 451.636 352.317C452.063 352.556 452.401 352.869 452.649 353.256C452.897 353.643 453.022 354.145 453.022 354.76C453.022 355.297 452.882 355.798 452.604 356.265C452.326 356.722 451.919 357.094 451.383 357.382C450.847 357.66 450.181 357.799 449.387 357.799ZM458.127 357.799C457.451 357.799 456.836 357.68 456.279 357.442C455.723 357.194 455.276 356.821 454.939 356.325C454.611 355.818 454.437 355.183 454.417 354.418H456.175C456.185 354.765 456.265 355.083 456.414 355.371C456.572 355.649 456.796 355.873 457.084 356.042C457.372 356.2 457.719 356.28 458.127 356.28C458.524 356.28 458.857 356.205 459.125 356.056C459.393 355.908 459.596 355.704 459.735 355.446C459.874 355.188 459.944 354.9 459.944 354.582C459.944 354.194 459.85 353.877 459.661 353.628C459.472 353.37 459.214 353.176 458.886 353.047C458.559 352.918 458.186 352.854 457.769 352.854H456.994V351.364H457.769C458.315 351.364 458.762 351.24 459.11 350.992C459.457 350.743 459.631 350.376 459.631 349.889C459.631 349.482 459.497 349.154 459.229 348.906C458.971 348.658 458.603 348.534 458.127 348.534C457.61 348.534 457.208 348.683 456.92 348.981C456.632 349.279 456.473 349.646 456.443 350.083H454.686C454.715 349.457 454.874 348.916 455.162 348.459C455.46 347.992 455.862 347.635 456.369 347.387C456.875 347.138 457.461 347.014 458.127 347.014C458.832 347.014 459.428 347.138 459.914 347.387C460.401 347.635 460.768 347.968 461.017 348.385C461.265 348.802 461.389 349.259 461.389 349.755C461.389 350.143 461.314 350.495 461.166 350.813C461.026 351.121 460.828 351.384 460.57 351.602C460.321 351.821 460.028 351.975 459.691 352.064C460.088 352.144 460.436 352.298 460.734 352.526C461.031 352.754 461.265 353.047 461.434 353.405C461.612 353.762 461.702 354.175 461.702 354.641C461.702 355.207 461.563 355.734 461.285 356.22C461.017 356.697 460.614 357.079 460.078 357.367C459.552 357.655 458.901 357.799 458.127 357.799Z" fill="white"/>
<g filter="url(#filter0_d_1_968)">
<rect x="333" y="48" width="69.2425" height="69.2429" rx="18.4823" fill="white" shape-rendering="crispEdges"/>
<path d="M367.511 72.6629C367.992 72.7308 368.421 72.3563 368.421 71.8726V67.0548H373.039C373.524 67.0548 373.897 66.6248 373.829 66.145C373.653 64.8996 374.625 63.8619 375.805 63.8619C376.985 63.8619 377.956 64.9001 377.78 66.1453C377.712 66.6248 378.085 67.0548 378.571 67.0548H383.189V71.6934C383.189 72.1765 383.616 72.5512 384.098 72.4837C385.344 72.3087 386.381 73.2793 386.381 74.4594C386.381 75.6376 385.345 76.6111 384.098 76.4349C383.618 76.3676 383.188 76.7401 383.188 77.2252V82.442H379.384C379.557 80.3405 377.896 78.5497 375.804 78.5497C373.713 78.5497 372.051 80.3393 372.225 82.442H368.421V77.404C368.421 76.9186 367.991 76.5459 367.511 76.6137C366.268 76.7893 365.228 75.8205 365.228 74.6383C365.228 73.4587 366.266 72.4867 367.511 72.6629ZM348.864 74.7484C348.864 73.5686 349.902 72.5968 351.147 72.773C351.631 72.8408 352.057 72.4643 352.057 71.9826V67.0548H356.694C357.194 67.0548 357.571 66.6 357.478 66.1087C357.249 64.8899 358.192 63.7501 359.441 63.7501C360.696 63.7501 361.632 64.8948 361.403 66.109C361.311 66.6001 361.688 67.0549 362.188 67.0549H366.825V71.0687C365.014 71.2718 363.632 72.8008 363.632 74.6381C363.632 76.474 365.013 78.0042 366.825 78.2075V82.4418H362.374C361.867 82.4418 361.489 82.909 361.593 83.4045C361.856 84.651 360.904 85.8141 359.64 85.8141C358.373 85.8141 357.426 84.6469 357.688 83.4045C357.792 82.9081 357.413 82.4421 356.906 82.4421H352.057V77.5146C352.057 77.03 351.628 76.6564 351.147 76.7243C349.905 76.8998 348.864 75.9306 348.864 74.7484ZM362.207 98.1868C361.721 98.1868 361.349 98.6168 361.416 99.0966C361.592 100.342 360.621 101.38 359.441 101.38C358.263 101.38 357.289 100.344 357.465 99.0963C357.533 98.6165 357.16 98.1865 356.675 98.1865L352.057 98.1868V93.5786C352.057 93.0922 351.626 92.7204 351.147 92.7883C349.902 92.9642 348.864 91.9921 348.864 90.8125C348.864 89.6333 349.902 88.6609 351.147 88.837C351.63 88.9049 352.057 88.5292 352.057 88.0464V84.0385H356.054C356.167 85.8973 357.71 87.4101 359.64 87.4101C361.571 87.4101 363.115 85.8971 363.227 84.0382L366.825 84.0385V88.0464C366.825 88.5313 367.254 88.9049 367.735 88.8367C368.978 88.6611 370.018 89.6306 370.018 90.8125C370.018 91.9906 368.982 92.9641 367.735 92.788C367.254 92.7204 366.825 93.0931 366.825 93.5783V98.1868L362.207 98.1868ZM384.099 92.788C383.619 92.7204 383.189 93.0931 383.189 93.5783V98.1868H378.552C378.052 98.1868 377.675 98.6416 377.767 99.1329C377.997 100.352 377.074 101.38 375.825 101.38C374.57 101.38 373.614 100.346 373.843 99.1326C373.935 98.6418 373.558 98.1867 373.058 98.1867H368.421V94.3818C370.232 94.1788 371.614 92.6495 371.614 90.8124C371.614 88.9762 370.233 87.4463 368.421 87.243V84.0384H373.235C373.808 84.0384 374.195 83.4523 373.969 82.9256C373.863 82.6785 373.809 82.4147 373.809 82.142C373.809 81.0416 374.705 80.1465 375.805 80.1465C376.905 80.1465 377.801 81.0419 377.801 82.142C377.801 82.415 377.747 82.6789 377.641 82.9256C377.415 83.4512 377.801 84.0384 378.375 84.0384H383.189V88.0464C383.189 88.5309 383.618 88.9045 384.099 88.8367C385.342 88.6617 386.382 89.6299 386.382 90.8124C386.382 91.9905 385.346 92.9639 384.099 92.788Z" fill="url(#paint17_linear_1_968)"/>
</g>
<defs>
<filter id="filter0_d_1_968" x="300.656" y="24.8971" width="133.931" height="133.931" filterUnits="userSpaceOnUse" color-interpolation-filters="sRGB">
<feFlood flood-opacity="0" result="BackgroundImageFix"/>
<feColorMatrix in="SourceAlpha" type="matrix" values="0 0 0 0 0 0 0 0 0 0 0 0 0 0 0 0 0 0 127 0" result="hardAlpha"/>
<feMorphology radius="4.62057" operator="dilate" in="SourceAlpha" result="effect1_dropShadow_1_968"/>
<feOffset dy="9.24115"/>
<feGaussianBlur stdDeviation="13.8617"/>
<feComposite in2="hardAlpha" operator="out"/>
<feColorMatrix type="matrix" values="0 0 0 0 0.423529 0 0 0 0 0.278431 0 0 0 0 1 0 0 0 0.1 0"/>
<feBlend mode="normal" in2="BackgroundImageFix" result="effect1_dropShadow_1_968"/>
<feBlend mode="normal" in="SourceGraphic" in2="effect1_dropShadow_1_968" result="shape"/>
</filter>
<linearGradient id="paint0_linear_1_968" x1="39.5195" y1="42.4495" x2="31.1368" y2="42.3243" gradientUnits="userSpaceOnUse">
<stop stop-color="#F3EFFF"/>
<stop offset="0.8053" stop-color="#6C47FF"/>
</linearGradient>
<linearGradient id="paint1_linear_1_968" x1="41.9956" y1="66.5728" x2="30.189" y2="66.3244" gradientUnits="userSpaceOnUse">
<stop stop-color="#F3EFFF"/>
<stop offset="0.8053" stop-color="#6C47FF"/>
</linearGradient>
<linearGradient id="paint2_linear_1_968" x1="102.424" y1="113.652" x2="91.6464" y2="113.445" gradientUnits="userSpaceOnUse">
<stop stop-color="#F3EFFF"/>
<stop offset="0.8053" stop-color="#6C47FF"/>
</linearGradient>
<linearGradient id="paint3_linear_1_968" x1="86.6628" y1="113.651" x2="52.6659" y2="111.585" gradientUnits="userSpaceOnUse">
<stop stop-color="#F3EFFF"/>
<stop offset="0.8053" stop-color="#6C47FF"/>
</linearGradient>
<linearGradient id="paint4_linear_1_968" x1="92.827" y1="129.555" x2="35.717" y2="123.685" gradientUnits="userSpaceOnUse">
<stop stop-color="#F3EFFF"/>
<stop offset="0.8053" stop-color="#6C47FF"/>
</linearGradient>
<linearGradient id="paint5_linear_1_968" x1="77.6937" y1="98.1781" x2="63.1275" y2="97.7999" gradientUnits="userSpaceOnUse">
<stop stop-color="#F3EFFF"/>
<stop offset="0.8053" stop-color="#6C47FF"/>
</linearGradient>
<linearGradient id="paint6_linear_1_968" x1="62.4044" y1="82.6458" x2="47.3729" y2="82.2431" gradientUnits="userSpaceOnUse">
<stop stop-color="#F3EFFF"/>
<stop offset="0.8053" stop-color="#6C47FF"/>
</linearGradient>
<linearGradient id="paint7_linear_1_968" x1="120.387" y1="82.6463" x2="80.7515" y2="79.834" gradientUnits="userSpaceOnUse">
<stop stop-color="#F3EFFF"/>
<stop offset="0.8053" stop-color="#6C47FF"/>
</linearGradient>
<linearGradient id="paint8_linear_1_968" x1="93.8075" y1="74.5378" x2="82.8337" y2="74.3232" gradientUnits="userSpaceOnUse">
<stop stop-color="#F3EFFF"/>
<stop offset="0.8053" stop-color="#6C47FF"/>
</linearGradient>
<linearGradient id="paint9_linear_1_968" x1="63.3036" y1="58.6141" x2="50.9986" y2="58.3443" gradientUnits="userSpaceOnUse">
<stop stop-color="#F3EFFF"/>
<stop offset="0.8053" stop-color="#6C47FF"/>
</linearGradient>
<linearGradient id="paint10_linear_1_968" x1="174.15" y1="121.603" x2="145.48" y2="120.135" gradientUnits="userSpaceOnUse">
<stop stop-color="#F3EFFF"/>
<stop offset="0.8053" stop-color="#6C47FF"/>
</linearGradient>
<linearGradient id="paint11_linear_1_968" x1="181.239" y1="50.6361" x2="122.026" y2="44.3198" gradientUnits="userSpaceOnUse">
<stop stop-color="#F3EFFF"/>
<stop offset="0.8053" stop-color="#6C47FF"/>
</linearGradient>
<linearGradient id="paint12_linear_1_968" x1="101.533" y1="50.6361" x2="60.0884" y2="47.5597" gradientUnits="userSpaceOnUse">
<stop stop-color="#F3EFFF"/>
<stop offset="0.8053" stop-color="#6C47FF"/>
</linearGradient>
<linearGradient id="paint13_linear_1_968" x1="62.7334" y1="26.1741" x2="50.3891" y2="25.9026" gradientUnits="userSpaceOnUse">
<stop stop-color="#F3EFFF"/>
<stop offset="0.8053" stop-color="#6C47FF"/>
</linearGradient>
<linearGradient id="paint14_linear_1_968" x1="60.7501" y1="146.731" x2="55.2354" y2="146.677" gradientUnits="userSpaceOnUse">
<stop stop-color="#F3EFFF"/>
<stop offset="0.8053" stop-color="#6C47FF"/>
</linearGradient>
<linearGradient id="paint15_linear_1_968" x1="51.9721" y1="146.731" x2="35.3752" y2="146.24" gradientUnits="userSpaceOnUse">
<stop stop-color="#F3EFFF"/>
<stop offset="0.8053" stop-color="#6C47FF"/>
</linearGradient>
<linearGradient id="paint16_linear_1_968" x1="116.956" y1="33.8519" x2="104.612" y2="33.5803" gradientUnits="userSpaceOnUse">
<stop stop-color="#F3EFFF"/>
<stop offset="0.8053" stop-color="#6C47FF"/>
</linearGradient>
<linearGradient id="paint17_linear_1_968" x1="386.496" y1="83.8187" x2="348.735" y2="83.5735" gradientUnits="userSpaceOnUse">
<stop stop-color="#F3EFFF"/>
<stop offset="0.8053" stop-color="#6C47FF"/>
</linearGradient>
</defs>
</svg>
