<svg width="487" height="395" viewBox="0 0 487 395" fill="none" xmlns="http://www.w3.org/2000/svg">
<line x1="237" y1="81" x2="333" y2="81" stroke="#C6B2FF" stroke-width="2" stroke-dasharray="7.24 4.49"/>
<rect x="281.121" y="71" width="14" height="3" rx="1.5" transform="rotate(45 281.121 71)" fill="#C6B2FF"/>
<rect x="291.021" y="80.8994" width="14" height="3" rx="1.5" transform="rotate(135 291.021 80.8994)" fill="#C6B2FF"/>
<rect x="377.799" y="157.121" width="14" height="3" rx="1.5" transform="rotate(135 377.799 157.121)" fill="#C6B2FF"/>
<rect x="367.9" y="167.021" width="14" height="3" rx="1.5" transform="rotate(-135 367.9 167.021)" fill="#C6B2FF"/>
<line x1="368" y1="117" x2="368" y2="217" stroke="#C6B2FF" stroke-width="2" stroke-dasharray="7.24 4.49"/>
<line y1="-1" x2="91" y2="-1" transform="matrix(1.50996e-07 1 1 -1.50996e-07 113.551 164)" stroke="#C6B2FF" stroke-width="2" stroke-dasharray="7.24 4.49"/>
<rect x="122.799" y="206.121" width="14" height="3" rx="1.5" transform="rotate(135 122.799 206.121)" fill="#C6B2FF"/>
<rect x="112.899" y="216.021" width="14" height="3" rx="1.5" transform="rotate(-135 112.899 216.021)" fill="#C6B2FF"/>
<line y1="-1" x2="94" y2="-1" transform="matrix(1 -1.39071e-07 -1.39071e-07 -1 151.27 294.383)" stroke="#C6B2FF" stroke-width="2" stroke-dasharray="7.24 4.49"/>
<rect x="194.121" y="286" width="14" height="3" rx="1.5" transform="rotate(45 194.121 286)" fill="#C6B2FF"/>
<rect x="204.021" y="295.899" width="14" height="3" rx="1.5" transform="rotate(135 204.021 295.899)" fill="#C6B2FF"/>
<path d="M7.3211 0.5L7.32058 0.5C5.511 0.501866 3.77618 1.22202 2.49727 2.50224C1.21837 3.78247 0.499999 5.51804 0.5 7.32761V157.031C0.5 158.747 1.18154 160.392 2.39468 161.605C3.60782 162.818 5.25319 163.5 6.96883 163.5H229.225C231.498 163.5 233.677 162.597 235.284 160.99C236.891 159.383 237.794 157.203 237.794 154.931V7.32761C237.794 6.431 237.618 5.54317 237.274 4.7148C236.931 3.88643 236.428 3.13376 235.794 2.49976L235.441 2.85332L235.794 2.49976C235.16 1.86576 234.408 1.36284 233.579 1.01972C232.751 0.676599 231.863 0.5 230.966 0.5L7.3211 0.5Z" fill="#F3EFFF" stroke="#C6B2FF"/>
<path d="M46.0142 24.236H32.9806C31.9773 24.236 31.1639 25.0493 31.1639 26.0527C31.1639 27.0561 31.9773 27.8695 32.9807 27.8695H46.0142C47.0176 27.8695 47.831 27.0561 47.831 26.0527C47.831 25.0493 47.0176 24.236 46.0142 24.236Z" fill="white"/>
<path d="M37.6774 40.5117H32.9806C31.9773 40.5117 31.1639 41.3251 31.1639 42.3285C31.1639 43.3318 31.9773 44.1452 32.9807 44.1452H37.6774C38.6808 44.1452 39.4942 43.3318 39.4942 42.3285C39.4942 41.3251 38.6808 40.5117 37.6774 40.5117Z" fill="url(#paint0_linear_1_1070)"/>
<path d="M47.3523 48.6987H39.2503C38.247 48.6987 37.4336 49.5121 37.4336 50.5155C37.4336 51.5188 38.247 52.3322 39.2503 52.3322H47.3523C48.3557 52.3322 49.169 51.5188 49.169 50.5155C49.169 49.5121 48.3557 48.6987 47.3523 48.6987Z" fill="white"/>
<path d="M56.0548 48.6982H52.8519C51.8485 48.6982 51.0352 49.5116 51.0352 50.515C51.0352 51.5183 51.8485 52.3317 52.8519 52.3317H56.0548C57.0582 52.3317 57.8716 51.5183 57.8716 50.515C57.8716 49.5116 57.0582 48.6982 56.0548 48.6982Z" fill="white"/>
<path d="M117.347 48.6985H106.922C105.919 48.6985 105.106 49.5119 105.106 50.5152C105.106 51.5186 105.919 52.332 106.922 52.332H117.347C118.35 52.332 119.163 51.5186 119.163 50.5152C119.163 49.5119 118.35 48.6985 117.347 48.6985Z" fill="white"/>
<path d="M158.444 56.6763H138.327C137.323 56.6763 136.51 57.4897 136.51 58.493C136.51 59.4964 137.323 60.3098 138.327 60.3098H158.444C159.448 60.3098 160.261 59.4964 160.261 58.493C160.261 57.4897 159.448 56.6763 158.444 56.6763Z" fill="white"/>
<path d="M195.093 48.6987H187.317C186.313 48.6987 185.5 49.5121 185.5 50.5155C185.5 51.5188 186.313 52.3322 187.317 52.3322H195.093C196.096 52.3322 196.909 51.5188 196.909 50.5155C196.909 49.5121 196.096 48.6987 195.093 48.6987Z" fill="white"/>
<path d="M221.524 48.6985H202.221C201.218 48.6985 200.404 49.5119 200.404 50.5152C200.404 51.5186 201.218 52.332 202.221 52.332H221.524C222.527 52.332 223.34 51.5186 223.34 50.5152C223.34 49.5119 222.527 48.6985 221.524 48.6985Z" fill="white"/>
<path d="M47.3523 56.6763H39.2503C38.247 56.6763 37.4336 57.4897 37.4336 58.493C37.4336 59.4964 38.247 60.3098 39.2503 60.3098H47.3523C48.3557 60.3098 49.169 59.4964 49.169 58.493C49.169 57.4897 48.3557 56.6763 47.3523 56.6763Z" fill="white"/>
<path d="M40.1432 64.635H32.0412C31.0379 64.635 30.2245 65.4484 30.2245 66.4518C30.2245 67.4551 31.0379 68.2685 32.0412 68.2685H40.1432C41.1466 68.2685 41.9599 67.4551 41.9599 66.4518C41.9599 65.4484 41.1466 64.635 40.1432 64.635Z" fill="url(#paint1_linear_1_1070)"/>
<path d="M40.1355 72.6001H38.2894C37.286 72.6001 36.4727 73.4135 36.4727 74.4168C36.4727 75.4202 37.286 76.2336 38.2894 76.2336H40.1355C41.1389 76.2336 41.9522 75.4202 41.9522 74.4168C41.9522 73.4135 41.1389 72.6001 40.1355 72.6001Z" fill="white"/>
<path d="M60.2605 89.3647H58.4144C57.411 89.3647 56.5977 90.1781 56.5977 91.1815C56.5977 92.1848 57.411 92.9982 58.4144 92.9982H60.2605C61.2639 92.9982 62.0772 92.1848 62.0772 91.1815C62.0772 90.1781 61.2639 89.3647 60.2605 89.3647Z" fill="white"/>
<path d="M140.902 119.666H133.824C132.821 119.666 132.008 120.479 132.008 121.482C132.008 122.486 132.821 123.299 133.824 123.299H140.902C141.906 123.299 142.719 122.486 142.719 121.482C142.719 120.479 141.906 119.666 140.902 119.666Z" fill="white"/>
<path d="M200.747 119.666H178.137C177.134 119.666 176.32 120.479 176.32 121.482C176.32 122.486 177.134 123.299 178.137 123.299H200.747C201.75 123.299 202.564 122.486 202.564 121.482C202.564 120.479 201.75 119.666 200.747 119.666Z" fill="white"/>
<path d="M100.574 111.714H93.4964C92.4931 111.714 91.6797 112.527 91.6797 113.531C91.6797 114.534 92.4931 115.347 93.4964 115.347H100.574C101.578 115.347 102.391 114.534 102.391 113.531C102.391 112.527 101.578 111.714 100.574 111.714Z" fill="url(#paint2_linear_1_1070)"/>
<path d="M61.7677 104.884H54.6899C53.6866 104.884 52.8732 105.697 52.8732 106.7C52.8732 107.704 53.6866 108.517 54.6899 108.517H61.7677C62.7711 108.517 63.5845 107.704 63.5845 106.7C63.5845 105.697 62.7711 104.884 61.7677 104.884Z" fill="white"/>
<path d="M127.974 119.666H114.719C113.716 119.666 112.902 120.479 112.902 121.482C112.902 122.486 113.716 123.299 114.719 123.299H127.974C128.978 123.299 129.791 122.486 129.791 121.482C129.791 120.479 128.978 119.666 127.974 119.666Z" fill="white"/>
<path d="M43.5537 80.708H38.2894C37.286 80.708 36.4727 81.5214 36.4727 82.5247C36.4727 83.5281 37.286 84.3415 38.2894 84.3415H43.5537C44.5571 84.3415 45.3705 83.5281 45.3705 82.5247C45.3705 81.5214 44.5571 80.708 43.5537 80.708Z" fill="white"/>
<path d="M51.1599 89.502H38.2894C37.286 89.502 36.4727 90.3153 36.4727 91.3187C36.4727 92.3221 37.286 93.1354 38.2894 93.1354H51.1599C52.1633 93.1354 52.9766 92.3221 52.9766 91.3187C52.9766 90.3153 52.1633 89.502 51.1599 89.502Z" fill="white"/>
<path d="M58.7987 96.2402H38.2894C37.286 96.2402 36.4727 97.0536 36.4727 98.057C36.4727 99.0603 37.286 99.8737 38.2894 99.8737H58.7987C59.8021 99.8737 60.6154 99.0603 60.6154 98.057C60.6154 97.0536 59.8021 96.2402 58.7987 96.2402Z" fill="white"/>
<path d="M102.545 96.2402H82.0355C81.0321 96.2402 80.2188 97.0536 80.2188 98.057C80.2188 99.0603 81.0321 99.8737 82.0355 99.8737H102.545C103.548 99.8737 104.362 99.0603 104.362 98.057C104.362 97.0536 103.548 96.2402 102.545 96.2402Z" fill="white"/>
<path d="M84.743 111.714H54.4748C53.4715 111.714 52.6581 112.527 52.6581 113.53C52.6581 114.534 53.4715 115.347 54.4748 115.347H84.743C85.7464 115.347 86.5598 114.534 86.5598 113.53C86.5598 112.527 85.7464 111.714 84.743 111.714Z" fill="url(#paint3_linear_1_1070)"/>
<path d="M108.181 119.666H54.4748C53.4715 119.666 52.6581 120.479 52.6581 121.482C52.6581 122.486 53.4715 123.299 54.4748 123.299H108.181C109.185 123.299 109.998 122.486 109.998 121.482C109.998 120.479 109.185 119.666 108.181 119.666Z" fill="white"/>
<path d="M90.8359 127.618H37.1294C36.1261 127.618 35.3127 128.431 35.3127 129.434C35.3127 130.438 36.1261 131.251 37.1294 131.251H90.8359C91.8392 131.251 92.6526 130.438 92.6526 129.434C92.6526 128.431 91.8392 127.618 90.8359 127.618Z" fill="url(#paint4_linear_1_1070)"/>
<path d="M75.833 96.2402H64.9847C63.9814 96.2402 63.168 97.0536 63.168 98.057C63.168 99.0603 63.9814 99.8737 64.9847 99.8737H75.833C76.8363 99.8737 77.6497 99.0603 77.6497 98.057C77.6497 97.0536 76.8363 96.2402 75.833 96.2402Z" fill="url(#paint5_linear_1_1070)"/>
<path d="M57.2472 72.6H45.9357C44.9324 72.6 44.119 73.4134 44.119 74.4167C44.119 75.4201 44.9324 76.2335 45.9357 76.2335H57.2472C58.2505 76.2335 59.0639 75.4201 59.0639 74.4167C59.0639 73.4134 58.2505 72.6 57.2472 72.6Z" fill="white"/>
<path d="M60.5422 80.708H49.2308C48.2274 80.708 47.4141 81.5214 47.4141 82.5247C47.4141 83.5281 48.2274 84.3415 49.2308 84.3415H60.5423C61.5456 84.3415 62.359 83.5281 62.359 82.5247C62.359 81.5214 61.5456 80.708 60.5422 80.708Z" fill="url(#paint6_linear_1_1070)"/>
<path d="M118.45 80.7085H82.5062C81.5028 80.7085 80.6895 81.5219 80.6895 82.5252C80.6895 83.5286 81.5028 84.342 82.5062 84.342H118.45C119.453 84.342 120.266 83.5286 120.266 82.5252C120.266 81.5219 119.453 80.7085 118.45 80.7085Z" fill="url(#paint7_linear_1_1070)"/>
<path d="M165.234 80.7083H123.159C122.155 80.7083 121.342 81.5216 121.342 82.525C121.342 83.5284 122.155 84.3417 123.159 84.3417H165.234C166.237 84.3417 167.051 83.5284 167.051 82.525C167.051 81.5216 166.237 80.7083 165.234 80.7083Z" fill="white"/>
<path d="M75.3698 80.7085H66.6351C65.6317 80.7085 64.8184 81.5219 64.8184 82.5252C64.8184 83.5286 65.6317 84.342 66.6351 84.342H75.3698C76.3732 84.342 77.1866 83.5286 77.1866 82.5252C77.1866 81.5219 76.3732 80.7085 75.3698 80.7085Z" fill="white"/>
<path d="M78.8861 72.6001H62.93C61.9267 72.6001 61.1133 73.4135 61.1133 74.4168C61.1133 75.4202 61.9267 76.2336 62.93 76.2336H78.8861C79.8894 76.2336 80.7028 75.4202 80.7028 74.4168C80.7028 73.4135 79.8894 72.6001 78.8861 72.6001Z" fill="white"/>
<path d="M91.9576 72.6H84.6841C83.6808 72.6 82.8674 73.4134 82.8674 74.4167C82.8674 75.4201 83.6808 76.2335 84.6841 76.2335H91.9576C92.961 76.2335 93.7744 75.4201 93.7744 74.4167C93.7744 73.4134 92.961 72.6 91.9576 72.6Z" fill="url(#paint8_linear_1_1070)"/>
<path d="M61.4496 56.6763H52.8519C51.8485 56.6763 51.0352 57.4897 51.0352 58.493C51.0352 59.4964 51.8485 60.3098 52.8519 60.3098H61.4496C62.453 60.3098 63.2664 59.4964 63.2664 58.493C63.2664 57.4897 62.453 56.6763 61.4496 56.6763Z" fill="url(#paint9_linear_1_1070)"/>
<path d="M130.157 56.6763H73.391C72.3876 56.6763 71.5742 57.4897 71.5742 58.493C71.5742 59.4964 72.3876 60.3098 73.391 60.3098H130.157C131.16 60.3098 131.974 59.4964 131.974 58.493C131.974 57.4897 131.16 56.6763 130.157 56.6763Z" fill="white"/>
<path d="M197.963 80.7085H173.037C172.034 80.7085 171.221 81.5219 171.221 82.5252C171.221 83.5286 172.034 84.342 173.037 84.342H197.963C198.966 84.342 199.78 83.5286 199.78 82.5252C199.78 81.5219 198.966 80.7085 197.963 80.7085Z" fill="white"/>
<path d="M172.246 119.666H147.321C146.317 119.666 145.504 120.479 145.504 121.482C145.504 122.486 146.317 123.299 147.321 123.299H172.246C173.25 123.299 174.063 122.486 174.063 121.482C174.063 120.479 173.25 119.666 172.246 119.666Z" fill="url(#paint10_linear_1_1070)"/>
<path d="M179.241 48.6982H123.375C122.372 48.6982 121.559 49.5116 121.559 50.515C121.559 51.5183 122.372 52.3317 123.375 52.3317H179.241C180.244 52.3317 181.058 51.5183 181.058 50.515C181.058 49.5116 180.244 48.6982 179.241 48.6982Z" fill="url(#paint11_linear_1_1070)"/>
<path d="M99.5907 48.6982H61.8207C60.8173 48.6982 60.0039 49.5116 60.0039 50.515C60.0039 51.5183 60.8173 52.3317 61.8207 52.3317H99.5907C100.594 52.3317 101.407 51.5183 101.407 50.515C101.407 49.5116 100.594 48.6982 99.5907 48.6982Z" fill="url(#paint12_linear_1_1070)"/>
<path d="M57.2213 31.9401H32.9806C31.9773 31.9401 31.1639 32.7534 31.1639 33.7568C31.1639 34.7602 31.9773 35.5736 32.9806 35.5736H57.2213C58.2247 35.5736 59.038 34.7602 59.038 33.7568C59.038 32.7534 58.2247 31.9401 57.2213 31.9401Z" fill="white"/>
<path d="M98.1676 31.9404H63.6332C62.6298 31.9404 61.8164 32.7538 61.8164 33.7572C61.8164 34.7605 62.6298 35.5739 63.6332 35.5739H98.1676C99.171 35.5739 99.9843 34.7605 99.9843 33.7572C99.9843 32.7538 99.171 31.9404 98.1676 31.9404Z" fill="white"/>
<path d="M60.8794 24.2363H52.2425C51.2392 24.2363 50.4258 25.0497 50.4258 26.0531C50.4258 27.0564 51.2392 27.8698 52.2425 27.8698H60.8794C61.8828 27.8698 62.6961 27.0564 62.6961 26.0531C62.6961 25.0497 61.8828 24.2363 60.8794 24.2363Z" fill="url(#paint13_linear_1_1070)"/>
<path d="M18.4445 26.1085V25.9976C18.4445 25.0249 17.6559 24.2363 16.6832 24.2363C15.7104 24.2363 14.9219 25.0249 14.9219 25.9976V26.1085C14.9219 27.0813 15.7104 27.8698 16.6832 27.8698C17.6559 27.8698 18.4445 27.0813 18.4445 26.1085Z" fill="#C6B2FF"/>
<path d="M18.4445 34.0602V33.9493C18.4445 32.9765 17.6559 32.188 16.6832 32.188C15.7104 32.188 14.9219 32.9765 14.9219 33.9493V34.0602C14.9219 35.0329 15.7104 35.8215 16.6832 35.8215C17.6559 35.8215 18.4445 35.0329 18.4445 34.0602Z" fill="#C6B2FF"/>
<path d="M18.4445 42.0118V41.9009C18.4445 40.9282 17.6559 40.1396 16.6832 40.1396C15.7104 40.1396 14.9219 40.9282 14.9219 41.9009V42.0118C14.9219 42.9846 15.7104 43.7731 16.6832 43.7731C17.6559 43.7731 18.4445 42.9846 18.4445 42.0118Z" fill="#C6B2FF"/>
<path d="M18.4445 49.964V49.8531C18.4445 48.8804 17.6559 48.0918 16.6832 48.0918C15.7104 48.0918 14.9219 48.8804 14.9219 49.8531V49.964C14.9219 50.9367 15.7104 51.7253 16.6832 51.7253C17.6559 51.7253 18.4445 50.9367 18.4445 49.964Z" fill="#C6B2FF"/>
<path d="M18.4445 57.9161V57.8052C18.4445 56.8325 17.6559 56.0439 16.6832 56.0439C15.7104 56.0439 14.9219 56.8325 14.9219 57.8052V57.9161C14.9219 58.8889 15.7104 59.6774 16.6832 59.6774C17.6559 59.6774 18.4445 58.8889 18.4445 57.9161Z" fill="#C6B2FF"/>
<path d="M18.4445 65.8678V65.7569C18.4445 64.7842 17.6559 63.9956 16.6832 63.9956C15.7104 63.9956 14.9219 64.7842 14.9219 65.7569V65.8678C14.9219 66.8405 15.7104 67.6291 16.6832 67.6291C17.6559 67.6291 18.4445 66.8405 18.4445 65.8678Z" fill="#C6B2FF"/>
<path d="M18.4445 73.8195V73.7086C18.4445 72.7358 17.6559 71.9473 16.6832 71.9473C15.7104 71.9473 14.9219 72.7358 14.9219 73.7086V73.8195C14.9219 74.7922 15.7104 75.5808 16.6832 75.5808C17.6559 75.5808 18.4445 74.7922 18.4445 73.8195Z" fill="#C6B2FF"/>
<path d="M18.4445 81.7716V81.6607C18.4445 80.688 17.6559 79.8994 16.6832 79.8994C15.7104 79.8994 14.9219 80.688 14.9219 81.6607V81.7716C14.9219 82.7443 15.7104 83.5329 16.6832 83.5329C17.6559 83.5329 18.4445 82.7443 18.4445 81.7716Z" fill="#C6B2FF"/>
<path d="M18.4445 89.7238V89.6129C18.4445 88.6401 17.6559 87.8516 16.6832 87.8516C15.7104 87.8516 14.9219 88.6401 14.9219 89.6129V89.7238C14.9219 90.6965 15.7104 91.4851 16.6832 91.4851C17.6559 91.4851 18.4445 90.6965 18.4445 89.7238Z" fill="#C6B2FF"/>
<path d="M58.9168 144.793H57.0706C56.0673 144.793 55.2539 145.606 55.2539 146.61C55.2539 147.613 56.0673 148.426 57.0706 148.426H58.9168C59.9201 148.426 60.7335 147.613 60.7335 146.61C60.7335 145.606 59.9201 144.793 58.9168 144.793Z" fill="url(#paint14_linear_1_1070)"/>
<path d="M50.1052 144.793H37.2347C36.2313 144.793 35.418 145.606 35.418 146.61C35.418 147.613 36.2313 148.426 37.2347 148.426H50.1052C51.1086 148.426 51.922 147.613 51.922 146.61C51.922 145.606 51.1086 144.793 50.1052 144.793Z" fill="url(#paint15_linear_1_1070)"/>
<path d="M18.4445 146.261V146.15C18.4445 145.178 17.6559 144.389 16.6832 144.389C15.7104 144.389 14.9219 145.178 14.9219 146.15V146.261C14.9219 147.234 15.7104 148.023 16.6832 148.023C17.6559 148.023 18.4445 147.234 18.4445 146.261Z" fill="#C6B2FF"/>
<path d="M18.4445 97.6759V97.565C18.4445 96.5923 17.6559 95.8037 16.6832 95.8037C15.7104 95.8037 14.9219 96.5923 14.9219 97.565V97.6759C14.9219 98.6486 15.7104 99.4372 16.6832 99.4372C17.6559 99.4372 18.4445 98.6486 18.4445 97.6759Z" fill="#C6B2FF"/>
<path d="M18.4445 105.627V105.516C18.4445 104.543 17.6559 103.755 16.6832 103.755C15.7104 103.755 14.9219 104.543 14.9219 105.516V105.627C14.9219 106.6 15.7104 107.388 16.6832 107.388C17.6559 107.388 18.4445 106.6 18.4445 105.627Z" fill="#C6B2FF"/>
<path d="M18.4445 113.586V113.475C18.4445 112.502 17.6559 111.714 16.6832 111.714C15.7104 111.714 14.9219 112.502 14.9219 113.475V113.586C14.9219 114.559 15.7104 115.347 16.6832 115.347C17.6559 115.347 18.4445 114.559 18.4445 113.586Z" fill="#C6B2FF"/>
<path d="M18.4445 121.538V121.427C18.4445 120.454 17.6559 119.666 16.6832 119.666C15.7104 119.666 14.9219 120.454 14.9219 121.427V121.538C14.9219 122.51 15.7104 123.299 16.6832 123.299C17.6559 123.299 18.4445 122.51 18.4445 121.538Z" fill="#C6B2FF"/>
<path d="M18.4445 129.49V129.379C18.4445 128.406 17.6559 127.618 16.6832 127.618C15.7104 127.618 14.9219 128.406 14.9219 129.379V129.49C14.9219 130.463 15.7104 131.251 16.6832 131.251C17.6559 131.251 18.4445 130.463 18.4445 129.49Z" fill="#C6B2FF"/>
<path d="M50.2152 135.987H37.1294C36.1261 135.987 35.3127 136.8 35.3127 137.804C35.3127 138.807 36.1261 139.62 37.1294 139.62H50.2152C51.2186 139.62 52.0319 138.807 52.0319 137.804C52.0319 136.8 51.2186 135.987 50.2152 135.987Z" fill="white"/>
<path d="M91.2528 135.987H57.0706C56.0673 135.987 55.2539 136.801 55.2539 137.804C55.2539 138.807 56.0673 139.621 57.0706 139.621H91.2528C92.2562 139.621 93.0696 138.807 93.0696 137.804C93.0696 136.801 92.2562 135.987 91.2528 135.987Z" fill="white"/>
<path d="M18.4445 137.859V137.749C18.4445 136.776 17.6559 135.987 16.6832 135.987C15.7104 135.987 14.9219 136.776 14.9219 137.749V137.859C14.9219 138.832 15.7104 139.621 16.6832 139.621C17.6559 139.621 18.4445 138.832 18.4445 137.859Z" fill="#C6B2FF"/>
<path d="M115.102 31.9141H106.465C105.462 31.9141 104.648 32.7274 104.648 33.7308C104.648 34.7342 105.462 35.5475 106.465 35.5475H115.102C116.105 35.5475 116.919 34.7342 116.919 33.7308C116.919 32.7274 116.105 31.9141 115.102 31.9141Z" fill="url(#paint16_linear_1_1070)"/>
<path d="M14.184 13.9749C15.5638 13.9749 16.6824 12.8563 16.6824 11.4765C16.6824 10.0966 15.5638 8.97803 14.184 8.97803C12.8041 8.97803 11.6855 10.0966 11.6855 11.4765C11.6855 12.8563 12.8041 13.9749 14.184 13.9749Z" fill="#C6B2FF"/>
<path d="M21.1117 13.9749C22.4916 13.9749 23.6101 12.8563 23.6101 11.4765C23.6101 10.0966 22.4916 8.97803 21.1117 8.97803C19.7319 8.97803 18.6133 10.0966 18.6133 11.4765C18.6133 12.8563 19.7319 13.9749 21.1117 13.9749Z" fill="#C6B2FF"/>
<path d="M28.0393 13.9749C29.4192 13.9749 30.5378 12.8563 30.5378 11.4765C30.5378 10.0966 29.4192 8.97803 28.0393 8.97803C26.6595 8.97803 25.5409 10.0966 25.5409 11.4765C25.5409 12.8563 26.6595 13.9749 28.0393 13.9749Z" fill="#C6B2FF"/>
<path d="M227.604 128.408H184.941C183.69 128.408 182.676 129.422 182.676 130.673V153.19C182.676 154.441 183.69 155.455 184.941 155.455H227.604C228.854 155.455 229.868 154.441 229.868 153.19V130.673C229.868 129.422 228.854 128.408 227.604 128.408Z" fill="#6C47FF"/>
<path d="M221.804 125.518H177.389C176.622 125.518 176 126.139 176 126.907V151.175C176 151.942 176.622 152.564 177.389 152.564H221.804C222.571 152.564 223.193 151.942 223.193 151.175V126.907C223.193 126.139 222.571 125.518 221.804 125.518Z" fill="#9277FF"/>
<path d="M187.564 144.621L191.377 134.194H193.373L197.187 144.621H195.295L192.361 136.279L189.426 144.621H187.564ZM189.262 142.163L189.739 140.748H194.878L195.355 142.163H189.262ZM198.592 144.621V134.194H202.361C203.195 134.194 203.885 134.333 204.431 134.611C204.978 134.889 205.38 135.271 205.638 135.758C205.906 136.234 206.04 136.776 206.04 137.381C206.04 137.957 205.911 138.489 205.653 138.975C205.395 139.452 204.992 139.834 204.446 140.122C203.91 140.41 203.215 140.554 202.361 140.554H200.38V144.621H198.592ZM200.38 139.109H202.256C202.962 139.109 203.463 138.955 203.761 138.648C204.069 138.33 204.223 137.908 204.223 137.381C204.223 136.835 204.069 136.413 203.761 136.115C203.463 135.807 202.962 135.653 202.256 135.653H200.38V139.109ZM207.568 144.621V134.194H209.355V144.621H207.568Z" fill="white"/>
<path d="M24.6598 23.1992C24.7512 23.1992 24.8294 54.4785 24.8294 93.0639C24.8294 131.649 24.7512 162.935 24.6598 162.935C24.5685 162.935 24.4902 131.656 24.4902 93.0639C24.4902 54.472 24.562 23.1992 24.6598 23.1992Z" fill="#6C47FF"/>
<path d="M255.321 216.5L255.321 216.5C253.511 216.502 251.776 217.222 250.497 218.502C249.218 219.782 248.5 221.518 248.5 223.328V373.031C248.5 374.747 249.182 376.392 250.395 377.605C251.608 378.818 253.253 379.5 254.969 379.5H477.225C479.498 379.5 481.677 378.597 483.284 376.99C484.891 375.383 485.794 373.203 485.794 370.931V223.328C485.794 222.431 485.618 221.543 485.274 220.715C484.931 219.886 484.428 219.134 483.794 218.5L483.441 218.853L483.794 218.5C483.16 217.866 482.408 217.363 481.579 217.02C480.751 216.677 479.863 216.5 478.966 216.5L255.321 216.5Z" fill="#F3EFFF" stroke="#C6B2FF"/>
<path d="M287.163 272C285.958 272 284.977 272.974 284.977 274.173V289.334H303.491C305.291 289.334 306.756 290.79 306.756 292.581V308.837C306.756 310.627 305.291 312.083 303.491 312.083H284.977V321.834C284.977 323.028 285.958 324 287.163 324H319.814C321.019 324.001 322 323.03 322 321.837V287.167H307.844C307.243 287.167 306.755 286.682 306.755 286.084V272L287.163 272ZM308.933 272.758V285H320.776L308.933 272.758ZM274.086 291.5C273.487 291.5 273 291.985 273 292.581V308.836C273 309.432 273.487 309.917 274.086 309.917H303.491C304.09 309.917 304.578 309.432 304.578 308.836V292.58C304.578 291.985 304.09 291.5 303.491 291.5L274.086 291.5ZM277.217 296.278H280.247C281.396 296.278 282.145 296.324 282.494 296.417C283.03 296.557 283.479 296.861 283.84 297.328C284.202 297.796 284.382 298.4 284.382 299.14C284.382 299.711 284.278 300.192 284.069 300.581C283.861 300.971 283.596 301.276 283.275 301.498C282.954 301.721 282.627 301.868 282.296 301.94C281.845 302.028 281.193 302.073 280.338 302.073H279.106V305.583H277.217V296.278ZM285.925 296.278H289.378C290.157 296.278 290.75 296.336 291.158 296.455C291.707 296.616 292.177 296.902 292.568 297.312C292.96 297.723 293.257 298.225 293.461 298.82C293.665 299.415 293.768 300.147 293.768 301.019C293.768 301.785 293.672 302.445 293.481 302.999C293.247 303.676 292.912 304.224 292.478 304.643C292.151 304.961 291.708 305.209 291.151 305.386C290.734 305.517 290.178 305.583 289.48 305.583H285.925L285.925 296.278ZM295.382 296.278H301.793V297.851H297.271V300.055H301.175V301.628H297.271V305.583H295.382L295.382 296.278ZM279.105 297.851V300.493H280.139C280.884 300.493 281.381 300.444 281.632 300.346C281.883 300.249 282.08 300.096 282.222 299.889C282.365 299.682 282.435 299.441 282.435 299.165C282.435 298.827 282.335 298.548 282.135 298.328C281.936 298.108 281.683 297.971 281.377 297.916C281.152 297.873 280.698 297.851 280.018 297.851L279.105 297.851ZM287.815 297.851V304.015H289.224C289.751 304.015 290.133 303.986 290.367 303.926C290.673 303.85 290.927 303.721 291.129 303.539C291.331 303.358 291.495 303.058 291.623 302.641C291.751 302.224 291.814 301.655 291.814 300.936C291.814 300.217 291.751 299.665 291.623 299.279C291.495 298.894 291.317 298.594 291.087 298.379C290.857 298.163 290.566 298.017 290.213 297.941C289.949 297.882 289.432 297.851 288.662 297.851L287.815 297.851Z" fill="#9277FF"/>
<g filter="url(#filter0_d_1_1070)">
<path d="M347.818 257.459V367.263H424.188V245.969H364.336L347.818 257.459Z" fill="white"/>
</g>
<g filter="url(#filter1_d_1_1070)">
<path d="M344.449 250.72V360.524H427.558V239.231H362.424L344.449 250.72Z" fill="white"/>
</g>
<g filter="url(#filter2_d_1_1070)">
<path d="M340.215 244.238V354.176H432V232.735H360.067L340.215 244.238Z" fill="white"/>
</g>
<path d="M364.256 265.849L349.711 265.955V252.342L364.256 252.399V265.849ZM351.411 264.091L362.075 264.033V254.225L351.411 254.196V264.091Z" fill="#C6B2FF"/>
<path d="M364.256 302.085L349.711 302.19V288.577L364.256 288.635V302.085ZM351.411 300.327L362.075 300.269V290.46L351.411 290.432V300.327Z" fill="#C6B2FF"/>
<path d="M370.342 260.713H405.144C405.823 260.713 406.357 260.179 406.406 259.5C406.454 258.82 405.969 258.286 405.289 258.286H370.488C369.808 258.286 369.274 258.82 369.226 259.5C369.177 260.179 369.711 260.713 370.342 260.713Z" fill="#C6B2FF"/>
<path d="M370.342 266.004H395.145C395.824 266.004 396.358 265.47 396.407 264.79C396.455 264.111 395.97 263.577 395.29 263.577H370.488C369.808 263.577 369.274 264.111 369.226 264.79C369.177 265.47 369.711 266.004 370.342 266.004Z" fill="#C6B2FF"/>
<path d="M371.49 279.238H421.724C423.1 279.238 424.182 278.704 424.28 278.025C424.378 277.345 423.395 276.811 422.019 276.811H371.785C370.409 276.811 369.327 277.345 369.229 278.025C369.131 278.704 370.212 279.238 371.49 279.238Z" fill="#C6B2FF"/>
<path opacity="0.5" d="M370.344 255.471H390.099C390.779 255.471 391.313 254.937 391.361 254.257C391.41 253.578 390.924 253.044 390.245 253.044H370.49C369.81 253.044 369.276 253.578 369.228 254.257C369.179 254.937 369.665 255.471 370.344 255.471Z" fill="#C6B2FF"/>
<path opacity="0.5" d="M370.344 272.886H390.099C390.779 272.886 391.313 272.352 391.361 271.673C391.41 270.993 390.924 270.459 390.245 270.459H370.49C369.81 270.459 369.276 270.993 369.228 271.673C369.179 272.352 369.665 272.886 370.344 272.886Z" fill="#C6B2FF"/>
<path d="M368.609 326.984H382.685C383.365 326.984 383.85 327.518 383.801 328.197C383.753 328.877 383.17 329.411 382.539 329.411H368.463C367.784 329.411 367.299 328.877 367.347 328.197C367.396 327.518 367.978 326.984 368.609 326.984Z" fill="#C6B2FF"/>
<path d="M406.242 326.984H420.318C420.997 326.984 421.483 327.518 421.434 328.197C421.386 328.877 420.803 329.411 420.172 329.411H406.096C405.417 329.411 404.931 328.877 404.98 328.197C405.028 327.518 405.611 326.984 406.242 326.984Z" fill="#C6B2FF"/>
<path d="M349.584 326.984H363.66C364.339 326.984 364.825 327.518 364.776 328.197C364.727 328.877 364.145 329.411 363.514 329.411H349.438C348.759 329.411 348.273 328.877 348.322 328.197C348.322 327.518 348.904 326.984 349.584 326.984Z" fill="#C6B2FF"/>
<path d="M358.269 321.742H383.072C383.751 321.742 384.237 322.275 384.188 322.955C384.14 323.635 383.557 324.168 382.926 324.168H358.124C357.444 324.168 356.959 323.635 357.007 322.955C357.007 322.275 357.59 321.742 358.269 321.742Z" fill="#C6B2FF"/>
<path d="M395.898 321.742H420.701C421.38 321.742 421.866 322.275 421.817 322.955C421.769 323.635 421.186 324.168 420.555 324.168H395.752C395.073 324.168 394.587 323.635 394.636 322.955C394.636 322.275 395.218 321.742 395.898 321.742Z" fill="#C6B2FF"/>
<path opacity="0.5" d="M354.972 316.451H383.415C384.095 316.451 384.58 316.985 384.532 317.664C384.483 318.344 383.901 318.878 383.27 318.878H354.827C354.147 318.878 353.662 318.344 353.71 317.664C353.759 316.985 354.341 316.451 354.972 316.451Z" fill="#C6B2FF"/>
<path opacity="0.5" d="M392.601 316.451H421.044C421.724 316.451 422.209 316.985 422.161 317.664C422.112 318.344 421.53 318.878 420.899 318.878H392.456C391.776 318.878 391.291 318.344 391.339 317.664C391.388 316.985 391.97 316.451 392.601 316.451Z" fill="#C6B2FF"/>
<path d="M396.407 299.134H370.488C369.808 299.134 369.275 299.668 369.226 300.347C369.177 301.027 369.663 301.561 370.342 301.561H396.261C396.941 301.561 397.475 301.027 397.523 300.347C397.572 299.668 397.087 299.134 396.407 299.134Z" fill="#C6B2FF"/>
<path d="M382.719 293.893H370.488C369.808 293.893 369.275 294.426 369.226 295.106C369.177 295.786 369.663 296.319 370.342 296.319H382.574C383.253 296.319 383.787 295.786 383.836 295.106C383.884 294.426 383.399 293.893 382.719 293.893Z" fill="#C6B2FF"/>
<path opacity="0.5" d="M389.515 288.602H370.488C369.808 288.602 369.275 289.135 369.226 289.815C369.177 290.495 369.663 291.028 370.342 291.028H389.369C390.049 291.028 390.583 290.495 390.631 289.815C390.68 289.135 390.194 288.602 389.515 288.602Z" fill="#C6B2FF"/>
<path d="M408.262 293.892H388.434C387.659 293.892 387.049 294.426 386.994 295.106C386.939 295.785 387.493 296.319 388.268 296.319H408.096C408.871 296.319 409.481 295.785 409.536 295.106C409.592 294.426 409.038 293.892 408.262 293.892Z" fill="#C6B2FF"/>
<path d="M339.957 243.942L358.597 246.485L360.183 232.275L339.957 243.942Z" fill="#9277FF"/>
<path d="M469.257 342H398.744C396.676 342 395 343.087 395 344.428V368.571C395 369.913 396.676 371 398.744 371H469.257C471.324 371 473 369.913 473 368.571V344.428C473 343.087 471.324 342 469.257 342Z" fill="#6C47FF"/>
<path d="M475.705 340H402.296C401.028 340 400 340.621 400 341.386V365.613C400 366.379 401.028 367 402.296 367H475.705C476.972 367 478 366.379 478 365.613V341.386C478 340.621 476.972 340 475.705 340Z" fill="#9277FF"/>
<path d="M409.044 359V348.572H412.813C413.647 348.572 414.338 348.711 414.884 348.989C415.43 349.267 415.832 349.65 416.09 350.136C416.358 350.613 416.493 351.154 416.493 351.76C416.493 352.336 416.363 352.867 416.105 353.354C415.847 353.831 415.445 354.213 414.899 354.501C414.362 354.789 413.667 354.933 412.813 354.933H410.832V359H409.044ZM410.832 353.488H412.709C413.414 353.488 413.915 353.334 414.213 353.026C414.521 352.709 414.675 352.286 414.675 351.76C414.675 351.214 414.521 350.792 414.213 350.494C413.915 350.186 413.414 350.032 412.709 350.032H410.832V353.488ZM418.02 359V348.572H421.446C422.658 348.572 423.656 348.786 424.44 349.213C425.235 349.64 425.821 350.246 426.198 351.03C426.586 351.805 426.779 352.728 426.779 353.801C426.779 354.854 426.586 355.772 426.198 356.557C425.821 357.331 425.235 357.932 424.44 358.359C423.656 358.786 422.658 359 421.446 359H418.02ZM419.808 357.48H421.357C422.261 357.48 422.971 357.336 423.487 357.048C424.013 356.75 424.386 356.328 424.604 355.782C424.833 355.226 424.947 354.566 424.947 353.801C424.947 353.026 424.833 352.366 424.604 351.82C424.386 351.264 424.013 350.837 423.487 350.539C422.971 350.231 422.261 350.077 421.357 350.077H419.808V357.48ZM428.509 359V348.572H435.167V350.017H430.296V353.071H434.274V354.486H430.296V359H428.509ZM440.2 359.179C439.445 359.179 438.775 359.045 438.189 358.776C437.603 358.508 437.141 358.126 436.804 357.629C436.476 357.133 436.307 356.542 436.297 355.857H438.189C438.199 356.204 438.283 356.517 438.442 356.795C438.601 357.063 438.825 357.277 439.113 357.436C439.41 357.595 439.768 357.674 440.185 357.674C440.553 357.674 440.865 357.619 441.124 357.51C441.392 357.391 441.595 357.227 441.734 357.019C441.873 356.8 441.943 356.547 441.943 356.259C441.943 355.931 441.863 355.658 441.705 355.44C441.556 355.221 441.347 355.042 441.079 354.903C440.811 354.754 440.498 354.625 440.14 354.516C439.793 354.397 439.43 354.273 439.053 354.144C438.229 353.866 437.608 353.513 437.191 353.086C436.774 352.649 436.565 352.068 436.565 351.343C436.565 350.737 436.709 350.216 436.997 349.779C437.295 349.342 437.702 349.004 438.219 348.766C438.745 348.518 439.351 348.394 440.036 348.394C440.731 348.394 441.337 348.518 441.853 348.766C442.37 349.014 442.777 349.362 443.075 349.809C443.383 350.246 443.542 350.772 443.552 351.388H441.645C441.645 351.13 441.575 350.891 441.436 350.673C441.307 350.444 441.119 350.261 440.87 350.122C440.632 349.973 440.344 349.898 440.006 349.898C439.708 349.888 439.44 349.938 439.202 350.047C438.964 350.146 438.775 350.295 438.636 350.494C438.507 350.683 438.442 350.921 438.442 351.209C438.442 351.487 438.507 351.72 438.636 351.909C438.765 352.088 438.944 352.242 439.172 352.371C439.41 352.49 439.689 352.604 440.006 352.714C440.324 352.823 440.672 352.942 441.049 353.071C441.565 353.24 442.032 353.448 442.449 353.697C442.876 353.935 443.214 354.248 443.462 354.635C443.711 355.022 443.835 355.524 443.835 356.14C443.835 356.676 443.696 357.178 443.418 357.644C443.14 358.101 442.732 358.474 442.196 358.762C441.66 359.04 440.994 359.179 440.2 359.179ZM445.514 359V348.274H447.301V352.699C447.54 352.291 447.872 351.969 448.299 351.73C448.726 351.482 449.213 351.358 449.759 351.358C450.365 351.358 450.881 351.487 451.308 351.745C451.735 351.994 452.058 352.366 452.277 352.862C452.505 353.359 452.619 353.975 452.619 354.71V359H450.847V354.874C450.847 354.228 450.713 353.736 450.444 353.399C450.176 353.051 449.764 352.877 449.208 352.877C448.85 352.877 448.523 352.967 448.225 353.146C447.937 353.314 447.708 353.563 447.54 353.89C447.381 354.218 447.301 354.615 447.301 355.082V359H445.514ZM454.578 359V351.537H456.366V359H454.578ZM455.472 350.33C455.144 350.33 454.871 350.231 454.653 350.032C454.444 349.824 454.34 349.57 454.34 349.272C454.34 348.965 454.444 348.716 454.653 348.528C454.871 348.329 455.144 348.23 455.472 348.23C455.8 348.23 456.068 348.329 456.277 348.528C456.495 348.716 456.604 348.965 456.604 349.272C456.604 349.57 456.495 349.824 456.277 350.032C456.068 350.231 455.8 350.33 455.472 350.33ZM458.775 359V350.673C458.775 350.097 458.869 349.635 459.058 349.287C459.256 348.93 459.539 348.672 459.907 348.513C460.274 348.354 460.711 348.274 461.218 348.274H462.082V349.794H461.486C461.158 349.794 460.92 349.863 460.771 350.002C460.632 350.131 460.562 350.36 460.562 350.688V359H458.775ZM457.717 353.041V351.537H462.231V353.041H457.717ZM467.003 359C466.507 359 466.07 358.92 465.692 358.762C465.315 358.603 465.022 358.339 464.813 357.972C464.615 357.605 464.515 357.108 464.515 356.482V353.041H463.234V351.537H464.515L464.724 349.585H466.303V351.537H468.344V353.041H466.303V356.482C466.303 356.86 466.382 357.123 466.541 357.272C466.7 357.411 466.978 357.48 467.376 357.48H468.284V359H467.003Z" fill="white"/>
<g filter="url(#filter3_d_1_1070)">
<rect x="333" y="48" width="69.3086" height="69.3086" rx="18.4823" fill="white" shape-rendering="crispEdges"/>
<path d="M351.999 102.43V75.4763H357.774V71.6258C357.774 68.9626 358.713 66.6921 360.591 64.8143C362.468 62.9379 364.737 61.9996 367.401 61.9996C370.064 61.9996 372.334 62.9379 374.212 64.8143C376.089 66.6921 377.027 68.9626 377.027 71.6258V75.4763H382.803V102.43H351.999ZM361.625 75.4763H373.176V71.6258C373.176 70.0215 372.615 68.6578 371.492 67.5347C370.369 66.4116 369.005 65.8501 367.401 65.8501C365.796 65.8501 364.433 66.4116 363.309 67.5347C362.186 68.6578 361.625 70.0215 361.625 71.6258V75.4763ZM355.849 98.5792H378.952V79.3268H355.849V98.5792ZM367.401 92.8035C368.46 92.8035 369.366 92.4268 370.121 91.6733C370.874 90.9186 371.251 90.0119 371.251 88.953C371.251 87.8941 370.874 86.9873 370.121 86.2326C369.366 85.4792 368.46 85.1025 367.401 85.1025C366.342 85.1025 365.436 85.4792 364.682 86.2326C363.928 86.9873 363.55 87.8941 363.55 88.953C363.55 90.0119 363.928 90.9186 364.682 91.6733C365.436 92.4268 366.342 92.8035 367.401 92.8035Z" fill="url(#paint17_linear_1_1070)"/>
</g>
<g filter="url(#filter4_d_1_1070)">
<rect x="78" y="259" width="69.1029" height="69.1029" rx="18.4823" fill="white" shape-rendering="crispEdges"/>
<path d="M109.317 300.989C110.193 301.874 111.297 302.29 112.628 302.237C113.96 302.184 114.924 301.697 115.519 300.776L127.293 282.926L109.632 294.826C108.721 295.464 108.222 296.429 108.134 297.722C108.047 299.014 108.441 300.103 109.317 300.989ZM98.069 310.551C97.2981 310.551 96.5885 310.383 95.9403 310.047C95.292 309.71 94.7752 309.206 94.3897 308.533C93.4787 306.868 92.7779 305.141 92.2873 303.353C91.7967 301.564 91.5514 299.714 91.5514 297.801C91.5514 294.862 92.1033 292.099 93.2071 289.514C94.3109 286.928 95.8089 284.68 97.7011 282.767C99.5933 280.855 101.818 279.34 104.376 278.225C106.934 277.109 109.668 276.551 112.576 276.551C115.449 276.551 118.147 277.1 120.67 278.198C123.193 279.296 125.401 280.793 127.293 282.687C129.185 284.582 130.692 286.796 131.813 289.328C132.935 291.86 133.513 294.578 133.548 297.483C133.583 299.431 133.364 301.334 132.891 303.194C132.418 305.053 131.691 306.833 130.71 308.533C130.324 309.206 129.807 309.71 129.159 310.047C128.511 310.383 127.801 310.551 127.03 310.551H98.069Z" fill="url(#paint18_linear_1_1070)"/>
</g>
<defs>
<filter id="filter0_d_1_1070" x="326.957" y="231.069" width="118.092" height="163.016" filterUnits="userSpaceOnUse" color-interpolation-filters="sRGB">
<feFlood flood-opacity="0" result="BackgroundImageFix"/>
<feColorMatrix in="SourceAlpha" type="matrix" values="0 0 0 0 0 0 0 0 0 0 0 0 0 0 0 0 0 0 127 0" result="hardAlpha"/>
<feMorphology radius="2.98015" operator="dilate" in="SourceAlpha" result="effect1_dropShadow_1_1070"/>
<feOffset dy="5.9603"/>
<feGaussianBlur stdDeviation="8.94045"/>
<feComposite in2="hardAlpha" operator="out"/>
<feColorMatrix type="matrix" values="0 0 0 0 0.423529 0 0 0 0 0.278431 0 0 0 0 1 0 0 0 0.1 0"/>
<feBlend mode="normal" in2="BackgroundImageFix" result="effect1_dropShadow_1_1070"/>
<feBlend mode="normal" in="SourceGraphic" in2="effect1_dropShadow_1_1070" result="shape"/>
</filter>
<filter id="filter1_d_1_1070" x="323.588" y="224.33" width="124.831" height="163.016" filterUnits="userSpaceOnUse" color-interpolation-filters="sRGB">
<feFlood flood-opacity="0" result="BackgroundImageFix"/>
<feColorMatrix in="SourceAlpha" type="matrix" values="0 0 0 0 0 0 0 0 0 0 0 0 0 0 0 0 0 0 127 0" result="hardAlpha"/>
<feMorphology radius="2.98015" operator="dilate" in="SourceAlpha" result="effect1_dropShadow_1_1070"/>
<feOffset dy="5.9603"/>
<feGaussianBlur stdDeviation="8.94045"/>
<feComposite in2="hardAlpha" operator="out"/>
<feColorMatrix type="matrix" values="0 0 0 0 0.423529 0 0 0 0 0.278431 0 0 0 0 1 0 0 0 0.1 0"/>
<feBlend mode="normal" in2="BackgroundImageFix" result="effect1_dropShadow_1_1070"/>
<feBlend mode="normal" in="SourceGraphic" in2="effect1_dropShadow_1_1070" result="shape"/>
</filter>
<filter id="filter2_d_1_1070" x="319.354" y="217.834" width="133.507" height="163.163" filterUnits="userSpaceOnUse" color-interpolation-filters="sRGB">
<feFlood flood-opacity="0" result="BackgroundImageFix"/>
<feColorMatrix in="SourceAlpha" type="matrix" values="0 0 0 0 0 0 0 0 0 0 0 0 0 0 0 0 0 0 127 0" result="hardAlpha"/>
<feMorphology radius="2.98015" operator="dilate" in="SourceAlpha" result="effect1_dropShadow_1_1070"/>
<feOffset dy="5.9603"/>
<feGaussianBlur stdDeviation="8.94045"/>
<feComposite in2="hardAlpha" operator="out"/>
<feColorMatrix type="matrix" values="0 0 0 0 0.423529 0 0 0 0 0.278431 0 0 0 0 1 0 0 0 0.1 0"/>
<feBlend mode="normal" in2="BackgroundImageFix" result="effect1_dropShadow_1_1070"/>
<feBlend mode="normal" in="SourceGraphic" in2="effect1_dropShadow_1_1070" result="shape"/>
</filter>
<filter id="filter3_d_1_1070" x="300.656" y="24.8971" width="133.997" height="133.997" filterUnits="userSpaceOnUse" color-interpolation-filters="sRGB">
<feFlood flood-opacity="0" result="BackgroundImageFix"/>
<feColorMatrix in="SourceAlpha" type="matrix" values="0 0 0 0 0 0 0 0 0 0 0 0 0 0 0 0 0 0 127 0" result="hardAlpha"/>
<feMorphology radius="4.62057" operator="dilate" in="SourceAlpha" result="effect1_dropShadow_1_1070"/>
<feOffset dy="9.24115"/>
<feGaussianBlur stdDeviation="13.8617"/>
<feComposite in2="hardAlpha" operator="out"/>
<feColorMatrix type="matrix" values="0 0 0 0 0.423529 0 0 0 0 0.278431 0 0 0 0 1 0 0 0 0.1 0"/>
<feBlend mode="normal" in2="BackgroundImageFix" result="effect1_dropShadow_1_1070"/>
<feBlend mode="normal" in="SourceGraphic" in2="effect1_dropShadow_1_1070" result="shape"/>
</filter>
<filter id="filter4_d_1_1070" x="45.656" y="235.897" width="133.791" height="133.791" filterUnits="userSpaceOnUse" color-interpolation-filters="sRGB">
<feFlood flood-opacity="0" result="BackgroundImageFix"/>
<feColorMatrix in="SourceAlpha" type="matrix" values="0 0 0 0 0 0 0 0 0 0 0 0 0 0 0 0 0 0 127 0" result="hardAlpha"/>
<feMorphology radius="4.62057" operator="dilate" in="SourceAlpha" result="effect1_dropShadow_1_1070"/>
<feOffset dy="9.24115"/>
<feGaussianBlur stdDeviation="13.8617"/>
<feComposite in2="hardAlpha" operator="out"/>
<feColorMatrix type="matrix" values="0 0 0 0 0.423529 0 0 0 0 0.278431 0 0 0 0 1 0 0 0 0.1 0"/>
<feBlend mode="normal" in2="BackgroundImageFix" result="effect1_dropShadow_1_1070"/>
<feBlend mode="normal" in="SourceGraphic" in2="effect1_dropShadow_1_1070" result="shape"/>
</filter>
<linearGradient id="paint0_linear_1_1070" x1="39.5195" y1="42.4495" x2="31.1368" y2="42.3243" gradientUnits="userSpaceOnUse">
<stop stop-color="#F3EFFF"/>
<stop offset="0.8053" stop-color="#6C47FF"/>
</linearGradient>
<linearGradient id="paint1_linear_1_1070" x1="41.9956" y1="66.5728" x2="30.189" y2="66.3244" gradientUnits="userSpaceOnUse">
<stop stop-color="#F3EFFF"/>
<stop offset="0.8053" stop-color="#6C47FF"/>
</linearGradient>
<linearGradient id="paint2_linear_1_1070" x1="102.424" y1="113.652" x2="91.6464" y2="113.445" gradientUnits="userSpaceOnUse">
<stop stop-color="#F3EFFF"/>
<stop offset="0.8053" stop-color="#6C47FF"/>
</linearGradient>
<linearGradient id="paint3_linear_1_1070" x1="86.6628" y1="113.651" x2="52.6659" y2="111.585" gradientUnits="userSpaceOnUse">
<stop stop-color="#F3EFFF"/>
<stop offset="0.8053" stop-color="#6C47FF"/>
</linearGradient>
<linearGradient id="paint4_linear_1_1070" x1="92.8269" y1="129.555" x2="35.717" y2="123.684" gradientUnits="userSpaceOnUse">
<stop stop-color="#F3EFFF"/>
<stop offset="0.8053" stop-color="#6C47FF"/>
</linearGradient>
<linearGradient id="paint5_linear_1_1070" x1="77.6937" y1="98.1781" x2="63.1275" y2="97.7999" gradientUnits="userSpaceOnUse">
<stop stop-color="#F3EFFF"/>
<stop offset="0.8053" stop-color="#6C47FF"/>
</linearGradient>
<linearGradient id="paint6_linear_1_1070" x1="62.4044" y1="82.6458" x2="47.3729" y2="82.2431" gradientUnits="userSpaceOnUse">
<stop stop-color="#F3EFFF"/>
<stop offset="0.8053" stop-color="#6C47FF"/>
</linearGradient>
<linearGradient id="paint7_linear_1_1070" x1="120.387" y1="82.6463" x2="80.7515" y2="79.834" gradientUnits="userSpaceOnUse">
<stop stop-color="#F3EFFF"/>
<stop offset="0.8053" stop-color="#6C47FF"/>
</linearGradient>
<linearGradient id="paint8_linear_1_1070" x1="93.8075" y1="74.5378" x2="82.8337" y2="74.3232" gradientUnits="userSpaceOnUse">
<stop stop-color="#F3EFFF"/>
<stop offset="0.8053" stop-color="#6C47FF"/>
</linearGradient>
<linearGradient id="paint9_linear_1_1070" x1="63.3036" y1="58.6141" x2="50.9986" y2="58.3443" gradientUnits="userSpaceOnUse">
<stop stop-color="#F3EFFF"/>
<stop offset="0.8053" stop-color="#6C47FF"/>
</linearGradient>
<linearGradient id="paint10_linear_1_1070" x1="174.15" y1="121.603" x2="145.48" y2="120.135" gradientUnits="userSpaceOnUse">
<stop stop-color="#F3EFFF"/>
<stop offset="0.8053" stop-color="#6C47FF"/>
</linearGradient>
<linearGradient id="paint11_linear_1_1070" x1="181.239" y1="50.6361" x2="122.026" y2="44.3198" gradientUnits="userSpaceOnUse">
<stop stop-color="#F3EFFF"/>
<stop offset="0.8053" stop-color="#6C47FF"/>
</linearGradient>
<linearGradient id="paint12_linear_1_1070" x1="101.533" y1="50.6361" x2="60.0884" y2="47.5597" gradientUnits="userSpaceOnUse">
<stop stop-color="#F3EFFF"/>
<stop offset="0.8053" stop-color="#6C47FF"/>
</linearGradient>
<linearGradient id="paint13_linear_1_1070" x1="62.7334" y1="26.1741" x2="50.3891" y2="25.9026" gradientUnits="userSpaceOnUse">
<stop stop-color="#F3EFFF"/>
<stop offset="0.8053" stop-color="#6C47FF"/>
</linearGradient>
<linearGradient id="paint14_linear_1_1070" x1="60.7501" y1="146.731" x2="55.2354" y2="146.677" gradientUnits="userSpaceOnUse">
<stop stop-color="#F3EFFF"/>
<stop offset="0.8053" stop-color="#6C47FF"/>
</linearGradient>
<linearGradient id="paint15_linear_1_1070" x1="51.9721" y1="146.731" x2="35.3752" y2="146.24" gradientUnits="userSpaceOnUse">
<stop stop-color="#F3EFFF"/>
<stop offset="0.8053" stop-color="#6C47FF"/>
</linearGradient>
<linearGradient id="paint16_linear_1_1070" x1="116.956" y1="33.8519" x2="104.612" y2="33.5803" gradientUnits="userSpaceOnUse">
<stop stop-color="#F3EFFF"/>
<stop offset="0.8053" stop-color="#6C47FF"/>
</linearGradient>
<linearGradient id="paint17_linear_1_1070" x1="382.896" y1="83.5618" x2="351.892" y2="83.4079" gradientUnits="userSpaceOnUse">
<stop stop-color="#F3EFFF"/>
<stop offset="0.8053" stop-color="#6C47FF"/>
</linearGradient>
<linearGradient id="paint18_linear_1_1070" x1="133.679" y1="294.684" x2="91.4083" y2="294.344" gradientUnits="userSpaceOnUse">
<stop stop-color="#F3EFFF"/>
<stop offset="0.8053" stop-color="#6C47FF"/>
</linearGradient>
</defs>
</svg>
