<svg width="593" height="505" viewBox="0 0 593 505" fill="none" xmlns="http://www.w3.org/2000/svg">
<rect x="56.0001" y="50" width="481" height="1" fill="#35405A" fill-opacity="0.5"/>
<rect x="93.5001" y="54.5" width="406" height="392" rx="11.5" fill="#011552" stroke="#6C47FF"/>
<rect x="75.5001" y="37.5" width="442" height="392" rx="11.5" fill="#011552" stroke="#6C47FF"/>
<g filter="url(#filter0_dddddd_3_428)">
<rect x="56.0001" y="14" width="481" height="393" rx="12" fill="#011552"/>
<rect x="56.5001" y="14.5" width="480" height="392" rx="11.5" stroke="#6C47FF"/>
</g>
<rect x="472" y="28" width="9.21615" height="9.21615" rx="4.60808" fill="#45E3BE"/>
<rect x="490.434" y="28" width="9.21615" height="9.21615" rx="4.60808" fill="#FFB020"/>
<rect x="508.865" y="28" width="9.21615" height="9.21615" rx="4.60808" fill="#FF6456"/>
<rect x="56.0001" y="50" width="481" height="1" fill="#6C47FF"/>
<rect x="153.5" y="326.5" width="48.0956" height="48.0956" rx="7.5" stroke="#6C47FF"/>
<path d="M177.548 338.274C170.767 338.274 165.274 343.766 165.274 350.548C165.273 353.124 166.083 355.636 167.589 357.726C169.081 359.796 171.18 361.349 173.595 362.169C173.642 362.185 173.691 362.198 173.74 362.204C174.298 362.27 174.51 361.919 174.51 361.609C174.51 361.439 174.505 361.036 174.5 360.525C174.495 359.9 173.925 359.44 173.301 359.459C171.193 359.525 170.578 358.473 170.368 357.881C170.229 357.528 169.632 356.439 169.11 356.147C168.68 355.918 168.067 355.349 169.094 355.335C170.061 355.319 170.751 356.225 170.982 356.593C171.939 358.2 173.39 358.024 174.22 357.739C174.433 357.666 174.584 357.386 174.642 357.168C174.788 356.616 174.421 355.847 173.867 355.708C171.671 355.157 169.754 353.751 169.754 349.903C169.754 348.808 170.074 347.869 170.621 347.092C170.841 346.779 170.913 346.38 170.84 346.004C170.742 345.495 170.697 344.727 170.978 343.8C171.065 343.512 171.308 343.306 171.607 343.335C172.073 343.381 172.894 343.593 174.123 344.36C174.371 344.514 174.672 344.563 174.957 344.497C175.816 344.295 176.696 344.194 177.579 344.196C178.464 344.196 179.349 344.295 180.197 344.494C180.484 344.561 180.788 344.511 181.037 344.354C182.273 343.578 183.097 343.371 183.56 343.331C183.854 343.305 184.091 343.51 184.178 343.792C184.461 344.723 184.416 345.495 184.317 346.005C184.244 346.381 184.317 346.78 184.538 347.093C185.084 347.866 185.404 348.797 185.404 349.903C185.404 353.31 183.904 354.798 182.04 355.478C181.22 355.777 180.594 357.166 180.629 358.039C180.631 358.103 180.633 358.168 180.633 358.235C180.633 359.876 180.617 361.195 180.617 361.61C180.617 361.932 180.847 362.315 181.461 362.192C183.897 361.369 186.014 359.803 187.514 357.714C189.013 355.626 189.82 353.119 189.821 350.548C189.821 343.766 184.328 338.274 177.547 338.274H177.548Z" fill="#C6B2FF"/>
<rect x="232.596" y="326.5" width="48.0956" height="48.0956" rx="7.5" stroke="#6C47FF"/>
<mask id="mask0_3_428" style="mask-type:luminance" maskUnits="userSpaceOnUse" x="244" y="337" width="25" height="27">
<path d="M244.983 350.548H268.303" stroke="white" stroke-width="1.22739" stroke-linecap="round" stroke-linejoin="round"/>
<path d="M259.098 338.274H254.188C253.863 338.274 253.551 338.403 253.32 338.633C253.09 338.864 252.961 339.176 252.961 339.501V344.411C252.961 344.736 253.09 345.049 253.32 345.279C253.551 345.509 253.863 345.638 254.188 345.638H259.098C259.423 345.638 259.735 345.509 259.966 345.279C260.196 345.049 260.325 344.736 260.325 344.411V339.501C260.325 339.176 260.196 338.864 259.966 338.633C259.735 338.403 259.423 338.274 259.098 338.274ZM251.733 355.457H246.824C246.498 355.457 246.186 355.587 245.956 355.817C245.726 356.047 245.596 356.359 245.596 356.685V361.594C245.596 361.92 245.726 362.232 245.956 362.462C246.186 362.692 246.498 362.822 246.824 362.822H251.733C252.059 362.822 252.371 362.692 252.601 362.462C252.832 362.232 252.961 361.92 252.961 361.594V356.685C252.961 356.359 252.832 356.047 252.601 355.817C252.371 355.587 252.059 355.457 251.733 355.457ZM266.462 355.457H261.553C261.227 355.457 260.915 355.587 260.685 355.817C260.454 356.047 260.325 356.359 260.325 356.685V361.594C260.325 361.92 260.454 362.232 260.685 362.462C260.915 362.692 261.227 362.822 261.553 362.822H266.462C266.788 362.822 267.1 362.692 267.33 362.462C267.56 362.232 267.69 361.92 267.69 361.594V356.685C267.69 356.359 267.56 356.047 267.33 355.817C267.1 355.587 266.788 355.457 266.462 355.457Z" fill="white" stroke="white" stroke-width="1.22739" stroke-linejoin="round"/>
<path d="M256.642 350.548V345.638M264.007 355.457V350.548M249.278 355.457V350.548" stroke="white" stroke-width="1.22739" stroke-linecap="round" stroke-linejoin="round"/>
</mask>
<g mask="url(#mask0_3_428)">
<path d="M241.915 336.819C241.915 336.267 242.362 335.819 242.915 335.819H270.372C270.924 335.819 271.372 336.267 271.372 336.819V364.276C271.372 364.829 270.924 365.276 270.372 365.276H242.915C242.362 365.276 241.915 364.829 241.915 364.276V336.819Z" fill="#C6B2FF"/>
</g>
<rect x="312.5" y="326.5" width="48.0956" height="48.0956" rx="7.5" stroke="#6C47FF"/>
<g clip-path="url(#clip0_3_428)">
<path d="M336.548 342.57C337.687 342.57 338.78 343.022 339.585 343.828C340.391 344.634 340.844 345.726 340.844 346.866C340.844 348.005 340.391 349.098 339.585 349.903C338.78 350.709 337.687 351.162 336.548 351.162C335.408 351.162 334.316 350.709 333.51 349.903C332.705 349.098 332.252 348.005 332.252 346.866C332.252 345.726 332.705 344.634 333.51 343.828C334.316 343.022 335.408 342.57 336.548 342.57ZM327.956 345.638C328.417 345.638 328.856 345.721 329.262 345.876C329.625 346.014 329.801 346.401 329.798 346.79C329.785 348.109 330.159 349.395 330.853 350.49C331.062 350.82 331.115 351.244 330.878 351.554C330.206 352.433 329.15 353.003 327.956 353.003C326.98 353.003 326.043 352.615 325.352 351.924C324.662 351.234 324.274 350.297 324.274 349.32C324.274 348.344 324.662 347.407 325.352 346.717C326.043 346.026 326.98 345.638 327.956 345.638ZM345.14 345.638C346.116 345.638 347.053 346.026 347.743 346.717C348.434 347.407 348.822 348.344 348.822 349.32C348.822 350.297 348.434 351.234 347.743 351.924C347.053 352.615 346.116 353.003 345.14 353.003C343.946 353.003 342.89 352.433 342.218 351.554C341.981 351.244 342.034 350.82 342.242 350.49C342.943 349.384 343.31 348.098 343.297 346.789C343.294 346.401 343.47 346.014 343.833 345.876C344.239 345.721 344.678 345.638 345.14 345.638ZM328.57 358.219C328.57 355.678 332.142 353.616 336.548 353.616C340.954 353.616 344.526 355.678 344.526 358.219V359.367C344.526 359.919 344.078 360.367 343.526 360.367H329.57C329.018 360.367 328.57 359.919 328.57 359.367V358.219ZM322.819 360.367C322.267 360.367 321.819 359.919 321.819 359.367V358.526C321.819 357.33 322.959 356.267 324.722 355.595C325.582 355.266 326.342 356.426 326.189 357.334C326.14 357.621 326.115 357.917 326.115 358.219V359.367C326.115 359.919 325.667 360.367 325.115 360.367H322.819ZM351.277 359.367C351.277 359.919 350.829 360.367 350.277 360.367H347.981C347.428 360.367 346.981 359.919 346.981 359.367V358.219C346.981 357.917 346.955 357.621 346.907 357.334C346.754 356.426 347.514 355.266 348.374 355.595C350.137 356.267 351.277 357.33 351.277 358.526V359.367Z" fill="#C6B2FF"/>
</g>
<rect x="391.596" y="326.5" width="48.0956" height="48.0956" rx="7.5" stroke="#6C47FF"/>
<path d="M421.386 360.534C421.938 360.534 422.386 360.086 422.386 359.534V355.063C422.386 354.511 422.833 354.063 423.386 354.063H423.429C423.981 354.063 424.429 354.511 424.429 355.063V361.682C424.429 362.234 423.981 362.682 423.429 362.682H406.985C406.433 362.682 405.985 362.234 405.985 361.682V355.063C405.985 354.511 406.433 354.063 406.985 354.063H407.029C407.581 354.063 408.029 354.511 408.029 355.063V359.534C408.029 360.086 408.477 360.534 409.029 360.534H421.386Z" fill="#C6B2FF"/>
<path d="M410.477 352.487C410.37 353.021 410.71 353.543 411.243 353.66L419.321 355.434C419.867 355.554 420.406 355.202 420.516 354.654L420.547 354.495C420.654 353.961 420.314 353.439 419.782 353.322L411.704 351.547C411.157 351.427 410.619 351.779 410.509 352.328L410.477 352.487ZM411.986 347.554C411.777 348.044 411.988 348.612 412.466 348.846L419.961 352.515C420.472 352.765 421.09 352.538 421.317 352.016L421.368 351.898C421.582 351.408 421.372 350.837 420.893 350.601L413.406 346.913C412.892 346.66 412.271 346.89 412.045 347.417L411.986 347.554ZM414.186 343.629L421.276 349.828C421.707 350.205 422.364 350.144 422.719 349.696L422.777 349.622C423.108 349.203 423.053 348.599 422.651 348.248L416.277 342.675C415.846 342.298 415.189 342.359 414.834 342.807L414.186 343.627C414.185 343.627 414.185 343.628 414.186 343.629ZM419.281 338.527C419.281 338.527 419.281 338.527 419.281 338.527L418.389 339.222C417.967 339.55 417.878 340.151 418.186 340.588L423.135 347.598C423.464 348.065 424.117 348.161 424.567 347.81L424.633 347.759C425.054 347.431 425.143 346.83 424.835 346.394L419.281 338.527C419.281 338.526 419.281 338.526 419.281 338.527ZM410.073 357.359C410.073 357.911 410.521 358.359 411.073 358.359H419.317C419.869 358.359 420.317 357.911 420.317 357.359V357.211C420.317 356.659 419.869 356.211 419.317 356.211H411.073C410.521 356.211 410.073 356.659 410.073 357.211V357.359Z" fill="#C6B2FF"/>
<rect x="88.0001" y="72" width="412" height="93" rx="9" fill="#9277FF"/>
<rect opacity="0.5" x="205" y="103" width="250" height="8" rx="4" fill="#011552"/>
<rect opacity="0.5" x="205" y="125" width="153" height="8" rx="4" fill="#011552"/>
<g opacity="0.5">
<path d="M168.875 125.042L162.354 109.792C161.167 107 159.396 105.417 157.375 105.313C155.375 105.208 153.438 106.604 151.958 109.271L148 116.375C147.167 117.875 145.979 118.771 144.688 118.875C143.375 119 142.063 118.313 141 116.958L140.542 116.375C139.063 114.521 137.229 113.625 135.354 113.813C133.479 114 131.875 115.292 130.813 117.396L127.208 124.583C125.917 127.188 126.042 130.208 127.563 132.667C129.083 135.125 131.729 136.604 134.625 136.604H161.208C164 136.604 166.604 135.208 168.146 132.875C169.729 130.542 169.979 127.604 168.875 125.042Z" fill="#011552"/>
<path d="M137.521 107.458C141.41 107.458 144.563 104.306 144.563 100.417C144.563 96.5277 141.41 93.375 137.521 93.375C133.632 93.375 130.479 96.5277 130.479 100.417C130.479 104.306 133.632 107.458 137.521 107.458Z" fill="#011552"/>
</g>
<line x1="294" y1="165" x2="294" y2="236" stroke="#9277FF" stroke-width="2" stroke-dasharray="7.24 4.49"/>
<line x1="294" y1="261" x2="294" y2="292" stroke="#9277FF" stroke-width="2" stroke-dasharray="7.24 4.49"/>
<line x1="258" y1="292" x2="258" y2="323" stroke="#9277FF" stroke-width="2" stroke-dasharray="7.24 4.49"/>
<line x1="179" y1="292" x2="179" y2="323" stroke="#9277FF" stroke-width="2" stroke-dasharray="7.24 4.49"/>
<line x1="338" y1="292" x2="338" y2="323" stroke="#9277FF" stroke-width="2" stroke-dasharray="7.24 4.49"/>
<line x1="417" y1="292" x2="417" y2="323" stroke="#9277FF" stroke-width="2" stroke-dasharray="7.24 4.49"/>
<line x1="178" y1="291" x2="418" y2="291" stroke="#9277FF" stroke-width="2" stroke-dasharray="7.24 4.49"/>
<rect x="303.799" y="186.121" width="14" height="3" rx="1.5" transform="rotate(135 303.799 186.121)" fill="#9277FF"/>
<rect x="293.899" y="196.021" width="14" height="3" rx="1.5" transform="rotate(-135 293.899 196.021)" fill="#9277FF"/>
<rect x="250" y="219" width="92.6382" height="41.6382" rx="7" fill="url(#paint0_linear_3_428)"/>
<path d="M265.2 245.527C264.597 245.527 264.016 245.434 263.456 245.247C262.896 245.055 262.405 244.783 261.984 244.431C261.568 244.079 261.272 243.66 261.096 243.175L262.352 242.703C262.458 243.002 262.656 243.263 262.944 243.487C263.237 243.706 263.581 243.876 263.976 243.999C264.37 244.122 264.778 244.183 265.2 244.183C265.68 244.183 266.125 244.106 266.536 243.951C266.952 243.791 267.288 243.57 267.544 243.287C267.8 243.004 267.928 242.674 267.928 242.295C267.928 241.906 267.794 241.588 267.528 241.343C267.261 241.092 266.92 240.895 266.504 240.751C266.088 240.602 265.653 240.487 265.2 240.407C264.426 240.279 263.733 240.098 263.12 239.863C262.512 239.623 262.029 239.29 261.672 238.863C261.32 238.436 261.144 237.874 261.144 237.175C261.144 236.524 261.33 235.956 261.704 235.471C262.082 234.986 262.581 234.61 263.2 234.343C263.818 234.076 264.485 233.943 265.2 233.943C265.792 233.943 266.365 234.036 266.92 234.223C267.48 234.404 267.973 234.671 268.4 235.023C268.826 235.375 269.133 235.804 269.32 236.311L268.048 236.775C267.941 236.471 267.741 236.21 267.448 235.991C267.16 235.767 266.818 235.596 266.424 235.479C266.034 235.356 265.626 235.295 265.2 235.295C264.725 235.29 264.282 235.367 263.872 235.527C263.461 235.687 263.128 235.908 262.872 236.191C262.616 236.474 262.488 236.802 262.488 237.175C262.488 237.623 262.605 237.967 262.84 238.207C263.08 238.442 263.405 238.618 263.816 238.735C264.226 238.852 264.688 238.956 265.2 239.047C265.925 239.17 266.597 239.364 267.216 239.631C267.834 239.892 268.33 240.242 268.704 240.679C269.082 241.116 269.272 241.655 269.272 242.295C269.272 242.946 269.082 243.514 268.704 243.999C268.33 244.484 267.834 244.86 267.216 245.127C266.597 245.394 265.925 245.527 265.2 245.527ZM278.25 240.343V245.319H276.906V240.639C276.906 240.234 276.807 239.866 276.61 239.535C276.412 239.204 276.148 238.943 275.818 238.751C275.487 238.554 275.119 238.455 274.714 238.455C274.314 238.455 273.946 238.554 273.61 238.751C273.279 238.943 273.015 239.204 272.818 239.535C272.62 239.866 272.522 240.234 272.522 240.639V245.319H271.178V233.319H272.522V238.319C272.804 237.946 273.162 237.65 273.594 237.431C274.026 237.207 274.495 237.095 275.002 237.095C275.599 237.095 276.143 237.242 276.634 237.535C277.13 237.823 277.522 238.212 277.81 238.703C278.103 239.194 278.25 239.74 278.25 240.343ZM286.125 237.319H287.469V245.319H286.125L286.069 243.967C285.819 244.431 285.472 244.807 285.029 245.095C284.592 245.383 284.069 245.527 283.461 245.527C282.875 245.527 282.325 245.418 281.813 245.199C281.301 244.975 280.848 244.668 280.453 244.279C280.064 243.884 279.76 243.431 279.541 242.919C279.323 242.407 279.213 241.855 279.213 241.263C279.213 240.692 279.32 240.154 279.533 239.647C279.747 239.14 280.043 238.698 280.421 238.319C280.805 237.935 281.248 237.636 281.749 237.423C282.251 237.204 282.789 237.095 283.365 237.095C283.995 237.095 284.547 237.244 285.021 237.543C285.496 237.836 285.88 238.218 286.173 238.687L286.125 237.319ZM283.437 244.223C283.965 244.223 284.421 244.095 284.805 243.839C285.195 243.578 285.493 243.226 285.701 242.783C285.915 242.34 286.021 241.852 286.021 241.319C286.021 240.775 285.915 240.284 285.701 239.847C285.488 239.404 285.187 239.055 284.797 238.799C284.413 238.538 283.96 238.407 283.437 238.407C282.909 238.407 282.429 238.538 281.997 238.799C281.565 239.06 281.221 239.412 280.965 239.855C280.715 240.292 280.589 240.78 280.589 241.319C280.589 241.858 280.72 242.348 280.981 242.791C281.243 243.228 281.589 243.578 282.021 243.839C282.453 244.095 282.925 244.223 283.437 244.223ZM289.068 245.319V237.319H290.412V238.319C290.695 237.946 291.052 237.65 291.484 237.431C291.916 237.207 292.386 237.095 292.892 237.095C293.202 237.095 293.5 237.135 293.788 237.215L293.244 238.559C293.026 238.49 292.812 238.455 292.604 238.455C292.204 238.455 291.836 238.554 291.5 238.751C291.17 238.943 290.906 239.204 290.708 239.535C290.511 239.866 290.412 240.234 290.412 240.639V245.319H289.068ZM297.885 245.527C297.149 245.527 296.477 245.338 295.869 244.959C295.266 244.58 294.784 244.074 294.421 243.439C294.064 242.799 293.885 242.092 293.885 241.319C293.885 240.732 293.989 240.186 294.197 239.679C294.405 239.167 294.69 238.719 295.053 238.335C295.421 237.946 295.848 237.642 296.333 237.423C296.818 237.204 297.336 237.095 297.885 237.095C298.488 237.095 299.04 237.218 299.541 237.463C300.048 237.703 300.48 238.039 300.837 238.471C301.2 238.903 301.469 239.404 301.645 239.975C301.826 240.546 301.893 241.156 301.845 241.807H295.317C295.381 242.26 295.53 242.666 295.765 243.023C296 243.375 296.298 243.655 296.661 243.863C297.029 244.071 297.437 244.178 297.885 244.183C298.365 244.183 298.8 244.06 299.189 243.815C299.578 243.564 299.893 243.223 300.133 242.791L301.501 243.111C301.181 243.82 300.698 244.402 300.053 244.855C299.408 245.303 298.685 245.527 297.885 245.527ZM295.277 240.751H300.493C300.45 240.303 300.306 239.895 300.061 239.527C299.816 239.154 299.504 238.855 299.125 238.631C298.746 238.407 298.333 238.295 297.885 238.295C297.437 238.295 297.026 238.404 296.653 238.623C296.28 238.842 295.97 239.138 295.725 239.511C295.485 239.879 295.336 240.292 295.277 240.751Z" fill="white"/>
<path d="M325.019 245.383L328.942 237.537C331.582 232.266 329.419 230.102 324.148 232.742L322.553 233.54C322.085 233.769 321.544 233.769 321.077 233.54L319.491 232.742C314.22 230.102 312.057 232.257 314.697 237.537L318.62 245.383C320.38 248.903 323.259 248.903 325.019 245.383ZM321.132 242.422L321.132 237.472C321.132 237.097 321.444 236.785 321.819 236.785C322.195 236.785 322.507 237.097 322.507 237.472L322.507 242.422C322.507 242.798 322.195 243.11 321.819 243.11C321.444 243.11 321.132 242.798 321.132 242.422Z" fill="#6C47FF"/>
<defs>
<filter id="filter0_dddddd_3_428" x="6.10352e-05" y="0" width="593" height="505" filterUnits="userSpaceOnUse" color-interpolation-filters="sRGB">
<feFlood flood-opacity="0" result="BackgroundImageFix"/>
<feColorMatrix in="SourceAlpha" type="matrix" values="0 0 0 0 0 0 0 0 0 0 0 0 0 0 0 0 0 0 127 0" result="hardAlpha"/>
<feOffset dy="1.16225"/>
<feGaussianBlur stdDeviation="0.77483"/>
<feComposite in2="hardAlpha" operator="out"/>
<feColorMatrix type="matrix" values="0 0 0 0 0.0196078 0 0 0 0 0.00392157 0 0 0 0 0.211765 0 0 0 0.118 0"/>
<feBlend mode="normal" in2="BackgroundImageFix" result="effect1_dropShadow_3_428"/>
<feColorMatrix in="SourceAlpha" type="matrix" values="0 0 0 0 0 0 0 0 0 0 0 0 0 0 0 0 0 0 127 0" result="hardAlpha"/>
<feOffset dy="2.79304"/>
<feGaussianBlur stdDeviation="1.86203"/>
<feComposite in2="hardAlpha" operator="out"/>
<feColorMatrix type="matrix" values="0 0 0 0 0.0196078 0 0 0 0 0.00392157 0 0 0 0 0.211765 0 0 0 0.17 0"/>
<feBlend mode="normal" in2="effect1_dropShadow_3_428" result="effect2_dropShadow_3_428"/>
<feColorMatrix in="SourceAlpha" type="matrix" values="0 0 0 0 0 0 0 0 0 0 0 0 0 0 0 0 0 0 127 0" result="hardAlpha"/>
<feOffset dy="5.25905"/>
<feGaussianBlur stdDeviation="3.50604"/>
<feComposite in2="hardAlpha" operator="out"/>
<feColorMatrix type="matrix" values="0 0 0 0 0.0196078 0 0 0 0 0.00392157 0 0 0 0 0.211765 0 0 0 0.21 0"/>
<feBlend mode="normal" in2="effect2_dropShadow_3_428" result="effect3_dropShadow_3_428"/>
<feColorMatrix in="SourceAlpha" type="matrix" values="0 0 0 0 0 0 0 0 0 0 0 0 0 0 0 0 0 0 127 0" result="hardAlpha"/>
<feOffset dy="9.38125"/>
<feGaussianBlur stdDeviation="6.25415"/>
<feComposite in2="hardAlpha" operator="out"/>
<feColorMatrix type="matrix" values="0 0 0 0 0.0196078 0 0 0 0 0.00392157 0 0 0 0 0.211765 0 0 0 0.25 0"/>
<feBlend mode="normal" in2="effect3_dropShadow_3_428" result="effect4_dropShadow_3_428"/>
<feColorMatrix in="SourceAlpha" type="matrix" values="0 0 0 0 0 0 0 0 0 0 0 0 0 0 0 0 0 0 127 0" result="hardAlpha"/>
<feOffset dy="17.5466"/>
<feGaussianBlur stdDeviation="11.6978"/>
<feComposite in2="hardAlpha" operator="out"/>
<feColorMatrix type="matrix" values="0 0 0 0 0.0196078 0 0 0 0 0.00392157 0 0 0 0 0.211765 0 0 0 0.3 0"/>
<feBlend mode="normal" in2="effect4_dropShadow_3_428" result="effect5_dropShadow_3_428"/>
<feColorMatrix in="SourceAlpha" type="matrix" values="0 0 0 0 0 0 0 0 0 0 0 0 0 0 0 0 0 0 127 0" result="hardAlpha"/>
<feOffset dy="42"/>
<feGaussianBlur stdDeviation="28"/>
<feComposite in2="hardAlpha" operator="out"/>
<feColorMatrix type="matrix" values="0 0 0 0 0.0196078 0 0 0 0 0.00392157 0 0 0 0 0.211765 0 0 0 0.42 0"/>
<feBlend mode="normal" in2="effect5_dropShadow_3_428" result="effect6_dropShadow_3_428"/>
<feBlend mode="normal" in="SourceGraphic" in2="effect6_dropShadow_3_428" result="shape"/>
</filter>
<linearGradient id="paint0_linear_3_428" x1="342.92" y1="241.207" x2="249.698" y2="239.855" gradientUnits="userSpaceOnUse">
<stop stop-color="#F3EFFF"/>
<stop offset="0.8053" stop-color="#6C47FF"/>
</linearGradient>
<clipPath id="clip0_3_428">
<rect width="29.4574" height="29.4574" fill="white" transform="translate(321.819 335.819)"/>
</clipPath>
</defs>
</svg>
