<svg width="65" height="75" viewBox="0 0 65 75" fill="none" xmlns="http://www.w3.org/2000/svg">
<path d="M35.478 42.4985C34.3599 42.5332 33.2419 42.5525 32.129 42.5525C31.0122 42.5525 29.8903 42.5345 28.7697 42.4985C19.3357 42.2402 11.8178 40.9075 6.40497 39.0069C3.86046 38.1484 1.68221 37.1383 0 35.983V45.1214V45.7639V46.4065V48.063C3.65741 51.8811 15.9276 55.4023 32.1277 55.4023C48.3277 55.4023 60.5979 51.8811 64.2554 48.063V46.4065V45.7639V45.1214V35.983C62.5616 37.146 60.3641 38.1638 57.7977 39.0248C52.3874 40.9165 44.8849 42.2415 35.478 42.4985Z" fill="url(#paint0_linear)"/>
<path d="M0 19.134V28.2724V28.9149V29.5575V31.214C3.39011 34.7531 14.1786 38.0379 28.6399 38.498C28.7877 38.5031 28.9393 38.5044 29.0884 38.5082C29.5073 38.5198 29.925 38.5314 30.3504 38.5378C30.9377 38.5481 31.5301 38.5532 32.1277 38.5532C32.7253 38.5532 33.3177 38.5481 33.905 38.5391C34.3291 38.5326 34.748 38.5211 35.167 38.5095C35.316 38.5057 35.4677 38.5031 35.6155 38.4992C50.0768 38.0379 60.8652 34.7532 64.2554 31.2153V29.5575V28.9149V28.2724V19.134C58.0007 23.4301 44.7783 25.7021 32.1277 25.7021C19.4771 25.7021 6.2559 23.4301 0 19.134Z" fill="url(#paint1_linear)"/>
<path d="M64.0819 10.9774C62.64 5.45014 51.5521 0 32.1277 0C12.7521 0 1.67578 5.42315 0.188911 10.9363C0.079677 11.1252 0 11.3321 0 11.566V12.2085V14.5294C3.64585 18.3346 15.8287 21.8468 32.1277 21.8468C48.4267 21.8468 60.6108 18.3346 64.2554 14.5294V12.2085V11.566C64.2554 11.3501 64.1834 11.156 64.0819 10.9774Z" fill="url(#paint2_linear)"/>
<path d="M0 52.6894V63.2286C0 63.4367 0.0552597 63.6334 0.150358 63.8081C1.66807 70.0987 15.2465 74.7945 32.1277 74.7945C48.9703 74.7945 62.5269 70.118 64.0947 63.8505C64.1975 63.6655 64.2554 63.4534 64.2554 63.2286V52.692C58.9414 56.4329 47.9923 59.3732 32.1277 59.3732C16.2617 59.3732 5.31263 56.4303 0 52.6894Z" fill="url(#paint3_linear)"/>
<ellipse cx="32.5" cy="32.2792" rx="2.22603" ry="2.22603" fill="#7A51B8"/>
<ellipse cx="32.5" cy="48.9856" rx="2.22603" ry="2.22602" fill="#7A51B8"/>
<ellipse cx="32.5" cy="66.9771" rx="2.22603" ry="2.22602" fill="#7A51B8"/>
<defs>
<linearGradient id="paint0_linear" x1="5.01191" y1="39.9811" x2="59.4577" y2="54.9379" gradientUnits="userSpaceOnUse">
<stop stop-color="#EEEDEF"/>
<stop offset="1" stop-color="#DCD7DE"/>
</linearGradient>
<linearGradient id="paint1_linear" x1="5.01191" y1="23.132" x2="59.4577" y2="38.0889" gradientUnits="userSpaceOnUse">
<stop stop-color="#EEEDEF"/>
<stop offset="1" stop-color="#DCD7DE"/>
</linearGradient>
<linearGradient id="paint2_linear" x1="5.01191" y1="4.49788" x2="60.2715" y2="17.9915" gradientUnits="userSpaceOnUse">
<stop stop-color="#EEEDEF"/>
<stop offset="1" stop-color="#DCD7DE"/>
</linearGradient>
<linearGradient id="paint3_linear" x1="5.01191" y1="57.2404" x2="60.3439" y2="70.5939" gradientUnits="userSpaceOnUse">
<stop stop-color="#EEEDEF"/>
<stop offset="1" stop-color="#DCD7DE"/>
</linearGradient>
</defs>
</svg>
