<svg width="65" height="93" viewBox="0 0 65 93" fill="none" xmlns="http://www.w3.org/2000/svg">
<path d="M35.478 60.3067C34.3599 60.3414 33.2419 60.3607 32.129 60.3607C31.0122 60.3607 29.8903 60.3427 28.7697 60.3067C19.3357 60.0484 11.8178 58.7157 6.40497 56.8151C3.86046 55.9566 1.68221 54.9465 0 53.7912V62.9296V63.5722V64.2147V65.8712C3.65741 69.6893 15.9276 73.2105 32.1277 73.2105C48.3277 73.2105 60.5979 69.6893 64.2554 65.8712V64.2147V63.5722V62.9296V53.7912C62.5616 54.9542 60.3641 55.972 57.7977 56.8331C52.3874 58.7247 44.8849 60.0497 35.478 60.3067Z" fill="url(#paint0_linear)"/>
<path d="M35.478 43.0223C34.3599 43.057 33.2419 43.0763 32.129 43.0763C31.0122 43.0763 29.8903 43.0583 28.7697 43.0223C19.3357 42.764 11.8178 41.4314 6.40497 39.5307C3.86046 38.6723 1.68221 37.6622 0 36.5069V45.6452V46.2878V46.9304V48.5869C3.65741 52.4049 15.9276 55.9261 32.1277 55.9261C48.3277 55.9261 60.5979 52.4049 64.2554 48.5869V46.9304V46.2878V45.6452V36.5069C62.5616 37.6699 60.3641 38.6877 57.7977 39.5487C52.3874 41.4404 44.8849 42.7653 35.478 43.0223Z" fill="url(#paint1_linear)"/>
<path d="M0 19.134V28.2724V28.9149V29.5575V31.214C3.39011 34.7531 14.1786 38.0379 28.6399 38.498C28.7877 38.5031 28.9393 38.5044 29.0884 38.5082C29.5073 38.5198 29.925 38.5314 30.3504 38.5378C30.9377 38.5481 31.5301 38.5532 32.1277 38.5532C32.7253 38.5532 33.3177 38.5481 33.905 38.5391C34.3291 38.5326 34.748 38.5211 35.167 38.5095C35.316 38.5057 35.4677 38.5031 35.6155 38.4992C50.0768 38.0379 60.8652 34.7532 64.2554 31.2153V29.5575V28.9149V28.2724V19.134C58.0007 23.4301 44.7783 25.7021 32.1277 25.7021C19.4771 25.7021 6.2559 23.4301 0 19.134Z" fill="url(#paint2_linear)"/>
<path d="M64.0819 10.9774C62.64 5.45014 51.5521 0 32.1277 0C12.7521 0 1.67578 5.42315 0.188911 10.9363C0.079677 11.1252 0 11.3321 0 11.566V12.2085V14.5294C3.64585 18.3346 15.8287 21.8468 32.1277 21.8468C48.4267 21.8468 60.6108 18.3346 64.2554 14.5294V12.2085V11.566C64.2554 11.3501 64.1834 11.156 64.0819 10.9774Z" fill="url(#paint3_linear)"/>
<path d="M0 70.4976V81.0368C0 81.245 0.0552597 81.4416 0.150358 81.6164C1.66807 87.907 15.2465 92.6027 32.1277 92.6027C48.9703 92.6027 62.5269 87.9262 64.0947 81.6588C64.1975 81.4737 64.2554 81.2617 64.2554 81.0368V70.5002C58.9414 74.2411 47.9923 77.1815 32.1277 77.1815C16.2617 77.1815 5.31263 74.2386 0 70.4976Z" fill="url(#paint4_linear)"/>
<ellipse cx="32.226" cy="85.226" rx="2.22603" ry="2.22603" fill="#7A51B8"/>
<ellipse cx="32.226" cy="32.2792" rx="2.22603" ry="2.22603" fill="#7A51B8"/>
<ellipse cx="32.226" cy="48.9856" rx="2.22603" ry="2.22602" fill="#7A51B8"/>
<ellipse cx="32.226" cy="66.9771" rx="2.22603" ry="2.22603" fill="#7A51B8"/>
<defs>
<linearGradient id="paint0_linear" x1="5.01191" y1="57.7893" x2="59.4577" y2="72.7462" gradientUnits="userSpaceOnUse">
<stop stop-color="#EEEDEF"/>
<stop offset="1" stop-color="#DCD7DE"/>
</linearGradient>
<linearGradient id="paint1_linear" x1="5.01191" y1="40.5049" x2="59.4577" y2="55.4618" gradientUnits="userSpaceOnUse">
<stop stop-color="#EEEDEF"/>
<stop offset="1" stop-color="#DCD7DE"/>
</linearGradient>
<linearGradient id="paint2_linear" x1="5.01191" y1="23.132" x2="59.4577" y2="38.0889" gradientUnits="userSpaceOnUse">
<stop stop-color="#EEEDEF"/>
<stop offset="1" stop-color="#DCD7DE"/>
</linearGradient>
<linearGradient id="paint3_linear" x1="5.01191" y1="4.49788" x2="60.2715" y2="17.9915" gradientUnits="userSpaceOnUse">
<stop stop-color="#EEEDEF"/>
<stop offset="1" stop-color="#DCD7DE"/>
</linearGradient>
<linearGradient id="paint4_linear" x1="5.01191" y1="75.0487" x2="60.3439" y2="88.4021" gradientUnits="userSpaceOnUse">
<stop stop-color="#EEEDEF"/>
<stop offset="1" stop-color="#DCD7DE"/>
</linearGradient>
</defs>
</svg>
