<svg width="16" height="16" viewBox="0 0 16 16" fill="none" xmlns="http://www.w3.org/2000/svg">
<path d="M15.75 8C15.75 6.625 15.375 5.3125 14.6875 4.125C14 2.9375 13.0625 2 11.875 1.3125C10.6875 0.625 9.375 0.25 8 0.25C6.59375 0.25 5.3125 0.625 4.125 1.3125C2.9375 2 1.96875 2.9375 1.28125 4.125C0.59375 5.3125 0.25 6.625 0.25 8C0.25 9.40625 0.59375 10.6875 1.28125 11.875C1.96875 13.0625 2.9375 14.0312 4.125 14.7188C5.3125 15.4062 6.59375 15.75 8 15.75C9.375 15.75 10.6875 15.4062 11.875 14.7188C13.0625 14.0312 14 13.0625 14.6875 11.875C15.375 10.6875 15.75 9.40625 15.75 8ZM8.21875 2.8125C8.78125 2.8125 9.375 2.96875 9.9375 3.25C10.5 3.53125 10.9375 3.90625 11.3125 4.40625C11.6562 4.90625 11.8438 5.4375 11.8438 6C11.8438 6.6875 11.625 7.21875 11.25 7.65625C11 7.90625 10.625 8.21875 10.0938 8.53125C9.78125 8.71875 9.59375 8.84375 9.5 8.90625C9.3125 9.03125 9.25 9.1875 9.25 9.34375V9.375C9.25 9.5 9.1875 9.59375 9.125 9.65625C9.0625 9.71875 8.96875 9.75 8.875 9.75H7.125C7 9.75 6.90625 9.71875 6.84375 9.65625C6.78125 9.59375 6.75 9.5 6.75 9.375V9.25C6.75 8.71875 6.9375 8.25 7.3125 7.84375C7.5 7.625 7.875 7.375 8.40625 7.0625L8.46875 7.03125C8.8125 6.84375 9.0625 6.6875 9.1875 6.5625C9.375 6.40625 9.46875 6.21875 9.46875 5.96875C9.46875 5.6875 9.3125 5.4375 9 5.25C8.6875 5.0625 8.375 4.9375 8.03125 4.9375C7.65625 4.9375 7.3125 5.0625 7.03125 5.25C6.84375 5.40625 6.5625 5.6875 6.25 6.0625C6.1875 6.15625 6.09375 6.21875 6 6.21875C5.875 6.21875 5.8125 6.1875 5.75 6.125L4.65625 5.3125C4.5625 5.25 4.5 5.1875 4.5 5.09375C4.46875 5 4.5 4.90625 4.5625 4.8125C5 4.15625 5.5 3.65625 6.0625 3.34375C6.65625 3 7.375 2.8125 8.21875 2.8125ZM8 10.5625C8.375 10.5625 8.71875 10.7188 9 11C9.28125 11.2812 9.4375 11.625 9.4375 12C9.4375 12.4062 9.28125 12.75 9 13.0312C8.71875 13.3125 8.375 13.4375 8 13.4375C7.59375 13.4375 7.25 13.3125 6.96875 13.0312C6.6875 12.75 6.5625 12.4062 6.5625 12C6.5625 11.625 6.6875 11.2812 6.96875 11C7.25 10.7188 7.59375 10.5625 8 10.5625Z" fill="#C8C2CA"/>
</svg>
