<?xml version="1.0" standalone="no"?>
<!DOCTYPE svg PUBLIC "-//W3C//DTD SVG 20010904//EN"
 "http://www.w3.org/TR/2001/REC-SVG-20010904/DTD/svg10.dtd">
<svg version="1.0" xmlns="http://www.w3.org/2000/svg"
 width="260.000000pt" height="260.000000pt" viewBox="0 0 260.000000 260.000000"
 preserveAspectRatio="xMidYMid meet">
<metadata>
Created by potrace 1.11, written by Peter Selinger 2001-2013
</metadata>
<g transform="translate(0.000000,260.000000) scale(0.100000,-0.100000)"
fill="#000000" stroke="none">
<path d="M133 2529 c-30 -15 -48 -33 -62 -63 -21 -42 -21 -53 -21 -1170 0
-1248 -4 -1170 64 -1219 l31 -22 1155 0 1155 0 31 22 c68 49 64 -29 64 1222 0
1115 0 1132 -20 1171 -13 26 -34 47 -60 60 -39 20 -56 20 -1167 20 -1122 0
-1128 0 -1170 -21z m1760 -790 c110 -99 125 -119 111 -148 -13 -27 -211 -201
-230 -201 -32 0 -54 20 -54 50 0 21 12 39 48 71 l47 42 -43 -7 c-64 -10 -164
-53 -230 -99 -82 -57 -174 -146 -168 -162 2 -7 40 -43 83 -80 113 -97 220
-152 328 -170 l40 -6 -52 46 c-41 36 -53 53 -53 76 0 28 22 49 54 49 29 0 236
-193 236 -220 0 -24 -213 -220 -239 -220 -11 0 -27 7 -35 16 -29 28 -19 60 31
103 25 23 44 43 42 45 -2 1 -30 8 -62 14 -128 25 -242 87 -376 203 l-87 76
-68 -64 c-79 -75 -183 -145 -264 -178 -123 -50 -314 -72 -346 -39 -38 37 -4
84 60 84 166 0 339 78 488 218 66 63 69 53 -44 149 -121 104 -284 173 -410
173 -30 0 -66 6 -80 13 -31 16 -37 52 -13 79 16 19 26 20 102 14 199 -15 352
-86 521 -243 l60 -55 69 65 c121 114 244 183 382 214 l76 17 -48 44 c-53 48
-65 91 -31 111 34 20 53 10 155 -80z"/>
</g>
</svg>
