<?xml version="1.0" encoding="UTF-8"?>
<svg width="47px" height="43px" viewBox="0 0 47 43" version="1.1" xmlns="http://www.w3.org/2000/svg" xmlns:xlink="http://www.w3.org/1999/xlink">
    <g stroke="none" stroke-width="1" fill="none" fill-rule="evenodd">
        <g transform="translate(-671.000000, -5817.000000)">
            <g transform="translate(0.000000, 5343.234375)">
                <g transform="translate(533.750000, 419.000000)">
                    <g transform="translate(137.500000, 54.871094)">
                        <path d="M42,30 L4,30 C2.89543,30 2,30.89543 2,32 L2,40 C2,41.10457 2.89543,42 4,42 L42,42 C43.10457,42 44,41.10457 44,40 L44,32 C44,30.89543 43.10457,30 42,30 Z" id="Path" fill="#87613E"></path>
                        <path d="M31,8 C30.44727,8 30,7.55225 30,7 L30,2 L16,2 L16,7 C16,7.55225 15.55273,8 15,8 C14.44727,8 14,7.55225 14,7 L14,1 C14,0.44775 14.44727,0 15,0 L31,0 C31.55273,0 32,0.44775 32,1 L32,7 C32,7.55225 31.55273,8 31,8 Z" id="Path" fill="#87613E"></path>
                        <path d="M44,6 L2,6 C0.89543,6 0,6.89543 0,8 L0,30 C0,31.10457 0.89543,32 2,32 L44,32 C45.10457,32 46,31.10457 46,30 L46,8 C46,6.89543 45.10457,6 44,6 Z" id="Path" fill="#A67C52"></path>
                        <path d="M29,23 L17,23 C16.44772,23 16,22.55228 16,22 L16,16 C16,15.44772 16.44772,15 17,15 L29,15 C29.55228,15 30,15.44772 30,16 L30,22 C30,22.55228 29.55228,23 29,23 Z" id="Path" fill="#EFD358"></path>
                    </g>
                </g>
            </g>
        </g>
    </g>
</svg>