<svg width="24" height="24" version="1.1" viewBox="0 0 32 32" xml:space="preserve" xmlns="http://www.w3.org/2000/svg" xmlns:xlink="http://www.w3.org/1999/xlink">
    <g>
        <path d="M16,30C8.28,30,2,23.72,2,16S8.28,2,16,2c4.267,0,8.248,1.91,10.922,5.241c0.32,0.398,0.289,0.973-0.072,1.333   L14.707,20.707c-0.391,0.391-1.023,0.391-1.414,0l-5-5c-0.391-0.391-0.391-1.023,0-1.414s1.023-0.391,1.414,0L14,18.586   L24.778,7.817C22.51,5.381,19.357,4,16,4C9.383,4,4,9.383,4,16c0,6.617,5.383,12,12,12c6.617,0,12-5.383,12-12   c0-1.26-0.194-2.5-0.576-3.685c-0.17-0.525,0.118-1.089,0.644-1.259c0.531-0.169,1.089,0.119,1.259,0.645   C29.773,13.084,30,14.53,30,16C30,23.72,23.72,30,16,30z" fill="#27ae2a" fill-rule="evenodd" />
    </g>
</svg>