<svg width="601" height="133" xmlns="http://www.w3.org/2000/svg">
  <g fill-rule="nonzero" fill="none">
    <path fill="#FF9D28" d="M.4 49h88.4V15.9z"/>
    <path fill="#68C5ED" d="M88.8 15.9v117L130.6.3z"/>
    <path fill="#044D80" d="M88.8 49H55.4l33.4 83.8V49z"/>
    <path fill="#E54747" d="M.4 49L64 70.5 55.4 49z"/>
    <path d="M203 102c-.5.5-1.3 1.1-2.4 1.8-1.1.7-2.6 1.5-4.4 2.2-1.8.7-4 1.4-6.7 1.9-2.6.5-5.6.8-9 .8-6.5 0-12.2-1.1-17-3.1-4.8-2.1-8.7-5-11.8-8.8a35.7 35.7 0 0 1-6.8-13.3c-1.5-5.1-2.2-10.8-2.2-16.9 0-6.1.8-11.8 2.4-17 1.6-5.2 3.9-9.7 7.1-13.5 3.1-3.8 7.1-6.8 11.8-8.9 4.7-2.1 10.3-3.2 16.7-3.2 3.1 0 6 .3 8.5.8 2.5.6 4.8 1.2 6.7 2a29 29 0 0 1 4.7 2.4c1.3.8 2.2 1.6 2.8 2.1.7.6 1.4 1.4 1.9 2.3.5.9.8 1.9.8 2.9 0 1.6-.6 3.2-1.8 4.8a33.9 33.9 0 0 1-4 4.5c-1-1-2.1-2-3.3-3-1.2-1-2.6-1.9-4.1-2.7-1.5-.8-3.2-1.4-5.1-1.9-1.9-.5-4-.8-6.4-.8-4.1 0-7.6.8-10.4 2.5-2.8 1.7-5 3.8-6.7 6.5a27.1 27.1 0 0 0-3.6 9.1c-.7 3.4-1.1 6.9-1.1 10.5 0 3.8.4 7.4 1.1 10.9.7 3.5 2 6.5 3.8 9.2 1.8 2.7 4.1 4.8 7 6.4 2.9 1.6 6.4 2.4 10.7 2.4 2.3 0 4.3-.3 6.2-.8 1.9-.6 3.6-1.3 5-2.1 1.5-.8 2.7-1.7 3.8-2.5 1.1-.9 2-1.7 2.7-2.3.5.6 1 1.3 1.7 2.1s1.3 1.7 1.8 2.5c.6.9 1 1.8 1.5 2.7a5.67 5.67 0 0 1 0 5.1c-.4.7-1.1 1.5-1.9 2.4zm62.4-9.3c0 6.4.9 11.1 2.8 14-1.5.6-2.8 1-4.1 1.2-1.3.2-2.6.4-4 .4-2.9 0-5.1-.6-6.6-1.7a7.68 7.68 0 0 1-2.9-4.9 21.1 21.1 0 0 1-7.1 4.8c-2.9 1.3-6.5 1.9-10.7 1.9-2.2 0-4.4-.3-6.6-.9-2.2-.6-4.2-1.6-6-3-1.8-1.4-3.2-3.2-4.4-5.5-1.1-2.3-1.7-5.1-1.7-8.4 0-4.1 1-7.5 3-10.1 2-2.6 4.5-4.6 7.5-6.1s6.3-2.5 9.7-3.1c3.5-.6 6.7-.9 9.6-1.1 1-.1 1.9-.1 2.9-.1h2.6v-2.2c0-3.1-.8-5.3-2.5-6.7-1.7-1.3-4.4-2-8.1-2-3.5 0-6.6.6-9.3 1.7-2.7 1.1-5.4 2.4-8 3.9-1.1-1.4-2.1-2.9-2.7-4.6-.7-1.7-1-2.9-1-3.7 0-1.1.6-2.2 1.9-3.3 1.3-1.1 3-2 5.2-2.9 2.2-.9 4.7-1.5 7.6-2.1 2.8-.5 5.8-.8 9-.8 4.4 0 8.1.4 11.1 1.3s5.5 2.3 7.4 4.1c1.9 1.9 3.3 4.2 4.1 7a36 36 0 0 1 1.2 9.8l.1 23.1zm-15.6-14.1h-1.7c-.6 0-1.1 0-1.7.1-2 .2-4 .4-6 .7-2 .3-3.8.9-5.3 1.7-1.5.8-2.8 1.9-3.8 3.2-1 1.3-1.5 3-1.5 5 0 2.3.6 4.2 1.9 5.8 1.3 1.6 3.5 2.4 6.6 2.4 1.5 0 3-.2 4.4-.6 1.4-.4 2.6-.9 3.7-1.6 1.1-.7 1.9-1.4 2.5-2.1.6-.8.9-1.5.9-2.1V78.6zm45.9-24c1.3-1.5 3.3-3.1 6.1-4.7s6.2-2.4 10.4-2.4c3 0 5.9.5 8.6 1.5 2.7 1 5.1 2.7 7.2 4.9 2.1 2.3 3.8 5.3 5 9 1.3 3.7 1.9 8.3 1.9 13.8 0 6.3-.7 11.6-2.2 15.7-1.5 4.1-3.3 7.4-5.6 9.7-2.3 2.4-4.9 4.1-7.7 5.1s-5.7 1.5-8.5 1.5a22 22 0 0 1-6.1-.8c-1.7-.5-3.2-1.1-4.4-1.8-1.2-.6-2.1-1.3-2.8-1.9-.6-.6-1.1-1.1-1.2-1.3v30h-16.6V49.3c.4-.1.9-.2 1.5-.2.5-.1 1.1-.1 1.7-.2.7 0 1.4-.1 2.3-.1 2.7 0 5 .4 6.9 1.3 1.8.9 3 2.4 3.5 4.5zm22 22.5c0-2.4-.2-4.7-.6-6.8-.4-2.1-1.1-3.9-2-5.5-.9-1.5-2.2-2.7-3.8-3.6-1.6-.9-3.5-1.3-5.8-1.3-3.4 0-5.8.7-7.1 1.9-1.3 1.3-2 2.7-2 4.3V92c.6.7 1.8 1.4 3.5 2.3 1.7.9 3.6 1.3 5.8 1.3 4.1 0 7.1-1.6 9.1-4.9 1.9-3.2 2.9-7.7 2.9-13.6zm30 21c-.6-1.6-.9-3.3-1.1-5.1-.2-1.8-.2-3.6-.2-5.4V31.1c.6-.1 1.2-.2 1.8-.2.6-.1 1.2-.1 1.8-.2.6 0 1.3-.1 1.9-.1 1.3 0 2.6.1 3.9.4 1.3.2 2.5.7 3.5 1.5 1.1.7 1.9 1.7 2.6 3 .6 1.3 1 2.9 1 4.9v8.7H380v12.3h-17v26c0 5.7 2.3 8.5 6.9 8.5 1.1 0 2.2-.2 3.2-.5 1-.4 1.9-.8 2.7-1.2.8-.4 1.5-.9 2.1-1.4.6-.5 1-.9 1.3-1.1 1.2 1.8 2.2 3.3 2.8 4.6.6 1.3 1 2.5 1 3.7 0 1.1-.4 2.1-1.3 3.1s-2.1 2-3.6 2.8c-1.5.9-3.4 1.6-5.6 2.1-2.2.5-4.6.8-7.2.8-5 0-9-1-11.8-2.9-2.6-2.1-4.6-4.6-5.8-7.8zm74.3-1.6c2 0 3.8-.2 5.4-.7 1.5-.4 2.9-1 4.2-1.6 1.2-.6 2.3-1.4 3.2-2.1l2.4-2.1c1 1.2 2 2.8 3.1 4.7 1.1 1.9 1.6 3.5 1.6 4.7 0 1.8-1 3.4-3 4.9-1.7 1.3-4.1 2.4-7.3 3.4-3.1.9-6.8 1.4-11 1.4-3.8 0-7.6-.5-11.3-1.5-3.7-1-7-2.7-9.9-5.1-2.9-2.4-5.2-5.7-7-9.8-1.8-4.1-2.7-9.3-2.7-15.5 0-5.1.8-9.5 2.4-13.2 1.6-3.7 3.7-6.8 6.3-9.2 2.6-2.4 5.6-4.2 9-5.4 3.3-1.1 6.7-1.7 10.2-1.7 4.5 0 8.4.7 11.6 2.1 3.2 1.4 5.7 3.3 7.7 5.7 2 2.4 3.4 5.1 4.3 8.2.9 3.1 1.3 6.3 1.3 9.7v1.7c0 .7 0 1.3-.1 2.1 0 .7-.1 1.4-.1 2.1 0 .7-.1 1.2-.2 1.6h-35.9c.3 4.5 1.7 8.2 4.2 11.2 2.4 2.9 6.3 4.4 11.6 4.4zm5.6-24.7c0-3.9-.8-7.1-2.3-9.5-1.5-2.4-4.2-3.7-8.1-3.7-3.4 0-6 1.2-8 3.5s-3 5.5-3 9.7h21.4zm43.8-16.9c.5-.7 1.1-1.5 1.9-2.4.8-.9 1.8-1.7 3-2.4s2.5-1.3 3.9-1.8 2.9-.7 4.6-.7c1 0 2 .1 3.1.2 1.1.2 2.1.5 3 .9.9.4 1.7 1 2.3 1.8.6.8.9 1.7.9 2.8 0 1.8-.4 3.8-1.3 6.1s-1.8 4.3-2.7 5.9c-1.4-1.1-2.8-2-4.1-2.6-1.4-.6-3-.9-4.9-.9-2.5 0-4.6.7-6.3 2.2-1.7 1.5-2.6 3.2-2.6 5.3v39.4h-16.6V49.2c.4-.1.9-.2 1.5-.2.5-.1 1.1-.1 1.7-.2.6 0 1.4-.1 2.3-.1 2.6 0 4.9.5 6.8 1.5 1.8 1.1 3 2.6 3.5 4.7zm47.1 0c.5-.7 1.1-1.5 1.9-2.4.8-.9 1.8-1.7 3-2.4s2.5-1.3 3.9-1.8 2.9-.7 4.6-.7c1 0 2 .1 3.1.2 1.1.2 2.1.5 3 .9.9.4 1.7 1 2.3 1.8.6.8.9 1.7.9 2.8 0 1.8-.4 3.8-1.3 6.1s-1.8 4.3-2.7 5.9c-1.4-1.1-2.8-2-4.1-2.6-1.4-.6-3-.9-4.9-.9-2.5 0-4.6.7-6.3 2.2-1.7 1.5-2.6 3.2-2.6 5.3v39.4h-16.6V49.2c.4-.1.9-.2 1.5-.2.5-.1 1.1-.1 1.7-.2.6 0 1.4-.1 2.3-.1 2.6 0 4.9.5 6.8 1.5 1.8 1.1 3 2.6 3.5 4.7zm79.1 37.8c0 6.4.9 11.1 2.8 14-1.5.6-2.8 1-4.1 1.2-1.3.2-2.6.4-4 .4-2.9 0-5.1-.6-6.6-1.7a7.68 7.68 0 0 1-2.9-4.9 21.1 21.1 0 0 1-7.1 4.8c-2.9 1.3-6.5 1.9-10.7 1.9-2.2 0-4.4-.3-6.6-.9-2.2-.6-4.2-1.6-6-3-1.8-1.4-3.2-3.2-4.4-5.5-1.1-2.3-1.7-5.1-1.7-8.4 0-4.1 1-7.5 3-10.1 2-2.6 4.5-4.6 7.5-6.1s6.3-2.5 9.7-3.1c3.5-.6 6.7-.9 9.6-1.1 1-.1 1.9-.1 2.9-.1h2.6v-2.2c0-3.1-.8-5.3-2.5-6.7-1.7-1.3-4.4-2-8.1-2-3.5 0-6.6.6-9.3 1.7-2.7 1.1-5.4 2.4-8 3.9-1.1-1.4-2.1-2.9-2.7-4.6-.7-1.7-1-2.9-1-3.7 0-1.1.6-2.2 1.9-3.3 1.3-1.1 3-2 5.2-2.9 2.2-.9 4.7-1.5 7.6-2.1 2.8-.5 5.8-.8 9-.8 4.4 0 8.1.4 11.1 1.3s5.5 2.3 7.4 4.1c1.9 1.9 3.3 4.2 4.1 7a36 36 0 0 1 1.2 9.8l.1 23.1zM582 78.6h-1.7c-.6 0-1.1 0-1.7.1-2 .2-4 .4-6 .7-2 .3-3.8.9-5.3 1.7-1.5.8-2.8 1.9-3.8 3.2-1 1.3-1.5 3-1.5 5 0 2.3.6 4.2 1.9 5.8 1.3 1.6 3.5 2.4 6.6 2.4 1.5 0 3-.2 4.4-.6 1.4-.4 2.6-.9 3.7-1.6 1.1-.7 1.9-1.4 2.5-2.1.6-.8.9-1.5.9-2.1V78.6z" fill="#044D80"/>
  </g>
</svg>
