<svg xmlns="http://www.w3.org/2000/svg" xmlns:xlink="http://www.w3.org/1999/xlink" viewBox="0 0 94 122">
  <g id="container">
    <path fill="#fff" d="M8.1 89.9L47.6 110l38-20.1V11.3H8.1z"/>
    <path fill="#f2f3f2" d="M86.4 11.6L7.3 91.3l41 20.3 38.1-19.5z"/>
    <path d="M5.5 37.5v54.1l1.4.7 39.5 20.1 1.2.6 1.2-.6 38.1-20.1 1.4-.7V8.7H5.5v28.8zm2.6 52.6V11.3h77.6v78.8l-38.1 20.1L8.1 90.1z" fill="#dcdedc"/>
    <path d="M46.9 12.6c.4 0 .8 0 1.2.1L46.9 15c-1.8-.1-3.4 1.3-3.5 3.1-.1 1.8 1.3 3.4 3.1 3.5h.4c.8 0 1.6-.3 2.2-.8l1.3 2.2c-1 .7-2.2 1.1-3.5 1.1-3.2.1-5.9-2.3-6-5.5-.1-3.2 2.3-5.9 5.5-6h.5zm4.1 4.9l1.5 2.5-1.5 2.4-1.4-2.4h-2.9l1.5-2.5H51zm-2.4-.9c0-.4.1-.8.3-1.1.2-.3.6-.6.9-.8l.2-.1c.4-.2.5-.3.5-.5s-.3-.4-.5-.4c-.4 0-.7.2-.9.6l-.5-.5c.1-.2.3-.4.5-.6.3-.2.6-.2.9-.2.3 0 .7.1.9.3.2.2.4.5.4.8 0 .5-.3.9-.9 1.1l-.3.2c-.3.2-.5.3-.6.6h1.8v.7l-2.7-.1zm-1.7 12.5l9.5-5.4v-15H37.3v14.9l9.6 5.5z" fill="#ff492c"/>
    <path id="banner" d="M90.2 64.5H3.6l-3.2 7 3.2 7h86.6l3.1-7z" fill="#ff492c"/>
    <path fill="#252530" transform="translate(11.62, 60)" d="M5.25-10.51L5.25-10.51Q6.24-10.51 6.99-10.11L6.99-10.11L6.99-10.11Q7.74-9.71 8.15-8.96L8.15-8.96L8.15-8.96Q8.56-8.22 8.56-7.26L8.56-7.26L8.56-7.26Q8.56-6.31 8.14-5.59L8.14-5.59L8.14-5.59Q7.71-4.88 6.94-4.48L6.94-4.48L6.94-4.48Q6.17-4.08 5.16-4.08L5.16-4.08L3.03-4.08L3.03-4.08Q2.96-4.08 2.96-4.00L2.96-4.00L2.96-0.18L2.96-0.18Q2.96-0.10 2.90-0.05L2.90-0.05L2.90-0.05Q2.85 0 2.77 0L2.77 0L1.02 0L1.02 0Q0.94 0 0.89-0.05L0.89-0.05L0.89-0.05Q0.84-0.10 0.84-0.18L0.84-0.18L0.84-10.33L0.84-10.33Q0.84-10.41 0.89-10.46L0.89-10.46L0.89-10.46Q0.94-10.51 1.02-10.51L1.02-10.51L5.25-10.51ZM4.93-5.77L4.93-5.77Q5.63-5.77 6.04-6.17L6.04-6.17L6.04-6.17Q6.46-6.57 6.46-7.21L6.46-7.21L6.46-7.21Q6.46-7.88 6.04-8.28L6.04-8.28L6.04-8.28Q5.63-8.69 4.93-8.69L4.93-8.69L3.03-8.69L3.03-8.69Q2.96-8.69 2.96-8.61L2.96-8.61L2.96-5.85L2.96-5.85Q2.96-5.77 3.03-5.77L3.03-5.77L4.93-5.77ZM16.56-4.65L16.56-4.65Q16.65-4.08 16.62-3.38L16.62-3.38L16.62-3.38Q16.61-3.19 16.43-3.19L16.43-3.19L11.79-3.19L11.79-3.19Q11.70-3.19 11.73-3.12L11.73-3.12L11.73-3.12Q11.78-2.82 11.89-2.52L11.89-2.52L11.89-2.52Q12.29-1.68 13.48-1.68L13.48-1.68L13.48-1.68Q14.45-1.69 15-2.46L15-2.46L15-2.46Q15.06-2.55 15.13-2.55L15.13-2.55L15.13-2.55Q15.18-2.55 15.24-2.49L15.24-2.49L16.32-1.43L16.32-1.43Q16.39-1.35 16.39-1.29L16.39-1.29L16.39-1.29Q16.39-1.26 16.34-1.17L16.34-1.17L16.34-1.17Q15.84-0.55 15.06-0.22L15.06-0.22L15.06-0.22Q14.28 0.12 13.35 0.12L13.35 0.12L13.35 0.12Q12.06 0.12 11.17-0.46L11.17-0.46L11.17-0.46Q10.28-1.05 9.88-2.10L9.88-2.10L9.88-2.10Q9.57-2.85 9.57-4.06L9.57-4.06L9.57-4.06Q9.57-4.89 9.79-5.52L9.79-5.52L9.79-5.52Q10.14-6.58 11.00-7.21L11.00-7.21L11.00-7.21Q11.87-7.84 13.05-7.84L13.05-7.84L13.05-7.84Q14.55-7.84 15.46-6.97L15.46-6.97L15.46-6.97Q16.37-6.10 16.56-4.65L16.56-4.65ZM13.06-6.01L13.06-6.01Q12.12-6.01 11.82-5.13L11.82-5.13L11.82-5.13Q11.76-4.93 11.71-4.65L11.71-4.65L11.71-4.65Q11.71-4.58 11.79-4.58L11.79-4.58L14.38-4.58L14.38-4.58Q14.47-4.58 14.45-4.65L14.45-4.65L14.45-4.65Q14.37-5.08 14.37-5.07L14.37-5.07L14.37-5.07Q14.23-5.52 13.90-5.77L13.90-5.77L13.90-5.77Q13.56-6.01 13.06-6.01L13.06-6.01ZM21.77-7.81L21.77-7.81Q22.30-7.81 22.62-7.60L22.62-7.60L22.62-7.60Q22.74-7.54 22.71-7.38L22.71-7.38L22.39-5.67L22.39-5.67Q22.38-5.49 22.18-5.56L22.18-5.56L22.18-5.56Q21.96-5.64 21.66-5.64L21.66-5.64L21.66-5.64Q21.54-5.64 21.33-5.61L21.33-5.61L21.33-5.61Q20.79-5.56 20.41-5.21L20.41-5.21L20.41-5.21Q20.04-4.86 20.04-4.27L20.04-4.27L20.04-0.18L20.04-0.18Q20.04-0.10 19.99-0.05L19.99-0.05L19.99-0.05Q19.93 0 19.86 0L19.86 0L18.11 0L18.11 0Q18.03 0 17.98-0.05L17.98-0.05L17.98-0.05Q17.93-0.10 17.93-0.18L17.93-0.18L17.93-7.53L17.93-7.53Q17.93-7.60 17.98-7.66L17.98-7.66L17.98-7.66Q18.03-7.71 18.11-7.71L18.11-7.71L19.86-7.71L19.86-7.71Q19.93-7.71 19.99-7.66L19.99-7.66L19.99-7.66Q20.04-7.60 20.04-7.53L20.04-7.53L20.04-6.96L20.04-6.96Q20.04-6.92 20.07-6.90L20.07-6.90L20.07-6.90Q20.10-6.88 20.11-6.92L20.11-6.92L20.11-6.92Q20.73-7.81 21.77-7.81L21.77-7.81ZM28.07-7.72L28.07-7.72Q28.14-7.72 28.19-7.67L28.19-7.67L28.19-7.67Q28.25-7.62 28.25-7.54L28.25-7.54L28.25-6.12L28.25-6.12Q28.25-6.04 28.19-5.99L28.19-5.99L28.19-5.99Q28.14-5.94 28.07-5.94L28.07-5.94L26.61-5.94L26.61-5.94Q26.54-5.94 26.54-5.87L26.54-5.87L26.54-0.18L26.54-0.18Q26.54-0.10 26.48-0.05L26.48-0.05L26.48-0.05Q26.43 0 26.36 0L26.36 0L24.60 0L24.60 0Q24.53 0 24.47-0.05L24.47-0.05L24.47-0.05Q24.42-0.10 24.42-0.18L24.42-0.18L24.42-5.87L24.42-5.87Q24.42-5.94 24.34-5.94L24.34-5.94L23.46-5.94L23.46-5.94Q23.39-5.94 23.33-5.99L23.33-5.99L23.33-5.99Q23.28-6.04 23.28-6.12L23.28-6.12L23.28-7.54L23.28-7.54Q23.28-7.62 23.33-7.67L23.33-7.67L23.33-7.67Q23.39-7.72 23.46-7.72L23.46-7.72L24.34-7.72L24.34-7.72Q24.42-7.72 24.42-7.80L24.42-7.80L24.42-8.13L24.42-8.13Q24.42-9.06 24.71-9.58L24.71-9.58L24.71-9.58Q24.99-10.09 25.63-10.31L25.63-10.31L25.63-10.31Q26.27-10.53 27.39-10.50L27.39-10.50L27.96-10.50L27.96-10.50Q28.04-10.50 28.09-10.45L28.09-10.45L28.09-10.45Q28.14-10.39 28.14-10.32L28.14-10.32L28.14-9.11L28.14-9.11Q28.14-9.03 28.09-8.98L28.09-8.98L28.09-8.98Q28.04-8.92 27.96-8.92L27.96-8.92L27.46-8.92L27.46-8.92Q26.94-8.91 26.74-8.71L26.74-8.71L26.74-8.71Q26.54-8.50 26.54-7.96L26.54-7.96L26.54-7.80L26.54-7.80Q26.54-7.72 26.61-7.72L26.61-7.72L28.07-7.72ZM32.88 0.12L32.88 0.12Q31.62 0.12 30.72-0.54L30.72-0.54L30.72-0.54Q29.82-1.20 29.49-2.34L29.49-2.34L29.49-2.34Q29.28-3.04 29.28-3.87L29.28-3.87L29.28-3.87Q29.28-4.75 29.49-5.46L29.49-5.46L29.49-5.46Q29.84-6.57 30.73-7.20L30.73-7.20L30.73-7.20Q31.64-7.83 32.90-7.83L32.90-7.83L32.90-7.83Q34.13-7.83 34.99-7.21L34.99-7.21L34.99-7.21Q35.87-6.58 36.23-5.47L36.23-5.47L36.23-5.47Q36.47-4.72 36.47-3.90L36.47-3.90L36.47-3.90Q36.47-3.09 36.26-2.38L36.26-2.38L36.26-2.38Q35.92-1.21 35.03-0.55L35.03-0.55L35.03-0.55Q34.14 0.12 32.88 0.12L32.88 0.12ZM32.88-1.69L32.88-1.69Q33.38-1.69 33.72-1.99L33.72-1.99L33.72-1.99Q34.06-2.29 34.22-2.82L34.22-2.82L34.22-2.82Q34.34-3.30 34.34-3.87L34.34-3.87L34.34-3.87Q34.34-4.50 34.22-4.93L34.22-4.93L34.22-4.93Q34.05-5.44 33.70-5.73L33.70-5.73L33.70-5.73Q33.36-6.01 32.87-6.01L32.87-6.01L32.87-6.01Q32.35-6.01 32.02-5.73L32.02-5.73L32.02-5.73Q31.68-5.44 31.53-4.93L31.53-4.93L31.53-4.93Q31.41-4.58 31.41-3.87L31.41-3.87L31.41-3.87Q31.41-3.19 31.52-2.82L31.52-2.82L31.52-2.82Q31.66-2.29 32.02-1.99L32.02-1.99L32.02-1.99Q32.37-1.69 32.88-1.69L32.88-1.69ZM41.67-7.81L41.67-7.81Q42.21-7.81 42.52-7.60L42.52-7.60L42.52-7.60Q42.64-7.54 42.61-7.38L42.61-7.38L42.30-5.67L42.30-5.67Q42.28-5.49 42.09-5.56L42.09-5.56L42.09-5.56Q41.86-5.64 41.56-5.64L41.56-5.64L41.56-5.64Q41.44-5.64 41.23-5.61L41.23-5.61L41.23-5.61Q40.70-5.56 40.32-5.21L40.32-5.21L40.32-5.21Q39.95-4.86 39.95-4.27L39.95-4.27L39.95-0.18L39.95-0.18Q39.95-0.10 39.89-0.05L39.89-0.05L39.89-0.05Q39.84 0 39.77 0L39.77 0L38.01 0L38.01 0Q37.93 0 37.88-0.05L37.88-0.05L37.88-0.05Q37.83-0.10 37.83-0.18L37.83-0.18L37.83-7.53L37.83-7.53Q37.83-7.60 37.88-7.66L37.88-7.66L37.88-7.66Q37.93-7.71 38.01-7.71L38.01-7.71L39.77-7.71L39.77-7.71Q39.84-7.71 39.89-7.66L39.89-7.66L39.89-7.66Q39.95-7.60 39.95-7.53L39.95-7.53L39.95-6.96L39.95-6.96Q39.95-6.92 39.97-6.90L39.97-6.90L39.97-6.90Q40.00-6.88 40.02-6.92L40.02-6.92L40.02-6.92Q40.63-7.81 41.67-7.81L41.67-7.81ZM52.12-7.83L52.12-7.83Q53.29-7.83 53.95-7.13L53.95-7.13L53.95-7.13Q54.61-6.42 54.61-5.14L54.61-5.14L54.61-0.18L54.61-0.18Q54.61-0.10 54.56-0.05L54.56-0.05L54.56-0.05Q54.51 0 54.43 0L54.43 0L52.68 0L52.68 0Q52.60 0 52.55-0.05L52.55-0.05L52.55-0.05Q52.50-0.10 52.50-0.18L52.50-0.18L52.50-4.68L52.50-4.68Q52.50-5.29 52.18-5.65L52.18-5.65L52.18-5.65Q51.87-6.01 51.34-6.01L51.34-6.01L51.34-6.01Q50.82-6.01 50.49-5.65L50.49-5.65L50.49-5.65Q50.16-5.29 50.16-4.69L50.16-4.69L50.16-0.18L50.16-0.18Q50.16-0.10 50.11-0.05L50.11-0.05L50.11-0.05Q50.05 0 49.98 0L49.98 0L48.24 0L48.24 0Q48.16 0 48.11-0.05L48.11-0.05L48.11-0.05Q48.06-0.10 48.06-0.18L48.06-0.18L48.06-4.68L48.06-4.68Q48.06-5.28 47.73-5.65L47.73-5.65L47.73-5.65Q47.40-6.01 46.87-6.01L46.87-6.01L46.87-6.01Q46.39-6.01 46.07-5.73L46.07-5.73L46.07-5.73Q45.75-5.44 45.69-4.93L45.69-4.93L45.69-0.18L45.69-0.18Q45.69-0.10 45.64-0.05L45.64-0.05L45.64-0.05Q45.58 0 45.51 0L45.51 0L43.75 0L43.75 0Q43.68 0 43.63-0.05L43.63-0.05L43.63-0.05Q43.57-0.10 43.57-0.18L43.57-0.18L43.57-7.53L43.57-7.53Q43.57-7.60 43.63-7.66L43.63-7.66L43.63-7.66Q43.68-7.71 43.75-7.71L43.75-7.71L45.51-7.71L45.51-7.71Q45.58-7.71 45.64-7.66L45.64-7.66L45.64-7.66Q45.69-7.60 45.69-7.53L45.69-7.53L45.69-6.94L45.69-6.94Q45.69-6.90 45.72-6.88L45.72-6.88L45.72-6.88Q45.75-6.87 45.78-6.92L45.78-6.92L45.78-6.92Q46.39-7.83 47.68-7.83L47.68-7.83L47.68-7.83Q48.43-7.83 49.00-7.51L49.00-7.51L49.00-7.51Q49.56-7.20 49.86-6.61L49.86-6.61L49.86-6.61Q49.90-6.52 49.96-6.61L49.96-6.61L49.96-6.61Q50.29-7.23 50.86-7.53L50.86-7.53L50.86-7.53Q51.42-7.83 52.12-7.83L52.12-7.83ZM62.92-4.65L62.92-4.65Q63.01-4.08 62.98-3.38L62.98-3.38L62.98-3.38Q62.97-3.19 62.79-3.19L62.79-3.19L58.15-3.19L58.15-3.19Q58.06-3.19 58.09-3.12L58.09-3.12L58.09-3.12Q58.14-2.82 58.26-2.52L58.26-2.52L58.26-2.52Q58.65-1.68 59.85-1.68L59.85-1.68L59.85-1.68Q60.81-1.69 61.36-2.46L61.36-2.46L61.36-2.46Q61.42-2.55 61.50-2.55L61.50-2.55L61.50-2.55Q61.54-2.55 61.60-2.49L61.60-2.49L62.68-1.43L62.68-1.43Q62.76-1.35 62.76-1.29L62.76-1.29L62.76-1.29Q62.76-1.26 62.70-1.17L62.70-1.17L62.70-1.17Q62.20-0.55 61.42-0.22L61.42-0.22L61.42-0.22Q60.64 0.12 59.71 0.12L59.71 0.12L59.71 0.12Q58.42 0.12 57.53-0.46L57.53-0.46L57.53-0.46Q56.64-1.05 56.25-2.10L56.25-2.10L56.25-2.10Q55.93-2.85 55.93-4.06L55.93-4.06L55.93-4.06Q55.93-4.89 56.16-5.52L56.16-5.52L56.16-5.52Q56.50-6.58 57.37-7.21L57.37-7.21L57.37-7.21Q58.23-7.84 59.41-7.84L59.41-7.84L59.41-7.84Q60.91-7.84 61.82-6.97L61.82-6.97L61.82-6.97Q62.73-6.10 62.92-4.65L62.92-4.65ZM59.43-6.01L59.43-6.01Q58.48-6.01 58.18-5.13L58.18-5.13L58.18-5.13Q58.12-4.93 58.08-4.65L58.08-4.65L58.08-4.65Q58.08-4.58 58.15-4.58L58.15-4.58L60.75-4.58L60.75-4.58Q60.84-4.58 60.81-4.65L60.81-4.65L60.81-4.65Q60.73-5.08 60.73-5.07L60.73-5.07L60.73-5.07Q60.60-5.52 60.26-5.77L60.26-5.77L60.26-5.77Q59.92-6.01 59.43-6.01L59.43-6.01ZM68.13-7.81L68.13-7.81Q68.67-7.81 68.98-7.60L68.98-7.60L68.98-7.60Q69.10-7.54 69.07-7.38L69.07-7.38L68.76-5.67L68.76-5.67Q68.74-5.49 68.55-5.56L68.55-5.56L68.55-5.56Q68.32-5.64 68.02-5.64L68.02-5.64L68.02-5.64Q67.90-5.64 67.69-5.61L67.69-5.61L67.69-5.61Q67.15-5.56 66.78-5.21L66.78-5.21L66.78-5.21Q66.40-4.86 66.40-4.27L66.40-4.27L66.40-0.18L66.40-0.18Q66.40-0.10 66.35-0.05L66.35-0.05L66.35-0.05Q66.30 0 66.22 0L66.22 0L64.47 0L64.47 0Q64.39 0 64.34-0.05L64.34-0.05L64.34-0.05Q64.29-0.10 64.29-0.18L64.29-0.18L64.29-7.53L64.29-7.53Q64.29-7.60 64.34-7.66L64.34-7.66L64.34-7.66Q64.39-7.71 64.47-7.71L64.47-7.71L66.22-7.71L66.22-7.71Q66.30-7.71 66.35-7.66L66.35-7.66L66.35-7.66Q66.40-7.60 66.40-7.53L66.40-7.53L66.40-6.96L66.40-6.96Q66.40-6.92 66.43-6.90L66.43-6.90L66.43-6.90Q66.46-6.88 66.48-6.92L66.48-6.92L66.48-6.92Q67.09-7.81 68.13-7.81L68.13-7.81Z"/><path fill="#252530" transform="translate(31.56, 45)" d="M6.50-10.32L6.50-10.32Q6.50-10.39 6.55-10.45L6.55-10.45L6.55-10.45Q6.60-10.50 6.67-10.50L6.67-10.50L8.43-10.50L8.43-10.50Q8.50-10.50 8.56-10.45L8.56-10.45L8.56-10.45Q8.61-10.39 8.61-10.32L8.61-10.32L8.61-0.18L8.61-0.18Q8.61-0.10 8.56-0.05L8.56-0.05L8.56-0.05Q8.50 0 8.43 0L8.43 0L6.67 0L6.67 0Q6.60 0 6.55-0.05L6.55-0.05L6.55-0.05Q6.50-0.10 6.50-0.18L6.50-0.18L6.50-4.32L6.50-4.32Q6.50-4.39 6.42-4.39L6.42-4.39L3.10-4.39L3.10-4.39Q3.03-4.39 3.03-4.32L3.03-4.32L3.03-0.18L3.03-0.18Q3.03-0.10 2.98-0.05L2.98-0.05L2.98-0.05Q2.92 0 2.85 0L2.85 0L1.09 0L1.09 0Q1.02 0 0.97-0.05L0.97-0.05L0.97-0.05Q0.91-0.10 0.91-0.18L0.91-0.18L0.91-10.32L0.91-10.32Q0.91-10.39 0.97-10.45L0.97-10.45L0.97-10.45Q1.02-10.50 1.09-10.50L1.09-10.50L2.85-10.50L2.85-10.50Q2.92-10.50 2.98-10.45L2.98-10.45L2.98-10.45Q3.03-10.39 3.03-10.32L3.03-10.32L3.03-6.29L3.03-6.29Q3.03-6.21 3.10-6.21L3.10-6.21L6.42-6.21L6.42-6.21Q6.50-6.21 6.50-6.29L6.50-6.29L6.50-10.32ZM11.34-8.58L11.34-8.58Q10.83-8.58 10.49-8.92L10.49-8.92L10.49-8.92Q10.15-9.25 10.15-9.76L10.15-9.76L10.15-9.76Q10.15-10.29 10.48-10.62L10.48-10.62L10.48-10.62Q10.81-10.95 11.34-10.95L11.34-10.95L11.34-10.95Q11.87-10.95 12.20-10.62L12.20-10.62L12.20-10.62Q12.53-10.29 12.53-9.76L12.53-9.76L12.53-9.76Q12.53-9.25 12.19-8.92L12.19-8.92L12.19-8.92Q11.85-8.58 11.34-8.58L11.34-8.58ZM10.44 0L10.44 0Q10.37 0 10.31-0.05L10.31-0.05L10.31-0.05Q10.26-0.10 10.26-0.18L10.26-0.18L10.26-7.54L10.26-7.54Q10.26-7.62 10.31-7.67L10.31-7.67L10.31-7.67Q10.37-7.72 10.44-7.72L10.44-7.72L12.20-7.72L12.20-7.72Q12.27-7.72 12.32-7.67L12.32-7.67L12.32-7.67Q12.38-7.62 12.38-7.54L12.38-7.54L12.38-0.18L12.38-0.18Q12.38-0.10 12.32-0.05L12.32-0.05L12.32-0.05Q12.27 0 12.20 0L12.20 0L10.44 0ZM18.73-7.53L18.73-7.53Q18.73-7.60 18.79-7.66L18.79-7.66L18.79-7.66Q18.84-7.71 18.91-7.71L18.91-7.71L20.67-7.71L20.67-7.71Q20.74-7.71 20.80-7.66L20.80-7.66L20.80-7.66Q20.85-7.60 20.85-7.53L20.85-7.53L20.85-0.69L20.85-0.69Q20.85 1.27 19.72 2.11L19.72 2.11L19.72 2.11Q18.59 2.96 16.80 2.96L16.80 2.96L16.80 2.96Q16.27 2.96 15.63 2.88L15.63 2.88L15.63 2.88Q15.48 2.86 15.48 2.69L15.48 2.69L15.54 1.14L15.54 1.14Q15.54 0.94 15.75 0.97L15.75 0.97L15.75 0.97Q16.29 1.06 16.74 1.06L16.74 1.06L16.74 1.06Q17.70 1.06 18.22 0.65L18.22 0.65L18.22 0.65Q18.73 0.22 18.73-0.70L18.73-0.70L18.73-0.70Q18.73-0.75 18.70-0.76L18.70-0.76L18.70-0.76Q18.67-0.77 18.64-0.73L18.64-0.73L18.64-0.73Q18.07-0.12 16.98-0.12L16.98-0.12L16.98-0.12Q16.00-0.12 15.19-0.59L15.19-0.59L15.19-0.59Q14.37-1.06 14.02-2.11L14.02-2.11L14.02-2.11Q13.80-2.80 13.80-3.90L13.80-3.90L13.80-3.90Q13.80-5.07 14.07-5.80L14.07-5.80L14.07-5.80Q14.38-6.72 15.13-7.27L15.13-7.27L15.13-7.27Q15.88-7.83 16.88-7.83L16.88-7.83L16.88-7.83Q18.03-7.83 18.64-7.14L18.64-7.14L18.64-7.14Q18.67-7.11 18.70-7.12L18.70-7.12L18.70-7.12Q18.73-7.13 18.73-7.17L18.73-7.17L18.73-7.53ZM18.61-2.69L18.61-2.69Q18.73-3.13 18.73-3.92L18.73-3.92L18.73-3.92Q18.73-4.38 18.70-4.63L18.70-4.63L18.70-4.63Q18.67-4.89 18.60-5.12L18.60-5.12L18.60-5.12Q18.46-5.52 18.15-5.77L18.15-5.77L18.15-5.77Q17.84-6.01 17.37-6.01L17.37-6.01L17.37-6.01Q16.92-6.01 16.61-5.77L16.61-5.77L16.61-5.77Q16.29-5.52 16.14-5.12L16.14-5.12L16.14-5.12Q15.93-4.67 15.93-3.90L15.93-3.90L15.93-3.90Q15.93-3.06 16.11-2.70L16.11-2.70L16.11-2.70Q16.24-2.29 16.58-2.05L16.58-2.05L16.58-2.05Q16.92-1.80 17.38-1.80L17.38-1.80L17.38-1.80Q17.86-1.80 18.18-2.05L18.18-2.05L18.18-2.05Q18.49-2.29 18.61-2.69L18.61-2.69ZM26.39-7.83L26.39-7.83Q27.59-7.83 28.32-7.09L28.32-7.09L28.32-7.09Q29.05-6.36 29.05-5.10L29.05-5.10L29.05-0.18L29.05-0.18Q29.05-0.10 29.00-0.05L29.00-0.05L29.00-0.05Q28.95 0 28.88 0L28.88 0L27.12 0L27.12 0Q27.05 0 26.99-0.05L26.99-0.05L26.99-0.05Q26.94-0.10 26.94-0.18L26.94-0.18L26.94-4.67L26.94-4.67Q26.94-5.26 26.60-5.64L26.60-5.64L26.60-5.64Q26.27-6.01 25.71-6.01L25.71-6.01L25.71-6.01Q25.16-6.01 24.82-5.64L24.82-5.64L24.82-5.64Q24.48-5.26 24.48-4.67L24.48-4.67L24.48-0.18L24.48-0.18Q24.48-0.10 24.43-0.05L24.43-0.05L24.43-0.05Q24.38 0 24.30 0L24.30 0L22.55 0L22.55 0Q22.47 0 22.42-0.05L22.42-0.05L22.42-0.05Q22.37-0.10 22.37-0.18L22.37-0.18L22.37-10.32L22.37-10.32Q22.37-10.39 22.42-10.45L22.42-10.45L22.42-10.45Q22.47-10.50 22.55-10.50L22.55-10.50L24.30-10.50L24.30-10.50Q24.38-10.50 24.43-10.45L24.43-10.45L24.43-10.45Q24.48-10.39 24.48-10.32L24.48-10.32L24.48-7.00L24.48-7.00Q24.48-6.96 24.51-6.94L24.51-6.94L24.51-6.94Q24.54-6.93 24.55-6.96L24.55-6.96L24.55-6.96Q25.17-7.83 26.39-7.83L26.39-7.83Z"/><path fill="#fff" transform="translate(27.47, 75.4)" d="M2.99 0.08L2.99 0.08Q2.21 0.08 1.63-0.17L1.63-0.17L1.63-0.17Q1.05-0.42 0.73-0.87L0.73-0.87L0.73-0.87Q0.42-1.32 0.42-1.93L0.42-1.93L0.42-2.18L0.42-2.18Q0.42-2.23 0.46-2.27L0.46-2.27L0.46-2.27Q0.49-2.30 0.54-2.30L0.54-2.30L1.43-2.30L1.43-2.30Q1.48-2.30 1.52-2.27L1.52-2.27L1.52-2.27Q1.55-2.23 1.55-2.18L1.55-2.18L1.55-1.99L1.55-1.99Q1.55-1.53 1.96-1.23L1.96-1.23L1.96-1.23Q2.37-0.92 3.08-0.92L3.08-0.92L3.08-0.92Q3.69-0.92 4-1.18L4-1.18L4-1.18Q4.31-1.44 4.31-1.85L4.31-1.85L4.31-1.85Q4.31-2.13 4.14-2.33L4.14-2.33L4.14-2.33Q3.97-2.52 3.66-2.68L3.66-2.68L3.66-2.68Q3.34-2.84 2.71-3.08L2.71-3.08L2.71-3.08Q2-3.34 1.56-3.57L1.56-3.57L1.56-3.57Q1.12-3.80 0.83-4.20L0.83-4.20L0.83-4.20Q0.53-4.59 0.53-5.18L0.53-5.18L0.53-5.18Q0.53-6.06 1.17-6.57L1.17-6.57L1.17-6.57Q1.81-7.08 2.88-7.08L2.88-7.08L2.88-7.08Q3.63-7.08 4.21-6.82L4.21-6.82L4.21-6.82Q4.78-6.56 5.10-6.09L5.10-6.09L5.10-6.09Q5.42-5.63 5.42-5.02L5.42-5.02L5.42-4.85L5.42-4.85Q5.42-4.80 5.38-4.76L5.38-4.76L5.38-4.76Q5.35-4.73 5.30-4.73L5.30-4.73L4.40-4.73L4.40-4.73Q4.35-4.73 4.32-4.76L4.32-4.76L4.32-4.76Q4.28-4.80 4.28-4.85L4.28-4.85L4.28-4.96L4.28-4.96Q4.28-5.43 3.90-5.75L3.90-5.75L3.90-5.75Q3.51-6.08 2.83-6.08L2.83-6.08L2.83-6.08Q2.28-6.08 1.98-5.85L1.98-5.85L1.98-5.85Q1.67-5.62 1.67-5.20L1.67-5.20L1.67-5.20Q1.67-4.90 1.83-4.71L1.83-4.71L1.83-4.71Q1.99-4.52 2.31-4.37L2.31-4.37L2.31-4.37Q2.63-4.21 3.30-3.97L3.30-3.97L3.30-3.97Q4.01-3.70 4.44-3.48L4.44-3.48L4.44-3.48Q4.86-3.26 5.17-2.87L5.17-2.87L5.17-2.87Q5.47-2.47 5.47-1.88L5.47-1.88L5.47-1.88Q5.47-0.98 4.80-0.45L4.80-0.45L4.80-0.45Q4.14 0.08 2.99 0.08L2.99 0.08ZM9.09 0.08L9.09 0.08Q8.35 0.08 7.78-0.21L7.78-0.21L7.78-0.21Q7.21-0.50 6.90-1.03L6.90-1.03L6.90-1.03Q6.58-1.57 6.58-2.27L6.58-2.27L6.58-6.88L6.58-6.88Q6.58-6.93 6.62-6.96L6.62-6.96L6.62-6.96Q6.65-7 6.70-7L6.70-7L7.62-7L7.62-7Q7.67-7 7.71-6.96L7.71-6.96L7.71-6.96Q7.74-6.93 7.74-6.88L7.74-6.88L7.74-2.25L7.74-2.25Q7.74-1.66 8.11-1.29L8.11-1.29L8.11-1.29Q8.48-0.92 9.09-0.92L9.09-0.92L9.09-0.92Q9.70-0.92 10.07-1.29L10.07-1.29L10.07-1.29Q10.44-1.66 10.44-2.25L10.44-2.25L10.44-6.88L10.44-6.88Q10.44-6.93 10.48-6.96L10.48-6.96L10.48-6.96Q10.51-7 10.56-7L10.56-7L11.48-7L11.48-7Q11.53-7 11.57-6.96L11.57-6.96L11.57-6.96Q11.60-6.93 11.60-6.88L11.60-6.88L11.60-2.27L11.60-2.27Q11.60-1.57 11.29-1.03L11.29-1.03L11.29-1.03Q10.98-0.50 10.41-0.21L10.41-0.21L10.41-0.21Q9.84 0.08 9.09 0.08L9.09 0.08ZM17.51-6.92L17.51-6.92Q17.56-7 17.65-7L17.65-7L18.57-7L18.57-7Q18.62-7 18.66-6.96L18.66-6.96L18.66-6.96Q18.69-6.93 18.69-6.88L18.69-6.88L18.69-0.12L18.69-0.12Q18.69-0.07 18.66-0.04L18.66-0.04L18.66-0.04Q18.62 0 18.57 0L18.57 0L17.65 0L17.65 0Q17.60 0 17.56-0.04L17.56-0.04L17.56-0.04Q17.53-0.07 17.53-0.12L17.53-0.12L17.53-4.89L17.53-4.89Q17.53-4.92 17.50-4.93L17.50-4.93L17.50-4.93Q17.48-4.94 17.47-4.91L17.47-4.91L16.22-2.99L16.22-2.99Q16.17-2.91 16.08-2.91L16.08-2.91L15.62-2.91L15.62-2.91Q15.53-2.91 15.48-2.99L15.48-2.99L14.22-4.90L14.22-4.90Q14.21-4.93 14.18-4.92L14.18-4.92L14.18-4.92Q14.16-4.91 14.16-4.88L14.16-4.88L14.16-0.12L14.16-0.12Q14.16-0.07 14.13-0.04L14.13-0.04L14.13-0.04Q14.09 0 14.04 0L14.04 0L13.12 0L13.12 0Q13.07 0 13.04-0.04L13.04-0.04L13.04-0.04Q13-0.07 13-0.12L13-0.12L13-6.88L13-6.88Q13-6.93 13.04-6.96L13.04-6.96L13.04-6.96Q13.07-7 13.12-7L13.12-7L14.04-7L14.04-7Q14.13-7 14.18-6.92L14.18-6.92L15.81-4.45L15.81-4.45Q15.83-4.43 15.85-4.43L15.85-4.43L15.85-4.43Q15.87-4.43 15.88-4.45L15.88-4.45L17.51-6.92ZM24.66-6.92L24.66-6.92Q24.71-7 24.80-7L24.80-7L25.72-7L25.72-7Q25.77-7 25.80-6.96L25.80-6.96L25.80-6.96Q25.84-6.93 25.84-6.88L25.84-6.88L25.84-0.12L25.84-0.12Q25.84-0.07 25.80-0.04L25.80-0.04L25.80-0.04Q25.77 0 25.72 0L25.72 0L24.80 0L24.80 0Q24.75 0 24.72-0.04L24.72-0.04L24.72-0.04Q24.68-0.07 24.68-0.12L24.68-0.12L24.68-4.89L24.68-4.89Q24.68-4.92 24.66-4.93L24.66-4.93L24.66-4.93Q24.63-4.94 24.62-4.91L24.62-4.91L23.37-2.99L23.37-2.99Q23.32-2.91 23.23-2.91L23.23-2.91L22.77-2.91L22.77-2.91Q22.68-2.91 22.63-2.99L22.63-2.99L21.37-4.90L21.37-4.90Q21.36-4.93 21.34-4.92L21.34-4.92L21.34-4.92Q21.31-4.91 21.31-4.88L21.31-4.88L21.31-0.12L21.31-0.12Q21.31-0.07 21.28-0.04L21.28-0.04L21.28-0.04Q21.24 0 21.19 0L21.19 0L20.27 0L20.27 0Q20.22 0 20.19-0.04L20.19-0.04L20.19-0.04Q20.15-0.07 20.15-0.12L20.15-0.12L20.15-6.88L20.15-6.88Q20.15-6.93 20.19-6.96L20.19-6.96L20.19-6.96Q20.22-7 20.27-7L20.27-7L21.19-7L21.19-7Q21.28-7 21.33-6.92L21.33-6.92L22.96-4.45L22.96-4.45Q22.98-4.43 23-4.43L23-4.43L23-4.43Q23.02-4.43 23.03-4.45L23.03-4.45L24.66-6.92ZM32.04-6.12L32.04-6.12Q32.04-6.07 32.01-6.04L32.01-6.04L32.01-6.04Q31.97-6 31.92-6L31.92-6L28.51-6L28.51-6Q28.46-6 28.46-5.95L28.46-5.95L28.46-4.08L28.46-4.08Q28.46-4.03 28.51-4.03L28.51-4.03L30.80-4.03L30.80-4.03Q30.85-4.03 30.89-4.00L30.89-4.00L30.89-4.00Q30.92-3.96 30.92-3.91L30.92-3.91L30.92-3.15L30.92-3.15Q30.92-3.10 30.89-3.06L30.89-3.06L30.89-3.06Q30.85-3.03 30.80-3.03L30.80-3.03L28.51-3.03L28.51-3.03Q28.46-3.03 28.46-2.98L28.46-2.98L28.46-1.05L28.46-1.05Q28.46-1 28.51-1L28.51-1L31.92-1L31.92-1Q31.97-1 32.01-0.96L32.01-0.96L32.01-0.96Q32.04-0.93 32.04-0.88L32.04-0.88L32.04-0.12L32.04-0.12Q32.04-0.07 32.01-0.04L32.01-0.04L32.01-0.04Q31.97 0 31.92 0L31.92 0L27.42 0L27.42 0Q27.37 0 27.34-0.04L27.34-0.04L27.34-0.04Q27.30-0.07 27.30-0.12L27.30-0.12L27.30-6.88L27.30-6.88Q27.30-6.93 27.34-6.96L27.34-6.96L27.34-6.96Q27.37-7 27.42-7L27.42-7L31.92-7L31.92-7Q31.97-7 32.01-6.96L32.01-6.96L32.01-6.96Q32.04-6.93 32.04-6.88L32.04-6.88L32.04-6.12ZM37.15 0L37.15 0Q37.05 0 37.01-0.09L37.01-0.09L35.69-2.97L35.69-2.97Q35.67-3.01 35.63-3.01L35.63-3.01L34.43-3.01L34.43-3.01Q34.38-3.01 34.38-2.96L34.38-2.96L34.38-0.12L34.38-0.12Q34.38-0.07 34.34-0.04L34.34-0.04L34.34-0.04Q34.31 0 34.26 0L34.26 0L33.34 0L33.34 0Q33.29 0 33.26-0.04L33.26-0.04L33.26-0.04Q33.22-0.07 33.22-0.12L33.22-0.12L33.22-6.88L33.22-6.88Q33.22-6.93 33.26-6.96L33.26-6.96L33.26-6.96Q33.29-7 33.34-7L33.34-7L36.09-7L36.09-7Q36.70-7 37.17-6.75L37.17-6.75L37.17-6.75Q37.64-6.49 37.90-6.03L37.90-6.03L37.90-6.03Q38.16-5.56 38.16-4.96L38.16-4.96L38.16-4.96Q38.16-4.27 37.80-3.79L37.80-3.79L37.80-3.79Q37.45-3.30 36.82-3.11L36.82-3.11L36.82-3.11Q36.80-3.11 36.79-3.09L36.79-3.09L36.79-3.09Q36.78-3.07 36.79-3.05L36.79-3.05L38.20-0.14L38.20-0.14Q38.22-0.10 38.22-0.08L38.22-0.08L38.22-0.08Q38.22 0 38.11 0L38.11 0L37.15 0ZM34.43-6L34.43-6Q34.38-6 34.38-5.95L34.38-5.95L34.38-3.96L34.38-3.96Q34.38-3.91 34.43-3.91L34.43-3.91L35.93-3.91L35.93-3.91Q36.41-3.91 36.70-4.20L36.70-4.20L36.70-4.20Q37-4.48 37-4.95L37-4.95L37-4.95Q37-5.42 36.70-5.71L36.70-5.71L36.70-5.71Q36.41-6 35.93-6L35.93-6L34.43-6Z"/><path fill="#252530" transform="translate(32.19, 95.3)" d="M3.38-1.84L3.38-1.84Q3.35-1.81 3.36-1.78L3.36-1.78L3.36-1.78Q3.38-1.75 3.42-1.75L3.42-1.75L7.35-1.75L7.35-1.75Q7.42-1.75 7.47-1.70L7.47-1.70L7.47-1.70Q7.53-1.65 7.53-1.58L7.53-1.58L7.53-0.17L7.53-0.17Q7.53-0.10 7.47-0.05L7.47-0.05L7.47-0.05Q7.42 0 7.35 0L7.35 0L0.83 0L0.83 0Q0.75 0 0.70-0.05L0.70-0.05L0.70-0.05Q0.65-0.10 0.65-0.17L0.65-0.17L0.65-1.51L0.65-1.51Q0.65-1.64 0.74-1.73L0.74-1.73L0.74-1.73Q1.45-2.42 2.19-3.24L2.19-3.24L2.19-3.24Q2.93-4.06 3.12-4.26L3.12-4.26L3.12-4.26Q3.52-4.74 3.94-5.18L3.94-5.18L3.94-5.18Q5.26-6.64 5.26-7.35L5.26-7.35L5.26-7.35Q5.26-7.86 4.90-8.19L4.90-8.19L4.90-8.19Q4.54-8.51 3.96-8.51L3.96-8.51L3.96-8.51Q3.38-8.51 3.02-8.19L3.02-8.19L3.02-8.19Q2.65-7.86 2.65-7.32L2.65-7.32L2.65-6.96L2.65-6.96Q2.65-6.89 2.60-6.84L2.60-6.84L2.60-6.84Q2.55-6.79 2.48-6.79L2.48-6.79L0.77-6.79L0.77-6.79Q0.70-6.79 0.65-6.84L0.65-6.84L0.65-6.84Q0.59-6.89 0.59-6.96L0.59-6.96L0.59-7.64L0.59-7.64Q0.64-8.42 1.09-9.03L1.09-9.03L1.09-9.03Q1.54-9.63 2.28-9.95L2.28-9.95L2.28-9.95Q3.03-10.27 3.96-10.27L3.96-10.27L3.96-10.27Q4.99-10.27 5.75-9.88L5.75-9.88L5.75-9.88Q6.51-9.50 6.92-8.85L6.92-8.85L6.92-8.85Q7.34-8.19 7.34-7.40L7.34-7.40L7.34-7.40Q7.34-6.79 7.03-6.15L7.03-6.15L7.03-6.15Q6.73-5.51 6.12-4.77L6.12-4.77L6.12-4.77Q5.67-4.21 5.15-3.65L5.15-3.65L5.15-3.65Q4.63-3.10 3.60-2.06L3.60-2.06L3.38-1.84ZM12.24 0.16L12.24 0.16Q10.64 0.16 9.72-0.73L9.72-0.73L9.72-0.73Q8.79-1.62 8.79-3.16L8.79-3.16L8.79-6.99L8.79-6.99Q8.79-8.50 9.72-9.38L9.72-9.38L9.72-9.38Q10.64-10.27 12.24-10.27L12.24-10.27L12.24-10.27Q13.83-10.27 14.77-9.38L14.77-9.38L14.77-9.38Q15.70-8.50 15.70-6.99L15.70-6.99L15.70-3.16L15.70-3.16Q15.70-1.62 14.77-0.73L14.77-0.73L14.77-0.73Q13.83 0.16 12.24 0.16L12.24 0.16ZM12.24-1.59L12.24-1.59Q12.89-1.59 13.27-1.99L13.27-1.99L13.27-1.99Q13.66-2.39 13.66-3.06L13.66-3.06L13.66-7.05L13.66-7.05Q13.66-7.71 13.27-8.11L13.27-8.11L13.27-8.11Q12.89-8.51 12.24-8.51L12.24-8.51L12.24-8.51Q11.60-8.51 11.22-8.11L11.22-8.11L11.22-8.11Q10.83-7.71 10.83-7.05L10.83-7.05L10.83-3.06L10.83-3.06Q10.83-2.39 11.22-1.99L11.22-1.99L11.22-1.99Q11.60-1.59 12.24-1.59L12.24-1.59ZM18.40-10.11L18.40-10.11Q18.47-10.15 18.62-10.15L18.62-10.15L20.37-10.15L20.37-10.15Q20.45-10.15 20.50-10.10L20.50-10.10L20.50-10.10Q20.55-10.05 20.55-9.98L20.55-9.98L20.55-0.17L20.55-0.17Q20.55-0.10 20.50-0.05L20.50-0.05L20.50-0.05Q20.45 0 20.37 0L20.37 0L18.68 0L18.68 0Q18.60 0 18.55-0.05L18.55-0.05L18.55-0.05Q18.50-0.10 18.50-0.17L18.50-0.17L18.50-8.12L18.50-8.12Q18.50-8.15 18.47-8.18L18.47-8.18L18.47-8.18Q18.44-8.21 18.41-8.19L18.41-8.19L16.98-7.80L16.92-7.79L16.92-7.79Q16.79-7.79 16.79-7.95L16.79-7.95L16.75-9.19L16.75-9.19Q16.75-9.34 16.88-9.40L16.88-9.40L18.40-10.11ZM28.19-8.31L28.19-8.31Q28.43-7.71 28.43-6.89L28.43-6.89L28.43-2.52L28.43-2.52Q28.43-1.74 28.03-1.14L28.03-1.14L28.03-1.14Q27.62-0.54 26.88-0.21L26.88-0.21L26.88-0.21Q26.14 0.12 25.19 0.12L25.19 0.12L25.19 0.12Q24.24 0.12 23.52-0.21L23.52-0.21L23.52-0.21Q22.79-0.54 22.39-1.12L22.39-1.12L22.39-1.12Q21.98-1.71 21.98-2.48L21.98-2.48L21.98-2.89L21.98-2.89Q21.98-2.96 22.03-3.01L22.03-3.01L22.03-3.01Q22.08-3.06 22.16-3.06L22.16-3.06L23.85-3.06L23.85-3.06Q23.93-3.06 23.98-3.01L23.98-3.01L23.98-3.01Q24.03-2.96 24.03-2.89L24.03-2.89L24.03-2.76L24.03-2.76Q24.03-2.28 24.35-1.96L24.35-1.96L24.35-1.96Q24.68-1.64 25.19-1.64L25.19-1.64L25.19-1.64Q25.72-1.64 26.06-1.96L26.06-1.96L26.06-1.96Q26.39-2.29 26.39-2.80L26.39-2.80L26.39-4.15L26.39-4.15Q26.39-4.19 26.36-4.21L26.36-4.21L26.36-4.21Q26.33-4.22 26.30-4.19L26.30-4.19L26.30-4.19Q25.71-3.68 24.74-3.68L24.74-3.68L24.74-3.68Q23.87-3.68 23.18-4.08L23.18-4.08L23.18-4.08Q22.49-4.48 22.10-5.23L22.10-5.23L22.10-5.23Q21.74-5.92 21.74-6.90L21.74-6.90L21.74-6.90Q21.74-7.76 22.03-8.41L22.03-8.41L22.03-8.41Q22.39-9.27 23.19-9.76L23.19-9.76L23.19-9.76Q24.00-10.25 25.09-10.25L25.09-10.25L25.09-10.25Q26.19-10.25 27.01-9.74L27.01-9.74L27.01-9.74Q27.83-9.22 28.19-8.31L28.19-8.31ZM25.09-5.39L25.09-5.39Q25.84-5.39 26.17-5.99L26.17-5.99L26.17-5.99Q26.39-6.37 26.39-6.96L26.39-6.96L26.39-6.96Q26.39-7.44 26.20-7.84L26.20-7.84L26.20-7.84Q25.88-8.48 25.10-8.48L25.10-8.48L25.10-8.48Q24.35-8.48 24.00-7.84L24.00-7.84L24.00-7.84Q23.78-7.44 23.78-6.93L23.78-6.93L23.78-6.93Q23.78-6.38 24.03-5.97L24.03-5.97L24.03-5.97Q24.39-5.39 25.09-5.39L25.09-5.39Z"/></g>
</svg>
