<svg viewBox="0 0 601 169" xmlns="http://www.w3.org/2000/svg">
  <path d="M128.3 38.5c-1.7 1.9-3.7 3.8-5.8 5.9l-8.3 7.9h24.1v9.8H99.5V57L113 40.7c2.5-2.5 4.6-4.7 6.1-6.6 1.5-1.8 3.3-4 4.1-5.4 1-1.6 6.1-6.5 5.6-12.6-2.2-6.8-8.5-7.4-12.2-6.9-3.8.1-8.2 5.2-8.9 9.6 0 0-6.9-1-8.4-1.7.1-1.9 3.4-10.2 9.8-13.9 3.1-1.4 5.1-2.1 8.7-2.1 2.8 0 5.3.4 7.6 1.1 2.3.7 4.2 1.8 5.8 3.2 1.6 1.4 4.3 3.1 5.1 5.2 1.3 2.7 2.3 5.5 2.3 8.3.3 6.2-5 12.3-6 13.9-1.2 2-2.6 3.9-4.3 5.7zm-45 130.2a83.2 83.2 0 0 1 0-166.4v29.4c-29.7 0-53.8 24.1-53.8 53.8 0 29.7 24.1 53.9 53.8 53.9 23.6 0 43.6-15.2 50.9-36.3-14.4 0-34.8-.1-34.8-.1V72.2h66.1c.7 4.3 1.1 8.8 1.1 13.3-.1 46-37.3 83.2-83.3 83.2zM194.5.9h5.6v166.4h-5.6V.9zm81.3 122.9c-4.8 2.9-10.8 4.4-17.8 4.4-7.3 0-13.4-1.2-18.1-3.7-4.8-2.5-7.9-5.9-9.5-10.3-1.5-4.4-2.3-11-2.3-19.8V68.1c0-6.5.2-11.3.7-14.6.5-3.2 1.9-6.4 4.3-9.4s5.6-5.4 9.8-7.1c4.2-1.7 9-2.6 14.4-2.6 7.4 0 13.5 1.3 18.3 4 4.8 2.7 7.9 6 9.5 10 1.5 4 1.8 2.8 1.8 11.2v7l-20.4-.3v-6.1c0-4.6-.5-7.5-1.6-8.7-1.1-1.1-3.4-1.7-6.9-1.7-4.1 0-6.6.7-7.7 2.1-1.1 1.4-1.6 4.4-1.6 9V102c0 4.4.5 7.3 1.6 8.7 1.1 1.4 3.5 2 7.4 2 3.7 0 6-.7 7.2-2 1.1-1.4 1.7-3.2 1.7-8.2l-.1-6.5H287v1.4c0 9.3-.3 12.3-1.7 16.1-1.6 3.9-4.7 7.4-9.5 10.3zm58.3-65.6c0-2.8-1.4-6.1-4.1-7-2.7-.9-6.2-1.3-13.4-1.3v25.5c7 0 10.5-.4 13.2-1.1 2.8-.7 4.2-7.2 4.2-11.2v-4.9h.1zm0 40.3c0-4.8-1-7.7-3-8.9-2-1.1-5.9-1.7-14.4-1.7v38.9h-20.1l.3-90.4H315c12.1 0 20.3.4 24.6 1.3 4.3.9 7.8 3 10.5 6.5s4.1 9.1 4.1 16.8c0 7-1.2 13.3-3 15.7-1.9 2.4-5.6 3.9-11.1 4.4 5 1.2 8.4 2.7 10.1 4.6 1.7 1.9 2.8 3.7 3.2 5.3.4 1.6.9 4.3.9 11.6v23.7l-20 .5V98.5h-.2zm71.6-38.9c0-4.2-.7-6.8-2-8-1.3-1.2-4.1-1.7-8.2-1.7-3.5 0-6.2.5-8.1 1.4-1.9.9-2.8 3.7-2.8 8.3v41.8c0 5.2.6 8.4 1.8 9.6 1.2 1.2 4.1 1.8 8.5 1.8 4.6 0 7.5-.7 8.8-2.1 1.3-1.4 1.9-4.7 1.9-10V59.6h.1zm15.7 58.9c-2.5 3.1-6 5.5-10.3 7.2-4.3 1.7-9.4 2.5-15.2 2.5-5.5 0-10.4-.8-14.8-2.4-4.4-1.6-7.9-3.9-10.5-7.1a19.4 19.4 0 0 1-4.7-10.3c-.5-3.7-.8-10.2-.8-19.5V73.5c0-9 .2-15.4.7-19.2.5-3.8 2-7.2 4.6-10.3 2.6-3.1 6-5.5 10.3-7.2 4.3-1.7 9.4-2.5 15.2-2.5 5.5 0 10.4.8 14.8 2.4 4.4 1.6 7.9 3.9 10.5 7.1 2.6 3.1 4.2 6.6 4.7 10.3.5 3.7.8 10.2.8 19.4V89c0 9-.2 15.4-.7 19.2-.5 3.8-2 7.2-4.6 10.3zm74.6 7.8c-2.9-13.8-9.7-47.7-12-65.4-1 7.6-9 41.5-12.7 65.4h-22l-17.1-90h19.3l5.5 31.4 4 37.3c.9-15.7 8.9-43.3 12.7-68.7h22.4c.3 2.6 4.1 12.5 5.6 29.7l5.6 38.4c1.5-21.8 6.6-47.3 10-68.1h17.9l-18.4 90H496zm84.5-64c0-4-.3-6.6-.9-7.8-.6-1.1-2.1-2-4.4-2.5-2.3-.5-6.5-.8-12.8-.8v60.1c8.3 0 13.3-.7 15.3-2 1.9-1.3 2.9-5 2.9-11v-36h-.1zm18.3 53.5c-.8 2.7-2.3 4.9-4.4 6.4-2.1 1.5-4.6 2.6-7.7 3.2-3 .6-6.2.9-12.4.9H542v-90h19.2c12.4 0 19.4.5 23.7 1.6 4.4 1 7.7 2.7 10 5.1 2.3 2.4 3.7 5 4.3 7.9.6 2.9.8 8.6.8 17.1v31.5c.1 8.1-.3 13.5-1.2 16.3z" fill="#F0492D" fill-rule="evenodd"/>
</svg>
