<svg viewBox="0 0 281 47" xmlns="http://www.w3.org/2000/svg" xmlns:xlink="http://www.w3.org/1999/xlink">
  <defs>
    <path d="M8.65 43.32c0 1.47-.74 2.28-2.29 2.28H2.2c-1.47 0-2.2-.73-2.2-2.28V2.28C0 .73.73 0 2.2 0h4.16c1.55 0 2.29.73 2.29 2.28v41.04" id="a"/>
    <path d="M2.94 18.2H2.2c-1.47 0-2.2-.74-2.2-2.3V12.9c0-1.47.73-2.28 2.2-2.28h.74V5.63c0-1.47.24-3.1 2.04-3.59L8.48.98c1.96-.57 3.02.16 3.02 2.04v7.59h2.86c1.47 0 2.2.73 2.2 2.28v3.02c0 1.47-.73 2.28-2.2 2.28H11.5v18.52c0 1.8.98 2.37 2.29 2.37h.9c.97 0 1.63.32 1.63 1.87v2.37c0 2.28-2.29 3.26-4.65 3.26-4.4 0-8.81-2.53-8.81-8.65V18.2" id="c"/>
    <path d="M24.07 18.6c0 1.47-.74 2.28-2.2 2.28H8.64v2.45c0 3.84 1.71 5.88 5.79 5.88 2.77 0 3.83-1.15 5.63-1.15 1.63 0 2.2 1.3 2.2 2.29v1.06c0 2.85-2.7 5.3-8.4 5.3C4.8 36.71 0 31.25 0 22.6V11.83C0 4.57 5.14 0 12 0c6.93 0 11.98 4.57 11.98 11.83v6.77h.09zm-8.57-6.77c0-3.26-1.3-4.9-3.43-4.9-2.12 0-3.42 1.64-3.42 4.9v2.28h6.85v-2.28z" id="e"/>
    <path d="M8.65 33.7c0 1.46-.74 2.28-2.29 2.28H2.2c-1.47 0-2.2-.74-2.2-2.29V3.02C0 1.47.73.73 2.2.73h4.16c1.63 0 2.29.74 2.29 2.45C9.95 1.71 12.07 0 14.6 0c1.63 0 1.8 1.06 1.8 1.88v3.59c0 1.95-1.63 2.2-3.27 2.36-2.69.33-4.48 2.61-4.48 5.96v19.9" id="g"/>
    <path d="M16.23 12.4c0-2.77-1.22-4.9-3.75-4.9-2.53 0-3.75 2.04-3.75 4.9v21.37c0 1.47-.74 2.29-2.29 2.29H2.28c-1.46 0-2.2-.74-2.2-2.29V3.02C.08 1.47.82.73 2.28.73h4.16c1.47 0 2.29.74 2.29 2.29 0 0 2.28-2.94 6.69-2.94 6.44 0 9.46 4.9 9.46 12.4v21.38c0 1.46-.73 2.28-2.28 2.28h-4.16c-1.47 0-2.2-.73-2.2-2.28V12.4" id="i"/>
    <path d="M4.81 7.59c-.81 0-1.8-.41-1.8-1.72V4c0-2.94 4.33-4 8.5-4C17.3 0 24.8 1.47 24.8 11.18V33.6c0 1.55-.73 2.29-2.2 2.29h-3.18c-1.4 0-2.12-.66-2.29-1.8-.16.25-2.28 2.45-6.2 2.45C4.5 36.55 0 31.57 0 25.2c0-10.69 8-13.79 16.15-14.69-.16-2.36-1.06-4-4.81-4-3.75 0-5.22 1.07-6.53 1.07zm7.59 21.37c2.45 0 3.75-2.04 3.75-4.65v-7.34c-3.83.9-7.58 2.2-7.58 7.34.08 2.53 1.22 4.65 3.83 4.65z" id="k"/>
    <path d="M2.94 18.2H2.2c-1.47 0-2.2-.74-2.2-2.3V12.9c0-1.47.73-2.28 2.2-2.28h.74V5.63c0-1.47.24-3.1 2.04-3.59L8.48.98c1.96-.57 3.02.16 3.02 2.04v7.59h2.86c1.47 0 2.2.73 2.2 2.28v3.02c0 1.47-.73 2.28-2.2 2.28H11.5v18.52c0 1.8.98 2.37 2.29 2.37h.9c.97 0 1.63.32 1.63 1.87v2.37c0 2.28-2.29 3.26-4.65 3.26-4.4 0-8.81-2.53-8.81-8.65V18.2" id="m"/>
    <path d="M8.65 5.22c0 1.47-.74 2.29-2.29 2.29H2.2C.73 7.5 0 6.77 0 5.22V2.28C0 .73.73 0 2.2 0h4.16c1.55 0 2.29.73 2.29 2.28v2.94zm0 38.1c0 1.47-.74 2.28-2.29 2.28H2.2c-1.47 0-2.2-.73-2.2-2.28V12.64c0-1.55.73-2.28 2.2-2.28h4.16c1.55 0 2.29.73 2.29 2.28v30.68z" id="o"/>
    <path d="M25.78 0c1.47 0 2.53 1.06 1.88 3.02l-9.63 30.02c-.33 1.14-1.14 2.28-2.86 2.28h-3.01c-1.72 0-2.53-1.06-2.86-2.28L.24 3.02C-.33 1.06.65 0 2.12 0H5.8C7.6 0 8.4.9 8.73 2.28l5.3 19.42 5.71-19.42C20.15.82 20.88 0 22.68 0h3.1" id="q"/>
    <path d="M24.07 18.6c0 1.47-.74 2.28-2.2 2.28H8.64v2.45c0 3.84 1.71 5.88 5.79 5.88 2.77 0 3.83-1.15 5.63-1.15 1.63 0 2.2 1.3 2.2 2.29v1.06c0 2.85-2.7 5.3-8.4 5.3C4.8 36.71 0 31.25 0 22.6V11.83C0 4.57 5.14 0 12 0c6.93 0 11.98 4.57 11.98 11.83v6.77h.09zm-8.57-6.77c0-3.26-1.3-4.9-3.43-4.9-2.12 0-3.34 1.64-3.34 4.9v2.28h6.85v-2.28h-.08z" id="s"/>
    <path d="M27.57 2.28v3.27c0 1.47-.73 2.28-2.28 2.28h-5.71c-.9 0-1.3.5-1.3 1.39v34.1c0 1.47-.74 2.28-2.2 2.28h-4.5c-1.55 0-2.28-.73-2.28-2.28V9.22c0-.9-.49-1.39-1.3-1.39H2.27C.73 7.83 0 7.1 0 5.55V2.28C0 .73.73 0 2.28 0H25.3c1.55 0 2.28.73 2.28 2.28" id="u"/>
    <path d="M4.81 7.59c-.81 0-1.8-.41-1.8-1.72V4c0-2.94 4.33-4 8.57-4 5.8 0 13.3 1.47 13.3 11.18V33.6c0 1.55-.73 2.29-2.2 2.29H19.5c-1.39 0-2.12-.66-2.29-1.8-.16.25-2.28 2.45-6.2 2.45C4.5 36.63 0 31.65 0 25.29 0 14.6 8 11.5 16.23 10.61c-.16-2.37-1.06-4.08-4.8-4.08-3.84 0-5.31 1.06-6.62 1.06zm7.59 21.37c2.45 0 3.75-2.04 3.75-4.65v-7.34c-3.83.9-7.58 2.2-7.58 7.34.08 2.53 1.22 4.65 3.83 4.65z" id="w"/>
    <path d="M0 11.67C0 3.5 6.12 0 12.32 0s12.32 3.5 12.32 11.67v13.38c0 8.15-6.12 11.66-12.32 11.66S0 33.21 0 25.05V11.67zm8.65 13.38c0 2.69 1.47 4.07 3.75 4.07 2.28 0 3.75-1.46 3.75-4.07V11.67c0-2.7-1.47-4.08-3.75-4.08-2.28 0-3.75 1.47-3.75 4.08v13.38z" id="y"/>
  </defs>
  <g fill="none" fill-rule="evenodd" stroke-linecap="round" stroke-linejoin="round">
    <g transform="translate(29.32 .09)">
      <mask id="b" fill="#fff">
        <use xlink:href="#a"/>
      </mask>
      <path stroke="#000" stroke-width="1.24" fill="#4A87A8" fill-rule="nonzero" mask="url(#b)" d="M-4.08-4.08h16.8v53.76h-16.8z"/>
    </g>
    <g transform="translate(39.93 .09)">
      <mask id="d" fill="#fff">
        <use xlink:href="#c"/>
      </mask>
      <path stroke="#000" stroke-width="1.24" fill="#4A87A8" fill-rule="nonzero" mask="url(#d)" d="M-4.08-3.26h24.72v53.92H-4.08z"/>
    </g>
    <g transform="translate(57.87 9.88)">
      <mask id="f" fill="#fff">
        <use xlink:href="#e"/>
      </mask>
      <path stroke="#000" stroke-width="1.24" fill="#4A87A8" fill-rule="nonzero" mask="url(#f)" d="M-4.08-4.08h32.23v44.79H-4.08z"/>
    </g>
    <g transform="translate(84.8 9.88)">
      <mask id="h" fill="#fff">
        <use xlink:href="#g"/>
      </mask>
      <path stroke="#000" stroke-width="1.24" fill="#4A87A8" fill-rule="nonzero" mask="url(#h)" d="M-4.08-4.08h24.56v44.14H-4.08z"/>
    </g>
    <g transform="translate(103.56 9.88)">
      <mask id="j" fill="#fff">
        <use xlink:href="#i"/>
      </mask>
      <path stroke="#000" stroke-width="1.24" fill="#4A87A8" fill-rule="nonzero" mask="url(#j)" d="M-4.08-4.08h32.96v44.14H-4.08z"/>
    </g>
    <g transform="translate(131.3 9.88)">
      <mask id="l" fill="#fff">
        <use xlink:href="#k"/>
      </mask>
      <path stroke="#000" stroke-width="1.24" fill="#4A87A8" fill-rule="nonzero" mask="url(#l)" d="M-4.08-4.08h32.96v44.79H-4.08z"/>
    </g>
    <g transform="translate(157.4 .09)">
      <mask id="n" fill="#fff">
        <use xlink:href="#m"/>
      </mask>
      <path stroke="#000" stroke-width="1.24" fill="#4A87A8" fill-rule="nonzero" mask="url(#n)" d="M-4.08-3.26h24.72v53.92H-4.08z"/>
    </g>
    <g transform="translate(176.98 .09)">
      <mask id="p" fill="#fff">
        <use xlink:href="#o"/>
      </mask>
      <path stroke="#000" stroke-width="1.24" fill="#4A87A8" fill-rule="nonzero" mask="url(#p)" d="M-4.08-4.08h16.8v53.76h-16.8z"/>
    </g>
    <g transform="translate(187.59 10.7)">
      <mask id="r" fill="#fff">
        <use xlink:href="#q"/>
      </mask>
      <path stroke="#000" stroke-width="1.24" fill="#4A87A8" fill-rule="nonzero" mask="url(#r)" d="M-4.08-4.08h36.06V39.4H-4.08z"/>
    </g>
    <g transform="translate(216.14 9.88)">
      <mask id="t" fill="#fff">
        <use xlink:href="#s"/>
      </mask>
      <path stroke="#000" stroke-width="1.24" fill="#4A87A8" fill-rule="nonzero" mask="url(#t)" d="M-4.08-4.08h32.23v44.79H-4.08z"/>
    </g>
    <g transform="translate(234.09 .09)">
      <mask id="v" fill="#fff">
        <use xlink:href="#u"/>
      </mask>
      <path stroke="#000" stroke-width="1.24" fill="#4A87A8" fill-rule="nonzero" mask="url(#v)" d="M-4.08-4.08h35.73v53.76H-4.08z"/>
    </g>
    <g transform="translate(.77 9.88)">
      <mask id="x" fill="#fff">
        <use xlink:href="#w"/>
      </mask>
      <path stroke="#000" stroke-width="1.24" fill="#4A87A8" fill-rule="nonzero" mask="url(#x)" d="M-4.08-4.08h32.96v44.79H-4.08z"/>
    </g>
    <g transform="translate(256.11 9.88)">
      <mask id="z" fill="#fff">
        <use xlink:href="#y"/>
      </mask>
      <path stroke="#000" stroke-width="1.24" fill="#4A87A8" fill-rule="nonzero" mask="url(#z)" d="M-4.08-4.08H28.8v44.79H-4.08z"/>
    </g>
  </g>
</svg>
